0
SECTION
2
HEADER
9
$INSUNITS
70
4
9
$ACADVER
1
AC1014
9
$HANDSEED
5
FFFF
0
ENDSEC
0
SECTION
2
TABLES
0
TABLE
2
VPORT
5
8
100
AcDbSymbolTable
0
ENDTAB
0
TABLE
2
LTYPE
5
5
100
AcDbSymbolTable
0
LTYPE
5
14
100
AcDbSymbolTableRecord
100
AcDbLinetypeTableRecord
2
BYBLOCK
70
0
0
LTYPE
5
15
100
AcDbSymbolTableRecord
100
AcDbLinetypeTableRecord
2
BYLAYER
70
0
0
ENDTAB
0
TABLE
2
LAYER
5
2
100
AcDbSymbolTable
70
2
0
LAYER
5
50
100
AcDbSymbolTableRecord
100
AcDbLayerTableRecord
2
0
70
0
6
CONTINUOUS
0
ENDTAB
0
TABLE
2
STYLE
5
3
100
AcDbSymbolTable
70
1
0
STYLE
5
11
100
AcDbSymbolTableRecord
100
AcDbTextStyleTableRecord
2
STANDARD
70
0
0
ENDTAB
0
TABLE
2
VIEW
5
6
100
AcDbSymbolTable
70
0
0
ENDTAB
0
TABLE
2
UCS
5
7
100
AcDbSymbolTable
70
0
0
ENDTAB
0
TABLE
2
APPID
5
9
100
AcDbSymbolTable
70
2
0
APPID
5
12
100
AcDbSymbolTableRecord
100
AcDbRegAppTableRecord
2
ACAD
70
0
0
ENDTAB
0
TABLE
2
DIMSTYLE
5
A
100
AcDbSymbolTable
70
1
0
ENDTAB
0
TABLE
2
BLOCK_RECORD
5
1
100
AcDbSymbolTable
70
1
0
BLOCK_RECORD
5
1F
100
AcDbSymbolTableRecord
100
AcDbBlockTableRecord
2
*MODEL_SPACE
0
BLOCK_RECORD
5
1B
100
AcDbSymbolTableRecord
100
AcDbBlockTableRecord
2
*PAPER_SPACE
0
ENDTAB
0
ENDSEC
0
SECTION
2
BLOCKS
0
BLOCK
5
20
100
AcDbEntity
100
AcDbBlockBegin
2
*MODEL_SPACE
0
ENDBLK
5
21
100
AcDbEntity
100
AcDbBlockEnd
0
BLOCK
5
1C
100
AcDbEntity
100
AcDbBlockBegin
2
*PAPER_SPACE
0
ENDBLK
5
1D
100
AcDbEntity
100
AcDbBlockEnd
0
ENDSEC
0
SECTION
2
ENTITIES
0
SPLINE
5
100
100
AcDbEntity
8
0
100
AcDbSpline
70
4
71
3
72
8
73
4
74
0
42
0.000000001
43
0.0000000001
44
0.0000000001
40
0
40
0
40
0
40
0
40
1
40
1
40
1
40
1
41
1
41
1
41
1
41
1
10
-14.597361035245768
20
-10.19515694566142
30
0
10
-14.640448279279582
20
-10.173386229947919
30
0
10
-14.641005415815226
20
-10.173751598473107
30
0
10
-14.642860518990071
20
-10.225076792514042
30
0
0
SPLINE
5
101
100
AcDbEntity
8
0
100
AcDbSpline
70
4
71
3
72
8
73
4
74
0
42
0.000000001
43
0.0000000001
44
0.0000000001
40
0
40
0
40
0
40
0
40
1
40
1
40
1
40
1
41
1
41
1
41
1
41
1
10
-14.642860518990071
20
-10.225076792514042
30
0
10
-14.643892029025267
20
-10.253654263293459
30
0
10
-14.643441878853352
20
-10.283745692050172
30
0
10
-14.641855250893148
20
-10.291947307065838
30
0
0
SPLINE
5
102
100
AcDbEntity
8
0
100
AcDbSpline
70
4
71
3
72
8
73
4
74
0
42
0.000000001
43
0.0000000001
44
0.0000000001
40
0
40
0
40
0
40
0
40
1
40
1
40
1
40
1
41
1
41
1
41
1
41
1
10
-14.641855250893148
20
-10.291947307065838
30
0
10
-14.633970557747396
20
-10.332727279142254
30
0
10
-14.698047315178426
20
-10.448288700854496
30
0
10
-14.760428439674884
20
-10.505788824832155
30
0
0
SPLINE
5
103
100
AcDbEntity
8
0
100
AcDbSpline
70
4
71
3
72
8
73
4
74
0
42
0.000000001
43
0.0000000001
44
0.0000000001
40
0
40
0
40
0
40
0
40
1
40
1
40
1
40
1
41
1
41
1
41
1
41
1
10
-14.760428439674884
20
-10.505788824832155
30
0
10
-14.849733792839558
20
-10.588107766584272
30
0
10
-14.928348584073895
20
-10.596020720278933
30
0
10
-14.964398951429239
20
-10.526324150836183
30
0
0
SPLINE
5
104
100
AcDbEntity
8
0
100
AcDbSpline
70
4
71
3
72
8
73
4
74
0
42
0.000000001
43
0.0000000001
44
0.0000000001
40
0
40
0
40
0
40
0
40
1
40
1
40
1
40
1
41
1
41
1
41
1
41
1
10
-14.964398951429239
20
-10.526324150836183
30
0
10
-14.976960765419513
20
-10.502030171827192
30
0
10
-14.992498011487832
20
-10.453849973157759
30
0
10
-14.998925267754109
20
-10.419253005460615
30
0
0
SPLINE
5
105
100
AcDbEntity
8
0
100
AcDbSpline
70
4
71
3
72
8
73
4
74
0
42
0.000000001
43
0.0000000001
44
0.0000000001
40
0
40
0
40
0
40
0
40
1
40
1
40
1
40
1
41
1
41
1
41
1
41
1
10
-14.998925267754109
20
-10.419253005460615
30
0
10
-15.015302255847168
20
-10.331098260358687
30
0
10
-15.05733174790751
20
-10.238145277774052
30
0
10
-15.108087693748981
20
-10.177825154737349
30
0
0
SPLINE
5
106
100
AcDbEntity
8
0
100
AcDbSpline
70
4
71
3
72
8
73
4
74
0
42
0.000000001
43
0.0000000001
44
0.0000000001
40
0
40
0
40
0
40
0
40
1
40
1
40
1
40
1
41
1
41
1
41
1
41
1
10
-15.108087693748981
20
-10.177825154737349
30
0
10
-15.159550153313193
20
-10.116665289675906
30
0
10
-15.249166372515868
20
-10.087474161263025
30
0
10
-15.463976823387654
20
-10.061900383110558
30
0
0
SPLINE
5
107
100
AcDbEntity
8
0
100
AcDbSpline
70
4
71
3
72
8
73
4
74
0
42
0.000000001
43
0.0000000001
44
0.0000000001
40
0
40
0
40
0
40
0
40
1
40
1
40
1
40
1
41
1
41
1
41
1
41
1
10
-15.463976823387654
20
-10.061900383110558
30
0
10
-15.623907306887816
20
-10.042858828977458
30
0
10
-15.850506443876139
20
-10.059544664497885
30
0
10
-16.02101040988973
20
-10.102938737348433
30
0
0
SPLINE
5
108
100
AcDbEntity
8
0
100
AcDbSpline
70
4
71
3
72
8
73
4
74
0
42
0.000000001
43
0.0000000001
44
0.0000000001
40
0
40
0
40
0
40
0
40
1
40
1
40
1
40
1
41
1
41
1
41
1
41
1
10
-16.02101040988973
20
-10.102938737348433
30
0
10
-16.165807369448853
20
-10.139784437294516
30
0
10
-16.527780591545614
20
-10.176618025576785
30
0
10
-16.631708760160318
20
-10.165085703011069
30
0
0
SPLINE
5
109
100
AcDbEntity
8
0
100
AcDbSpline
70
4
71
3
72
8
73
4
74
0
42
0.000000001
43
0.0000000001
44
0.0000000001
40
0
40
0
40
0
40
0
40
1
40
1
40
1
40
1
41
1
41
1
41
1
41
1
10
-16.631708760160318
20
-10.165085703011069
30
0
10
-16.767058621941121
20
-10.150065221265667
30
0
10
-16.948170386848957
20
-10.089428176359052
30
0
10
-17.065996689695233
20
-10.01968316026103
30
0
0
SPLINE
5
110
100
AcDbEntity
8
0
100
AcDbSpline
70
4
71
3
72
8
73
4
74
0
42
0.000000001
43
0.0000000001
44
0.0000000001
40
0
40
0
40
0
40
0
40
1
40
1
40
1
40
1
41
1
41
1
41
1
41
1
10
-17.065996689695233
20
-10.01968316026103
30
0
10
-17.133067046700031
20
-9.9799831448750851
30
0
10
-17.218623839912922
20
-9.9041863340891538
30
0
10
-17.31979256778768
20
-9.794838195915732
30
0
0
SPLINE
5
111
100
AcDbEntity
8
0
100
AcDbSpline
70
4
71
3
72
8
73
4
74
0
42
0.000000001
43
0.0000000001
44
0.0000000001
40
0
40
0
40
0
40
0
40
1
40
1
40
1
40
1
41
1
41
1
41
1
41
1
10
-17.31979256778768
20
-9.794838195915732
30
0
10
-17.610730881589763
20
-9.4803850868103048
30
0
10
-17.649819257952881
20
-9.4450795867797872
30
0
10
-17.770261680183918
20
-9.3879609802124051
30
0
0
SPLINE
5
112
100
AcDbEntity
8
0
100
AcDbSpline
70
4
71
3
72
8
73
4
74
0
42
0.000000001
43
0.0000000001
44
0.0000000001
40
0
40
0
40
0
40
0
40
1
40
1
40
1
40
1
41
1
41
1
41
1
41
1
10
-17.770261680183918
20
-9.3879609802124051
30
0
10
-17.833274629809569
20
-9.3580774683512384
30
0
10
-17.920523018735757
20
-9.3257554748413103
30
0
10
-17.964143175977579
20
-9.3161347765482603
30
0
0
SPLINE
5
113
100
AcDbEntity
8
0
100
AcDbSpline
70
4
71
3
72
8
73
4
74
0
42
0.000000001
43
0.0000000001
44
0.0000000001
40
0
40
0
40
0
40
0
40
1
40
1
40
1
40
1
41
1
41
1
41
1
41
1
10
-17.964143175977579
20
-9.3161347765482603
30
0
10
-18.007765351830038
20
-9.3065140782552103
30
0
10
-18.254026765722145
20
-9.2928036748128271
30
0
10
-18.511392556725056
20
-9.2856699048238145
30
0
0
SPLINE
5
114
100
AcDbEntity
8
0
100
AcDbSpline
70
4
71
3
72
8
73
4
74
0
42
0.000000001
43
0.0000000001
44
0.0000000001
40
0
40
0
40
0
40
0
40
1
40
1
40
1
40
1
41
1
41
1
41
1
41
1
10
-18.511392556725056
20
-9.2856699048238145
30
0
10
-18.905051909981282
20
-9.2747552771128365
30
0
10
-19.000733044841002
20
-9.2673711994049093
30
0
10
-19.114159785805256
20
-9.2391389110443143
30
0
0
SPLINE
5
115
100
AcDbEntity
8
0
100
AcDbSpline
70
4
71
3
72
8
73
4
74
0
42
0.000000001
43
0.0000000001
44
0.0000000001
40
0
40
0
40
0
40
0
40
1
40
1
40
1
40
1
41
1
41
1
41
1
41
1
10
-19.114159785805256
20
-9.2391389110443143
30
0
10
-19.774348413048301
20
-9.0748260238525411
30
0
10
-20.022435660261028
20
-8.8194939830657972
30
0
10
-19.998799748319499
20
-8.3286647696055116
30
0
0
LINE
5
116
100
AcDbEntity
8
0
100
AcDbLine
10
-19.998799748319499
20
-8.3286647696055098
30
0
11
-19.991290516752116
21
-8.1727109490590433
31
0
0
LINE
5
117
100
AcDbEntity
8
0
100
AcDbLine
10
-19.991290516752116
20
-8.1727109490590433
30
0
11
-20.049056088028465
21
-8.136244747912599
31
0
0
SPLINE
5
118
100
AcDbEntity
8
0
100
AcDbSpline
70
4
71
3
72
8
73
4
74
0
42
0.000000001
43
0.0000000001
44
0.0000000001
40
0
40
0
40
0
40
0
40
1
40
1
40
1
40
1
41
1
41
1
41
1
41
1
10
-20.049056088028465
20
-8.136244747912599
30
0
10
-20.135900754827372
20
-8.0814213016387964
30
0
10
-20.264315679766845
20
-7.9329080798980733
30
0
10
-20.313648505109661
20
-7.8302395243204774
30
0
0
SPLINE
5
119
100
AcDbEntity
8
0
100
AcDbSpline
70
4
71
3
72
8
73
4
74
0
42
0.000000001
43
0.0000000001
44
0.0000000001
40
0
40
0
40
0
40
0
40
1
40
1
40
1
40
1
41
1
41
1
41
1
41
1
10
-20.313648505109661
20
-7.8302395243204774
30
0
10
-20.349809896050004
20
-7.7549816825744644
30
0
10
-20.357621919212853
20
-7.7169207790252701
30
0
10
-20.358404130834451
20
-7.6121851661560083
30
0
0
SPLINE
5
120
100
AcDbEntity
8
0
100
AcDbSpline
70
4
71
3
72
8
73
4
74
0
42
0.000000001
43
0.0000000001
44
0.0000000001
40
0
40
0
40
0
40
0
40
1
40
1
40
1
40
1
41
1
41
1
41
1
41
1
10
-20.358404130834451
20
-7.6121851661560083
30
0
10
-20.359303421872966
20
-7.4903297164794944
30
0
10
-20.361325060425312
20
-7.4835673708475774
30
0
10
-20.409142918485514
20
-7.4415681579467794
30
0
0
SPLINE
5
121
100
AcDbEntity
8
0
100
AcDbSpline
70
4
71
3
72
8
73
4
74
0
42
0.000000001
43
0.0000000001
44
0.0000000001
40
0
40
0
40
0
40
0
40
1
40
1
40
1
40
1
41
1
41
1
41
1
41
1
10
-20.409142918485514
20
-7.4415681579467794
30
0
10
-20.468589992421975
20
-7.3893547752258311
30
0
10
-20.510044180450947
20
-7.3078150171793643
30
0
10
-20.510044180450947
20
-7.2430963415659608
30
0
0
SPLINE
5
122
100
AcDbEntity
8
0
100
AcDbSpline
70
4
71
3
72
8
73
4
74
0
42
0.000000001
43
0.0000000001
44
0.0000000001
40
0
40
0
40
0
40
0
40
1
40
1
40
1
40
1
41
1
41
1
41
1
41
1
10
-20.510044180450947
20
-7.2430963415659608
30
0
10
-20.510044180450947
20
-7.2057964542266859
30
0
10
-20.525635929006452
20
-7.1839227893707296
30
0
10
-20.585389831759642
20
-7.1373938142018654
30
0
0
SPLINE
5
123
100
AcDbEntity
8
0
100
AcDbSpline
70
4
71
3
72
8
73
4
74
0
42
0.000000001
43
0.0000000001
44
0.0000000001
40
0
40
0
40
0
40
0
40
1
40
1
40
1
40
1
41
1
41
1
41
1
41
1
10
-20.585389831759642
20
-7.1373938142018654
30
0
10
-20.901544629631552
20
-6.8912121354298925
30
0
10
-21.061768820979307
20
-6.3649098772562684
30
0
10
-20.97793087472331
20
-5.8479800282674166
30
0
0
SPLINE
5
124
100
AcDbEntity
8
0
100
AcDbSpline
70
4
71
3
72
8
73
4
74
0
42
0.000000001
43
0.0000000001
44
0.0000000001
40
0
40
0
40
0
40
0
40
1
40
1
40
1
40
1
41
1
41
1
41
1
41
1
10
-20.97793087472331
20
-5.8479800282674166
30
0
10
-20.93115159183553
20
-5.5595488288757346
30
0
10
-20.804747203089903
20
-5.3048990784840919
30
0
10
-20.633338899511209
20
-5.1537747838851944
30
0
0
LINE
5
125
100
AcDbEntity
8
0
100
AcDbLine
10
-20.633338899511209
20
-5.1537747838851944
30
0
11
-20.54594617992452
21
-5.076723406588747
31
0
0
LINE
5
126
100
AcDbEntity
8
0
100
AcDbLine
10
-20.54594617992452
20
-5.076723406588747
30
0
11
-20.577283091443888
21
-5.0058812756098447
31
0
0
SPLINE
5
127
100
AcDbEntity
8
0
100
AcDbSpline
70
4
71
3
72
8
73
4
74
0
42
0.000000001
43
0.0000000001
44
0.0000000001
40
0
40
0
40
0
40
0
40
1
40
1
40
1
40
1
41
1
41
1
41
1
41
1
10
-20.577283091443888
20
-5.0058812756098447
30
0
10
-20.741376959381611
20
-4.6349191803492245
30
0
10
-20.407537113724263
20
-4.1219902176417049
30
0
10
-19.929273751475524
20
-4.0102469979482027
30
0
0
SPLINE
5
128
100
AcDbEntity
8
0
100
AcDbSpline
70
4
71
3
72
8
73
4
74
0
42
0.000000001
43
0.0000000001
44
0.0000000001
40
0
40
0
40
0
40
0
40
1
40
1
40
1
40
1
41
1
41
1
41
1
41
1
10
-19.929273751475524
20
-4.0102469979482027
30
0
10
-19.868968768018597
20
-3.9961581050114963
30
0
10
-19.782730693715923
20
-3.9877364614364641
30
0
10
-19.736757845777383
20
-3.9914486863967906
30
0
0
SPLINE
5
129
100
AcDbEntity
8
0
100
AcDbSpline
70
4
71
3
72
8
73
4
74
0
42
0.000000001
43
0.0000000001
44
0.0000000001
40
0
40
0
40
0
40
0
40
1
40
1
40
1
40
1
41
1
41
1
41
1
41
1
10
-19.736757845777383
20
-3.9914486863967906
30
0
10
-19.659480384089662
20
-3.997690230484519
30
0
10
-19.6534810732783
20
-3.9956584988789889
30
0
10
-19.6534810732783
20
-3.9632567702489228
30
0
0
SPLINE
5
130
100
AcDbEntity
8
0
100
AcDbSpline
70
4
71
3
72
8
73
4
74
0
42
0.000000001
43
0.0000000001
44
0.0000000001
40
0
40
0
40
0
40
0
40
1
40
1
40
1
40
1
41
1
41
1
41
1
41
1
10
-19.6534810732783
20
-3.9632567702489228
30
0
10
-19.6534810732783
20
-3.7890829700983697
30
0
10
-19.528779382604469
20
-3.3723751205958061
30
0
10
-19.390203781026713
20
-3.0834816593683891
30
0
0
SPLINE
5
131
100
AcDbEntity
8
0
100
AcDbSpline
70
4
71
3
72
8
73
4
74
0
42
0.000000001
43
0.0000000001
44
0.0000000001
40
0
40
0
40
0
40
0
40
1
40
1
40
1
40
1
41
1
41
1
41
1
41
1
10
-19.390203781026713
20
-3.0834816593683891
30
0
10
-19.024616236585491
20
-2.3213259437438976
30
0
10
-18.379209895032755
20
-1.7193227587895723
30
0
10
-17.927691105105591
20
-1.7193227587895723
30
0
0
SPLINE
5
132
100
AcDbEntity
8
0
100
AcDbSpline
70
4
71
3
72
8
73
4
74
0
42
0.000000001
43
0.0000000001
44
0.0000000001
40
0
40
0
40
0
40
0
40
1
40
1
40
1
40
1
41
1
41
1
41
1
41
1
10
-17.927691105105591
20
-1.7193227587895723
30
0
10
-17.845882871844484
20
-1.7193227587895723
30
0
10
-17.841990990537514
20
-1.7174969254689545
30
0
10
-17.851524888573202
20
-1.6836327134328219
30
0
0
SPLINE
5
133
100
AcDbEntity
8
0
100
AcDbSpline
70
4
71
3
72
8
73
4
74
0
42
0.000000001
43
0.0000000001
44
0.0000000001
40
0
40
0
40
0
40
0
40
1
40
1
40
1
40
1
41
1
41
1
41
1
41
1
10
-17.851524888573202
20
-1.6836327134328219
30
0
10
-17.857051844495647
20
-1.6640037436045341
30
0
10
-17.869688347079467
20
-1.592730639254762
30
0
10
-17.879605781136068
20
-1.5252484856801363
30
0
0
SPLINE
5
134
100
AcDbEntity
8
0
100
AcDbSpline
70
4
71
3
72
8
73
4
74
0
42
0.000000001
43
0.0000000001
44
0.0000000001
40
0
40
0
40
0
40
0
40
1
40
1
40
1
40
1
41
1
41
1
41
1
41
1
10
-17.879605781136068
20
-1.5252484856801363
30
0
10
-17.951359314817303
20
-1.0370555777109793
30
0
10
-17.620563533999633
20
-0.51319583840739025
30
0
10
-17.058638853925579
20
-0.22513404476216725
30
0
0
SPLINE
5
135
100
AcDbEntity
8
0
100
AcDbSpline
70
4
71
3
72
8
73
4
74
0
42
0.000000001
43
0.0000000001
44
0.0000000001
40
0
40
0
40
0
40
0
40
1
40
1
40
1
40
1
41
1
41
1
41
1
41
1
10
-17.058638853925579
20
-0.22513404476216725
30
0
10
-16.750506014722696
20
-0.067175743853760655
30
0
10
-16.467436245181272
20
-0.0017687220133472351
30
0
10
-16.084461398023478
20
-3.9782003276434008e-05
30
0
0
SPLINE
5
136
100
AcDbEntity
8
0
100
AcDbSpline
70
4
71
3
72
8
73
4
74
0
42
0.000000001
43
0.0000000001
44
0.0000000001
40
0
40
0
40
0
40
0
40
1
40
1
40
1
40
1
41
1
41
1
41
1
41
1
10
-16.084461398023478
20
-3.9782003276434008e-05
30
0
10
-15.929924642143758
20
0.00064856422373365727
30
0
10
-15.774009175199382
20
-0.0075641531504321968
30
0
10
-15.703765562274171
20
-0.020118902003479888
30
0
0
SPLINE
5
137
100
AcDbEntity
8
0
100
AcDbSpline
70
4
71
3
72
8
73
4
74
0
42
0.000000001
43
0.0000000001
44
0.0000000001
40
0
40
0
40
0
40
0
40
1
40
1
40
1
40
1
41
1
41
1
41
1
41
1
10
-15.703765562274171
20
-0.020118902003479888
30
0
10
-15.424236435788981
20
-0.070072450116984944
30
0
10
-15.127684365807088
20
-0.19336212265065603
30
0
10
-14.932829899686686
20
-0.34063087093404226
30
0
0
SPLINE
5
138
100
AcDbEntity
8
0
100
AcDbSpline
70
4
71
3
72
8
73
4
74
0
42
0.000000001
43
0.0000000001
44
0.0000000001
40
0
40
0
40
0
40
0
40
1
40
1
40
1
40
1
41
1
41
1
41
1
41
1
10
-14.932829899686686
20
-0.34063087093404226
30
0
10
-14.849297772942096
20
-0.40376392789255872
30
0
10
-14.822910494703166
20
-0.41497226345113214
30
0
10
-14.740149477221678
20
-0.42247745779724211
30
0
0
SPLINE
5
139
100
AcDbEntity
8
0
100
AcDbSpline
70
4
71
3
72
8
73
4
74
0
42
0.000000001
43
0.0000000001
44
0.0000000001
40
0
40
0
40
0
40
0
40
1
40
1
40
1
40
1
41
1
41
1
41
1
41
1
10
-14.740149477221678
20
-0.42247745779724211
30
0
10
-14.617496676343791
20
-0.43359798379313247
30
0
10
-14.436831024386596
20
-0.52544274913838795
30
0
10
-14.226635117429606
20
-0.68352923182220549
30
0
0
SPLINE
5
140
100
AcDbEntity
8
0
100
AcDbSpline
70
4
71
3
72
8
73
4
74
0
42
0.000000001
43
0.0000000001
44
0.0000000001
40
0
40
0
40
0
40
0
40
1
40
1
40
1
40
1
41
1
41
1
41
1
41
1
10
-14.226635117429606
20
-0.68352923182220549
30
0
10
-14.06396941651713
20
-0.8058691480514536
30
0
10
-13.863384114800006
20
-1.0082177061594655
30
0
10
-13.829988220431517
20
-1.0836642879999807
30
0
0
SPLINE
5
141
100
AcDbEntity
8
0
100
AcDbSpline
70
4
71
3
72
8
73
4
74
0
42
0.000000001
43
0.0000000001
44
0.0000000001
40
0
40
0
40
0
40
0
40
1
40
1
40
1
40
1
41
1
41
1
41
1
41
1
10
-13.829988220431517
20
-1.0836642879999807
30
0
10
-13.814566035169474
20
-1.1185075261947643
30
0
10
-13.795924165942381
20
-1.1315982161717744
30
0
10
-13.751649978854367
20
-1.1386774836736053
30
0
0
SPLINE
5
142
100
AcDbEntity
8
0
100
AcDbSpline
70
4
71
3
72
8
73
4
74
0
42
0.000000001
43
0.0000000001
44
0.0000000001
40
0
40
0
40
0
40
0
40
1
40
1
40
1
40
1
41
1
41
1
41
1
41
1
10
-13.751649978854367
20
-1.1386774836736053
30
0
10
-13.658079301414997
20
-1.153639425710552
30
0
10
-13.44357164213867
20
-1.2700093009826672
30
0
10
-13.27892770280253
20
-1.3951278347529104
30
0
0
SPLINE
5
143
100
AcDbEntity
8
0
100
AcDbSpline
70
4
71
3
72
8
73
4
74
0
42
0.000000001
43
0.0000000001
44
0.0000000001
40
0
40
0
40
0
40
0
40
1
40
1
40
1
40
1
41
1
41
1
41
1
41
1
10
-13.27892770280253
20
-1.3951278347529104
30
0
10
-12.993223646380613
20
-1.6122425296661389
30
0
10
-12.793062252897133
20
-1.8314676819997164
30
0
10
-12.549872155088298
20
-2.1936215697484345
30
0
0
SPLINE
5
144
100
AcDbEntity
8
0
100
AcDbSpline
70
4
71
3
72
8
73
4
74
0
42
0.000000001
43
0.0000000001
44
0.0000000001
40
0
40
0
40
0
40
0
40
1
40
1
40
1
40
1
41
1
41
1
41
1
41
1
10
-12.549872155088298
20
-2.1936215697484345
30
0
10
-12.465504323540241
20
-2.3192598957575492
30
0
10
-12.347591220436605
20
-2.4745092211919162
30
0
10
-12.287844382820637
20
-2.5386202950037653
30
0
0
SPLINE
5
145
100
AcDbEntity
8
0
100
AcDbSpline
70
4
71
3
72
8
73
4
74
0
42
0.000000001
43
0.0000000001
44
0.0000000001
40
0
40
0
40
0
40
0
40
1
40
1
40
1
40
1
41
1
41
1
41
1
41
1
10
-12.287844382820637
20
-2.5386202950037653
30
0
10
-11.998020342089841
20
-2.8496124961730969
30
0
10
-11.593809711037188
20
-3.0517561653015153
30
0
10
-11.261766428846229
20
-3.0517561653015153
30
0
0
SPLINE
5
146
100
AcDbEntity
8
0
100
AcDbSpline
70
4
71
3
72
8
73
4
74
0
42
0.000000001
43
0.0000000001
44
0.0000000001
40
0
40
0
40
0
40
0
40
1
40
1
40
1
40
1
41
1
41
1
41
1
41
1
10
-11.261766428846229
20
-3.0517561653015153
30
0
10
-11.072065475680542
20
-3.0517561653015153
30
0
10
-11.043197324969483
20
-3.0423050303019217
30
0
10
-11.02485824733785
20
-2.9742001353459688
30
0
0
SPLINE
5
147
100
AcDbEntity
8
0
100
AcDbSpline
70
4
71
3
72
8
73
4
74
0
42
0.000000001
43
0.0000000001
44
0.0000000001
40
0
40
0
40
0
40
0
40
1
40
1
40
1
40
1
41
1
41
1
41
1
41
1
10
-11.02485824733785
20
-2.9742001353459688
30
0
10
-10.954735751050821
20
-2.7137872515874237
30
0
10
-10.582094171740721
20
-2.4958358425654108
30
0
10
-10.208905548948159
20
-2.4969632366058363
30
0
0
SPLINE
5
148
100
AcDbEntity
8
0
100
AcDbSpline
70
4
71
3
72
8
73
4
74
0
42
0.000000001
43
0.0000000001
44
0.0000000001
40
0
40
0
40
0
40
0
40
1
40
1
40
1
40
1
41
1
41
1
41
1
41
1
10
-10.208905548948159
20
-2.4969632366058363
30
0
10
-10.065513542391965
20
-2.4973861355341604
30
0
10
-9.9716178686401342
20
-2.5150610902664194
30
0
10
-9.881650411186726
20
-2.5585288424051935
30
0
0
SPLINE
5
149
100
AcDbEntity
8
0
100
AcDbSpline
70
4
71
3
72
8
73
4
74
0
42
0.000000001
43
0.0000000001
44
0.0000000001
40
0
40
0
40
0
40
0
40
1
40
1
40
1
40
1
41
1
41
1
41
1
41
1
10
-9.881650411186726
20
-2.5585288424051935
30
0
10
-9.8305896551391587
20
-2.5831982829925551
30
0
10
-9.8077349455139142
20
-2.5853541591522227
30
0
10
-9.7366657208384169
20
-2.5721998829401667
30
0
0
SPLINE
5
150
100
AcDbEntity
8
0
100
AcDbSpline
70
4
71
3
72
8
73
4
74
0
42
0.000000001
43
0.0000000001
44
0.0000000001
40
0
40
0
40
0
40
0
40
1
40
1
40
1
40
1
41
1
41
1
41
1
41
1
10
-9.7366657208384169
20
-2.5721998829401667
30
0
10
-9.3861864677052793
20
-2.5073348580556249
30
0
10
-8.975560692050168
20
-2.7137004513300589
30
0
10
-8.89059131453247
20
-2.9974040646113091
30
0
0
SPLINE
5
151
100
AcDbEntity
8
0
100
AcDbSpline
70
4
71
3
72
8
73
4
74
0
42
0.000000001
43
0.0000000001
44
0.0000000001
40
0
40
0
40
0
40
0
40
1
40
1
40
1
40
1
41
1
41
1
41
1
41
1
10
-8.89059131453247
20
-2.9974040646113091
30
0
10
-8.8672703058502194
20
-3.0752669233835874
30
0
10
-8.8636691044748908
20
-3.0787712314483655
30
0
10
-8.7797796836476643
20
-3.1052160400904349
30
0
0
SPLINE
5
152
100
AcDbEntity
8
0
100
AcDbSpline
70
4
71
3
72
8
73
4
74
0
42
0.000000001
43
0.0000000001
44
0.0000000001
40
0
40
0
40
0
40
0
40
1
40
1
40
1
40
1
41
1
41
1
41
1
41
1
10
-8.7797796836476643
20
-3.1052160400904349
30
0
10
-8.4819336842478421
20
-3.1991026300944023
30
0
10
-8.0212524206420888
20
-3.6715503750996921
30
0
10
-7.8361074716827384
20
-4.0729894537485771
30
0
0
SPLINE
5
153
100
AcDbEntity
8
0
100
AcDbSpline
70
4
71
3
72
8
73
4
74
0
42
0.000000001
43
0.0000000001
44
0.0000000001
40
0
40
0
40
0
40
0
40
1
40
1
40
1
40
1
41
1
41
1
41
1
41
1
10
-7.8361074716827384
20
-4.0729894537485771
30
0
10
-7.7612856498341865
20
-4.2352171161529553
30
0
10
-7.73859444767049
20
-4.3291097619888319
30
0
10
-7.7421593140543603
20
-4.461704220250958
30
0
0
SPLINE
5
154
100
AcDbEntity
8
0
100
AcDbSpline
70
4
71
3
72
8
73
4
74
0
42
0.000000001
43
0.0000000001
44
0.0000000001
40
0
40
0
40
0
40
0
40
1
40
1
40
1
40
1
41
1
41
1
41
1
41
1
10
-7.7421593140543603
20
-4.461704220250958
30
0
10
-7.7448057125986729
20
-4.5576094208913185
30
0
10
-7.7400417914967834
20
-4.5738763947046932
30
0
10
-7.6888013791025784
20
-4.6513839780049659
30
0
0
SPLINE
5
155
100
AcDbEntity
8
0
100
AcDbSpline
70
4
71
3
72
8
73
4
74
0
42
0.000000001
43
0.0000000001
44
0.0000000001
40
0
40
0
40
0
40
0
40
1
40
1
40
1
40
1
41
1
41
1
41
1
41
1
10
-7.6888013791025784
20
-4.6513839780049659
30
0
10
-7.6579025060913075
20
-4.6980118650950136
30
0
10
-7.6123707245768202
20
-4.7979441939549776
30
0
10
-7.5876165023427316
20
-4.8734563806411755
30
0
0
SPLINE
5
156
100
AcDbEntity
8
0
100
AcDbSpline
70
4
71
3
72
8
73
4
74
0
42
0.000000001
43
0.0000000001
44
0.0000000001
40
0
40
0
40
0
40
0
40
1
40
1
40
1
40
1
41
1
41
1
41
1
41
1
10
-7.5876165023427316
20
-4.8734563806411755
30
0
10
-7.5470828007639561
20
-4.9971094030893974
30
0
10
-7.5426398387532529
20
-5.0320283391830456
30
0
10
-7.5429264814636205
20
-5.224892455215965
30
0
0
SPLINE
5
157
100
AcDbEntity
8
0
100
AcDbSpline
70
4
71
3
72
8
73
4
74
0
42
0.000000001
43
0.0000000001
44
0.0000000001
40
0
40
0
40
0
40
0
40
1
40
1
40
1
40
1
41
1
41
1
41
1
41
1
10
-7.5429264814636205
20
-5.224892455215965
30
0
10
-7.5431828450144423
20
-5.3993640004353862
30
0
10
-7.5499108742655423
20
-5.4622336287058531
30
0
10
-7.5791988959889718
20
-5.5642663219329851
30
0
0
SPLINE
5
158
100
AcDbEntity
8
0
100
AcDbSpline
70
4
71
3
72
8
73
4
74
0
42
0.000000001
43
0.0000000001
44
0.0000000001
40
0
40
0
40
0
40
0
40
1
40
1
40
1
40
1
41
1
41
1
41
1
41
1
10
-7.5791988959889718
20
-5.5642663219329851
30
0
10
-7.6615420610687242
20
-5.8510563908772806
30
0
10
-7.8277322561523421
20
-6.1359025377787288
30
0
10
-8.0415838669718394
20
-6.3567768950022394
30
0
0
SPLINE
5
159
100
AcDbEntity
8
0
100
AcDbSpline
70
4
71
3
72
8
73
4
74
0
42
0.000000001
43
0.0000000001
44
0.0000000001
40
0
40
0
40
0
40
0
40
1
40
1
40
1
40
1
41
1
41
1
41
1
41
1
10
-8.0415838669718394
20
-6.3567768950022394
30
0
10
-8.3493028909942613
20
-6.6746010838704448
30
0
10
-8.6707020392995187
20
-6.8889896451192234
30
0
10
-9.0415995390197743
20
-7.0238328356302917
30
0
0
LINE
5
160
100
AcDbEntity
8
0
100
AcDbLine
10
-9.0415995390197761
20
-7.0238328356302917
30
0
11
-9.1764285992563863
21
-7.0728507577138275
31
0
0
LINE
5
161
100
AcDbEntity
8
0
100
AcDbLine
10
-9.1764285992563863
20
-7.0728507577138275
30
0
11
-9.1778840175252263
21
-7.1918175755696634
31
0
0
SPLINE
5
162
100
AcDbEntity
8
0
100
AcDbSpline
70
4
71
3
72
8
73
4
74
0
42
0.000000001
43
0.0000000001
44
0.0000000001
40
0
40
0
40
0
40
0
40
1
40
1
40
1
40
1
41
1
41
1
41
1
41
1
10
-9.1778840175252263
20
-7.1918175755696634
30
0
10
-9.179022513924151
20
-7.283333307381187
30
0
10
-9.1896000336588539
20
-7.3358192025380475
30
0
10
-9.2237609814585362
20
-7.4192746220784525
30
0
0
SPLINE
5
163
100
AcDbEntity
8
0
100
AcDbSpline
70
4
71
3
72
8
73
4
74
0
42
0.000000001
43
0.0000000001
44
0.0000000001
40
0
40
0
40
0
40
0
40
1
40
1
40
1
40
1
41
1
41
1
41
1
41
1
10
-9.2237609814585362
20
-7.4192746220784525
30
0
10
-9.3158035706461568
20
-7.6441296794769311
30
0
10
-9.5260822406392407
20
-7.9084102212148055
30
0
10
-9.6723023206970193
20
-7.9830059586720807
30
0
0
SPLINE
5
164
100
AcDbEntity
8
0
100
AcDbSpline
70
4
71
3
72
8
73
4
74
0
42
0.000000001
43
0.0000000001
44
0.0000000001
40
0
40
0
40
0
40
0
40
1
40
1
40
1
40
1
41
1
41
1
41
1
41
1
10
-9.6723023206970193
20
-7.9830059586720807
30
0
10
-9.7495525311411519
20
-8.022415294126386
30
0
10
-9.7729522656382208
20
-8.0589844444152838
30
0
10
-9.7740988364796948
20
-8.1420886257049592
30
0
0
SPLINE
5
165
100
AcDbEntity
8
0
100
AcDbSpline
70
4
71
3
72
8
73
4
74
0
42
0.000000001
43
0.0000000001
44
0.0000000001
40
0
40
0
40
0
40
0
40
1
40
1
40
1
40
1
41
1
41
1
41
1
41
1
10
-9.7740988364796948
20
-8.1420886257049592
30
0
10
-9.7753160586934396
20
-8.2302433708068872
30
0
10
-9.7322409263234437
20
-8.3066881556070982
30
0
10
-9.6258480341217023
20
-8.4051902988311795
30
0
0
SPLINE
5
166
100
AcDbEntity
8
0
100
AcDbSpline
70
4
71
3
72
8
73
4
74
0
42
0.000000001
43
0.0000000001
44
0.0000000001
40
0
40
0
40
0
40
0
40
1
40
1
40
1
40
1
41
1
41
1
41
1
41
1
10
-9.6258480341217023
20
-8.4051902988311795
30
0
10
-9.4417830418528226
20
-8.5756014087554959
30
0
10
-9.1042753806691472
20
-8.6952908892191587
30
0
10
-8.8568885913472464
20
-8.6778844097015408
30
0
0
SPLINE
5
167
100
AcDbEntity
8
0
100
AcDbSpline
70
4
71
3
72
8
73
4
74
0
42
0.000000001
43
0.0000000001
44
0.0000000001
40
0
40
0
40
0
40
0
40
1
40
1
40
1
40
1
41
1
41
1
41
1
41
1
10
-8.8568885913472464
20
-8.6778844097015408
30
0
10
-8.7064072242360417
20
-8.6672947783030221
30
0
10
-8.3642204235972066
20
-8.5886174101389585
30
0
10
-8.2191973796468076
20
-8.5312585889058461
30
0
0
SPLINE
5
168
100
AcDbEntity
8
0
100
AcDbSpline
70
4
71
3
72
8
73
4
74
0
42
0.000000001
43
0.0000000001
44
0.0000000001
40
0
40
0
40
0
40
0
40
1
40
1
40
1
40
1
41
1
41
1
41
1
41
1
10
-8.2191973796468076
20
-8.5312585889058461
30
0
10
-7.9911105266194653
20
-8.4410468795654321
30
0
10
-7.6929354936859102
20
-8.1916657029347757
30
0
10
-7.4310954522074368
20
-7.8721216578043638
30
0
0
SPLINE
5
169
100
AcDbEntity
8
0
100
AcDbSpline
70
4
71
3
72
8
73
4
74
0
42
0.000000001
43
0.0000000001
44
0.0000000001
40
0
40
0
40
0
40
0
40
1
40
1
40
1
40
1
41
1
41
1
41
1
41
1
10
-7.4310954522074368
20
-7.8721216578043638
30
0
10
-7.2004429450612362
20
-7.5906385162231462
30
0
10
-7.1049142153045626
20
-7.4987352111694356
30
0
10
-6.8443499357482889
20
-7.3076272863901792
30
0
0
SPLINE
5
170
100
AcDbEntity
8
0
100
AcDbSpline
70
4
71
3
72
8
73
4
74
0
42
0.000000001
43
0.0000000001
44
0.0000000001
40
0
40
0
40
0
40
0
40
1
40
1
40
1
40
1
41
1
41
1
41
1
41
1
10
-6.8443499357482889
20
-7.3076272863901792
30
0
10
-6.6716961494069409
20
-7.180997822558596
30
0
10
-6.5924697191497783
20
-7.1543763854858424
30
0
10
-6.3846517355224597
20
-7.1531732935465513
30
0
0
SPLINE
5
171
100
AcDbEntity
8
0
100
AcDbSpline
70
4
71
3
72
8
73
4
74
0
42
0.000000001
43
0.0000000001
44
0.0000000001
40
0
40
0
40
0
40
0
40
1
40
1
40
1
40
1
41
1
41
1
41
1
41
1
10
-6.3846517355224597
20
-7.1531732935465513
30
0
10
-6.1873224527618387
20
-7.1520347971476266
30
0
10
-6.0988548230112682
20
-7.1726286628601086
30
0
10
-6.0374809852223699
20
-7.2339984634277368
30
0
0
SPLINE
5
172
100
AcDbEntity
8
0
100
AcDbSpline
70
4
71
3
72
8
73
4
74
0
42
0.000000001
43
0.0000000001
44
0.0000000001
40
0
40
0
40
0
40
0
40
1
40
1
40
1
40
1
41
1
41
1
41
1
41
1
10
-6.0374809852223699
20
-7.2339984634277368
30
0
10
-5.9433794131856255
20
-7.3281000354644803
30
0
10
-5.96724746535034
20
-7.4381567059712754
30
0
10
-6.102292516925047
20
-7.5328578053670272
30
0
0
SPLINE
5
173
100
AcDbEntity
8
0
100
AcDbSpline
70
4
71
3
72
8
73
4
74
0
42
0.000000001
43
0.0000000001
44
0.0000000001
40
0
40
0
40
0
40
0
40
1
40
1
40
1
40
1
41
1
41
1
41
1
41
1
10
-6.102292516925047
20
-7.5328578053670272
30
0
10
-6.3262331437052399
20
-7.6898956198252382
30
0
10
-6.4690559020619691
20
-7.8564976114786802
30
0
10
-6.6938080103179924
20
-8.2228673675415074
30
0
0
SPLINE
5
174
100
AcDbEntity
8
0
100
AcDbSpline
70
4
71
3
72
8
73
4
74
0
42
0.000000001
43
0.0000000001
44
0.0000000001
40
0
40
0
40
0
40
0
40
1
40
1
40
1
40
1
41
1
41
1
41
1
41
1
10
-6.6938080103179924
20
-8.2228673675415074
30
0
10
-6.7232454092285128
20
-8.2708517609792089
30
0
10
-6.769445350863645
20
-8.3386629480875669
30
0
10
-6.7964725286743155
20
-8.3735586701588964
30
0
0
SPLINE
5
175
100
AcDbEntity
8
0
100
AcDbSpline
70
4
71
3
72
8
73
4
74
0
42
0.000000001
43
0.0000000001
44
0.0000000001
40
0
40
0
40
0
40
0
40
1
40
1
40
1
40
1
41
1
41
1
41
1
41
1
10
-6.7964725286743155
20
-8.3735586701588964
30
0
10
-6.8235017250956194
20
-8.4084564108408628
30
0
10
-6.8852934152862533
20
-8.5012499231852239
30
0
10
-6.9337864986043289
20
-8.5797698397196474
30
0
0
SPLINE
5
176
100
AcDbEntity
8
0
100
AcDbSpline
70
4
71
3
72
8
73
4
74
0
42
0.000000001
43
0.0000000001
44
0.0000000001
40
0
40
0
40
0
40
0
40
1
40
1
40
1
40
1
41
1
41
1
41
1
41
1
10
-6.9337864986043289
20
-8.5797698397196474
30
0
10
-7.0914541195810932
20
-8.835057471072389
30
0
10
-7.1131319792053205
20
-8.8685966867960637
30
0
10
-7.2021567454915347
20
-8.9950242895640073
30
0
0
SPLINE
5
177
100
AcDbEntity
8
0
100
AcDbSpline
70
4
71
3
72
8
73
4
74
0
42
0.000000001
43
0.0000000001
44
0.0000000001
40
0
40
0
40
0
40
0
40
1
40
1
40
1
40
1
41
1
41
1
41
1
41
1
10
-7.2021567454915347
20
-8.9950242895640073
30
0
10
-7.4013875594716367
20
-9.2779567935821561
30
0
10
-7.766110129255166
20
-9.6740485726552343
30
0
10
-8.0019161493560773
20
-9.8635638136423758
30
0
0
SPLINE
5
178
100
AcDbEntity
8
0
100
AcDbSpline
70
4
71
3
72
8
73
4
74
0
42
0.000000001
43
0.0000000001
44
0.0000000001
40
0
40
0
40
0
40
0
40
1
40
1
40
1
40
1
41
1
41
1
41
1
41
1
10
-8.0019161493560773
20
-9.8635638136423758
30
0
10
-8.256458913383991
20
-10.068139908587648
30
0
10
-8.3819458435953749
20
-10.137067387377932
30
0
10
-8.9054846238077783
20
-10.359877592201745
30
0
0
SPLINE
5
179
100
AcDbEntity
8
0
100
AcDbSpline
70
4
71
3
72
8
73
4
74
0
42
0.000000001
43
0.0000000001
44
0.0000000001
40
0
40
0
40
0
40
0
40
1
40
1
40
1
40
1
41
1
41
1
41
1
41
1
10
-8.9054846238077783
20
-10.359877592201745
30
0
10
-9.0677486212036111
20
-10.428934262072755
30
0
10
-9.1486686657847081
20
-10.453337246056114
30
0
10
-9.2941115807474759
20
-10.477074088529461
30
0
0
SPLINE
5
180
100
AcDbEntity
8
0
100
AcDbSpline
70
4
71
3
72
8
73
4
74
0
42
0.000000001
43
0.0000000001
44
0.0000000001
40
0
40
0
40
0
40
0
40
1
40
1
40
1
40
1
41
1
41
1
41
1
41
1
10
-9.2941115807474759
20
-10.477074088529461
30
0
10
-10.224551799990845
20
-10.628928110873414
30
0
10
-11.360991234678139
20
-10.46383402136536
30
0
10
-12.311161354281616
20
-10.038779216881309
30
0
0
SPLINE
5
181
100
AcDbEntity
8
0
100
AcDbSpline
70
4
71
3
72
8
73
4
74
0
42
0.000000001
43
0.0000000001
44
0.0000000001
40
0
40
0
40
0
40
0
40
1
40
1
40
1
40
1
41
1
41
1
41
1
41
1
10
-12.311161354281616
20
-10.038779216881309
30
0
10
-12.384253226814778
20
-10.006081761793011
30
0
10
-12.451638487078856
20
-9.9733863253153512
30
0
10
-12.460907947121173
20
-9.9661193270243356
30
0
0
SPLINE
5
182
100
AcDbEntity
8
0
100
AcDbSpline
70
4
71
3
72
8
73
4
74
0
42
0.000000001
43
0.0000000001
44
0.0000000001
40
0
40
0
40
0
40
0
40
1
40
1
40
1
40
1
41
1
41
1
41
1
41
1
10
-12.460907947121173
20
-9.9661193270243356
30
0
10
-12.470914200045776
20
-9.958275006091311
30
0
10
-12.511151165861003
20
-9.9753928242879262
30
0
10
-12.559951077995809
20
-10.008257824059044
30
0
0
SPLINE
5
183
100
AcDbEntity
8
0
100
AcDbSpline
70
4
71
3
72
8
73
4
74
0
42
0.000000001
43
0.0000000001
44
0.0000000001
40
0
40
0
40
0
40
0
40
1
40
1
40
1
40
1
41
1
41
1
41
1
41
1
10
-12.559951077995809
20
-10.008257824059044
30
0
10
-12.745160622495524
20
-10.132985756671145
30
0
10
-13.066311481692505
20
-10.249574651197308
30
0
10
-13.370243592161051
20
-10.302423896268721
30
0
0
SPLINE
5
184
100
AcDbEntity
8
0
100
AcDbSpline
70
4
71
3
72
8
73
4
74
0
42
0.000000001
43
0.0000000001
44
0.0000000001
40
0
40
0
40
0
40
0
40
1
40
1
40
1
40
1
41
1
41
1
41
1
41
1
10
-13.370243592161051
20
-10.302423896268721
30
0
10
-13.79203026602478
20
-10.375766076520796
30
0
10
-14.333609369494628
20
-10.328423601265463
30
0
10
-14.597361035245768
20
-10.19515694566142
30
0
0
ENDSEC
0
SECTION
2
OBJECTS
0
DICTIONARY
5
C
100
AcDbDictionary
3
ACAD_GROUP
350
D
3
ACAD_MLINESTYLE
350
17
0
DICTIONARY
5
D
100
AcDbDictionary
0
DICTIONARY
5
1A
330
C
100
AcDbDictionary
0
DICTIONARY
5
17
100
AcDbDictionary
0
ENDSEC
0
EOF
