<?xml version="1.0" encoding="UTF-8" standalone="no"?>
<!-- Created with Inkscape (http://www.inkscape.org/) -->

<svg
   version="1.1"
   id="svg1"
   width="649.31738"
   height="453.54333"
   viewBox="0 0 649.31738 453.54332"
   sodipodi:docname="Shanhui2-2.PNG"
   xml:space="preserve"
   inkscape:export-filename="../Shanhui2-2.PNG.png"
   inkscape:export-xdpi="96"
   inkscape:export-ydpi="96"
   xmlns:inkscape="http://www.inkscape.org/namespaces/inkscape"
   xmlns:sodipodi="http://sodipodi.sourceforge.net/DTD/sodipodi-0.dtd"
   xmlns="http://www.w3.org/2000/svg"
   xmlns:svg="http://www.w3.org/2000/svg"><defs
     id="defs1" /><sodipodi:namedview
     id="namedview1"
     pagecolor="#ffffff"
     bordercolor="#000000"
     borderopacity="0.25"
     inkscape:showpageshadow="2"
     inkscape:pageopacity="0.0"
     inkscape:pagecheckerboard="0"
     inkscape:deskcolor="#d1d1d1" /><g
     inkscape:groupmode="layer"
     inkscape:label="Image"
     id="g1"><path
       style="fill:#000000"
       d="m 456.03228,389.50034 c -0.50042,-0.2173 -1.35694,-0.74542 -1.90336,-1.1736 -1.86613,-1.46232 -2.03393,-1.49108 -3.49066,-0.59847 -1.27783,0.78299 -1.34247,0.7935 -2.66909,0.43411 -3.0366,-0.82265 -3.91845,-1.48741 -5.54556,-4.18037 -0.99084,-1.6399 -1.14667,-2.12507 -1.29332,-4.02682 -0.12138,-1.57403 -0.0349,-2.78779 0.3178,-4.46156 0.28696,-1.36169 0.49567,-3.57437 0.51182,-5.42622 0.0246,-2.82152 0.10153,-3.2863 0.78742,-4.7584 0.48685,-1.04488 1.43483,-2.31578 2.63666,-3.53481 1.03208,-1.04685 2.02117,-2.27044 2.19797,-2.71908 0.47018,-1.19314 0.42114,-11.34789 -0.0617,-12.7797 -0.32336,-0.95886 -0.47947,-1.09836 -1.31847,-1.17818 -0.52342,-0.0498 -1.60891,-0.009 -2.41219,0.0917 l -1.4605,0.1822 0.84049,0.51114 c 1.37752,0.83772 2.48838,2.60014 2.48838,3.94791 0,3.05765 -3.35961,4.1706 -7.88534,2.6122 -3.47449,-1.19641 -6.49183,-1.33137 -10.06062,-0.45 -3.47315,0.85775 -7.20499,1.22676 -9.69242,0.9584 -2.47677,-0.26721 -5.88532,-1.11183 -7.13697,-1.76849 -0.68187,-0.35773 -0.76056,-0.31611 -2.07866,1.09941 -1.34482,1.44422 -1.39809,1.47122 -2.90216,1.47122 -1.74977,0 -2.71694,-0.61161 -3.62056,-2.28954 -0.28831,-0.53535 -0.58814,-0.97274 -0.66629,-0.97199 -0.53455,0.005 -4.88318,7.46828 -7.76257,13.32214 -0.62527,1.27118 -1.43157,2.6783 -1.79179,3.12695 -0.36021,0.44865 -1.12791,1.52032 -1.70599,2.38149 -1.15061,1.71407 -2.34956,2.86502 -4.22049,4.05153 -0.93458,0.5927 -1.54624,0.77256 -2.62725,0.77256 -2.41246,0 -3.65504,0.7778 -6.19553,3.87813 -0.56799,0.69315 -1.54312,1.50478 -2.16697,1.8036 -1.44214,0.6908 -5.50643,1.23068 -7.71329,1.0246 -2.08844,-0.19502 -3.1672,-0.72761 -3.96057,-1.95537 -0.33476,-0.51804 -0.85337,-1.01766 -1.15247,-1.11028 -1.04222,-0.3227 -1.85119,-1.34572 -2.98643,-3.77664 -1.66199,-3.55883 -2.3145,-5.63832 -2.32533,-7.41059 -0.005,-0.85931 -0.18604,-2.35772 -0.40174,-3.32979 -0.2157,-0.97208 -0.46728,-2.991 -0.55908,-4.48649 l -0.1669,-2.71909 1.21317,-2.46133 c 1.29456,-2.62648 2.27546,-3.67896 3.92784,-4.21449 0.56461,-0.18298 1.89343,-0.80525 2.95293,-1.3828 1.51598,-0.82639 2.48096,-1.13336 4.52958,-1.44089 1.43176,-0.21493 3.09272,-0.52259 3.69101,-0.6837 1.3979,-0.37641 3.64055,-2.05284 6.69285,-5.00306 l 2.42866,-2.34743 -0.66125,-0.70588 c -0.36369,-0.38824 -1.7043,-1.22938 -2.97913,-1.86922 -1.27483,-0.63983 -3.82412,-2.15855 -5.6651,-3.37494 -2.78744,-1.84174 -3.52925,-2.21161 -4.43566,-2.21161 -0.72342,0 -1.65036,-0.30743 -2.76406,-0.91674 -1.262,-0.69045 -2.26484,-0.99528 -4.06253,-1.23488 -1.3128,-0.17497 -2.48772,-0.25582 -2.61094,-0.17967 -0.12322,0.0762 -0.29654,1.00339 -0.38517,2.06053 -0.18259,2.17793 -1.39897,5.10949 -2.41548,5.82148 -1.44085,1.00921 -2.916,0.30444 -3.86788,-1.84793 -0.82372,-1.86257 -1.53683,-2.31417 -3.37533,-2.13751 -1.01738,0.0978 -1.73502,0.002 -2.4732,-0.33123 -0.95887,-0.43239 -1.10525,-0.43517 -1.87761,-0.0358 -0.97256,0.50293 -2.45983,0.56194 -3.39732,0.13479 -0.51136,-0.23299 -0.83894,-0.20319 -1.49479,0.13596 -0.46195,0.23888 -1.3499,0.43433 -1.97323,0.43433 -1.03585,0 -1.28237,-0.15201 -2.86627,-1.7674 -0.95313,-0.97207 -1.96033,-1.76741 -2.23824,-1.76741 -0.27791,0 -1.02967,-0.39766 -1.67058,-0.8837 -2.43548,-1.84697 -2.3525,-1.81684 -3.76378,-1.36631 -1.7731,0.56604 -3.0535,0.16409 -4.91129,-1.54179 -1.09881,-1.00895 -1.7996,-1.41735 -2.80044,-1.63199 -1.97019,-0.42253 -2.36913,-0.36955 -4.29601,0.57051 -2.55612,1.24705 -5.57246,1.37399 -9.58893,0.40352 -1.60823,-0.38858 -3.41302,-0.95596 -4.01065,-1.26085 -1.06697,-0.54432 -1.08659,-0.5448 -1.08659,-0.0261 0,1.63783 -4.68089,1.08265 -7.92225,-0.93961 -4.20313,-2.62229 -7.26568,-6.49856 -8.93272,-11.30615 l -0.62551,-1.80391 -1.54103,1.93986 c -3.487,4.38944 -6.16078,8.81796 -8.03655,13.31076 -0.42575,1.01977 -1.02411,2.02923 -1.32967,2.24325 -0.84229,0.58997 -2.14159,0.49405 -2.56855,-0.18962 -0.34258,-0.54857 -0.43805,-0.45336 -1.83041,1.82555 -1.68019,2.74997 -2.08964,3.97695 -2.69744,8.08324 -0.42703,2.88502 -1.18724,5.40107 -2.84046,9.40107 -0.45662,1.1048 -0.83022,2.18464 -0.83022,2.39964 0,0.21499 -0.47976,1.20762 -1.06612,2.20584 -0.58636,0.99822 -1.2238,2.36556 -1.41653,3.03853 -0.19272,0.67298 -0.81153,1.81241 -1.37513,2.53208 -1.60459,2.04893 -1.99891,4.34767 -1.45742,8.49621 0.21234,1.6268 0.20414,1.65662 -0.6546,2.3792 -1.08385,0.912 -1.91438,0.92642 -2.95442,0.0513 -2.9397,-2.4736 -4.68779,-8.5076 -4.09473,-14.13408 0.14213,-1.3484 0.18502,-3.1858 0.0953,-4.08309 l -0.16312,-1.63145 -1.8632,1.80427 c -1.15077,1.11436 -2.34143,1.98691 -3.11389,2.28191 -0.91741,0.35036 -1.2971,0.66255 -1.42485,1.17155 -0.0958,0.38164 -0.0144,2.57635 0.18083,4.87712 l 0.35499,4.18323 -0.65215,0.63286 c -0.35868,0.34807 -1.15832,0.71391 -1.77699,0.81298 -0.99775,0.15977 -1.23189,0.0861 -2.07224,-0.65169 -1.28396,-1.12734 -2.85873,-4.2166 -3.37175,-6.61447 -0.27093,-1.26632 -0.42911,-3.48011 -0.44203,-6.18654 -0.0187,-3.90998 0.0348,-4.38162 0.73923,-6.52581 0.41764,-1.27117 0.93908,-2.66117 1.15875,-3.08889 0.6404,-1.24692 -0.14777,-0.61349 -4.21798,3.38985 -2.26777,2.2305 -3.83658,5.61761 -5.05335,10.91032 -0.18545,0.8067 -1.35109,1.56842 -2.4001,1.56842 -0.87508,0 -1.69172,-0.63085 -2.19814,-1.69804 -0.63402,-1.33611 -1.54663,-7.01504 -1.54663,-9.62431 0,-2.79278 0.67953,-7.18631 1.34406,-8.69012 l 0.49264,-1.11483 -1.09848,0.53073 c -0.75321,0.36391 -1.40508,0.48254 -2.07396,0.37741 -0.91261,-0.14343 -1.05167,-0.0625 -2.1575,1.25513 -1.37536,1.63882 -2.53458,3.87637 -3.9787,7.67983 -0.56783,1.4955 -1.15283,2.87203 -1.30002,3.05897 -0.14718,0.18694 -0.75147,0.33989 -1.34286,0.33989 -2.39699,0 -3.48118,-2.74243 -3.47992,-8.8024 5.5e-4,-2.63683 0.1337,-3.79399 0.66452,-5.77532 0.97706,-3.64691 2.55337,-6.7546 4.56284,-8.9956 1.16555,-1.29985 1.8088,-2.2828 2.02887,-3.1003 0.17722,-0.65835 0.7524,-1.6649 1.27818,-2.23678 l 0.95596,-1.03978 -0.78785,-1.08759 c -0.43331,-0.59818 -0.93632,-1.78212 -1.11779,-2.63099 -0.18147,-0.84886 -0.40235,-1.62449 -0.49084,-1.72362 -0.21494,-0.24075 -4.22749,0.84162 -7.06844,1.90669 -2.5824,0.96813 -3.16023,1.04072 -3.3959,0.42657 -1.21632,-3.16969 4.26268,-8.97676 12.92413,-13.698 2.19665,-1.19736 3.46474,-1.37197 5.29844,-0.72958 0.57961,0.20305 1.66563,0.45443 2.41338,0.55863 2.1253,0.29615 5.20418,1.18861 6.67923,1.93607 0.73962,0.37479 2.43745,1.66226 3.77296,2.86105 2.77275,2.48888 2.89942,2.51024 5.36141,0.90421 3.39506,-2.21471 9.99352,-8.30401 15.12597,-13.95878 5.01791,-5.52859 6.21869,-7.27667 6.86969,-10.00083 0.88747,-3.71373 0.35998,-5.08691 -2.68174,-6.9812 -2.94287,-1.83271 -4.68613,-2.53977 -7.80174,-3.16436 -1.55609,-0.31195 -2.95718,-0.64409 -3.11354,-0.7381 -0.15636,-0.094 0.11108,0.28296 0.59432,0.83771 1.10443,1.26785 1.74333,2.48712 1.55729,2.97193 -0.0852,0.22196 -0.95845,0.51059 -2.15124,0.71101 -1.74642,0.29345 -2.21432,0.27792 -3.59344,-0.1193 -3.82015,-1.10029 -10.01469,-5.24986 -12.6073,-8.44531 -1.28782,-1.58726 -3.66228,-3.53987 -5.41171,-4.45025 -0.3645,-0.18969 -2.17539,-0.6398 -4.02418,-1.00025 -3.48932,-0.68029 -7.11002,-1.83125 -9.45231,-3.00473 -3.74421,-1.87583 -7.38958,-4.9681 -8.83008,-7.49032 l -0.75571,-1.3232 -0.30879,0.88579 c -0.39573,1.1352 -1.06671,1.87278 -1.70368,1.87278 -0.53255,0 -0.69007,-0.66719 -0.22533,-0.95442 0.15199,-0.0939 0.19788,-0.29775 0.10197,-0.45294 -0.11736,-0.18989 -0.23703,-0.18077 -0.36599,0.0279 -0.11334,0.18339 -0.52968,-0.33491 -1.01923,-1.26884 -2.3443,-4.47225 -4.96586,-7.52526 -7.61417,-8.86726 -2.2125,-1.12116 -7.43624,-2.81937 -9.75244,-3.17047 -4.27877,-0.64859 -7.99295,-2.21799 -12.89595,-5.4491 -1.42072,-0.93627 -4.1738,-2.53263 -6.11794,-3.54747 -6.89389,-3.5986 -9.10252,-5.91185 -11.33278,-11.8696 -0.29395,-0.78524 -0.67858,-1.58057 -0.85473,-1.7674 -0.51238,-0.54346 -2.239,-3.25193 -2.90388,-4.5552 -1.21956,-2.39055 -1.67436,-4.16024 -1.82726,-7.11024 l -0.15014,-2.89658 -1.13895,-0.95205 c -1.06599,-0.89105 -2.78987,-3.70922 -3.2755,-5.35473 -0.11034,-0.37387 -0.80958,-1.50661 -1.55386,-2.5172 -0.74427,-1.01059 -1.73863,-2.72361 -2.20967,-3.80672 -0.80991,-1.86228 -0.85527,-2.14658 -0.8349,-5.23218 0.0198,-2.99344 0.0954,-3.4608 0.91558,-5.65912 0.9567,-2.5642 1.78594,-3.77082 3.03559,-4.41703 1.04954,-0.54274 2.14523,-0.26272 2.14523,0.54825 0,0.33535 0.14624,1.02564 0.32499,1.534 0.32069,0.91202 0.32754,0.91526 0.51672,0.2445 0.10544,-0.37387 0.20391,-1.31014 0.21882,-2.08058 0.0246,-1.27205 -0.0475,-1.44804 -0.78413,-1.91445 -0.44617,-0.2825 -2.29251,-1.96053 -4.10298,-3.72896 -3.20001,-3.1257 -3.28686,-3.24142 -3.11607,-4.15176 0.14323,-0.76353 0.38622,-1.03465 1.31591,-1.46827 0.62714,-0.2925 1.54688,-0.82965 2.04387,-1.19366 1.09077,-0.79892 2.86858,-1.10881 4.22017,-0.73561 0.77434,0.2138 0.99415,0.19652 0.99415,-0.0782 0,-0.19396 0.19628,-0.51555 0.43619,-0.71465 0.66876,-0.55503 0.94968,-1.52523 1.19953,-4.14286 0.35278,-3.69582 1.74686,-6.06462 2.93587,-4.98858 0.50916,0.46078 0.53438,0.43693 0.8459,-0.80026 0.47385,-1.88182 1.03049,-2.79692 2.07686,-3.41429 0.53346,-0.31475 0.93481,-0.76913 0.93481,-1.05831 0,-0.962 1.14596,-3.56566 1.99496,-4.53262 1.02959,-1.17264 2.21249,-1.70462 3.79037,-1.70462 1.40761,0 1.62695,-0.1607 3.34001,-2.44717 1.5395,-2.05482 1.88308,-2.3587 2.93844,-2.59887 0.58541,-0.13322 0.91913,-0.0379 1.33993,0.38295 l 0.56035,0.56035 1.00769,-0.91039 c 0.65777,-0.59424 1.41995,-0.97954 2.19488,-1.10954 0.70478,-0.11822 1.55012,-0.51681 2.08035,-0.98091 0.49124,-0.42997 0.99959,-0.78176 1.12966,-0.78176 0.13007,0 0.60093,-0.64239 1.04635,-1.42752 1.87659,-3.30781 3.02276,-4.13406 10.11839,-7.29412 2.78344,-1.23962 3.03383,-1.49105 1.69759,-1.70472 -1.90862,-0.3052 -2.33189,-1.23812 -1.94861,-4.29487 0.42295,-3.37309 1.51754,-5.04386 4.05774,-6.19372 3.21227,-1.45408 7.35956,0.0273 8.29083,2.96151 0.11552,0.36397 1.02833,1.46283 2.02846,2.44191 2.02236,1.9798 3.04047,3.62366 3.69995,5.97404 l 0.44172,1.5743 4.58577,0.19074 c 3.1175,0.12967 4.76165,0.0966 5.13512,-0.10326 0.95026,-0.50857 1.20601,-1.37107 1.1369,-3.83411 l -0.0653,-2.32897 1.0367,-1.25131 c 1.41191,-1.70421 2.15745,-2.24574 4.48243,-3.2559 1.76647,-0.76751 2.34707,-0.87885 5.11938,-0.98178 1.73369,-0.0644 4.30729,0.0393 5.77604,0.23276 2.07473,0.27323 2.95903,0.27898 4.07862,0.0265 2.13209,-0.48077 2.24155,-0.59239 1.90008,-1.93766 -0.39135,-1.54179 -0.0184,-2.49008 1.35313,-3.44055 0.90026,-0.62388 1.39344,-0.76598 2.63304,-0.75866 2.70146,0.016 4.11765,0.70485 6.51818,3.17067 l 2.13405,2.1921 0.60862,-0.60863 c 1.13817,-1.13816 2.53238,-1.91717 3.4312,-1.91717 1.60887,0 2.42686,1.53495 1.66706,3.12825 -0.23489,0.49258 -0.50611,1.31689 -0.60271,1.8318 -0.15384,0.82002 -0.07,1.02504 0.67521,1.65213 1.1323,0.95277 3.08956,1.50748 6.46286,1.83166 3.33031,0.32004 3.79096,0.47729 5.244,1.79002 1.5478,1.39835 2.25684,2.85737 2.03285,4.18315 -0.21419,1.26774 -1.48241,3.33032 -2.42914,3.95064 -0.47514,0.31132 -0.69682,0.7005 -0.69682,1.22333 0,0.42171 -0.11747,1.07572 -0.26105,1.45336 -0.2482,0.65281 -0.22725,0.67376 0.42556,0.42557 0.37764,-0.14358 1.44661,-0.26105 2.37548,-0.26105 2.14311,0 6.09654,-0.49015 6.7427,-0.83596 0.27145,-0.14528 0.62456,-0.50892 0.78467,-0.8081 0.24245,-0.45302 0.13013,-0.74043 -0.67176,-1.71903 -0.52958,-0.64629 -1.4151,-2.14232 -1.96781,-3.32451 -0.87192,-1.86494 -1.00711,-2.4224 -1.02143,-4.21186 -0.0154,-1.92781 0.0476,-2.159 0.96558,-3.54202 0.92589,-1.39493 1.12966,-1.53801 3.56091,-2.50028 1.44026,-0.57004 2.83662,-1.31716 3.16272,-1.69221 0.37887,-0.43574 0.87095,-0.67154 1.40141,-0.67154 0.44964,0 0.81753,-0.12628 0.81753,-0.28064 0,-0.53827 -0.73486,-2.03337 -1.18147,-2.40376 -0.61989,-0.51408 -0.56365,-1.47898 0.12238,-2.09983 1.43341,-1.29721 5.11654,-0.11347 7.75836,2.49351 2.08065,2.05321 2.67349,3.34813 2.66704,5.82553 -0.005,1.73899 -0.12325,2.2549 -0.80614,3.5032 -0.80445,1.47048 -2.11553,2.55597 -3.50984,2.90592 -1.02191,0.25649 -1.11154,0.6082 -0.31473,1.23497 0.89718,0.70572 0.88312,1.00224 -0.10211,2.15489 -1.02662,1.20107 -1.02254,1.62619 0.0263,2.74803 2.43538,2.60481 2.73125,3.70846 1.62976,6.07934 -0.75471,1.62446 -1.67365,2.6479 -3.15422,3.51292 -2.34916,1.3725 -4.48654,2.06314 -7.68074,2.48186 -1.75837,0.23051 -3.71294,0.549 -4.34348,0.70778 -1.09586,0.27594 -1.17595,0.36838 -1.81511,2.09496 -0.91917,2.483 -1.09178,4.61548 -0.58706,7.25306 0.22803,1.19167 0.41462,2.39655 0.41464,2.67752 3e-5,0.28097 -1.06819,1.62692 -2.37381,2.991 -1.30562,1.36407 -2.92687,3.06712 -3.60278,3.78454 l -1.22893,1.30441 1.22358,-0.1821 c 1.68166,-0.25027 4.45341,-1.59604 5.55402,-2.69664 1.09756,-1.09756 2.33133,-3.59854 2.33133,-4.72584 0,-1.22905 0.46836,-2.23371 1.57966,-3.38846 1.27815,-1.32812 2.4876,-1.94766 4.62183,-2.36754 5.35631,-1.05379 11.01965,1.94069 10.25496,5.4223 -0.22598,1.02885 -0.7888,1.48965 -2.49927,2.04622 -0.77311,0.25156 -2.3026,1.09181 -3.39886,1.86722 l -1.99321,1.40984 1.55504,0.17022 c 1.71748,0.18801 2.58891,0.64528 4.03221,2.11584 0.53064,0.54067 1.87741,1.43384 2.99281,1.98484 1.99942,0.98769 2.06439,0.99992 4.60932,0.86782 3.54454,-0.18399 4.61578,0.42828 4.24135,2.42417 -0.14944,0.79655 -0.66255,1.41289 -2.69682,3.23931 -1.38175,1.24058 -2.93732,2.59212 -3.45683,3.00344 l -0.94455,0.74784 0.81572,-0.15978 c 3.59651,-0.70448 5.5507,-1.93023 7.90218,-4.95658 2.05086,-2.63946 3.40763,-3.03748 4.59167,-1.34703 0.66093,0.94362 0.56519,4.09194 -0.17067,5.61203 -0.8098,1.67282 -4.1326,5.10676 -5.71968,5.911 -0.71571,0.36267 -1.30128,0.70836 -1.30128,0.76818 0,0.0598 0.79815,0.8752 1.77366,1.81194 1.28446,1.2334 1.90319,2.07204 2.24325,3.04058 0.37018,1.05435 0.6838,1.44717 1.48167,1.85592 1.4993,0.76808 2.90363,2.09958 3.35578,3.18172 0.36578,0.87544 0.35486,1.04202 -0.12927,1.97082 l -0.52881,1.01456 0.62033,0.58278 c 0.34118,0.32052 0.91361,1.17508 1.27205,1.89901 0.64603,1.30475 0.66576,1.31788 2.26059,1.50424 0.88487,0.1034 2.16964,0.37465 2.85504,0.60277 2.25632,0.75097 6.83212,2.82397 8.54073,3.86926 1.67336,1.02372 1.68988,1.02735 5.48513,1.20683 4.81061,0.2275 10.5854,1.49724 16.85833,3.70676 10.44623,3.6795 14.16962,4.34493 21.34481,3.81469 2.16847,-0.16025 5.52957,-0.59243 7.4691,-0.96039 3.90671,-0.74118 5.32644,-0.82264 6.21218,-0.35642 0.83544,0.43974 0.99287,0.75745 0.99761,2.01324 0.008,1.9882 -1.84307,3.21495 -6.79354,4.50342 -2.08824,0.54351 -2.70898,0.79733 -2.31122,0.94503 4.73661,1.7589 7.58674,3.48508 11.82801,7.16364 3.2425,2.81229 2.69369,2.71663 6.79771,1.18489 4.43063,-1.65363 7.23835,-2.94904 9.37701,-4.32632 4.75448,-3.06183 4.82126,-3.09562 6.10975,-3.09144 1.72169,0.006 2.53091,0.48053 2.77761,1.6302 0.49986,2.32951 -1.58548,5.32963 -5.28858,7.60854 -1.21697,0.74893 -2.40132,1.36886 -2.6319,1.37764 -0.23057,0.009 0.37611,0.29459 1.34818,0.63515 3.6685,1.28524 9.16727,4.61509 10.10758,6.12078 0.2804,0.44899 0.60669,0.48658 3.19165,0.36775 4.90892,-0.22566 10.85581,0.61845 17.15451,2.43494 4.78202,1.3791 8.06982,3.34881 13.1344,7.86879 1.0176,0.90818 1.88821,1.60692 1.93468,1.55276 0.0465,-0.0542 0.30129,-0.77146 0.56628,-1.59398 0.72878,-2.26216 1.30016,-3.24006 2.96235,-5.07 3.57805,-3.93914 7.34113,-5.40733 16.61178,-6.48117 7.88191,-0.91298 12.09839,-2.58035 17.0927,-6.75913 2.58261,-2.1609 2.51396,-2.12065 3.28658,-1.92673 1.0191,0.25577 1.51037,1.40806 1.5217,3.56913 0.005,1.01689 0.18695,2.58304 0.40361,3.48034 0.21666,0.89729 0.39584,2.15353 0.39818,2.79164 l 0.004,1.16019 1.42752,-0.72093 c 2.24461,-1.13358 3.70242,-2.20708 6.11157,-4.50042 2.34478,-2.23208 2.96961,-2.49255 4.09248,-1.70606 0.51605,0.36146 0.60432,0.67419 0.60432,2.14113 v 1.71784 l 2.10729,-1.03855 c 2.6877,-1.3246 5.69556,-1.96 9.17691,-1.93859 3.44342,0.0212 5.50244,0.63853 8.42916,2.52732 1.19639,0.77211 3.03178,1.95984 4.07862,2.63941 1.92736,1.25115 4.29707,3.02942 6.08788,4.56843 1.83849,1.57999 4.66164,3.40012 7.31077,4.71337 3.15031,1.5617 4.40219,1.97769 8.35403,2.77602 4.72813,0.95514 13.388,0.823 21.41692,-0.32679 1.01173,-0.14488 2.93954,-0.34151 4.28402,-0.43694 2.12779,-0.15104 2.51478,-0.10993 2.98686,0.3173 0.59544,0.53887 0.67216,0.98281 0.29408,1.7018 -0.13655,0.25968 -0.57441,1.17696 -0.97303,2.03839 -0.88867,1.92048 -2.73591,3.58804 -6.13313,5.53658 l -2.42821,1.39273 1.60272,0.31532 c 1.87775,0.36943 3.01367,1.15182 3.01367,2.07574 0,1.57539 -3.20804,3.80063 -6.79096,4.71052 -2.17023,0.55114 -2.23224,0.46116 1.2342,1.79097 3.26878,1.254 3.6534,1.4679 3.6534,2.03186 0,0.46056 0.13547,0.51013 1.01966,0.37311 0.56081,-0.0869 1.61313,-0.38816 2.33849,-0.66946 1.95529,-0.75826 8.39896,-1.78309 13.53255,-2.15228 4.09739,-0.29468 4.70606,-0.27982 6.52581,0.1593 8.54919,2.06296 15.68214,6.86381 20.67812,13.91748 1.7044,2.40638 2.30846,3.73656 3.12578,6.88312 0.99295,3.82271 0.59955,5.45895 -1.40907,5.86067 -1.06311,0.21263 -2.1959,-0.64509 -2.44772,-1.85333 -0.87147,-4.18134 -6.22102,-7.2765 -11.95819,-6.9188 -7.68707,0.47927 -11.17039,6.52988 -6.32197,10.98142 2.84081,2.60827 6.13636,3.48907 11.40845,3.04913 1.03917,-0.0867 1.35704,-0.005 1.69078,0.43702 0.93464,1.23663 0.43806,2.84609 -1.51541,4.9116 -1.59738,1.68899 -3.70942,2.9358 -5.69417,3.36145 -3.06397,0.6571 -7.82943,0.18143 -11.25975,-1.12391 -1.63866,-0.62355 -4.95247,-2.69033 -7.28115,-4.54115 -1.31275,-1.04336 -3.06777,-2.28662 -3.90005,-2.7628 -1.36704,-0.78214 -1.65753,-0.84883 -3.0068,-0.69025 -0.82147,0.0965 -1.82337,0.34609 -2.22646,0.55453 -1.16604,0.60299 -3.1251,2.87112 -3.96751,4.59345 -1.10737,2.26403 -1.18562,3.74853 -0.31264,5.93065 0.77739,1.94318 0.87051,2.84658 0.39987,3.87952 -0.35682,0.78314 -1.45807,1.11938 -2.44153,0.74548 -0.84353,-0.32072 -1.09232,-0.62464 -2.13707,-2.61074 -1.91994,-3.64987 -5.20345,-7.38695 -7.94869,-9.04669 -0.79114,-0.47831 -2.20611,-1.06558 -3.14439,-1.30504 -1.56472,-0.39935 -1.83012,-0.3993 -3.20564,5.7e-4 -1.77055,0.51472 -3.29256,1.89558 -4.31649,3.91621 -0.89667,1.76948 -2.04744,2.59701 -3.32348,2.38994 -1.23123,-0.1998 -1.64606,-0.56073 -1.87095,-1.62783 -0.81234,-3.85465 -3.27452,-10.68286 -5.36131,-14.8682 l -0.88121,-1.7674 -0.15964,2.03931 c -0.0878,1.12162 -0.29907,2.53119 -0.46948,3.13238 -0.33365,1.17704 -2.05699,4.20493 -2.58402,4.54008 -0.50774,0.32288 -1.72397,0.24643 -2.02027,-0.127 -0.14832,-0.18694 -0.34992,-1.44112 -0.44799,-2.78706 -0.10252,-1.40706 -0.42886,-3.1337 -0.7678,-4.06241 l -0.58949,-1.61523 -0.32046,1.88714 c -0.38573,2.27151 -0.8753,3.49608 -1.86871,4.6742 -0.63044,0.74767 -0.92744,0.8837 -1.9294,0.8837 -1.80208,0 -2.46618,-0.7341 -3.27966,-3.62543 -1.14693,-4.07644 -1.73586,-4.70893 -7.02832,-7.54813 -2.26668,-1.21598 -3.78515,-2.25531 -5.02808,-3.44152 -0.97938,-0.93468 -1.81229,-1.69942 -1.85091,-1.69942 -0.0386,0 -0.0702,0.19361 -0.0702,0.43026 0,0.72852 -1.63719,4.20674 -2.74183,5.82504 -1.68089,2.4625 -3.05353,2.80213 -4.31075,1.06659 -0.95635,-1.3202 -1.46759,-2.82537 -2.05143,-6.03976 -0.23862,-1.31375 -0.99244,-3.88328 -1.67515,-5.71008 -1.95054,-5.21924 -1.92005,-5.19841 -2.05954,-1.40745 -0.15746,4.27937 -0.94259,6.80122 -2.2931,7.3655 -2.05078,0.85687 -2.38425,0.4992 -3.58142,-3.84133 -0.45373,-1.64504 -1.43611,-4.27576 -2.18308,-5.84603 l -1.35812,-2.85504 -0.021,1.83 c -0.0275,2.3945 -1.138,5.23541 -2.33079,5.96282 -0.95125,0.58011 -2.38943,0.65532 -2.81128,0.14701 -0.1613,-0.19435 -0.37696,-0.89792 -0.47923,-1.56347 -0.30058,-1.95612 -1.68283,-5.45936 -2.70379,-6.85264 -1.22732,-1.67488 -2.95372,-2.92299 -4.0406,-2.92114 -1.01233,0.002 -1.68526,0.42365 -4.21241,2.64123 -2.36558,2.0758 -3.21042,2.52638 -5.1032,2.72173 l -1.47786,0.15253 0.17434,0.84433 c 0.21257,1.02953 0.42492,1.20221 3.5822,2.91303 3.65198,1.9789 4.78935,3.56434 5.63574,7.85595 0.61491,3.11787 1.11719,4.63972 2.36185,7.15612 1.04577,2.11426 1.20164,2.74061 0.88643,3.56202 -0.20523,0.53483 -1.98257,0.56182 -3.4103,0.0518 l -0.99221,-0.35445 0.4836,1.12821 c 0.7065,1.64819 2.94929,5.00133 5.27316,7.88378 1.03154,1.27947 1.25577,3.01953 0.50809,3.94287 -0.46681,0.57649 -0.75294,0.6581 -2.2713,0.64786 -1.02702,-0.007 -2.40417,-0.24304 -3.36866,-0.57757 -1.0164,-0.35253 -1.72884,-0.46984 -1.88977,-0.31117 -0.14207,0.14007 -0.55257,0.25468 -0.91222,0.25468 -1.17872,0 -6.42938,-1.12693 -7.02838,-1.50848 -0.58153,-0.37042 -0.5826,-0.36715 -0.15837,0.48323 0.3904,0.78257 0.38814,0.96589 -0.0263,2.13281 -0.24938,0.70215 -0.45342,1.63568 -0.45342,2.0745 0,2.06422 -2.28267,7.23974 -3.91149,8.86856 l -0.92663,0.92662 0.58368,0.6905 c 0.46488,0.54997 0.97456,0.74516 2.50426,0.95907 1.44124,0.20154 2.68041,0.64771 4.96491,1.78762 1.67437,0.83548 3.44082,1.79663 3.92544,2.1359 1.58521,1.10974 5.3757,4.35018 5.93747,5.07585 1.33102,1.71937 5.11404,5.29806 6.92115,6.54732 2.11148,1.45966 5.66042,3.27124 6.40847,3.27124 0.25044,0 0.83509,0.43251 1.29923,0.96114 1.09368,1.24562 1.20563,3.23575 0.2321,4.12591 -0.7902,0.72255 -2.21309,1.43875 -2.85838,1.43875 -0.2784,0 -0.77684,0.36608 -1.10764,0.81352 -1.05025,1.42053 -2.28566,1.8364 -6.44108,2.16821 -2.07629,0.1658 -3.81511,0.34149 -3.86405,0.39043 -0.19838,0.19837 2.89396,3.58446 4.47135,4.89609 0.92858,0.77214 2.64841,1.91544 3.82185,2.54067 3.04396,1.62189 4.41448,3.48817 4.41448,6.01133 0,1.09115 -0.13171,1.42204 -0.8337,2.09449 -0.68271,0.65398 -1.05444,0.79384 -2.05245,0.77224 -0.9217,-0.02 -1.18423,0.0635 -1.07713,0.34263 0.40771,1.06249 0.74209,4.11879 0.58521,5.34905 -0.0985,0.77238 -0.55435,2.74136 -1.01303,4.37552 -0.80195,2.8572 -0.82239,3.06135 -0.53265,5.32063 0.47246,3.68405 0.39402,5.96393 -0.24104,7.00551 -1.13557,1.86248 -3.11284,2.36332 -6.58071,1.66687 -1.49407,-0.30005 -1.51305,-0.29552 -2.96837,0.70865 -1.43141,0.98768 -1.51101,1.0079 -3.504,0.89032 -1.50743,-0.0889 -2.41287,-0.31105 -3.47162,-0.85162 -1.55303,-0.79293 -2.20884,-0.70111 -2.79339,0.39114 -0.39695,0.74171 -1.86893,1.61089 -2.70797,1.59901 -0.37387,-0.005 -1.08921,-0.18742 -1.58964,-0.40473 z m 3.2211,-2.16674 c 1.04488,-1.06466 1.34893,-1.22359 2.34083,-1.22359 0.64412,0 1.77265,0.29452 2.59449,0.67711 2.05025,0.95444 3.63389,0.91466 5.00887,-0.12583 1.42079,-1.07515 2.31505,-1.21087 4.7008,-0.71343 2.3237,0.48451 3.31342,0.23649 4.37555,-1.09647 0.60039,-0.75348 0.61428,-0.88972 0.3983,-3.90764 -0.35632,-4.979 -0.29743,-5.91889 0.55367,-8.83703 0.84034,-2.88124 0.94253,-4.36217 0.56525,-8.19119 l -0.21767,-2.2092 1.56367,0.0339 c 1.37203,0.0298 1.627,-0.0498 2.08045,-0.6489 0.48629,-0.64254 0.49219,-0.76569 0.0998,-2.08688 -0.49642,-1.67164 -1.19161,-2.31625 -4.24743,-3.93845 -3.43378,-1.82285 -8.39646,-7.01836 -8.39646,-8.79041 0,-0.54047 0.2205,-0.59201 3.8747,-0.90565 5.22055,-0.44807 6.33898,-0.74144 7.01854,-1.84099 0.54799,-0.88667 1.02591,-1.19624 1.84674,-1.19624 0.66259,0 2.48689,-1.58333 2.48689,-2.1584 0,-0.78885 -1.02562,-1.8636 -1.97465,-2.06924 -1.15149,-0.2495 -4.26488,-1.81914 -6.31855,-3.18554 -0.8973,-0.59701 -3.65038,-3.13897 -6.11794,-5.6488 -3.28606,-3.34233 -5.1114,-4.96695 -6.822,-6.07184 -2.84561,-1.83802 -6.52215,-3.64495 -7.83902,-3.85271 -2.62951,-0.41484 -3.18882,-0.69 -4.26141,-2.09648 -1.00447,-1.31713 -1.02671,-1.38979 -0.51262,-1.67438 2.0928,-1.15855 4.94515,-6.14942 5.31935,-9.30752 0.12163,-1.02648 0.29825,-2.23615 0.39249,-2.68817 0.13133,-0.6299 0.0392,-0.9414 -0.39425,-1.33371 -0.35812,-0.32409 -0.5656,-0.8455 -0.5656,-1.4214 0,-1.07288 0.36244,-1.15082 1.84621,-0.39702 1.14844,0.58345 3.51471,1.22795 5.89865,1.60663 1.38305,0.21969 1.67517,0.19245 1.94873,-0.18166 0.29506,-0.40352 0.43101,-0.39778 1.63598,0.0691 2.6949,1.04419 3.98884,1.31854 4.781,1.0137 0.50402,-0.19395 0.74775,-0.48403 0.74775,-0.88993 0,-0.64307 -1.94065,-4.04433 -2.63758,-4.62273 -0.81586,-0.6771 -3.14811,-4.40338 -3.65026,-5.83207 -0.982,-2.79398 -0.7526,-2.97199 2.4335,-1.88833 1.07304,0.36497 1.95098,0.54722 1.95098,0.40501 0,-0.14221 -0.61295,-1.51976 -1.36211,-3.06123 -1.02836,-2.11593 -1.52689,-3.59728 -2.03461,-6.04566 -0.55904,-2.6959 -0.84555,-3.49477 -1.69831,-4.73544 -0.56465,-0.82149 -1.51414,-1.77366 -2.112,-2.11796 -4.42933,-2.55077 -4.86498,-2.91474 -5.48852,-4.58536 -0.85316,-2.2858 -0.8577,-2.27473 0.93551,-2.28158 2.15625,-0.008 3.53499,-0.70642 6.23416,-3.15691 2.48818,-2.25894 3.57062,-2.721 5.29676,-2.261 1.56363,0.41669 3.52202,1.89203 4.6369,3.49317 0.91651,1.31626 2.38994,5.24396 2.38994,6.37085 0,0.23034 0.12203,0.73978 0.27118,1.13208 0.26975,0.7095 0.27544,0.71076 1.07656,0.23753 0.48378,-0.28577 1.05408,-1.02496 1.42824,-1.85118 0.53584,-1.18326 0.62287,-1.82183 0.62287,-4.57036 0,-2.6639 0.0678,-3.19297 0.40786,-3.18315 1.09192,0.0315 4.78361,7.43244 5.8061,11.63978 0.3762,1.54799 0.72263,2.84908 0.76983,2.89132 0.0472,0.0422 0.34088,-0.0199 0.65261,-0.13801 0.42299,-0.1603 0.7334,-0.79033 1.22358,-2.48346 0.55264,-1.90884 0.65682,-2.86165 0.65682,-6.00746 0,-2.65014 0.0916,-3.73879 0.31468,-3.73874 0.17308,3e-5 0.85397,0.59987 1.51309,1.33296 1.50689,1.67603 3.45323,6.61136 4.40704,11.17489 0.69887,3.34375 1.25518,5.11186 1.89645,6.0274 0.39637,0.5659 0.40517,0.56343 1.24754,-0.34954 0.4666,-0.5057 1.51445,-2.2448 2.32856,-3.86466 1.12461,-2.23766 1.4802,-3.2338 1.4802,-4.1466 0,-1.41398 0.46928,-1.5894 1.15346,-0.43118 1.04943,1.77655 4.40824,4.50826 7.69962,6.26208 1.78576,0.95156 3.64178,2.02634 4.12448,2.38841 1.20327,0.90257 2.21278,2.72393 2.9419,5.30776 0.69669,2.46892 1.53699,3.62498 2.32739,3.20196 1.43132,-0.76602 2.82984,-4.79379 2.61454,-7.52994 -0.1015,-1.28991 -0.0477,-1.69943 0.2234,-1.69943 0.59332,0 1.18312,0.77211 2.36185,3.09193 1.02422,2.01574 1.13362,2.43269 1.24299,4.73712 0.13684,2.88336 0.34761,3.02424 1.48032,0.98946 1.29896,-2.33341 1.87945,-4.61669 1.79201,-7.04865 -0.0647,-1.79936 -0.005,-2.18696 0.34892,-2.25506 1.07839,-0.20768 4.52177,5.94897 6.4305,11.49749 0.93849,2.72813 1.96626,6.5117 1.96626,7.23846 0,0.6362 0.9166,0.89267 1.62929,0.45588 0.31663,-0.19404 0.93829,-1.10911 1.38149,-2.03347 0.93186,-1.94357 2.69905,-3.64438 4.27822,-4.11751 5.41737,-1.62308 11.73744,2.54593 16.08663,10.61148 1.13155,2.09846 2.00906,2.83333 2.48545,2.08148 0.35161,-0.55492 0.29509,-1.04465 -0.30183,-2.61515 -1.12064,-2.94844 -0.53052,-6.40548 1.56393,-9.16187 1.46305,-1.92545 3.04442,-3.04111 4.83845,-3.41355 3.04111,-0.63133 5.24472,0.21734 9.45434,3.64112 6.45183,5.24742 14.18171,6.94122 19.45001,4.26197 2.11624,-1.07624 4.54406,-3.78343 4.34057,-4.84005 -0.0806,-0.41873 -0.42351,-0.46247 -3.0786,-0.39275 -2.06735,0.0543 -3.47617,-0.052 -4.57283,-0.34509 -4.78012,-1.27739 -7.93983,-4.26411 -8.28432,-7.83075 -0.46462,-4.81039 4.03997,-8.39106 10.57567,-8.40653 5.83882,-0.0138 10.34391,2.58437 11.99563,6.91814 0.73895,1.93886 1.49455,2.3461 2.24054,1.20759 0.38547,-0.5883 0.38901,-0.84952 0.0344,-2.53181 -0.45533,-2.15979 -1.64156,-5.18781 -2.65723,-6.78293 -4.12244,-6.47433 -11.10327,-11.53772 -19.07983,-13.83913 -1.91256,-0.55182 -3.00842,-0.69523 -5.31255,-0.69523 -4.38727,0 -12.6069,1.11805 -15.93386,2.16736 -3.33938,1.05322 -4.7584,0.97389 -4.7584,-0.26599 0,-0.33497 -0.41223,-0.61406 -1.36943,-0.92715 -0.75319,-0.24635 -2.68034,-1.05048 -4.28256,-1.78696 -3.14232,-1.44438 -3.8288,-2.17539 -2.04936,-2.18227 1.77039,-0.007 4.41915,-0.77414 6.61365,-1.91584 2.52249,-1.31234 3.47381,-2.1891 2.89578,-2.66882 -0.50423,-0.41848 -4.20915,-1.1214 -5.91063,-1.1214 -1.7019,0 -1.80165,-0.59261 -0.18001,-1.06945 1.94615,-0.57226 5.89385,-2.79161 7.78802,-4.37833 1.37336,-1.15044 2.01229,-1.93873 2.71141,-3.34524 0.50306,-1.01208 0.83472,-1.92008 0.73701,-2.01778 -0.0977,-0.0977 -1.61052,0.0391 -3.36183,0.30392 -1.7513,0.26485 -4.53014,0.59731 -6.17518,0.73879 -1.64505,0.14147 -3.80977,0.37825 -4.81049,0.52617 -3.79272,0.56061 -10.01521,0.25971 -14.63097,-0.70751 -6.25199,-1.31009 -10.08402,-3.26809 -16.51433,-8.43809 -1.53062,-1.23063 -3.61072,-2.78091 -4.62244,-3.44507 -1.01172,-0.66416 -2.9145,-1.91095 -4.2284,-2.77063 -3.35171,-2.19302 -5.01623,-2.67479 -8.62338,-2.49594 -3.72631,0.18476 -6.36442,0.94465 -9.15931,2.63827 -1.2241,0.74177 -2.31053,1.34867 -2.41427,1.34867 -0.10375,0 -0.10246,-1.10153 0.003,-2.44785 0.2628,-3.35934 -0.0718,-3.46674 -2.63202,-0.84491 -1.04955,1.07479 -2.43485,2.31645 -3.07844,2.75926 -1.577,1.085 -6.35641,3.36167 -6.58251,3.13558 -0.0996,-0.0996 -0.14975,-1.12344 -0.11151,-2.27526 0.0382,-1.15182 -0.0573,-2.51993 -0.21241,-3.04024 -0.15507,-0.52032 -0.36197,-2.08451 -0.45978,-3.47599 -0.0978,-1.39148 -0.2954,-2.60263 -0.43909,-2.69143 -0.14369,-0.0888 -0.52301,0.15876 -0.84293,0.55015 -1.03941,1.27162 -4.8735,3.9786 -7.37938,5.21006 -1.34595,0.66144 -3.42605,1.4476 -4.62244,1.74702 -2.16776,0.54253 -3.08586,0.68627 -9.78871,1.53248 -7.11317,0.89802 -11.35451,3.0007 -14.35758,7.11789 -0.93819,1.28625 -2.36479,4.78494 -2.36479,5.79959 0,1.2159 -0.84881,0.77422 -4.26432,-2.21895 -6.71356,-5.88338 -9.87675,-7.3005 -21.02316,-9.41839 -1.49272,-0.28362 -3.90009,-0.44768 -6.79771,-0.46324 -3.10427,-0.0167 -4.61215,-0.12668 -4.89436,-0.35707 -3.04323,-2.48455 -4.73302,-3.61402 -7.47748,-4.99804 -2.6116,-1.31701 -3.60212,-1.67586 -4.96233,-1.79777 -1.03955,-0.0932 -1.69943,-0.27703 -1.69943,-0.4735 0,-0.17666 1.27475,-0.95485 2.83278,-1.72932 3.37028,-1.67531 5.53709,-3.53264 6.55971,-5.6228 0.95335,-1.94859 0.76208,-2.58389 -0.77772,-2.58311 -0.9399,4.7e-4 -1.562,0.28627 -3.58446,1.64676 -1.34595,0.90541 -2.99779,1.93024 -3.67076,2.27741 -2.76396,1.42588 -11.17583,4.49309 -12.34389,4.50095 -0.28373,0.002 -1.5685,-0.89174 -2.85504,-1.98589 -4.6656,-3.96788 -6.60165,-5.18181 -11.53308,-7.23136 -2.42314,-1.00709 -3.05923,-1.38391 -3.12683,-1.85232 -0.0707,-0.48982 0.0883,-0.6192 0.95168,-0.77452 2.20556,-0.39677 6.44942,-1.51922 7.18791,-1.90111 1.21576,-0.62869 2.68565,-2.0302 2.68565,-2.56071 0,-0.99621 -0.69101,-1.21117 -2.66462,-0.82892 -1.00202,0.19407 -2.37248,0.45626 -3.04545,0.58265 -6.30563,1.18423 -13.7298,1.39359 -18.27204,0.51527 -1.54048,-0.29788 -5.34812,-1.39793 -8.46142,-2.44457 -10.50009,-3.52994 -14.11732,-4.41615 -20.06724,-4.91641 l -3.91023,-0.32877 -2.71908,-1.44449 c -3.90802,-2.07609 -7.89949,-3.59219 -10.03259,-3.81074 l -1.80209,-0.18463 -0.97357,-1.60267 c -0.53547,-0.88147 -1.28941,-1.97802 -1.67542,-2.43676 l -0.70183,-0.83409 0.65017,-1.1902 0.65018,-1.1902 -0.94277,-0.98547 c -0.51853,-0.54201 -1.58516,-1.35168 -2.37029,-1.79927 -1.24864,-0.71183 -1.42748,-0.92129 -1.42719,-1.67155 2.9e-4,-0.72543 -0.39818,-1.24678 -2.58313,-3.37969 -1.4209,-1.38707 -2.58063,-2.61066 -2.57717,-2.71909 0.003,-0.10843 0.87927,-0.68657 1.94625,-1.28477 3.06383,-1.71773 6.46558,-6.08981 6.47396,-8.32061 0.004,-1.18478 -0.5484,-2.41978 -1.08323,-2.41978 -0.28908,0 -0.84558,0.55589 -1.36172,1.36023 -1.88181,2.93254 -5.15821,5.0672 -8.97255,5.84583 -1.12162,0.22896 -2.50063,0.59783 -3.06447,0.8197 -1.30706,0.51434 -1.28606,0.51798 -1.28606,-0.22303 0,-0.69703 1.13485,-1.85785 2.94066,-3.00794 1.64543,-1.04795 6.30423,-5.3033 6.30423,-5.75828 0,-0.86786 -1.67432,-1.18498 -4.48649,-0.84975 -1.14478,0.13647 -1.80269,0.0912 -2.20548,-0.15175 -0.31571,-0.19042 -1.2334,-0.6952 -2.03931,-1.12171 -0.80591,-0.42652 -1.95473,-1.24659 -2.55292,-1.82238 -1.42633,-1.37288 -3.34275,-2.1971 -5.23695,-2.2523 -0.84329,-0.0246 -1.56121,-0.17984 -1.61769,-0.34985 -0.0558,-0.16812 0.50888,-0.97356 1.25495,-1.78987 1.41242,-1.54542 3.69034,-2.93835 5.66304,-3.46291 1.93603,-0.51482 2.12454,-1.65534 0.56683,-3.42947 -0.90155,-1.02681 -2.45905,-1.60937 -5.10223,-1.90841 -3.56636,-0.40349 -7.62441,1.77924 -8.0048,4.30559 -0.33297,2.2114 -1.3524,4.83977 -2.31191,5.96075 -1.29572,1.51375 -4.09341,2.82984 -6.53731,3.07527 -1.03274,0.10372 -2.13242,0.10774 -2.44373,0.009 -1.20275,-0.38174 -0.88384,-0.82775 4.80093,-6.71434 l 2.27596,-2.35677 -0.4226,-2.22774 c -0.53915,-2.84221 -0.53477,-4.68187 0.0156,-6.53682 0.37516,-1.26447 1.61687,-4.05273 1.80964,-4.06357 0.0349,-0.002 2.16179,-0.35175 4.72649,-0.77731 3.53563,-0.58666 5.10123,-0.97877 6.47515,-1.62171 2.65977,-1.24465 3.25442,-1.75779 4.35286,-3.75614 1.20001,-2.18317 1.11523,-2.54969 -1.09465,-4.73212 -1.77655,-1.75448 -1.89524,-2.51091 -0.64223,-4.09297 0.46121,-0.58233 0.70875,-1.05878 0.55008,-1.05878 -0.15867,0 -0.4781,-0.28938 -0.70984,-0.64307 -0.51597,-0.78748 -0.14199,-2.07252 0.60602,-2.08237 0.26541,-0.003 1.08007,-0.33998 1.81034,-0.74775 3.35952,-1.87587 3.54362,-6.69171 0.38326,-10.02565 -0.94008,-0.99171 -4.3348,-2.81567 -5.24048,-2.81567 -0.88832,0 -1.35873,0.64143 -0.80651,1.09973 0.9871,0.81922 1.49694,2.72791 1.04397,3.90834 -0.0989,0.25777 -0.48661,0.4301 -0.96763,0.4301 -0.4805,0 -1.20537,0.32179 -1.80629,0.80188 -0.55204,0.44103 -1.9787,1.20852 -3.17034,1.70554 -1.74713,0.72869 -2.31861,1.11989 -2.95153,2.02043 -1.16887,1.66309 -1.08077,3.48319 0.31086,6.42264 0.5825,1.23039 1.45519,2.7265 1.93931,3.3247 0.74966,0.92631 0.85927,1.2448 0.73901,2.1472 -0.27163,2.0383 -1.07409,2.32921 -7.93163,2.87535 -1.7946,0.14292 -3.73963,0.34441 -4.32229,0.44774 -1.21317,0.21516 -1.20006,0.42761 -0.18534,-3.00293 0.42597,-1.44011 0.77429,-2.06227 1.48044,-2.64434 0.50787,-0.41863 1.12226,-1.25814 1.36531,-1.86557 0.40735,-1.01808 0.40749,-1.17273 0.002,-1.97811 -0.55106,-1.09394 -1.93262,-2.57784 -2.8264,-3.03577 -0.37388,-0.19156 -1.781,-0.43328 -3.12695,-0.53716 -4.17208,-0.32201 -6.26345,-1.04819 -7.60278,-2.6399 -0.64774,-0.76979 -0.71539,-1.02407 -0.55574,-2.08874 0.1,-0.66674 0.37911,-1.62604 0.62028,-2.13178 0.39465,-0.82759 0.39667,-0.96135 0.0202,-1.33786 -0.59718,-0.59718 -1.5513,-0.27542 -2.93566,0.99002 -0.6441,0.58876 -1.43447,1.07048 -1.75637,1.07048 -0.36133,0 -1.25857,-0.68402 -2.34484,-1.78761 -2.00057,-2.03247 -3.3821,-2.93309 -5.19127,-3.38417 -1.10151,-0.27464 -1.38652,-0.24689 -2.31122,0.22505 -1.5742,0.80342 -2.12283,1.50212 -1.74048,2.21653 0.17011,0.31787 0.27164,1.03162 0.2256,1.5861 -0.0738,0.8885 -0.22891,1.0828 -1.30729,1.63727 -1.14663,0.58956 -1.42026,0.6175 -4.35054,0.44419 -1.71982,-0.10172 -4.65643,-0.19748 -6.5258,-0.2128 -3.17496,-0.026 -3.52421,0.0245 -5.30177,0.76737 -1.34143,0.56059 -2.37516,1.25448 -3.5034,2.35166 l -1.60048,1.55642 0.19313,2.46879 c 0.17402,2.22447 0.13703,2.55955 -0.37371,3.38594 -0.85943,1.39059 -1.75973,1.64426 -4.85932,1.36918 -3.17616,-0.28188 -6.44171,-0.27793 -7.46274,0.009 l -0.74775,0.21015 v -1.49926 c 0,-2.11566 -1.44582,-4.84764 -3.86765,-7.30822 -1.01334,-1.02954 -1.84242,-1.97497 -1.84242,-2.10095 0,-0.32052 -1.29549,-1.59719 -2.55595,-2.51882 -1.32583,-0.96942 -2.46455,-0.9962 -4.23394,-0.0996 -2.22483,1.1274 -3.35403,3.18041 -3.32823,6.05106 0.0147,1.63428 0.46522,2.22215 1.71479,2.23746 0.38808,0.005 0.92977,0.25635 1.20375,0.5591 0.48364,0.53441 0.48216,0.57202 -0.0508,1.29156 -0.70057,0.94581 -2.81863,2.07655 -5.9909,3.19831 -1.3755,0.48639 -2.8637,1.14268 -3.30711,1.45842 -1.12362,0.80009 -3.19941,3.15588 -4.03076,4.57447 -0.74183,1.26584 -3.20058,3.06603 -4.18766,3.06603 -0.71357,0 -1.5174,0.42652 -2.63741,1.39942 -1.04574,0.90838 -1.69512,0.97748 -2.35315,0.25037 -0.65855,-0.7277 -1.04682,-0.49432 -2.4507,1.47305 -1.87292,2.62466 -2.59947,3.13106 -4.49225,3.13106 -1.48237,0 -1.63789,0.0632 -2.45968,0.99914 -0.93983,1.07041 -2.71389,4.53071 -2.71389,5.29345 0,0.28639 -0.29351,0.52637 -0.77243,0.63156 -0.64224,0.14106 -0.89431,0.46643 -1.4955,1.93035 -0.39768,0.96838 -0.72306,2.24771 -0.72306,2.84294 0,1.29191 -0.49505,1.42764 -1.50896,0.41374 l -0.66852,-0.66852 -0.43401,0.66238 c -0.50547,0.77144 -0.90758,2.34349 -0.91683,3.58429 -0.012,1.6129 -0.59668,3.63819 -1.25548,4.34905 -0.3599,0.38834 -0.65437,0.94631 -0.65437,1.23993 0,0.46952 -0.12289,0.51089 -1.01966,0.34325 -2.10907,-0.39426 -3.28413,-0.24479 -4.48965,0.5711 -0.63385,0.42898 -1.48893,0.92783 -1.90019,1.10854 -0.9889,0.43455 -0.93,0.8814 0.23232,1.76263 0.52814,0.40042 1.66074,1.56282 2.5169,2.58313 0.85615,1.02031 2.19378,2.33114 2.97251,2.91297 l 1.41586,1.05786 v 2.17295 c 0,1.72674 -0.11622,2.36099 -0.56599,3.08873 -0.3113,0.50369 -0.73673,0.9158 -0.94541,0.9158 -0.52193,0 -1.24462,-1.17394 -1.61101,-2.61692 l -0.30565,-1.20375 -1.01274,0.89068 c -1.52343,1.33982 -2.67915,4.88731 -2.72621,8.36816 -0.0311,2.30274 0.0555,2.80449 0.79839,4.62244 0.45832,1.12163 1.31401,2.75938 1.90154,3.63947 1.35843,2.03485 1.26678,1.87231 2.30592,4.08947 0.55307,1.18005 1.44162,2.44877 2.38038,3.39885 l 1.4979,1.51596 0.0738,2.27577 c 0.0406,1.25167 0.22016,2.90352 0.39903,3.67076 0.45388,1.94687 1.91682,5.0491 3.3434,7.08984 0.66286,0.94824 1.601,2.7159 2.08475,3.92814 1.80837,4.53163 4.87115,7.8184 9.42331,10.11246 1.31131,0.66083 2.75484,1.44936 3.20785,1.75228 1.84562,1.23417 7.71911,4.73916 9.10722,5.43473 2.53622,1.27087 4.76545,2.00069 7.53805,2.46789 3.08409,0.51968 7.55826,1.91618 10.01663,3.12643 2.42382,1.19324 4.46428,3.13304 6.21617,5.9095 1.35458,2.14679 1.72947,2.87629 2.47038,4.80717 0.19143,0.49888 0.23867,0.47642 0.5717,-0.27191 0.19966,-0.44865 0.36922,-1.1828 0.3768,-1.63145 0.008,-0.44865 0.14351,-1.28288 0.30205,-1.85384 0.23827,-0.85804 0.35592,-0.98197 0.67826,-0.71445 0.21449,0.17801 0.38998,0.48762 0.38998,0.68803 0,0.87371 1.21743,3.49224 2.31993,4.98989 2.68089,3.64172 7.93872,6.71015 14.26649,8.3258 1.42072,0.36274 3.13374,0.66075 3.80672,0.66223 1.34705,0.003 3.7508,1.02585 5.58448,2.3764 0.60389,0.44478 1.88028,1.73887 2.83643,2.87575 1.85233,2.20248 4.25516,4.1407 7.71852,6.2261 3.64159,2.19271 6.18301,2.88603 8.02712,2.18987 0.6372,-0.24054 0.62452,-0.26866 -0.8837,-1.95895 -0.8416,-0.94319 -1.53018,-1.883 -1.53018,-2.08846 0,-0.72247 2.63825,-0.42959 8.06129,0.89491 2.21662,0.54137 5.70528,2.54285 7.71604,4.42676 l 1.62481,1.52232 v 3.02999 c 0,2.90393 -0.0368,3.0976 -0.8837,4.65465 -0.48603,0.89356 -1.39746,2.21927 -2.02539,2.94601 -0.62793,0.72674 -1.81299,2.12888 -2.63345,3.11585 -1.81285,2.18074 -12.07502,12.04025 -14.71464,14.13725 -2.46115,1.95524 -4.14312,2.90456 -5.5427,3.12836 -1.00583,0.16084 -1.21845,0.0914 -2.00577,-0.65507 -4.30952,-4.08584 -5.6013,-4.73963 -12.71917,-6.43736 -3.49554,-0.83375 -3.49187,-0.83371 -5.08915,-0.0522 -5.57117,2.72594 -12.56207,8.88606 -13.2656,11.68914 -0.20975,0.8357 0.22052,0.97473 1.1065,0.35755 0.75685,-0.52722 3.8412,-1.72381 5.29474,-2.05412 0.67298,-0.15293 1.86364,-0.28104 2.64593,-0.2847 1.33531,-0.006 1.43173,0.0391 1.57584,0.7411 0.41019,1.99822 0.76335,2.86432 1.63196,4.00226 0.51919,0.68018 0.94059,1.44975 0.93643,1.71017 -0.004,0.26042 -0.3853,0.84057 -0.84698,1.28921 -0.46169,0.44865 -1.2362,1.62608 -1.72114,2.6165 -0.48494,0.99042 -1.53221,2.58109 -2.32727,3.53481 -1.59087,1.90832 -2.81831,4.34439 -4.06717,8.072 -0.69255,2.06711 -0.81859,2.86167 -0.81859,5.16024 0,3.10009 0.65483,7.03591 1.28765,7.73932 0.23545,0.26171 0.68863,0.47584 1.00706,0.47584 0.60945,0 0.69281,-0.16657 2.31331,-4.62244 0.96058,-2.64129 2.21211,-4.82996 3.72253,-6.50991 1.34066,-1.49113 2.09193,-1.86494 2.71269,-1.34975 0.54014,0.44828 2.03519,-0.0645 3.36188,-1.15311 1.00889,-0.82782 1.90939,-1.01691 1.90939,-0.40093 0,0.20625 -0.30013,1.03217 -0.66696,1.83538 -1.53967,3.37129 -2.33922,9.07372 -1.81237,12.92601 0.41981,3.06969 1.06611,5.76136 1.57807,6.57227 0.31911,0.50544 0.55014,0.59903 1.12716,0.4566 0.39918,-0.0985 0.80988,-0.26227 0.91266,-0.36385 0.10279,-0.10158 0.43429,-1.3733 0.73667,-2.82604 0.71628,-3.4413 2.14335,-6.34624 4.20591,-8.56155 0.87705,-0.94202 1.75806,-1.71275 1.9578,-1.71275 0.19973,0 0.81994,-0.54647 1.37825,-1.21438 1.01154,-1.21013 2.05329,-1.77662 3.26713,-1.77662 0.78264,0 0.78774,0.15082 0.0664,1.96127 -1.64254,4.12275 -1.94312,5.60917 -1.94024,9.59484 0.004,5.27729 0.83204,8.38238 2.9917,11.21623 0.73482,0.96421 1.7515,1.16517 2.63316,0.52048 0.46791,-0.34214 0.47729,-0.57326 0.16166,-3.98319 -0.18429,-1.99098 -0.2552,-4.25928 -0.15757,-5.04065 l 0.1775,-1.42069 1.72249,-0.73206 c 1.33498,-0.56738 2.19477,-1.21739 3.82183,-2.88934 1.15463,-1.1865 2.20052,-2.15727 2.32419,-2.15727 0.48855,0 0.70435,3.6337 0.54096,9.10894 -0.13596,4.55626 0.85868,8.16794 3.08324,11.19568 0.94512,1.28636 1.47844,1.43861 2.20952,0.63078 0.45174,-0.49917 0.4662,-0.73528 0.17064,-2.78706 -0.50402,-3.49901 0.0258,-5.73612 1.93344,-8.16336 0.44406,-0.56503 0.97221,-1.57502 1.17367,-2.24442 0.20146,-0.6694 0.79119,-1.98131 1.31051,-2.91535 0.8065,-1.45055 2.91804,-6.80602 3.93998,-9.99293 0.16811,-0.52423 0.59738,-2.60433 0.95395,-4.62245 0.36203,-2.04905 0.95443,-4.35581 1.34158,-5.22403 0.83636,-1.87562 3.0662,-5.37893 3.42367,-5.37893 0.14109,0 0.63762,0.32067 1.10341,0.7126 0.79665,0.67034 0.87663,0.68567 1.34854,0.25859 0.27592,-0.2497 0.71763,-1.02921 0.98158,-1.73225 0.68924,-1.8358 3.77991,-7.4707 5.34786,-9.75019 1.93171,-2.80834 5.11553,-6.38663 5.5981,-6.2917 0.23789,0.0468 0.90814,1.3236 1.59874,3.04559 1.35336,3.3745 3.01497,5.79989 5.68385,8.29649 2.23461,2.09037 4.10092,3.15864 6.45279,3.69356 2.02087,0.45964 2.27652,0.40456 2.64717,-0.57033 0.30039,-0.79009 0.65048,-0.81078 2.19864,-0.12995 1.42578,0.62702 4.84087,1.51317 7.38773,1.91698 2.10778,0.3342 3.8984,-0.0403 5.43583,-1.13693 0.70269,-0.50121 1.22147,-0.62123 2.64181,-0.6112 2.82874,0.02 3.65825,0.29532 5.49527,1.8241 1.79056,1.49012 2.37411,1.63719 4.61856,1.16397 1.41446,-0.29823 2.18344,-0.0332 3.45847,1.19181 0.61049,0.58656 1.49599,1.15125 1.96779,1.25488 0.53723,0.11799 1.51002,0.83742 2.60302,1.92505 0.95987,0.95515 1.95056,1.73583 2.20155,1.73485 0.25098,-9.9e-4 0.82341,-0.2449 1.27206,-0.54203 0.93042,-0.61619 1.71038,-0.68203 2.70598,-0.2284 0.53532,0.24391 1.03728,0.23264 2.21428,-0.0497 1.28678,-0.30869 1.65455,-0.30664 2.37951,0.0133 0.53535,0.23624 1.59949,0.35356 2.83267,0.31228 1.90458,-0.0638 2.0078,-0.0342 2.88734,0.82694 0.50168,0.49118 1.17845,1.41903 1.50393,2.06191 0.32548,0.64287 0.78891,1.2445 1.02984,1.33695 1.12532,0.43183 2.85342,-3.12516 3.23195,-6.65242 0.12109,-1.12829 0.30226,-1.69942 0.53907,-1.69942 0.19619,0 0.42119,0.10435 0.50001,0.23189 0.0788,0.12754 1.37078,0.29952 2.87101,0.38219 2.28957,0.12616 3.01647,0.28545 4.5257,0.9917 0.98891,0.46276 2.12497,0.84139 2.52459,0.84139 0.43547,0 2.53996,1.08371 5.25271,2.70489 2.48938,1.48769 5.11589,3.00451 5.83668,3.3707 1.70657,0.86701 3.34985,2.47448 3.34985,3.27685 0,0.83722 -3.02309,4.34991 -5.3882,6.26084 -2.03637,1.6453 -3.78495,2.33055 -7.70626,3.01999 -2.42155,0.42575 -8.29555,3.0885 -9.39491,4.25882 -0.77832,0.82856 -2.40979,4.41236 -2.61053,5.73448 -0.0858,0.56533 0.0816,2.43942 0.372,4.16464 0.29043,1.72523 0.52805,3.59505 0.52805,4.15516 0,3.14065 2.83974,9.54457 4.62424,10.42818 0.52244,0.25869 1.38261,0.97389 1.9115,1.58934 1.22026,1.41997 2.94485,1.88747 5.65888,1.53402 3.62846,-0.47255 4.11436,-0.68744 6.02325,-2.66377 2.33415,-2.41663 4.60614,-3.78334 6.29088,-3.78427 1.02055,-5.7e-4 1.57561,-0.21107 2.915,-1.10548 3.35919,-2.24317 6.45003,-6.63232 10.11674,-14.36626 1.33862,-2.82344 3.46626,-6.3335 4.71416,-7.77713 1.11293,-1.28749 1.38455,-1.21141 2.93207,0.82123 1.82218,2.39338 2.77,2.41642 4.93739,0.12001 1.39719,-1.48036 1.54324,-1.5367 2.44763,-0.94411 0.33996,0.22274 1.89573,0.73609 3.45727,1.14078 3.89408,1.00917 7.24504,0.99891 12.08406,-0.037 3.14093,-0.67241 3.89839,-0.73949 6.79771,-0.60203 2.44499,0.11592 3.79373,0.32838 5.38055,0.84757 3.33024,1.08962 5.1827,0.80195 5.894,-0.91528 0.29761,-0.71849 0.26702,-0.93431 -0.25123,-1.77286 -0.5605,-0.90691 -2.71407,-2.60097 -3.30647,-2.60097 -0.15246,0 -0.23809,-0.27044 -0.1903,-0.60098 0.11692,-0.80867 1.83659,-1.29743 4.84528,-1.37712 l 2.31123,-0.0612 0.60527,1.22359 c 1.2042,2.43432 1.28579,11.87209 0.12533,14.49552 -0.29686,0.67109 -1.21826,1.95823 -2.04757,2.86031 -2.43957,2.65364 -3.01182,4.23641 -3.27895,9.06916 -0.08,1.44815 -0.2866,3.19324 -0.45902,3.87797 -0.17497,0.69487 -0.26228,2.316 -0.1976,3.66891 0.11244,2.3516 0.15373,2.48084 1.38371,4.33056 1.32817,1.99738 2.63901,2.99473 4.64406,3.5334 0.93136,0.25022 1.16408,0.20393 2.1048,-0.41861 1.31925,-0.87303 2.23844,-0.73984 4.04473,0.5861 2.4998,1.83503 3.07003,1.86931 4.63135,0.27845 z M 231.59481,132.07953 c 0.11393,-0.63558 0.1965,-2.44038 0.18349,-4.01065 -0.0254,-3.06725 -0.46309,-4.55674 -1.88786,-6.42471 -0.79517,-1.04253 -0.83865,-1.50141 -0.19578,-2.06658 0.68757,-0.60446 2.50503,-1.47141 3.56419,-1.70015 l 0.91308,-0.19719 -0.18693,1.35913 c -0.17131,1.24557 -0.12109,1.43282 0.60101,2.24099 0.72676,0.8134 0.94482,0.8916 2.80866,1.0073 1.88948,0.1173 2.15267,0.0619 4.05236,-0.85339 2.17945,-1.05004 3.39629,-1.21646 4.23826,-0.57962 0.34085,0.2578 1.1843,0.40228 2.38107,0.40786 2.53675,0.0118 2.90514,0.25036 2.90514,1.881 0,1.89224 -0.4572,2.96392 -1.98524,4.65345 -1.81204,2.00356 -2.42395,2.36714 -4.52261,2.68722 -0.98195,0.14977 -3.1313,0.47476 -4.77635,0.72222 -1.64505,0.24745 -4.06859,0.80514 -5.38566,1.23932 -1.31707,0.43418 -2.51151,0.78941 -2.65432,0.78941 -0.1567,0 -0.17752,-0.45823 -0.0525,-1.15561 z m 0.80075,-0.52682 c -0.0868,-0.21691 -0.15123,-0.15248 -0.16428,0.16428 -0.0118,0.28663 0.0525,0.44723 0.14282,0.35688 0.0904,-0.0904 0.10001,-0.32488 0.0215,-0.52116 z m 5.60689,-1.19061 c 6.86541,-1.08883 7.21538,-1.16902 8.33474,-1.90977 1.45091,-0.96017 3.54668,-3.74131 3.54668,-4.70654 0,-1.11966 -0.47049,-1.38698 -2.44106,-1.38698 -1.15068,0 -1.9964,-0.14564 -2.37151,-0.40838 -0.53836,-0.37708 -0.75546,-0.32499 -2.83318,0.67977 -2.53921,1.22794 -4.24562,1.40339 -6.66404,0.6852 -1.73377,-0.51488 -2.61899,-1.45077 -2.80903,-2.96982 l -0.14737,-1.17798 -1.00983,0.64166 -1.00983,0.64167 0.79918,1.29382 c 0.99369,1.60872 1.62834,4.5527 1.62834,7.55344 v 2.28138 l 1.10221,-0.38888 c 0.60622,-0.21389 2.34983,-0.58675 3.8747,-0.82859 z m 11.20165,-3.65276 c 0.27068,-0.2991 0.43096,-0.54382 0.35619,-0.54382 -0.0748,0 -0.35742,0.24472 -0.6281,0.54382 -0.27068,0.2991 -0.43097,0.54382 -0.3562,0.54382 0.0748,0 0.35742,-0.24472 0.62811,-0.54382 z m -14.54711,-4.4532 c 0,-0.0565 -0.21412,-0.27059 -0.47584,-0.47584 -0.43126,-0.33821 -0.44088,-0.3286 -0.10266,0.10267 0.35522,0.45293 0.5785,0.59696 0.5785,0.37317 z m 225.54806,265.21341 c 0.27069,-0.2991 0.43097,-0.54382 0.3562,-0.54382 -0.0748,0 -0.35742,0.24472 -0.6281,0.54382 -0.27068,0.2991 -0.43097,0.54382 -0.3562,0.54382 0.0748,0 0.35742,-0.24472 0.6281,-0.54382 z m 19.35529,-6.57679 c -0.0868,-0.21691 -0.15123,-0.15248 -0.16427,0.16428 -0.0118,0.28664 0.0525,0.44723 0.14281,0.35688 0.0904,-0.0904 0.10001,-0.32487 0.0215,-0.52116 z m -107.66322,-0.92902 c -0.0904,-0.0904 -0.32487,-0.10001 -0.52116,-0.0215 -0.21691,0.0868 -0.15248,0.15123 0.16428,0.16427 0.28664,0.0118 0.44723,-0.0525 0.35688,-0.14281 z m 69.86795,-1.24624 c -0.0868,-0.21691 -0.15123,-0.15248 -0.16428,0.16427 -0.0118,0.28664 0.0525,0.44724 0.14281,0.35688 0.0904,-0.0904 0.10002,-0.32487 0.0215,-0.52115 z m -79.85492,-1.94619 c 0,-0.0516 -0.27531,-0.32691 -0.61179,-0.6118 l -0.6118,-0.51798 0.51798,0.6118 c 0.48678,0.57493 0.70561,0.73557 0.70561,0.51798 z m -107.49,-14.64023 c -0.0868,-0.21691 -0.15123,-0.15248 -0.16428,0.16428 -0.0118,0.28664 0.0525,0.44723 0.14281,0.35688 0.0904,-0.0904 0.10001,-0.32488 0.0215,-0.52116 z m -15.75817,-0.11329 c -0.0904,-0.0904 -0.32488,-0.10002 -0.52116,-0.0215 -0.21691,0.0868 -0.15248,0.15123 0.16428,0.16428 0.28664,0.0118 0.44723,-0.0525 0.35688,-0.14281 z m 1.89084,-6.68442 c -0.0868,-0.21691 -0.15123,-0.15248 -0.16428,0.16428 -0.0118,0.28663 0.0525,0.44723 0.14281,0.35688 0.0904,-0.0904 0.10001,-0.32488 0.0215,-0.52116 z m 7.34809,-1.10146 c -0.065,-0.33823 -0.12072,-0.12553 -0.12374,0.47267 -0.003,0.5982 0.0502,0.87493 0.11825,0.61496 0.0681,-0.25996 0.0705,-0.7494 0.005,-1.08763 z m -14.15147,-3.80989 c -0.0754,-0.18693 -0.13715,-0.034 -0.13715,0.33989 0,0.37387 0.0617,0.52682 0.13715,0.33988 0.0754,-0.18693 0.0754,-0.49283 0,-0.67977 z m 214.80768,-1.08763 c -0.0754,-0.18694 -0.13715,-0.034 -0.13715,0.33988 0,0.37388 0.0617,0.52683 0.13715,0.33989 0.0754,-0.18694 0.0754,-0.49283 0,-0.67977 z m -201.35765,-3.12695 c 0.33821,-0.43126 0.3286,-0.44088 -0.10266,-0.10266 -0.45294,0.35521 -0.59697,0.5785 -0.37318,0.5785 0.0565,0 0.27059,-0.21413 0.47584,-0.47584 z m 230.19813,-0.50416 c -0.0904,-0.0904 -0.32487,-0.10001 -0.52116,-0.0215 -0.21691,0.0868 -0.15248,0.15123 0.16428,0.16428 0.28664,0.0118 0.44723,-0.0525 0.35688,-0.14281 z m -260.95847,-10.3042 c 0.50732,-0.52342 0.86122,-0.95168 0.78645,-0.95168 -0.0748,0 -0.55104,0.42826 -1.05836,0.95168 -0.50732,0.52342 -0.86123,0.95168 -0.78645,0.95168 0.0748,0 0.55104,-0.42826 1.05836,-0.95168 z m 258.31303,-3.77342 c 0,-0.0565 -0.21413,-0.2706 -0.47584,-0.47584 -0.43126,-0.33822 -0.44088,-0.32861 -0.10266,0.10266 0.35521,0.45293 0.5785,0.59697 0.5785,0.37318 z m -2.17527,-2.43308 c 0,-0.0487 -0.33649,-0.38519 -0.74775,-0.74774 l -0.74775,-0.6592 0.65919,0.74775 c 0.61612,0.69889 0.83631,0.87244 0.83631,0.65919 z m -113.31267,-1.72125 c -0.18409,-0.0745 -0.55117,-0.079 -0.81573,-0.0101 -0.26456,0.0689 -0.11394,0.12988 0.33471,0.13542 0.44865,0.006 0.66511,-0.0509 0.48102,-0.12535 z m 110.04977,-1.54165 c 0,-0.0487 -0.33649,-0.38519 -0.74775,-0.74775 l -0.74775,-0.65919 0.65919,0.74775 c 0.61612,0.69888 0.83631,0.87244 0.83631,0.65919 z m -258.00644,-0.9311 c 0.33822,-0.43126 0.3286,-0.44088 -0.10266,-0.10266 -0.45293,0.35521 -0.59697,0.5785 -0.37318,0.5785 0.0565,0 0.27059,-0.21413 0.47584,-0.47584 z m 111.17587,0.11538 c 0,-0.0487 -0.33648,-0.3852 -0.74774,-0.74775 l -0.74775,-0.65919 0.65919,0.74775 c 0.61611,0.69888 0.8363,0.87244 0.8363,0.65919 z m -11.89082,-0.63362 c -0.18409,-0.0745 -0.55116,-0.079 -0.81572,-0.0101 -0.26456,0.0689 -0.11394,0.12988 0.33471,0.13542 0.44865,0.006 0.6651,-0.0509 0.48101,-0.12535 z m -21.28201,-5.07052 c 0,-0.0454 -0.45884,-0.50428 -1.01965,-1.01966 l -1.01966,-0.93704 0.93704,1.01966 c 0.87218,0.94907 1.10227,1.14468 1.10227,0.93704 z m -73.55123,-1.00502 c 0.27068,-0.2991 0.43096,-0.54382 0.35619,-0.54382 -0.0748,0 -0.35742,0.24472 -0.6281,0.54382 -0.27068,0.2991 -0.43097,0.54382 -0.3562,0.54382 0.0748,0 0.35743,-0.24472 0.62811,-0.54382 z m 352.43748,-10.94431 c -0.0754,-0.18694 -0.13715,-0.034 -0.13715,0.33988 0,0.37388 0.0617,0.52682 0.13715,0.33989 0.0754,-0.18694 0.0754,-0.49284 0,-0.67977 z m -332.1803,0.51798 c 0,-0.0516 -0.27531,-0.32691 -0.6118,-0.6118 l -0.61179,-0.51798 0.51798,0.6118 c 0.48678,0.57493 0.70561,0.73557 0.70561,0.51798 z m 231.23929,-5.8617 c -0.0715,-0.0715 -0.34127,0.0905 -0.59942,0.35998 -0.44846,0.46821 -0.44266,0.47401 0.13006,0.13006 0.32968,-0.19798 0.5409,-0.4185 0.46936,-0.49004 z m 91.78795,-2.3044 c 0,-0.0565 -0.21413,-0.27059 -0.47584,-0.47584 -0.43126,-0.33822 -0.44088,-0.3286 -0.10266,0.10266 0.35521,0.45293 0.5785,0.59697 0.5785,0.37318 z M 249.476,298.28358 c 0.27069,-0.2991 0.43097,-0.54382 0.3562,-0.54382 -0.0748,0 -0.35742,0.24472 -0.6281,0.54382 -0.27069,0.2991 -0.43097,0.54381 -0.3562,0.54381 0.0748,0 0.35742,-0.24471 0.6281,-0.54381 z m 297.19594,-0.27191 c 0.27068,-0.2991 0.43097,-0.54382 0.3562,-0.54382 -0.0748,0 -0.35743,0.24472 -0.62811,0.54382 -0.27068,0.2991 -0.43096,0.54381 -0.35619,0.54381 0.0748,0 0.35742,-0.24471 0.6281,-0.54381 z m 23.55477,-2.10729 c 0.33822,-0.43126 0.3286,-0.44088 -0.10266,-0.10266 -0.45293,0.35521 -0.59697,0.5785 -0.37318,0.5785 0.0565,0 0.27059,-0.21413 0.47584,-0.47584 z m -315.83925,-2.58313 0.79862,-0.88371 -0.8837,0.79862 c -0.48604,0.43925 -0.8837,0.83691 -0.8837,0.88371 0,0.21006 0.22436,0.0251 0.96878,-0.79862 z m 267.13295,-0.5785 c 0,-0.0565 -0.21413,-0.27059 -0.47584,-0.47584 -0.43126,-0.33822 -0.44088,-0.3286 -0.10266,0.10266 0.35521,0.45293 0.5785,0.59697 0.5785,0.37318 z m -264.15906,-2.61643 c 0.27068,-0.2991 0.43097,-0.54381 0.35619,-0.54381 -0.0748,0 -0.35742,0.24471 -0.6281,0.54381 -0.27068,0.2991 -0.43097,0.54382 -0.35619,0.54382 0.0748,0 0.35742,-0.24472 0.6281,-0.54382 z m 210.41952,-0.13595 c 0.0861,-0.22433 0.038,-0.40786 -0.10687,-0.40786 -0.14485,0 -0.26337,0.18353 -0.26337,0.40786 0,0.22432 0.0481,0.40786 0.10686,0.40786 0.0588,0 0.17729,-0.18354 0.26338,-0.40786 z m 125.52337,-7.06962 c 0.35124,-0.37388 0.57743,-0.67977 0.50266,-0.67977 -0.0748,0 -0.42333,0.30589 -0.77457,0.67977 -0.35123,0.37387 -0.57743,0.67977 -0.50265,0.67977 0.0748,0 0.42333,-0.3059 0.77456,-0.67977 z m -126.98125,-8.39587 c 0,-0.0565 -0.21412,-0.27059 -0.47584,-0.47584 -0.43126,-0.33822 -0.44087,-0.3286 -0.10266,0.10266 0.35522,0.45293 0.5785,0.59697 0.5785,0.37318 z m 144.11148,-0.54382 c 0,-0.0565 -0.21412,-0.27059 -0.47584,-0.47584 -0.43126,-0.33822 -0.44087,-0.3286 -0.10266,0.10266 0.35522,0.45293 0.5785,0.59697 0.5785,0.37318 z m -362.45396,-1.07005 c 0,-0.0468 -0.39767,-0.44446 -0.8837,-0.88371 l -0.88371,-0.79862 0.79862,0.88371 c 0.74443,0.82373 0.96879,1.00868 0.96879,0.79862 z m 360.00679,-1.37712 c 0,-0.0565 -0.21413,-0.27059 -0.47584,-0.47584 -0.43126,-0.33822 -0.44088,-0.3286 -0.10266,0.10266 0.35521,0.45293 0.5785,0.59697 0.5785,0.37318 z m -39.63937,-6.74455 c -0.17025,-0.17025 -0.20815,0.009 -0.10698,0.50472 0.11603,0.56909 0.1844,0.63747 0.26364,0.26364 0.0588,-0.27759 -0.0117,-0.62336 -0.15666,-0.76836 z m -100.66539,-0.90218 c 0.50732,-0.52343 0.86122,-0.95168 0.78645,-0.95168 -0.0748,0 -0.55104,0.42825 -1.05836,0.95168 -0.50732,0.52342 -0.86123,0.95168 -0.78645,0.95168 0.0748,0 0.55103,-0.42826 1.05836,-0.95168 z m -260.21639,-8.93969 c 0,-0.0565 -0.21413,-0.27059 -0.47584,-0.47584 -0.43126,-0.33822 -0.44088,-0.3286 -0.10266,0.10266 0.35521,0.45293 0.5785,0.59697 0.5785,0.37318 z m 357.55961,-0.71306 c 0,-0.14955 -0.054,-0.27191 -0.1199,-0.27191 -0.0659,0 -0.19553,0.12236 -0.28796,0.27191 -0.0924,0.14955 -0.0385,0.2719 0.11991,0.2719 0.15837,0 0.28795,-0.12235 0.28795,-0.2719 z m -358.91915,-0.64648 c 0,-0.0565 -0.21413,-0.27059 -0.47584,-0.47584 -0.43127,-0.33822 -0.44088,-0.3286 -0.10266,0.10266 0.35521,0.45293 0.5785,0.59697 0.5785,0.37318 z m 350.96583,-8.25553 c -0.85991,-0.054 -2.26704,-0.054 -3.12695,0 -0.85991,0.054 -0.15634,0.0981 1.56348,0.0981 1.71982,0 2.42338,-0.0442 1.56347,-0.0981 z m 5.70441,-0.50716 c -0.0903,-0.0904 -0.32487,-0.10001 -0.52115,-0.0215 -0.21691,0.0868 -0.15248,0.15124 0.16427,0.16428 0.28664,0.0118 0.44724,-0.0525 0.35688,-0.14281 z m -365.91513,-0.21029 c 0,-0.0565 -0.21413,-0.27059 -0.47584,-0.47584 -0.43126,-0.33822 -0.44088,-0.3286 -0.10266,0.10266 0.35521,0.45293 0.5785,0.59697 0.5785,0.37318 z m 249.34005,0.0141 c 0,-0.0487 -0.33649,-0.38519 -0.74775,-0.74774 l -0.74775,-0.6592 0.65919,0.74775 c 0.61612,0.69889 0.83631,0.87244 0.83631,0.65919 z m -250.9715,-1.64555 c 0,-0.0565 -0.21413,-0.27059 -0.47584,-0.47584 -0.43126,-0.33822 -0.44088,-0.3286 -0.10266,0.10266 0.35521,0.45293 0.5785,0.59697 0.5785,0.37318 z m 246.34906,-2.44718 c 0,-0.0565 -0.21413,-0.27059 -0.47584,-0.47584 -0.43127,-0.33822 -0.44088,-0.3286 -0.10266,0.10266 0.35521,0.45293 0.5785,0.59697 0.5785,0.37318 z m 90.2736,-2.71908 c 0,-0.0565 -0.21413,-0.27059 -0.47584,-0.47584 -0.43126,-0.33822 -0.44088,-0.3286 -0.10266,0.10266 0.35521,0.45293 0.5785,0.59697 0.5785,0.37318 z m -81.16467,-0.71307 c 0.27068,-0.2991 0.43097,-0.54381 0.35619,-0.54381 -0.0748,0 -0.35742,0.24471 -0.6281,0.54381 -0.27068,0.2991 -0.43097,0.54382 -0.35619,0.54382 0.0748,0 0.35742,-0.24472 0.6281,-0.54382 z m 37.85121,-6.04996 c -0.0648,-0.33649 -0.11783,-0.0612 -0.11783,0.61179 0,0.67298 0.053,0.94829 0.11783,0.6118 0.0648,-0.33649 0.0648,-0.8871 0,-1.22359 z m 6.91241,-1.22359 c 0.33822,-0.43126 0.3286,-0.44088 -0.10266,-0.10266 -0.26171,0.20525 -0.47584,0.41938 -0.47584,0.47584 0,0.22379 0.22329,0.0797 0.5785,-0.37318 z m -7.73428,-4.19758 c -0.0868,-0.21691 -0.15123,-0.15248 -0.16428,0.16427 -0.0118,0.28664 0.0525,0.44724 0.14281,0.35688 0.0904,-0.0904 0.10001,-0.32487 0.0215,-0.52115 z m -4.77351,-0.42486 c 0.33822,-0.43126 0.32861,-0.44088 -0.10266,-0.10266 -0.45293,0.35521 -0.59697,0.5785 -0.37318,0.5785 0.0565,0 0.2706,-0.21413 0.47584,-0.47584 z m -84.94376,-0.23226 c -0.0904,-0.0904 -0.32487,-0.10001 -0.52116,-0.0215 -0.21691,0.0868 -0.15248,0.15123 0.16428,0.16428 0.28664,0.0118 0.44723,-0.0525 0.35688,-0.14282 z m -240.83724,-0.21029 c 0,-0.0565 -0.21413,-0.27059 -0.47584,-0.47584 -0.43127,-0.33822 -0.44088,-0.3286 -0.10267,0.10266 0.35522,0.45293 0.57851,0.59697 0.57851,0.37318 z M 405.06995,214.6434 c -0.0904,-0.0904 -0.32487,-0.10001 -0.52116,-0.0215 -0.21691,0.0868 -0.15248,0.15123 0.16428,0.16427 0.28664,0.0118 0.44723,-0.0525 0.35688,-0.14281 z m -36.09018,-1.85899 c 0,-0.28699 -0.52182,-0.40756 -0.67703,-0.15643 -0.0939,0.15199 0.02,0.27634 0.25312,0.27634 0.23315,0 0.42391,-0.054 0.42391,-0.11991 z m 9.27957,-3.61883 c 0.33822,-0.43126 0.3286,-0.44088 -0.10266,-0.10266 -0.26171,0.20525 -0.47584,0.41938 -0.47584,0.47584 0,0.22379 0.22329,0.0797 0.5785,-0.37318 z m -13.55695,-1.60587 c -0.18409,-0.0745 -0.55117,-0.079 -0.81573,-0.0101 -0.26456,0.0689 -0.11394,0.12988 0.33471,0.13542 0.44865,0.006 0.66511,-0.0509 0.48102,-0.12534 z m -218.22333,-6.14035 c -0.065,-0.33823 -0.12072,-0.12553 -0.12374,0.47267 -0.003,0.5982 0.0502,0.87493 0.11825,0.61496 0.0681,-0.25997 0.0705,-0.7494 0.005,-1.08763 z m 182.05433,-1.47482 c -0.18694,-0.0754 -0.49284,-0.0754 -0.67977,0 -0.18694,0.0754 -0.034,0.13715 0.33988,0.13715 0.37388,0 0.52682,-0.0617 0.33989,-0.13715 z m -183.06237,-0.18038 c 0,-0.0487 -0.33649,-0.38519 -0.74775,-0.74775 l -0.74774,-0.65919 0.65919,0.74775 c 0.61611,0.69888 0.8363,0.87244 0.8363,0.65919 z m 178.98374,-0.10334 c -0.33649,-0.0648 -0.8871,-0.0648 -1.22359,0 -0.33648,0.0648 -0.0612,0.11784 0.6118,0.11784 0.67297,0 0.94828,-0.053 0.61179,-0.11784 z m -35.00102,-27.76216 c -0.0837,-0.0837 -0.30312,-1.8e-4 -0.48756,0.18565 -0.26655,0.26854 -0.23532,0.29978 0.15221,0.15222 0.26816,-0.10212 0.41907,-0.25416 0.33535,-0.33787 z m -18.76888,-15.00748 c 0.27068,-0.2991 0.43097,-0.54382 0.3562,-0.54382 -0.0748,0 -0.35742,0.24472 -0.6281,0.54382 -0.27069,0.2991 -0.43097,0.54382 -0.3562,0.54382 0.0748,0 0.35742,-0.24472 0.6281,-0.54382 z m 10.66675,0.10763 c -0.0904,-0.0904 -0.32488,-0.10001 -0.52116,-0.0215 -0.21691,0.0868 -0.15248,0.15123 0.16428,0.16428 0.28663,0.0118 0.44723,-0.0525 0.35688,-0.14281 z M 156.07545,140.44072 c 0.35124,-0.37388 0.57743,-0.67977 0.50266,-0.67977 -0.0748,0 -0.42333,0.30589 -0.77457,0.67977 -0.35123,0.37387 -0.57743,0.67977 -0.50265,0.67977 0.0748,0 0.42332,-0.3059 0.77456,-0.67977 z m 119.40249,-11.76004 c 0.33822,-0.43127 0.32861,-0.44088 -0.10266,-0.10266 -0.26171,0.20524 -0.47584,0.41937 -0.47584,0.47584 0,0.22379 0.22329,0.0798 0.5785,-0.37318 z m -10.72527,-1.75041 c -0.0868,-0.21691 -0.15123,-0.15248 -0.16428,0.16427 -0.0118,0.28664 0.0525,0.44724 0.14281,0.35688 0.0904,-0.0904 0.10001,-0.32487 0.0215,-0.52115 z m 21.29502,-0.0517 c 0,-0.0565 -0.21413,-0.27059 -0.47584,-0.47584 -0.43126,-0.33822 -0.44088,-0.3286 -0.10266,0.10266 0.35521,0.45293 0.5785,0.59697 0.5785,0.37318 z m -10.06061,-0.27191 c 0,-0.0565 -0.21413,-0.27059 -0.47584,-0.47584 -0.43126,-0.33822 -0.44088,-0.3286 -0.10266,0.10266 0.35521,0.45293 0.5785,0.59697 0.5785,0.37318 z m 9.82339,-3.63608 c 0.33822,-0.43126 0.3286,-0.44088 -0.10266,-0.10266 -0.26172,0.20525 -0.47584,0.41938 -0.47584,0.47584 0,0.22379 0.22328,0.0798 0.5785,-0.37318 z m -19.06828,-3.14405 c 0,-0.0468 -0.39766,-0.44447 -0.8837,-0.88371 l -0.8837,-0.79862 0.79862,0.88371 c 0.74442,0.82373 0.96878,1.00868 0.96878,0.79862 z m -81.02872,-0.28949 c 0,-0.0565 -0.21413,-0.27059 -0.47584,-0.47584 -0.43126,-0.33822 -0.44088,-0.3286 -0.10266,0.10266 0.35522,0.45293 0.5785,0.59697 0.5785,0.37318 z m 86.38073,-0.76405 c -0.0868,-0.21691 -0.15123,-0.15248 -0.16428,0.16428 -0.0118,0.28664 0.0525,0.44723 0.14281,0.35688 0.0904,-0.0904 0.10001,-0.32487 0.0215,-0.52116 z m -10.04809,-1.47284 c -0.0904,-0.0904 -0.32488,-0.10001 -0.52116,-0.0215 -0.21691,0.0868 -0.15248,0.15123 0.16428,0.16428 0.28663,0.0118 0.44723,-0.0525 0.35688,-0.14282 z m -45.5723,-2.75873 c 0.33822,-0.43126 0.3286,-0.44088 -0.10266,-0.10266 -0.26171,0.20525 -0.47584,0.41937 -0.47584,0.47584 0,0.22379 0.22329,0.0798 0.5785,-0.37318 z m 73.8444,-1.4955 c -0.0648,-0.33649 -0.11783,-0.0612 -0.11783,0.61179 0,0.67298 0.053,0.94829 0.11783,0.6118 0.0648,-0.33649 0.0648,-0.8871 0,-1.22359 z m -103.2452,-1.42752 c 0.35124,-0.37387 0.57744,-0.67977 0.50266,-0.67977 -0.0748,0 -0.42333,0.3059 -0.77456,0.67977 -0.35124,0.37388 -0.57744,0.67977 -0.50266,0.67977 0.0748,0 0.42333,-0.30589 0.77456,-0.67977 z m 8.70108,0.59122 c 0,-0.0487 -0.33649,-0.3852 -0.74775,-0.74775 l -0.74775,-0.65919 0.65919,0.74774 c 0.61611,0.69889 0.83631,0.87245 0.83631,0.6592 z m 54.38169,-1.95076 c 0.35123,-0.37388 0.57743,-0.67977 0.50265,-0.67977 -0.0748,0 -0.42333,0.30589 -0.77456,0.67977 -0.35124,0.37387 -0.57744,0.67977 -0.50266,0.67977 0.0748,0 0.42333,-0.3059 0.77457,-0.67977 z m -13.68159,-1.81839 c -0.0868,-0.21691 -0.15123,-0.15248 -0.16428,0.16428 -0.0118,0.28664 0.0525,0.44723 0.14281,0.35688 0.0904,-0.0904 0.10002,-0.32488 0.0215,-0.52116 z"
       id="path2" /></g></svg>
