<?xml version="1.0" encoding="UTF-8" standalone="no"?>
<!-- Created with Inkscape (http://www.inkscape.org/) -->

<svg
   version="1.1"
   id="svg1"
   width="163.90315"
   height="59.492691"
   viewBox="0 0 163.90315 59.492689"
   sodipodi:docname="Shanhui2-2.PNG"
   xml:space="preserve"
   inkscape:export-filename="../Shanhui2-2.PNG.svg"
   inkscape:export-xdpi="96"
   inkscape:export-ydpi="96"
   xmlns:inkscape="http://www.inkscape.org/namespaces/inkscape"
   xmlns:sodipodi="http://sodipodi.sourceforge.net/DTD/sodipodi-0.dtd"
   xmlns="http://www.w3.org/2000/svg"
   xmlns:svg="http://www.w3.org/2000/svg"><defs
     id="defs1" /><sodipodi:namedview
     id="namedview1"
     pagecolor="#ffffff"
     bordercolor="#000000"
     borderopacity="0.25"
     inkscape:showpageshadow="2"
     inkscape:pageopacity="0.0"
     inkscape:pagecheckerboard="0"
     inkscape:deskcolor="#d1d1d1" /><g
     inkscape:groupmode="layer"
     inkscape:label="Image"
     id="g1"
     transform="translate(-145.52458,-237.28437)"><path
       style="display:inline;fill:#000000"
       d="m 237.37608,296.53093 c -1.12588,-0.23428 -3.52258,-1.23315 -6.60293,-2.75191 -4.60587,-2.27092 -4.93517,-2.38922 -6.93367,-2.4909 -1.6918,-0.0861 -2.57208,0.033 -4.54531,0.61467 -1.34595,0.39678 -3.05897,0.90191 -3.80672,1.12251 -1.03333,0.30486 -2.37081,0.37261 -5.57413,0.28239 -4.16729,-0.11738 -4.25423,-0.13258 -7.74939,-1.35475 -1.94414,-0.67983 -4.75839,-1.66068 -6.25389,-2.17968 -4.65577,-1.61576 -9.55654,-2.07433 -14.99067,-1.4027 -1.252,0.15474 -1.44043,0.10793 -1.83538,-0.45594 -0.55181,-0.78782 -0.55944,-1.66323 -0.0235,-2.69956 0.48287,-0.93376 0.80525,-0.73446 -3.81546,-2.35876 -2.64645,-0.9303 -2.86799,-0.96139 -8.29321,-1.16415 -3.06577,-0.11457 -6.18592,-0.34417 -6.93367,-0.51021 -2.38553,-0.52972 -4.63048,-1.8211 -6.04645,-3.47815 -2.79664,-3.2728 -3.42327,-3.89197 -3.93886,-3.89197 -1.64262,0 -3.23325,-2.0749 -3.90487,-5.09372 -0.59386,-2.66929 -0.40666,-7.61904 0.38092,-10.0719 l 0.54782,-1.70614 -0.66688,-1.19318 c -0.82489,-1.47589 -1.09948,-3.53989 -0.65153,-4.89722 0.46165,-1.39881 1.50745,-2.51017 4.49052,-4.77203 1.4075,-1.06721 3.45175,-2.93067 4.54276,-4.14101 2.94298,-3.26485 4.44505,-3.78823 7.11456,-2.47897 l 1.47218,0.72202 1.18495,-0.96007 c 3.18127,-2.57751 5.49013,-2.57973 9.88603,-0.01 6.71294,3.92493 9.56157,4.93138 14.79485,5.22716 4.08183,0.23071 6.32432,0.8298 8.3936,2.24242 1.34864,0.92066 3.00747,2.51094 3.59453,3.44598 1.17943,1.87851 4.62354,5.56623 5.75763,6.16487 0.40003,0.21116 2.21394,0.5294 4.03091,0.7072 2.98843,0.29243 3.54158,0.27332 5.79848,-0.20035 1.8954,-0.39781 3.57295,-0.52171 6.98139,-0.51565 4.25897,0.008 4.69143,0.0593 8.52801,1.01966 2.22284,0.55642 4.3857,1.01167 4.80635,1.01167 0.79619,0 7.86052,2.83875 11.06206,4.44521 2.22071,1.1143 5.37083,2.2706 6.47591,2.37707 1.55244,0.14958 4.21461,-1.12253 7.66547,-3.6629 1.40403,-1.03359 1.72586,-1.42581 1.97037,-2.4013 2.09598,-8.36218 8.57818,-14.80009 16.91403,-16.79848 2.90584,-0.69663 8.12387,-0.74634 10.77094,-0.10262 2.37832,0.57836 5.93023,2.22903 8.04749,3.73988 5.81428,4.14898 9.40642,11.22185 9.40642,18.52108 0,16.99439 -17.70658,27.96291 -33.1072,20.50858 -2.17914,-1.05476 -2.33774,-1.09054 -3.61762,-0.81605 -0.73621,0.15789 -2.09435,0.54168 -3.01808,0.85286 -0.92374,0.31118 -3.02881,0.87037 -4.67794,1.24264 -2.65716,0.59982 -3.35571,0.65553 -6.13769,0.48948 -1.84093,-0.10987 -3.81402,-0.40282 -4.77073,-0.70832 -2.12872,-0.67974 -5.4616,-0.93724 -6.72674,-0.5197 -0.90026,0.29711 -0.977,0.40987 -1.06937,1.57128 -0.12892,1.62085 0.16909,2.1679 1.87355,3.43932 3.01595,2.24972 1.64996,4.69323 -2.90278,5.19253 -0.96564,0.1059 -2.16576,0.36388 -2.66692,0.57328 -1.39188,0.58156 -3.2775,0.68037 -5.23011,0.27406 z m 4.92912,-1.34778 c 0.5043,-0.20973 1.65106,-0.4666 2.54836,-0.57082 1.68842,-0.1961 3.67076,-1.19774 3.67076,-1.85477 0,-0.52607 -0.55987,-1.11681 -1.70602,-1.80006 -1.32349,-0.78897 -1.82878,-1.80081 -1.82878,-3.66212 0,-1.70081 0.4868,-2.36676 2.12541,-2.90755 1.3388,-0.44185 5.53599,-0.12929 7.39138,0.55043 2.45276,0.89855 5.92823,0.77352 11.10423,-0.39948 2.34223,-0.5308 5.03623,-1.20377 5.98667,-1.49549 2.11944,-0.65053 4.11796,-0.71222 4.11796,-0.12712 0,0.93176 5.50958,2.90059 9.11526,3.25731 8.39854,0.8309 17.4416,-4.38204 21.20835,-12.22571 1.59905,-3.32978 2.15335,-5.8078 2.12876,-9.5168 -0.0381,-5.75572 -1.90006,-10.4877 -5.72756,-14.55634 -3.78065,-4.01886 -7.53404,-5.97912 -13.25505,-6.92264 -7.33508,-1.2097 -15.65196,2.37825 -20.12056,8.68013 -1.98087,2.79354 -2.73684,4.5196 -3.93832,8.99213 -0.25134,0.93563 -0.56735,1.26527 -2.26103,2.35857 -1.08287,0.69902 -2.60011,1.71803 -3.37164,2.26448 -1.27372,0.90213 -1.57393,0.99526 -3.2629,1.01218 -3.66253,0.0367 -4.35955,-0.1877 -13.68814,-4.40666 -4.3081,-1.94839 -6.00643,-2.58121 -7.47748,-2.78623 -1.04685,-0.1459 -3.4218,-0.55867 -5.27767,-0.91728 -3.97342,-0.76777 -7.82078,-0.84665 -11.82887,-0.24254 -4.71659,0.7109 -10.80755,0.34324 -12.06138,-0.72805 -1.84404,-1.57558 -5.07538,-5.06555 -5.39218,-5.82377 -0.46453,-1.11177 -3.48527,-3.6672 -5.50173,-4.65425 -1.28269,-0.62787 -1.9427,-0.73701 -5.69504,-0.94179 -3.81403,-0.20813 -4.53511,-0.33034 -7.11429,-1.20572 -2.84938,-0.96708 -4.19923,-1.61808 -8.23151,-3.96985 -1.1542,-0.67317 -2.76797,-1.43451 -3.58617,-1.69186 -1.43131,-0.45021 -1.532,-0.44815 -2.65986,0.0544 -0.64473,0.28728 -1.77739,0.90811 -2.51703,1.37962 -1.62391,1.03522 -2.21294,1.06152 -3.95898,0.17673 -1.29738,-0.65743 -1.37984,-0.66583 -2.42627,-0.24713 -0.64326,0.25738 -1.58248,1.01778 -2.31232,1.87206 -0.67598,0.79125 -2.71575,2.64607 -4.53282,4.12183 -1.81707,1.47575 -3.51976,2.86673 -3.78375,3.09105 -1.72395,1.4649 -1.74117,4.01627 -0.0445,6.59966 l 0.67351,1.02552 -0.69031,1.2857 c -0.37967,0.70713 -0.82593,1.9341 -0.9917,2.72659 -0.43813,2.09468 -0.37186,5.8857 0.13444,7.69015 0.50537,1.80113 1.78603,3.51269 2.62832,3.51269 0.77951,0 2.46133,1.2004 3.37681,2.41021 2.33082,3.08014 5.25463,5.20242 7.16806,5.20302 0.38135,1.1e-4 0.82441,0.13126 0.98458,0.29142 0.18364,0.18364 1.83586,0.28368 4.47289,0.27083 4.23769,-0.0206 4.97149,0.0766 9.34795,1.23858 4.80609,1.27609 5.85959,2.12488 4.97231,4.00613 -0.69933,1.48272 -0.57377,1.52729 3.81554,1.35435 4.75412,-0.18731 9.02524,0.34565 12.4154,1.5492 7.79575,2.7676 9.39644,3.24984 11.78514,3.55051 3.24166,0.40803 5.25144,0.21418 8.77986,-0.84686 3.28558,-0.988 7.31454,-1.35055 9.3402,-0.84049 0.6933,0.17458 3.18171,1.25285 5.5298,2.39616 5.50756,2.6817 8.2571,3.32008 10.42195,2.41973 z m -78.68429,-14.21724 c -0.26171,-0.0684 -0.68997,-0.0684 -0.95168,0 -0.26171,0.0684 -0.0476,0.12435 0.47584,0.12435 0.52342,0 0.73755,-0.056 0.47584,-0.12435 z m 72.8658,-22.27334 c -0.0904,-0.0904 -0.32487,-0.10001 -0.52116,-0.0215 -0.21691,0.0868 -0.15248,0.15123 0.16428,0.16427 0.28664,0.0118 0.44723,-0.0525 0.35688,-0.14281 z m -25.28748,-1.08763 c -0.0904,-0.0904 -0.32488,-0.10001 -0.52116,-0.0215 -0.21691,0.0868 -0.15248,0.15123 0.16428,0.16428 0.28663,0.0118 0.44723,-0.0525 0.35688,-0.14281 z m 12.78853,-0.83827 c -0.25997,-0.0681 -0.74941,-0.0705 -1.08764,-0.005 -0.33823,0.065 -0.12553,0.12072 0.47267,0.12374 0.5982,0.003 0.87494,-0.0502 0.61497,-0.11825 z m 2.43834,0.0225 c -0.0904,-0.0904 -0.32488,-0.10001 -0.52116,-0.0215 -0.21691,0.0868 -0.15248,0.15123 0.16428,0.16427 0.28664,0.0118 0.44723,-0.0525 0.35688,-0.14281 z m -22.76667,-2.64862 c 0,-0.0516 -0.27531,-0.3269 -0.61179,-0.61179 l -0.6118,-0.51798 0.51798,0.61179 c 0.48678,0.57494 0.70561,0.73558 0.70561,0.51798 z m 100.06231,-4.08747 c 0,-0.0565 -0.21413,-0.27059 -0.47584,-0.47584 -0.43126,-0.33822 -0.44088,-0.3286 -0.10266,0.10266 0.35521,0.45293 0.5785,0.59697 0.5785,0.37318 z M 189.9992,245.0746 c -0.25997,-0.068 -0.7494,-0.0705 -1.08763,-0.005 -0.33823,0.065 -0.12553,0.12072 0.47267,0.12374 0.5982,0.003 0.87493,-0.0502 0.61496,-0.11826 z m 97.07132,-2.99099 c -0.25997,-0.0681 -0.74941,-0.0705 -1.08764,-0.005 -0.33823,0.065 -0.12552,0.12073 0.47267,0.12374 0.5982,0.003 0.87494,-0.0502 0.61497,-0.11825 z m -130.3153,-1.17272 c 0.27068,-0.2991 0.43097,-0.54381 0.3562,-0.54381 -0.0748,0 -0.35742,0.24471 -0.62811,0.54381 -0.27068,0.2991 -0.43096,0.54382 -0.35619,0.54382 0.0748,0 0.35742,-0.24472 0.6281,-0.54382 z"
       id="path1" /></g></svg>
