<?xml version="1.0" encoding="UTF-8" standalone="no"?>
<!-- Created with Inkscape (http://www.inkscape.org/) -->

<svg
   width="37.077419mm"
   height="43.040562mm"
   viewBox="0 0 37.077419 43.040562"
   version="1.1"
   id="svg1"
   xml:space="preserve"
   inkscape:export-filename="cao.svg"
   inkscape:export-xdpi="96"
   inkscape:export-ydpi="96"
   xmlns:inkscape="http://www.inkscape.org/namespaces/inkscape"
   xmlns:sodipodi="http://sodipodi.sourceforge.net/DTD/sodipodi-0.dtd"
   xmlns="http://www.w3.org/2000/svg"
   xmlns:svg="http://www.w3.org/2000/svg"><sodipodi:namedview
     id="namedview1"
     pagecolor="#ffffff"
     bordercolor="#000000"
     borderopacity="0.25"
     inkscape:showpageshadow="2"
     inkscape:pageopacity="0.0"
     inkscape:pagecheckerboard="0"
     inkscape:deskcolor="#d1d1d1"
     inkscape:document-units="mm" /><defs
     id="defs1" /><g
     inkscape:label="图层 1"
     inkscape:groupmode="layer"
     id="layer1"
     transform="translate(-78.371469,-41.361529)"><path
       style="display:inline;fill:#000000"
       d="m 95.705337,84.300323 c -0.215967,-0.135029 -0.415971,-0.582062 -0.360068,-0.804796 0.01971,-0.07852 0.384152,-0.508896 0.809876,-0.956386 0.425724,-0.44749 0.863165,-0.944217 0.972092,-1.103837 0.108926,-0.159621 0.404249,-0.560004 0.656273,-0.88974 0.752146,-0.984073 0.929929,-1.267216 1.637481,-2.607914 0.491817,-0.931913 0.798219,-1.565968 0.999499,-2.068345 0.0925,-0.230816 0.23665,-0.541199 0.32038,-0.689742 0.63498,-1.126521 1.66463,-4.152961 1.47681,-4.340782 -0.0975,-0.09746 -0.56111,-0.05844 -0.80881,0.06807 -0.37159,0.189788 -1.15757,0.420207 -1.651152,0.484055 -0.70184,0.09079 -1.496971,-0.05188 -1.653392,-0.29666 -0.08867,-0.138766 -0.200801,-0.494218 -0.201746,-0.639555 -0.0012,-0.182659 -0.104889,-0.370759 -0.204403,-0.370759 -0.127039,0 -0.628703,-0.472467 -1.006612,-0.948026 -0.487481,-0.613442 -0.482943,-0.74864 0.03759,-1.120085 0.557343,-0.397712 1.026394,-0.569952 1.859311,-0.682757 l 0.716763,-0.09708 0.04802,-0.231114 c 0.07638,-0.367611 0.227519,-0.578017 0.415206,-0.578017 0.216694,0 1.023325,0.41897 1.447315,0.751743 0.18769,0.147313 0.54878,0.538007 0.80241,0.868208 0.3443,0.448233 0.50783,0.612683 0.64535,0.648971 l 0.18419,0.0486 0.13472,-0.424351 c 0.2617,-0.824359 0.43925,-1.941463 0.5895,-3.708976 0.0459,-0.539982 -0.002,-0.632653 -0.39527,-0.762397 -0.22267,-0.07349 -0.25853,-0.06813 -0.52891,0.07903 -0.15952,0.08682 -0.44958,0.19584 -0.64456,0.242259 -0.19499,0.04642 -0.61081,0.160022 -0.92406,0.25245 -0.38215,0.112757 -0.70988,0.168799 -0.99604,0.170322 -0.661304,0.0035 -0.896534,-0.20583 -1.195038,-1.063564 -0.06801,-0.195429 -0.214092,-0.402679 -0.448625,-0.636485 -0.41306,-0.411779 -0.625692,-0.804859 -0.724006,-1.338427 -0.06954,-0.377389 -0.0669,-0.398193 0.07202,-0.56932 0.395434,-0.487078 0.831068,-0.629916 1.944224,-0.637483 0.776485,-0.0053 0.853915,-0.01603 1.012285,-0.140607 0.24831,-0.195319 0.56868,-0.177239 1.00793,0.05688 0.39136,0.208594 1.12516,0.860543 1.50486,1.337003 0.18323,0.229934 0.23038,0.264848 0.20238,0.149881 -0.0201,-0.08243 -0.0644,-0.635492 -0.0984,-1.229017 -0.0609,-1.060094 -0.14537,-1.802494 -0.24567,-2.158274 -0.0279,-0.09892 -0.0799,-0.293212 -0.11557,-0.431759 l -0.0649,-0.251904 -0.51853,0.02166 c -0.5002,0.02089 -0.5216,0.02768 -0.60528,0.191952 -0.30805,0.604716 -1.44946,1.325507 -2.188717,1.382149 -0.370141,0.02836 -0.372316,0.02759 -0.608456,-0.216995 -0.192266,-0.199138 -0.278256,-0.245457 -0.455682,-0.245457 -0.308146,0 -0.567368,-0.103097 -0.647862,-0.257665 -0.03781,-0.07261 -0.117393,-0.2773 -0.176839,-0.45486 C 97.6267,57.782243 97.620005,57.776001 97.268806,57.66748 97.072821,57.60692 96.777577,57.462007 96.612709,57.345452 96.447841,57.228897 96.145077,57.023842 95.9399,56.889774 95.538824,56.6277 95.083932,56.113321 95.083932,55.921869 c 0,-0.158369 0.666208,-0.815368 1.132209,-1.116559 l 0.37683,-0.243557 -0.733321,0.03687 c -0.895591,0.04503 -0.895622,0.04501 -0.895622,-0.67195 0,-0.46561 -0.0074,-0.492366 -0.170665,-0.613037 -0.107638,-0.07958 -0.198586,-0.225906 -0.246273,-0.396224 -0.06736,-0.240593 -0.06146,-0.31256 0.0541,-0.659832 0.07134,-0.214382 0.261335,-0.577209 0.422208,-0.806283 0.269421,-0.383642 0.361663,-0.477105 0.774161,-0.78441 l 0.144086,-0.107343 -0.141914,-0.284155 c -0.07805,-0.156285 -0.160541,-0.295667 -0.183308,-0.309737 -0.122864,-0.07594 -1.201579,0.21976 -1.642801,0.45032 -0.648697,0.338976 -0.876455,0.578755 -1.226822,1.291569 -0.408564,0.831214 -0.526605,1.226281 -0.644268,2.156279 -0.103941,0.821531 -0.07129,1.462454 0.09701,1.904266 0.05782,0.1518 0.07443,0.158213 0.250618,0.09679 0.110453,-0.0385 0.383522,-0.05242 0.658578,-0.03357 0.579333,0.03971 1.055771,0.24681 1.298054,0.564247 0.155138,0.203261 0.16702,0.257611 0.160447,0.733923 -0.02069,1.499294 -0.05593,1.886665 -0.198327,2.179834 -0.158406,0.326138 -0.474132,0.613769 -0.729863,0.664915 -0.0956,0.01912 -0.173824,0.07172 -0.173824,0.116897 0,0.203886 -0.717432,1.166921 -0.973057,1.30617 -0.154377,0.08409 -0.546567,-0.188071 -0.735449,-0.510376 -0.147123,-0.251045 -0.168703,-0.264836 -0.36465,-0.233038 -0.185626,0.03012 -0.230703,0.0085 -0.414559,-0.19913 -0.234742,-0.265059 -0.405914,-0.669343 -0.512258,-1.209875 -0.04025,-0.204586 -0.103394,-0.371224 -0.140321,-0.370306 -0.03693,9.17e-4 -0.173115,0.08185 -0.30264,0.179856 -0.298577,0.225915 -0.582351,0.234976 -0.886491,0.02831 -0.121313,-0.08243 -0.231489,-0.14988 -0.244836,-0.14988 -0.01335,0 -0.210372,0.122448 -0.437833,0.272106 -0.635691,0.418254 -1.088878,0.511491 -2.153623,0.443077 -0.301555,-0.01938 -0.392425,-9.44e-4 -0.550595,0.111684 -0.506774,0.360854 -1.445854,0.445817 -2.22958,0.20172 -0.243922,-0.07597 -0.500217,-0.174734 -0.569544,-0.219473 -0.06933,-0.04474 -0.355367,-0.139056 -0.635643,-0.209594 -0.612853,-0.154238 -0.756478,-0.238882 -0.808687,-0.476587 -0.04811,-0.219033 0.101301,-0.773364 0.301629,-1.119094 l 0.142982,-0.246761 -0.642303,-0.04163 c -0.454925,-0.02949 -0.71711,-0.07735 -0.898734,-0.164055 -0.257448,-0.122909 -0.433017,-0.358953 -0.433017,-0.582172 0,-0.06505 -0.07955,-0.197823 -0.176785,-0.295055 -0.237481,-0.237481 -0.287475,-0.459731 -0.157645,-0.70081 0.128075,-0.237821 0.547899,-0.450422 0.890591,-0.450999 0.139255,-2.34e-4 0.436499,-0.01774 0.66054,-0.0389 L 81.600065,55.37784 81.4429,55.213795 c -0.112235,-0.117148 -0.262965,-0.184792 -0.527252,-0.236617 -0.535058,-0.104921 -0.721622,-0.198101 -1.085303,-0.542055 -0.40785,-0.385728 -1.109143,-1.304594 -1.324432,-1.735331 -0.142532,-0.28517 -0.156994,-0.362367 -0.111251,-0.593856 0.03551,-0.179719 0.104381,-0.304493 0.212188,-0.384438 0.147707,-0.109532 0.189057,-0.112804 0.554434,-0.04386 0.217152,0.04097 0.819788,0.0782 1.33919,0.08272 1.083317,0.0094 1.292828,0.07383 1.779752,0.547069 0.273704,0.26601 0.363107,0.478898 0.453493,1.079859 0.04458,0.296427 0.04517,0.297093 0.05257,0.05995 0.0041,-0.131894 0.04795,-0.451264 0.09741,-0.70971 0.04945,-0.258446 0.08992,-0.481621 0.08992,-0.495944 0,-0.08815 0.515452,-0.562931 0.611156,-0.562931 0.214206,0 0.515599,0.291638 0.61705,0.597078 0.128883,0.388032 0.266033,0.500122 0.627495,0.51284 0.339851,0.01196 0.558961,0.135022 0.724875,0.407128 0.180525,0.29607 0.164133,1.108858 -0.03379,1.675352 -0.08308,0.237793 -0.219591,0.535917 -0.303357,0.662496 -0.08377,0.126579 -0.143639,0.275128 -0.13305,0.330109 0.02575,0.133717 0.420522,0.345009 0.857031,0.458705 0.451451,0.117588 1.220488,0.125096 1.263758,0.01234 0.05771,-0.150385 0.841314,-0.747293 1.258203,-0.958431 0.419908,-0.212665 0.887995,-0.328931 1.431993,-0.355686 l 0.296664,-0.01459 0.283141,-0.472485 c 0.261685,-0.43668 0.286065,-0.511641 0.321732,-0.989208 0.06401,-0.857017 0.495014,-2.421349 0.839337,-3.046349 l 0.138527,-0.251448 -0.518488,0.03284 c -0.4562,0.0289 -1.312032,0.164475 -1.363568,0.216011 -0.01025,0.01025 0.04756,0.200971 0.128453,0.423834 0.104579,0.288112 0.147082,0.528917 0.147082,0.833307 0,0.426954 -0.167418,1.167494 -0.339863,1.503316 -0.181967,0.354364 -0.926508,0.663232 -1.281869,0.531775 -0.116783,-0.0432 -0.202927,-0.01465 -0.449162,0.148835 -0.36317,0.241132 -1.016742,0.440073 -1.445749,0.440073 H 86.341631 L 86.20139,54.091727 c -0.324642,-0.659219 -0.14733,-2.442076 0.278744,-2.802758 0.03895,-0.03297 0.174426,-0.189904 0.301054,-0.348733 0.217941,-0.273364 1.348006,-1.180044 1.470779,-1.180044 0.13308,0 0.04088,-0.109138 -0.174104,-0.206081 -0.368872,-0.166338 -0.808853,-0.08336 -1.608495,0.303338 -0.756326,0.365754 -1.313868,0.479532 -1.886258,0.384929 -0.481293,-0.07955 -0.513723,-0.102366 -0.557163,-0.392041 -0.03773,-0.251582 -0.05471,-0.269371 -0.447827,-0.469085 -0.554986,-0.281947 -1.210064,-0.768476 -1.344753,-0.998754 -0.06092,-0.104148 -0.101385,-0.195101 -0.08993,-0.202117 0.557157,-0.341217 1.561091,-0.537015 2.58121,-0.503416 0.419,0.0138 0.747893,0.0026 0.730874,-0.02498 -0.01702,-0.02754 -0.09005,-0.0507 -0.162298,-0.05148 -0.217946,-0.0023 -1.010477,-0.231043 -1.175776,-0.339296 -0.355492,-0.232808 -0.774943,-0.728789 -0.982034,-1.161207 -0.330087,-0.689244 -0.471812,-1.293682 -0.505328,-2.15516 -0.03262,-0.838382 0.03434,-1.217637 0.233807,-1.324391 0.257289,-0.137697 0.825315,-0.03933 1.378972,0.23881 l 0.516233,0.259336 0.126446,-0.126446 c 0.151194,-0.151194 0.364967,-0.161131 0.64167,-0.02983 0.305806,0.145115 0.986328,0.847499 1.21928,1.258449 l 0.205727,0.362924 0.171961,-0.195853 c 0.35503,-0.404358 1.09268,-0.757148 0.982438,-0.469864 -0.02183,0.05688 -0.01095,0.07774 0.028,0.05367 0.03504,-0.02165 0.131857,0.02416 0.215155,0.101802 0.166278,0.154994 0.527036,0.822715 0.47345,0.876301 -0.01845,0.01845 0.02699,0.06293 0.10099,0.09885 0.209666,0.10177 0.42053,0.586201 0.417185,0.958425 -0.0034,0.374662 -0.393432,1.560272 -0.643827,1.956924 -0.117853,0.186691 -0.147775,0.285045 -0.106584,0.350347 0.105776,0.167688 1.050207,0.597709 1.486204,0.676701 0.672754,0.121887 2.073681,0.09654 2.578681,-0.04665 l 0.419665,-0.118998 -0.02008,-0.334969 c -0.01763,-0.294084 -0.0032,-0.346796 0.118256,-0.43186 0.299421,-0.209723 1.108182,-0.03123 1.52778,0.337185 l 0.207259,0.181976 0.885502,-0.04215 c 0.487026,-0.02318 1.032189,-0.07472 1.211474,-0.114536 l 0.325972,-0.07239 -0.552125,-0.459533 C 96.079422,47.306333 95.695234,47.04823 94.879978,46.612894 l -0.653594,-0.349011 -0.706093,0.137477 c -0.613833,0.119513 -0.830021,0.133522 -1.654559,0.107216 -1.230996,-0.03927 -1.622597,-0.156629 -2.098704,-0.628947 -0.355508,-0.352678 -0.438492,-0.512662 -0.438492,-0.845363 0,-0.151536 -0.06327,-0.31635 -0.19987,-0.520678 -0.202317,-0.302621 -0.33971,-0.627213 -0.339684,-0.80251 1.9e-5,-0.128649 0.707329,-0.459352 1.169051,-0.54659 0.197841,-0.03738 0.642985,-0.0592 0.989208,-0.04848 l 0.629497,0.01948 -0.02025,-0.413307 -0.02025,-0.413306 0.398165,0.03196 c 0.474834,0.03811 0.996264,0.276467 1.436024,0.656423 0.370331,0.31997 0.927889,1.067303 1.164061,1.560271 0.129503,0.270316 0.245114,0.417144 0.409873,0.520546 0.12622,0.07921 0.310426,0.199029 0.409347,0.266255 0.09892,0.06723 0.149092,0.08335 0.11149,0.03583 -0.09283,-0.117315 -0.26137,-0.962666 -0.26137,-1.310948 0,-0.336567 0.145908,-0.861237 0.275561,-0.99089 0.05099,-0.05099 0.178469,-0.09303 0.283278,-0.0934 0.165099,-5.96e-4 0.206519,-0.03464 0.309982,-0.254796 0.136731,-0.290941 0.586182,-0.794747 1.010064,-1.132217 0.37262,-0.296658 0.632054,-0.31363 0.817306,-0.05347 0.137107,0.192549 0.31936,0.681581 0.383901,1.030104 0.03531,0.190657 0.06696,0.223407 0.24895,0.257547 0.167142,0.03136 0.234516,0.08911 0.339665,0.29116 0.345077,0.663089 0.0085,2.156379 -0.750518,3.329679 -0.154164,0.238314 -0.280299,0.457038 -0.280299,0.486052 0,0.02901 0.08514,0.124397 0.189208,0.211961 l 0.189208,0.159208 0.07747,-0.225352 c 0.04261,-0.123943 0.128023,-0.294358 0.189807,-0.378698 0.15942,-0.217622 0.652223,-0.537872 0.950402,-0.617623 0.1713,-0.04581 0.274914,-0.114988 0.319797,-0.213495 0.113892,-0.249966 0.57914,-0.817829 0.85133,-1.039108 0.32972,-0.268044 0.78061,-0.531323 0.90993,-0.531323 0.14336,0 0.56037,0.395748 0.74001,0.702282 0.0847,0.144468 0.19783,0.40302 0.25148,0.574559 l 0.0975,0.311888 0.54902,6.81e-4 c 0.45398,5.63e-4 0.57073,0.02033 0.67446,0.114208 0.15806,0.143047 0.15905,0.294155 0.003,0.504832 -0.0672,0.09087 -0.21124,0.42105 -0.32012,0.733724 -0.37694,1.082494 -0.97477,1.790856 -1.95581,2.317447 -0.55607,0.298483 -0.63414,0.690875 -0.25136,1.263453 0.12554,0.187789 0.38415,0.619349 0.57468,0.959023 0.28538,0.50876 0.36136,0.605187 0.43122,0.547215 0.061,-0.05065 0.0849,-0.215345 0.0852,-0.587612 5.5e-4,-0.622606 0.0747,-1.109849 0.27387,-1.79935 0.21048,-0.728709 0.43026,-1.166007 0.85253,-1.696243 0.60816,-0.763662 1.4518,-1.172342 2.54362,-1.232189 0.90744,-0.04974 1.00485,0.07413 1.00546,1.278589 3e-4,0.601088 0.0126,0.676171 0.12716,0.779377 0.11378,0.102456 0.12297,0.156138 0.0892,0.521701 -0.046,0.498869 -0.28211,1.043464 -0.69042,1.592563 -0.4064,0.546529 -0.60058,0.718832 -1.29425,1.148435 -1.1029,0.683055 -1.33411,0.872327 -1.52297,1.246767 -0.27565,0.546487 -0.31696,0.759938 -0.18061,0.93328 0.15409,0.195882 0.47446,0.88016 0.47452,1.013499 4e-5,0.09245 0.0184,0.09718 0.13494,0.0347 0.077,-0.04127 0.38805,-0.07435 0.72457,-0.07705 l 0.58968,-0.0047 0.0127,-0.659473 c 0.007,-0.36271 0.0458,-0.737014 0.0861,-0.831788 l 0.0734,-0.172315 0.49325,0.0259 c 0.41701,0.0219 0.55225,0.05735 0.87485,0.229306 0.43533,0.232048 0.90305,0.630729 1.08464,0.924546 0.0681,0.110224 0.17308,0.21328 0.23325,0.229015 0.10302,0.02694 0.10429,0.01424 0.0217,-0.218006 -0.16341,-0.459774 -0.1589,-1.021551 0.014,-1.745413 0.25125,-1.051818 0.26683,-1.101221 0.43116,-1.366501 0.33442,-0.539867 0.5159,-0.654748 0.81733,-0.517404 0.12768,0.05817 0.17688,0.03011 0.4992,-0.284773 0.39359,-0.384513 0.9388,-0.68729 1.49071,-0.82785 0.37621,-0.09581 0.91682,-0.119575 1.02652,-0.04512 0.10168,0.06901 0.20489,0.703796 0.20489,1.260159 0,0.477474 0.0104,0.51847 0.17985,0.711512 0.17108,0.19485 0.17986,0.23093 0.17986,0.739479 0,0.480261 -0.0244,0.597749 -0.23971,1.155239 -0.2586,0.669497 -0.58761,1.181028 -1.22331,1.901954 -0.21752,0.246685 -0.39549,0.473935 -0.39549,0.505001 0,0.03107 0.20968,-0.147569 0.46596,-0.396965 0.46772,-0.455161 0.6136,-0.533217 1.1674,-0.624642 0.25976,-0.04288 0.40501,0.04542 0.40501,0.246229 0,0.126686 0.0306,0.135345 0.60025,0.170052 0.67765,0.04128 0.92878,0.133366 1.19708,0.438941 0.33807,0.385047 0.32069,0.452187 -0.25524,0.986093 -0.28146,0.260922 -0.67612,0.611759 -0.87704,0.779638 -0.20536,0.171597 -0.36529,0.353774 -0.36529,0.416101 0,0.18322 -0.47375,0.64584 -0.85801,0.837857 -0.42077,0.210262 -0.87556,0.236121 -1.56908,0.08922 -0.41095,-0.08705 -0.42599,-0.08582 -0.81429,0.06652 -0.34723,0.136229 -0.40528,0.182031 -0.47464,0.3745 -0.0435,0.120609 -0.14241,0.319922 -0.21988,0.442918 -0.0775,0.122996 -0.14084,0.233557 -0.14084,0.245691 0,0.01213 0.10877,0.07111 0.24172,0.131062 0.2368,0.106783 0.24625,0.106489 0.46462,-0.01448 0.31629,-0.175201 0.64887,-0.214147 1.12694,-0.131964 0.76287,0.131142 0.88367,0.216156 1.91063,1.344623 0.61737,0.678377 0.75219,0.902374 0.79546,1.32156 l 0.0345,0.33452 -0.31002,0.291059 c -0.73451,0.689602 -1.81485,0.717297 -2.97685,0.07631 -0.53049,-0.292633 -0.98602,-0.711756 -1.29817,-1.194416 -0.22152,-0.342538 -0.29904,-0.41079 -0.66398,-0.584615 l -0.41318,-0.196801 -0.57995,0.579227 c -0.42693,0.426406 -0.82844,0.744382 -1.52181,1.205206 -0.74461,0.494879 -0.94236,0.654231 -0.94424,0.760872 -0.002,0.119557 0.0272,0.134892 0.25811,0.134892 0.19041,0 0.29122,-0.03445 0.3747,-0.128061 0.19973,-0.223958 1.27834,-1.135464 1.44893,-1.224454 0.31723,-0.165489 0.58198,-0.06854 0.76574,0.2804 0.0753,0.143027 0.12564,0.160654 0.56906,0.199334 0.60815,0.05305 0.97752,0.16171 1.5808,0.465037 0.97199,0.488703 1.84276,1.623461 1.59748,2.081768 -0.0376,0.07034 -0.0938,0.11225 -0.1247,0.09313 -0.031,-0.01912 -0.0422,0.0019 -0.025,0.04666 0.0817,0.213007 -0.9186,0.767951 -1.60561,0.890728 -0.48463,0.08661 -1.39614,0.0036 -1.69996,-0.154873 -0.0959,-0.04999 -0.20725,-0.09106 -0.24753,-0.09127 -0.14737,-7.43e-4 -0.77814,-0.313727 -1.23307,-0.611839 -0.42824,-0.280624 -0.50532,-0.309374 -0.92926,-0.346611 -0.25425,-0.02233 -0.55962,-0.02922 -0.67859,-0.01531 l -0.21631,0.02529 -0.0324,0.878727 c -0.0179,0.4833 -0.0656,1.007908 -0.10614,1.165796 -0.0405,0.157888 -0.0574,0.303312 -0.0376,0.323165 0.0199,0.01985 0.16495,-0.03115 0.32244,-0.113343 0.91951,-0.479874 1.17704,-0.589705 1.66136,-0.708526 0.69375,-0.170203 1.2833,-0.170957 1.79015,-0.0023 0.21343,0.07102 0.4384,0.185087 0.49994,0.253472 0.15795,0.175538 0.61907,0.366947 1.27207,0.528032 0.46721,0.115254 0.59963,0.175367 0.79437,0.360614 0.37868,0.360236 0.31004,0.677405 -0.26453,1.222257 -1.30893,1.241228 -2.65146,1.599025 -4.50778,1.20137 -1.57211,-0.336773 -1.46467,-0.323694 -1.7589,-0.214124 -0.22675,0.08444 -0.29854,0.154795 -0.46882,0.459425 -0.11058,0.197841 -0.28284,0.629496 -0.3828,0.959232 -0.81816,2.698981 -2.23005,6.0033 -3.3686,7.883693 -1.286994,2.125559 -2.433135,3.615071 -3.007805,3.908908 -0.189399,0.09684 -0.389122,0.124712 -1.049161,0.146403 -0.733494,0.02411 -0.834073,0.01501 -1.003177,-0.09072 z m 0.832432,-0.04746 c -0.04122,-0.01663 -0.108663,-0.01663 -0.14988,0 -0.04122,0.01663 -0.0075,0.03024 0.07494,0.03024 0.08243,0 0.116157,-0.01361 0.07494,-0.03024 z m 0.539568,0 c -0.04122,-0.01663 -0.108663,-0.01663 -0.14988,0 -0.04122,0.01663 -0.0075,0.03024 0.07494,0.03024 0.08243,0 0.116157,-0.01361 0.07494,-0.03024 z m 0.29976,0 c -0.04122,-0.01663 -0.108663,-0.01663 -0.14988,0 -0.04122,0.01663 -0.0075,0.03024 0.07494,0.03024 0.08243,0 0.116157,-0.01361 0.07494,-0.03024 z m 0.288023,-0.252717 c 0.387747,-0.250975 0.756119,-0.659372 1.358526,-1.506139 1.785414,-2.509645 2.733384,-4.283491 3.860734,-7.224221 0.16433,-0.428657 0.34847,-0.900779 0.40921,-1.04916 0.0607,-0.148382 0.27426,-0.782375 0.47449,-1.408873 0.37371,-1.169286 0.62613,-1.691376 0.92381,-1.910779 0.24338,-0.179378 0.79827,-0.198039 1.39324,-0.04686 1.71213,0.435056 2.70067,0.405286 3.71173,-0.111777 0.84227,-0.43074 1.75955,-1.259549 1.67809,-1.516227 -0.0915,-0.28837 -0.25796,-0.380514 -1.05475,-0.583952 -0.53922,-0.137676 -0.90016,-0.299609 -1.12764,-0.505907 -0.1429,-0.129604 -0.53148,-0.27864 -0.93729,-0.359488 -0.39474,-0.07864 -1.64292,0.237435 -2.17542,0.550888 -0.43933,0.258606 -0.67773,0.360978 -0.93405,0.401085 -0.38205,0.05978 -0.4134,0.0077 -0.30665,-0.509482 0.0503,-0.243912 0.11021,-0.839551 0.13305,-1.323641 0.0228,-0.484091 0.0635,-0.915745 0.0904,-0.959233 0.0666,-0.107692 1.18669,-0.08787 1.55741,0.02757 0.15134,0.04712 0.44068,0.19808 0.64297,0.335457 0.73178,0.496938 2.03626,0.888445 2.74936,0.825146 0.64776,-0.0575 1.70489,-0.597161 1.78353,-0.910488 0.0611,-0.243588 -0.17392,-0.663083 -0.62105,-1.108373 -0.58781,-0.585395 -1.50656,-1.028805 -2.29809,-1.109111 -0.41548,-0.04215 -0.7633,-0.133725 -0.7633,-0.200955 0,-0.09679 -0.25204,-0.306415 -0.36841,-0.306415 -0.13243,0 -0.43488,0.214968 -0.92309,0.656111 -0.72345,0.653698 -0.8429,0.72191 -1.26504,0.722416 -0.33573,4.02e-4 -0.38111,-0.04381 -0.38111,-0.371299 0,-0.236132 0.25979,-0.486144 1.07778,-1.037204 0.79346,-0.534536 1.24711,-0.905022 1.75717,-1.435059 l 0.4069,-0.422826 0.56336,0.287315 c 0.4982,0.254088 0.57787,0.317291 0.68883,0.546509 0.42262,0.873006 1.96129,1.776095 2.87953,1.690075 0.37208,-0.03486 1.16769,-0.404494 1.26599,-0.588177 0.10051,-0.187797 -0.003,-0.62686 -0.20826,-0.886358 -0.10334,-0.130436 -0.45768,-0.532659 -0.78742,-0.89383 -0.77698,-0.851052 -0.93577,-0.936292 -1.73861,-0.93332 -0.43298,0.0016 -0.67853,0.03269 -0.88395,0.11191 -0.27235,0.105036 -0.29398,0.10522 -0.50959,0.0043 -0.50548,-0.236507 -0.6913,-0.458502 -0.43901,-0.524476 0.0712,-0.01861 0.20794,-0.213392 0.35452,-0.504933 0.19959,-0.396963 0.27137,-0.485651 0.43867,-0.541984 0.11002,-0.03705 0.31658,-0.110252 0.45902,-0.16268 0.2372,-0.08731 0.30267,-0.08714 0.77843,0.002 0.70446,0.132004 1.05928,0.09499 1.46883,-0.153225 0.44148,-0.267564 0.70119,-0.519344 0.70119,-0.679778 0,-0.08446 0.11391,-0.232836 0.31475,-0.40997 0.81009,-0.714489 1.3204,-1.24072 1.28717,-1.32732 -0.11638,-0.303291 -0.72694,-0.521178 -1.46275,-0.522001 -0.335,-3.75e-4 -0.49888,-0.101257 -0.49888,-0.307106 0,-0.103671 -0.0279,-0.113533 -0.22482,-0.07957 -0.3857,0.06651 -0.58966,0.213154 -1.39206,1.000836 -0.42828,0.420414 -0.80464,0.764389 -0.83636,0.764389 -0.0958,0 -0.13913,-0.120208 -0.0723,-0.200722 0.0345,-0.04156 0.171,-0.289929 0.30334,-0.55193 0.13234,-0.262001 0.38072,-0.638235 0.55194,-0.836077 0.44744,-0.516997 0.8208,-1.033922 0.99555,-1.378353 0.28765,-0.566961 0.49486,-1.265352 0.49486,-1.667872 0,-0.337992 -0.0183,-0.396142 -0.17092,-0.542338 -0.16588,-0.15892 -0.17194,-0.186239 -0.20534,-0.925485 -0.0459,-1.016611 -0.0351,-0.99547 -0.48746,-0.952215 -0.73872,0.07064 -1.50253,0.463011 -1.99877,1.026764 -0.26127,0.296823 -0.33811,0.321921 -0.54401,0.177701 -0.11138,-0.07801 -0.15245,-0.08133 -0.22823,-0.01844 -0.26215,0.217562 -0.43444,0.594642 -0.62714,1.372561 -0.25026,1.010256 -0.26306,1.47745 -0.057,2.080642 0.0812,0.237578 0.12846,0.451072 0.10511,0.47443 -0.0234,0.02336 -0.18983,-0.0076 -0.36993,-0.06884 -0.24842,-0.08444 -0.37254,-0.171477 -0.51424,-0.360597 -0.20734,-0.276712 -0.62117,-0.609103 -0.98722,-0.792938 -0.24556,-0.123321 -0.83163,-0.313516 -0.96607,-0.313516 -0.1005,0 -0.16281,0.20564 -0.17256,0.569544 -0.0209,0.780181 -0.0361,0.965334 -0.0858,1.043771 -0.0374,0.05914 -0.25781,0.09973 -0.73349,0.135112 -0.37399,0.02781 -0.75595,0.05722 -0.8488,0.06534 -0.15346,0.01342 -0.18177,-0.01669 -0.31101,-0.33094 -0.0782,-0.190139 -0.24149,-0.509184 -0.36286,-0.708988 -0.26124,-0.430053 -0.25692,-0.524792 0.055,-1.204445 0.245,-0.533783 0.42222,-0.694822 1.50188,-1.364731 1.1525,-0.715098 1.92589,-1.711352 2.04901,-2.639432 0.0344,-0.259544 0.022,-0.326819 -0.0811,-0.43888 -0.10654,-0.11579 -0.12467,-0.230883 -0.14495,-0.919901 -0.0297,-1.008876 -0.0257,-1.003432 -0.70656,-0.967344 -0.92316,0.04893 -1.96213,0.567884 -2.45582,1.226661 -0.59534,0.794398 -1.02347,2.134892 -1.02347,3.20449 0,0.519095 -0.0195,0.633664 -0.15291,0.896871 -0.0841,0.165964 -0.18247,0.2919 -0.2186,0.279858 -0.0361,-0.01204 -0.19263,-0.236407 -0.34779,-0.49859 -0.15517,-0.262183 -0.40224,-0.679034 -0.54905,-0.926336 -0.14681,-0.247302 -0.30593,-0.517086 -0.3536,-0.59952 -0.0477,-0.08243 -0.11036,-0.16709 -0.1393,-0.188123 -0.068,-0.04942 0.0159,-1.07087 0.088,-1.07087 0.03,0 0.26116,-0.114659 0.51368,-0.254796 0.87428,-0.485182 1.48173,-1.256416 1.83937,-2.335284 0.0842,-0.253981 0.19866,-0.531352 0.25437,-0.61638 0.0557,-0.08503 0.0828,-0.173089 0.0602,-0.195691 -0.0226,-0.0226 -0.30278,-0.05166 -0.62263,-0.06458 l -0.58153,-0.02349 -0.14325,-0.368199 c -0.14967,-0.384734 -0.36466,-0.731766 -0.62894,-1.015247 l -0.1561,-0.167432 -0.35257,0.239425 c -0.38184,0.259306 -1.10196,1.013313 -1.222038,1.279543 -0.05222,0.115789 -0.155179,0.191754 -0.345606,0.255004 -0.339164,0.112653 -0.870481,0.466139 -0.968726,0.644495 -0.04079,0.07404 -0.08888,0.256026 -0.106881,0.404407 -0.04567,0.376462 -0.187938,0.382744 -0.619622,0.02736 -0.407095,-0.335143 -0.453371,-0.445703 -0.269565,-0.644034 0.470746,-0.507943 1.143787,-2.166281 1.148793,-2.830565 0.0015,-0.197842 -0.03158,-0.459469 -0.07348,-0.581395 -0.07176,-0.208764 -0.09258,-0.222739 -0.357354,-0.239808 -0.259688,-0.01674 -0.279883,-0.02947 -0.264465,-0.166629 0.02261,-0.201133 -0.206419,-0.946834 -0.361501,-1.177021 l -0.125605,-0.186437 -0.346425,0.263459 c -0.305971,0.232693 -1.071651,1.143921 -1.071651,1.275361 0,0.0272 -0.118807,0.06727 -0.264015,0.08905 l -0.264014,0.03959 -0.101593,0.414559 c -0.09469,0.386409 -0.09493,0.448303 -0.0035,0.911461 0.05394,0.273295 0.178,0.662082 0.275679,0.86397 0.09768,0.201888 0.1776,0.383992 0.1776,0.404676 0,0.0976 -0.242396,0.01356 -0.697263,-0.241763 -0.580045,-0.325583 -0.721717,-0.462239 -0.981557,-0.946796 -0.363822,-0.678466 -1.166235,-1.567514 -1.632279,-1.808515 -0.170682,-0.08826 -0.805399,-0.322633 -0.873751,-0.322633 -0.01616,0 -0.01244,0.200436 0.0083,0.445414 l 0.03765,0.445414 -0.653615,-0.03448 c -0.697785,-0.03681 -1.143715,0.02271 -1.772199,0.23653 -0.197841,0.06731 -0.367467,0.128736 -0.376944,0.136502 -0.03249,0.02662 0.131976,0.359407 0.306697,0.620559 0.116734,0.17448 0.188106,0.374416 0.214961,0.602176 0.07225,0.612719 0.50501,1.004982 1.342358,1.216729 0.422067,0.106732 0.609484,0.119165 1.388906,0.09214 0.49555,-0.01718 1.102442,-0.07543 1.348649,-0.129435 0.246206,-0.05401 0.529479,-0.0811 0.629496,-0.06022 0.261143,0.05453 1.308828,0.593445 1.800554,0.926173 0.593229,0.401411 1.528777,1.246402 1.528777,1.380799 0,0.08461 -0.09687,0.142153 -0.404677,0.240376 -0.319716,0.102025 -0.608145,0.135538 -1.373829,0.159629 l -0.969152,0.03049 -0.202992,-0.154829 c -0.248265,-0.189361 -0.794594,-0.43589 -1.087912,-0.490917 -0.189311,-0.03552 -0.223402,-0.02349 -0.266918,0.09414 -0.02859,0.07729 -0.02348,0.233801 0.01198,0.366654 0.08504,0.318602 0.0083,0.379466 -0.707598,0.561063 -1.186304,0.300931 -2.588396,0.160195 -3.673011,-0.368679 -0.705904,-0.344209 -0.726195,-0.404105 -0.387817,-1.144793 0.495938,-1.085575 0.642502,-1.797433 0.44757,-2.173839 -0.06662,-0.128646 -0.160858,-0.217244 -0.243559,-0.22899 -0.102885,-0.01461 -0.134892,-0.05864 -0.134892,-0.185549 0,-0.09245 -0.1093,-0.337035 -0.245955,-0.550387 -0.320117,-0.499778 -0.317121,-0.497217 -0.482021,-0.411967 -0.151724,0.07844 -0.847608,0.656812 -0.880737,0.732011 -0.05246,0.119088 -0.179874,0.01493 -0.366205,-0.299362 -0.294651,-0.49701 -0.579408,-0.830691 -1.022684,-1.198394 l -0.389688,-0.323252 -0.197054,0.226305 -0.197054,0.226306 -0.162658,-0.10642 c -0.3128,-0.20465 -1.123987,-0.563236 -1.366414,-0.604023 -0.355718,-0.05985 -0.407721,0.03233 -0.435071,0.77118 -0.05534,1.495121 0.609036,3.067773 1.480885,3.505392 0.208541,0.104676 0.535881,0.214993 1.059868,0.35719 0.2965,0.08046 0.743048,0.455776 0.651366,0.547459 -0.0432,0.0432 -0.254675,0.04131 -0.687931,-0.0062 -0.344055,-0.0377 -0.881849,-0.05176 -1.195098,-0.03124 -0.612919,0.04015 -1.525713,0.220733 -1.62682,0.321839 -0.08926,0.08926 0.563059,0.600457 1.175937,0.921523 0.474736,0.248698 0.500278,0.272425 0.529745,0.492123 0.01703,0.126955 0.04909,0.248833 0.07124,0.27084 0.02216,0.02201 0.327931,0.03803 0.679501,0.0356 0.602638,-0.0042 0.66838,-0.01723 1.14881,-0.22841 0.280276,-0.123201 0.566281,-0.260846 0.635567,-0.305878 0.06929,-0.04503 0.343186,-0.115127 0.608667,-0.155768 l 0.482693,-0.07389 0.455482,0.200169 c 0.250514,0.110093 0.455481,0.219465 0.455481,0.243047 0,0.02358 -0.262734,0.22779 -0.583853,0.453794 -0.803965,0.565831 -1.450057,1.213015 -1.697016,1.699885 -0.180228,0.355312 -0.200052,0.448695 -0.224722,1.058582 -0.03242,0.801454 0.09108,1.3395 0.307467,1.3395 0.279432,0 1.161868,-0.321715 1.438493,-0.52444 0.265259,-0.194395 0.306704,-0.206911 0.494393,-0.149308 0.317141,0.09733 0.648459,0.02619 0.884367,-0.189889 0.266388,-0.244002 0.51996,-1.003864 0.51996,-1.55813 0,-0.364471 -0.13965,-0.896699 -0.304574,-1.160785 -0.109149,-0.174775 -1.72e-4,-0.289727 0.386698,-0.407903 0.365529,-0.111657 1.883355,-0.183617 2.011356,-0.09536 0.07064,0.04871 0.04899,0.128269 -0.127503,0.468524 -0.191101,0.368424 -0.293341,0.65158 -0.635042,1.758775 -0.05597,0.181355 -0.09603,0.347044 -0.08902,0.368197 0.007,0.02115 -0.04984,0.389853 -0.126338,0.819331 -0.139763,0.784711 -0.249017,1.060048 -0.617134,1.555278 -0.137721,0.185277 -0.164129,0.194844 -0.537805,0.194844 -0.478634,0 -1.032459,0.136775 -1.397251,0.345072 -0.322118,0.18393 -1.081373,0.778577 -1.081373,0.84693 0,0.174316 -0.937982,0.251032 -1.496266,0.122377 -0.346302,-0.0798 -0.84328,-0.3261 -0.976755,-0.484069 -0.153889,-0.182127 -0.128616,-0.429082 0.07709,-0.753288 0.382537,-0.602901 0.550966,-1.676128 0.318683,-2.030636 -0.146,-0.222825 -0.41805,-0.343516 -0.679925,-0.30164 -0.271893,0.04348 -0.40448,-0.07867 -0.681406,-0.627724 -0.239853,-0.475553 -0.347284,-0.549308 -0.511855,-0.351407 -0.207676,0.249736 -0.299238,0.496591 -0.401253,1.0818 -0.111927,0.642059 -0.08381,1.384984 0.06318,1.669226 0.120717,0.233441 0.115886,0.303503 -0.02093,0.303503 -0.110046,0 -0.326157,-0.238348 -0.489228,-0.539568 -0.04516,-0.08342 -0.09808,-0.442317 -0.119339,-0.809353 -0.05255,-0.90724 -0.25267,-1.277447 -0.867374,-1.60456 -0.208678,-0.111047 -0.383784,-0.133232 -1.34892,-0.170903 -0.610012,-0.02381 -1.169767,-0.06211 -1.243899,-0.08512 -0.189569,-0.05883 -0.434758,0.113293 -0.434758,0.305209 0,0.351716 0.72871,1.426585 1.365462,2.014094 0.296952,0.273988 0.456714,0.368619 0.835011,0.494604 0.257291,0.08569 0.503239,0.155792 0.546552,0.155792 0.101328,0 0.790145,0.604666 0.790145,0.693614 0,0.04365 -0.237833,0.08101 -0.674461,0.105967 -0.818097,0.04676 -1.322962,0.160235 -1.514837,0.340492 -0.13079,0.122871 -0.136372,0.148969 -0.06244,0.291937 0.04465,0.08635 0.137908,0.208332 0.207231,0.271069 0.07904,0.07153 0.126042,0.187029 0.126042,0.309717 0,0.157114 0.03941,0.220006 0.20008,0.319307 0.233492,0.144306 0.835809,0.242966 1.493565,0.244647 0.53567,0.0014 0.571239,0.04927 0.300327,0.404454 -0.208113,0.27285 -0.511382,1.153644 -0.430692,1.25087 0.03174,0.03824 0.185338,0.102296 0.341336,0.142345 0.664741,0.17066 1.125807,0.318478 1.436149,0.460432 0.269551,0.123295 0.42205,0.151173 0.8184,0.149611 0.50253,-0.002 0.749592,-0.06564 1.266494,-0.326312 0.281308,-0.141865 0.330644,-0.148012 0.801466,-0.09986 0.714796,0.07311 1.062882,-0.0056 1.750377,-0.395863 0.315384,-0.179026 0.614873,-0.325501 0.665531,-0.325501 0.05066,0 0.218954,0.06745 0.373991,0.14988 0.155038,0.08243 0.316878,0.14988 0.359647,0.14988 0.04277,0 0.191649,-0.0825 0.330847,-0.183335 0.182051,-0.131877 0.306573,-0.178152 0.443647,-0.164868 0.169038,0.01638 0.199478,0.04894 0.269511,0.288251 0.187417,0.64043 0.396369,1.160405 0.530244,1.319507 0.120806,0.14357 0.176372,0.165886 0.344931,0.138533 0.187756,-0.03047 0.217725,-0.01036 0.457156,0.306767 0.36874,0.488392 0.409496,0.498226 0.680813,0.164277 0.125298,-0.154222 0.335362,-0.461167 0.466808,-0.682101 0.182025,-0.305946 0.285447,-0.417029 0.433874,-0.466014 0.448034,-0.147865 0.715954,-0.623083 0.727596,-1.290562 0.0046,-0.263789 0.02945,-0.670997 0.05521,-0.904907 0.06093,-0.553147 -0.01898,-0.792267 -0.367228,-1.098804 -0.401254,-0.353197 -0.806943,-0.420007 -1.648281,-0.27144 l -0.218342,0.03856 -0.12875,-0.344115 c -0.09566,-0.255678 -0.137564,-0.538359 -0.163047,-1.099928 -0.03031,-0.667938 -0.0157,-0.846427 0.125685,-1.535189 0.209566,-1.02093 0.675699,-2.023996 1.178812,-2.536669 0.232193,-0.236605 0.918866,-0.654848 1.201267,-0.731675 0.409968,-0.111531 1.275975,-0.238779 1.386442,-0.203719 0.116213,0.03688 0.463239,0.691167 0.463325,0.873555 2.6e-5,0.05463 -0.134128,0.211671 -0.29812,0.348973 -0.407534,0.341207 -0.875729,0.981471 -1.012296,1.384331 -0.102273,0.301693 -0.104587,0.350759 -0.02404,0.509592 0.04902,0.09667 0.153511,0.237549 0.2322,0.313074 0.128414,0.123251 0.143071,0.18862 0.143071,0.63807 0,0.408854 0.01805,0.507678 0.09834,0.538491 0.05409,0.02076 0.371086,0.02029 0.704437,-0.001 0.547416,-0.03502 0.620119,-0.02734 0.750982,0.07924 0.08684,0.07073 0.130836,0.154633 0.109813,0.209417 -0.01929,0.05027 -0.219384,0.214549 -0.444649,0.365057 -0.225266,0.150508 -0.556427,0.423214 -0.735913,0.606014 l -0.326338,0.332362 0.181585,0.226187 c 0.259377,0.323088 1.508828,1.176532 1.90479,1.301077 0.180154,0.05667 0.353429,0.134759 0.385055,0.173541 0.03163,0.03878 0.110535,0.24423 0.175351,0.456551 0.131136,0.429568 0.187931,0.472562 0.632823,0.479054 0.251902,0.0037 0.315091,0.03209 0.494606,0.222433 0.199231,0.211247 0.216296,0.217137 0.534064,0.18434 0.507509,-0.05238 1.070369,-0.359311 1.560239,-0.850805 0.23081,-0.231583 0.46234,-0.476776 0.51451,-0.544874 0.0859,-0.112097 0.15607,-0.123445 0.74179,-0.119904 l 0.64695,0.0039 0.14295,0.539568 c 0.18423,0.695352 0.23344,1.080795 0.35326,2.767264 0.0738,1.038867 0.0818,1.41994 0.0315,1.513789 -0.0855,0.159708 -0.16385,0.159696 -0.21455,-3.2e-5 -0.0608,-0.191648 -1.32899,-1.441564 -1.74855,-1.723385 -0.4134,-0.277687 -0.5932,-0.306896 -0.79765,-0.129578 -0.15527,0.134667 -0.19961,0.140781 -1.079132,0.148786 -0.727926,0.0066 -1.179212,0.120078 -1.627375,0.409118 -0.290583,0.18741 -0.296157,0.196613 -0.261216,0.431304 0.05773,0.387744 0.287892,0.817903 0.659055,1.231717 0.21659,0.241479 0.430918,0.568277 0.570013,0.869133 0.225566,0.487888 0.480745,0.774716 0.749168,0.842086 0.07719,0.01937 0.297687,0.0028 0.489977,-0.03685 0.57041,-0.117592 1.94649,-0.542934 2.25107,-0.695797 0.27444,-0.137734 0.29116,-0.139083 0.56955,-0.04595 0.51297,0.171608 0.55651,0.248079 0.55711,0.978612 5.5e-4,0.663651 -0.12794,1.932251 -0.27432,2.708415 -0.11831,0.62734 -0.39202,1.573347 -0.47067,1.626739 -0.0777,0.05276 -0.37401,0.05782 -0.55427,0.0095 -0.0713,-0.01913 -0.30817,-0.260013 -0.52632,-0.535292 -0.21815,-0.275278 -0.55579,-0.644527 -0.75031,-0.820554 -0.36571,-0.33095 -1.339159,-0.919131 -1.42914,-0.863519 -0.02808,0.01735 -0.0856,0.147562 -0.127834,0.289352 -0.153194,0.514354 -0.163414,0.52758 -0.407735,0.527668 -0.307995,1.12e-4 -1.125646,0.150382 -1.455122,0.267426 -0.364994,0.129662 -1.199041,0.637597 -1.199041,0.730217 0,0.111107 0.597717,0.794713 1.078668,1.233668 0.404172,0.36888 0.425278,0.401689 0.488202,0.758917 0.07849,0.445584 0.162482,0.517287 0.752613,0.642487 0.362852,0.07698 0.461756,0.07597 0.887951,-0.009 0.263788,-0.05262 0.761348,-0.201681 1.105688,-0.331249 0.45724,-0.172047 0.72861,-0.238403 1.00626,-0.246053 0.47656,-0.01313 0.59035,0.07718 0.57566,0.456856 -0.0248,0.641704 -0.73701,2.729457 -1.35108,3.960719 -0.19734,0.395683 -0.42001,0.881544 -0.49482,1.07969 -0.36628,0.970103 -1.753832,3.491529 -2.372441,4.311129 -0.147305,0.195167 -0.426176,0.572865 -0.619713,0.839329 -0.505608,0.696128 -1.107378,1.392476 -1.593819,1.844315 -0.457775,0.425211 -0.513122,0.574273 -0.321702,0.866417 0.145128,0.221492 0.271493,0.253714 1.011664,0.257958 0.631491,0.0036 0.675283,-0.0043 0.929256,-0.168718 z m 7.55736,-21.192367 c -0.0463,-0.0558 -0.0753,-0.289146 -0.0769,-0.618362 -0.003,-0.727981 -0.28564,-2.418947 -0.64695,-3.877054 -0.16609,-0.670303 -0.30199,-1.277029 -0.30199,-1.34828 0,-0.177455 0.10973,-0.162413 0.32688,0.04481 0.1627,0.155257 0.46641,0.361426 2.18597,1.483923 0.24447,0.159589 0.59796,0.441197 0.78553,0.625797 l 0.34103,0.335635 0.0311,0.545487 c 0.0171,0.300018 0.0179,0.614502 0.002,0.698854 -0.0428,0.223772 -0.70411,0.909256 -1.27615,1.322739 -0.27299,0.197325 -0.60766,0.457949 -0.74371,0.579166 -0.29344,0.261448 -0.51956,0.336252 -0.62659,0.207287 z m 0.53291,-0.500462 c 0.0824,-0.07284 0.37048,-0.295864 0.6401,-0.495617 0.26962,-0.199753 0.6696,-0.542564 0.88884,-0.761803 l 0.39861,-0.398617 -0.0418,-0.514488 c -0.023,-0.282968 -0.0657,-0.56027 -0.0949,-0.616225 -0.0702,-0.134521 -1.24694,-1.007331 -2.00071,-1.483945 -0.32973,-0.208497 -0.70608,-0.462888 -0.83633,-0.565314 -0.17134,-0.134738 -0.22532,-0.156288 -0.19526,-0.07794 0.12302,0.320573 0.64788,2.604166 0.70224,3.055331 0.0349,0.289649 0.0896,0.664284 0.12146,0.832523 0.0319,0.168239 0.058,0.533053 0.058,0.810698 0,0.555878 -0.0153,0.546728 0.35971,0.215397 z m -1.07913,-5.015802 c 0,-0.01245 -0.0472,-0.05966 -0.10492,-0.104916 -0.0951,-0.07457 -0.0972,-0.07245 -0.0226,0.02264 0.0783,0.09987 0.12755,0.131623 0.12755,0.08228 z m -6.145086,26.101772 c 0.05968,-0.06595 0.09502,-0.119904 0.07854,-0.119904 -0.01649,0 -0.07881,0.05396 -0.138488,0.119904 -0.05968,0.06595 -0.09502,0.119904 -0.07854,0.119904 0.01649,0 0.07881,-0.05396 0.138488,-0.119904 z M 96.342925,82.57145 c 0,-0.04502 -0.05383,0.0026 -0.302266,0.267279 l -0.267279,0.284772 0.284773,-0.267278 c 0.156624,-0.147004 0.284772,-0.275151 0.284772,-0.284773 z m 3.073683,-11.267849 c -0.04059,-0.01642 -0.121525,-0.01742 -0.179856,-0.0022 -0.05833,0.0152 -0.02512,0.02864 0.0738,0.02986 0.09892,0.0012 0.146646,-0.01121 0.106057,-0.02764 z m 2.961222,-0.45528 c -0.0166,-0.04122 -0.0302,-0.0075 -0.0302,0.07494 0,0.08243 0.0136,0.116157 0.0302,0.07494 0.0166,-0.04122 0.0166,-0.108663 0,-0.14988 z m -0.41565,-0.201089 c -0.0199,-0.01992 -0.0716,-0.02205 -0.11491,-0.0047 -0.0478,0.01914 -0.0336,0.03334 0.0362,0.03622 0.0632,0.0026 0.0986,-0.01157 0.0787,-0.03149 z m -4.420214,-0.823791 c 0,-0.01138 -0.0607,-0.07208 -0.134893,-0.134893 l -0.134892,-0.114207 0.114208,0.134892 c 0.107327,0.126765 0.155577,0.162184 0.155577,0.114208 z m -0.299761,-0.301712 c 0,-0.01245 -0.04721,-0.05966 -0.104916,-0.104916 -0.09509,-0.07457 -0.09721,-0.07245 -0.02263,0.02263 0.07832,0.09987 0.127551,0.131624 0.127551,0.08228 z m 4.376495,-1.798561 c 0,-0.01245 -0.0472,-0.05966 -0.10491,-0.104916 -0.0951,-0.07457 -0.0972,-0.07245 -0.0226,0.02264 0.0783,0.09986 0.12755,0.131624 0.12755,0.08228 z m 4.03178,-1.755679 c -0.0412,-0.01663 -0.10866,-0.01663 -0.14988,0 -0.0412,0.01663 -0.008,0.03024 0.0749,0.03024 0.0824,0 0.11616,-0.01361 0.0749,-0.03024 z m 0.61451,-1.399144 c 0.0597,-0.06595 0.095,-0.119904 0.0785,-0.119904 -0.0165,0 -0.0788,0.05396 -0.13849,0.119904 -0.0597,0.06595 -0.095,0.119904 -0.0785,0.119904 0.0165,0 0.0788,-0.05396 0.13849,-0.119904 z m -2.5649,-0.3439 c -0.0138,-0.09113 -0.0254,-0.0308 -0.0259,0.134068 -4.5e-4,0.164868 0.0108,0.23943 0.0251,0.165693 0.0142,-0.07374 0.0146,-0.20863 8.1e-4,-0.299761 z m -5.019036,-1.293564 c 0,-0.01032 -0.08768,-0.098 -0.194844,-0.194844 l -0.194844,-0.176085 0.176085,0.194844 c 0.164135,0.181622 0.213603,0.222401 0.213603,0.176085 z m 8.962826,-0.221049 c 0.0597,-0.06595 0.095,-0.119904 0.0785,-0.119904 -0.0165,0 -0.0788,0.05396 -0.13849,0.119904 -0.0597,0.06595 -0.095,0.119904 -0.0785,0.119904 0.0165,0 0.0788,-0.05396 0.13848,-0.119904 z m 5.66547,-0.74206 c 0,-0.01245 -0.0472,-0.05966 -0.10491,-0.104916 -0.0951,-0.07457 -0.0972,-0.07245 -0.0226,0.02264 0.0783,0.09987 0.12755,0.131623 0.12755,0.08228 z m -10.2518,-0.417713 c 0,-0.01138 -0.0607,-0.07208 -0.13489,-0.134892 l -0.13489,-0.114208 0.11421,0.134892 c 0.10732,0.126766 0.15557,0.162185 0.15557,0.114208 z m -0.35971,-0.358553 c 0,-0.01074 -0.0742,-0.08493 -0.16487,-0.164868 l -0.16487,-0.145343 0.14535,0.164868 c 0.13584,0.154094 0.18439,0.192361 0.18439,0.145343 z m -9.884438,-0.265247 c 0.07457,-0.09509 0.07245,-0.09721 -0.02263,-0.02264 -0.09987,0.07832 -0.131624,0.127551 -0.08228,0.127551 0.01245,0 0.05966,-0.04721 0.104916,-0.104916 z m 7.17036,-0.470873 c -0.01992,-0.01992 -0.07163,-0.02205 -0.114908,-0.0047 -0.04783,0.01914 -0.03362,0.03334 0.03622,0.03622 0.0632,0.0026 0.09861,-0.01157 0.07869,-0.03149 z m 0.450888,-0.0061 c -0.0742,-0.01429 -0.19559,-0.01429 -0.26978,0 -0.0742,0.01429 -0.0135,0.02598 0.13489,0.02598 0.14838,0 0.20908,-0.01169 0.13489,-0.02598 z m 3.02357,-0.5085 c -0.0191,-0.04783 -0.0333,-0.03362 -0.0362,0.03622 -0.003,0.0632 0.0116,0.09861 0.0315,0.07869 0.0199,-0.01992 0.022,-0.07163 0.005,-0.114908 z M 86.347063,59.493049 c -0.04059,-0.01642 -0.121524,-0.01742 -0.179856,-0.0022 -0.05833,0.0152 -0.02512,0.02864 0.0738,0.02986 0.09892,0.0012 0.146647,-0.01121 0.106057,-0.02764 z m 27.301757,-1.114752 c -0.0166,-0.04122 -0.0302,-0.0075 -0.0302,0.07494 0,0.08243 0.0136,0.116157 0.0302,0.07494 0.0166,-0.04122 0.0166,-0.108663 0,-0.14988 z m -12.12004,-0.284772 c 0.0597,-0.06595 0.095,-0.119904 0.0785,-0.119904 -0.0165,0 -0.0788,0.05396 -0.13849,0.119904 -0.0597,0.06595 -0.095,0.119904 -0.0785,0.119904 0.0165,0 0.0788,-0.05396 0.13849,-0.119904 z m 12.44769,-0.04496 c 0.0746,-0.09509 0.0724,-0.09721 -0.0226,-0.02264 -0.0999,0.07832 -0.13163,0.127551 -0.0823,0.127551 0.0124,0 0.0597,-0.04721 0.10491,-0.104916 z m 0.44199,-0.3747 c 0.0597,-0.06595 0.095,-0.119904 0.0785,-0.119904 -0.0165,0 -0.0788,0.05396 -0.13849,0.119904 -0.0597,0.06595 -0.095,0.119904 -0.0785,0.119904 0.0165,0 0.0788,-0.05396 0.13848,-0.119904 z m -3.01993,-0.944245 c 0.0746,-0.09509 0.0725,-0.09721 -0.0226,-0.02264 -0.0999,0.07832 -0.13163,0.127551 -0.0823,0.127551 0.0125,0 0.0597,-0.04721 0.10491,-0.104916 z m 0.17986,-0.659472 c 0.0746,-0.09509 0.0725,-0.09721 -0.0226,-0.02264 -0.0999,0.07832 -0.13162,0.127551 -0.0823,0.127551 0.0124,0 0.0597,-0.04721 0.10492,-0.104916 z M 95.6911,55.410671 c 0.07457,-0.09509 0.07245,-0.09721 -0.02264,-0.02264 -0.0577,0.04525 -0.104916,0.09247 -0.104916,0.104916 0,0.04934 0.04923,0.01758 0.127552,-0.08228 z M 82.743911,54.122809 c -0.04449,-0.04449 -0.05229,-0.02108 -0.02621,0.07864 0.0212,0.08107 0.04838,0.108244 0.06334,0.06334 0.01442,-0.04325 -0.0023,-0.107144 -0.03713,-0.141982 z m 0.150759,0.06259 c -0.01914,-0.04783 -0.03334,-0.03362 -0.03622,0.03622 -0.0026,0.0632 0.01157,0.09861 0.03149,0.07869 0.01992,-0.01992 0.02205,-0.07163 0.0047,-0.114908 z m 3.870917,0.09144 c -0.04122,-0.01663 -0.108663,-0.01663 -0.14988,0 -0.04122,0.01663 -0.0075,0.03024 0.07494,0.03024 0.08243,0 0.116157,-0.01361 0.07494,-0.03024 z M 82.59491,54.065498 c -0.01914,-0.04783 -0.03334,-0.03362 -0.03622,0.03622 -0.0026,0.0632 0.01157,0.09861 0.03149,0.07869 0.01992,-0.01992 0.02205,-0.07163 0.0047,-0.114908 z m 0.298511,-0.543316 c -0.01663,-0.04122 -0.03024,-0.0075 -0.03024,0.07494 0,0.08243 0.01361,0.116157 0.03024,0.07494 0.01663,-0.04122 0.01663,-0.108663 0,-0.14988 z m -0.579273,-1.024881 c 0,-0.01138 -0.0607,-0.07208 -0.134892,-0.134892 l -0.134892,-0.114208 0.114208,0.134893 c 0.107327,0.126765 0.155576,0.162184 0.155576,0.114207 z m 23.868562,-0.983512 c 0.0746,-0.09509 0.0725,-0.09721 -0.0226,-0.02264 -0.0577,0.04525 -0.10492,0.09247 -0.10492,0.104916 0,0.04934 0.0492,0.01758 0.12756,-0.08228 z M 87.117958,50.794365 c 0.07457,-0.09509 0.07245,-0.09721 -0.02264,-0.02264 -0.0577,0.04525 -0.104916,0.09247 -0.104916,0.104916 0,0.04934 0.04923,0.01758 0.127551,-0.08228 z M 91.71163,50.13853 c -0.0577,-0.01508 -0.152128,-0.01508 -0.209832,0 -0.0577,0.01508 -0.01049,0.02742 0.104916,0.02742 0.115407,0 0.16262,-0.01234 0.104916,-0.02742 z m 9.28731,-0.21347 c -0.0166,-0.04122 -0.0302,-0.0075 -0.0302,0.07494 0,0.08243 0.0136,0.116157 0.0302,0.07494 0.0166,-0.04122 0.0166,-0.108663 0,-0.14988 z M 88.576576,49.704382 c 0.01897,-0.0307 0.01157,-0.06998 -0.01645,-0.08729 -0.02802,-0.01731 -0.05094,0.0078 -0.05094,0.05581 0,0.101089 0.01891,0.109922 0.06738,0.03148 z m 11.903044,-4.530521 c 0.0774,-0.08243 0.12731,-0.14988 0.11082,-0.14988 -0.0165,0 -0.0933,0.06745 -0.17078,0.14988 -0.0774,0.08243 -0.12731,0.14988 -0.11083,0.14988 0.0165,0 0.0933,-0.06745 0.17079,-0.14988 z m -6.834537,-1.727393 c 0,-0.01032 -0.08768,-0.098 -0.194844,-0.194844 l -0.194844,-0.176084 0.176084,0.194844 c 0.164136,0.181622 0.213604,0.222401 0.213604,0.176084 z M 83.228417,42.646146 c -0.04122,-0.01663 -0.108664,-0.01663 -0.149881,0 -0.04122,0.01663 -0.0075,0.03024 0.07494,0.03024 0.08244,0 0.116158,-0.01361 0.07494,-0.03024 z"
       id="path1" /></g></svg>
