<?xml version="1.0" encoding="UTF-8" standalone="no"?>
<!-- Created with Inkscape (http://www.inkscape.org/) -->

<svg
   version="1.1"
   id="svg1"
   width="680.31494"
   height="475.19492"
   viewBox="0 0 680.31494 475.1949"
   sodipodi:docname="Kunpeng2-2.PNG"
   xml:space="preserve"
   inkscape:export-filename="../PDF/Kunpeng1-2.pdf"
   inkscape:export-xdpi="96"
   inkscape:export-ydpi="96"
   xmlns:inkscape="http://www.inkscape.org/namespaces/inkscape"
   xmlns:sodipodi="http://sodipodi.sourceforge.net/DTD/sodipodi-0.dtd"
   xmlns="http://www.w3.org/2000/svg"
   xmlns:svg="http://www.w3.org/2000/svg"><defs
     id="defs1" /><sodipodi:namedview
     id="namedview1"
     pagecolor="#ffffff"
     bordercolor="#000000"
     borderopacity="0.25"
     inkscape:showpageshadow="2"
     inkscape:pageopacity="0.0"
     inkscape:pagecheckerboard="0"
     inkscape:deskcolor="#d1d1d1"
     showguides="true" /><g
     inkscape:groupmode="layer"
     inkscape:label="Image"
     id="g1"><path
       style="fill:#000000"
       d="M 50.987634,434.59175 C 48.063,433.4172 47.172604,432.715 46.270905,430.872 c -0.71397,-1.4593 -0.758656,-1.75889 -0.604509,-4.0528 0.218942,-3.25815 1.75281,-8.28391 3.905045,-12.79498 2.686683,-5.63127 5.777642,-10.01653 10.649145,-15.10837 1.236747,-1.29268 2.116794,-2.35033 1.955658,-2.35033 -0.161135,0 -1.45122,-0.76055 -2.866855,-1.69011 -4.829129,-3.17097 -12.785162,-11.20856 -14.546709,-14.69582 -0.91466,-1.81071 -0.94363,-1.96012 -0.58863,-3.03578 0.205357,-0.62224 0.702359,-1.39338 1.10445,-1.71365 0.651456,-0.5189 0.994794,-0.56412 3.152631,-0.41523 1.331856,0.0919 3.518049,0.47586 4.858206,0.85324 1.340158,0.37738 3.199059,0.77165 4.130891,0.87616 2.051871,0.23013 7.694879,-0.23286 8.227698,-0.67506 0.210661,-0.17484 0.520789,-0.86501 0.689172,-1.53372 0.4397,-1.74621 1.4251,-3.04852 2.846945,-3.76254 1.043122,-0.52384 1.342426,-0.87861 1.901266,-2.25361 0.734021,-1.80602 1.34596,-2.60112 2.415382,-3.13837 1.09722,-0.55121 3.115241,-0.72279 5.138038,-0.43687 l 1.834986,0.25937 2.852604,-2.86751 c 3.071854,-3.0879 4.407707,-3.92735 7.220011,-4.53702 1.59681,-0.34616 1.846279,-0.49356 2.177661,-1.28667 0.427602,-1.0234 1.916826,-2.25867 3.069937,-2.54643 0.676433,-0.1688 0.783444,-0.33799 0.783444,-1.23868 0,-1.61874 1.066588,-5.082 2.176159,-7.0661 3.276299,-5.85858 11.303739,-8.24602 18.267919,-5.43307 2.67768,1.08157 5.97589,3.05002 7.62651,4.55167 l 1.47953,1.34602 1.47,-2.87902 c 6.74307,-13.2064 18.83453,-23.96016 32.22524,-28.66013 11.41448,-4.00634 23.95137,-3.3746 33.33201,1.67962 3.06017,1.64879 7.48586,4.90489 8.98987,6.6141 2.51153,2.85415 3.97644,7.02257 3.28224,9.33962 -0.46559,1.55398 -2.28569,3.46492 -4.00446,4.20432 -1.97273,0.84864 -5.11976,1.06424 -7.26788,0.49791 l -1.70668,-0.44995 -0.99977,0.95658 c -0.54987,0.52612 -1.38436,1.1513 -1.85443,1.38929 -1.0287,0.52082 -3.08472,2.86222 -4.67802,5.32737 -1.3945,2.15757 -2.63534,5.88712 -3.3176,9.9716 -0.43997,2.63401 -0.45747,3.37826 -0.1465,6.23041 0.45837,4.20406 1.14638,5.96947 3.1622,8.11412 l 1.59139,1.69309 1.97915,-0.63075 c 3.65301,-1.16418 4.08701,-1.42184 4.40897,-2.61752 0.39794,-1.47785 1.56954,-2.78959 3.11611,-3.48885 1.03405,-0.46753 1.89754,-0.58664 4.33281,-0.59764 2.71125,-0.0122 3.12872,-0.0832 3.846,-0.65321 2.71055,-2.15423 3.34648,-2.47497 5.13263,-2.5887 1.14857,-0.0731 2.2366,0.0481 3.114,0.3471 1.90642,0.64958 2.4983,0.58622 4.82051,-0.51604 3.13919,-1.49005 8.72586,-3.17039 12.9722,-3.90174 3.32265,-0.57226 4.79498,-0.6591 11.23106,-0.66241 8.26722,-0.004 11.32521,0.37521 18.18536,2.25654 7.64477,2.09651 15.52171,5.96853 19.96474,9.81395 1.65007,1.42812 4.97964,3.07115 6.97247,3.44067 9.86253,1.82876 22.99639,-4.43418 30.06142,-14.33493 2.49058,-3.49024 4.48085,-8.37147 4.90007,-12.01765 l 0.16378,-1.42444 -1.29119,-0.51991 c -1.62976,-0.65624 -3.36076,-2.51712 -4.03701,-4.33992 -0.28724,-0.77425 -0.53987,-1.43741 -0.5614,-1.47368 -0.0215,-0.0363 -0.71237,0.18014 -1.53522,0.4809 -3.88158,1.41877 -9.59275,1.51864 -12.16967,0.21282 -2.3601,-1.19596 -4.27518,-3.91709 -4.82704,-6.85874 -0.10665,-0.56854 -0.23192,-1.0337 -0.27837,-1.0337 -0.0464,0 -0.76438,0.35255 -1.59542,0.78344 -1.38527,0.71827 -1.77261,0.78276 -4.65574,0.77513 -3.98196,-0.0105 -5.48502,-0.59432 -7.57893,-2.94364 -2.60632,-2.92423 -3.24577,-5.33773 -2.56932,-9.69753 0.8357,-5.38627 5.00828,-11.35396 10.58788,-15.143 2.4091,-1.63599 7.08762,-3.80673 10.06253,-4.66883 5.27052,-1.52734 6.94498,-1.72627 14.41465,-1.7125 6.48084,0.012 7.23977,0.0681 10.61684,0.78605 11.37048,2.41719 19.81632,6.87036 27.13095,14.30513 l 3.13378,3.18525 1.83701,0.187 c 2.17465,0.22137 6.59101,2.1507 9.32451,4.0735 0.9681,0.68098 3.0834,2.67346 4.70067,4.42772 2.88221,3.12636 3.55039,3.80459 8.53151,8.65987 1.60465,1.56411 3.58163,3.99154 5.69778,6.99602 6.38852,9.07032 7.38074,10.2592 11.85234,14.20151 3.66933,3.235 6.70397,5.23402 12.68203,8.35407 l 3.63071,1.89493 1.78218,-0.38988 c 0.98019,-0.21443 2.90392,-0.54653 4.27495,-0.738 2.47989,-0.34633 2.49278,-0.3524 2.49278,-1.17329 0,-0.76097 -0.0816,-0.82516 -1.04961,-0.82516 -2.32511,0 -5.34609,-2.21864 -6.18048,-4.539 -0.43177,-1.20071 -0.49569,-1.89989 -0.33847,-3.70223 l 0.19383,-2.22197 -0.83108,-0.16621 c -0.4571,-0.0914 -1.23989,-0.5102 -1.73953,-0.93063 -3.03397,-2.55291 -3.45454,-8.71298 -0.88049,-12.89634 0.79613,-1.29388 0.81314,-1.39252 0.42711,-2.47637 -0.22113,-0.62085 -0.40768,-2.11096 -0.41456,-3.31136 -0.0169,-2.94204 0.76116,-4.93933 2.7687,-7.10771 2.92542,-3.1598 5.37298,-3.44489 14.24222,-1.65892 l 4.63076,0.93248 0.63969,-0.58604 c 1.78724,-1.63732 6.20589,-3.32601 12.1777,-4.654 2.27707,-0.50637 3.3166,-0.57891 6.55245,-0.45725 2.1153,0.0795 4.18894,0.23146 4.60809,0.33763 l 0.7621,0.19305 -0.74449,-1.80969 c -0.96577,-2.34756 -1.01906,-6.04843 -0.12344,-8.57214 0.71295,-2.00898 2.21802,-4.52359 3.74745,-6.26112 1.10088,-1.25066 1.15162,-1.39244 1.15162,-3.21769 0,-3.87896 1.70932,-8.0548 4.39748,-10.74296 1.75803,-1.75802 5.75999,-4.37247 8.38272,-5.47637 2.63698,-1.10989 5.5976,-1.85708 9.14543,-2.30809 4.25276,-0.54062 6.17621,-0.51021 9.12727,0.14431 2.78964,0.61873 8.42299,2.51847 9.40856,3.17287 0.65062,0.43199 0.69494,0.40766 1.5421,-0.84665 0.47973,-0.71028 1.68171,-1.84242 2.67106,-2.51587 1.55008,-1.05512 2.00312,-1.22421 3.27622,-1.22285 1.95467,0.002 3.25606,0.37092 6.23586,1.76723 l 2.47935,1.1618 1.49839,-0.64459 c 2.36497,-1.01739 4.66568,-0.73648 8.16963,0.99746 2.54452,1.25916 3.0533,1.66555 6.76301,5.40194 3.66721,3.69358 4.07065,4.01774 4.70067,3.77691 1.85647,-0.70965 6.22669,0.33035 8.98095,2.13723 3.74957,2.45985 8.6427,8.42144 10.78276,13.13728 1.6709,3.68199 3.85903,11.02355 3.85903,12.94772 v 1.42893 l 1.08521,0.18334 c 2.69475,0.45528 6.88063,3.93641 8.82468,7.33892 1.34601,2.35581 4.04967,9.58443 4.04967,10.82735 0,0.77745 0.0241,0.78803 1.796,0.78803 2.25324,0 3.83303,0.9149 5.74953,3.3297 2.91774,3.67637 4.53838,7.65719 5.42937,13.33631 0.57685,3.67677 0.44349,10.03525 -0.29862,14.23816 -0.6425,3.6388 -2.48024,9.87932 -3.6946,12.54601 -0.56968,1.25098 -0.91422,2.14631 -0.76564,1.98962 0.81868,-0.8634 4.45505,-7.45127 5.18935,-9.40133 2.17195,-5.76804 3.29222,-7.86549 4.58349,-8.58154 0.97096,-0.53842 2.8062,-0.4746 3.94708,0.13726 1.21623,0.65227 2.0119,2.17435 3.01891,5.77503 1.81313,6.48305 1.27313,16.21449 -1.355,24.41898 -2.43604,7.60483 -6.23997,13.89335 -12.06187,19.94028 -4.94228,5.13331 -9.83898,8.68574 -16.15692,11.72142 -4.10407,1.97195 -9.04498,3.71664 -12.79464,4.51791 -2.51327,0.53707 -9.69905,1.53459 -13.4969,1.87362 -0.94013,0.0839 -106.57697,0.28841 -234.74854,0.45441 -128.17156,0.16601 -238.936405,0.32931 -246.144097,0.36291 l -13.104894,0.0611 z m 3.918786,0.26166 c -0.09467,-0.0947 -0.340383,-0.10478 -0.546037,-0.0225 -0.227265,0.091 -0.159759,0.15845 0.172121,0.17212 0.30032,0.0124 0.468583,-0.055 0.373916,-0.14963 z m 87.75175,-0.3264 c -11.24243,-0.0413 -29.63914,-0.0413 -40.88157,0 -11.242436,0.0413 -2.044082,0.075 20.44078,0.075 22.48487,0 31.68322,-0.0338 20.44079,-0.075 z m 171.24095,-0.2849 c -14.99051,-0.0408 -39.60492,-0.0408 -54.69869,-1e-5 -15.09378,0.0408 -2.82882,0.0741 27.25546,0.0741 30.08428,0 42.43373,-0.0333 27.44323,-0.0741 z m -69.46435,-0.63828 c 98.00893,-0.1527 195.76147,-0.34529 217.22786,-0.42798 21.46639,-0.0827 49.8627,-0.15113 63.10292,-0.15207 13.42814,-9.6e-4 24.76598,-0.1183 25.64001,-0.26536 0.86178,-0.14501 3.16939,-0.46693 5.128,-0.71539 5.09097,-0.6458 6.27974,-0.92321 10.11312,-2.36002 6.69752,-2.51032 11.40682,-5.01205 16.23911,-8.6267 9.92382,-7.42323 16.76549,-18.13497 19.57382,-30.64595 0.55873,-2.48912 0.63227,-3.61864 0.62865,-9.65618 -0.004,-6.71494 -0.0181,-6.87769 -0.78666,-9.09142 -0.89546,-2.57927 -1.61553,-3.7159 -2.70104,-4.26358 -0.9074,-0.45782 -1.36233,-0.34202 -2.38035,0.60587 -0.77628,0.7228 -1.17927,1.61003 -2.81465,6.19668 -1.13958,3.19611 -2.51244,5.97106 -4.21881,8.52739 -2.31244,3.4643 -7.44711,8.69679 -8.54262,8.70537 -0.52756,0.004 -0.20218,-1.26532 0.65642,-2.56098 1.00338,-1.51413 2.76236,-4.6608 4.40779,-7.8852 1.64528,-3.22409 3.46673,-9.49448 3.99675,-13.75889 0.72915,-5.86667 0.17948,-12.84736 -1.37206,-17.4248 -1.35163,-3.98761 -5.28388,-9.03575 -7.39231,-9.49008 -0.42034,-0.0906 -1.21212,-0.0348 -1.75949,0.12402 -0.54738,0.15879 -1.33141,0.28871 -1.74228,0.28871 -0.71866,0 -0.75232,-0.0731 -0.88572,-1.923 -0.17646,-2.44706 -1.7335,-7.02273 -3.38063,-9.93465 -2.29982,-4.06581 -6.14521,-7.50821 -8.39887,-7.5187 -1.66593,-0.008 -2.11795,-0.27699 -2.11795,-1.26151 0,-1.66845 -1.14252,-7.29091 -1.96167,-9.65362 -1.42527,-4.11093 -3.1412,-7.20944 -6.18697,-11.17201 -3.79934,-4.94299 -7.58441,-7.50737 -11.45753,-7.76246 -1.8121,-0.11935 -2.19339,-0.0576 -2.90857,0.47117 -0.4527,0.3347 -0.93832,0.60853 -1.07917,0.60853 -0.14085,0 -0.70861,-0.68153 -1.26167,-1.51451 -0.55307,-0.83298 -2.2794,-2.80627 -3.83628,-4.38507 -2.48919,-2.52426 -3.16082,-3.03116 -5.56718,-4.20179 -3.6018,-1.75217 -5.27579,-1.95638 -7.42352,-0.90559 -1.88291,0.92122 -1.94347,0.9219 -2.99898,0.0337 -1.68715,-1.41964 -5.94626,-2.90312 -7.46365,-2.59965 -0.85825,0.17165 -3.06278,1.53652 -3.95059,2.44588 -0.25008,0.25615 -0.88079,0.95673 -1.40158,1.55686 l -0.9469,1.09114 -1.33222,-0.71916 c -3.06511,-1.65463 -11.94084,-3.74268 -14.71537,-3.46186 -4.85118,0.49102 -9.92143,1.72207 -12.54174,3.04512 -2.84993,1.43899 -6.10732,3.59419 -7.45111,4.92989 -2.52878,2.51357 -4.18472,6.50205 -4.12897,9.94505 0.0278,1.72003 -0.0578,2.07993 -0.64407,2.70645 -1.19529,1.27737 -3.28162,4.62343 -3.90173,6.25761 -1.17882,3.10659 -1.00165,6.49409 0.49599,9.48342 1.16284,2.32106 1.3775,2.22786 -4.66845,2.02686 -4.86317,-0.16168 -5.58411,-0.12167 -8.04811,0.44662 -4.32578,0.99768 -8.22895,2.2789 -10.68334,3.50683 -2.27234,1.13684 -2.28631,1.13967 -4.70067,0.95125 -1.33186,-0.10395 -3.31896,-0.36745 -4.41578,-0.58556 -4.54577,-0.90398 -6.27719,-1.01662 -7.84482,-0.51033 -2.01743,0.65156 -4.13531,2.61322 -5.16017,4.77955 -0.89902,1.90033 -0.99233,3.06757 -0.48404,6.05497 0.3211,1.88726 0.30954,1.96491 -0.54367,3.649 -1.20661,2.38168 -1.64614,4.76866 -1.23289,6.69558 0.64712,3.01743 2.22712,5.01742 4.39035,5.55741 0.67078,0.16745 0.77719,0.31263 0.63739,0.86964 -0.0923,0.36776 -0.24569,1.41361 -0.34085,2.32412 -0.21116,2.02028 0.59739,4.19592 1.92382,5.17659 1.26654,0.9364 3.70476,2.00801 4.57601,2.01118 0.78421,0.003 0.87202,0.13988 1.22994,1.91938 0.26217,1.30343 -0.0367,1.98846 -0.93522,2.14349 -0.42574,0.0734 -2.49092,0.48284 -4.58928,0.90975 -2.46948,0.5024 -4.16907,0.7098 -4.8184,0.58799 -1.37956,-0.25881 -6.98781,-3.01445 -10.57081,-5.19402 -3.43172,-2.08755 -6.59521,-4.69376 -10.01322,-8.24932 -2.71185,-2.82098 -3.83783,-4.25462 -7.67932,-9.77761 -3.57839,-5.14473 -6.02017,-8.033 -8.64611,-10.22707 -1.19991,-1.00257 -2.43363,-2.23056 -2.7416,-2.72887 -0.30797,-0.49831 -2.26316,-2.56952 -4.34486,-4.60269 -3.63219,-3.54752 -3.93751,-3.77427 -7.56712,-5.6199 -2.74123,-1.39389 -4.37426,-2.0365 -5.9333,-2.33479 -1.1831,-0.22637 -2.20391,-0.41158 -2.26848,-0.41158 -0.0646,0 -0.11738,-0.17554 -0.11738,-0.39009 0,-0.74767 -6.13879,-6.32869 -9.24821,-8.40791 -9.56,-6.39264 -22.69397,-9.87217 -33.59807,-8.90099 -15.32758,1.36516 -25.93124,8.36875 -29.47504,19.4679 -1.1321,3.54572 -0.59336,5.99227 1.94993,8.85512 2.73697,3.08087 7.13294,3.78625 11.09232,1.77988 2.2942,-1.16257 2.54106,-1.02172 3.60517,2.05696 1.10362,3.19299 1.96929,4.39024 3.91299,5.4118 1.35898,0.71425 1.73037,0.7752 4.61178,0.7569 2.73742,-0.0174 3.48817,-0.13685 5.93574,-0.94455 1.54108,-0.50856 2.97661,-0.85764 3.19007,-0.77572 0.21346,0.0819 0.53163,0.70038 0.70704,1.37438 0.67427,2.59079 2.73905,4.75343 5.26627,5.51588 0.67394,0.20332 1.11522,0.50287 1.08,0.73312 -1.32741,8.67724 -3.81928,13.6947 -9.75374,19.63943 -7.24779,7.26034 -16.78633,10.92244 -25.94028,9.95915 -4.0876,-0.43014 -5.30476,-0.95973 -10.83036,-4.71235 -8.45918,-5.74491 -17.10767,-8.97423 -27.91454,-10.42321 -3.38585,-0.45398 -12.17019,-0.45478 -15.38401,-10e-4 -6.5764,0.92773 -13.37059,2.73411 -16.8702,4.48533 -1.59876,0.80002 -3.36556,0.86753 -5.38846,0.20587 -1.80376,-0.58998 -2.99713,-0.27981 -5.13964,1.33586 -1.83863,1.38652 -3.78911,1.99898 -6.23609,1.95817 -2.94457,-0.0491 -4.42618,0.85715 -5.95316,3.6414 -0.69025,1.25858 -0.85796,1.37112 -3.57313,2.39762 -1.56689,0.59238 -3.38054,1.08326 -4.03033,1.09084 -1.10877,0.0129 -1.28847,-0.10695 -2.92137,-1.94878 -0.95697,-1.07941 -2.05985,-2.66132 -2.45084,-3.51537 -0.95585,-2.08785 -1.3753,-5.52201 -1.20548,-9.86961 0.29139,-7.45967 2.74171,-13.13141 7.46201,-17.27226 0.89307,-0.78345 2.31479,-2.11654 3.15937,-2.96243 1.1352,-1.13696 1.6308,-1.4624 1.90068,-1.24809 0.72941,0.57921 3.43064,1.00975 5.2622,0.83872 3.12317,-0.29164 5.35423,-1.87126 6.22646,-4.4084 0.30172,-0.87764 0.26107,-1.25998 -0.31362,-2.94964 -0.92096,-2.70773 -1.69517,-3.87659 -3.83019,-5.78258 -5.02665,-4.48744 -10.33826,-7.16253 -17.09334,-8.60875 -3.32786,-0.71247 -11.04634,-0.70527 -14.67178,0.0137 -16.64633,3.30114 -31.8282,15.49911 -40.32584,32.40009 -0.62253,1.23814 -1.29069,2.24786 -1.4848,2.24382 -0.19412,-0.004 -0.58821,-0.51761 -0.87577,-1.14126 -0.63852,-1.38481 -2.74355,-2.9556 -6.3145,-4.71194 -3.57389,-1.75778 -5.59967,-2.2144 -9.1279,-2.05748 -2.45681,0.10926 -3.07249,0.24087 -4.33078,0.92572 -4.26144,2.31936 -6.928965,6.484 -7.626415,11.90665 -0.12754,0.99162 -0.298514,1.35322 -0.639835,1.35322 -0.839746,0 -2.559808,1.43557 -3.227029,2.6933 -0.60315,1.13695 -0.75646,1.24291 -1.966448,1.35918 -2.186428,0.21009 -4.49369,1.46807 -6.840941,3.72987 -4.128651,3.97835 -3.719483,3.73294 -6.097319,3.65703 -4.040149,-0.12898 -6.045844,0.99617 -6.748235,3.78562 -0.247794,0.98408 -0.472346,1.29025 -1.053209,1.43604 -1.319614,0.3312 -2.231687,1.22602 -3.149064,3.08947 -0.495099,1.00569 -0.90018,1.95749 -0.90018,2.11512 0,0.58241 -1.671409,0.89909 -5.69778,1.07953 -4.489811,0.20121 -7.478783,-0.0852 -10.903112,-1.04489 -2.449805,-0.68654 -3.31706,-0.7081 -4.471428,-0.11116 -1.287221,0.66565 -1.115951,1.46712 0.89375,4.18234 3.548327,4.794 10.502269,11.33056 14.977105,14.07816 1.041093,0.63925 1.944675,1.3176 2.007959,1.50745 0.06328,0.18985 -1.287197,1.84624 -3.001071,3.68085 -6.643622,7.11167 -10.896765,14.21356 -13.002159,21.71101 -1.378289,4.90818 -1.53012,6.4389 -0.783779,7.90185 0.786322,1.54132 2.455234,2.80804 4.798695,3.64225 1.873159,0.66681 2.128645,0.68433 8.059595,0.55268 3.368812,-0.0748 86.31425,-0.2609 184.32319,-0.41359 z m 237.66865,0.35338 c -18.37178,-0.0405 -48.43469,-0.0405 -66.80647,0 -18.37178,0.0405 -3.34033,0.0736 33.40323,0.0736 36.74356,0 51.77502,-0.0331 33.40324,-0.0736 z m 64.96011,-0.2581 c -0.19288,-0.078 -0.57748,-0.0828 -0.85467,-0.0106 -0.27718,0.0722 -0.11937,0.13608 0.35069,0.14189 0.47007,0.006 0.69686,-0.0533 0.50398,-0.13133 z m 6.26214,-0.57159 c -0.19586,-0.079 -0.51636,-0.079 -0.71222,0 -0.19587,0.079 -0.0356,0.1437 0.35611,0.1437 0.39172,0 0.55197,-0.0647 0.35611,-0.1437 z m 3.84006,-0.55322 c -0.0947,-0.0947 -0.34038,-0.10479 -0.54603,-0.0225 -0.22727,0.0909 -0.15976,0.15845 0.17212,0.17212 0.30032,0.0124 0.46858,-0.055 0.37391,-0.14963 z m 26.89307,-12.00688 c 0.35436,-0.45185 0.34429,-0.46193 -0.10756,-0.10757 -0.47456,0.37217 -0.62547,0.60612 -0.391,0.60612 0.0592,0 0.28351,-0.22435 0.49856,-0.49855 z m 1.95788,-1.63812 c 0.36801,-0.39172 0.605,-0.71222 0.52665,-0.71222 -0.0783,0 -0.44353,0.3205 -0.81154,0.71222 -0.368,0.39173 -0.605,0.71223 -0.52665,0.71223 0.0783,0 0.44354,-0.3205 0.81154,-0.71223 z m 4.4337,-4.487 0.83675,-0.92589 -0.92589,0.83675 c -0.50924,0.46021 -0.92589,0.87686 -0.92589,0.92589 0,0.22009 0.23507,0.0263 1.01503,-0.83675 z m 1.69141,-1.923 c 0.28361,-0.31338 0.45155,-0.56978 0.3732,-0.56978 -0.0783,0 -0.37448,0.2564 -0.65808,0.56978 -0.28361,0.31338 -0.45155,0.56978 -0.3732,0.56978 0.0783,0 0.37448,-0.2564 0.65808,-0.56978 z m 1.03346,-1.35322 c 0.35436,-0.45185 0.34428,-0.46193 -0.10757,-0.10756 -0.47455,0.37217 -0.62546,0.60611 -0.39099,0.60611 0.0592,0 0.28351,-0.22435 0.49856,-0.49855 z m 2.24277,-3.205 c 0.16771,-0.31338 0.24083,-0.56978 0.16249,-0.56978 -0.0783,0 -0.27967,0.2564 -0.44738,0.56978 -0.16772,0.31337 -0.24084,0.56977 -0.16249,0.56977 0.0783,0 0.27966,-0.2564 0.44738,-0.56977 z m 1.85178,-3.13378 c 0.24308,-0.47007 0.37786,-0.85467 0.29952,-0.85467 -0.0784,0 -0.34133,0.3846 -0.58441,0.85467 -0.24308,0.47006 -0.37787,0.85466 -0.29952,0.85466 0.0783,0 0.34133,-0.3846 0.58441,-0.85466 z m 1.83158,-3.846 c 0,-0.15669 -0.18321,0.0356 -0.40714,0.42733 -0.22393,0.39172 -0.40714,0.84042 -0.40714,0.99711 0,0.15669 0.18321,-0.0356 0.40714,-0.42733 0.22393,-0.39173 0.40714,-0.84043 0.40714,-0.99711 z m 0.86614,-1.99423 c 0,-0.15669 -0.12428,-0.0926 -0.27617,0.14245 -0.15189,0.23503 -0.27616,0.55553 -0.27616,0.71222 0,0.15669 0.12427,0.0926 0.27616,-0.14245 0.15189,-0.23503 0.27617,-0.55553 0.27617,-0.71222 z m -537.98624,-0.78344 0.836745,-0.92589 -0.925889,0.83674 c -0.509239,0.46021 -0.925889,0.87686 -0.925889,0.92589 0,0.2201 0.23507,0.0263 1.015033,-0.83674 z m 539.61402,-4.54042 c -0.0909,-0.22727 -0.15845,-0.15976 -0.17212,0.17212 -0.0124,0.30032 0.055,0.46858 0.14963,0.37392 0.0947,-0.0947 0.10479,-0.34039 0.0225,-0.54604 z m 0.28489,-1.13956 c -0.091,-0.22726 -0.15845,-0.15976 -0.17212,0.17212 -0.0124,0.30032 0.055,0.46859 0.14963,0.37392 0.0947,-0.0947 0.10478,-0.34038 0.0225,-0.54604 z m 0.27895,-1.44225 c -0.079,-0.19586 -0.14369,-0.0356 -0.14369,0.35611 0,0.39173 0.0647,0.55198 0.14369,0.35611 0.079,-0.19586 0.079,-0.51636 0,-0.71222 z M 55.553356,391.0543 c 0,-0.0541 -0.28845,-0.34251 -0.641,-0.641 l -0.641001,-0.54271 0.54271,0.641 c 0.510014,0.60239 0.739291,0.7707 0.739291,0.54271 z m 546.890674,-1.39737 c -0.079,-0.19586 -0.14369,-0.0356 -0.14369,0.35611 0,0.39172 0.0647,0.55197 0.14369,0.35611 0.079,-0.19586 0.079,-0.51636 0,-0.71222 z m -19.84602,-0.34932 c 0,-0.44455 -0.59972,-0.34071 -0.86193,0.14924 -0.29435,0.54999 -0.27208,0.57327 0.27059,0.28284 0.32524,-0.17406 0.59134,-0.3685 0.59134,-0.43208 z m 0.81526,-0.52909 c 0.23558,-0.28385 0.2204,-0.37985 -0.0601,-0.37985 -0.20643,0 -0.37532,0.17093 -0.37532,0.37985 0,0.20892 0.027,0.37985 0.0601,0.37985 0.0331,0 0.20195,-0.17093 0.37533,-0.37985 z m 19.32335,-0.97337 c -0.0716,-0.27421 -0.13028,-0.0499 -0.13028,0.49855 0,0.54842 0.0586,0.77277 0.13028,0.49856 0.0717,-0.27421 0.0717,-0.72291 0,-0.99711 z m -18.99905,-1.21078 c 0.16771,-0.31338 0.24083,-0.56978 0.16249,-0.56978 -0.0783,0 -0.27967,0.2564 -0.44738,0.56978 -0.16771,0.31338 -0.24084,0.56978 -0.16249,0.56978 0.0783,0 0.27966,-0.2564 0.44738,-0.56978 z m 1.8697,-0.35611 0.83674,-0.92589 -0.92588,0.83674 c -0.50924,0.46021 -0.92589,0.87686 -0.92589,0.92589 0,0.2201 0.23507,0.0263 1.01503,-0.83674 z m 17.73835,-5.34167 c 0.004,-1.80192 -0.0796,-3.85312 -0.18549,-4.55822 -0.10591,-0.7051 -0.19255,1.4743 -0.19255,4.84311 0,3.36881 0.0835,5.42001 0.18549,4.55822 0.10202,-0.86179 0.18867,-3.04119 0.19255,-4.84311 z m -553.490044,4.46544 c 0,-0.051 -0.35255,-0.40358 -0.783445,-0.78345 l -0.783445,-0.69066 0.690661,0.78345 c 0.645526,0.73225 0.876229,0.91409 0.876229,0.69066 z M 586.01089,382.6173 c 0.61204,-1.1997 0.74204,-1.72406 0.31711,-1.2791 -0.31079,0.32543 -1.18839,2.40731 -1.01479,2.40731 0.0672,0 0.38112,-0.50769 0.69768,-1.12821 z m 3.99424,-2.57535 c 0.16771,-0.31338 0.24083,-0.56978 0.16249,-0.56978 -0.0784,0 -0.27967,0.2564 -0.44738,0.56978 -0.16772,0.31338 -0.24084,0.56978 -0.16249,0.56978 0.0783,0 0.27966,-0.2564 0.44738,-0.56978 z M 44.637296,377.70942 c -0.09094,-0.22726 -0.15845,-0.15976 -0.17212,0.17212 -0.01237,0.30032 0.05496,0.46859 0.149629,0.37392 0.09467,-0.0947 0.104787,-0.34038 0.02249,-0.54604 z m 16.821571,-0.40359 c -0.09467,-0.0947 -0.340383,-0.10479 -0.546037,-0.0225 -0.227265,0.0909 -0.159759,0.15845 0.172121,0.17212 0.30032,0.0124 0.468583,-0.055 0.373916,-0.14963 z m -9.971115,-1.13956 c -0.09467,-0.0947 -0.340383,-0.10478 -0.546037,-0.0225 -0.227265,0.091 -0.159759,0.15845 0.17212,0.17212 0.300321,0.0124 0.468584,-0.055 0.373917,-0.14963 z m 16.219791,-2.4631 c 0.217558,-0.43089 0.331461,-0.78344 0.253116,-0.78344 -0.223623,0 -1.014268,1.63947 -0.989252,2.05129 0.01511,0.24872 0.0747,0.22999 0.181533,-0.0571 0.08747,-0.23503 0.337044,-0.77988 0.554603,-1.21078 z m 0.987046,-1.56689 c 0.354365,-0.45185 0.344289,-0.46192 -0.107561,-0.10756 -0.274206,0.21505 -0.498556,0.4394 -0.498556,0.49856 0,0.23447 0.233947,0.0836 0.606117,-0.391 z m 222.253731,-0.82787 c -0.19288,-0.078 -0.57748,-0.0828 -0.85467,-0.0105 -0.27719,0.0722 -0.11938,0.13608 0.35069,0.14188 0.47007,0.006 0.69686,-0.0533 0.50398,-0.13133 z m -103.09933,-0.55739 c 1.8224,-0.62096 1.52601,-0.78564 -0.34,-0.18892 l -1.48406,0.47459 -1.34943,-1.26637 -1.34943,-1.26637 1.2701,1.35322 c 0.69855,0.74427 1.41286,1.35322 1.58736,1.35322 0.1745,0 0.92395,-0.20672 1.66546,-0.45937 z M 71.45212,370.20574 c -0.08771,-0.0877 -0.247012,0.0704 -0.353997,0.35137 -0.154605,0.40602 -0.121882,0.43874 0.159479,0.15948 0.194699,-0.19325 0.282232,-0.42313 0.194518,-0.51085 z m 121.70262,-1.72184 c 0,-0.0783 -0.2564,-0.005 -0.56977,0.16249 -0.31338,0.16772 -0.56978,0.36904 -0.56978,0.44738 0,0.0784 0.2564,0.005 0.56978,-0.16249 0.31337,-0.16771 0.56977,-0.36904 0.56977,-0.44738 z M 74.871277,366.09243 c 0.578403,-0.15824 1.372143,-0.3467 1.763865,-0.41879 0.391722,-0.0721 0.0089,-0.0762 -0.850627,-0.009 -1.755414,0.13704 -2.601043,0.65268 -3.488451,2.12716 -0.573245,0.95249 -0.552578,0.94321 0.461732,-0.20723 0.659167,-0.74763 1.460644,-1.31345 2.113481,-1.49206 z M 194.4492,365.89829 c 0.9335,-1.22387 3.48501,-2.19349 5.31961,-2.02154 0.73899,0.0693 1.27628,0.017 1.19397,-0.11621 -0.25646,-0.41496 -3.33048,-0.235 -4.64441,0.2719 -1.40645,0.54259 -2.75912,2.03969 -3.01048,3.33195 -0.15807,0.81264 -0.15123,0.82006 0.13921,0.15096 0.168,-0.38704 0.61895,-1.11472 1.0021,-1.61706 z m 113.96236,-0.70165 c 0.10636,-0.1721 -0.1429,-0.0926 -0.55391,0.17674 -0.41102,0.26931 -0.7473,0.54352 -0.7473,0.60935 0,0.20609 1.09795,-0.45721 1.30121,-0.78609 z M 82.084372,364.72917 c 0.354365,-0.45185 0.344289,-0.46193 -0.107561,-0.10756 -0.474553,0.37217 -0.625468,0.60611 -0.390995,0.60611 0.05916,0 0.283509,-0.22435 0.498556,-0.49855 z m 228.754838,-1.39979 c 0.22111,-0.27528 -0.14282,-0.0675 -0.80875,0.46171 -0.66593,0.52922 -1.21078,1.01359 -1.21078,1.07638 0,0.20129 1.60304,-1.0196 2.01953,-1.53809 z m -129.74008,0.13559 c -0.0909,-0.22726 -0.15845,-0.15976 -0.17212,0.17212 -0.0124,0.30032 0.055,0.46859 0.14963,0.37392 0.0947,-0.0947 0.10479,-0.34038 0.0225,-0.54604 z m 235.61633,0.45108 c -0.0947,-0.0947 -0.34039,-0.10479 -0.54604,-0.0225 -0.22727,0.0909 -0.15976,0.15845 0.17212,0.17212 0.30032,0.0124 0.46858,-0.055 0.37392,-0.14963 z m 174.0635,-2.03577 c -0.0653,-0.4309 -0.11868,-0.0784 -0.11868,0.78344 0,0.86179 0.0534,1.21434 0.11868,0.78345 0.0653,-0.4309 0.0653,-1.136 0,-1.56689 z m -172.63906,1.75088 c -0.0947,-0.0947 -0.34038,-0.10479 -0.54604,-0.0225 -0.22726,0.0909 -0.15976,0.15845 0.17212,0.17212 0.30032,0.0124 0.46859,-0.055 0.37392,-0.14963 z m 1.42445,-0.28489 c -0.0947,-0.0947 -0.34039,-0.10479 -0.54604,-0.0225 -0.22727,0.0909 -0.15976,0.15845 0.17212,0.17212 0.30032,0.0124 0.46858,-0.055 0.37392,-0.14963 z m -214.30182,-0.96744 c 0.2836,-0.31337 0.45154,-0.56977 0.37319,-0.56977 -0.0783,0 -0.37448,0.2564 -0.65808,0.56977 -0.2836,0.31338 -0.45154,0.56978 -0.3732,0.56978 0.0784,0 0.37448,-0.2564 0.65809,-0.56978 z m 107.97293,-1.13955 c 0.93032,-0.94014 1.6274,-1.70934 1.54905,-1.70934 -0.0783,0 -0.90362,0.7692 -1.83394,1.70934 -0.93032,0.94013 -1.6274,1.70933 -1.54905,1.70933 0.0783,0 0.90362,-0.7692 1.83394,-1.70933 z m -132.41841,0.0766 c -0.0722,-0.27719 -0.13608,-0.11938 -0.14188,0.35069 -0.006,0.47007 0.0533,0.69686 0.13133,0.50398 0.078,-0.19288 0.0828,-0.57748 0.0105,-0.85467 z m 25.76382,-0.005 c 0.35436,-0.45185 0.34429,-0.46193 -0.10756,-0.10756 -0.27421,0.21505 -0.49856,0.4394 -0.49856,0.49855 0,0.23448 0.23395,0.0836 0.60612,-0.39099 z m 7.44742,-0.25809 c -0.19288,-0.078 -0.57748,-0.0828 -0.85467,-0.0106 -0.27719,0.0722 -0.11938,0.13608 0.35069,0.14189 0.47007,0.006 0.69686,-0.0533 0.50398,-0.13133 z m -33.48537,-4.45118 c -0.0598,-0.6612 -0.10793,-0.0484 -0.10706,1.36182 8.7e-4,1.4102 0.0498,1.95119 0.10864,1.20219 0.0589,-0.749 0.0582,-1.90281 -0.002,-2.56401 z m 29.63726,3.58764 c -0.27237,-0.0713 -0.78517,-0.0739 -1.13955,-0.006 -0.35438,0.0681 -0.13152,0.12648 0.49523,0.12965 0.62676,0.003 0.9167,-0.0526 0.64432,-0.1239 z m 380.59111,-1.72726 c -0.0717,-0.27421 -0.13029,-0.0499 -0.13029,0.49856 0,0.54841 0.0586,0.77276 0.13029,0.49855 0.0716,-0.2742 0.0716,-0.7229 0,-0.99711 z M 315.97824,358.1771 c 0.35437,-0.45185 0.34429,-0.46193 -0.10756,-0.10756 -0.47455,0.37217 -0.62546,0.60612 -0.39099,0.60612 0.0592,0 0.28351,-0.22435 0.49855,-0.49856 z m -89.42026,-1.11457 c -0.19586,-0.079 -0.51636,-0.079 -0.71222,0 -0.19586,0.079 -0.0356,0.1437 0.35611,0.1437 0.39172,0 0.55197,-0.0647 0.35611,-0.1437 z m 174.85063,0.0811 c 0,-0.0592 -0.22435,-0.28351 -0.49856,-0.49856 -0.45185,-0.35436 -0.46193,-0.34428 -0.10756,0.10757 0.37217,0.47455 0.60612,0.62546 0.60612,0.39099 z m -173.57456,-0.34945 c -0.0947,-0.0947 -0.34039,-0.10479 -0.54604,-0.0225 -0.22727,0.0909 -0.15976,0.15845 0.17212,0.17212 0.30032,0.0124 0.46858,-0.055 0.37392,-0.14963 z m 1.42444,-0.28489 c -0.0947,-0.0947 -0.34038,-0.10478 -0.54604,-0.0225 -0.22726,0.0909 -0.15976,0.15845 0.17212,0.17212 0.30032,0.0124 0.46859,-0.055 0.37392,-0.14963 z m 24.50046,0 c -0.0947,-0.0947 -0.34039,-0.10478 -0.54604,-0.0225 -0.22727,0.0909 -0.15976,0.15845 0.17212,0.17212 0.30032,0.0124 0.46858,-0.055 0.37392,-0.14963 z m -22.79113,-0.28489 c -0.0947,-0.0947 -0.34038,-0.10478 -0.54603,-0.0225 -0.22727,0.091 -0.15976,0.15845 0.17212,0.17212 0.30032,0.0124 0.46858,-0.055 0.37391,-0.14963 z m 21.08179,0 c -0.0947,-0.0947 -0.34038,-0.10478 -0.54604,-0.0225 -0.22726,0.091 -0.15976,0.15845 0.17212,0.17212 0.30032,0.0124 0.46859,-0.055 0.37392,-0.14963 z m -18.93376,-0.29963 c -0.19288,-0.078 -0.57748,-0.0828 -0.85467,-0.0106 -0.27719,0.0722 -0.11938,0.13608 0.35069,0.14189 0.47007,0.006 0.69686,-0.0533 0.50398,-0.13133 z m 17.08792,-0.002 c -0.19586,-0.079 -0.51636,-0.079 -0.71222,0 -0.19587,0.079 -0.0356,0.14369 0.35611,0.14369 0.39172,0 0.55197,-0.0647 0.35611,-0.14369 z m 149.78039,0.0959 c 0,-0.051 -0.35255,-0.40358 -0.78344,-0.78344 l -0.78345,-0.69066 0.69066,0.78344 c 0.64553,0.73225 0.87623,0.91409 0.87623,0.69066 z m -164.16397,-0.38785 c -0.27237,-0.0713 -0.78517,-0.0739 -1.13955,-0.006 -0.35438,0.0681 -0.13152,0.12648 0.49523,0.12964 0.62676,0.003 0.9167,-0.0526 0.64432,-0.1239 z m 11.96534,0 c -0.27238,-0.0713 -0.78518,-0.0739 -1.13955,-0.006 -0.35438,0.0681 -0.13152,0.12648 0.49523,0.12964 0.62676,0.003 0.9167,-0.0526 0.64432,-0.1239 z m -4.83527,-0.29934 c -0.89482,-0.0564 -2.43322,-0.0568 -3.41867,-10e-4 -0.98544,0.0558 -0.25332,0.10189 1.62695,0.10246 1.88027,5.6e-4 2.68654,-0.0451 1.79172,-0.10144 z m 75.84054,-1.21425 c 0.16771,-0.31338 0.24083,-0.56978 0.16249,-0.56978 -0.0784,0 -0.27967,0.2564 -0.44738,0.56978 -0.16772,0.31338 -0.24084,0.56978 -0.1625,0.56978 0.0784,0 0.27967,-0.2564 0.44739,-0.56978 z m -137.9825,-0.641 c -0.079,-0.19586 -0.14369,-0.0356 -0.14369,0.35611 0,0.39173 0.0647,0.55198 0.14369,0.35611 0.079,-0.19586 0.079,-0.51636 0,-0.71222 z m 216.61186,0.25782 c 0,-0.0541 -0.28845,-0.34251 -0.641,-0.641 l -0.641,-0.54271 0.54271,0.641 c 0.51001,0.60238 0.73929,0.7707 0.73929,0.54271 z m 18.7124,-0.80979 c -0.091,-0.22727 -0.15845,-0.15976 -0.17212,0.17212 -0.0124,0.30032 0.055,0.46858 0.14963,0.37392 0.0947,-0.0947 0.10478,-0.34039 0.0225,-0.54604 z M 97.341762,352.63919 c -0.09094,-0.22727 -0.15845,-0.15976 -0.17212,0.17212 -0.01237,0.30032 0.05496,0.46858 0.149629,0.37392 0.09467,-0.0947 0.104787,-0.34039 0.02249,-0.54604 z m 295.805068,-3.18792 c 0,-0.0592 -0.22435,-0.28351 -0.49856,-0.49856 -0.45185,-0.35436 -0.46193,-0.34429 -0.10756,0.10756 0.37217,0.47455 0.60612,0.62547 0.60612,0.391 z M 98.970014,347.35094 c 0.258984,-0.50924 0.40678,-0.92589 0.328436,-0.92589 -0.164091,0 -1.011744,1.57937 -1.011744,1.88511 0,0.29746 0.154487,0.0806 0.683308,-0.95922 z M 321.54941,347.2263 c -0.091,-0.22727 -0.15845,-0.15976 -0.17212,0.17212 -0.0124,0.30032 0.055,0.46858 0.14963,0.37392 0.0947,-0.0947 0.10478,-0.34039 0.0225,-0.54604 z m 70.17297,0.51563 c 0,-0.0592 -0.22435,-0.28351 -0.49856,-0.49855 -0.45185,-0.35437 -0.46192,-0.34429 -0.10756,0.10756 0.37217,0.47455 0.60612,0.62547 0.60612,0.39099 z m -69.43258,-3.73844 c 0.0983,-0.8107 0.0745,-1.17894 -0.0552,-0.85467 -0.12528,0.31338 -0.30373,1.27488 -0.39654,2.13667 -0.0986,0.91535 -0.0756,1.27074 0.0552,0.85467 0.12315,-0.39172 0.30159,-1.35322 0.39654,-2.13667 z m 68.57791,2.59889 c 0,-0.0592 -0.22435,-0.28351 -0.49855,-0.49856 -0.45185,-0.35436 -0.46193,-0.34429 -0.10756,0.10756 0.37217,0.47455 0.60611,0.62547 0.60611,0.391 z M 101.42049,343.7186 c 0.53154,-0.54841 0.90233,-0.99711 0.82399,-0.99711 -0.0784,0 -0.57734,0.4487 -1.10888,0.99711 -0.53154,0.54841 -0.90234,0.99711 -0.824,0.99711 0.0784,0 0.57734,-0.4487 1.10889,-0.99711 z m 310.15384,0.37392 c -0.0909,-0.22727 -0.15845,-0.15976 -0.17212,0.17212 -0.0124,0.30032 0.055,0.46858 0.14963,0.37392 0.0947,-0.0947 0.10479,-0.34039 0.0225,-0.54604 z m -0.27507,-2.72033 c -0.0655,-0.43305 -0.12081,-0.14637 -0.12295,0.63708 -0.002,0.78344 0.0514,1.13776 0.11906,0.78736 0.0676,-0.3504 0.0694,-0.9914 0.004,-1.42444 z m -92.22358,-0.75248 c 0,-0.0592 -0.22435,-0.28351 -0.49855,-0.49856 -0.45185,-0.35436 -0.46193,-0.34429 -0.10756,0.10756 0.37217,0.47456 0.60611,0.62547 0.60611,0.391 z m -209.88655,-0.64909 c -0.19288,-0.078 -0.57748,-0.0828 -0.85466,-0.0106 -0.27719,0.0722 -0.11938,0.13609 0.35069,0.14189 0.47006,0.006 0.69685,-0.0533 0.50397,-0.13133 z m 4.40443,0.0147 c -0.0947,-0.0947 -0.34039,-0.10479 -0.54604,-0.0225 -0.22727,0.0909 -0.15976,0.15845 0.17212,0.17212 0.30032,0.0124 0.46858,-0.055 0.37392,-0.14963 z M 579.74912,339.58 c 1.15768,-0.22609 1.11107,-0.23668 -0.48063,-0.10921 l -1.76264,0.14116 -0.11247,-1.08045 -0.11248,-1.08046 -0.0479,1.21078 c -0.0539,1.36194 0.0499,1.39981 2.51611,0.91818 z m -272.27875,-2.47194 c -0.35039,-0.0676 -0.99139,-0.0694 -1.42444,-0.004 -0.43305,0.0655 -0.14636,0.12081 0.63708,0.12295 0.78345,0.002 1.13776,-0.0514 0.78736,-0.11906 z M 196.49626,336.5667 c -0.0947,-0.0947 -0.34039,-0.10479 -0.54604,-0.0225 -0.22727,0.0909 -0.15976,0.15845 0.17212,0.17212 0.30032,0.0124 0.46858,-0.055 0.37392,-0.14963 z m 187.24923,0.0646 c 0,-0.0592 -0.22435,-0.28351 -0.49856,-0.49856 -0.45185,-0.35436 -0.46192,-0.34428 -0.10756,0.10757 0.37217,0.47455 0.60612,0.62546 0.60612,0.39099 z m -1.13956,-1.42444 c 0,-0.0592 -0.22435,-0.28351 -0.49855,-0.49856 -0.45185,-0.35437 -0.46193,-0.34429 -0.10756,0.10756 0.37217,0.47455 0.60611,0.62547 0.60611,0.391 z m -178.58906,-1.81544 c 0.35436,-0.45185 0.34428,-0.46193 -0.10757,-0.10757 -0.47455,0.37217 -0.62546,0.60612 -0.39099,0.60612 0.0592,0 0.28351,-0.22435 0.49856,-0.49855 z M 135.6435,332.8216 c 0.35437,-0.45185 0.34429,-0.46193 -0.10756,-0.10756 -0.2742,0.21504 -0.49855,0.43939 -0.49855,0.49855 0,0.23448 0.23394,0.0836 0.60611,-0.39099 z m 244.68332,-0.17879 c 0,-0.0591 -0.22435,-0.2835 -0.49856,-0.49855 -0.45185,-0.35437 -0.46192,-0.34429 -0.10756,0.10756 0.37217,0.47455 0.60612,0.62547 0.60612,0.39099 z m -240.87365,-3.88088 c 1.56101,-1.56689 2.7741,-2.84889 2.69575,-2.84889 -0.0783,0 -1.41963,1.282 -2.98064,2.84889 -1.56101,1.56689 -2.7741,2.84889 -2.69576,2.84889 0.0784,0 1.41964,-1.282 2.98065,-2.84889 z m 238.59454,1.88666 c 0,-0.0592 -0.22435,-0.28351 -0.49856,-0.49855 -0.45185,-0.35437 -0.46192,-0.34429 -0.10756,0.10756 0.37217,0.47455 0.60612,0.62546 0.60612,0.39099 z m -87.24394,-0.65796 c -0.27238,-0.0713 -0.78518,-0.0739 -1.13955,-0.006 -0.35438,0.0682 -0.13153,0.12649 0.49523,0.12965 0.62676,0.003 0.9167,-0.0526 0.64432,-0.1239 z m 86.10438,-0.18193 c 0,-0.051 -0.35255,-0.40358 -0.78344,-0.78344 l -0.78345,-0.69066 0.69066,0.78344 c 0.64553,0.73225 0.87623,0.91409 0.87623,0.69066 z m 36.09063,-1.10019 c -0.091,-0.22726 -0.15845,-0.15976 -0.17212,0.17212 -0.0124,0.30032 0.055,0.46859 0.14963,0.37392 0.0947,-0.0947 0.10478,-0.34038 0.0225,-0.54604 z M 284.889,328.39048 c 0,-0.0476 -0.48075,-0.52836 -1.06833,-1.06833 l -1.06833,-0.98178 0.98177,1.06834 c 0.91382,0.99438 1.15489,1.19932 1.15489,0.98177 z m -141.44739,-3.33211 c 0.28361,-0.31338 0.45155,-0.56978 0.3732,-0.56978 -0.0783,0 -0.37448,0.2564 -0.65809,0.56978 -0.2836,0.31338 -0.45154,0.56978 -0.37319,0.56978 0.0783,0 0.37448,-0.2564 0.65808,-0.56978 z m 226.9141,-2.42155 c -1.16733,-1.17517 -2.18651,-2.13667 -2.26486,-2.13667 -0.0783,0 0.81264,0.9615 1.97997,2.13667 1.16732,1.17516 2.1865,2.13666 2.26485,2.13666 0.0783,0 -0.81264,-0.9615 -1.97996,-2.13666 z m 46.72179,-0.34421 c 0,-0.21392 -0.25578,0.0123 -1.43635,1.27009 l -1.27009,1.35323 1.35322,-1.2701 c 0.74427,-0.69855 1.35322,-1.3075 1.35322,-1.35322 z m -272.03266,1.41254 c 0.35437,-0.45185 0.34429,-0.46193 -0.10756,-0.10756 -0.47455,0.37217 -0.62547,0.60611 -0.39099,0.60611 0.0592,0 0.28351,-0.22435 0.49855,-0.49855 z m 56.94146,-0.17878 c 0,-0.0592 -0.22435,-0.28351 -0.49855,-0.49856 -0.45185,-0.35437 -0.46193,-0.34429 -0.10756,0.10756 0.37217,0.47455 0.60611,0.62547 0.60611,0.391 z m -55.8019,-0.67589 c 0.35436,-0.45185 0.34429,-0.46192 -0.10756,-0.10756 -0.27421,0.21505 -0.49856,0.4394 -0.49856,0.49856 0,0.23447 0.23395,0.0836 0.60612,-0.391 z m 134.62588,-1.26419 c -0.0909,-0.22727 -0.15845,-0.15976 -0.17212,0.17212 -0.0124,0.30032 0.055,0.46858 0.14963,0.37391 0.0947,-0.0947 0.10479,-0.34038 0.0225,-0.54603 z m 145.30651,-0.11871 c -0.0947,-0.0947 -0.34038,-0.10478 -0.54603,-0.0225 -0.22727,0.091 -0.15976,0.15845 0.17212,0.17212 0.30032,0.0124 0.46858,-0.055 0.37391,-0.14963 z m -1.84584,-0.30144 c -0.19586,-0.079 -0.51636,-0.079 -0.71222,0 -0.19586,0.079 -0.0356,0.14369 0.35611,0.14369 0.39172,0 0.55197,-0.0647 0.35611,-0.14369 z m -2.27911,-0.29727 c -0.35255,-0.0679 -0.92945,-0.0679 -1.282,0 -0.35255,0.0679 -0.0641,0.12346 0.641,0.12346 0.7051,0 0.99355,-0.0556 0.641,-0.12346 z m 143.58406,-0.27251 c -0.19587,-0.079 -0.51637,-0.079 -0.71223,0 -0.19586,0.079 -0.0356,0.14369 0.35611,0.14369 0.39173,0 0.55198,-0.0647 0.35612,-0.14369 z m -197.7842,-0.1945 c 0,-0.0541 -0.28845,-0.34251 -0.641,-0.641 l -0.641,-0.54271 0.54271,0.641 c 0.51002,0.60238 0.73929,0.77069 0.73929,0.54271 z m 196.07486,-0.0904 c -0.19586,-0.079 -0.37532,-0.61376 -0.3988,-1.18829 -0.0367,-0.89853 -0.0596,-0.93168 -0.16369,-0.23708 -0.14884,0.99332 0.0696,1.62137 0.55355,1.59156 0.28593,-0.0176 0.28786,-0.0536 0.009,-0.16619 z m -283.05628,-0.71941 c -0.0909,-0.22726 -0.15845,-0.15976 -0.17212,0.17212 -0.0124,0.30032 0.055,0.46859 0.14963,0.37392 0.0947,-0.0947 0.10479,-0.34038 0.0225,-0.54604 z m 85.55698,-0.36389 c 0,-0.0728 -0.28845,-0.2722 -0.641,-0.44305 -0.61554,-0.29829 -0.61904,-0.29303 -0.088,0.13242 0.58124,0.46568 0.72899,0.52863 0.72899,0.31063 z m 75.98821,-0.0397 c -0.0947,-0.0947 -0.34039,-0.10479 -0.54604,-0.0225 -0.22727,0.0909 -0.15976,0.15845 0.17212,0.17212 0.30032,0.0124 0.46858,-0.055 0.37392,-0.14963 z m 2.99727,-0.87122 c -0.19587,-0.079 -0.51637,-0.079 -0.71223,0 -0.19586,0.079 -0.0356,0.14369 0.35611,0.14369 0.39173,0 0.55198,-0.0647 0.35612,-0.14369 z m 2.06544,-0.3811 c 0.72596,-0.31196 -0.023,-0.31196 -0.99711,0 -0.57255,0.18336 -0.60049,0.22973 -0.14245,0.23646 0.31338,0.005 0.82618,-0.1018 1.13956,-0.23646 z m 11.32434,-0.18868 c -0.19586,-0.079 -0.51636,-0.079 -0.71222,0 -0.19587,0.079 -0.0356,0.14369 0.35611,0.14369 0.39172,0 0.55197,-0.0647 0.35611,-0.14369 z m 1.06833,-0.0962 c 0,-0.15669 -0.0565,-0.28489 -0.12563,-0.28489 -0.0691,0 -0.20486,0.1282 -0.3017,0.28489 -0.0968,0.15669 -0.0403,0.28489 0.12563,0.28489 0.16594,0 0.3017,-0.1282 0.3017,-0.28489 z m -10.17936,-0.18687 c -0.19288,-0.078 -0.57748,-0.0828 -0.85466,-0.0106 -0.27719,0.0722 -0.11938,0.13608 0.35068,0.14189 0.47007,0.006 0.69686,-0.0533 0.50398,-0.13133 z m 7.25331,0.0147 c -0.0947,-0.0947 -0.34038,-0.10479 -0.54603,-0.0225 -0.22727,0.0909 -0.15976,0.15845 0.17212,0.17212 0.30032,0.0124 0.46858,-0.055 0.37391,-0.14963 z m -175.50474,-0.73597 c -0.091,-0.22726 -0.15845,-0.15976 -0.17212,0.17212 -0.0124,0.30032 0.055,0.46859 0.14963,0.37392 0.0947,-0.0947 0.10478,-0.34038 0.0225,-0.54604 z m 170.24023,0.43452 c -0.19586,-0.079 -0.51636,-0.079 -0.71222,0 -0.19586,0.079 -0.0356,0.1437 0.35611,0.1437 0.39172,0 0.55197,-0.0647 0.35611,-0.1437 z m 111.32458,-1.534 -0.30516,-0.69888 0.14659,0.71222 c 0.0806,0.39173 0.1658,0.96863 0.18928,1.282 0.0416,0.55509 0.0457,0.55474 0.15856,-0.0133 0.0637,-0.32072 -0.0214,-0.89762 -0.18927,-1.282 z M 354.9717,314.40992 c 0,-0.0592 -0.22435,-0.28351 -0.49856,-0.49856 -0.45185,-0.35436 -0.46192,-0.34429 -0.10756,0.10756 0.37217,0.47456 0.60612,0.62547 0.60612,0.391 z m -184.40034,-1.48901 c -0.0947,-0.0947 -0.34039,-0.10478 -0.54604,-0.0225 -0.22727,0.091 -0.15976,0.15845 0.17212,0.17212 0.30032,0.0124 0.46858,-0.055 0.37392,-0.14963 z m 9.97111,0 c -0.0947,-0.0947 -0.34038,-0.10478 -0.54604,-0.0225 -0.22726,0.091 -0.15976,0.15845 0.17212,0.17212 0.30032,0.0124 0.46859,-0.055 0.37392,-0.14963 z m -4.12495,-0.32136 c -0.66593,-0.06 -1.75563,-0.06 -2.42156,0 -0.66593,0.06 -0.12108,0.10905 1.21078,0.10905 1.33185,0 1.8767,-0.0491 1.21078,-0.10905 z m 281.59372,-0.4146 c -0.0909,-0.22727 -0.15845,-0.15976 -0.17212,0.17212 -0.0124,0.30032 0.055,0.46858 0.14963,0.37392 0.0947,-0.0947 0.10479,-0.34039 0.0225,-0.54604 z m -173.37079,-1.86959 c 0.35437,-0.45184 0.34429,-0.46192 -0.10756,-0.10756 -0.47455,0.37217 -0.62547,0.60612 -0.39099,0.60612 0.0592,0 0.28351,-0.22435 0.49855,-0.49856 z m 173.36486,-1.282 c -0.079,-0.19586 -0.1437,-0.0356 -0.1437,0.35612 0,0.39172 0.0647,0.55197 0.1437,0.35611 0.079,-0.19586 0.079,-0.51636 0,-0.71223 z m -172.51019,0.14245 c 0.35437,-0.45185 0.34429,-0.46193 -0.10756,-0.10756 -0.47455,0.37217 -0.62547,0.60611 -0.39099,0.60611 0.0591,0 0.2835,-0.22435 0.49855,-0.49855 z m 64.63347,0.39099 c 0,-0.0592 -0.22435,-0.28351 -0.49856,-0.49855 -0.45185,-0.35437 -0.46193,-0.34429 -0.10756,0.10756 0.37217,0.47455 0.60612,0.62547 0.60612,0.39099 z m -62.53314,-2.74133 c 0.77166,-0.78344 1.33893,-1.42444 1.26058,-1.42444 -0.0783,0 -0.77381,0.641 -1.54547,1.42444 -0.77166,0.78345 -1.33893,1.42445 -1.26058,1.42445 0.0783,0 0.77381,-0.641 1.54547,-1.42445 z m 2.27911,-1.99422 c 0.2836,-0.31338 0.45154,-0.56978 0.3732,-0.56978 -0.0784,0 -0.37448,0.2564 -0.65809,0.56978 -0.2836,0.31338 -0.45154,0.56978 -0.3732,0.56978 0.0784,0 0.37449,-0.2564 0.65809,-0.56978 z m 5.55534,-3.57574 c 0,-0.0784 -0.3846,0.0564 -0.85467,0.29952 -0.47007,0.24308 -0.85467,0.50606 -0.85467,0.58441 0,0.0783 0.3846,-0.0564 0.85467,-0.29952 0.47007,-0.24308 0.85467,-0.50607 0.85467,-0.58441 z m 167.26618,-0.91126 c 0.35437,-0.45185 0.34429,-0.46193 -0.10756,-0.10756 -0.27421,0.21504 -0.49856,0.43939 -0.49856,0.49855 0,0.23448 0.23395,0.0836 0.60612,-0.39099 z m -160.22112,-1.66779 c -0.0947,-0.0947 -0.34038,-0.10479 -0.54603,-0.0225 -0.22727,0.0909 -0.15976,0.15845 0.17212,0.17212 0.30032,0.0124 0.46858,-0.055 0.37391,-0.14963 z m 160.94917,-0.45107 c -0.0909,-0.22727 -0.15845,-0.15976 -0.17212,0.17212 -0.0124,0.30032 0.055,0.46858 0.14963,0.37391 0.0947,-0.0947 0.10479,-0.34038 0.0225,-0.54603 z m -159.80961,0.16618 c -0.0947,-0.0947 -0.34038,-0.10478 -0.54604,-0.0225 -0.22726,0.091 -0.15976,0.15845 0.17212,0.17212 0.30032,0.0124 0.46859,-0.055 0.37392,-0.14963 z m 1.13956,-0.28489 c -0.0947,-0.0947 -0.34039,-0.10478 -0.54604,-0.0225 -0.22727,0.091 -0.15976,0.15845 0.17212,0.17212 0.30032,0.0124 0.46858,-0.055 0.37392,-0.14963 z m 21.93645,0 c -0.0947,-0.0947 -0.34038,-0.10478 -0.54604,-0.0225 -0.22726,0.091 -0.15976,0.15845 0.17212,0.17212 0.30032,0.0124 0.46859,-0.055 0.37392,-0.14963 z m 228.27325,0.0646 c 0,-0.0592 -0.22435,-0.28351 -0.49856,-0.49855 -0.45185,-0.35437 -0.46192,-0.34429 -0.10756,0.10756 0.37217,0.47455 0.60612,0.62547 0.60612,0.39099 z m -248.78526,-0.34945 c -0.0947,-0.0947 -0.34038,-0.10478 -0.54604,-0.0225 -0.22726,0.0909 -0.15975,0.15845 0.17212,0.17212 0.30033,0.0124 0.46859,-0.055 0.37392,-0.14963 z m 18.95106,-0.0165 c -0.19587,-0.079 -0.51637,-0.079 -0.71223,0 -0.19586,0.079 -0.0356,0.14369 0.35611,0.14369 0.39173,0 0.55198,-0.0647 0.35612,-0.14369 z m -17.37823,-0.28489 c -0.19586,-0.079 -0.51636,-0.079 -0.71223,0 -0.19586,0.079 -0.0356,0.14369 0.35612,0.14369 0.39172,0 0.55197,-0.0647 0.35611,-0.14369 z m 15.66889,0 c -0.19586,-0.079 -0.51636,-0.079 -0.71222,0 -0.19586,0.079 -0.0356,0.14369 0.35611,0.14369 0.39172,0 0.55197,-0.0647 0.35611,-0.14369 z m -13.24734,-0.29259 c -0.2742,-0.0717 -0.7229,-0.0717 -0.99711,0 -0.2742,0.0717 -0.0498,0.13028 0.49856,0.13028 0.54841,0 0.77276,-0.0586 0.49855,-0.13028 z m 11.114,6.4e-4 c -0.27238,-0.0713 -0.78518,-0.0739 -1.13956,-0.006 -0.35438,0.0681 -0.13152,0.12648 0.49523,0.12964 0.62676,0.003 0.9167,-0.0526 0.64433,-0.12389 z m -4.27666,-0.30041 c -1.05765,-0.0548 -2.78835,-0.0548 -3.846,0 -1.05765,0.0548 -0.1923,0.0997 1.923,0.0997 2.1153,0 2.98065,-0.0448 1.923,-0.0997 z m 222.40864,-5.45667 c 0.0867,-0.14027 -0.0274,-0.32604 -0.25357,-0.41283 -0.27428,-0.10525 -0.35844,-0.0203 -0.25277,0.25504 0.18364,0.47856 0.28799,0.51108 0.50634,0.15779 z m -0.69377,-0.98281 c 0,-0.0541 -0.28845,-0.34251 -0.641,-0.641 l -0.641,-0.54271 0.54271,0.641 c 0.51001,0.60238 0.73929,0.77069 0.73929,0.54271 z m -1.42445,-1.69567 c 0,-0.0466 -0.54485,-0.5914 -1.21078,-1.21078 l -1.21078,-1.12615 1.12616,1.21078 c 1.04731,1.12601 1.2954,1.34169 1.2954,1.12615 z m -67.76724,-3.26282 c 0.35436,-0.45185 0.34429,-0.46193 -0.10756,-0.10756 -0.27421,0.21505 -0.49856,0.4394 -0.49856,0.49855 0,0.23448 0.23395,0.0836 0.60612,-0.39099 z m 2.24277,-1.37327 c 0,-0.0783 -0.2564,-0.005 -0.56978,0.16249 -0.31338,0.16772 -0.56978,0.36904 -0.56978,0.44738 0,0.0784 0.2564,0.005 0.56978,-0.16249 0.31338,-0.16771 0.56978,-0.36904 0.56978,-0.44738 z m 60.96625,0.0549 c 0,-0.0592 -0.22435,-0.28351 -0.49856,-0.49856 -0.45185,-0.35436 -0.46192,-0.34428 -0.10756,0.10757 0.37217,0.47455 0.60612,0.62546 0.60612,0.39099 z m -56.69291,-2.31399 c 0.39172,-0.22393 0.58402,-0.40715 0.42733,-0.40715 -0.15669,0 -0.60539,0.18322 -0.99711,0.40715 -0.39172,0.22392 -0.58402,0.40714 -0.42734,0.40714 0.15669,0 0.60539,-0.18322 0.99712,-0.40714 z m 53.84402,0.29491 c 0,-0.0728 -0.28845,-0.27221 -0.641,-0.44305 -0.61554,-0.29829 -0.61904,-0.29303 -0.088,0.13242 0.58125,0.46568 0.729,0.52863 0.729,0.31063 z m -23.77031,-1.36325 0.83674,-0.92589 -0.92589,0.83675 c -0.86306,0.77996 -1.05684,1.01503 -0.83674,1.01503 0.049,0 0.46568,-0.41665 0.92589,-0.92589 z m 13.43715,0.46888 c -0.0947,-0.0947 -0.34039,-0.10479 -0.54604,-0.0225 -0.22727,0.0909 -0.15976,0.15845 0.17212,0.17212 0.30032,0.0124 0.46858,-0.055 0.37392,-0.14963 z m 8.05405,-0.39766 c -0.23504,-0.15189 -0.55554,-0.27616 -0.71223,-0.27616 -0.15669,0 -0.0926,0.12427 0.14245,0.27616 0.23503,0.15189 0.55553,0.27617 0.71222,0.27617 0.15669,0 0.0926,-0.12428 -0.14244,-0.27617 z m -47.36874,-0.45701 c -0.0947,-0.0947 -0.34038,-0.10478 -0.54603,-0.0225 -0.22727,0.091 -0.15976,0.15845 0.17212,0.17212 0.30032,0.0124 0.46858,-0.055 0.37391,-0.14963 z m 1.13956,-0.28488 c -0.0947,-0.0947 -0.34038,-0.10479 -0.54604,-0.0225 -0.22726,0.0909 -0.15976,0.15845 0.17212,0.17212 0.30032,0.0124 0.46859,-0.055 0.37392,-0.14962 z m 43.30906,-0.0354 c -0.58758,-0.0615 -1.54908,-0.0615 -2.13666,0 -0.58759,0.0615 -0.10684,0.11175 1.06833,0.11175 1.17517,0 1.65592,-0.0503 1.06833,-0.11175 z m -42.1695,-0.24947 c -0.0947,-0.0947 -0.34039,-0.10479 -0.54604,-0.0225 -0.22727,0.091 -0.15976,0.15846 0.17212,0.17213 0.30032,0.0124 0.46858,-0.055 0.37392,-0.14963 z m 12.53511,0 c -0.0947,-0.0947 -0.34038,-0.10479 -0.54604,-0.0225 -0.22726,0.091 -0.15975,0.15846 0.17212,0.17213 0.30033,0.0124 0.46859,-0.055 0.37392,-0.14963 z m -10.6774,-0.30145 c -0.19586,-0.079 -0.51636,-0.079 -0.71222,0 -0.19586,0.079 -0.0356,0.1437 0.35611,0.1437 0.39172,0 0.55197,-0.0647 0.35611,-0.1437 z m 9.40134,0 c -0.19587,-0.079 -0.51637,-0.079 -0.71223,0 -0.19586,0.079 -0.0356,0.1437 0.35611,0.1437 0.39173,0 0.55198,-0.0647 0.35612,-0.1437 z m -7.27061,-0.26833 c -0.0947,-0.0947 -0.34038,-0.10479 -0.54604,-0.0225 -0.22726,0.0909 -0.15975,0.15845 0.17212,0.17212 0.30032,0.0124 0.46859,-0.055 0.37392,-0.14963 z m 5.84616,-0.0166 c -0.19586,-0.079 -0.51636,-0.079 -0.71222,0 -0.19586,0.079 -0.0356,0.1437 0.35611,0.1437 0.39172,0 0.55197,-0.0647 0.35611,-0.1437 z m 18.36941,-1.123 c -0.0947,-0.0947 -0.34039,-0.10479 -0.54604,-0.0225 -0.22727,0.0909 -0.15976,0.15845 0.17212,0.17212 0.30032,0.0124 0.46858,-0.055 0.37392,-0.14963 z m 1.13955,0 c -0.0947,-0.0947 -0.34038,-0.10479 -0.54603,-0.0225 -0.22727,0.0909 -0.15976,0.15845 0.17212,0.17212 0.30032,0.0124 0.46858,-0.055 0.37391,-0.14963 z"
       id="path4" /></g></svg>
