<?xml version="1.0" encoding="UTF-8" standalone="no"?>
<!-- Created with Inkscape (http://www.inkscape.org/) -->

<svg
   version="1.1"
   id="svg1"
   width="680.31494"
   height="475.19492"
   viewBox="0 0 680.31494 475.1949"
   sodipodi:docname="Kunpeng2-2.PNG"
   xml:space="preserve"
   inkscape:export-filename="../../3-Wave/SVG/wave1.svg"
   inkscape:export-xdpi="96"
   inkscape:export-ydpi="96"
   xmlns:inkscape="http://www.inkscape.org/namespaces/inkscape"
   xmlns:sodipodi="http://sodipodi.sourceforge.net/DTD/sodipodi-0.dtd"
   xmlns="http://www.w3.org/2000/svg"
   xmlns:svg="http://www.w3.org/2000/svg"><defs
     id="defs1" /><sodipodi:namedview
     id="namedview1"
     pagecolor="#ffffff"
     bordercolor="#000000"
     borderopacity="0.25"
     inkscape:showpageshadow="2"
     inkscape:pageopacity="0.0"
     inkscape:pagecheckerboard="0"
     inkscape:deskcolor="#d1d1d1"
     showguides="true" /><g
     inkscape:groupmode="layer"
     inkscape:label="Image"
     id="g1"><path
       style="fill:#000000"
       d="m 589.43535,264.34373 c -2.89875,-0.1274 -20.65445,-0.49501 -39.45713,-0.81691 -61.75848,-1.0573 -113.98836,-1.98439 -168.65429,-2.99365 -29.61421,-0.54674 -64.67692,-1.18796 -77.91714,-1.42492 -13.24022,-0.23696 -33.94453,-0.62106 -46.00957,-0.85355 -12.06505,-0.23249 -32.96166,-0.61771 -46.43691,-0.85603 -13.47525,-0.23833 -30.26946,-0.55823 -37.32046,-0.71088 -7.051,-0.15266 -19.55051,-0.41874 -27.77668,-0.59129 -8.22617,-0.17255 -16.55917,-0.39918 -18.51779,-0.50361 l -3.56111,-0.18988 -0.0871,-1.20082 c -0.0629,-0.8664 0.0765,-1.42216 0.50048,-1.99559 1.43103,-1.93557 1.38825,-6.48749 -0.11618,-12.36393 -3.15457,-12.32198 -13.42476,-29.65589 -24.303353,-41.01888 -6.58843,-6.88181 -12.783703,-11.25327 -17.515391,-12.3591 -1.76083,-0.41151 -1.789569,-0.40838 -2.468425,0.26907 -0.569816,0.56863 -0.677871,0.93919 -0.634141,2.17471 0.119312,3.371 -1.508506,6.13616 -4.455555,7.5686 -1.433501,0.69677 -1.957656,0.79256 -4.337011,0.79256 -2.396692,0 -2.898422,-0.0933 -4.383821,-0.8147 -1.914972,-0.9301 -3.607923,-2.49879 -4.394331,-4.0718 -0.297007,-0.59408 -0.69962,-2.09463 -0.894696,-3.33455 -1.020288,-6.48503 1.734341,-12.8766 6.795234,-15.76699 l 1.532718,-0.87537 -1.820331,-0.91784 c -7.992924,-4.03014 -15.23964,-13.35349 -19.726214,-25.37898 -2.488861,-6.67097 -3.430888,-11.95234 -3.423124,-19.19134 0.0065,-6.0153 0.371538,-8.39766 1.686341,-11.00415 0.895803,-1.77586 1.09872,-1.94806 2.302509,-1.95394 1.152573,-0.006 2.78628,1.73618 3.252551,3.46778 0.655487,2.43429 3.471283,7.16653 5.815246,9.77312 l 1.535239,1.70725 -0.979592,-3.23111 c -2.069241,-6.82523 -3.193887,-15.76824 -2.694243,-21.42419 0.362994,-4.10907 1.015155,-6.829182 2.284203,-9.527221 1.381601,-2.937332 2.720512,-4.445568 4.927286,-5.550412 1.60778,-0.804952 1.999533,-0.883412 4.157855,-0.832732 l 2.382832,0.05595 0.775211,-2.391739 C 71.971924,78.37534 78.308854,70.839373 82.876876,70.096862 l 0.971921,-0.157981 0.08439,-2.387503 c 0.04641,-1.313127 0.226365,-3.107619 0.39989,-3.98776 1.875518,-9.512895 9.262525,-19.515041 16.450523,-22.274322 2.37121,-0.910242 5.49938,-0.895961 7.15162,0.03265 1.10334,0.62011 1.24942,0.641872 1.48484,0.221202 2.90408,-5.189298 12.3367,-10.777978 18.18456,-10.774068 1.63707,0.0011 3.44432,0.771811 3.44432,1.468853 0,0.186305 0.2902,0.06611 0.64489,-0.267104 1.87644,-1.762823 5.99641,-2.154691 8.75645,-0.832864 0.86179,0.412725 2.01559,1.061751 2.564,1.44228 l 0.99711,0.69187 1.7464,-0.97258 c 4.08363,-2.274193 8.44346,-3.313741 13.9225,-3.319646 8.98001,-0.0097 16.42729,2.924628 22.22134,8.75544 2.63608,2.652804 3.9794,4.608365 5.14088,7.483877 0.76973,1.905676 1.63287,5.808725 1.4119,6.384557 -0.083,0.216197 0.35502,1.066323 0.97329,1.889169 1.88628,2.510402 2.42754,4.265169 2.43694,7.900653 0.007,2.846326 -0.0652,3.290572 -0.79076,4.843113 -0.43938,0.940134 -1.20858,2.14073 -1.70934,2.667992 -0.75209,0.791898 -0.80651,0.927236 -0.31287,0.778023 6.96453,-2.105162 19.58275,-1.497206 27.14076,1.307664 2.94743,1.093826 4.70213,1.150312 7.58788,0.244264 1.48636,-0.466675 2.75838,-0.633075 4.99482,-0.653398 2.66215,-0.02419 3.18355,0.05649 4.62269,0.715352 2.54628,1.165727 3.76004,2.314379 5.03493,4.764879 1.47227,2.829906 1.70512,4.619688 0.90857,6.983676 l -0.57597,1.709334 0.80859,0.854667 c 1.67596,1.771456 2.43675,4.571888 2.02168,7.441656 -0.29672,2.05154 -0.68908,3.100467 -1.61269,4.311383 -0.74814,0.980873 -2.56738,2.064079 -3.46659,2.064079 -0.48868,0 -0.5228,0.193888 -0.40181,2.283891 0.1555,2.68618 -0.31188,4.23478 -1.70956,5.66436 -1.21348,1.24118 -2.31814,1.77424 -3.79522,1.83141 l -1.22954,0.0476 -0.0935,1.47549 c -0.0904,1.42591 -0.066,1.48099 0.72556,1.63883 0.45048,0.0898 1.47608,0.17098 2.27911,0.18032 0.80303,0.009 2.10106,0.12674 2.8845,0.2609 1.22511,0.20979 1.64372,0.1454 2.99134,-0.46014 1.67537,-0.7528 4.56848,-2.38285 8.65848,-4.87841 6.61366,-4.0354 13.56405,-10.98734 25.13198,-25.137572 5.57594,-6.820647 7.61899,-8.784798 13.09431,-12.588621 6.23579,-4.332137 12.68681,-6.239738 16.66848,-4.928957 1.62067,0.53353 1.95968,0.81535 1.96686,1.635015 0.006,0.713156 -1.04354,0.632365 -1.44134,-0.110926 -0.30829,-0.576062 -0.47677,-0.600893 -3.07258,-0.452858 -4.56181,0.260154 -8.89212,2.120931 -14.2844,6.138148 -4.50511,3.356289 -5.7231,4.556778 -10.60299,10.450643 -9.88008,11.933041 -17.04871,19.547978 -21.87435,23.236228 -3.93411,3.00685 -10.76111,6.86613 -14.07748,7.95796 -1.71966,0.56615 -2.30975,0.62457 -4.64848,0.46017 -2.82744,-0.19875 -5.47599,-0.65958 -5.86374,-1.02025 -0.12743,-0.11854 -0.14185,-1.32275 -0.032,-2.67603 l 0.19965,-2.46051 h 1.15288 c 2.31472,0 4.35924,-1.62762 5.04409,-4.01553 0.15242,-0.53145 0.27712,-2.08886 0.27712,-3.46093 v -2.494656 l 0.78345,-0.0047 c 3.32789,-0.01991 5.62554,-5.096952 4.10522,-9.071179 -0.69787,-1.824298 -1.7605,-3.45461 -2.25345,-3.457304 -0.46974,-0.0026 -0.45277,-0.72096 0.0356,-1.507638 0.21545,-0.347037 0.53636,-1.234233 0.71314,-1.971546 0.26351,-1.099094 0.23916,-1.586604 -0.13518,-2.706446 -1.26177,-3.774578 -3.30301,-5.908611 -6.24069,-6.524401 -0.97922,-0.205262 -1.89249,-0.404772 -2.02948,-0.443355 -0.56347,-0.158698 -4.14355,0.374522 -5.28707,0.787462 -0.69772,0.251954 -2.27701,0.461479 -3.65112,0.484396 -2.02115,0.03371 -2.72775,-0.08418 -4.27334,-0.712962 -4.38636,-1.784477 -10.25048,-2.789887 -16.23867,-2.784141 -7.5235,0.0072 -12.38961,1.151736 -16.43746,3.866113 -2.56116,1.717443 -2.69498,1.683288 -2.5919,-0.661501 l 0.0842,-1.916068 1.18085,-0.200635 c 1.62953,-0.27687 3.86779,-1.462199 5.11367,-2.708077 0.57372,-0.573716 1.44111,-1.887778 1.92755,-2.920139 0.76746,-1.628785 0.88209,-2.17843 0.86671,-4.156131 -0.022,-2.833957 -0.79267,-4.96637 -2.59404,-7.177967 -1.04915,-1.288075 -1.2451,-1.706282 -1.08904,-2.324358 0.49241,-1.950282 0.4601,-2.588546 -0.23172,-4.577886 -1.10376,-3.173872 -2.35395,-5.038759 -5.45765,-8.141133 -3.89748,-3.895819 -7.70854,-6.006841 -13.70603,-7.592052 -2.22046,-0.586893 -3.15051,-0.667036 -7.51942,-0.647952 -4.55936,0.01992 -5.19959,0.08705 -7.48925,0.785361 -2.24493,0.684664 -4.99518,1.946399 -7.06788,3.242532 -0.7136,0.44624 -0.77971,0.431015 -1.85178,-0.426475 -1.87808,-1.502169 -4.30736,-2.465232 -6.1279,-2.429346 -1.71996,0.0339 -2.93615,0.530006 -4.52764,1.846899 -0.54841,0.453789 -1.16394,0.960005 -1.36783,1.124926 -0.59118,0.47818 -1.19617,0.05517 -1.19617,-0.836355 0,-1.363957 -0.82787,-1.850004 -2.9088,-1.707779 -4.79933,0.328018 -13.22545,5.629512 -15.70586,9.881721 -1.04865,1.797714 -1.85121,2.14425 -2.85112,1.231092 -2.058,-1.879433 -4.27666,-1.967315 -7.60535,-0.30125 -4.462726,2.233663 -8.948079,7.28595 -11.967617,13.480281 -2.481967,5.091548 -2.922364,7.080365 -3.109482,14.042301 -0.0057,0.211904 -0.394923,0.356111 -0.961179,0.356111 -1.481198,0 -4.273785,1.567419 -6.168756,3.462389 -3.272513,3.272514 -6.60659,9.029627 -7.872793,13.594337 l -0.503508,1.815164 -2.384666,-0.193491 c -3.056569,-0.248008 -4.683871,0.248429 -6.454164,1.968957 -5.651497,5.492626 -6.209077,21.393501 -1.263257,36.025171 0.914343,2.70499 1.040614,4.00884 0.388234,4.00884 -0.821737,0 -4.07169,-2.63187 -5.570182,-4.51082 -3.294253,-4.13066 -4.753254,-6.84881 -5.238431,-9.75929 -0.09377,-0.56253 -0.499923,-1.33173 -0.902558,-1.70934 l -0.732062,-0.68656 -0.529477,0.65268 c -0.773686,0.95371 -1.669865,3.53115 -1.984778,5.70828 -1.463255,10.11612 2.656215,25.36278 9.772606,36.16959 1.384117,2.1019 3.035372,4.07765 5.305479,6.34808 3.529202,3.52972 5.58596,5.04198 8.378941,6.16074 4.2082,1.68565 4.688765,2.34826 2.365069,3.26102 -3.096401,1.21628 -6.346836,4.19209 -7.671922,7.02373 -1.700272,3.6334 -1.271954,9.41875 0.890361,12.02624 2.050413,2.47255 6.031507,3.18655 9.170815,1.64476 0.866564,-0.42559 1.94711,-1.1616 2.401212,-1.63558 0.788533,-0.82305 0.826556,-0.98332 0.845986,-3.56596 l 0.02035,-2.70418 1.075243,-1.07313 1.075243,-1.07313 2.650793,0.0189 c 2.471012,0.0177 2.790464,0.0899 4.710153,1.06514 1.132648,0.57541 2.917333,1.60281 3.965967,2.28311 2.435557,1.58007 8.330092,6.33021 8.726395,7.03222 0.16634,0.29465 1.407535,1.72903 2.758215,3.1875 4.74457,5.12323 9.95431,12.03814 13.81077,18.3311 2.27913,3.71909 6.23193,11.66255 7.78816,15.65095 2.24909,5.76408 3.73077,12.14113 3.71703,15.99786 -0.006,1.62828 -0.7057,5.14442 -1.12445,5.64897 -0.22951,0.27654 3.30487,0.39176 16.72909,0.54534 17.65806,0.20201 33.70221,0.45577 74.14033,1.17263 13.08353,0.23193 31.67254,0.55456 41.30891,0.71695 9.63637,0.16239 31.68678,0.54819 49.00091,0.85733 17.31412,0.30915 42.76183,0.75635 56.55046,0.99378 45.25689,0.77929 88.72004,1.55317 136.17695,2.4247 73.87771,1.35673 90.67809,1.62386 93.7988,1.49142 l 2.91922,-0.1239 -0.1518,-1.04166 c -0.17161,-1.17767 -0.71428,-43.97788 -0.69591,-54.88569 0.007,-3.91723 -0.11809,-23.59563 -0.27709,-43.72978 l -0.28909,-36.60756 -0.84677,-1.72005 c -1.22209,-2.48241 -2.00311,-3.12443 -3.80087,-3.12443 h -1.4592 l -0.50466,-1.41055 c -0.7457,-2.0843 -1.64748,-2.86278 -3.31616,-2.86278 -1.68385,0 -2.90111,0.71996 -2.90111,1.7159 0,0.60627 -0.13046,0.70565 -0.92638,0.70565 -0.81052,0 -1.01351,-0.16425 -1.62309,-1.31332 -0.9326,-1.75797 -4.33022,-5.35728 -5.96336,-6.31736 -1.17363,-0.68994 -1.59294,-0.77238 -3.87984,-0.76274 -1.4602,0.006 -2.6541,-0.11649 -2.77329,-0.28489 -0.11513,-0.16263 -0.21128,-0.91076 -0.21367,-1.66252 -0.004,-1.11786 -0.14531,-1.49745 -0.77818,-2.08398 -0.73096,-0.67742 -0.89018,-0.70625 -2.87388,-0.52036 l -2.10004,0.19679 0.23864,-1.67392 c 0.39747,-2.788 0.23091,-5.501204 -0.44632,-7.270523 -1.74621,-4.562058 -4.68817,-6.258588 -10.85303,-6.258588 -3.52932,0 -5.63675,0.491915 -8.2618,1.928464 -2.16688,1.185831 -5.26288,3.647449 -6.83802,5.436888 -1.59955,1.81719 -2.08124,1.611778 -2.34208,-0.998734 -0.31188,-3.121533 -0.96495,-5.331965 -2.50276,-8.470998 -1.65296,-3.374065 -3.15855,-5.426615 -6.33856,-8.64128 -7.2687,-7.347897 -17.63621,-12.383772 -30.40971,-14.771098 -2.13225,-0.398511 -4.18726,-0.504573 -9.68622,-0.499918 -6.14218,0.0052 -7.33101,0.08219 -9.90657,0.641519 -4.31847,0.93784 -7.25508,1.921029 -10.59447,3.547074 -2.43355,1.184959 -3.41359,1.867131 -5.34155,3.718049 -3.02608,2.905162 -4.35887,5.355328 -4.34939,7.995816 0.0105,2.930981 1.22977,4.820932 3.61869,5.609347 2.12367,0.700877 7.92096,-0.233995 8.82467,-1.42307 0.29663,-0.390279 0.51784,-0.250094 1.67235,1.059769 0.73178,0.830249 1.7907,1.727649 2.35316,1.994223 2.106,0.99811 5.2292,5.759623 6.57793,10.028462 2.12582,6.728288 1.26841,15.566798 -2.04569,21.087838 -1.12011,1.86603 -1.35457,1.89926 -5.19603,0.73644 -1.41019,-0.42687 -3.33319,-0.80061 -4.27333,-0.83053 l -1.70934,-0.0544 -0.15805,-1.13956 c -0.0869,-0.62676 -0.32774,-1.46006 -0.53516,-1.85178 -1.10938,-2.09519 -2.11127,-2.33619 -5.26317,-1.26604 -1.6458,0.5588 -2.56518,0.72858 -3.15018,0.58176 -0.83908,-0.2106 -2.07771,-1.36646 -3.82824,-3.57241 -1.05103,-1.32448 -2.33658,-2.01087 -3.76616,-2.01087 -0.69448,0 -1.17299,0.27864 -2.03539,1.1852 l -1.12745,1.1852 -5.4521,-1.78985 c -2.99865,-0.98442 -5.7726,-1.89418 -6.16433,-2.02169 -2.62324,-0.85391 -12.24532,-2.41765 -16.55383,-2.69025 -8.5632,-0.54182 -19.89977,2.12118 -30.83168,7.24245 -1.36456,0.63925 -2.52621,1.16228 -2.58146,1.16228 -0.20301,0 -5.55865,3.10852 -9.52408,5.52798 -7.06441,4.31026 -11.21395,5.67778 -17.28654,5.69695 -3.83025,0.0121 -4.16924,-0.0363 -8.54667,-1.21988 -10.686,-2.88931 -16.7557,-5.1173 -23.64416,-8.67899 -12.36111,-6.39134 -20.65492,-14.6322 -23.6987,-23.547407 -2.43529,-7.132946 -1.91988,-14.079985 1.56218,-21.055872 1.27292,-2.550129 2.0657,-3.524069 2.50831,-3.081456 0.1103,0.110292 -0.38707,1.451858 -1.10523,2.981259 -1.82892,3.894805 -2.52135,6.649778 -2.69822,10.735437 -0.16959,3.917686 0.17937,6.367453 1.37759,9.670989 5.22782,14.41322 22.48668,25.64269 48.62336,31.63675 4.15928,0.95387 4.47709,0.98621 7.26466,0.73921 5.08503,-0.45058 8.86952,-1.93981 15.87756,-6.24795 10.1198,-6.22107 19.13547,-9.93187 29.48602,-12.13628 4.75533,-1.01277 13.30784,-1.28784 18.09044,-0.58184 5.73034,0.84591 16.85552,3.40314 17.75596,4.08139 0.18397,0.13857 0.91139,0.41688 1.61649,0.61846 0.70511,0.20158 1.77441,0.61718 2.37626,0.92355 1.05492,0.53703 1.10834,0.53845 1.48661,0.0395 0.21579,-0.28467 0.39643,-0.61112 0.40141,-0.72545 0.005,-0.11433 0.54685,-0.48224 1.20416,-0.81757 2.49408,-1.27238 5.81279,-0.12189 7.10354,2.46258 0.78347,1.56875 2.29604,2.98218 3.17806,2.96976 0.3471,-0.005 1.14389,-0.32474 1.77065,-0.71077 2.35774,-1.45217 5.71892,-0.55592 6.76247,1.80319 0.31239,0.70621 0.58523,1.56899 0.60631,1.91729 0.0361,0.59716 0.1927,0.64093 2.74478,0.76744 1.97444,0.0979 3.11796,0.3124 4.22796,0.79316 1.79224,0.77624 1.64746,0.90366 2.90578,-2.55741 2.36778,-6.5127 2.5159,-12.52116 0.45745,-18.555504 -0.70766,-2.074494 -1.40317,-3.39796 -2.88196,-5.484113 -1.07207,-1.512358 -2.12662,-2.749741 -2.34346,-2.749741 -0.67891,0 -2.5725,-1.092761 -3.13687,-1.810245 -0.48567,-0.617427 -0.61109,-0.649375 -1.24512,-0.317172 -1.16457,0.610178 -4.09632,1.27275 -5.63167,1.27275 -3.69852,0 -5.97528,-1.282878 -7.15863,-4.033661 -0.9089,-2.112793 -0.73975,-5.44506 0.39402,-7.762406 1.12152,-2.292315 3.51259,-4.742715 6.69203,-6.858081 4.4503,-2.960903 9.18575,-4.776976 15.38095,-5.898691 4.03321,-0.73026 13.17715,-0.876542 17.2673,-0.276238 7.4352,1.091252 13.55696,2.988022 19.94223,6.178925 5.39517,2.696122 8.84046,5.135527 12.86009,9.105499 3.31079,3.269866 5.68782,6.537069 7.2291,9.936273 0.7979,1.759744 1.9897,5.790408 1.9897,6.729162 0,0.298478 0.53539,-0.05754 1.51851,-1.009768 1.78589,-1.729768 4.46646,-3.29116 8.02527,-4.674606 2.48947,-0.967747 2.67995,-0.996902 6.55245,-1.002899 3.88747,-0.006 4.03534,0.01636 5.84023,0.883709 5.15733,2.478387 7.50264,6.058644 7.53512,11.502787 l 0.0144,2.42156 1.34964,0.0429 c 0.74231,0.0236 1.76747,0.28692 2.27815,0.58518 1.1626,0.67899 2.21244,2.20633 2.21244,3.21872 0,0.74942 0.0567,0.77597 2.00574,0.93937 3.33551,0.27964 6.27241,1.99612 8.5095,4.9734 0.61278,0.81553 1.16308,1.62961 1.2229,1.80905 0.0727,0.21819 0.52203,0.11543 1.35636,-0.31022 2.5783,-1.31535 5.83402,-0.32314 7.43039,2.26448 0.45113,0.73125 0.91174,1.13629 1.29782,1.14123 1.80971,0.0232 4.04364,1.45686 5.11284,3.28131 1.6545,2.82319 1.5642,0.81585 1.8391,40.88415 0.13923,20.29122 0.26008,51.53548 0.26857,69.43168 0.0151,31.88658 0.004,32.54445 -0.5356,32.83346 -0.59995,0.32108 -1.04182,0.31992 -8.85029,-0.0233 z m 8.65513,-0.97799 c 0.16319,-0.42529 0.0571,-30.26458 -0.36812,-103.543 -0.22589,-38.92829 -0.0632,-36.27365 -2.38486,-38.91121 -1.36926,-1.55556 -2.38711,-2.11281 -3.85922,-2.11281 -0.97399,0 -1.16489,-0.11044 -1.47188,-0.85159 -0.47315,-1.14229 -2.2439,-2.70171 -3.56168,-3.13662 -1.25969,-0.41574 -2.78556,-0.073 -3.7737,0.84756 -0.88305,0.82268 -1.29089,0.72116 -1.93122,-0.48072 -0.30984,-0.58156 -1.29171,-1.83846 -2.18194,-2.79311 -2.15528,-2.31127 -4.178,-3.30267 -7.20048,-3.5292 l -2.26663,-0.16988 -0.0678,-1.07331 c -0.14023,-2.2184 -2.23887,-3.84111 -4.5568,-3.5234 l -1.24054,0.17003 v -2.53317 c 0,-3.867686 -1.36225,-7.422781 -3.61636,-9.4377 -0.73204,-0.654362 -0.72732,-0.635508 0.0792,0.316648 2.38047,2.810295 3.1058,5.143268 2.89333,9.306222 -0.1473,2.88617 0.0392,3.64724 0.72562,2.96083 0.83829,-0.83828 3.74189,0.0811 4.39704,1.39229 0.19573,0.39173 0.35776,1.24115 0.36007,1.8876 l 0.004,1.17538 2.20789,-0.0221 c 1.7091,-0.0171 2.5297,0.12238 3.63234,0.61735 1.75692,0.78867 5.25935,4.18022 6.44572,6.24165 0.92887,1.61401 1.25046,1.81034 1.52881,0.93332 0.35398,-1.11527 1.52569,-1.71677 3.34427,-1.71677 2.55515,0 3.25179,0.51618 4.32158,3.20211 0.28879,0.72509 0.55635,1.01478 0.83757,0.90686 0.22727,-0.0872 0.9301,-0.0194 1.56184,0.15073 1.38416,0.37271 2.39844,1.4961 3.53365,3.91375 l 0.82803,1.76344 0.25947,47.23747 c 0.1427,25.98061 0.39098,56.77733 0.55173,68.43716 0.16075,11.65983 0.24013,21.25184 0.1764,21.31556 -0.20398,0.20398 -17.50594,0.0944 -32.93285,-0.20857 -31.41949,-0.61705 -141.74459,-2.60604 -205.40498,-3.70313 -18.25426,-0.31459 -43.70197,-0.76348 -56.55046,-0.99754 -12.8485,-0.23405 -34.83481,-0.61991 -48.85847,-0.85746 -14.02366,-0.23755 -36.00997,-0.62056 -48.85846,-0.85113 -12.84849,-0.23056 -32.1426,-0.5491 -42.8758,-0.70785 -35.59662,-0.52652 -37.13594,-0.56523 -37.39559,-0.94043 -0.16072,-0.23223 -0.21135,-0.1634 -0.15278,0.2077 0.0752,0.47644 0.35484,0.56545 1.97464,0.62851 3.40191,0.13245 56.8424,1.22541 81.44086,1.66563 13.24022,0.23695 34.07273,0.62204 46.29447,0.85577 12.22174,0.23372 36.64385,0.68075 54.27135,0.9934 17.62751,0.31265 38.78052,0.69856 47.00669,0.85757 35.5797,0.68777 131.9153,2.40653 191.58785,3.4182 18.95937,0.32142 36.97147,0.68938 40.02691,0.81768 9.51089,0.39935 11.02614,0.38318 11.21913,-0.11974 z M 125.74471,252.29569 c 0.70588,-1.42504 0.92653,-5.36526 0.47383,-8.46128 -0.7847,-5.36663 -2.98523,-11.60601 -6.87179,-19.48431 -3.69191,-7.48371 -7.57421,-13.48937 -13.30475,-20.58154 -7.632938,-9.4466 -12.688217,-13.99778 -19.513936,-17.56806 -2.308847,-1.20767 -2.659458,-1.30753 -4.591027,-1.30753 -1.713081,0 -2.233091,0.11156 -2.875458,0.61684 -1.200691,0.94447 -1.541144,2.05604 -1.360654,4.44253 l 0.157345,2.08045 -1.296946,1.2427 c -1.885054,1.8062 -3.993233,2.53056 -6.932203,2.38187 -3.634499,-0.18387 -5.710109,-1.67301 -6.956558,-4.99094 -1.235465,-3.28869 -1.036271,-7.6026 0.503372,-10.90145 0.99421,-2.1302 4.156872,-5.16002 6.640067,-6.36116 1.494563,-0.72294 1.817823,-0.9876 1.53217,-1.25444 -0.19912,-0.18601 -0.661461,-0.3888 -1.027424,-0.45065 -0.365962,-0.0619 -0.505136,-0.0576 -0.309275,0.009 0.803747,0.2749 0.282301,1.10081 -1.106624,1.75278 -0.79166,0.3716 -2.2648,1.44778 -3.273645,2.39151 -2.06931,1.93573 -3.517545,4.57202 -4.105678,7.47373 -0.411157,2.02856 -0.170459,6.56499 0.423794,7.98724 0.586819,1.40446 2.638267,3.49544 4.275936,4.35834 1.261714,0.66481 1.764166,0.75665 4.142328,0.75716 2.246919,4.9e-4 2.906434,-0.10625 3.884306,-0.62862 2.6888,-1.43635 4.076099,-3.65981 4.086329,-6.54926 0.0116,-3.27619 0.896601,-4.093 3.880826,-3.58183 1.772447,0.30361 5.901457,2.16789 7.948325,3.58874 6.532036,4.53425 14.75597,13.24539 20.65175,21.87519 9.55516,13.98614 15.10182,27.22856 15.10182,36.05495 0,2.89348 -0.39286,5.00708 -1.02876,5.53484 -0.49253,0.40876 -0.51865,0.91403 -0.0396,0.7654 0.19586,-0.0608 0.5973,-0.59741 0.8921,-1.19254 z M 68.943139,171.2183 c -0.235033,-0.15189 -0.555534,-0.27616 -0.712223,-0.27616 -0.156689,0 -0.09259,0.12427 0.142445,0.27616 0.235033,0.15189 0.555534,0.27617 0.712222,0.27617 0.156689,0 0.09259,-0.12428 -0.142444,-0.27617 z m -1.75076,-0.70617 c -0.07501,-0.075 -0.901481,-0.63089 -1.836593,-1.23528 -0.935112,-0.60439 -2.721954,-1.96412 -3.97076,-3.02162 l -2.270558,-1.92272 1.851779,1.74271 c 1.633642,1.53743 5.747018,4.5733 6.196462,4.5733 0.09133,0 0.104684,-0.0614 0.02967,-0.13639 z m -8.220355,-6.79009 c 0,-0.049 -0.41665,-0.46568 -0.925889,-0.92589 l -0.92589,-0.83674 0.836745,0.92589 c 0.779964,0.86306 1.015034,1.05684 1.015034,0.83674 z M 57.26269,161.7094 c 0,-0.0592 -0.22435,-0.28351 -0.498556,-0.49855 -0.45185,-0.35437 -0.461926,-0.34429 -0.107561,0.10756 0.37217,0.47455 0.606117,0.62547 0.606117,0.39099 z m -1.709334,-2.27911 c 0,-0.0592 -0.22435,-0.28351 -0.498556,-0.49856 -0.45185,-0.35436 -0.461926,-0.34428 -0.107561,0.10757 0.37217,0.47455 0.606117,0.62546 0.606117,0.39099 z m -2.564001,-3.88089 c -0.167715,-0.31337 -0.369036,-0.56977 -0.447381,-0.56977 -0.07834,0 -0.0052,0.2564 0.162492,0.56977 0.167714,0.31338 0.369036,0.56978 0.44738,0.56978 0.07834,0 0.0052,-0.2564 -0.162491,-0.56978 z m -1.766769,-3.26997 c -0.340894,-0.70166 -0.668671,-1.22688 -0.728394,-1.16716 -0.12888,0.12888 1.022257,2.44291 1.21525,2.44291 0.07312,0 -0.145962,-0.57409 -0.486856,-1.27575 z m -2.471789,-5.46899 c -0.33584,-0.57754 -0.416939,-0.39268 -0.142027,0.32373 0.0977,0.2546 0.237653,0.4029 0.311003,0.32955 0.07335,-0.0734 -0.0027,-0.36733 -0.168976,-0.65328 z m -2.119278,-6.41357 c -0.09094,-0.22727 -0.15845,-0.15976 -0.17212,0.17212 -0.01237,0.30032 0.05496,0.46858 0.149629,0.37392 0.09467,-0.0947 0.104787,-0.34039 0.02249,-0.54604 z m -0.284889,-1.13956 c -0.09094,-0.22726 -0.15845,-0.15975 -0.17212,0.17212 -0.01237,0.30033 0.05496,0.46859 0.149629,0.37392 0.09467,-0.0947 0.104787,-0.34038 0.02249,-0.54604 z m -0.284889,-1.13955 c -0.09094,-0.22727 -0.15845,-0.15976 -0.17212,0.17212 -0.01237,0.30032 0.05496,0.46858 0.149629,0.37392 0.09467,-0.0947 0.104787,-0.34039 0.02249,-0.54604 z m -0.290824,-1.44225 c -0.07903,-0.19586 -0.143694,-0.0356 -0.143694,0.35611 0,0.39172 0.06466,0.55197 0.143694,0.35611 0.07903,-0.19586 0.07903,-0.51636 0,-0.71222 z m -0.284889,-1.42445 c -0.07903,-0.19586 -0.143694,-0.0356 -0.143694,0.35611 0,0.39173 0.06466,0.55198 0.143694,0.35611 0.07903,-0.19586 0.07903,-0.51636 0,-0.71222 z m -0.284889,-1.70933 c -0.07903,-0.19586 -0.143694,-0.0356 -0.143694,0.35611 0,0.39172 0.06466,0.55197 0.143694,0.35611 0.07903,-0.19586 0.07903,-0.51636 0,-0.71222 z M 44.91625,131.5475 c -0.07903,-0.19586 -0.143694,-0.0356 -0.143694,0.35612 0,0.39172 0.06466,0.55197 0.143694,0.35611 0.07903,-0.19586 0.07903,-0.51636 0,-0.71223 z m 15.283031,-1.04862 c -0.08714,-0.33322 -0.304537,-0.4884 -0.551479,-0.39364 -0.333519,0.12799 -0.315465,0.22635 0.09929,0.54101 0.27881,0.21152 0.526976,0.38866 0.551479,0.39364 0.0245,0.005 -0.02018,-0.23847 -0.09929,-0.54101 z m -15.547999,-4.93404 c -0.05998,-0.66593 -0.109053,-0.12108 -0.109053,1.21077 0,1.33186 0.04907,1.87671 0.109053,1.21078 0.05998,-0.66593 0.05998,-1.75563 0,-2.42155 z m 12.611408,3.09744 c 0,-0.0592 -0.22435,-0.28351 -0.498556,-0.49856 -0.45185,-0.35437 -0.461926,-0.34429 -0.107561,0.10756 0.37217,0.47455 0.606117,0.62547 0.606117,0.391 z m -1.139556,-1.42445 c 0,-0.0592 -0.22435,-0.28351 -0.498556,-0.49856 -0.45185,-0.35436 -0.461926,-0.34428 -0.107561,0.10757 0.37217,0.47455 0.606117,0.62546 0.606117,0.39099 z m 304.650836,-3.58629 c 3.65683,-0.93526 7.11872,-2.50995 12.09895,-5.50338 2.6111,-1.56944 4.87565,-2.9782 5.03234,-3.13058 0.4681,-0.45522 -0.79626,0.25837 -5.40077,3.04812 -6.69506,4.05637 -10.61021,5.47885 -15.89424,5.77482 -3.34597,0.18742 -3.87228,0.10148 -11.75211,-1.91887 -7.19804,-1.84554 -13.01391,-3.92177 -19.15879,-6.83958 -1.91944,-0.91142 -3.48989,-1.59303 -3.48989,-1.51468 0,0.24274 6.80699,3.39512 10.26422,4.75346 3.67536,1.44405 9.88034,3.37446 15.66068,4.87216 4.75661,1.23244 9.0103,1.38675 12.63961,0.45853 z M 57.74219,122.16397 c -0.09094,-0.22726 -0.15845,-0.15976 -0.17212,0.17212 -0.01237,0.30032 0.05496,0.46859 0.149629,0.37392 0.09467,-0.0947 0.104788,-0.34038 0.02249,-0.54604 z m -5.322613,-0.23147 c -0.167715,-0.31338 -0.369036,-0.56978 -0.447381,-0.56978 -0.07834,0 -0.0052,0.2564 0.162492,0.56978 0.167714,0.31338 0.369036,0.56978 0.44738,0.56978 0.07834,0 0.0052,-0.2564 -0.162491,-0.56978 z m 5.037724,-0.90808 c -0.09094,-0.22727 -0.15845,-0.15976 -0.17212,0.17212 -0.01237,0.30032 0.05496,0.46858 0.149629,0.37391 0.09467,-0.0947 0.104788,-0.34038 0.02249,-0.54603 z m -0.290824,-1.44225 c -0.07903,-0.19587 -0.143694,-0.0356 -0.143694,0.35611 0,0.39172 0.06466,0.55197 0.143694,0.35611 0.07903,-0.19586 0.07903,-0.51636 0,-0.71222 z m 416.459473,0.0745 c 0.0998,-0.16149 -0.0145,-0.20925 -0.26807,-0.11196 -0.49355,0.18939 -0.58385,0.39359 -0.17406,0.39359 0.14744,0 0.3464,-0.12673 0.44213,-0.28163 z m -2.27709,-0.72577 c -0.47007,-0.21524 -1.04697,-0.38738 -1.282,-0.38252 -0.23504,0.005 0.0214,0.18161 0.56977,0.39281 1.30072,0.5009 1.81249,0.49351 0.71223,-0.0103 z M 56.881588,118.15772 c -0.07903,-0.19586 -0.143694,-0.0356 -0.143694,0.35611 0,0.39172 0.06466,0.55197 0.143694,0.35611 0.07903,-0.19586 0.07903,-0.51636 0,-0.71222 z m 412.401822,0.16744 c -0.19586,-0.079 -0.51636,-0.079 -0.71222,0 -0.19586,0.079 -0.0356,0.14369 0.35611,0.14369 0.39172,0 0.55197,-0.0647 0.35611,-0.14369 z m -4.42171,-0.26834 c -0.0947,-0.0947 -0.34039,-0.10478 -0.54604,-0.0225 -0.22727,0.091 -0.15976,0.15845 0.17212,0.17212 0.30032,0.0124 0.46858,-0.055 0.37392,-0.14963 z m 3.00269,-0.0148 c -0.19288,-0.078 -0.57748,-0.0828 -0.85467,-0.0105 -0.27719,0.0722 -0.11938,0.13608 0.35069,0.14188 0.47007,0.006 0.69686,-0.0533 0.50398,-0.13133 z M 56.391406,114.50138 c -0.210803,-1.81326 -0.283883,-4.9437 -0.191863,-8.21854 0.154819,-5.5097 0.580834,-7.982038 1.907103,-11.067667 0.342542,-0.796942 0.408282,-1.124468 0.161465,-0.804449 -0.498897,0.646863 -1.68173,4.206128 -2.187508,6.582436 -0.488853,2.29678 -0.48346,10.41282 0.0092,13.89789 0.21672,1.53298 0.449844,2.73142 0.518052,2.66321 0.06821,-0.0682 -0.02921,-1.442 -0.216484,-3.05288 z m -6.53583,1.35016 c 0,-0.0541 -0.28845,-0.34251 -0.641001,-0.641 l -0.641,-0.54271 0.54271,0.641 c 0.510014,0.60238 0.739291,0.77069 0.739291,0.54271 z m 332.325584,-3.27033 c -0.12326,-0.12327 -3.84856,1.93642 -3.84856,2.12784 0,0.074 0.88887,-0.35149 1.97527,-0.94562 1.0864,-0.59413 1.92938,-1.12613 1.87329,-1.18222 z m 81.33325,2.13077 c 0,-0.0541 -0.28845,-0.3425 -0.641,-0.641 l -0.641,-0.54271 0.54271,0.641 c 0.51001,0.60239 0.73929,0.7707 0.73929,0.54271 z m -231.69192,-1.49827 c -0.0947,-0.0947 -0.34038,-0.10479 -0.54604,-0.0225 -0.22726,0.0909 -0.15975,0.15845 0.17212,0.17212 0.30033,0.0124 0.46859,-0.055 0.37392,-0.14963 z m 89.53231,-0.2479 c 0,-0.0743 -0.3846,-0.33401 -0.85467,-0.57709 -1.07143,-0.55406 -1.13626,-0.31341 -0.0712,0.26438 0.89528,0.4857 0.92589,0.49604 0.92589,0.31271 z m 138.81759,-0.0517 c -0.19288,-0.078 -0.57748,-0.0828 -0.85467,-0.0105 -0.27719,0.0722 -0.11938,0.13608 0.35069,0.14188 0.47006,0.006 0.69685,-0.0533 0.50398,-0.13133 z m -75.57223,-1.23757 c 0.86178,-0.45529 1.43868,-0.82779 1.282,-0.82779 -0.15669,0 -0.98999,0.3725 -1.85178,0.82779 -0.86179,0.45528 -1.43869,0.82778 -1.282,0.82778 0.15669,0 0.98999,-0.3725 1.85178,-0.82778 z m -65.23959,0.15246 c 0,-0.0728 -0.28845,-0.2722 -0.641,-0.44305 -0.61554,-0.29829 -0.61903,-0.29303 -0.088,0.13243 0.58125,0.46567 0.72899,0.52863 0.72899,0.31062 z m 157.45335,-0.77566 c -0.091,-0.22726 -0.15846,-0.15976 -0.17213,0.17212 -0.0124,0.30032 0.055,0.46858 0.14963,0.37392 0.0947,-0.0947 0.10479,-0.34038 0.0225,-0.54604 z M 228.68204,109.3262 c -0.0679,-0.35255 -0.12347,-0.0641 -0.12347,0.641 0,0.7051 0.0556,0.99355 0.12347,0.641 0.0679,-0.35255 0.0679,-0.92945 0,-1.282 z m 158.48212,1.21078 c 0.23503,-0.15189 0.29913,-0.27616 0.14244,-0.27616 -0.15669,0 -0.47719,0.12427 -0.71222,0.27616 -0.23504,0.15189 -0.29914,0.27616 -0.14245,0.27616 0.15669,0 0.47719,-0.12427 0.71223,-0.27616 z m 64.12161,-0.24454 c -0.25877,-0.48353 -1.50423,-1.46479 -1.85916,-1.46479 -0.14485,0 1.90059,1.97127 2.06126,1.98651 0.0447,0.004 -0.0463,-0.23054 -0.2021,-0.52172 z m 25.81303,-0.94843 c -0.0909,-0.22727 -0.15845,-0.15976 -0.17212,0.17212 -0.0124,0.30032 0.055,0.46858 0.14963,0.37391 0.0947,-0.0947 0.10479,-0.34038 0.0225,-0.54603 z m -87.08575,0.0534 c 0.23503,-0.15189 0.29913,-0.27616 0.14244,-0.27616 -0.15669,0 -0.47719,0.12427 -0.71222,0.27616 -0.23504,0.15189 -0.29914,0.27617 -0.14245,0.27617 0.15669,0 0.47719,-0.12428 0.71223,-0.27617 z m -74.64092,-0.10756 c 0,-0.0592 -0.22435,-0.28351 -0.49856,-0.49855 -0.45185,-0.35437 -0.46192,-0.34429 -0.10756,0.10756 0.37217,0.47455 0.60612,0.62547 0.60612,0.39099 z m 121.6476,-0.7471 c -0.23503,-0.15189 -0.55553,-0.27617 -0.71222,-0.27617 -0.15669,0 -0.0926,0.12428 0.14244,0.27617 0.23504,0.15189 0.55554,0.27616 0.71223,0.27616 0.15669,0 0.0926,-0.12427 -0.14245,-0.27616 z m 11.88818,0.11277 c -0.0947,-0.0947 -0.34038,-0.10479 -0.54603,-0.0225 -0.22727,0.0909 -0.15976,0.15845 0.17212,0.17212 0.30032,0.0124 0.46858,-0.055 0.37391,-0.14962 z m -134.67534,-0.22033 c 0,-0.0592 -0.22435,-0.28351 -0.49855,-0.49856 -0.45185,-0.35437 -0.46193,-0.34429 -0.10757,0.10756 0.37217,0.47455 0.60612,0.62547 0.60612,0.391 z m 78.62937,-0.17733 c 0.23503,-0.15189 0.29913,-0.27617 0.14244,-0.27617 -0.15669,0 -0.47719,0.12428 -0.71222,0.27617 -0.23504,0.15189 -0.29914,0.27616 -0.14245,0.27616 0.15669,0 0.47719,-0.12427 0.71223,-0.27616 z m -79.76892,-0.67734 c 0,-0.0592 -0.22435,-0.28351 -0.49856,-0.49856 -0.45185,-0.35436 -0.46193,-0.34429 -0.10756,0.10756 0.37217,0.47456 0.60612,0.62547 0.60612,0.391 z m 164.30215,-2.52766 c -0.0632,-0.50924 -0.1149,-0.0926 -0.1149,0.92589 0,1.01847 0.0517,1.43512 0.1149,0.92588 0.0632,-0.50923 0.0632,-1.34253 0,-1.85177 z m -81.47661,2.17821 c -0.0947,-0.0947 -0.34038,-0.10479 -0.54604,-0.0225 -0.22726,0.0909 -0.15976,0.15845 0.17212,0.17212 0.30032,0.0124 0.46858,-0.055 0.37392,-0.14963 z m 1.13955,-0.28489 c -0.0947,-0.0947 -0.34038,-0.10479 -0.54603,-0.0225 -0.22727,0.0909 -0.15976,0.15845 0.17212,0.17212 0.30032,0.0124 0.46858,-0.055 0.37391,-0.14963 z M 234.2151,106.33483 c 0.35437,-0.45185 0.34429,-0.46193 -0.10756,-0.10756 -0.27421,0.21504 -0.49856,0.43939 -0.49856,0.49855 0,0.23447 0.23395,0.0836 0.60612,-0.39099 z m 77.45347,0.12452 c 0,-0.049 -0.41665,-0.46568 -0.92589,-0.92589 l -0.92589,-0.83675 0.83675,0.92589 c 0.77996,0.86306 1.01503,1.05684 1.01503,0.83675 z m 87.38377,-0.083 c -0.0947,-0.0947 -0.34039,-0.10478 -0.54604,-0.0225 -0.22727,0.0909 -0.15976,0.15845 0.17212,0.17212 0.30032,0.0124 0.46858,-0.055 0.37392,-0.14963 z m -148.02879,-0.61132 c 0.35437,-0.45185 0.34429,-0.46193 -0.10756,-0.10756 -0.47455,0.37217 -0.62547,0.60611 -0.39099,0.60611 0.0591,0 0.2835,-0.22435 0.49855,-0.49855 z m 149.16834,0.32643 c -0.0947,-0.0947 -0.34038,-0.10478 -0.54603,-0.0225 -0.22727,0.091 -0.15976,0.15845 0.17212,0.17212 0.30032,0.0124 0.46858,-0.055 0.37391,-0.14963 z m 1.57283,-0.30144 c -0.19586,-0.079 -0.51636,-0.079 -0.71222,0 -0.19587,0.079 -0.0356,0.14369 0.35611,0.14369 0.39172,0 0.55197,-0.0647 0.35611,-0.14369 z m -166.4284,-1.91714 c 0.25342,-1.13242 0.26174,-1.88477 0.0322,-2.91526 l -0.30933,-1.388928 0.13664,1.566888 c 0.0768,0.88068 -0.0341,2.21723 -0.25328,3.05187 -0.21446,0.81673 -0.29046,1.4235 -0.16889,1.34836 0.12157,-0.0751 0.37475,-0.82345 0.56262,-1.66293 z m 167.70446,1.64881 c -0.0947,-0.0947 -0.34038,-0.10479 -0.54603,-0.0225 -0.22727,0.0909 -0.15976,0.15846 0.17212,0.17213 0.30032,0.0124 0.46858,-0.055 0.37391,-0.14963 z m 21.65157,0 c -0.0947,-0.0947 -0.34039,-0.10479 -0.54604,-0.0225 -0.22727,0.0909 -0.15976,0.15846 0.17212,0.17213 0.30032,0.0124 0.46858,-0.055 0.37392,-0.14963 z m -20.51201,-0.28489 c -0.0947,-0.0947 -0.34038,-0.10479 -0.54604,-0.0225 -0.22726,0.0909 -0.15976,0.15845 0.17212,0.17212 0.30032,0.0124 0.46859,-0.055 0.37392,-0.14963 z m 18.80267,0 c -0.0947,-0.0947 -0.34038,-0.10479 -0.54603,-0.0225 -0.22727,0.0909 -0.15976,0.15845 0.17212,0.17212 0.30032,0.0124 0.46858,-0.055 0.37391,-0.14963 z m -16.80251,-0.30915 c -0.27421,-0.0717 -0.72291,-0.0717 -0.99711,0 -0.27421,0.0716 -0.0499,0.13028 0.49855,0.13028 0.54841,0 0.77276,-0.0586 0.49856,-0.13028 z m 15.09318,0.0243 c -0.0947,-0.0947 -0.34038,-0.10479 -0.54604,-0.0225 -0.22726,0.0909 -0.15976,0.15845 0.17212,0.17212 0.30032,0.0124 0.46859,-0.055 0.37392,-0.14963 z m -12.38674,-0.31383 c -0.35255,-0.0679 -0.92945,-0.0679 -1.282,0 -0.35255,0.0679 -0.0641,0.12347 0.641,0.12347 0.7051,0 0.99355,-0.0556 0.641,-0.12347 z m 10.54632,0.0142 c -0.19288,-0.078 -0.57748,-0.0828 -0.85467,-0.0106 -0.27719,0.0722 -0.11938,0.13608 0.35069,0.14189 0.47007,0.006 0.69686,-0.0533 0.50398,-0.13133 z m -4.27876,-0.30895 c -0.9793,-0.0556 -2.58181,-0.0556 -3.56111,0 -0.97931,0.0556 -0.17806,0.10115 1.78055,0.10115 1.95862,0 2.75987,-0.0455 1.78056,-0.10115 z m -161.56695,-0.57251 c 0.35437,-0.45185 0.34429,-0.46193 -0.10756,-0.10757 -0.2742,0.21505 -0.49855,0.4394 -0.49855,0.49856 0,0.23447 0.23394,0.0836 0.60611,-0.39099 z m 55.51702,0.40577 c 0,-0.051 -0.35255,-0.40358 -0.78345,-0.78345 l -0.78344,-0.69066 0.69066,0.78345 c 0.64553,0.73224 0.87623,0.91409 0.87623,0.69066 z m -53.11388,-2.54244 0.83675,-0.92589 -0.92589,0.83674 c -0.86306,0.77997 -1.05684,1.01504 -0.83675,1.01504 0.049,0 0.46568,-0.41665 0.92589,-0.92589 z m 221.10218,0 c -0.079,-0.19586 -0.14369,-0.0356 -0.14369,0.35611 0,0.39172 0.0647,0.55197 0.14369,0.35611 0.079,-0.19586 0.079,-0.51636 0,-0.71222 z m -169.98252,0.26332 c 0,-0.051 -0.35255,-0.40358 -0.78345,-0.78344 l -0.78344,-0.69066 0.69066,0.78344 c 0.64552,0.73225 0.87623,0.9141 0.87623,0.69066 z m -48.71602,-2.613657 c 0.53154,-0.548411 0.90234,-0.997111 0.82399,-0.997111 -0.0783,0 -0.57734,0.4487 -1.10888,0.997111 -0.53154,0.548412 -0.90234,0.997117 -0.824,0.997117 0.0784,0 0.57735,-0.448705 1.10889,-0.997117 z m 47.00668,0.604662 c 0,-0.05916 -0.22435,-0.283509 -0.49855,-0.498556 -0.45185,-0.354365 -0.46193,-0.344289 -0.10756,0.107561 0.37217,0.474554 0.60611,0.62547 0.60611,0.390995 z m -1.6007,-2.171551 c -0.41477,-0.626756 -0.80876,-1.139556 -0.87553,-1.139556 -0.14429,0 0.0955,0.430469 0.83301,1.495667 0.8487,1.225721 0.88548,0.91769 0.0425,-0.356111 z m 232.27858,-1.729516 c 2.75488,-2.616865 5.75773,-4.557994 8.37941,-5.416692 1.8349,-0.600998 2.60684,-0.685573 6.0897,-0.667195 2.86804,0.01513 4.38028,0.15087 5.38329,0.483201 1.81544,0.601511 1.33642,0.142258 -0.68262,-0.65446 -3.67316,-1.449435 -8.18047,-0.912469 -13.38436,1.59451 -3.16649,1.52546 -5.06737,2.9046 -6.45159,4.680818 -0.54949,0.7051 -1.08665,1.254995 -1.19368,1.221989 -0.10703,-0.03301 -0.27388,-0.481706 -0.37077,-0.997112 -0.15785,-0.839681 -0.18006,-0.796422 -0.21366,0.416123 -0.0206,0.744273 0.0438,1.353223 0.14307,1.353223 0.0993,0 1.13486,-0.906483 2.30121,-2.014405 z M 240.1672,95.361263 c 1.21381,-2.821562 0.94102,-6.751232 -0.59056,-8.507429 l -0.58858,-0.674905 0.43288,0.716107 c 0.78867,1.304661 1.37159,4.207599 1.16289,5.791179 -0.21141,1.604181 -1.0186,3.679401 -1.7865,4.592977 -0.48185,0.573254 -0.48033,0.573987 0.12698,0.06132 0.33806,-0.285378 0.89736,-1.176039 1.24289,-1.979246 z m 22.50046,-0.410091 c 0,-0.213919 -0.25578,0.01225 -1.43635,1.270094 l -1.27009,1.353223 1.35322,-1.270094 c 0.74427,-0.698552 1.35322,-1.307502 1.35322,-1.353223 z m 39.74202,0.48665 c -0.24308,-0.470067 -0.50607,-0.854667 -0.58441,-0.854667 -0.0784,0 0.0564,0.3846 0.29952,0.854667 0.24308,0.470067 0.50606,0.854667 0.58441,0.854667 0.0783,0 -0.0564,-0.3846 -0.29952,-0.854667 z m 231.09715,-1.192973 c -0.091,-0.227265 -0.15845,-0.159759 -0.17212,0.17212 -0.0124,0.300321 0.055,0.468583 0.14963,0.373917 0.0947,-0.09467 0.10478,-0.340383 0.0225,-0.546037 z M 59.396143,92.981188 c 0.269307,-0.411014 0.348841,-0.660274 0.176741,-0.553911 -0.328874,0.203256 -0.992176,1.301211 -0.786093,1.301211 0.06584,0 0.340045,-0.336285 0.609352,-0.7473 z M 301.01893,92.68534 c -0.24102,-0.444747 -0.44335,-0.718513 -0.44962,-0.608369 -0.0193,0.33864 0.64349,1.661354 0.76938,1.535462 0.0652,-0.06515 -0.0787,-0.482346 -0.31976,-0.927093 z m -36.07216,-0.523742 c 0.53154,-0.548411 0.90234,-0.997112 0.824,-0.997112 -0.0784,0 -0.57734,0.448701 -1.10889,0.997112 -0.53154,0.548411 -0.90233,0.997112 -0.82399,0.997112 0.0784,0 0.57734,-0.448701 1.10888,-0.997112 z M 60.538913,91.449375 c 0.283603,-0.313378 0.451542,-0.569778 0.373198,-0.569778 -0.07835,0 -0.374484,0.2564 -0.658087,0.569778 -0.283603,0.313378 -0.451542,0.569778 -0.373197,0.569778 0.07834,0 0.374483,-0.2564 0.658086,-0.569778 z M 267.51077,89.312708 c 0.53155,-0.548412 0.90234,-0.997112 0.824,-0.997112 -0.0784,0 -0.57734,0.4487 -1.10888,0.997112 -0.53155,0.548411 -0.90234,0.997111 -0.824,0.997111 0.0784,0 0.57734,-0.4487 1.10888,-0.997111 z M 66.877694,88.96621 c -0.430895,-0.06527 -1.135995,-0.06527 -1.56689,0 -0.430894,0.06527 -0.07834,0.118682 0.783445,0.118682 0.861789,0 1.214339,-0.05341 0.783445,-0.118682 z m 5.679837,-7.245167 c 0.726041,-1.377018 2.01923,-3.437221 2.873752,-4.578228 0.854522,-1.141007 1.207146,-1.754058 0.78361,-1.362336 -1.05617,0.976835 -3.359808,4.467459 -4.434797,6.719895 -1.00912,2.114422 -2.274979,5.69232 -2.251466,6.363677 0.0086,0.246761 0.396664,-0.696142 0.862269,-2.095341 0.465606,-1.399199 1.44059,-3.670649 2.166632,-5.047667 z m 227.055419,6.826026 c -0.0909,-0.227266 -0.15845,-0.15976 -0.17212,0.17212 -0.0124,0.30032 0.055,0.468583 0.14963,0.373917 0.0947,-0.09467 0.10479,-0.340383 0.0225,-0.546037 z m -0.29082,-1.442251 c -0.079,-0.195861 -0.14369,-0.03561 -0.14369,0.356111 0,0.391723 0.0647,0.551973 0.14369,0.356111 0.079,-0.195861 0.079,-0.516361 0,-0.712222 z m -30.06568,0.142444 c 0.35436,-0.451849 0.34429,-0.461926 -0.10756,-0.107561 -0.27421,0.215047 -0.49856,0.439397 -0.49856,0.498556 0,0.234473 0.23395,0.08356 0.60612,-0.390995 z m 199.10107,0.120883 c 0,-0.05103 -0.35255,-0.403582 -0.78344,-0.783445 l -0.78345,-0.69066 0.69066,0.783444 c 0.64553,0.732247 0.87623,0.914092 0.87623,0.690661 z m -9.89447,-0.378974 c -0.19288,-0.07804 -0.57748,-0.08279 -0.85467,-0.01056 -0.27718,0.07223 -0.11937,0.13608 0.35069,0.141886 0.47007,0.0058 0.69686,-0.05329 0.50398,-0.13133 z M 270.35966,85.89404 c 0.36801,-0.391723 0.605,-0.712223 0.52666,-0.712223 -0.0784,0 -0.44354,0.3205 -0.81154,0.712223 -0.36801,0.391722 -0.605,0.712222 -0.52666,0.712222 0.0784,0 0.44354,-0.3205 0.81154,-0.712222 z m 28.6904,-0.780124 c -0.0681,-0.354377 -0.12649,-0.131521 -0.12965,0.495234 -0.003,0.626756 0.0526,0.916701 0.1239,0.644322 0.0713,-0.272378 0.0739,-0.785179 0.006,-1.139556 z m 155.75952,0.281568 c -0.45899,-0.509239 -0.93168,-1.04768 -1.05041,-1.196534 -0.11873,-0.148855 -0.21588,-0.185366 -0.21588,-0.08114 0,0.246906 1.71783,2.203558 1.9346,2.203558 0.0914,0 -0.20931,-0.41665 -0.66831,-0.925889 z M 271.64167,84.32715 c 0.2836,-0.313378 0.45154,-0.569778 0.37319,-0.569778 -0.0783,0 -0.37448,0.2564 -0.65808,0.569778 -0.28361,0.313378 -0.45155,0.569778 -0.3732,0.569778 0.0783,0 0.37448,-0.2564 0.65809,-0.569778 z m 27.12644,-2.203973 c -0.0655,-0.433049 -0.12081,-0.146362 -0.12295,0.637083 -0.002,0.783445 0.0514,1.137758 0.11906,0.787362 0.0676,-0.350395 0.0694,-0.991396 0.004,-1.424445 z m -25.68408,0.423417 0.83675,-0.92589 -0.92589,0.836745 c -0.86306,0.779964 -1.05684,1.015034 -0.83675,1.015034 0.049,0 0.46568,-0.41665 0.92589,-0.925889 z m -34.08218,-2.000479 c 0.026,-1.765862 -1.22927,-4.564175 -2.82305,-6.293214 -1.41166,-1.531471 -3.70374,-2.752935 -5.11853,-2.727699 -0.92108,0.01643 -0.95221,0.04218 -0.34509,0.285442 0.36702,0.147061 0.78219,0.196382 0.92261,0.109602 0.40831,-0.252353 2.6152,0.843787 3.80884,1.891816 0.66491,0.583799 1.53672,1.861448 2.21502,3.246123 1.03159,2.10588 1.10847,2.427377 0.98888,4.135186 -0.0764,1.091028 -0.035,1.617701 0.10081,1.282 0.12677,-0.313378 0.2395,-1.181543 0.25051,-1.929256 z m 289.18236,2.249028 c 0,-0.05916 -0.22435,-0.283508 -0.49855,-0.498555 -0.45185,-0.354365 -0.46193,-0.344289 -0.10756,0.107561 0.37217,0.474553 0.60611,0.625468 0.60611,0.390994 z m -75.29409,-2.52434 c -0.0682,-0.354377 -0.12649,-0.131522 -0.12965,0.495234 -0.003,0.626756 0.0526,0.916701 0.1239,0.644322 0.0713,-0.272379 0.0739,-0.785179 0.006,-1.139556 z m -178.39956,0.637679 c 0.2836,-0.313378 0.45154,-0.569778 0.37319,-0.569778 -0.0783,0 -0.37448,0.2564 -0.65808,0.569778 -0.28361,0.313378 -0.45155,0.569778 -0.3732,0.569778 0.0783,0 0.37448,-0.2564 0.65809,-0.569778 z m 252.5541,0.480633 c 0,-0.04903 -0.41665,-0.465679 -0.92589,-0.925889 l -0.92589,-0.836745 0.83674,0.925889 c 0.77997,0.863059 1.01504,1.056839 1.01504,0.836745 z m -251.2721,-2.047523 c 0.368,-0.391722 0.60499,-0.712222 0.52665,-0.712222 -0.0783,0 -0.44354,0.3205 -0.81154,0.712222 -0.36801,0.391722 -0.605,0.712223 -0.52666,0.712223 0.0784,0 0.44354,-0.320501 0.81155,-0.712223 z m 23.27062,-0.195861 c -0.091,-0.227265 -0.15845,-0.159759 -0.17212,0.17212 -0.0124,0.300321 0.055,0.468583 0.14963,0.373917 0.0947,-0.09467 0.10478,-0.340383 0.0225,-0.546037 z m 154.12495,-0.569778 c -0.091,-0.227265 -0.15845,-0.159759 -0.17212,0.17212 -0.0124,0.300321 0.055,0.468583 0.14963,0.373917 0.0947,-0.09467 0.10478,-0.340383 0.0225,-0.546037 z m -174.53955,-2.439362 2.12953,-2.20789 -2.20789,2.129537 c -1.21434,1.171246 -2.20789,2.164796 -2.20789,2.20789 0,0.20834 0.30838,-0.0789 2.28625,-2.129537 z m 245.2823,2.118745 c 0,-0.04903 -0.41665,-0.465679 -0.92589,-0.925889 l -0.92589,-0.836745 0.83674,0.925889 c 0.77997,0.863059 1.01504,1.056839 1.01504,0.836745 z m -2.27911,-2.01264 c 0,-0.05916 -0.22435,-0.283509 -0.49856,-0.498556 -0.45185,-0.354365 -0.46193,-0.344288 -0.10756,0.107562 0.37217,0.474553 0.60612,0.625467 0.60612,0.390994 z M 181.83348,73.46983 c -0.21191,-0.810357 -0.35971,-0.648889 -0.35482,0.387648 0.003,0.629504 0.083,0.8018 0.24997,0.538242 0.13508,-0.213207 0.18227,-0.629857 0.10485,-0.92589 z m 99.95808,-0.18213 c 0.35437,-0.451849 0.34429,-0.461926 -0.10756,-0.107561 -0.2742,0.215047 -0.49855,0.439397 -0.49855,0.498556 0,0.234473 0.23394,0.08356 0.60611,-0.390995 z M 79.520371,72.717922 c 0.354365,-0.451849 0.344289,-0.461926 -0.107561,-0.107561 -0.474553,0.37217 -0.625468,0.606117 -0.390995,0.606117 0.05916,0 0.283509,-0.22435 0.498556,-0.498556 z m 377.193039,0 c 0.35437,-0.451849 0.34429,-0.461926 -0.10756,-0.107561 -0.2742,0.215047 -0.49855,0.439397 -0.49855,0.498556 0,0.234473 0.23394,0.08356 0.60611,-0.390995 z M 223.94527,72.349764 c 0.31131,-0.16661 1.81175,-0.48389 3.33431,-0.705067 l 2.76829,-0.402139 -2.34904,0.138851 c -1.29197,0.07637 -2.70217,0.277648 -3.13377,0.44729 -0.43161,0.169641 -1.68215,0.486456 -2.77897,0.704032 l -1.99422,0.395592 1.79368,-0.137816 c 0.98653,-0.0758 2.0484,-0.274133 2.35972,-0.440743 z m -6.57496,-0.130397 c -0.39172,-0.223929 -0.84042,-0.407144 -0.99711,-0.407144 -0.15669,0 0.0356,0.183215 0.42733,0.407144 0.39172,0.223928 0.84042,0.407143 0.99711,0.407143 0.15669,0 -0.0356,-0.183215 -0.42733,-0.407143 z M 186.6023,71.374723 c 0,-0.07283 -0.28845,-0.272204 -0.641,-0.44305 -0.61554,-0.29829 -0.61904,-0.29303 -0.088,0.132421 0.58125,0.465676 0.729,0.528632 0.729,0.310629 z m 27.55707,-0.324588 c -0.0947,-0.09467 -0.34038,-0.104788 -0.54603,-0.02249 -0.22727,0.09094 -0.15976,0.158451 0.17212,0.172121 0.30032,0.01237 0.46858,-0.05496 0.37391,-0.149629 z m -1.13955,-0.284889 c -0.0947,-0.09467 -0.34039,-0.104788 -0.54604,-0.02249 -0.22727,0.09094 -0.15976,0.158451 0.17212,0.172121 0.30032,0.01237 0.46858,-0.05496 0.37392,-0.149629 z M 85.181812,67.698569 c 0,-7.5196 5.18453,-17.635268 11.665682,-22.761206 2.601169,-2.057263 2.700757,-2.156438 1.47097,-1.464872 -1.580518,0.888797 -5.423971,4.654135 -7.227452,7.08056 -2.073175,2.789275 -4.50243,7.711446 -5.490764,11.125422 -0.831679,2.872843 -1.369439,9.243241 -0.747844,8.859074 0.210873,-0.130327 0.329408,-1.151911 0.329408,-2.838978 z m 126.698448,2.781787 c -0.0947,-0.09467 -0.34038,-0.104787 -0.54604,-0.02249 -0.22726,0.09094 -0.15975,0.158451 0.17212,0.172121 0.30033,0.01237 0.46859,-0.05496 0.37392,-0.149631 z m -1.27606,-0.301445 c -0.19587,-0.07903 -0.51637,-0.07903 -0.71223,0 -0.19586,0.07903 -0.0356,0.143694 0.35611,0.143694 0.39173,0 0.55198,-0.06466 0.35612,-0.143694 z m -18.66617,-0.268333 c -0.0947,-0.09467 -0.34038,-0.104787 -0.54604,-0.02249 -0.22726,0.09094 -0.15976,0.158451 0.17212,0.172121 0.30032,0.01237 0.46859,-0.05496 0.37392,-0.149631 z m 17.24172,-0.01656 c -0.19586,-0.07903 -0.51636,-0.07903 -0.71222,0 -0.19586,0.07903 -0.0356,0.143694 0.35611,0.143694 0.39172,0 0.55197,-0.06466 0.35611,-0.143694 z m -15.53238,-0.268333 c -0.0947,-0.09467 -0.34039,-0.104787 -0.54604,-0.02249 -0.22727,0.09094 -0.15976,0.158451 0.17212,0.172121 0.30032,0.01237 0.46858,-0.05496 0.37392,-0.149631 z m 13.82847,-0.01475 c -0.19288,-0.07804 -0.57748,-0.08279 -0.85467,-0.01056 -0.27719,0.07223 -0.11938,0.136081 0.35069,0.141887 0.47007,0.0058 0.69686,-0.05329 0.50398,-0.13133 z M 196.2173,69.31654 c -0.2742,-0.07166 -0.7229,-0.07166 -0.99711,0 -0.27421,0.07166 -0.0499,0.130286 0.49856,0.130286 0.54841,0 0.77276,-0.05863 0.49855,-0.130286 z m 8.68912,-0.0047 c -0.35255,-0.0679 -0.92945,-0.0679 -1.282,0 -0.35255,0.0679 -0.0641,0.123462 0.641,0.123462 0.7051,0 0.99355,-0.05556 0.641,-0.123462 z m -4.70067,-0.280214 c -0.27421,-0.07166 -0.72291,-0.07166 -0.99711,0 -0.27421,0.07166 -0.0499,0.130286 0.49855,0.130286 0.54841,0 0.77276,-0.05863 0.49856,-0.130286 z m -11.00311,-1.156842 c 0.35436,-0.45185 0.34429,-0.461926 -0.10756,-0.107561 -0.27421,0.215047 -0.49856,0.439397 -0.49856,0.498555 0,0.234474 0.23395,0.08356 0.60612,-0.390994 z m 1.41916,-2.569416 c 0.87632,-2.243563 0.86835,-5.541257 -0.019,-7.848691 -0.82401,-2.142769 -0.99636,-1.977861 -0.24664,0.235993 0.76703,2.264972 0.63842,6.174323 -0.26968,8.197404 -0.33643,0.749506 -0.4971,1.291919 -0.35706,1.205364 0.14005,-0.08655 0.54161,-0.892087 0.89236,-1.79007 z m 109.29842,-0.261549 c -0.27238,-0.07131 -0.78518,-0.07389 -1.13956,-0.0057 -0.35437,0.06814 -0.13152,0.126484 0.49524,0.129646 0.62675,0.0032 0.9167,-0.05259 0.64432,-0.123897 z m 198.55838,0.02362 c -0.0947,-0.09467 -0.34038,-0.104787 -0.54604,-0.02249 -0.22726,0.09094 -0.15976,0.15845 0.17212,0.17212 0.30032,0.01237 0.46859,-0.05496 0.37392,-0.14963 z m -2.84889,-0.569778 c -0.0947,-0.09467 -0.34038,-0.104787 -0.54604,-0.02249 -0.22726,0.09094 -0.15976,0.15845 0.17212,0.17212 0.30032,0.01237 0.46859,-0.05496 0.37392,-0.14963 z m -1.56095,-0.301445 c -0.19587,-0.07903 -0.51637,-0.07903 -0.71223,0 -0.19586,0.07903 -0.0356,0.143694 0.35611,0.143694 0.39173,0 0.55198,-0.06466 0.35612,-0.143694 z m -16.67195,-0.268333 c -0.0947,-0.09467 -0.34038,-0.104787 -0.54603,-0.02249 -0.22727,0.09094 -0.15976,0.15845 0.17212,0.17212 0.30032,0.01237 0.46858,-0.05496 0.37391,-0.149629 z m 14.68314,-0.01475 c -0.19288,-0.07804 -0.57748,-0.08279 -0.85466,-0.01056 -0.27719,0.07223 -0.11938,0.136081 0.35069,0.141887 0.47006,0.0058 0.69685,-0.05329 0.50397,-0.131331 z m -11.5401,-0.293761 c -0.27238,-0.07131 -0.78518,-0.07389 -1.13956,-0.0057 -0.35437,0.06814 -0.13152,0.126484 0.49524,0.129646 0.62675,0.0032 0.9167,-0.05259 0.64432,-0.123897 z m 8.68579,-0.0053 c -0.35255,-0.0679 -0.92945,-0.0679 -1.282,0 -0.35255,0.0679 -0.0641,0.123462 0.641,0.123462 0.7051,0 0.99355,-0.05556 0.641,-0.123462 z M 189.3038,54.769914 c -0.27379,-0.430895 -0.76214,-1.074616 -1.08521,-1.430492 -0.41379,-0.455789 -0.57841,-1.003151 -0.55694,-1.851779 l 0.0305,-1.204731 -0.23316,1.139556 c -0.19994,0.977242 -0.14078,1.241002 0.41532,1.851779 0.35665,0.391722 0.8721,1.064772 1.14544,1.495667 0.27334,0.430895 0.56108,0.783445 0.63942,0.783445 0.0783,0 -0.0816,-0.35255 -0.35536,-0.783445 z M 110.51389,42.005866 c 1.55813,-2.937106 7.06801,-7.111007 12.05951,-9.135434 1.29273,-0.524302 2.17999,-0.955434 1.97168,-0.958069 -0.20831,-0.0026 -1.23391,0.332124 -2.27911,0.74391 -4.23259,1.667549 -8.95088,5.081452 -11.17116,8.082857 -0.63751,0.861789 -1.34307,1.79124 -1.56792,2.065445 -0.30143,0.367588 -0.31588,0.498556 -0.055,0.498556 0.19459,0 0.6635,-0.583769 1.04201,-1.297265 z m -10.36787,0.497618 c -0.0877,-0.08771 -0.317589,-1.81e-4 -0.510839,0.194518 -0.279267,0.281361 -0.246544,0.314084 0.159479,0.159479 0.28096,-0.106985 0.43908,-0.266283 0.35136,-0.353997 z m 83.03761,-2.426917 c 0,-0.05103 -0.35255,-0.403581 -0.78345,-0.783444 l -0.78344,-0.690661 0.69066,0.783445 c 0.64553,0.732247 0.87623,0.914092 0.87623,0.69066 z m -1.70933,-1.703108 c 0,-0.04761 -0.48075,-0.528358 -1.06834,-1.068334 l -1.06833,-0.981775 0.98177,1.068334 c 0.91382,0.994382 1.1549,1.199322 1.1549,0.981775 z m -2.27912,-2.015226 c 0,-0.05916 -0.22435,-0.283509 -0.49855,-0.498556 -0.45185,-0.354365 -0.46193,-0.344288 -0.10756,0.107562 0.37217,0.474553 0.60611,0.625468 0.60611,0.390994 z M 132.1885,33.080187 c 0,-0.539267 2.39399,-1.486974 4.32176,-1.710851 2.08589,-0.242239 2.08648,-0.242552 0.52135,-0.277884 -2.18895,-0.04941 -3.65788,0.42858 -4.78701,1.557706 -0.53226,0.53226 -1.06941,0.967746 -1.19367,0.967746 -0.12425,0 -0.30281,0.20037 -0.39678,0.445266 -0.1286,0.33512 0.0401,0.295084 0.68174,-0.161843 0.46893,-0.333911 0.85261,-0.702974 0.85261,-0.82014 z m 44.15779,1.256256 c 0,-0.07432 -0.3846,-0.334013 -0.85466,-0.577094 -1.07144,-0.55406 -1.13627,-0.31341 -0.0712,0.264384 0.89528,0.485697 0.92589,0.496035 0.92589,0.31271 z m -30.19823,-1.166919 c 0,-0.07835 -0.2564,-0.0052 -0.56978,0.162491 -0.31338,0.167715 -0.56978,0.369036 -0.56978,0.447381 0,0.07834 0.2564,0.0052 0.56978,-0.162492 0.31338,-0.167714 0.56978,-0.369036 0.56978,-0.44738 z m 26.72942,-0.70076 c -1.69953,-0.897724 -5.30438,-1.974568 -8.20915,-2.452249 -3.22894,-0.530991 -9.04977,-0.370511 -11.2556,0.310317 -1.01963,0.314706 -1.14107,0.395955 -0.42733,0.285892 7.42059,-1.144301 13.20395,-0.630811 18.66859,1.657538 2.05167,0.859148 2.66151,0.958089 1.22349,0.198502 z m -42.39832,0.185912 c 0,-0.05916 -0.22435,-0.283509 -0.49855,-0.498556 -0.45185,-0.354365 -0.46193,-0.344288 -0.10756,0.107562 0.37217,0.474553 0.60611,0.625467 0.60611,0.390994 z m 18.51779,-0.747106 c 0.23503,-0.15189 0.29913,-0.276164 0.14244,-0.276164 -0.15669,0 -0.47719,0.124274 -0.71222,0.276164 -0.23503,0.151891 -0.29913,0.276164 -0.14244,0.276164 0.15669,0 0.47719,-0.124273 0.71222,-0.276164 z m -23.00479,-0.188676 c -0.19586,-0.07903 -0.51636,-0.07903 -0.71222,0 -0.19586,0.07903 -0.0356,0.143694 0.35611,0.143694 0.39172,0 0.55197,-0.06466 0.35611,-0.143694 z m 1.84585,-0.268333 c -0.0947,-0.09467 -0.34039,-0.104788 -0.54604,-0.02249 -0.22727,0.09094 -0.15976,0.15845 0.17212,0.17212 0.30032,0.01237 0.46858,-0.05496 0.37392,-0.14963 z m 23.15316,-0.255213 c 0.54841,-0.211193 0.80481,-0.387957 0.56978,-0.39281 -0.23503,-0.0049 -0.81193,0.167281 -1.282,0.382521 -1.10026,0.5038 -0.5885,0.511193 0.71222,0.01029 z"
       id="path3" /></g></svg>
