0
SECTION
2
HEADER
9
$INSUNITS
70
4
9
$ACADVER
1
AC1014
9
$HANDSEED
5
FFFF
0
ENDSEC
0
SECTION
2
TABLES
0
TABLE
2
VPORT
5
8
100
AcDbSymbolTable
0
ENDTAB
0
TABLE
2
LTYPE
5
5
100
AcDbSymbolTable
0
LTYPE
5
14
100
AcDbSymbolTableRecord
100
AcDbLinetypeTableRecord
2
BYBLOCK
70
0
0
LTYPE
5
15
100
AcDbSymbolTableRecord
100
AcDbLinetypeTableRecord
2
BYLAYER
70
0
0
ENDTAB
0
TABLE
2
LAYER
5
2
100
AcDbSymbolTable
70
2
0
LAYER
5
50
100
AcDbSymbolTableRecord
100
AcDbLayerTableRecord
2
0
70
0
6
CONTINUOUS
0
ENDTAB
0
TABLE
2
STYLE
5
3
100
AcDbSymbolTable
70
1
0
STYLE
5
11
100
AcDbSymbolTableRecord
100
AcDbTextStyleTableRecord
2
STANDARD
70
0
0
ENDTAB
0
TABLE
2
VIEW
5
6
100
AcDbSymbolTable
70
0
0
ENDTAB
0
TABLE
2
UCS
5
7
100
AcDbSymbolTable
70
0
0
ENDTAB
0
TABLE
2
APPID
5
9
100
AcDbSymbolTable
70
2
0
APPID
5
12
100
AcDbSymbolTableRecord
100
AcDbRegAppTableRecord
2
ACAD
70
0
0
ENDTAB
0
TABLE
2
DIMSTYLE
5
A
100
AcDbSymbolTable
70
1
0
ENDTAB
0
TABLE
2
BLOCK_RECORD
5
1
100
AcDbSymbolTable
70
1
0
BLOCK_RECORD
5
1F
100
AcDbSymbolTableRecord
100
AcDbBlockTableRecord
2
*MODEL_SPACE
0
BLOCK_RECORD
5
1B
100
AcDbSymbolTableRecord
100
AcDbBlockTableRecord
2
*PAPER_SPACE
0
ENDTAB
0
ENDSEC
0
SECTION
2
BLOCKS
0
BLOCK
5
20
100
AcDbEntity
100
AcDbBlockBegin
2
*MODEL_SPACE
0
ENDBLK
5
21
100
AcDbEntity
100
AcDbBlockEnd
0
BLOCK
5
1C
100
AcDbEntity
100
AcDbBlockBegin
2
*PAPER_SPACE
0
ENDBLK
5
1D
100
AcDbEntity
100
AcDbBlockEnd
0
ENDSEC
0
SECTION
2
ENTITIES
0
SPLINE
5
100
100
AcDbEntity
8
0
100
AcDbSpline
70
4
71
3
72
8
73
4
74
0
42
0.000000001
43
0.0000000001
44
0.0000000001
40
0
40
0
40
0
40
0
40
1
40
1
40
1
40
1
41
1
41
1
41
1
41
1
10
57.745042006174728
20
16.272140693664543
30
0
10
57.520520019531254
20
16.429253196716296
30
0
10
57.274600760142022
20
16.557798322041819
30
0
10
57.198559697469086
20
16.557798322041819
30
0
0
SPLINE
5
101
100
AcDbEntity
8
0
100
AcDbSpline
70
4
71
3
72
8
73
4
74
0
42
0.000000001
43
0.0000000001
44
0.0000000001
40
0
40
0
40
0
40
0
40
1
40
1
40
1
40
1
41
1
41
1
41
1
41
1
10
57.198559697469086
20
16.557798322041819
30
0
10
57.122518634796151
20
16.557798322041819
30
0
10
57.060305054982514
20
16.601416460673004
30
0
10
57.060305054982514
20
16.654740079243968
30
0
0
SPLINE
5
102
100
AcDbEntity
8
0
100
AcDbSpline
70
4
71
3
72
8
73
4
74
0
42
0.000000001
43
0.0000000001
44
0.0000000001
40
0
40
0
40
0
40
0
40
1
40
1
40
1
40
1
41
1
41
1
41
1
41
1
10
57.060305054982514
20
16.654740079243968
30
0
10
57.060305054982514
20
16.708055623372378
30
0
10
56.696293036142997
20
17.021812311808251
30
0
10
56.251387214660653
20
17.351976267496738
30
0
0
SPLINE
5
103
100
AcDbEntity
8
0
100
AcDbSpline
70
4
71
3
72
8
73
4
74
0
42
0.000000001
43
0.0000000001
44
0.0000000001
40
0
40
0
40
0
40
0
40
1
40
1
40
1
40
1
41
1
41
1
41
1
41
1
10
56.251387214660653
20
17.351976267496738
30
0
10
53.184491888682061
20
19.627911313374824
30
0
10
49.871854941050216
20
23.052242024739577
30
0
10
46.978245226542164
20
26.937784894307441
30
0
0
SPLINE
5
104
100
AcDbEntity
8
0
100
AcDbSpline
70
4
71
3
72
8
73
4
74
0
42
0.000000001
43
0.0000000001
44
0.0000000001
40
0
40
0
40
0
40
0
40
1
40
1
40
1
40
1
41
1
41
1
41
1
41
1
10
46.978245226542164
20
26.937784894307441
30
0
10
43.504527187347421
20
31.602301534016917
30
0
10
40.517294311523443
20
37.120177745819085
30
0
10
38.969496345520028
20
41.731181017557766
30
0
0
SPLINE
5
105
100
AcDbEntity
8
0
100
AcDbSpline
70
4
71
3
72
8
73
4
74
0
42
0.000000001
43
0.0000000001
44
0.0000000001
40
0
40
0
40
0
40
0
40
1
40
1
40
1
40
1
41
1
41
1
41
1
41
1
10
38.969496345520028
20
41.731181017557766
30
0
10
38.725498803456631
20
42.458058484395337
30
0
10
38.424548180898036
20
43.463964462280266
30
0
10
38.300706418355311
20
43.966529877980548
30
0
0
SPLINE
5
106
100
AcDbEntity
8
0
100
AcDbSpline
70
4
71
3
72
8
73
4
74
0
42
0.000000001
43
0.0000000001
44
0.0000000001
40
0
40
0
40
0
40
0
40
1
40
1
40
1
40
1
41
1
41
1
41
1
41
1
10
38.300706418355311
20
43.966529877980548
30
0
10
38.176864655812587
20
44.469095293680816
30
0
10
37.972698338826504
20
45.107109483083079
30
0
10
37.846995417277029
20
45.384333356221511
30
0
0
SPLINE
5
107
100
AcDbEntity
8
0
100
AcDbSpline
70
4
71
3
72
8
73
4
74
0
42
0.000000001
43
0.0000000001
44
0.0000000001
40
0
40
0
40
0
40
0
40
1
40
1
40
1
40
1
41
1
41
1
41
1
41
1
10
37.846995417277029
20
45.384333356221511
30
0
10
37.543041102091479
20
46.054693762461341
30
0
10
36.687029075622569
20
47.352813816070551
30
0
10
36.473621559143069
20
47.467026805877673
30
0
0
SPLINE
5
108
100
AcDbEntity
8
0
100
AcDbSpline
70
4
71
3
72
8
73
4
74
0
42
0.000000001
43
0.0000000001
44
0.0000000001
40
0
40
0
40
0
40
0
40
1
40
1
40
1
40
1
41
1
41
1
41
1
41
1
10
36.473621559143069
20
47.467026805877673
30
0
10
36.380034732818608
20
47.51711257298787
30
0
10
36.234141667683922
20
47.622677834828686
30
0
10
36.149408467610684
20
47.701617622375487
30
0
0
SPLINE
5
109
100
AcDbEntity
8
0
100
AcDbSpline
70
4
71
3
72
8
73
4
74
0
42
0.000000001
43
0.0000000001
44
0.0000000001
40
0
40
0
40
0
40
0
40
1
40
1
40
1
40
1
41
1
41
1
41
1
41
1
10
36.149408467610684
20
47.701617622375487
30
0
10
35.72774896621705
20
48.094455401102692
30
0
10
34.605223814646408
20
48.438370132446281
30
0
10
33.736379480361947
20
48.440913581848136
30
0
0
SPLINE
5
110
100
AcDbEntity
8
0
100
AcDbSpline
70
4
71
3
72
8
73
4
74
0
42
0.000000001
43
0.0000000001
44
0.0000000001
40
0
40
0
40
0
40
0
40
1
40
1
40
1
40
1
41
1
41
1
41
1
41
1
10
33.736379480361947
20
48.440913581848136
30
0
10
33.490506649017334
20
48.441708914438877
30
0
10
32.72731437683106
20
48.350395043690995
30
0
10
32.040397326151535
20
48.238168366750074
30
0
0
SPLINE
5
111
100
AcDbEntity
8
0
100
AcDbSpline
70
4
71
3
72
8
73
4
74
0
42
0.000000001
43
0.0000000001
44
0.0000000001
40
0
40
0
40
0
40
0
40
1
40
1
40
1
40
1
41
1
41
1
41
1
41
1
10
32.040397326151535
20
48.238168366750074
30
0
10
30.903834756215417
20
48.052476374308256
30
0
10
30.604945135116584
20
48.03382441202799
30
0
10
28.718593867619834
20
48.030881277720127
30
0
0
SPLINE
5
112
100
AcDbEntity
8
0
100
AcDbSpline
70
4
71
3
72
8
73
4
74
0
42
0.000000001
43
0.0000000001
44
0.0000000001
40
0
40
0
40
0
40
0
40
1
40
1
40
1
40
1
41
1
41
1
41
1
41
1
10
28.718593867619834
20
48.030881277720127
30
0
10
26.547327820460005
20
48.027494049072253
30
0
10
25.494684950510663
20
48.123975563049306
30
0
10
24.195981518427537
20
48.44540700912475
30
0
0
SPLINE
5
113
100
AcDbEntity
8
0
100
AcDbSpline
70
4
71
3
72
8
73
4
74
0
42
0.000000001
43
0.0000000001
44
0.0000000001
40
0
40
0
40
0
40
0
40
1
40
1
40
1
40
1
41
1
41
1
41
1
41
1
10
24.195981518427537
20
48.44540700912475
30
0
10
23.548948176701863
20
48.605547428131089
30
0
10
21.473822498321535
20
48.941084925333655
30
0
10
20.690956846872972
20
49.012152131398508
30
0
0
SPLINE
5
114
100
AcDbEntity
8
0
100
AcDbSpline
70
4
71
3
72
8
73
4
74
0
42
0.000000001
43
0.0000000001
44
0.0000000001
40
0
40
0
40
0
40
0
40
1
40
1
40
1
40
1
41
1
41
1
41
1
41
1
10
20.690956846872972
20
49.012152131398508
30
0
10
20.40075532595317
20
49.038503074645988
30
0
10
20.044599739710492
20
49.089654668172187
30
0
10
19.89949998855591
20
49.125844319661454
30
0
0
SPLINE
5
115
100
AcDbEntity
8
0
100
AcDbSpline
70
4
71
3
72
8
73
4
74
0
42
0.000000001
43
0.0000000001
44
0.0000000001
40
0
40
0
40
0
40
0
40
1
40
1
40
1
40
1
41
1
41
1
41
1
41
1
10
19.89949998855591
20
49.125844319661454
30
0
10
19.434805727005006
20
49.241736793518058
30
0
10
16.981868807474775
20
49.497494761149085
30
0
10
16.335039345423382
20
49.497494761149085
30
0
0
SPLINE
5
116
100
AcDbEntity
8
0
100
AcDbSpline
70
4
71
3
72
8
73
4
74
0
42
0.000000001
43
0.0000000001
44
0.0000000001
40
0
40
0
40
0
40
0
40
1
40
1
40
1
40
1
41
1
41
1
41
1
41
1
10
16.335039345423382
20
49.497494761149085
30
0
10
14.798861511548363
20
49.497494761149085
30
0
10
12.931001726786297
20
49.089581998189288
30
0
10
11.344224389394126
20
48.407570171356191
30
0
0
SPLINE
5
117
100
AcDbEntity
8
0
100
AcDbSpline
70
4
71
3
72
8
73
4
74
0
42
0.000000001
43
0.0000000001
44
0.0000000001
40
0
40
0
40
0
40
0
40
1
40
1
40
1
40
1
41
1
41
1
41
1
41
1
10
11.344224389394126
20
48.407570171356191
30
0
10
9.9077739953994772
20
47.790170033772775
30
0
10
9.0177615006764746
20
47.368550904591871
30
0
10
8.7060335159301765
20
47.157795842488603
30
0
0
SPLINE
5
118
100
AcDbEntity
8
0
100
AcDbSpline
70
4
71
3
72
8
73
4
74
0
42
0.000000001
43
0.0000000001
44
0.0000000001
40
0
40
0
40
0
40
0
40
1
40
1
40
1
40
1
41
1
41
1
41
1
41
1
10
8.7060335159301765
20
47.157795842488603
30
0
10
8.196324741840364
20
46.813186709086096
30
0
10
5.9614810387293504
20
45.724299685160318
30
0
10
5.1256313999493921
20
45.413304456075025
30
0
0
SPLINE
5
119
100
AcDbEntity
8
0
100
AcDbSpline
70
4
71
3
72
8
73
4
74
0
42
0.000000001
43
0.0000000001
44
0.0000000001
40
0
40
0
40
0
40
0
40
1
40
1
40
1
40
1
41
1
41
1
41
1
41
1
10
5.1256313999493921
20
45.413304456075025
30
0
10
3.7321153402328493
20
44.894824314117429
30
0
10
2.7762938678264621
20
44.669349543253574
30
0
10
1.7665436983108522
20
44.620902887980137
30
0
0
LINE
5
120
100
AcDbEntity
8
0
100
AcDbLine
10
1.7665436983108522
20
44.620902887980137
30
0
11
0.857204646865527
21
44.577276674906408
31
0
0
LINE
5
121
100
AcDbEntity
8
0
100
AcDbLine
10
0.857204646865527
20
44.577276674906408
30
0
11
0.61704624990622214
21
44.868630822499583
31
0
0
SPLINE
5
122
100
AcDbEntity
8
0
100
AcDbSpline
70
4
71
3
72
8
73
4
74
0
42
0.000000001
43
0.0000000001
44
0.0000000001
40
0
40
0
40
0
40
0
40
1
40
1
40
1
40
1
41
1
41
1
41
1
41
1
10
0.61704624990622214
20
44.868630822499583
30
0
10
0.43893262644608821
20
45.084706942240388
30
0
10
0.37688441500067721
20
45.23511362075805
30
0
10
0.37688441500067721
20
45.450773906707759
30
0
0
SPLINE
5
123
100
AcDbEntity
8
0
100
AcDbSpline
70
4
71
3
72
8
73
4
74
0
42
0.000000001
43
0.0000000001
44
0.0000000001
40
0
40
0
40
0
40
0
40
1
40
1
40
1
40
1
41
1
41
1
41
1
41
1
10
0.37688441500067721
20
45.450773906707759
30
0
10
0.37688441500067721
20
45.809234746297193
30
0
10
0.58515056173006696
20
46.022900644938147
30
0
10
1.5223683923482898
20
46.625944423675527
30
0
0
SPLINE
5
124
100
AcDbEntity
8
0
100
AcDbSpline
70
4
71
3
72
8
73
4
74
0
42
0.000000001
43
0.0000000001
44
0.0000000001
40
0
40
0
40
0
40
0
40
1
40
1
40
1
40
1
41
1
41
1
41
1
41
1
10
1.5223683923482898
20
46.625944423675527
30
0
10
1.8829121857881548
20
46.857935269673661
30
0
10
2.568190250794093
20
47.413816229502352
30
0
10
3.0452086349328362
20
47.861237239837635
30
0
0
SPLINE
5
125
100
AcDbEntity
8
0
100
AcDbSpline
70
4
71
3
72
8
73
4
74
0
42
0.000000001
43
0.0000000001
44
0.0000000001
40
0
40
0
40
0
40
0
40
1
40
1
40
1
40
1
41
1
41
1
41
1
41
1
10
3.0452086349328362
20
47.861237239837635
30
0
10
3.9869099259376535
20
48.744508584340409
30
0
10
4.4335734526316335
20
49.356660334269201
30
0
10
5.3666212121645618
20
51.042721017201735
30
0
0
SPLINE
5
126
100
AcDbEntity
8
0
100
AcDbSpline
70
4
71
3
72
8
73
4
74
0
42
0.000000001
43
0.0000000001
44
0.0000000001
40
0
40
0
40
0
40
0
40
1
40
1
40
1
40
1
41
1
41
1
41
1
41
1
10
5.3666212121645618
20
51.042721017201735
30
0
10
5.8137071331342067
20
51.850625514984124
30
0
10
5.8961618264516202
20
52.068017768859853
30
0
10
6.1385535637537645
20
53.077896372477213
30
0
0
SPLINE
5
127
100
AcDbEntity
8
0
100
AcDbSpline
70
4
71
3
72
8
73
4
74
0
42
0.000000001
43
0.0000000001
44
0.0000000001
40
0
40
0
40
0
40
0
40
1
40
1
40
1
40
1
41
1
41
1
41
1
41
1
10
6.1385535637537645
20
53.077896372477213
30
0
10
6.5030788143475862
20
54.596626345316565
30
0
10
6.7812998811403924
20
55.59638363520304
30
0
10
6.910130639870963
20
55.850478267669672
30
0
0
SPLINE
5
128
100
AcDbEntity
8
0
100
AcDbSpline
70
4
71
3
72
8
73
4
74
0
42
0.000000001
43
0.0000000001
44
0.0000000001
40
0
40
0
40
0
40
0
40
1
40
1
40
1
40
1
41
1
41
1
41
1
41
1
10
6.910130639870963
20
55.850478267669672
30
0
10
6.9686264435450251
20
55.965849939982093
30
0
10
7.0845678687095646
20
56.271124426523834
30
0
10
7.1677780270576488
20
56.528868707021076
30
0
0
SPLINE
5
129
100
AcDbEntity
8
0
100
AcDbSpline
70
4
71
3
72
8
73
4
74
0
42
0.000000001
43
0.0000000001
44
0.0000000001
40
0
40
0
40
0
40
0
40
1
40
1
40
1
40
1
41
1
41
1
41
1
41
1
10
7.1677780270576488
20
56.528868707021076
30
0
10
7.2509881854057321
20
56.786608950297037
30
0
10
7.5357263366381328
20
57.33668842315673
30
0
10
7.8005302031834933
20
57.75125856399535
30
0
0
SPLINE
5
130
100
AcDbEntity
8
0
100
AcDbSpline
70
4
71
3
72
8
73
4
74
0
42
0.000000001
43
0.0000000001
44
0.0000000001
40
0
40
0
40
0
40
0
40
1
40
1
40
1
40
1
41
1
41
1
41
1
41
1
10
7.8005302031834933
20
57.75125856399535
30
0
10
8.0653335650761946
20
58.165832742055258
30
0
10
8.4278008421262118
20
58.742465019226067
30
0
10
8.6060123682022098
20
59.032668558756505
30
0
0
SPLINE
5
131
100
AcDbEntity
8
0
100
AcDbSpline
70
4
71
3
72
8
73
4
74
0
42
0.000000001
43
0.0000000001
44
0.0000000001
40
0
40
0
40
0
40
0
40
1
40
1
40
1
40
1
41
1
41
1
41
1
41
1
10
8.6060123682022098
20
59.032668558756505
30
0
10
8.957844090461732
20
59.605594666798901
30
0
10
9.7298698027928694
20
60.402792453765869
30
0
10
10.639715147018434
20
61.132681687672928
30
0
0
SPLINE
5
132
100
AcDbEntity
8
0
100
AcDbSpline
70
4
71
3
72
8
73
4
74
0
42
0.000000001
43
0.0000000001
44
0.0000000001
40
0
40
0
40
0
40
0
40
1
40
1
40
1
40
1
41
1
41
1
41
1
41
1
10
10.639715147018434
20
61.132681687672928
30
0
10
11.169123037656149
20
61.557381216684973
30
0
10
12.729603934288027
20
62.534053675333652
30
0
10
13.454772647221883
20
62.894565423329666
30
0
0
SPLINE
5
133
100
AcDbEntity
8
0
100
AcDbSpline
70
4
71
3
72
8
73
4
74
0
42
0.000000001
43
0.0000000001
44
0.0000000001
40
0
40
0
40
0
40
0
40
1
40
1
40
1
40
1
41
1
41
1
41
1
41
1
10
13.454772647221883
20
62.894565423329666
30
0
10
14.386593596140546
20
63.35781234105427
30
0
10
16.379974627494814
20
63.815609010060619
30
0
10
18.466992950439455
20
64.045657952626541
30
0
0
SPLINE
5
134
100
AcDbEntity
8
0
100
AcDbSpline
70
4
71
3
72
8
73
4
74
0
42
0.000000001
43
0.0000000001
44
0.0000000001
40
0
40
0
40
0
40
0
40
1
40
1
40
1
40
1
41
1
41
1
41
1
41
1
10
18.466992950439455
20
64.045657952626541
30
0
10
18.902106491724652
20
64.093620141347245
30
0
10
19.293058888117475
20
64.161865329742426
30
0
10
19.335772689183557
20
64.19731616973877
30
0
0
SPLINE
5
135
100
AcDbEntity
8
0
100
AcDbSpline
70
4
71
3
72
8
73
4
74
0
42
0.000000001
43
0.0000000001
44
0.0000000001
40
0
40
0
40
0
40
0
40
1
40
1
40
1
40
1
41
1
41
1
41
1
41
1
10
19.335772689183557
20
64.19731616973877
30
0
10
19.45216577847799
20
64.293914763132719
30
0
10
22.571480385462447
20
64.303095404307044
30
0
10
23.178389803568528
20
64.208640575408936
30
0
0
SPLINE
5
136
100
AcDbEntity
8
0
100
AcDbSpline
70
4
71
3
72
8
73
4
74
0
42
0.000000001
43
0.0000000001
44
0.0000000001
40
0
40
0
40
0
40
0
40
1
40
1
40
1
40
1
41
1
41
1
41
1
41
1
10
23.178389803568528
20
64.208640575408936
30
0
10
23.468591324488326
20
64.163468106587729
30
0
10
24.26570231119792
20
64.073728752136233
30
0
10
24.949746878941855
20
64.009222030639648
30
0
0
SPLINE
5
137
100
AcDbEntity
8
0
100
AcDbSpline
70
4
71
3
72
8
73
4
74
0
42
0.000000001
43
0.0000000001
44
0.0000000001
40
0
40
0
40
0
40
0
40
1
40
1
40
1
40
1
41
1
41
1
41
1
41
1
10
24.949746878941855
20
64.009222030639648
30
0
10
27.357537571589155
20
63.782160631815586
30
0
10
29.152843443552658
20
63.368498865763343
30
0
10
30.753765185674034
20
62.671904595692951
30
0
0
SPLINE
5
138
100
AcDbEntity
8
0
100
AcDbSpline
70
4
71
3
72
8
73
4
74
0
42
0.000000001
43
0.0000000001
44
0.0000000001
40
0
40
0
40
0
40
0
40
1
40
1
40
1
40
1
41
1
41
1
41
1
41
1
10
30.753765185674034
20
62.671904595692951
30
0
10
33.213046598434453
20
61.601822948455805
30
0
10
35.446944077809654
20
59.959368292490637
30
0
10
38.046478557586674
20
57.309994316101069
30
0
0
LINE
5
139
100
AcDbEntity
8
0
100
AcDbLine
10
38.046478557586681
20
57.309994316101069
30
0
11
39.497484143575036
21
55.831168238321929
31
0
0
LINE
5
140
100
AcDbEntity
8
0
100
AcDbLine
10
39.497484143575036
20
55.831168238321929
30
0
11
39.497484143575036
21
56.52743145624796
31
0
0
SPLINE
5
141
100
AcDbEntity
8
0
100
AcDbSpline
70
4
71
3
72
8
73
4
74
0
42
0.000000001
43
0.0000000001
44
0.0000000001
40
0
40
0
40
0
40
0
40
1
40
1
40
1
40
1
41
1
41
1
41
1
41
1
10
39.497484143575036
20
56.52743145624796
30
0
10
39.497484143575036
20
56.910374005635575
30
0
10
39.544913419087734
20
57.444155216217034
30
0
10
39.602879842122405
20
57.713615512847895
30
0
0
SPLINE
5
142
100
AcDbEntity
8
0
100
AcDbSpline
70
4
71
3
72
8
73
4
74
0
42
0.000000001
43
0.0000000001
44
0.0000000001
40
0
40
0
40
0
40
0
40
1
40
1
40
1
40
1
41
1
41
1
41
1
41
1
10
39.602879842122405
20
57.713615512847895
30
0
10
39.933221435546884
20
59.24913628896077
30
0
10
40.04631207784017
20
59.650141366322835
30
0
10
40.400037256876629
20
60.540219465891518
30
0
0
SPLINE
5
143
100
AcDbEntity
8
0
100
AcDbSpline
70
4
71
3
72
8
73
4
74
0
42
0.000000001
43
0.0000000001
44
0.0000000001
40
0
40
0
40
0
40
0
40
1
40
1
40
1
40
1
41
1
41
1
41
1
41
1
10
40.400037256876629
20
60.540219465891518
30
0
10
40.847708574930834
20
61.666697057088207
30
0
10
41.406084537506104
20
62.752947775522863
30
0
10
41.87242396672567
20
63.404539140065509
30
0
0
SPLINE
5
144
100
AcDbEntity
8
0
100
AcDbSpline
70
4
71
3
72
8
73
4
74
0
42
0.000000001
43
0.0000000001
44
0.0000000001
40
0
40
0
40
0
40
0
40
1
40
1
40
1
40
1
41
1
41
1
41
1
41
1
10
41.87242396672567
20
63.404539140065509
30
0
10
42.591885058085133
20
64.409807236989337
30
0
10
44.292007382710779
20
66.09915018081665
30
0
10
45.688772900899259
20
67.196684932708735
30
0
0
SPLINE
5
145
100
AcDbEntity
8
0
100
AcDbSpline
70
4
71
3
72
8
73
4
74
0
42
0.000000001
43
0.0000000001
44
0.0000000001
40
0
40
0
40
0
40
0
40
1
40
1
40
1
40
1
41
1
41
1
41
1
41
1
10
45.688772900899259
20
67.196684932708735
30
0
10
47.08731883366903
20
68.295618581771848
30
0
10
47.282724380493171
20
68.421549606323239
30
0
10
48.580400339762377
20
69.0602460861206
30
0
0
SPLINE
5
146
100
AcDbEntity
8
0
100
AcDbSpline
70
4
71
3
72
8
73
4
74
0
42
0.000000001
43
0.0000000001
44
0.0000000001
40
0
40
0
40
0
40
0
40
1
40
1
40
1
40
1
41
1
41
1
41
1
41
1
10
48.580400339762377
20
69.0602460861206
30
0
10
50.75831972757976
20
70.132178799311319
30
0
10
52.057998148600262
20
70.551450284322101
30
0
10
54.497485065460218
20
70.969074583053583
30
0
0
SPLINE
5
147
100
AcDbEntity
8
0
100
AcDbSpline
70
4
71
3
72
8
73
4
74
0
42
0.000000001
43
0.0000000001
44
0.0000000001
40
0
40
0
40
0
40
0
40
1
40
1
40
1
40
1
41
1
41
1
41
1
41
1
10
54.497485065460218
20
70.969074583053583
30
0
10
59.011389128367114
20
71.74182093938191
30
0
10
63.066588147481291
20
71.41778750419617
30
0
10
66.595474815368661
20
70.002370023727408
30
0
0
SPLINE
5
148
100
AcDbEntity
8
0
100
AcDbSpline
70
4
71
3
72
8
73
4
74
0
42
0.000000001
43
0.0000000001
44
0.0000000001
40
0
40
0
40
0
40
0
40
1
40
1
40
1
40
1
41
1
41
1
41
1
41
1
10
66.595474815368661
20
70.002370023727408
30
0
10
67.092961406707772
20
69.802828343709308
30
0
10
67.737435150146496
20
69.566588322321564
30
0
10
68.027638689676934
20
69.477389955520636
30
0
0
SPLINE
5
149
100
AcDbEntity
8
0
100
AcDbSpline
70
4
71
3
72
8
73
4
74
0
42
0.000000001
43
0.0000000001
44
0.0000000001
40
0
40
0
40
0
40
0
40
1
40
1
40
1
40
1
41
1
41
1
41
1
41
1
10
68.027638689676934
20
69.477389955520636
30
0
10
69.007141240437846
20
69.17631821632385
30
0
10
70.685018475850427
20
68.328077840805037
30
0
10
71.532665379842129
20
67.705441427230838
30
0
0
SPLINE
5
150
100
AcDbEntity
8
0
100
AcDbSpline
70
4
71
3
72
8
73
4
74
0
42
0.000000001
43
0.0000000001
44
0.0000000001
40
0
40
0
40
0
40
0
40
1
40
1
40
1
40
1
41
1
41
1
41
1
41
1
10
71.532665379842129
20
67.705441427230838
30
0
10
73.129289499918627
20
66.532638740539539
30
0
10
74.217094548543301
20
65.542526372273755
30
0
10
75.592591985066747
20
64.010126368204752
30
0
0
SPLINE
5
151
100
AcDbEntity
8
0
100
AcDbSpline
70
4
71
3
72
8
73
4
74
0
42
0.000000001
43
0.0000000001
44
0.0000000001
40
0
40
0
40
0
40
0
40
1
40
1
40
1
40
1
41
1
41
1
41
1
41
1
10
75.592591985066747
20
64.010126368204752
30
0
10
77.433080418904638
20
61.959686279296875
30
0
10
77.687837155660006
20
61.725503222147616
30
0
10
78.919601440429702
20
60.951806100209545
30
0
0
SPLINE
5
152
100
AcDbEntity
8
0
100
AcDbSpline
70
4
71
3
72
8
73
4
74
0
42
0.000000001
43
0.0000000001
44
0.0000000001
40
0
40
0
40
0
40
0
40
1
40
1
40
1
40
1
41
1
41
1
41
1
41
1
10
78.919601440429702
20
60.951806100209545
30
0
10
80.310585657755539
20
60.078094895680742
30
0
10
81.561219914754247
20
59.758145109812411
30
0
10
83.630659166971839
20
59.74656232198079
30
0
0
SPLINE
5
153
100
AcDbEntity
8
0
100
AcDbSpline
70
4
71
3
72
8
73
4
74
0
42
0.000000001
43
0.0000000001
44
0.0000000001
40
0
40
0
40
0
40
0
40
1
40
1
40
1
40
1
41
1
41
1
41
1
41
1
10
83.630659166971839
20
59.74656232198079
30
0
10
84.899719301859562
20
59.739472961425776
30
0
10
85.675188763936362
20
59.642963186899813
30
0
10
85.929654820760106
20
59.460492897033681
30
0
0
SPLINE
5
154
100
AcDbEntity
8
0
100
AcDbSpline
70
4
71
3
72
8
73
4
74
0
42
0.000000001
43
0.0000000001
44
0.0000000001
40
0
40
0
40
0
40
0
40
1
40
1
40
1
40
1
41
1
41
1
41
1
41
1
10
85.929654820760106
20
59.460492897033681
30
0
10
86.194577280680349
20
59.270517412821448
30
0
10
86.457295417785659
20
58.719073359171546
30
0
10
86.457295417785659
20
58.352961985270177
30
0
0
SPLINE
5
155
100
AcDbEntity
8
0
100
AcDbSpline
70
4
71
3
72
8
73
4
74
0
42
0.000000001
43
0.0000000001
44
0.0000000001
40
0
40
0
40
0
40
0
40
1
40
1
40
1
40
1
41
1
41
1
41
1
41
1
10
86.457295417785659
20
58.352961985270177
30
0
10
86.457295417785659
20
58.026980590820301
30
0
10
86.261514409383153
20
57.687252457936602
30
0
10
85.922500864664727
20
57.424974377950022
30
0
0
SPLINE
5
156
100
AcDbEntity
8
0
100
AcDbSpline
70
4
71
3
72
8
73
4
74
0
42
0.000000001
43
0.0000000001
44
0.0000000001
40
0
40
0
40
0
40
0
40
1
40
1
40
1
40
1
41
1
41
1
41
1
41
1
10
85.922500864664727
20
57.424974377950022
30
0
10
85.717030525207534
20
57.266008790334055
30
0
10
84.62899131774904
20
56.991954135894773
30
0
10
82.914577229817723
20
56.667333285013832
30
0
0
SPLINE
5
157
100
AcDbEntity
8
0
100
AcDbSpline
70
4
71
3
72
8
73
4
74
0
42
0.000000001
43
0.0000000001
44
0.0000000001
40
0
40
0
40
0
40
0
40
1
40
1
40
1
40
1
41
1
41
1
41
1
41
1
10
82.914577229817723
20
56.667333285013832
30
0
10
80.320670636494953
20
56.176185131072991
30
0
10
79.080880355834978
20
56.066372712453195
30
0
10
77.748855717976909
20
56.209786923726391
30
0
0
SPLINE
5
158
100
AcDbEntity
8
0
100
AcDbSpline
70
4
71
3
72
8
73
4
74
0
42
0.000000001
43
0.0000000001
44
0.0000000001
40
0
40
0
40
0
40
0
40
1
40
1
40
1
40
1
41
1
41
1
41
1
41
1
10
77.748855717976909
20
56.209786923726391
30
0
10
76.871874364217135
20
56.304209454854323
30
0
10
76.622882779439308
20
56.37023417154947
30
0
10
74.780698712666847
20
56.996863396962482
30
0
0
SPLINE
5
159
100
AcDbEntity
8
0
100
AcDbSpline
70
4
71
3
72
8
73
4
74
0
42
0.000000001
43
0.0000000001
44
0.0000000001
40
0
40
0
40
0
40
0
40
1
40
1
40
1
40
1
41
1
41
1
41
1
41
1
10
74.780698712666847
20
56.996863396962482
30
0
10
72.815419769287118
20
57.665362644195554
30
0
10
71.826122919718443
20
57.710555299123115
30
0
10
69.839511299133306
20
57.222592512766511
30
0
0
SPLINE
5
160
100
AcDbEntity
8
0
100
AcDbSpline
70
4
71
3
72
8
73
4
74
0
42
0.000000001
43
0.0000000001
44
0.0000000001
40
0
40
0
40
0
40
0
40
1
40
1
40
1
40
1
41
1
41
1
41
1
41
1
10
69.839511299133306
20
57.222592512766511
30
0
10
69.359719848632821
20
57.1047419865926
30
0
10
68.689638010660815
20
56.865564886728919
30
0
10
68.222426541646328
20
56.645395024617507
30
0
0
SPLINE
5
161
100
AcDbEntity
8
0
100
AcDbSpline
70
4
71
3
72
8
73
4
74
0
42
0.000000001
43
0.0000000001
44
0.0000000001
40
0
40
0
40
0
40
0
40
1
40
1
40
1
40
1
41
1
41
1
41
1
41
1
10
68.222426541646328
20
56.645395024617507
30
0
10
67.783637110392263
20
56.43861662546793
30
0
10
67.221110884348562
20
56.179160563151036
30
0
10
66.972369607289636
20
56.068827342987049
30
0
0
SPLINE
5
162
100
AcDbEntity
8
0
100
AcDbSpline
70
4
71
3
72
8
73
4
74
0
42
0.000000001
43
0.0000000001
44
0.0000000001
40
0
40
0
40
0
40
0
40
1
40
1
40
1
40
1
41
1
41
1
41
1
41
1
10
66.972369607289636
20
56.068827342987049
30
0
10
66.238257439931246
20
55.743197186787924
30
0
10
64.653958956400558
20
54.9163823445638
30
0
10
64.409553654988628
20
54.731352456410718
30
0
0
SPLINE
5
163
100
AcDbEntity
8
0
100
AcDbSpline
70
4
71
3
72
8
73
4
74
0
42
0.000000001
43
0.0000000001
44
0.0000000001
40
0
40
0
40
0
40
0
40
1
40
1
40
1
40
1
41
1
41
1
41
1
41
1
10
64.409553654988628
20
54.731352456410718
30
0
10
63.937194728851324
20
54.373735396067289
30
0
10
60.831093947092697
20
52.556610361735025
30
0
10
60.037695185343438
20
52.173740482330317
30
0
0
SPLINE
5
164
100
AcDbEntity
8
0
100
AcDbSpline
70
4
71
3
72
8
73
4
74
0
42
0.000000001
43
0.0000000001
44
0.0000000001
40
0
40
0
40
0
40
0
40
1
40
1
40
1
40
1
41
1
41
1
41
1
41
1
10
60.037695185343438
20
52.173740482330317
30
0
10
58.001353073120121
20
51.191060638427722
30
0
10
56.418798669179289
20
50.585017204284661
30
0
10
55.087763150533043
20
50.278143978118884
30
0
0
SPLINE
5
165
100
AcDbEntity
8
0
100
AcDbSpline
70
4
71
3
72
8
73
4
74
0
42
0.000000001
43
0.0000000001
44
0.0000000001
40
0
40
0
40
0
40
0
40
1
40
1
40
1
40
1
41
1
41
1
41
1
41
1
10
55.087763150533043
20
50.278143978118884
30
0
10
54.296261882781991
20
50.095661576588945
30
0
10
54.037601153055839
20
50.076262728373202
30
0
10
51.557798544565841
20
50.01339915593465
30
0
0
SPLINE
5
166
100
AcDbEntity
8
0
100
AcDbSpline
70
4
71
3
72
8
73
4
74
0
42
0.000000001
43
0.0000000001
44
0.0000000001
40
0
40
0
40
0
40
0
40
1
40
1
40
1
40
1
41
1
41
1
41
1
41
1
10
51.557798544565841
20
50.01339915593465
30
0
10
47.706927331288668
20
49.915779145558673
30
0
10
47.481121508280438
20
49.894563547770176
30
0
10
46.891654904683442
20
49.57503363291422
30
0
0
SPLINE
5
167
100
AcDbEntity
8
0
100
AcDbSpline
70
4
71
3
72
8
73
4
74
0
42
0.000000001
43
0.0000000001
44
0.0000000001
40
0
40
0
40
0
40
0
40
1
40
1
40
1
40
1
41
1
41
1
41
1
41
1
10
46.891654904683442
20
49.57503363291422
30
0
10
46.133117548624682
20
49.16385072072346
30
0
10
45.784172439575201
20
48.603016090393055
30
0
10
45.706225808461518
20
47.669767983754468
30
0
0
SPLINE
5
168
100
AcDbEntity
8
0
100
AcDbSpline
70
4
71
3
72
8
73
4
74
0
42
0.000000001
43
0.0000000001
44
0.0000000001
40
0
40
0
40
0
40
0
40
1
40
1
40
1
40
1
41
1
41
1
41
1
41
1
10
45.706225808461518
20
47.669767983754468
30
0
10
45.664061069488532
20
47.164905389149972
30
0
10
45.682095336914074
20
47.065537261962888
30
0
10
45.94233865737916
20
46.369366900126124
30
0
0
SPLINE
5
169
100
AcDbEntity
8
0
100
AcDbSpline
70
4
71
3
72
8
73
4
74
0
42
0.000000001
43
0.0000000001
44
0.0000000001
40
0
40
0
40
0
40
0
40
1
40
1
40
1
40
1
41
1
41
1
41
1
41
1
10
45.94233865737916
20
46.369366900126124
30
0
10
46.310408083597821
20
45.384737078348785
30
0
10
46.63942143122356
20
44.654399712880448
30
0
10
46.757308292388927
20
44.560320345560704
30
0
0
SPLINE
5
170
100
AcDbEntity
8
0
100
AcDbSpline
70
4
71
3
72
8
73
4
74
0
42
0.000000001
43
0.0000000001
44
0.0000000001
40
0
40
0
40
0
40
0
40
1
40
1
40
1
40
1
41
1
41
1
41
1
41
1
10
46.757308292388927
20
44.560320345560704
30
0
10
46.809255218505868
20
44.518862120310459
30
0
10
47.0467487970988
20
44.138749663035064
30
0
10
47.28506596883139
20
43.715620613098139
30
0
0
SPLINE
5
171
100
AcDbEntity
8
0
100
AcDbSpline
70
4
71
3
72
8
73
4
74
0
42
0.000000001
43
0.0000000001
44
0.0000000001
40
0
40
0
40
0
40
0
40
1
40
1
40
1
40
1
41
1
41
1
41
1
41
1
10
47.28506596883139
20
43.715620613098139
30
0
10
48.653881804148362
20
41.285334523518877
30
0
10
50.593576876322437
20
39.521613852183023
30
0
10
53.404528522491461
20
38.151328468322745
30
0
0
SPLINE
5
172
100
AcDbEntity
8
0
100
AcDbSpline
70
4
71
3
72
8
73
4
74
0
42
0.000000001
43
0.0000000001
44
0.0000000001
40
0
40
0
40
0
40
0
40
1
40
1
40
1
40
1
41
1
41
1
41
1
41
1
10
53.404528522491461
20
38.151328468322745
30
0
10
54.026385752360035
20
37.848185634613031
30
0
10
54.908296553293866
20
37.465590286254873
30
0
10
55.364324919382739
20
37.301117928822826
30
0
0
SPLINE
5
173
100
AcDbEntity
8
0
100
AcDbSpline
70
4
71
3
72
8
73
4
74
0
42
0.000000001
43
0.0000000001
44
0.0000000001
40
0
40
0
40
0
40
0
40
1
40
1
40
1
40
1
41
1
41
1
41
1
41
1
10
55.364324919382739
20
37.301117928822826
30
0
10
56.996585591634116
20
36.712430508931469
30
0
10
59.289133803049729
20
36.217600409189849
30
0
10
61.432167561848971
20
35.991423161824528
30
0
0
SPLINE
5
174
100
AcDbEntity
8
0
100
AcDbSpline
70
4
71
3
72
8
73
4
74
0
42
0.000000001
43
0.0000000001
44
0.0000000001
40
0
40
0
40
0
40
0
40
1
40
1
40
1
40
1
41
1
41
1
41
1
41
1
10
61.432167561848971
20
35.991423161824528
30
0
10
62.8148754755656
20
35.845489724477126
30
0
10
66.802342033386239
20
35.869361813863108
30
0
10
68.291463025410977
20
36.032489776611321
30
0
0
SPLINE
5
175
100
AcDbEntity
8
0
100
AcDbSpline
70
4
71
3
72
8
73
4
74
0
42
0.000000001
43
0.0000000001
44
0.0000000001
40
0
40
0
40
0
40
0
40
1
40
1
40
1
40
1
41
1
41
1
41
1
41
1
10
68.291463025410977
20
36.032489776611321
30
0
10
72.048630332946786
20
36.444076410929355
30
0
10
75.199188995361339
20
37.122692934672024
30
0
10
78.904025840759289
20
38.318380610148104
30
0
0
LINE
5
176
100
AcDbEntity
8
0
100
AcDbLine
10
78.904025840759289
20
38.318380610148111
30
0
11
79.981414858500173
21
38.666090329488114
31
0
0
LINE
5
177
100
AcDbEntity
8
0
100
AcDbLine
10
79.981414858500173
20
38.666090329488114
30
0
11
79.504142634073901
21
38.832989056905099
31
0
0
SPLINE
5
178
100
AcDbEntity
8
0
100
AcDbSpline
70
4
71
3
72
8
73
4
74
0
42
0.000000001
43
0.0000000001
44
0.0000000001
40
0
40
0
40
0
40
0
40
1
40
1
40
1
40
1
41
1
41
1
41
1
41
1
10
79.504142634073901
20
38.832989056905099
30
0
10
78.928725560506194
20
39.034208202362052
30
0
10
75.856545511881521
20
40.559817600250234
30
0
10
75.265883890787777
20
40.93765710194905
30
0
0
SPLINE
5
179
100
AcDbEntity
8
0
100
AcDbSpline
70
4
71
3
72
8
73
4
74
0
42
0.000000001
43
0.0000000001
44
0.0000000001
40
0
40
0
40
0
40
0
40
1
40
1
40
1
40
1
41
1
41
1
41
1
41
1
10
75.265883890787777
20
40.93765710194905
30
0
10
74.628802299499526
20
41.345190366109208
30
0
10
74.183892440795901
20
41.787730375925698
30
0
10
74.097092183431002
20
42.100223414103183
30
0
0
SPLINE
5
180
100
AcDbEntity
8
0
100
AcDbSpline
70
4
71
3
72
8
73
4
74
0
42
0.000000001
43
0.0000000001
44
0.0000000001
40
0
40
0
40
0
40
0
40
1
40
1
40
1
40
1
41
1
41
1
41
1
41
1
10
74.097092183431002
20
42.100223414103183
30
0
10
73.970444552103686
20
42.556191221872965
30
0
10
74.003929265340176
20
42.968480332692458
30
0
10
74.190392367045092
20
43.248921871185296
30
0
0
SPLINE
5
181
100
AcDbEntity
8
0
100
AcDbSpline
70
4
71
3
72
8
73
4
74
0
42
0.000000001
43
0.0000000001
44
0.0000000001
40
0
40
0
40
0
40
0
40
1
40
1
40
1
40
1
41
1
41
1
41
1
41
1
10
74.190392367045092
20
43.248921871185296
30
0
10
74.389919916788742
20
43.549020640055332
30
0
10
75.068156941731786
20
43.900848325093584
30
0
10
75.583241780598968
20
43.971447213490798
30
0
0
SPLINE
5
182
100
AcDbEntity
8
0
100
AcDbSpline
70
4
71
3
72
8
73
4
74
0
42
0.000000001
43
0.0000000001
44
0.0000000001
40
0
40
0
40
0
40
0
40
1
40
1
40
1
40
1
41
1
41
1
41
1
41
1
10
75.583241780598968
20
43.971447213490798
30
0
10
75.772401746114099
20
43.997378285725901
30
0
10
76.761593627929699
20
43.974915186564118
30
0
10
77.781428019205748
20
43.921506786346427
30
0
0
SPLINE
5
183
100
AcDbEntity
8
0
100
AcDbSpline
70
4
71
3
72
8
73
4
74
0
42
0.000000001
43
0.0000000001
44
0.0000000001
40
0
40
0
40
0
40
0
40
1
40
1
40
1
40
1
41
1
41
1
41
1
41
1
10
77.781428019205748
20
43.921506786346427
30
0
10
79.443107922871917
20
43.834504667917884
30
0
10
79.741353607177743
20
43.837568918863923
30
0
10
80.653264999389648
20
43.950998687744132
30
0
0
SPLINE
5
184
100
AcDbEntity
8
0
100
AcDbSpline
70
4
71
3
72
8
73
4
74
0
42
0.000000001
43
0.0000000001
44
0.0000000001
40
0
40
0
40
0
40
0
40
1
40
1
40
1
40
1
41
1
41
1
41
1
41
1
10
80.653264999389648
20
43.950998687744132
30
0
10
82.326725514729844
20
44.159149742126459
30
0
10
84.324810918172219
20
44.592791716257729
30
0
10
85.725234158833828
20
45.051751104990636
30
0
0
SPLINE
5
185
100
AcDbEntity
8
0
100
AcDbSpline
70
4
71
3
72
8
73
4
74
0
42
0.000000001
43
0.0000000001
44
0.0000000001
40
0
40
0
40
0
40
0
40
1
40
1
40
1
40
1
41
1
41
1
41
1
41
1
10
85.725234158833828
20
45.051751104990636
30
0
10
86.842688560485868
20
45.417975521087641
30
0
10
88.00111268361411
20
45.635137653350817
30
0
10
91.168336995442729
20
46.072142632802326
30
0
0
SPLINE
5
186
100
AcDbEntity
8
0
100
AcDbSpline
70
4
71
3
72
8
73
4
74
0
42
0.000000001
43
0.0000000001
44
0.0000000001
40
0
40
0
40
0
40
0
40
1
40
1
40
1
40
1
41
1
41
1
41
1
41
1
10
91.168336995442729
20
46.072142632802326
30
0
10
91.972979418436708
20
46.183166217803944
30
0
10
93.58618036905925
20
46.205895773569736
30
0
10
94.145723088582372
20
46.114101473490393
30
0
0
SPLINE
5
187
100
AcDbEntity
8
0
100
AcDbSpline
70
4
71
3
72
8
73
4
74
0
42
0.000000001
43
0.0000000001
44
0.0000000001
40
0
40
0
40
0
40
0
40
1
40
1
40
1
40
1
41
1
41
1
41
1
41
1
10
94.145723088582372
20
46.114101473490393
30
0
10
94.530898221333842
20
46.050910886128733
30
0
10
94.789918263753265
20
46.150949192047115
30
0
10
95.517215601603198
20
46.643792978922519
30
0
0
SPLINE
5
188
100
AcDbEntity
8
0
100
AcDbSpline
70
4
71
3
72
8
73
4
74
0
42
0.000000001
43
0.0000000001
44
0.0000000001
40
0
40
0
40
0
40
0
40
1
40
1
40
1
40
1
41
1
41
1
41
1
41
1
10
95.517215601603198
20
46.643792978922519
30
0
10
95.753320376078307
20
46.803788057963047
30
0
10
95.978597323099791
20
46.934690920511876
30
0
10
96.017831039428728
20
46.934690920511876
30
0
0
SPLINE
5
189
100
AcDbEntity
8
0
100
AcDbSpline
70
4
71
3
72
8
73
4
74
0
42
0.000000001
43
0.0000000001
44
0.0000000001
40
0
40
0
40
0
40
0
40
1
40
1
40
1
40
1
41
1
41
1
41
1
41
1
10
96.017831039428728
20
46.934690920511876
30
0
10
96.095684814453136
20
46.934690920511876
30
0
10
96.742350769042972
20
47.45121704737344
30
0
10
97.34485759735108
20
47.994659328460685
30
0
0
SPLINE
5
190
100
AcDbEntity
8
0
100
AcDbSpline
70
4
71
3
72
8
73
4
74
0
42
0.000000001
43
0.0000000001
44
0.0000000001
40
0
40
0
40
0
40
0
40
1
40
1
40
1
40
1
41
1
41
1
41
1
41
1
10
97.34485759735108
20
47.994659328460685
30
0
10
97.875962130228686
20
48.473695818583167
30
0
10
99.176666005452489
20
49.453166071573882
30
0
10
101.31901747385662
20
50.987322266896555
30
0
0
SPLINE
5
191
100
AcDbEntity
8
0
100
AcDbSpline
70
4
71
3
72
8
73
4
74
0
42
0.000000001
43
0.0000000001
44
0.0000000001
40
0
40
0
40
0
40
0
40
1
40
1
40
1
40
1
41
1
41
1
41
1
41
1
10
101.31901747385662
20
50.987322266896555
30
0
10
101.91328029632571
20
51.412877686818433
30
0
10
102.58605092366538
20
51.905907185872387
30
0
10
102.81406510670982
20
52.082947413126625
30
0
0
SPLINE
5
192
100
AcDbEntity
8
0
100
AcDbSpline
70
4
71
3
72
8
73
4
74
0
42
0.000000001
43
0.0000000001
44
0.0000000001
40
0
40
0
40
0
40
0
40
1
40
1
40
1
40
1
41
1
41
1
41
1
41
1
10
102.81406510670982
20
52.082947413126625
30
0
10
105.56861273447674
20
54.221641159057612
30
0
10
108.21687647501631
20
55.945405451456701
30
0
10
110.46481742858889
20
57.062847741444898
30
0
0
SPLINE
5
193
100
AcDbEntity
8
0
100
AcDbSpline
70
4
71
3
72
8
73
4
74
0
42
0.000000001
43
0.0000000001
44
0.0000000001
40
0
40
0
40
0
40
0
40
1
40
1
40
1
40
1
41
1
41
1
41
1
41
1
10
110.46481742858889
20
57.062847741444898
30
0
10
113.22441965738933
20
58.434634971618642
30
0
10
113.66943448384605
20
58.618849341074622
30
0
10
116.38189811706545
20
59.51221373875935
30
0
0
SPLINE
5
194
100
AcDbEntity
8
0
100
AcDbSpline
70
4
71
3
72
8
73
4
74
0
42
0.000000001
43
0.0000000001
44
0.0000000001
40
0
40
0
40
0
40
0
40
1
40
1
40
1
40
1
41
1
41
1
41
1
41
1
10
116.38189811706545
20
59.51221373875935
30
0
10
118.23052558898928
20
60.121067078908283
30
0
10
119.72193164825441
20
60.660044193267815
30
0
10
121.20602226257326
20
61.255598926544188
30
0
0
SPLINE
5
195
100
AcDbEntity
8
0
100
AcDbSpline
70
4
71
3
72
8
73
4
74
0
42
0.000000001
43
0.0000000001
44
0.0000000001
40
0
40
0
40
0
40
0
40
1
40
1
40
1
40
1
41
1
41
1
41
1
41
1
10
121.20602226257326
20
61.255598926544188
30
0
10
121.64132353464764
20
61.430285453796373
30
0
10
122.26883691151939
20
61.649244149525956
30
0
10
122.60049463907879
20
61.742176946004221
30
0
0
SPLINE
5
196
100
AcDbEntity
8
0
100
AcDbSpline
70
4
71
3
72
8
73
4
74
0
42
0.000000001
43
0.0000000001
44
0.0000000001
40
0
40
0
40
0
40
0
40
1
40
1
40
1
40
1
41
1
41
1
41
1
41
1
10
122.60049463907879
20
61.742176946004221
30
0
10
123.99738934834801
20
62.133597660064694
30
0
10
126.23664220174156
20
62.846910063425696
30
0
10
126.72307891845705
20
63.055424467722574
30
0
0
SPLINE
5
197
100
AcDbEntity
8
0
100
AcDbSpline
70
4
71
3
72
8
73
4
74
0
42
0.000000001
43
0.0000000001
44
0.0000000001
40
0
40
0
40
0
40
0
40
1
40
1
40
1
40
1
41
1
41
1
41
1
41
1
10
126.72307891845705
20
63.055424467722574
30
0
10
127.11950982411705
20
63.225351111094156
30
0
10
129.03731104532878
20
63.703023020426421
30
0
10
129.61054801940921
20
63.774606990814206
30
0
0
SPLINE
5
198
100
AcDbEntity
8
0
100
AcDbSpline
70
4
71
3
72
8
73
4
74
0
42
0.000000001
43
0.0000000001
44
0.0000000001
40
0
40
0
40
0
40
0
40
1
40
1
40
1
40
1
41
1
41
1
41
1
41
1
10
129.61054801940921
20
63.774606990814206
30
0
10
130.01697508494061
20
63.825358899434406
30
0
10
130.36839097340905
20
63.904468250274661
30
0
10
132.964816792806
20
64.529676373799632
30
0
0
SPLINE
5
199
100
AcDbEntity
8
0
100
AcDbSpline
70
4
71
3
72
8
73
4
74
0
42
0.000000001
43
0.0000000001
44
0.0000000001
40
0
40
0
40
0
40
0
40
1
40
1
40
1
40
1
41
1
41
1
41
1
41
1
10
132.964816792806
20
64.529676373799632
30
0
10
135.11079368591311
20
65.046416473388661
30
0
10
136.32827428181969
20
65.227933979034418
30
0
10
138.51778856913251
20
65.357585302988682
30
0
0
SPLINE
5
200
100
AcDbEntity
8
0
100
AcDbSpline
70
4
71
3
72
8
73
4
74
0
42
0.000000001
43
0.0000000001
44
0.0000000001
40
0
40
0
40
0
40
0
40
1
40
1
40
1
40
1
41
1
41
1
41
1
41
1
10
138.51778856913251
20
65.357585302988682
30
0
10
139.47832425435388
20
65.4144616762797
30
0
10
140.29781557718914
20
65.481762154897055
30
0
10
140.33888219197593
20
65.507140127817792
30
0
0
SPLINE
5
201
100
AcDbEntity
8
0
100
AcDbSpline
70
4
71
3
72
8
73
4
74
0
42
0.000000001
43
0.0000000001
44
0.0000000001
40
0
40
0
40
0
40
0
40
1
40
1
40
1
40
1
41
1
41
1
41
1
41
1
10
140.33888219197593
20
65.507140127817792
30
0
10
140.37994880676271
20
65.532514063517254
30
0
10
140.91691538492842
20
65.583443609873456
30
0
10
141.53215560913088
20
65.620307477315265
30
0
0
SPLINE
5
202
100
AcDbEntity
8
0
100
AcDbSpline
70
4
71
3
72
8
73
4
74
0
42
0.000000001
43
0.0000000001
44
0.0000000001
40
0
40
0
40
0
40
0
40
1
40
1
40
1
40
1
41
1
41
1
41
1
41
1
10
141.53215560913088
20
65.620307477315265
30
0
10
142.43337643941246
20
65.674305311838779
30
0
10
142.76061744689943
20
65.726187642415368
30
0
10
143.21608060201012
20
65.887292957305903
30
0
0
SPLINE
5
203
100
AcDbEntity
8
0
100
AcDbSpline
70
4
71
3
72
8
73
4
74
0
42
0.000000001
43
0.0000000001
44
0.0000000001
40
0
40
0
40
0
40
0
40
1
40
1
40
1
40
1
41
1
41
1
41
1
41
1
10
143.21608060201012
20
65.887292957305903
30
0
10
143.52701123555502
20
65.997270901997879
30
0
10
144.29020754496258
20
66.209705448150629
30
0
10
144.91205266316734
20
66.359365240732828
30
0
0
SPLINE
5
204
100
AcDbEntity
8
0
100
AcDbSpline
70
4
71
3
72
8
73
4
74
0
42
0.000000001
43
0.0000000001
44
0.0000000001
40
0
40
0
40
0
40
0
40
1
40
1
40
1
40
1
41
1
41
1
41
1
41
1
10
144.91205266316734
20
66.359365240732828
30
0
10
145.9426099141439
20
66.607385873794556
30
0
10
146.14279149373374
20
66.631891806920365
30
0
10
147.17336489359539
20
66.636183373133349
30
0
0
SPLINE
5
205
100
AcDbEntity
8
0
100
AcDbSpline
70
4
71
3
72
8
73
4
74
0
42
0.000000001
43
0.0000000001
44
0.0000000001
40
0
40
0
40
0
40
0
40
1
40
1
40
1
40
1
41
1
41
1
41
1
41
1
10
147.17336489359539
20
66.636183373133349
30
0
10
148.42147992451987
20
66.641369183858231
30
0
10
148.79317881266277
20
66.582177464167273
30
0
10
150.03769264221194
20
66.179939015706367
30
0
0
SPLINE
5
206
100
AcDbEntity
8
0
100
AcDbSpline
70
4
71
3
72
8
73
4
74
0
42
0.000000001
43
0.0000000001
44
0.0000000001
40
0
40
0
40
0
40
0
40
1
40
1
40
1
40
1
41
1
41
1
41
1
41
1
10
150.03769264221194
20
66.179939015706367
30
0
10
151.00838597615561
20
65.866202513376862
30
0
10
151.48429361979169
20
65.636597665150958
30
0
10
152.4571509043376
20
65.012673377990723
30
0
0
SPLINE
5
207
100
AcDbEntity
8
0
100
AcDbSpline
70
4
71
3
72
8
73
4
74
0
42
0.000000001
43
0.0000000001
44
0.0000000001
40
0
40
0
40
0
40
0
40
1
40
1
40
1
40
1
41
1
41
1
41
1
41
1
10
152.4571509043376
20
65.012673377990723
30
0
10
153.10875841776533
20
64.594772529602039
30
0
10
153.22591857910157
20
64.480801773071278
30
0
10
153.81717770894372
20
63.689667892456043
30
0
0
SPLINE
5
208
100
AcDbEntity
8
0
100
AcDbSpline
70
4
71
3
72
8
73
4
74
0
42
0.000000001
43
0.0000000001
44
0.0000000001
40
0
40
0
40
0
40
0
40
1
40
1
40
1
40
1
41
1
41
1
41
1
41
1
10
153.81717770894372
20
63.689667892456043
30
0
10
155.16052271525066
20
61.892196051279704
30
0
10
155.47649180094402
20
60.636684830983469
30
0
10
155.40684165954593
20
57.372922484079993
30
0
0
SPLINE
5
209
100
AcDbEntity
8
0
100
AcDbSpline
70
4
71
3
72
8
73
4
74
0
42
0.000000001
43
0.0000000001
44
0.0000000001
40
0
40
0
40
0
40
0
40
1
40
1
40
1
40
1
41
1
41
1
41
1
41
1
10
155.40684165954593
20
57.372922484079993
30
0
10
155.36613032023115
20
55.465133571624747
30
0
10
155.25281359354659
20
54.737674744923901
30
0
10
154.72022336324056
20
52.964842065175368
30
0
0
SPLINE
5
210
100
AcDbEntity
8
0
100
AcDbSpline
70
4
71
3
72
8
73
4
74
0
42
0.000000001
43
0.0000000001
44
0.0000000001
40
0
40
0
40
0
40
0
40
1
40
1
40
1
40
1
41
1
41
1
41
1
41
1
10
154.72022336324056
20
52.964842065175368
30
0
10
154.5769989013672
20
52.488082567850746
30
0
10
154.31869748433434
20
51.572255071004221
30
0
10
154.1462273915609
20
50.929666709899891
30
0
0
SPLINE
5
211
100
AcDbEntity
8
0
100
AcDbSpline
70
4
71
3
72
8
73
4
74
0
42
0.000000001
43
0.0000000001
44
0.0000000001
40
0
40
0
40
0
40
0
40
1
40
1
40
1
40
1
41
1
41
1
41
1
41
1
10
154.1462273915609
20
50.929666709899891
30
0
10
153.97375729878746
20
50.287078348795561
30
0
10
153.68708229064941
20
49.388211218516027
30
0
10
153.5091538747152
20
48.93217881520588
30
0
0
SPLINE
5
212
100
AcDbEntity
8
0
100
AcDbSpline
70
4
71
3
72
8
73
4
74
0
42
0.000000001
43
0.0000000001
44
0.0000000001
40
0
40
0
40
0
40
0
40
1
40
1
40
1
40
1
41
1
41
1
41
1
41
1
10
153.5091538747152
20
48.93217881520588
30
0
10
153.33124160766604
20
48.476150449117021
30
0
10
153.04340387980145
20
47.62816038131713
30
0
10
152.86954498291016
20
47.047757339477528
30
0
0
SPLINE
5
213
100
AcDbEntity
8
0
100
AcDbSpline
70
4
71
3
72
8
73
4
74
0
42
0.000000001
43
0.0000000001
44
0.0000000001
40
0
40
0
40
0
40
0
40
1
40
1
40
1
40
1
41
1
41
1
41
1
41
1
10
152.86954498291016
20
47.047757339477528
30
0
10
152.6956699371338
20
46.467354297637932
30
0
10
152.32235616048177
20
45.398887538909904
30
0
10
152.03994445800782
20
44.673386764526356
30
0
0
SPLINE
5
214
100
AcDbEntity
8
0
100
AcDbSpline
70
4
71
3
72
8
73
4
74
0
42
0.000000001
43
0.0000000001
44
0.0000000001
40
0
40
0
40
0
40
0
40
1
40
1
40
1
40
1
41
1
41
1
41
1
41
1
10
152.03994445800782
20
44.673386764526356
30
0
10
151.75753275553387
20
43.947881952921541
30
0
10
151.45157597859702
20
43.11803112030028
30
0
10
151.36002794901532
20
42.829268868764238
30
0
0
SPLINE
5
215
100
AcDbEntity
8
0
100
AcDbSpline
70
4
71
3
72
8
73
4
74
0
42
0.000000001
43
0.0000000001
44
0.0000000001
40
0
40
0
40
0
40
0
40
1
40
1
40
1
40
1
41
1
41
1
41
1
41
1
10
151.36002794901532
20
42.829268868764238
30
0
10
151.15532468159995
20
42.183600107828767
30
0
10
149.92274487813316
20
39.727358722686759
30
0
10
149.08922017415367
20
38.304040400187169
30
0
0
SPLINE
5
216
100
AcDbEntity
8
0
100
AcDbSpline
70
4
71
3
72
8
73
4
74
0
42
0.000000001
43
0.0000000001
44
0.0000000001
40
0
40
0
40
0
40
0
40
1
40
1
40
1
40
1
41
1
41
1
41
1
41
1
10
149.08922017415367
20
38.304040400187169
30
0
10
143.62022260030113
20
28.965333938598619
30
0
10
134.07076511383059
20
20.929059282938631
30
0
10
122.11057783762615
20
15.600363222757956
30
0
0
SPLINE
5
217
100
AcDbEntity
8
0
100
AcDbSpline
70
4
71
3
72
8
73
4
74
0
42
0.000000001
43
0.0000000001
44
0.0000000001
40
0
40
0
40
0
40
0
40
1
40
1
40
1
40
1
41
1
41
1
41
1
41
1
10
122.11057783762615
20
15.600363222757956
30
0
10
113.71039613087973
20
11.857778358459452
30
0
10
104.32658583323162
20
9.5466871897379413
30
0
10
94.598012987772634
20
8.824428304036438
30
0
0
SPLINE
5
218
100
AcDbEntity
8
0
100
AcDbSpline
70
4
71
3
72
8
73
4
74
0
42
0.000000001
43
0.0000000001
44
0.0000000001
40
0
40
0
40
0
40
0
40
1
40
1
40
1
40
1
41
1
41
1
41
1
41
1
10
94.598012987772634
20
8.824428304036438
30
0
10
93.101915677388533
20
8.7133562723795421
30
0
10
86.331398709615087
20
8.6127406438191656
30
0
10
85.402006149291992
20
8.6877522150675368
30
0
0
SPLINE
5
219
100
AcDbEntity
8
0
100
AcDbSpline
70
4
71
3
72
8
73
4
74
0
42
0.000000001
43
0.0000000001
44
0.0000000001
40
0
40
0
40
0
40
0
40
1
40
1
40
1
40
1
41
1
41
1
41
1
41
1
10
85.402006149291992
20
8.6877522150675368
30
0
10
84.158097902933775
20
8.7881740570068168
30
0
10
82.037394014994319
20
8.8827661514282141
30
0
10
81.144045766194665
20
8.8776711781819451
30
0
0
SPLINE
5
220
100
AcDbEntity
8
0
100
AcDbSpline
70
4
71
3
72
8
73
4
74
0
42
0.000000001
43
0.0000000001
44
0.0000000001
40
0
40
0
40
0
40
0
40
1
40
1
40
1
40
1
41
1
41
1
41
1
41
1
10
81.144045766194665
20
8.8776711781819451
30
0
10
79.962221908569347
20
8.8709209442138537
30
0
10
77.522916666666674
20
9.0938966751098427
30
0
10
76.206031608581554
20
9.3290405909220198
30
0
0
SPLINE
5
221
100
AcDbEntity
8
0
100
AcDbSpline
70
4
71
3
72
8
73
4
74
0
42
0.000000001
43
0.0000000001
44
0.0000000001
40
0
40
0
40
0
40
0
40
1
40
1
40
1
40
1
41
1
41
1
41
1
41
1
10
76.206031608581554
20
9.3290405909220198
30
0
10
73.087576929728201
20
9.8858622233072779
30
0
10
72.23844432830812
20
10.076112238566068
30
0
10
70.053564771016454
20
10.707525571187322
30
0
0
SPLINE
5
222
100
AcDbEntity
8
0
100
AcDbSpline
70
4
71
3
72
8
73
4
74
0
42
0.000000001
43
0.0000000001
44
0.0000000001
40
0
40
0
40
0
40
0
40
1
40
1
40
1
40
1
41
1
41
1
41
1
41
1
10
70.053564771016454
20
10.707525571187322
30
0
10
65.462925243377697
20
12.034180704752586
30
0
10
60.768440310160329
20
14.156531778971342
30
0
10
57.745042006174728
20
16.272140693664543
30
0
0
CIRCLE
5
223
100
AcDbEntity
8
0
100
AcDbCircle
10
76.000001132488265
20
15.000000223517425
30
0
40
2.5500000000000016
210
0
220
0
230
1
0
ENDSEC
0
SECTION
2
OBJECTS
0
DICTIONARY
5
C
100
AcDbDictionary
3
ACAD_GROUP
350
D
3
ACAD_MLINESTYLE
350
17
0
DICTIONARY
5
D
100
AcDbDictionary
0
DICTIONARY
5
1A
330
C
100
AcDbDictionary
0
DICTIONARY
5
17
100
AcDbDictionary
0
ENDSEC
0
EOF
