0
SECTION
2
HEADER
9
$INSUNITS
70
4
9
$ACADVER
1
AC1014
9
$HANDSEED
5
FFFF
0
ENDSEC
0
SECTION
2
TABLES
0
TABLE
2
VPORT
5
8
100
AcDbSymbolTable
0
ENDTAB
0
TABLE
2
LTYPE
5
5
100
AcDbSymbolTable
0
LTYPE
5
14
100
AcDbSymbolTableRecord
100
AcDbLinetypeTableRecord
2
BYBLOCK
70
0
0
LTYPE
5
15
100
AcDbSymbolTableRecord
100
AcDbLinetypeTableRecord
2
BYLAYER
70
0
0
ENDTAB
0
TABLE
2
LAYER
5
2
100
AcDbSymbolTable
70
2
0
LAYER
5
50
100
AcDbSymbolTableRecord
100
AcDbLayerTableRecord
2
0
70
0
6
CONTINUOUS
0
ENDTAB
0
TABLE
2
STYLE
5
3
100
AcDbSymbolTable
70
1
0
STYLE
5
11
100
AcDbSymbolTableRecord
100
AcDbTextStyleTableRecord
2
STANDARD
70
0
0
ENDTAB
0
TABLE
2
VIEW
5
6
100
AcDbSymbolTable
70
0
0
ENDTAB
0
TABLE
2
UCS
5
7
100
AcDbSymbolTable
70
0
0
ENDTAB
0
TABLE
2
APPID
5
9
100
AcDbSymbolTable
70
2
0
APPID
5
12
100
AcDbSymbolTableRecord
100
AcDbRegAppTableRecord
2
ACAD
70
0
0
ENDTAB
0
TABLE
2
DIMSTYLE
5
A
100
AcDbSymbolTable
70
1
0
ENDTAB
0
TABLE
2
BLOCK_RECORD
5
1
100
AcDbSymbolTable
70
1
0
BLOCK_RECORD
5
1F
100
AcDbSymbolTableRecord
100
AcDbBlockTableRecord
2
*MODEL_SPACE
0
BLOCK_RECORD
5
1B
100
AcDbSymbolTableRecord
100
AcDbBlockTableRecord
2
*PAPER_SPACE
0
ENDTAB
0
ENDSEC
0
SECTION
2
BLOCKS
0
BLOCK
5
20
100
AcDbEntity
100
AcDbBlockBegin
2
*MODEL_SPACE
0
ENDBLK
5
21
100
AcDbEntity
100
AcDbBlockEnd
0
BLOCK
5
1C
100
AcDbEntity
100
AcDbBlockBegin
2
*PAPER_SPACE
0
ENDBLK
5
1D
100
AcDbEntity
100
AcDbBlockEnd
0
ENDSEC
0
SECTION
2
ENTITIES
0
SPLINE
5
100
100
AcDbEntity
8
0
100
AcDbSpline
70
4
71
3
72
8
73
4
74
0
42
0.000000001
43
0.0000000001
44
0.0000000001
40
0
40
0
40
0
40
0
40
1
40
1
40
1
40
1
41
1
41
1
41
1
41
1
10
77.952598126729342
20
-54.130645497639989
30
0
10
77.906081263224294
20
-54.130645497639989
30
0
10
77.550765419006368
20
-54.30016034444175
30
0
10
77.162998390197771
20
-54.507342465718594
30
0
0
SPLINE
5
101
100
AcDbEntity
8
0
100
AcDbSpline
70
4
71
3
72
8
73
4
74
0
42
0.000000001
43
0.0000000001
44
0.0000000001
40
0
40
0
40
0
40
0
40
1
40
1
40
1
40
1
41
1
41
1
41
1
41
1
10
77.162998390197771
20
-54.507342465718594
30
0
10
76.775239435831708
20
-54.714524586995459
30
0
10
76.121451822916683
20
-55.022080103556334
30
0
10
75.710139719645198
20
-55.190787506103518
30
0
0
SPLINE
5
102
100
AcDbEntity
8
0
100
AcDbSpline
70
4
71
3
72
8
73
4
74
0
42
0.000000001
43
0.0000000001
44
0.0000000001
40
0
40
0
40
0
40
0
40
1
40
1
40
1
40
1
41
1
41
1
41
1
41
1
10
75.710139719645198
20
-55.190787506103518
30
0
10
72.496107864379894
20
-56.50910174051922
30
0
10
70.745084253946956
20
-56.90379664103191
30
0
10
67.049008178710949
20
-57.143098894755056
30
0
0
SPLINE
5
103
100
AcDbEntity
8
0
100
AcDbSpline
70
4
71
3
72
8
73
4
74
0
42
0.000000001
43
0.0000000001
44
0.0000000001
40
0
40
0
40
0
40
0
40
1
40
1
40
1
40
1
41
1
41
1
41
1
41
1
10
67.049008178710949
20
-57.143098894755056
30
0
10
65.669469483693462
20
-57.232410303751642
30
0
10
61.226745669047048
20
-57.228986740112326
30
0
10
59.660804430643722
20
-57.137390263875332
30
0
0
SPLINE
5
104
100
AcDbEntity
8
0
100
AcDbSpline
70
4
71
3
72
8
73
4
74
0
42
0.000000001
43
0.0000000001
44
0.0000000001
40
0
40
0
40
0
40
0
40
1
40
1
40
1
40
1
41
1
41
1
41
1
41
1
10
59.660804430643722
20
-57.137390263875332
30
0
10
52.884732246398933
20
-56.741064325968431
30
0
10
46.116003767649339
20
-55.520935312906914
30
0
10
39.98743728001913
20
-53.591070874532079
30
0
0
SPLINE
5
105
100
AcDbEntity
8
0
100
AcDbSpline
70
4
71
3
72
8
73
4
74
0
42
0.000000001
43
0.0000000001
44
0.0000000001
40
0
40
0
40
0
40
0
40
1
40
1
40
1
40
1
41
1
41
1
41
1
41
1
10
39.98743728001913
20
-53.591070874532079
30
0
10
38.269906457265222
20
-53.050228563944508
30
0
10
36.162981605529787
20
-52.254096603393563
30
0
10
36.030148951212567
20
-52.095764859517423
30
0
0
SPLINE
5
106
100
AcDbEntity
8
0
100
AcDbSpline
70
4
71
3
72
8
73
4
74
0
42
0.000000001
43
0.0000000001
44
0.0000000001
40
0
40
0
40
0
40
0
40
1
40
1
40
1
40
1
41
1
41
1
41
1
41
1
10
36.030148951212567
20
-52.095764859517423
30
0
10
35.967963631947839
20
-52.021641476949057
30
0
10
35.811254851023364
20
-51.907856432596844
30
0
10
35.681910355885826
20
-51.842921765645357
30
0
0
SPLINE
5
107
100
AcDbEntity
8
0
100
AcDbSpline
70
4
71
3
72
8
73
4
74
0
42
0.000000001
43
0.0000000001
44
0.0000000001
40
0
40
0
40
0
40
0
40
1
40
1
40
1
40
1
41
1
41
1
41
1
41
1
10
35.681910355885826
20
-51.842921765645357
30
0
10
35.327478663126634
20
-51.664977200826023
30
0
10
34.81131184895834
20
-51.047395388285331
30
0
10
34.493190924326584
20
-50.420641009012861
30
0
0
SPLINE
5
108
100
AcDbEntity
8
0
100
AcDbSpline
70
4
71
3
72
8
73
4
74
0
42
0.000000001
43
0.0000000001
44
0.0000000001
40
0
40
0
40
0
40
0
40
1
40
1
40
1
40
1
41
1
41
1
41
1
41
1
10
34.493190924326584
20
-50.420641009012861
30
0
10
34.25797030131023
20
-49.957224527994796
30
0
10
34.217981624603276
20
-49.814379564921076
30
0
10
34.260311889648442
20
-49.588763491312669
30
0
0
SPLINE
5
109
100
AcDbEntity
8
0
100
AcDbSpline
70
4
71
3
72
8
73
4
74
0
42
0.000000001
43
0.0000000001
44
0.0000000001
40
0
40
0
40
0
40
0
40
1
40
1
40
1
40
1
41
1
41
1
41
1
41
1
10
34.260311889648442
20
-49.588763491312669
30
0
10
34.328629748026536
20
-49.224589983622245
30
0
10
34.530878384908043
20
-49.046919949849467
30
0
10
34.802631823221844
20
-49.112339083353696
30
0
0
SPLINE
5
110
100
AcDbEntity
8
0
100
AcDbSpline
70
4
71
3
72
8
73
4
74
0
42
0.000000001
43
0.0000000001
44
0.0000000001
40
0
40
0
40
0
40
0
40
1
40
1
40
1
40
1
41
1
41
1
41
1
41
1
10
34.802631823221844
20
-49.112339083353696
30
0
10
34.918092314402273
20
-49.140131314595557
30
0
10
35.146780713399252
20
-49.15948575337729
30
0
10
35.310829162597663
20
-49.155343564351412
30
0
0
SPLINE
5
111
100
AcDbEntity
8
0
100
AcDbSpline
70
4
71
3
72
8
73
4
74
0
42
0.000000001
43
0.0000000001
44
0.0000000001
40
0
40
0
40
0
40
0
40
1
40
1
40
1
40
1
41
1
41
1
41
1
41
1
10
35.310829162597663
20
-49.155343564351412
30
0
10
35.474877611796067
20
-49.15119330088298
30
0
10
36.119351355234784
20
-49.198994000752776
30
0
10
36.742993036905929
20
-49.261554781595869
30
0
0
SPLINE
5
112
100
AcDbEntity
8
0
100
AcDbSpline
70
4
71
3
72
8
73
4
74
0
42
0.000000001
43
0.0000000001
44
0.0000000001
40
0
40
0
40
0
40
0
40
1
40
1
40
1
40
1
41
1
41
1
41
1
41
1
10
36.742993036905929
20
-49.261554781595869
30
0
10
37.366630681355801
20
-49.324107487996429
30
0
10
38.063442961374925
20
-49.390479405721031
30
0
10
38.291457144419361
20
-49.409042549133318
30
0
0
SPLINE
5
113
100
AcDbEntity
8
0
100
AcDbSpline
70
4
71
3
72
8
73
4
74
0
42
0.000000001
43
0.0000000001
44
0.0000000001
40
0
40
0
40
0
40
0
40
1
40
1
40
1
40
1
41
1
41
1
41
1
41
1
10
38.291457144419361
20
-49.409042549133318
30
0
10
38.519471327463791
20
-49.427613766988124
30
0
10
39.621858819325773
20
-49.396026547749841
30
0
10
40.741206677754732
20
-49.338883717854827
30
0
0
SPLINE
5
114
100
AcDbEntity
8
0
100
AcDbSpline
70
4
71
3
72
8
73
4
74
0
42
0.000000001
43
0.0000000001
44
0.0000000001
40
0
40
0
40
0
40
0
40
1
40
1
40
1
40
1
41
1
41
1
41
1
41
1
10
40.741206677754732
20
-49.338883717854827
30
0
10
41.860554536183685
20
-49.281732813517259
30
0
10
43.454772472381592
20
-49.201569747924808
30
0
10
44.283920828501387
20
-49.160729217529308
30
0
0
SPLINE
5
115
100
AcDbEntity
8
0
100
AcDbSpline
70
4
71
3
72
8
73
4
74
0
42
0.000000001
43
0.0000000001
44
0.0000000001
40
0
40
0
40
0
40
0
40
1
40
1
40
1
40
1
41
1
41
1
41
1
41
1
10
44.283920828501387
20
-49.160729217529308
30
0
10
45.113065147399908
20
-49.119896761576342
30
0
10
46.06281337738038
20
-49.035559209187831
30
0
10
46.39447110493979
20
-48.973329480489099
30
0
0
SPLINE
5
116
100
AcDbEntity
8
0
100
AcDbSpline
70
4
71
3
72
8
73
4
74
0
42
0.000000001
43
0.0000000001
44
0.0000000001
40
0
40
0
40
0
40
0
40
1
40
1
40
1
40
1
41
1
41
1
41
1
41
1
10
46.39447110493979
20
-48.973329480489099
30
0
10
46.726128832499192
20
-48.911091677347834
30
0
10
47.404519271850596
20
-48.805017725626641
30
0
10
47.902009900410974
20
-48.737596130371095
30
0
0
SPLINE
5
117
100
AcDbEntity
8
0
100
AcDbSpline
70
4
71
3
72
8
73
4
74
0
42
0.000000001
43
0.0000000001
44
0.0000000001
40
0
40
0
40
0
40
0
40
1
40
1
40
1
40
1
41
1
41
1
41
1
41
1
10
47.902009900410974
20
-48.737596130371095
30
0
10
49.499631214141857
20
-48.521088027954107
30
0
10
52.090909576416024
20
-47.94307098388672
30
0
10
53.578197669982913
20
-47.471450869242354
30
0
0
SPLINE
5
118
100
AcDbEntity
8
0
100
AcDbSpline
70
4
71
3
72
8
73
4
74
0
42
0.000000001
43
0.0000000001
44
0.0000000001
40
0
40
0
40
0
40
0
40
1
40
1
40
1
40
1
41
1
41
1
41
1
41
1
10
53.578197669982913
20
-47.471450869242354
30
0
10
54.046834278106701
20
-47.322848828633639
30
0
10
54.547150961558032
20
-47.179333686828613
30
0
10
54.690003999074307
20
-47.152534612019863
30
0
0
SPLINE
5
119
100
AcDbEntity
8
0
100
AcDbSpline
70
4
71
3
72
8
73
4
74
0
42
0.000000001
43
0.0000000001
44
0.0000000001
40
0
40
0
40
0
40
0
40
1
40
1
40
1
40
1
41
1
41
1
41
1
41
1
10
54.690003999074307
20
-47.152534612019863
30
0
10
54.832865111033129
20
-47.125735537211114
30
0
10
54.949746704101571
20
-47.076844787597672
30
0
10
54.949746704101571
20
-47.04389298756918
30
0
0
SPLINE
5
120
100
AcDbEntity
8
0
100
AcDbSpline
70
4
71
3
72
8
73
4
74
0
42
0.000000001
43
0.0000000001
44
0.0000000001
40
0
40
0
40
0
40
0
40
1
40
1
40
1
40
1
41
1
41
1
41
1
41
1
10
54.949746704101571
20
-47.04389298756918
30
0
10
54.949746704101571
20
-47.010941187540702
30
0
10
55.12782449722291
20
-46.961226844787618
30
0
10
55.345475133260102
20
-46.933426539103202
30
0
0
SPLINE
5
121
100
AcDbEntity
8
0
100
AcDbSpline
70
4
71
3
72
8
73
4
74
0
42
0.000000001
43
0.0000000001
44
0.0000000001
40
0
40
0
40
0
40
0
40
1
40
1
40
1
40
1
41
1
41
1
41
1
41
1
10
55.345475133260102
20
-46.933426539103202
30
0
10
55.783226998647066
20
-46.877502950032557
30
0
10
57.446449120839446
20
-46.360367202758795
30
0
10
58.472319157918307
20
-45.961223284403488
30
0
0
SPLINE
5
122
100
AcDbEntity
8
0
100
AcDbSpline
70
4
71
3
72
8
73
4
74
0
42
0.000000001
43
0.0000000001
44
0.0000000001
40
0
40
0
40
0
40
0
40
1
40
1
40
1
40
1
41
1
41
1
41
1
41
1
10
58.472319157918307
20
-45.961223284403488
30
0
10
58.835782114664717
20
-45.819807497660328
30
0
10
59.449286333719897
20
-45.598664665222188
30
0
10
59.835664558410649
20
-45.46980463663737
30
0
0
SPLINE
5
123
100
AcDbEntity
8
0
100
AcDbSpline
70
4
71
3
72
8
73
4
74
0
42
0.000000001
43
0.0000000001
44
0.0000000001
40
0
40
0
40
0
40
0
40
1
40
1
40
1
40
1
41
1
41
1
41
1
41
1
10
59.835664558410649
20
-45.46980463663737
30
0
10
61.685212516784674
20
-44.852957598368334
30
0
10
67.261870670318615
20
-42.164709218343113
30
0
10
68.517579714457199
20
-41.284651501973485
30
0
0
SPLINE
5
124
100
AcDbEntity
8
0
100
AcDbSpline
70
4
71
3
72
8
73
4
74
0
42
0.000000001
43
0.0000000001
44
0.0000000001
40
0
40
0
40
0
40
0
40
1
40
1
40
1
40
1
41
1
41
1
41
1
41
1
10
68.517579714457199
20
-41.284651501973485
30
0
10
69.414513015747076
20
-40.656040000915539
30
0
10
71.437919871012383
20
-39.564351145426436
30
0
10
73.073301315307631
20
-38.826702372233086
30
0
0
SPLINE
5
125
100
AcDbEntity
8
0
100
AcDbSpline
70
4
71
3
72
8
73
4
74
0
42
0.000000001
43
0.0000000001
44
0.0000000001
40
0
40
0
40
0
40
0
40
1
40
1
40
1
40
1
41
1
41
1
41
1
41
1
10
73.073301315307631
20
-38.826702372233086
30
0
10
78.049669075012218
20
-36.582063865661631
30
0
10
84.065952364603689
20
-34.883419164021817
30
0
10
89.24622402191163
20
-34.260419400533053
30
0
0
SPLINE
5
126
100
AcDbEntity
8
0
100
AcDbSpline
70
4
71
3
72
8
73
4
74
0
42
0.000000001
43
0.0000000001
44
0.0000000001
40
0
40
0
40
0
40
0
40
1
40
1
40
1
40
1
41
1
41
1
41
1
41
1
10
89.24622402191163
20
-34.260419400533053
30
0
10
90.640922482808449
20
-34.092689005533863
30
0
10
93.47687664031983
20
-34.071202913920089
30
0
10
94.295730082194012
20
-34.222162691752125
30
0
0
SPLINE
5
127
100
AcDbEntity
8
0
100
AcDbSpline
70
4
71
3
72
8
73
4
74
0
42
0.000000001
43
0.0000000001
44
0.0000000001
40
0
40
0
40
0
40
0
40
1
40
1
40
1
40
1
41
1
41
1
41
1
41
1
10
94.295730082194012
20
-34.222162691752125
30
0
10
95.059418932596856
20
-34.362956746419272
30
0
10
96.095636367797852
20
-34.703068415323905
30
0
10
96.458211135864275
20
-34.931954638163262
30
0
0
SPLINE
5
128
100
AcDbEntity
8
0
100
AcDbSpline
70
4
71
3
72
8
73
4
74
0
42
0.000000001
43
0.0000000001
44
0.0000000001
40
0
40
0
40
0
40
0
40
1
40
1
40
1
40
1
41
1
41
1
41
1
41
1
10
96.458211135864275
20
-34.931954638163262
30
0
10
96.905955123901379
20
-35.214600499471032
30
0
10
97.433200073242205
20
-35.844205156962083
30
0
10
97.626033910115581
20
-36.326499684651701
30
0
0
SPLINE
5
129
100
AcDbEntity
8
0
100
AcDbSpline
70
4
71
3
72
8
73
4
74
0
42
0.000000001
43
0.0000000001
44
0.0000000001
40
0
40
0
40
0
40
0
40
1
40
1
40
1
40
1
41
1
41
1
41
1
41
1
10
97.626033910115581
20
-36.326499684651701
30
0
10
97.865449206034356
20
-36.925284194946293
30
0
10
97.867403221130388
20
-38.105751546223971
30
0
10
97.630240694681817
20
-38.866824277242031
30
0
0
SPLINE
5
130
100
AcDbEntity
8
0
100
AcDbSpline
70
4
71
3
72
8
73
4
74
0
42
0.000000001
43
0.0000000001
44
0.0000000001
40
0
40
0
40
0
40
0
40
1
40
1
40
1
40
1
41
1
41
1
41
1
41
1
10
97.630240694681817
20
-38.866824277242031
30
0
10
96.353509839375832
20
-42.964022509257013
30
0
10
89.688065592447941
20
-48.626314163208015
30
0
10
81.52008870442711
20
-52.552366511027031
30
0
0
SPLINE
5
131
100
AcDbEntity
8
0
100
AcDbSpline
70
4
71
3
72
8
73
4
74
0
42
0.000000001
43
0.0000000001
44
0.0000000001
40
0
40
0
40
0
40
0
40
1
40
1
40
1
40
1
41
1
41
1
41
1
41
1
10
81.52008870442711
20
-52.552366511027031
30
0
10
80.111332639058446
20
-53.229505411783869
30
0
10
78.074425315856942
20
-54.130645497639989
30
0
10
77.952598126729342
20
-54.130645497639989
30
0
0
ENDSEC
0
SECTION
2
OBJECTS
0
DICTIONARY
5
C
100
AcDbDictionary
3
ACAD_GROUP
350
D
3
ACAD_MLINESTYLE
350
17
0
DICTIONARY
5
D
100
AcDbDictionary
0
DICTIONARY
5
1A
330
C
100
AcDbDictionary
0
DICTIONARY
5
17
100
AcDbDictionary
0
ENDSEC
0
EOF
