<?xml version="1.0" encoding="UTF-8" standalone="no"?>
<!-- Created with Inkscape (http://www.inkscape.org/) -->

<svg
   width="94.873245mm"
   height="103.5621mm"
   viewBox="0 0 94.873245 103.5621"
   version="1.1"
   id="svg1"
   xml:space="preserve"
   inkscape:export-filename="cao1-1.svg"
   inkscape:export-xdpi="96"
   inkscape:export-ydpi="96"
   xmlns:inkscape="http://www.inkscape.org/namespaces/inkscape"
   xmlns:sodipodi="http://sodipodi.sourceforge.net/DTD/sodipodi-0.dtd"
   xmlns="http://www.w3.org/2000/svg"
   xmlns:svg="http://www.w3.org/2000/svg"><sodipodi:namedview
     id="namedview1"
     pagecolor="#ffffff"
     bordercolor="#000000"
     borderopacity="0.25"
     inkscape:showpageshadow="2"
     inkscape:pageopacity="0.0"
     inkscape:pagecheckerboard="0"
     inkscape:deskcolor="#d1d1d1"
     inkscape:document-units="mm" /><defs
     id="defs1" /><g
     inkscape:label="图层 1"
     inkscape:groupmode="layer"
     id="layer1"
     transform="translate(-84.398562,-42.749793)"><path
       style="display:inline;fill:#000000"
       d="m 111.63663,146.23435 c -0.63028,-0.0773 -1.21133,-0.44924 -1.30884,-0.83776 -0.0376,-0.14989 -0.0208,-0.6687 0.0374,-1.1529 0.1967,-1.63729 -0.24366,-2.65311 -2.5013,-5.77003 -1.10601,-1.52696 -1.40171,-2.42072 -1.63125,-4.93049 -0.23627,-2.58322 0.003,-4.9705 0.7091,-7.06835 0.42844,-1.27333 1.20675,-3.16732 1.73471,-4.22137 0.81943,-1.63594 1.38794,-3.08069 1.67232,-4.24985 0.3422,-1.40684 0.34048,-1.43567 -0.088,-1.47698 -0.29974,-0.0289 -0.41147,0.036 -0.76864,0.44668 -0.47795,0.54952 -0.65796,0.6956 -1.44109,1.16951 -1.72361,1.04303 -4.23395,1.56276 -6.38553,1.32205 -1.811149,-0.20263 -4.292782,-1.2661 -4.973314,-2.13126 -0.168894,-0.21472 -0.243718,-0.24078 -0.420175,-0.14634 -0.324431,0.17363 -1.789093,0.13771 -2.478454,-0.0608 -0.695998,-0.20041 -1.539022,-0.59966 -2.013011,-0.95335 -0.178058,-0.13287 -0.71223,-0.32682 -1.18705,-0.43101 -2.76586,-0.60692 -5.386805,-2.9074 -6.044472,-5.30541 -0.153354,-0.55917 -0.173454,-1.04722 -0.13111,-3.18345 0.05566,-2.80798 0.156354,-3.44563 0.767259,-4.85864 0.725916,-1.67904 1.328553,-2.38975 3.210181,-3.785888 0.599813,-0.445052 2.154954,-1.075572 3.245643,-1.315921 0.218861,-0.04823 0.348751,-0.192428 0.518019,-0.575086 0.372422,-0.841922 0.833557,-1.48047 1.322942,-1.83192 0.567427,-0.407495 1.701939,-0.880315 2.31866,-0.966325 0.364633,-0.05085 0.50253,-0.134562 0.67117,-0.407428 0.751263,-1.21557 3.387383,-2.984479 5.407182,-3.628367 1.13435,-0.361617 2.96899,-0.583468 4.06524,-0.491583 l 0.78238,0.06558 v -0.459426 c 0,-0.562337 0.35087,-1.862448 0.70421,-2.609339 l 0.26179,-0.553375 -0.2402,-0.480719 c -0.17863,-0.357513 -0.24977,-0.720318 -0.27756,-1.415575 -0.0449,-1.123581 0.1308,-1.816779 0.77714,-3.065908 l 0.45081,-0.871268 -0.26293,-0.747437 c -0.22737,-0.646378 -0.26356,-0.944413 -0.2676,-2.204272 -0.006,-1.914512 0.23658,-2.913001 1.12689,-4.635475 1.09133,-2.111404 2.73588,-4.043302 4.34542,-5.104677 0.33673,-0.222053 0.87154,-0.574247 1.18846,-0.782653 1.08074,-0.710693 3.29385,-1.347699 4.68221,-1.347699 0.54994,0 0.62668,-0.03238 1.02804,-0.433736 0.23855,-0.238555 0.66815,-0.565506 0.95465,-0.726558 l 0.52092,-0.292821 -0.32615,-0.577908 c -0.39436,-0.698761 -0.8693,-2.119884 -1.12449,-3.36466 -0.21776,-1.062245 -0.16997,-2.853858 0.10507,-3.938849 0.28245,-1.114269 1.2115,-2.801549 2.01823,-3.665386 0.81275,-0.870287 2.30873,-1.98642 3.27393,-2.44265 0.78218,-0.369714 1.98772,-0.635803 2.89375,-0.63871 l 0.66741,-0.0021 0.32374,-0.550268 c 0.42231,-0.717806 1.19687,-1.389064 2.17675,-1.886423 0.6776,-0.343931 0.9245,-0.409196 1.7534,-0.463476 l 0.96475,-0.06318 0.88581,-0.809353 c 0.99271,-0.907019 1.7301,-1.342875 3.23008,-1.909229 1.09426,-0.413168 1.83406,-0.540916 3.72302,-0.642895 0.99629,-0.05379 1.44943,-0.01831 2.81979,0.220772 3.63615,0.634386 5.38431,1.292825 7.76766,2.925671 1.32352,0.906745 2.29353,1.817473 3.19608,3.000748 0.66268,0.86881 1.59416,2.671082 1.59416,3.084475 0,0.128538 0.085,0.262315 0.18885,0.29728 0.95435,0.321267 2.16981,1.296636 2.66164,2.13587 0.15489,0.264306 0.31178,0.700586 0.34864,0.969509 0.0622,0.454002 0.10782,0.511978 0.63777,0.811065 0.99333,0.560599 1.51676,1.527844 1.63064,3.013225 0.0666,0.869261 -0.13845,1.982775 -0.45385,2.46414 -0.21208,0.32367 -0.21337,0.3215 0.24256,0.407034 1.10473,0.207248 2.67645,1.239659 3.10845,2.041836 0.1919,0.356325 0.24965,0.389132 0.68509,0.389132 1.41274,0 2.52671,1.015996 2.86925,2.616907 0.0349,0.163219 0.12464,0.296762 0.19937,0.296762 0.22962,0 1.6571,0.721929 2.32701,1.176853 0.68688,0.466456 1.68677,1.510437 2.15204,2.246961 0.20314,0.321556 0.36509,0.460751 0.53623,0.460885 0.47372,3.73e-4 1.99035,0.867953 2.68745,1.537348 0.92645,0.889619 1.61794,2.262607 1.75654,3.487667 0.33248,2.938741 -1.94584,6.354851 -4.81905,7.22569 -0.91311,0.276754 -2.7039,0.421969 -3.4338,0.278448 -0.35474,-0.06975 -1.1063,-0.170401 -1.67015,-0.223666 -1.3735,-0.12975 -2.31921,-0.440329 -3.10725,-1.020457 -0.35522,-0.261496 -0.67782,-0.527172 -0.71689,-0.590391 -0.0457,-0.07399 -0.27105,-0.0021 -0.63244,0.201756 -0.67895,0.383011 -1.8551,0.588425 -2.96232,0.517368 -0.43039,-0.02762 -0.78254,-0.0435 -0.78254,-0.03529 0,0.0082 0.0971,0.205432 0.21583,0.438265 0.1187,0.232833 0.21583,0.480015 0.21583,0.549294 0,0.06928 0.14666,0.186712 0.32592,0.260964 0.17926,0.07425 0.43767,0.267801 0.57424,0.43011 0.20914,0.248543 0.3663,0.307704 0.99602,0.374944 1.0753,0.114817 2.24044,0.57894 3.4031,1.355599 1.16801,0.780233 2.60028,2.171351 3.21532,3.122936 0.52868,0.817973 1.07132,2.105124 1.15988,2.751283 0.0493,0.359305 0.11517,0.489402 0.248,0.489402 0.28426,0 1.94068,0.584916 2.59231,0.915398 0.65882,0.334132 1.79877,1.372936 2.29507,2.091429 0.49972,0.723457 0.7377,1.625568 0.80099,3.036339 0.0512,1.141326 0.0287,1.344116 -0.27976,2.524702 -0.47775,1.82832 -1.02176,2.92896 -1.8945,3.83297 -0.38951,0.40346 -0.87125,0.82137 -1.07054,0.9287 -0.32056,0.17263 -0.38818,0.29162 -0.58624,1.03165 -0.48635,1.81713 -1.46678,2.69143 -3.22458,2.87554 l -0.56347,0.059 -0.62961,0.98342 c -0.67509,1.05445 -1.51344,1.87216 -2.70613,2.63949 -0.79979,0.51455 -1.51159,0.79888 -2.92941,1.17015 -0.92473,0.24215 -1.16817,0.26291 -2.48471,0.21189 -0.94791,-0.0367 -1.64711,-0.12024 -1.99464,-0.23823 -0.51781,-0.1758 -0.56229,-0.17382 -1.37594,0.0613 -0.69974,0.20219 -1.01694,0.23423 -1.89025,0.19088 -1.49092,-0.074 -2.49136,-0.49696 -3.3068,-1.39805 -0.48559,-0.53659 -0.61801,-0.62809 -0.78228,-0.54053 -1.09559,0.58397 -3.09926,0.81667 -4.37523,0.50812 -1.05223,-0.25445 -1.44997,-0.47197 -2.06474,-1.12921 -0.64915,-0.69399 -1.02818,-1.51278 -1.19262,-2.57632 -0.0747,-0.48308 -0.16294,-0.77155 -0.21183,-0.69245 -0.0461,0.0746 -0.28689,0.23756 -0.53511,0.36219 -0.4966,0.24933 -1.09178,0.68163 -2.7175,1.97384 -1.44831,1.1512 -1.68235,1.37673 -2.47274,2.38281 -0.67387,0.85777 -2.3535,3.33341 -2.89201,4.26259 -0.49179,0.84856 -1.59103,1.98899 -3.68464,3.82272 -1.11926,0.98032 -2.28032,2.08734 -2.58014,2.46005 -1.31275,1.63191 -1.6756,3.22475 -1.11681,4.90261 0.3699,1.11073 0.90367,1.90901 2.13485,3.19279 l 1.00718,1.05021 2.26618,1.06719 c 1.24641,0.58696 2.61586,1.1928 3.04324,1.34632 1.57479,0.56568 3.68925,1.85798 4.40407,2.69164 1.34103,1.56399 2.01035,3.59747 1.78059,5.40965 -0.12204,0.96256 -0.20584,1.14923 -0.67719,1.50855 -0.347,0.26452 -0.37242,0.267 -3.91042,0.38032 -1.95863,0.0627 -5.98921,0.16481 -8.95683,0.22684 -2.96763,0.062 -7.36241,0.15994 -9.76619,0.21757 -4.67109,0.11198 -6.42248,0.11396 -7.28422,0.008 z m 2.45902,-0.19866 c -0.30943,-0.0217 -0.8436,-0.0219 -1.18705,-4.5e-4 -0.34344,0.0215 -0.0903,0.0393 0.56261,0.0395 0.65288,2.4e-4 0.93388,-0.0173 0.62444,-0.0391 z m 4.42546,-0.10852 c -0.4276,-0.0204 -1.15601,-0.0206 -1.61871,-2.8e-4 -0.46269,0.0203 -0.11284,0.037 0.77744,0.0372 0.89029,1.5e-4 1.26886,-0.0164 0.84127,-0.0369 z m 5.06701,-0.10802 c -0.43031,-0.0205 -1.13445,-0.0205 -1.56475,0 -0.43031,0.0205 -0.0782,0.0373 0.78237,0.0373 0.86061,0 1.21268,-0.0168 0.78238,-0.0373 z m 0.45863,-0.30222 c 3.91727,-0.0859 9.36721,-0.18862 12.111,-0.22823 4.87323,-0.0704 4.9935,-0.0772 5.19643,-0.29727 0.29481,-0.31964 0.46393,-1.54874 0.33539,-2.43747 -0.20059,-1.38694 -1.09344,-3.16464 -2.01133,-4.00466 -0.76651,-0.70147 -2.82544,-1.88992 -3.81494,-2.20205 -0.72529,-0.22878 -2.58822,-1.10356 -4.06357,-1.90813 -0.60277,-0.32872 -1.21684,-0.62801 -1.36461,-0.6651 -0.32798,-0.0823 -2.06405,-1.89539 -2.62707,-2.74359 -0.22517,-0.33922 -0.57206,-1.09187 -0.77088,-1.67255 -0.36025,-1.05217 -0.36112,-1.05957 -0.25121,-2.15659 0.0946,-0.94441 0.17157,-1.22369 0.54165,-1.96579 0.60848,-1.22016 1.18417,-1.85669 3.5177,-3.88946 2.18516,-1.90353 3.19497,-2.96297 3.73325,-3.91675 0.93009,-1.64803 3.12678,-4.68621 3.83652,-5.30618 1.41968,-1.24012 3.41977,-2.71304 4.24678,-3.12745 0.26708,-0.13383 0.64019,-0.35919 0.82913,-0.50079 0.63286,-0.47432 0.68338,-0.41367 0.8419,1.01069 0.16131,1.44952 1.05233,2.69347 2.26781,3.16607 0.55288,0.21497 0.84457,0.25216 1.99641,0.25456 1.27819,0.003 1.3932,-0.0155 2.1934,-0.34658 0.46447,-0.19217 0.90304,-0.34939 0.9746,-0.34939 0.0716,0 0.41427,0.28715 0.76157,0.63811 0.79636,0.80476 1.77938,1.28177 2.88486,1.39989 0.6352,0.0679 0.99571,0.0373 1.92082,-0.16266 1.07202,-0.23177 1.16734,-0.23629 1.62446,-0.077 0.34756,0.1211 0.93043,0.17213 2.05036,0.17951 1.46762,0.01 1.63764,-0.0114 2.73918,-0.34 2.0578,-0.61378 3.56238,-1.739 4.85078,-3.62771 0.65964,-0.96701 0.67013,-0.97617 1.205,-1.05281 1.24277,-0.17806 2.01493,-0.62981 2.50643,-1.46637 0.29246,-0.49779 0.78345,-1.61241 0.78444,-1.78082 2.7e-4,-0.0467 0.45551,-0.51984 1.01164,-1.0515 1.17494,-1.12325 1.55975,-1.79862 2.11941,-3.71978 0.44273,-1.519753 0.51928,-2.555005 0.27213,-3.680275 -0.25058,-1.140876 -0.58744,-1.726961 -1.50265,-2.614393 -0.85211,-0.826246 -1.80322,-1.36459 -3.09173,-1.74997 -0.9184,-0.274685 -1.07449,-0.370515 -1.07449,-0.659689 0,-0.339973 -0.73064,-2.125858 -1.15857,-2.831863 -0.76035,-1.254438 -2.66106,-2.931625 -4.22432,-3.727547 -0.65061,-0.331251 -1.31885,-0.521022 -2.31872,-0.658488 -0.73734,-0.10137 -0.88463,-0.158953 -1.11897,-0.43746 -0.14843,-0.176398 -0.40112,-0.388594 -0.56153,-0.471545 -0.18925,-0.09786 -0.33619,-0.299454 -0.41848,-0.574116 -0.0697,-0.232811 -0.25116,-0.606516 -0.40313,-0.830455 -0.43197,-0.636548 -0.33893,-0.700999 1.0001,-0.692799 1.46161,0.0089 2.48989,-0.155496 3.15854,-0.505123 0.48589,-0.254068 0.54517,-0.261875 0.89105,-0.117356 0.20379,0.08515 0.67228,0.360792 1.04109,0.612539 0.8297,0.566349 1.99063,0.945167 3.10371,1.012761 0.46605,0.0283 1.19447,0.08565 1.61871,0.127449 1.12039,0.110377 2.6291,-0.182274 3.69813,-0.71734 1.44426,-0.722874 2.68181,-2.274022 3.30423,-4.141525 0.23757,-0.712798 0.27986,-1.00866 0.24904,-1.741895 -0.0339,-0.806808 -0.0826,-0.973 -0.56229,-1.920141 -0.39638,-0.782639 -0.67819,-1.178577 -1.1493,-1.614744 -0.66049,-0.611499 -2.10597,-1.472495 -2.47209,-1.472495 -0.14357,0 -0.49815,-0.340336 -1.03997,-0.998202 -0.45216,-0.54901 -1.04841,-1.181206 -1.325,-1.404879 -0.61569,-0.497906 -1.9833,-1.298651 -2.51009,-1.469664 -0.32454,-0.10536 -0.41091,-0.20113 -0.52461,-0.581725 -0.19858,-0.664715 -0.4776,-1.163285 -0.87835,-1.569505 -0.49608,-0.502846 -0.90346,-0.686827 -1.65689,-0.748298 -0.61478,-0.05016 -0.67167,-0.07898 -0.98761,-0.50031 -0.72846,-0.971459 -2.41108,-1.900079 -3.44286,-1.900079 -0.57526,0 -0.62707,-0.16795 -0.23364,-0.757324 0.64564,-0.967185 0.84982,-2.131455 0.56724,-3.234479 -0.25836,-1.008473 -0.61558,-1.547436 -1.36129,-2.053836 -0.40312,-0.273754 -0.64384,-0.513068 -0.64384,-0.640083 0,-0.299568 -0.36063,-1.074164 -0.74223,-1.594226 -0.43921,-0.598578 -1.48793,-1.415435 -1.92195,-1.49703 -0.31543,-0.0593 -0.39459,-0.16902 -0.95223,-1.319924 -1.02092,-2.107049 -2.26513,-3.564992 -4.24161,-4.970223 -1.42274,-1.011538 -2.56767,-1.595899 -4.13142,-2.108629 -1.6562,-0.543047 -4.62582,-1.139508 -5.67719,-1.140293 -2.91211,-0.0022 -5.43799,0.895065 -7.27883,2.585581 l -0.82676,0.759243 -0.68404,6.02e-4 c -0.90026,7.92e-4 -1.39023,0.146454 -2.30273,0.684576 -0.81981,0.483457 -1.62496,1.247245 -1.94891,1.848788 -0.18892,0.350792 -0.24279,0.379703 -0.70759,0.379703 -0.70046,0 -2.15636,0.289877 -2.76751,0.551022 -0.77665,0.331864 -2.54189,1.557283 -3.22693,2.240122 -1.71272,1.707202 -2.72582,4.500029 -2.41534,6.658425 0.20364,1.415679 0.66755,2.93843 1.24348,4.081629 0.206,0.408885 0.35115,0.781267 0.32257,0.827515 -0.0286,0.04625 -0.37934,0.313812 -0.77947,0.594587 -0.40012,0.280774 -0.87318,0.642922 -1.05123,0.804772 -0.27599,0.250866 -0.45109,0.304375 -1.18705,0.362755 -1.22157,0.0969 -2.87494,0.541193 -3.8849,1.043946 -1.21048,0.602572 -2.88936,1.889911 -3.75438,2.878792 -1.32819,1.518382 -2.64076,3.787918 -2.99757,5.183029 -0.3201,1.251571 -0.29182,3.166685 0.0649,4.397773 l 0.27341,0.943474 -0.47714,0.930108 c -0.46339,0.903294 -0.82507,2.138045 -0.82507,2.816689 0,0.183251 0.12764,0.719381 0.28364,1.1914 l 0.28364,0.858216 -0.22122,0.514238 c -0.29337,0.681963 -0.62524,1.972352 -0.7208,2.802602 l -0.0771,0.670303 -0.82622,-0.0632 c -1.1628,-0.08894 -2.85402,0.120888 -4.03252,0.500316 -1.79793,0.578858 -3.914329,1.911174 -5.289332,3.329738 -0.472934,0.487917 -0.713498,0.652963 -1.02518,0.703352 -0.627855,0.101506 -1.909721,0.763519 -2.368576,1.223238 -0.227023,0.22745 -0.623135,0.768317 -0.88025,1.201925 -0.257115,0.433608 -0.524201,0.803715 -0.593525,0.82246 -1.805304,0.488142 -2.90864,1.019566 -4.097936,1.973779 -1.614946,1.295731 -2.301574,2.360291 -2.84307,4.407961 -0.249755,0.94445 -0.289211,1.33691 -0.334808,3.33025 -0.06071,2.65388 0.0012,3.03494 0.68157,4.19727 1.061792,1.81386 3.226776,3.3929 5.265167,3.84017 0.533383,0.11704 1.083482,0.32284 1.398336,0.52316 0.285474,0.18162 1.006341,0.48668 1.601925,0.67792 0.940478,0.30197 1.17726,0.33889 1.80057,0.28068 0.394728,-0.0369 0.734114,-0.1163 0.75419,-0.17652 0.06411,-0.19233 0.312035,-0.11775 0.484731,0.14582 0.350802,0.53539 1.551754,1.25593 2.829813,1.69781 2.083255,0.72027 3.757885,0.76568 5.660805,0.15351 0.44514,-0.1432 1.02788,-0.31518 1.29496,-0.38218 0.69359,-0.17397 1.84388,-0.88226 2.54583,-1.56758 l 0.60282,-0.58854 h 0.69186 c 0.53046,0 0.69187,0.0363 0.69187,0.1555 0,0.0855 -0.0412,0.18099 -0.0916,0.21213 -0.0504,0.0311 -0.12173,0.43465 -0.15851,0.89666 -0.11634,1.46121 -0.4193,2.36475 -1.74708,5.21053 -1.35833,2.91122 -2.08502,5.01875 -2.43723,7.06834 -0.17137,0.99728 -0.0549,4.52372 0.18467,5.59278 0.20737,0.92527 0.68191,1.91168 1.40112,2.91245 1.52611,2.12356 2.09754,3.05362 2.35958,3.84045 0.29638,0.88995 0.35767,1.91435 0.15764,2.63471 -0.13373,0.48157 -0.0509,0.62606 0.53958,0.94165 0.35782,0.19123 0.57068,0.20192 2.97532,0.1494 1.42446,-0.0311 5.79496,-0.12686 9.71223,-0.21278 z m 14.80289,-40.64353 c -0.0343,-0.19746 -0.061,-2.60496 -0.0593,-5.350019 0.003,-4.445336 0.0214,-4.991007 0.17117,-4.991007 0.0924,0 0.52628,0.340242 0.96406,0.756093 0.59001,0.560454 0.92135,0.789627 1.28052,0.885692 0.46936,0.125535 0.48455,0.142818 0.48455,0.551337 0,0.356754 0.0707,0.488014 0.45864,0.851846 0.65167,0.611137 1.16641,0.810612 2.32014,0.899109 0.54901,0.04211 0.9982,0.09993 0.9982,0.128481 0,0.02855 -0.2216,0.708505 -0.49244,1.511008 -0.31766,0.94122 -0.48044,1.59736 -0.45863,1.84869 0.0331,0.38144 0.0175,0.39866 -0.74608,0.8222 -1.98471,1.1009 -4.31855,2.31289 -4.57525,2.37598 -0.25557,0.0628 -0.28929,0.0346 -0.34557,-0.28941 z m 3.27265,-1.76314 1.88849,-0.97689 0.0684,-0.53611 c 0.0888,-0.69663 0.39331,-1.849464 0.58782,-2.225605 0.0842,-0.162904 0.15317,-0.315942 0.15317,-0.340085 0,-0.02414 -0.38033,-0.06996 -0.84517,-0.101824 -0.94052,-0.06446 -1.42553,-0.264855 -2.14697,-0.887058 -0.44503,-0.383812 -0.77579,-1.104769 -0.62143,-1.35453 0.0358,-0.05798 -0.0227,-0.106491 -0.13006,-0.107794 -0.34785,-0.0042 -1.13597,-0.423997 -1.47923,-0.787884 l -0.33469,-0.354799 -0.005,4.616789 -0.005,4.61679 0.49082,-0.29206 c 0.26996,-0.16063 1.34065,-0.73166 2.37932,-1.26894 z m -3.05472,-1.75029 c -0.0274,-0.105 -0.0515,-0.0452 -0.0537,0.13284 -0.002,0.17805 0.0202,0.26396 0.0497,0.1909 0.0296,-0.0731 0.0314,-0.21875 0.004,-0.32374 z m 4.96794,-2.684161 c -0.0359,-0.03586 -0.12894,-0.03969 -0.20684,-0.0085 -0.0861,0.03445 -0.0605,0.06002 0.0652,0.0652 0.11376,0.0047 0.1775,-0.02082 0.14164,-0.05668 z m -2.12905,-0.946768 c 0,-0.02241 -0.085,-0.107391 -0.18885,-0.188849 -0.17116,-0.134231 -0.17497,-0.130414 -0.0407,0.04074 0.14097,0.179757 0.22959,0.236922 0.22959,0.148106 z m -2.83995,-0.411145 c -0.0344,-0.08609 -0.06,-0.06052 -0.0652,0.0652 -0.005,0.113759 0.0208,0.177495 0.0567,0.141636 0.0359,-0.03586 0.0397,-0.128934 0.009,-0.206834 z m -11.50752,1.897018 c -0.71675,-0.749538 -1.53369,-1.337216 -1.85889,-1.337216 -0.12438,0 -0.29459,-0.201217 -0.47924,-0.566547 -0.1575,-0.311601 -0.44905,-0.821439 -0.64788,-1.132974 -0.19884,-0.311535 -0.53272,-0.906365 -0.74195,-1.321844 -0.20923,-0.41548 -0.47695,-0.815704 -0.59494,-0.889388 -0.11799,-0.07368 -0.21452,-0.178031 -0.21452,-0.231884 0,-0.05385 0.40913,-0.522326 0.90918,-1.041049 0.80792,-0.838089 0.93457,-1.025311 1.13707,-1.680948 0.36723,-1.188925 0.28738,-2.706729 -0.18464,-3.510028 -0.22594,-0.384506 -0.13031,-0.567441 0.37593,-0.719114 0.55606,-0.166599 1.30532,-0.714567 1.43175,-1.047102 0.11244,-0.295752 0.27263,-0.344768 1.3487,-0.412686 1.68867,-0.106584 3.44446,-1.059331 5.14474,-2.791697 0.39615,-0.403632 0.7659,-0.733876 0.82166,-0.733876 0.12372,0 0.23863,0.78216 0.23863,1.624274 0,1.7793 -0.84047,4.031352 -2.79464,7.488246 -0.33744,0.596927 -0.71912,1.333263 -0.84819,1.636301 -0.80343,1.886393 -1.6188,4.675852 -1.7123,5.85797 -0.0608,0.768844 -0.31964,1.522706 -0.5228,1.522706 -0.0692,0 -0.4326,-0.320915 -0.80767,-0.713144 z m 0.89793,0.304613 c 0.0288,-0.04663 -0.0376,-0.08479 -0.14758,-0.08479 -0.10999,0 -0.1764,0.03816 -0.14758,0.08479 0.0288,0.04663 0.0952,0.08479 0.14758,0.08479 0.0524,0 0.11876,-0.03816 0.14758,-0.08479 z m 0.0582,-1.504871 c 0.27638,-2.204141 1.09993,-4.666872 2.42755,-7.25926 2.30536,-4.501578 2.48502,-4.9511 2.76349,-6.91455 0.0597,-0.42081 0.0813,-0.8092 0.048,-0.863088 -0.0333,-0.05389 -0.41879,0.214448 -0.85663,0.596303 -1.05405,0.919269 -1.8025,1.405816 -2.7652,1.797591 -0.80334,0.326922 -2.26235,0.592569 -2.74637,0.500042 -0.17241,-0.03296 -0.26364,-8.62e-4 -0.26364,0.09275 0,0.38017 -1.18722,1.337711 -1.65857,1.337711 -0.12558,0 -0.11179,0.09033 0.07,0.458633 0.1669,0.33812 0.23803,0.728017 0.27072,1.483813 0.0759,1.755141 -0.36813,2.911569 -1.51328,3.941163 l -0.5421,0.487387 0.35562,0.667211 c 0.1956,0.366965 0.61194,1.075445 0.92521,1.574399 0.31327,0.498955 0.59921,1.042068 0.63542,1.206919 0.0493,0.22457 0.1472,0.316003 0.39032,0.364628 0.43067,0.08613 1.39514,0.734676 1.84143,1.238245 0.2253,0.254207 0.38617,0.359793 0.43336,0.284424 0.0413,-0.06593 0.1244,-0.513373 0.1847,-0.994324 z m 0.19167,0.166549 c -0.0344,-0.08609 -0.06,-0.06052 -0.0652,0.0652 -0.005,0.113759 0.0208,0.177495 0.0567,0.141637 0.0359,-0.03586 0.0397,-0.128935 0.009,-0.206835 z m -2.11031,-11.823291 c 0.13423,-0.171157 0.13041,-0.174974 -0.0408,-0.04074 -0.10386,0.08146 -0.18885,0.16644 -0.18885,0.188849 0,0.08882 0.0886,0.03165 0.2296,-0.148105 z m 1.25422,-0.748848 c -0.10387,-0.02714 -0.27383,-0.02714 -0.3777,0 -0.10387,0.02714 -0.0189,0.04935 0.18885,0.04935 0.20773,0 0.29271,-0.02221 0.18885,-0.04935 z m 5.47661,-2.731368 c 0.10743,-0.118705 0.17104,-0.215827 0.14137,-0.215827 -0.0297,0 -0.14185,0.09712 -0.24928,0.215827 -0.10743,0.118705 -0.17104,0.215827 -0.14136,0.215827 0.0297,0 0.14185,-0.09712 0.24927,-0.215827 z m 10.19784,-1.173837 c 0,-0.111438 0.0728,-0.263067 0.16188,-0.336955 0.089,-0.07389 0.16187,-0.195787 0.16187,-0.270888 0,-0.5914 3.75203,-4.998291 5.49598,-6.455215 1.98909,-1.661722 2.19603,-1.761862 2.31627,-1.120898 0.0366,0.194941 0.15092,0.474168 0.2541,0.620504 0.1137,0.161265 0.25885,0.758699 0.36848,1.51675 0.21748,1.503675 0.44895,2.035067 1.29146,2.964738 0.34838,0.384423 0.63342,0.767113 0.63342,0.850423 0,0.12386 -0.29015,0.1487 -1.59173,0.136271 -1.33967,-0.01279 -1.75407,0.0248 -2.61691,0.237386 -1.33808,0.329682 -2.82336,0.925283 -3.13521,1.257229 -0.22572,0.240269 -0.33073,0.2637 -1.18185,0.2637 -0.78224,0 -1.02045,0.0438 -1.46501,0.269333 -0.63722,0.323286 -0.69275,0.328706 -0.69275,0.06762 z m 1.91322,-0.61798 c -0.0358,-0.03586 -0.12893,-0.03969 -0.20683,-0.0085 -0.0861,0.03445 -0.0605,0.06002 0.0652,0.0652 0.11376,0.0047 0.17749,-0.02082 0.14163,-0.05668 z m 1.16156,-0.04148 c 0.0378,-0.06117 -0.006,-0.07926 -0.10154,-0.04241 -0.18696,0.07174 -0.22116,0.149089 -0.0659,0.149089 0.0559,0 0.13122,-0.048 0.16748,-0.106677 z m 0.007,-0.444404 c 0.36358,-0.332054 1.88125,-0.936618 3.0808,-1.227232 0.86881,-0.210486 1.40487,-0.271799 2.37728,-0.271907 l 1.25551,-1.4e-4 -0.42125,-0.458633 c -0.2317,-0.252248 -0.51862,-0.658485 -0.63762,-0.902748 -0.27319,-0.560792 -0.53058,-1.761652 -0.53302,-2.486848 -0.001,-0.418512 -0.073,-0.665443 -0.28802,-0.993904 l -0.28614,-0.437041 -0.33436,0.237835 c -0.74896,0.532741 -4.07927,3.996701 -5.08606,5.290179 -0.5916,0.760064 -1.08918,1.41983 -1.10572,1.466147 -0.0165,0.04632 0.37194,0.06233 0.86331,0.03559 0.67534,-0.03676 0.94755,-0.09809 1.11529,-0.251295 z m 6.95436,-1.642338 c 0,-0.01933 -0.13355,-0.152874 -0.29677,-0.296763 l -0.29676,-0.261616 0.26162,0.296762 c 0.24452,0.277369 0.33191,0.346251 0.33191,0.261617 z m -6.09713,-2.015214 c 0.23183,-0.23741 0.39722,-0.431655 0.36755,-0.431655 -0.0297,0 -0.24364,0.194245 -0.47546,0.431655 -0.23182,0.23741 -0.39722,0.431655 -0.36754,0.431655 0.0297,0 0.24363,-0.194245 0.47545,-0.431655 z m 2.76557,-2.670863 c 0.13423,-0.171157 0.13041,-0.174974 -0.0408,-0.04074 -0.17975,0.140976 -0.23692,0.229593 -0.1481,0.229593 0.0224,0 0.10739,-0.08498 0.18885,-0.188849 z m -21.61835,71.439668 c -0.45717,-0.0202 -1.23415,-0.0203 -1.72662,-2.5e-4 -0.49248,0.02 -0.11844,0.0365 0.8312,0.0367 0.94964,1.4e-4 1.35258,-0.0163 0.89542,-0.0364 z m 4.79703,-0.10792 c -0.43031,-0.0205 -1.13444,-0.0205 -1.56475,0 -0.4303,0.0205 -0.0782,0.0372 0.78238,0.0372 0.86061,0 1.21268,-0.0168 0.78237,-0.0372 z m 4.75146,-0.10665 c -0.25046,-0.0226 -0.68751,-0.0229 -0.97123,-5.9e-4 -0.28371,0.0223 -0.0788,0.0408 0.45538,0.0411 0.53417,3.2e-4 0.7663,-0.0179 0.51585,-0.0406 z M 106.47434,133.2464 c -0.0299,-0.0742 -0.0544,-0.0135 -0.0544,0.13489 0,0.14839 0.0245,0.20909 0.0544,0.1349 0.0299,-0.0742 0.0299,-0.1956 0,-0.26979 z m 23.4537,-0.22959 c 0,-0.0224 -0.085,-0.10739 -0.18884,-0.18885 -0.17116,-0.13423 -0.17498,-0.13041 -0.0408,0.0408 0.14098,0.17975 0.22959,0.23692 0.22959,0.1481 z m -23.55579,-1.55098 c -0.0247,-0.16322 -0.045,-0.0297 -0.045,0.29676 0,0.32644 0.0202,0.45998 0.045,0.29676 0.0247,-0.16322 0.0247,-0.4303 0,-0.59352 z m 22.8004,0.68767 c 0,-0.0224 -0.085,-0.10739 -0.18885,-0.18885 -0.17116,-0.13423 -0.17497,-0.13041 -0.0407,0.0408 0.14097,0.17975 0.22959,0.23692 0.22959,0.1481 z m -2.08349,-5.21799 c -0.0274,-0.105 -0.0516,-0.0452 -0.0538,0.13284 -0.002,0.17805 0.0202,0.26396 0.0498,0.1909 0.0296,-0.0731 0.0314,-0.21875 0.004,-0.32374 z m 1.70579,-3.26645 c 0.10743,-0.1187 0.17104,-0.21582 0.14136,-0.21582 -0.0297,0 -0.14185,0.0971 -0.24927,0.21582 -0.10743,0.11871 -0.17104,0.21583 -0.14137,0.21583 0.0297,0 0.14185,-0.0971 0.24928,-0.21583 z m 0.53957,-0.53956 c 0.10743,-0.11871 0.17104,-0.21583 0.14136,-0.21583 -0.0297,0 -0.14185,0.0971 -0.24927,0.21583 -0.10743,0.1187 -0.17105,0.21582 -0.14137,0.21582 0.0297,0 0.14185,-0.0971 0.24928,-0.21582 z m 0.86331,-0.7554 c 0.10742,-0.1187 0.17104,-0.21583 0.14136,-0.21583 -0.0297,0 -0.14185,0.0971 -0.24928,0.21583 -0.10742,0.11871 -0.17104,0.21583 -0.14136,0.21583 0.0297,0 0.14185,-0.0971 0.24928,-0.21583 z m 0.93103,-0.83633 c 0.13423,-0.17116 0.13041,-0.17497 -0.0407,-0.0407 -0.17976,0.14097 -0.23693,0.22959 -0.14811,0.22959 0.0224,0 0.10739,-0.085 0.18885,-0.18885 z m 0.86331,-0.7554 c 0.13423,-0.17115 0.13041,-0.17497 -0.0407,-0.0407 -0.10387,0.0815 -0.18885,0.16644 -0.18885,0.18885 0,0.0888 0.0886,0.0316 0.22959,-0.14811 z m 1.2812,-1.16007 c 0.32238,-0.32644 0.56187,-0.59352 0.53219,-0.59352 -0.0297,0 -0.31772,0.26708 -0.64011,0.59352 -0.32238,0.32644 -0.56187,0.59353 -0.53219,0.59353 0.0297,0 0.31772,-0.26709 0.64011,-0.59353 z m -30.78462,-0.33498 c -0.0359,-0.0359 -0.12894,-0.0397 -0.20684,-0.009 -0.0861,0.0344 -0.0605,0.06 0.0652,0.0652 0.11376,0.005 0.1775,-0.0208 0.14164,-0.0567 z m 6.77383,-2.3089 c 0.23182,-0.23741 0.39722,-0.43166 0.36754,-0.43166 -0.0297,0 -0.24363,0.19425 -0.47546,0.43166 -0.23182,0.23741 -0.39721,0.43165 -0.36754,0.43165 0.0297,0 0.24363,-0.19424 0.47546,-0.43165 z m 1.53122,-0.29677 c -0.0271,-0.10386 -0.0494,-0.0189 -0.0494,0.18885 0,0.20774 0.0222,0.29272 0.0494,0.18885 0.0271,-0.10386 0.0271,-0.27383 0,-0.3777 z m 44.57264,-2.14253 c -0.0359,-0.0359 -0.12893,-0.0397 -0.20683,-0.009 -0.0861,0.0344 -0.0605,0.06 0.0652,0.0652 0.11376,0.005 0.1775,-0.0208 0.14164,-0.0567 z m 6.37201,-0.0132 c -0.22101,-0.0232 -0.6095,-0.0235 -0.86331,-7.1e-4 -0.25382,0.0228 -0.073,0.0418 0.40182,0.0422 0.47482,3.9e-4 0.68249,-0.0183 0.46149,-0.0414 z m -74.760042,-0.93001 c 0,-0.0205 -0.109262,-0.12974 -0.242806,-0.2428 l -0.242805,-0.20558 0.205574,0.24281 c 0.193189,0.22818 0.280037,0.29193 0.280037,0.20557 z m 61.157822,-0.35171 c -0.0359,-0.0359 -0.12894,-0.0397 -0.20684,-0.009 -0.0861,0.0344 -0.0605,0.06 0.0652,0.0652 0.11376,0.005 0.17749,-0.0208 0.14164,-0.0567 z m -10.0607,-0.25854 c 0.10742,-0.1187 0.17104,-0.21583 0.14136,-0.21583 -0.0297,0 -0.14185,0.0971 -0.24928,0.21583 -0.10743,0.11871 -0.17104,0.21583 -0.14136,0.21583 0.0297,0 0.14185,-0.0971 0.24928,-0.21583 z M 86.223013,112.837 c 0,-0.0224 -0.08498,-0.10739 -0.188849,-0.18884 -0.171157,-0.13424 -0.174974,-0.13042 -0.04074,0.0407 0.140975,0.17976 0.229593,0.23692 0.229593,0.1481 z m 52.661867,-0.66069 c 0.20134,-0.20773 0.3418,-0.3777 0.31212,-0.3777 -0.0297,0 -0.21869,0.16997 -0.42004,0.3777 -0.20134,0.20773 -0.34179,0.3777 -0.31212,0.3777 0.0297,0 0.21869,-0.16997 0.42004,-0.3777 z m 6.79856,0.34393 c 0,-0.0186 -0.15783,-0.1764 -0.35072,-0.35072 l -0.35072,-0.31695 0.31695,0.35072 c 0.29545,0.32692 0.38449,0.40032 0.38449,0.31695 z m -1.65184,-3.60627 c -0.0274,-0.10499 -0.0515,-0.0452 -0.0537,0.13284 -0.002,0.17806 0.0202,0.26397 0.0497,0.19091 0.0296,-0.0731 0.0314,-0.21875 0.004,-0.32375 z m 28.21236,-0.4337 c 0.13423,-0.17116 0.13042,-0.17498 -0.0407,-0.0408 -0.10387,0.0815 -0.18885,0.16644 -0.18885,0.18885 0,0.0888 0.0886,0.0316 0.22959,-0.1481 z m -87.670129,-0.646 c -0.02481,-0.16404 -0.04576,-0.0554 -0.04657,0.24132 -8.1e-4,0.29676 0.01948,0.43097 0.0451,0.29825 0.02561,-0.13273 0.02628,-0.37554 0.0015,-0.53957 z m 90.138379,-2.99609 c 0.1394,-0.14838 0.22917,-0.26978 0.19949,-0.26978 -0.0297,0 -0.168,0.1214 -0.3074,0.26978 -0.1394,0.14838 -0.22917,0.26978 -0.19949,0.26978 0.0297,0 0.16801,-0.1214 0.3074,-0.26978 z M 87.356106,99.820144 c 0.107427,-0.118705 0.17104,-0.215827 0.141364,-0.215827 -0.02968,0 -0.141851,0.09712 -0.249278,0.215827 -0.107426,0.118705 -0.17104,0.215826 -0.141364,0.215826 0.02968,0 0.141851,-0.09712 0.249278,-0.215826 z m 89.591814,-1.050675 c -0.0248,-0.164035 -0.0458,-0.05544 -0.0466,0.241322 -8.1e-4,0.296763 0.0195,0.430974 0.0451,0.298247 0.0256,-0.132727 0.0263,-0.375533 0.001,-0.539569 z m -83.54186,-3.400764 0.316952,-0.350719 -0.35072,0.316952 c -0.326919,0.295444 -0.400322,0.384486 -0.316952,0.384486 0.01857,0 0.176396,-0.157823 0.35072,-0.350719 z m 81.84572,-0.769161 c 0,-0.02241 -0.085,-0.10739 -0.18885,-0.188849 -0.17116,-0.13423 -0.17497,-0.130413 -0.0407,0.04074 0.14097,0.179757 0.22959,0.236922 0.22959,0.148105 z m -77.852915,-1.712853 0.316952,-0.35072 -0.350719,0.316953 c -0.32692,0.295443 -0.400322,0.384486 -0.316952,0.384486 0.01857,0 0.176395,-0.157824 0.350719,-0.350719 z m 7.412275,-3.281901 c -0.0742,-0.02994 -0.19559,-0.02994 -0.26978,0 -0.0742,0.02994 -0.0135,0.05443 0.13489,0.05443 0.14838,0 0.20908,-0.02449 0.13489,-0.05443 z m 1.78058,-0.0029 c -0.10387,-0.02714 -0.27384,-0.02714 -0.3777,0 -0.10387,0.02714 -0.0189,0.04935 0.18885,0.04935 0.20773,0 0.29271,-0.02221 0.18885,-0.04935 z m 62.40107,-1.360546 c 0,-0.01763 -0.20639,-0.224015 -0.45863,-0.458633 l -0.45864,-0.426577 0.42658,0.458633 c 0.39671,0.426524 0.49069,0.508222 0.49069,0.426577 z m 2.83479,-4.571102 c -0.0731,-0.02956 -0.21875,-0.03136 -0.32375,-0.004 -0.10499,0.02736 -0.0452,0.05155 0.13284,0.05375 0.17806,0.0022 0.26397,-0.02019 0.19091,-0.04975 z m -9.0151,-1.181464 c -0.0359,-0.03586 -0.12893,-0.03969 -0.20683,-0.0085 -0.0861,0.03445 -0.0605,0.06002 0.0652,0.0652 0.11376,0.0047 0.17749,-0.02082 0.14163,-0.05668 z M 108.09529,77.4618 c -0.0345,-0.08609 -0.06,-0.06052 -0.0652,0.0652 -0.005,0.113759 0.0208,0.177496 0.0567,0.141637 0.0359,-0.03586 0.0397,-0.128934 0.009,-0.206834 z m 70.89927,-1.187051 c -0.0345,-0.08609 -0.06,-0.06052 -0.0652,0.0652 -0.005,0.113759 0.0208,0.177496 0.0567,0.141637 0.0359,-0.03586 0.0397,-0.128935 0.009,-0.206835 z m -5.90105,-6.491818 c 0,-0.02048 -0.10927,-0.12974 -0.24281,-0.242805 l -0.2428,-0.205575 0.20557,0.242806 c 0.19319,0.228178 0.28004,0.291933 0.28004,0.205574 z m -7.33813,-5.615022 c 0,-0.02241 -0.085,-0.107391 -0.18885,-0.188849 -0.17116,-0.134231 -0.17497,-0.130414 -0.0407,0.04074 0.14097,0.179757 0.22959,0.236922 0.22959,0.148106 z m -0.53957,-0.539569 c 0,-0.02241 -0.085,-0.10739 -0.18885,-0.188849 -0.17116,-0.13423 -0.17497,-0.130413 -0.0407,0.04074 0.14097,0.179757 0.22959,0.236922 0.22959,0.148105 z m -2.58993,-1.295929 c 0,-0.02294 -0.14568,-0.06309 -0.32374,-0.08922 -0.17806,-0.02613 -0.32374,-0.0074 -0.32374,0.04171 0,0.04907 0.14568,0.08922 0.32374,0.08922 0.17806,0 0.32374,-0.01877 0.32374,-0.04171 z m 0.29022,-2.844982 c -0.0272,-0.103867 -0.0494,-0.01888 -0.0494,0.188849 0,0.207734 0.0222,0.292716 0.0494,0.188849 0.0271,-0.103867 0.0271,-0.273831 0,-0.377698 z M 159.92804,54.031 c 0,-0.01857 -0.15782,-0.176396 -0.35072,-0.350719 l -0.35072,-0.316953 0.31695,0.35072 c 0.29545,0.326919 0.38449,0.400322 0.38449,0.316952 z m -37.01438,-1.962636 c 0.13939,-0.148381 0.22916,-0.269784 0.19949,-0.269784 -0.0297,0 -0.16801,0.121403 -0.30741,0.269784 -0.13939,0.148382 -0.22917,0.269784 -0.19949,0.269784 0.0297,0 0.16801,-0.121402 0.30741,-0.269784 z m 32.58992,-3.440024 c 0,-0.02241 -0.085,-0.10739 -0.18885,-0.188849 -0.17116,-0.13423 -0.17497,-0.130413 -0.0407,0.04074 0.14097,0.179757 0.22959,0.236922 0.22959,0.148105 z m -1.18705,-1.180074 c 0,-0.01857 -0.15782,-0.176395 -0.35072,-0.350719 l -0.35072,-0.316952 0.31695,0.350719 c 0.29545,0.32692 0.38449,0.400322 0.38449,0.316952 z m -19.41069,-1.342132 c 0.13423,-0.171157 0.13041,-0.174974 -0.0408,-0.04074 -0.10386,0.08146 -0.18885,0.16644 -0.18885,0.188849 0,0.08882 0.0886,0.03165 0.2296,-0.148106 z m 1.17328,-1.052158 c 0.1394,-0.148381 0.22917,-0.269784 0.19949,-0.269784 -0.0297,0 -0.168,0.121403 -0.3074,0.269784 -0.1394,0.148381 -0.22917,0.269784 -0.19949,0.269784 0.0297,0 0.16801,-0.121403 0.3074,-0.269784 z m 6.17806,-2.067872 c -0.0742,-0.02994 -0.19559,-0.02994 -0.26978,0 -0.0742,0.02994 -0.0135,0.05443 0.13489,0.05443 0.14838,0 0.20908,-0.02449 0.13489,-0.05443 z m 1.1891,6.84e-4 c -0.0731,-0.02956 -0.21874,-0.03136 -0.32374,-0.004 -0.10499,0.02736 -0.0452,0.05155 0.13284,0.05374 0.17806,0.0022 0.26396,-0.02019 0.1909,-0.04975 z"
       id="path1" /></g></svg>
