0
SECTION
2
HEADER
9
$INSUNITS
70
4
9
$ACADVER
1
AC1014
9
$HANDSEED
5
FFFF
0
ENDSEC
0
SECTION
2
TABLES
0
TABLE
2
VPORT
5
8
100
AcDbSymbolTable
0
ENDTAB
0
TABLE
2
LTYPE
5
5
100
AcDbSymbolTable
0
LTYPE
5
14
100
AcDbSymbolTableRecord
100
AcDbLinetypeTableRecord
2
BYBLOCK
70
0
0
LTYPE
5
15
100
AcDbSymbolTableRecord
100
AcDbLinetypeTableRecord
2
BYLAYER
70
0
0
ENDTAB
0
TABLE
2
LAYER
5
2
100
AcDbSymbolTable
70
2
0
LAYER
5
50
100
AcDbSymbolTableRecord
100
AcDbLayerTableRecord
2
0
70
0
6
CONTINUOUS
0
ENDTAB
0
TABLE
2
STYLE
5
3
100
AcDbSymbolTable
70
1
0
STYLE
5
11
100
AcDbSymbolTableRecord
100
AcDbTextStyleTableRecord
2
STANDARD
70
0
0
ENDTAB
0
TABLE
2
VIEW
5
6
100
AcDbSymbolTable
70
0
0
ENDTAB
0
TABLE
2
UCS
5
7
100
AcDbSymbolTable
70
0
0
ENDTAB
0
TABLE
2
APPID
5
9
100
AcDbSymbolTable
70
2
0
APPID
5
12
100
AcDbSymbolTableRecord
100
AcDbRegAppTableRecord
2
ACAD
70
0
0
ENDTAB
0
TABLE
2
DIMSTYLE
5
A
100
AcDbSymbolTable
70
1
0
ENDTAB
0
TABLE
2
BLOCK_RECORD
5
1
100
AcDbSymbolTable
70
1
0
BLOCK_RECORD
5
1F
100
AcDbSymbolTableRecord
100
AcDbBlockTableRecord
2
*MODEL_SPACE
0
BLOCK_RECORD
5
1B
100
AcDbSymbolTableRecord
100
AcDbBlockTableRecord
2
*PAPER_SPACE
0
ENDTAB
0
ENDSEC
0
SECTION
2
BLOCKS
0
BLOCK
5
20
100
AcDbEntity
100
AcDbBlockBegin
2
*MODEL_SPACE
0
ENDBLK
5
21
100
AcDbEntity
100
AcDbBlockEnd
0
BLOCK
5
1C
100
AcDbEntity
100
AcDbBlockBegin
2
*PAPER_SPACE
0
ENDBLK
5
1D
100
AcDbEntity
100
AcDbBlockEnd
0
ENDSEC
0
SECTION
2
ENTITIES
0
SPLINE
5
100
100
AcDbEntity
8
0
100
AcDbSpline
70
4
71
3
72
8
73
4
74
0
42
0.000000001
43
0.0000000001
44
0.0000000001
40
0
40
0
40
0
40
0
40
1
40
1
40
1
40
1
41
1
41
1
41
1
41
1
10
40.885931110382089
20
-16.428490924835209
30
0
10
40.885931110382089
20
-16.575566895802819
30
0
10
40.881883796056115
20
-16.573145572344465
30
0
10
40.981114657719935
20
-16.485481349627179
30
0
0
SPLINE
5
101
100
AcDbEntity
8
0
100
AcDbSpline
70
4
71
3
72
8
73
4
74
0
42
0.000000001
43
0.0000000001
44
0.0000000001
40
0
40
0
40
0
40
0
40
1
40
1
40
1
40
1
41
1
41
1
41
1
41
1
10
40.981114657719935
20
-16.485481349627179
30
0
10
41.002915652592982
20
-16.466208664576214
30
0
10
41.079138390223193
20
-16.407200638453169
30
0
10
41.1504740715027
20
-16.354349374771118
30
0
0
SPLINE
5
102
100
AcDbEntity
8
0
100
AcDbSpline
70
4
71
3
72
8
73
4
74
0
42
0.000000001
43
0.0000000001
44
0.0000000001
40
0
40
0
40
0
40
0
40
1
40
1
40
1
40
1
41
1
41
1
41
1
41
1
10
41.1504740715027
20
-16.354349374771118
30
0
10
41.221811771392829
20
-16.301498111089071
30
0
10
41.327639452616381
20
-16.210795879364014
30
0
10
41.385646247863775
20
-16.15278908411662
30
0
0
LINE
5
103
100
AcDbEntity
8
0
100
AcDbLine
10
41.385646247863775
20
-16.15278908411662
30
0
11
41.491112597783406
21
-16.047321724891667
31
0
0
LINE
5
104
100
AcDbEntity
8
0
100
AcDbLine
10
41.491112597783406
20
-16.047321724891667
30
0
11
41.480052630106613
21
-15.911196716626488
31
0
0
SPLINE
5
105
100
AcDbEntity
8
0
100
AcDbSpline
70
4
71
3
72
8
73
4
74
0
42
0.000000001
43
0.0000000001
44
0.0000000001
40
0
40
0
40
0
40
0
40
1
40
1
40
1
40
1
41
1
41
1
41
1
41
1
10
41.480052630106613
20
-15.911196716626488
30
0
10
41.473966519037887
20
-15.836328466733299
30
0
10
41.46267037391663
20
-15.762959035237632
30
0
10
41.454943132400516
20
-15.748153535525006
30
0
0
SPLINE
5
106
100
AcDbEntity
8
0
100
AcDbSpline
70
4
71
3
72
8
73
4
74
0
42
0.000000001
43
0.0000000001
44
0.0000000001
40
0
40
0
40
0
40
0
40
1
40
1
40
1
40
1
41
1
41
1
41
1
41
1
10
41.454943132400516
20
-15.748153535525006
30
0
10
41.436369895935066
20
-15.712561392784121
30
0
10
41.12502342859905
20
-15.481630317370099
30
0
10
40.925588734944668
20
-15.355526701609296
30
0
0
SPLINE
5
107
100
AcDbEntity
8
0
100
AcDbSpline
70
4
71
3
72
8
73
4
74
0
42
0.000000001
43
0.0000000001
44
0.0000000001
40
0
40
0
40
0
40
0
40
1
40
1
40
1
40
1
41
1
41
1
41
1
41
1
10
40.925588734944668
20
-15.355526701609296
30
0
10
40.838348420461024
20
-15.300362110137941
30
0
10
40.738772376378378
20
-15.233054566383364
30
0
10
40.704310655593886
20
-15.205953709284469
30
0
0
SPLINE
5
108
100
AcDbEntity
8
0
100
AcDbSpline
70
4
71
3
72
8
73
4
74
0
42
0.000000001
43
0.0000000001
44
0.0000000001
40
0
40
0
40
0
40
0
40
1
40
1
40
1
40
1
41
1
41
1
41
1
41
1
10
40.704310655593886
20
-15.205953709284469
30
0
10
40.658976697921759
20
-15.170304036140445
30
0
10
40.644695027669272
20
-15.164602470397952
30
0
10
40.652648353576666
20
-15.185331583023075
30
0
0
SPLINE
5
109
100
AcDbEntity
8
0
100
AcDbSpline
70
4
71
3
72
8
73
4
74
0
42
0.000000001
43
0.0000000001
44
0.0000000001
40
0
40
0
40
0
40
0
40
1
40
1
40
1
40
1
41
1
41
1
41
1
41
1
10
40.652648353576666
20
-15.185331583023075
30
0
10
40.685196431477877
20
-15.270149564743045
30
0
10
40.824066750208544
20
-15.874350007375085
30
0
10
40.838449350992846
20
-15.993721556663516
30
0
0
SPLINE
5
110
100
AcDbEntity
8
0
100
AcDbSpline
70
4
71
3
72
8
73
4
74
0
42
0.000000001
43
0.0000000001
44
0.0000000001
40
0
40
0
40
0
40
0
40
1
40
1
40
1
40
1
41
1
41
1
41
1
41
1
10
40.838449350992846
20
-15.993721556663516
30
0
10
40.847682476043715
20
-16.070358109474185
30
0
10
40.862155914306648
20
-16.169479966163639
30
0
10
40.870585632324222
20
-16.213993358612061
30
0
0
SPLINE
5
111
100
AcDbEntity
8
0
100
AcDbSpline
70
4
71
3
72
8
73
4
74
0
42
0.000000001
43
0.0000000001
44
0.0000000001
40
0
40
0
40
0
40
0
40
1
40
1
40
1
40
1
41
1
41
1
41
1
41
1
10
40.870585632324222
20
-16.213993358612061
30
0
10
40.879025443394987
20
-16.258506751060487
30
0
10
40.885931110382089
20
-16.355030655860901
30
0
10
40.885931110382089
20
-16.428490924835209
30
0
0
SPLINE
5
112
100
AcDbEntity
8
0
100
AcDbSpline
70
4
71
3
72
8
73
4
74
0
42
0.000000001
43
0.0000000001
44
0.0000000001
40
0
40
0
40
0
40
0
40
1
40
1
40
1
40
1
41
1
41
1
41
1
41
1
10
39.164130926132209
20
-16.808749731381734
30
0
10
39.146137030919398
20
-16.757042010625206
30
0
10
39.107486693064374
20
-16.702207461992902
30
0
10
39.045432583491014
20
-16.640346129735313
30
0
0
SPLINE
5
113
100
AcDbEntity
8
0
100
AcDbSpline
70
4
71
3
72
8
73
4
74
0
42
0.000000001
43
0.0000000001
44
0.0000000001
40
0
40
0
40
0
40
0
40
1
40
1
40
1
40
1
41
1
41
1
41
1
41
1
10
39.045432583491014
20
-16.640346129735313
30
0
10
38.936142985026045
20
-16.531396667162578
30
0
10
38.879884306589773
20
-16.427393809954328
30
0
10
38.853872489929209
20
-16.286220256487532
30
0
0
SPLINE
5
114
100
AcDbEntity
8
0
100
AcDbSpline
70
4
71
3
72
8
73
4
74
0
42
0.000000001
43
0.0000000001
44
0.0000000001
40
0
40
0
40
0
40
0
40
1
40
1
40
1
40
1
41
1
41
1
41
1
41
1
10
38.853872489929209
20
-16.286220256487532
30
0
10
38.83547285397848
20
-16.18636968135834
30
0
10
38.836171293258673
20
-16.180864930152897
30
0
10
38.872928174336757
20
-16.135587493578598
30
0
0
SPLINE
5
115
100
AcDbEntity
8
0
100
AcDbSpline
70
4
71
3
72
8
73
4
74
0
42
0.000000001
43
0.0000000001
44
0.0000000001
40
0
40
0
40
0
40
0
40
1
40
1
40
1
40
1
41
1
41
1
41
1
41
1
10
38.872928174336757
20
-16.135587493578598
30
0
10
38.97755276362102
20
-16.006714344024658
30
0
10
39.092815430959071
20
-15.968921915690107
30
0
10
39.387336778640758
20
-15.966920463244122
30
0
0
SPLINE
5
116
100
AcDbEntity
8
0
100
AcDbSpline
70
4
71
3
72
8
73
4
74
0
42
0.000000001
43
0.0000000001
44
0.0000000001
40
0
40
0
40
0
40
0
40
1
40
1
40
1
40
1
41
1
41
1
41
1
41
1
10
39.387336778640758
20
-15.966920463244122
30
0
10
39.592780876159679
20
-15.965518538157148
30
0
10
39.613267755508431
20
-15.962679362297061
30
0
10
39.655170075098681
20
-15.929718478520714
30
0
0
SPLINE
5
117
100
AcDbEntity
8
0
100
AcDbSpline
70
4
71
3
72
8
73
4
74
0
42
0.000000001
43
0.0000000001
44
0.0000000001
40
0
40
0
40
0
40
0
40
1
40
1
40
1
40
1
41
1
41
1
41
1
41
1
10
39.655170075098681
20
-15.929718478520714
30
0
10
39.720867776870733
20
-15.878040027618409
30
0
10
39.805633274714161
20
-15.882824134826663
30
0
10
39.92185074488323
20
-15.944768230120342
30
0
0
SPLINE
5
118
100
AcDbEntity
8
0
100
AcDbSpline
70
4
71
3
72
8
73
4
74
0
42
0.000000001
43
0.0000000001
44
0.0000000001
40
0
40
0
40
0
40
0
40
1
40
1
40
1
40
1
41
1
41
1
41
1
41
1
10
39.92185074488323
20
-15.944768230120342
30
0
10
40.025397396087655
20
-15.999959063529971
30
0
10
40.219549385706586
20
-16.172453379631044
30
0
10
40.320011599858603
20
-16.298516623179118
30
0
0
SPLINE
5
119
100
AcDbEntity
8
0
100
AcDbSpline
70
4
71
3
72
8
73
4
74
0
42
0.000000001
43
0.0000000001
44
0.0000000001
40
0
40
0
40
0
40
0
40
1
40
1
40
1
40
1
41
1
41
1
41
1
41
1
10
40.320011599858603
20
-16.298516623179118
30
0
10
40.368490552902223
20
-16.359353510538739
30
0
10
40.38096556663514
20
-16.368590672810875
30
0
10
40.373557265599572
20
-16.338172229131064
30
0
0
SPLINE
5
120
100
AcDbEntity
8
0
100
AcDbSpline
70
4
71
3
72
8
73
4
74
0
42
0.000000001
43
0.0000000001
44
0.0000000001
40
0
40
0
40
0
40
0
40
1
40
1
40
1
40
1
41
1
41
1
41
1
41
1
10
40.373557265599572
20
-16.338172229131064
30
0
10
40.368238226572686
20
-16.316362150510155
30
0
10
40.356518173217779
20
-16.17003205617269
30
0
10
40.34752324422201
20
-16.012995251019795
30
0
0
SPLINE
5
121
100
AcDbEntity
8
0
100
AcDbSpline
70
4
71
3
72
8
73
4
74
0
42
0.000000001
43
0.0000000001
44
0.0000000001
40
0
40
0
40
0
40
0
40
1
40
1
40
1
40
1
41
1
41
1
41
1
41
1
10
40.34752324422201
20
-16.012995251019795
30
0
10
40.331410694122319
20
-15.732512331008914
30
0
10
40.309060637156179
20
-15.536085367202761
30
0
10
40.282523981730151
20
-15.441951497395836
30
0
0
SPLINE
5
122
100
AcDbEntity
8
0
100
AcDbSpline
70
4
71
3
72
8
73
4
74
0
42
0.000000001
43
0.0000000001
44
0.0000000001
40
0
40
0
40
0
40
0
40
1
40
1
40
1
40
1
41
1
41
1
41
1
41
1
10
40.282523981730151
20
-15.441951497395836
30
0
10
40.275141922632862
20
-15.415779201189679
30
0
10
40.261383072535196
20
-15.364372253417971
30
0
10
40.251946067810067
20
-15.327715293566389
30
0
0
LINE
5
123
100
AcDbEntity
8
0
100
AcDbLine
10
40.251946067810067
20
-15.327715293566389
30
0
11
40.234773747126269
21
-15.261065816879276
31
0
0
LINE
5
124
100
AcDbEntity
8
0
100
AcDbLine
10
40.234773747126269
20
-15.261065816879276
30
0
11
40.097578875223803
21
-15.266796652475996
31
0
0
SPLINE
5
125
100
AcDbEntity
8
0
100
AcDbSpline
70
4
71
3
72
8
73
4
74
0
42
0.000000001
43
0.0000000001
44
0.0000000001
40
0
40
0
40
0
40
0
40
1
40
1
40
1
40
1
41
1
41
1
41
1
41
1
10
40.097578875223796
20
-15.266796652475996
30
0
10
39.965234724680585
20
-15.272323608398439
30
0
10
39.959572521845509
20
-15.27412017186483
30
0
10
39.937432400385546
20
-15.31758388678233
30
0
0
SPLINE
5
126
100
AcDbEntity
8
0
100
AcDbSpline
70
4
71
3
72
8
73
4
74
0
42
0.000000001
43
0.0000000001
44
0.0000000001
40
0
40
0
40
0
40
0
40
1
40
1
40
1
40
1
41
1
41
1
41
1
41
1
10
39.937432400385546
20
-15.31758388678233
30
0
10
39.855926958719891
20
-15.477581993738811
30
0
10
39.553928677241011
20
-15.66829124291738
30
0
10
39.358335399627691
20
-15.683277408281963
30
0
0
SPLINE
5
127
100
AcDbEntity
8
0
100
AcDbSpline
70
4
71
3
72
8
73
4
74
0
42
0.000000001
43
0.0000000001
44
0.0000000001
40
0
40
0
40
0
40
0
40
1
40
1
40
1
40
1
41
1
41
1
41
1
41
1
10
39.358335399627691
20
-15.683277408281963
30
0
10
39.260402504603078
20
-15.690780584017439
30
0
10
39.259827200571699
20
-15.690577713648482
30
0
10
39.19734716415406
20
-15.62586408456167
30
0
0
SPLINE
5
128
100
AcDbEntity
8
0
100
AcDbSpline
70
4
71
3
72
8
73
4
74
0
42
0.000000001
43
0.0000000001
44
0.0000000001
40
0
40
0
40
0
40
0
40
1
40
1
40
1
40
1
41
1
41
1
41
1
41
1
10
39.19734716415406
20
-15.62586408456167
30
0
10
39.146476157506314
20
-15.573175319035851
30
0
10
39.12372439702353
20
-15.560920333862306
30
0
10
39.076781606674203
20
-15.560920333862306
30
0
0
SPLINE
5
129
100
AcDbEntity
8
0
100
AcDbSpline
70
4
71
3
72
8
73
4
74
0
42
0.000000001
43
0.0000000001
44
0.0000000001
40
0
40
0
40
0
40
0
40
1
40
1
40
1
40
1
41
1
41
1
41
1
41
1
10
39.076781606674203
20
-15.560920333862306
30
0
10
38.995251941680912
20
-15.560920333862306
30
0
10
38.926665608088186
20
-15.533642848332725
30
0
10
38.905367247263598
20
-15.492746806144718
30
0
0
SPLINE
5
130
100
AcDbEntity
8
0
100
AcDbSpline
70
4
71
3
72
8
73
4
74
0
42
0.000000001
43
0.0000000001
44
0.0000000001
40
0
40
0
40
0
40
0
40
1
40
1
40
1
40
1
41
1
41
1
41
1
41
1
10
38.905367247263598
20
-15.492746806144718
30
0
10
38.89536301294963
20
-15.473535688718163
30
0
10
38.874306885401417
20
-15.41937737464905
30
0
10
38.858577871322638
20
-15.37239824930827
30
0
0
SPLINE
5
131
100
AcDbEntity
8
0
100
AcDbSpline
70
4
71
3
72
8
73
4
74
0
42
0.000000001
43
0.0000000001
44
0.0000000001
40
0
40
0
40
0
40
0
40
1
40
1
40
1
40
1
41
1
41
1
41
1
41
1
10
38.858577871322638
20
-15.37239824930827
30
0
10
38.83039806683859
20
-15.288218148549399
30
0
10
38.82862572669984
20
-15.286566925048831
30
0
10
38.735705041885382
20
-15.257854207356774
30
0
0
SPLINE
5
132
100
AcDbEntity
8
0
100
AcDbSpline
70
4
71
3
72
8
73
4
74
0
42
0.000000001
43
0.0000000001
44
0.0000000001
40
0
40
0
40
0
40
0
40
1
40
1
40
1
40
1
41
1
41
1
41
1
41
1
10
38.735705041885382
20
-15.257854207356774
30
0
10
38.683850971857716
20
-15.241830476125084
30
0
10
38.605734777450571
20
-15.203488985697431
30
0
10
38.562112601598109
20
-15.172650671005252
30
0
0
SPLINE
5
133
100
AcDbEntity
8
0
100
AcDbSpline
70
4
71
3
72
8
73
4
74
0
42
0.000000001
43
0.0000000001
44
0.0000000001
40
0
40
0
40
0
40
0
40
1
40
1
40
1
40
1
41
1
41
1
41
1
41
1
10
38.562112601598109
20
-15.172650671005252
30
0
10
38.518490425745654
20
-15.141812356313071
30
0
10
38.438385899861657
20
-15.087558158238732
30
0
10
38.384099404017135
20
-15.05208612283071
30
0
0
SPLINE
5
134
100
AcDbEntity
8
0
100
AcDbSpline
70
4
71
3
72
8
73
4
74
0
42
0.000000001
43
0.0000000001
44
0.0000000001
40
0
40
0
40
0
40
0
40
1
40
1
40
1
40
1
41
1
41
1
41
1
41
1
10
38.384099404017135
20
-15.05208612283071
30
0
10
38.277981042861946
20
-14.982745838165286
30
0
10
38.157623402277636
20
-14.846649090449018
30
0
10
38.157623402277636
20
-14.795994075139365
30
0
0
SPLINE
5
135
100
AcDbEntity
8
0
100
AcDbSpline
70
4
71
3
72
8
73
4
74
0
42
0.000000001
43
0.0000000001
44
0.0000000001
40
0
40
0
40
0
40
0
40
1
40
1
40
1
40
1
41
1
41
1
41
1
41
1
10
38.157623402277636
20
-14.795994075139365
30
0
10
38.157623402277636
20
-14.754092764854434
30
0
10
38.333890501658125
20
-14.580261119206748
30
0
10
38.457187239329031
20
-14.500571417808533
30
0
0
LINE
5
136
100
AcDbEntity
8
0
100
AcDbLine
10
38.457187239329031
20
-14.500571417808533
30
0
11
38.556890455881764
21
-14.436130301157634
31
0
0
LINE
5
137
100
AcDbEntity
8
0
100
AcDbLine
10
38.556890455881764
20
-14.436130301157634
30
0
11
38.36286563873292
21
-14.445885237058004
31
0
0
SPLINE
5
138
100
AcDbEntity
8
0
100
AcDbSpline
70
4
71
3
72
8
73
4
74
0
42
0.000000001
43
0.0000000001
44
0.0000000001
40
0
40
0
40
0
40
0
40
1
40
1
40
1
40
1
41
1
41
1
41
1
41
1
10
38.362865638732913
20
-14.445885237058004
30
0
10
38.125906991958622
20
-14.457799077034
30
0
10
38.125898917516075
20
-14.457794030507408
30
0
10
38.125898917516075
20
-14.26809812386831
30
0
0
SPLINE
5
139
100
AcDbEntity
8
0
100
AcDbSpline
70
4
71
3
72
8
73
4
74
0
42
0.000000001
43
0.0000000001
44
0.0000000001
40
0
40
0
40
0
40
0
40
1
40
1
40
1
40
1
41
1
41
1
41
1
41
1
10
38.125898917516075
20
-14.26809812386831
30
0
10
38.125898917516075
20
-14.144905344645185
30
0
10
38.123940865198776
20
-14.137826077143353
30
0
10
38.0807446161906
20
-14.105898722012839
30
0
0
SPLINE
5
140
100
AcDbEntity
8
0
100
AcDbSpline
70
4
71
3
72
8
73
4
74
0
42
0.000000001
43
0.0000000001
44
0.0000000001
40
0
40
0
40
0
40
0
40
1
40
1
40
1
40
1
41
1
41
1
41
1
41
1
10
38.0807446161906
20
-14.105898722012839
30
0
10
38.052266057332361
20
-14.08484360376994
30
0
10
38.028202199935919
20
-14.046127661069237
30
0
10
38.015585883458463
20
-14.001064197222394
30
0
0
SPLINE
5
141
100
AcDbEntity
8
0
100
AcDbSpline
70
4
71
3
72
8
73
4
74
0
42
0.000000001
43
0.0000000001
44
0.0000000001
40
0
40
0
40
0
40
0
40
1
40
1
40
1
40
1
41
1
41
1
41
1
41
1
10
38.015585883458463
20
-14.001064197222394
30
0
10
37.997763570149743
20
-13.937407310803733
30
0
10
37.999323956171679
20
-13.918365756670637
30
0
10
38.029899851481126
20
-13.826483647028606
30
0
0
SPLINE
5
142
100
AcDbEntity
8
0
100
AcDbSpline
70
4
71
3
72
8
73
4
74
0
42
0.000000001
43
0.0000000001
44
0.0000000001
40
0
40
0
40
0
40
0
40
1
40
1
40
1
40
1
41
1
41
1
41
1
41
1
10
38.029899851481126
20
-13.826483647028606
30
0
10
38.048775879542035
20
-13.769761697451274
30
0
10
38.099045340220144
20
-13.673763640721642
30
0
10
38.14160976409913
20
-13.613154856363934
30
0
0
SPLINE
5
143
100
AcDbEntity
8
0
100
AcDbSpline
70
4
71
3
72
8
73
4
74
0
42
0.000000001
43
0.0000000001
44
0.0000000001
40
0
40
0
40
0
40
0
40
1
40
1
40
1
40
1
41
1
41
1
41
1
41
1
10
38.14160976409913
20
-13.613154856363934
30
0
10
38.212894980112722
20
-13.511650029818218
30
0
10
38.237299982706709
20
-13.486921040217084
30
0
10
38.346440203984585
20
-13.405613422393801
30
0
0
LINE
5
144
100
AcDbEntity
8
0
100
AcDbLine
10
38.346440203984585
20
-13.405613422393801
30
0
11
38.384563684463508
21
-13.377212580045066
31
0
0
LINE
5
145
100
AcDbEntity
8
0
100
AcDbLine
10
38.384563684463508
20
-13.377212580045066
30
0
11
38.347015508015957
21
-13.3020294268926
31
0
0
SPLINE
5
146
100
AcDbEntity
8
0
100
AcDbSpline
70
4
71
3
72
8
73
4
74
0
42
0.000000001
43
0.0000000001
44
0.0000000001
40
0
40
0
40
0
40
0
40
1
40
1
40
1
40
1
41
1
41
1
41
1
41
1
10
38.347015508015957
20
-13.3020294268926
30
0
10
38.326365121205654
20
-13.260679197311402
30
0
10
38.304539903004972
20
-13.223801199595135
30
0
10
38.298514350255331
20
-13.220077872276308
30
0
0
SPLINE
5
147
100
AcDbEntity
8
0
100
AcDbSpline
70
4
71
3
72
8
73
4
74
0
42
0.000000001
43
0.0000000001
44
0.0000000001
40
0
40
0
40
0
40
0
40
1
40
1
40
1
40
1
41
1
41
1
41
1
41
1
10
38.298514350255331
20
-13.220077872276308
30
0
10
38.266006644566858
20
-13.199985631306967
30
0
10
37.980597305297856
20
-13.278222942352297
30
0
10
37.863857014973959
20
-13.339225355784102
30
0
0
SPLINE
5
148
100
AcDbEntity
8
0
100
AcDbSpline
70
4
71
3
72
8
73
4
74
0
42
0.000000001
43
0.0000000001
44
0.0000000001
40
0
40
0
40
0
40
0
40
1
40
1
40
1
40
1
41
1
41
1
41
1
41
1
10
37.863857014973959
20
-13.339225355784102
30
0
10
37.692222627003993
20
-13.428913235664371
30
0
10
37.631961043675744
20
-13.492354130744937
30
0
10
37.539260387420661
20
-13.680952922503156
30
0
0
SPLINE
5
149
100
AcDbEntity
8
0
100
AcDbSpline
70
4
71
3
72
8
73
4
74
0
42
0.000000001
43
0.0000000001
44
0.0000000001
40
0
40
0
40
0
40
0
40
1
40
1
40
1
40
1
41
1
41
1
41
1
41
1
10
37.539260387420661
20
-13.680952922503156
30
0
10
37.431161769231167
20
-13.90087853272756
30
0
10
37.399929825464888
20
-14.005406228701275
30
0
10
37.368798812230438
20
-14.251468809445702
30
0
0
SPLINE
5
150
100
AcDbEntity
8
0
100
AcDbSpline
70
4
71
3
72
8
73
4
74
0
42
0.000000001
43
0.0000000001
44
0.0000000001
40
0
40
0
40
0
40
0
40
1
40
1
40
1
40
1
41
1
41
1
41
1
41
1
10
37.368798812230438
20
-14.251468809445702
30
0
10
37.341297260920214
20
-14.468831793467205
30
0
10
37.349936914443973
20
-14.638410226504011
30
0
10
37.394465446472175
20
-14.755305949846907
30
0
0
SPLINE
5
151
100
AcDbEntity
8
0
100
AcDbSpline
70
4
71
3
72
8
73
4
74
0
42
0.000000001
43
0.0000000001
44
0.0000000001
40
0
40
0
40
0
40
0
40
1
40
1
40
1
40
1
41
1
41
1
41
1
41
1
10
37.394465446472175
20
-14.755305949846907
30
0
10
37.409764496485401
20
-14.795469236373904
30
0
10
37.41415901184083
20
-14.797166887919111
30
0
10
37.460774787267056
20
-14.780915053685508
30
0
0
SPLINE
5
152
100
AcDbEntity
8
0
100
AcDbSpline
70
4
71
3
72
8
73
4
74
0
42
0.000000001
43
0.0000000001
44
0.0000000001
40
0
40
0
40
0
40
0
40
1
40
1
40
1
40
1
41
1
41
1
41
1
41
1
10
37.460774787267056
20
-14.780915053685508
30
0
10
37.489998213450122
20
-14.77072813510895
30
0
10
37.562248325347902
20
-14.767045180002851
30
0
10
37.635023276011154
20
-14.772033166885379
30
0
0
SPLINE
5
153
100
AcDbEntity
8
0
100
AcDbSpline
70
4
71
3
72
8
73
4
74
0
42
0.000000001
43
0.0000000001
44
0.0000000001
40
0
40
0
40
0
40
0
40
1
40
1
40
1
40
1
41
1
41
1
41
1
41
1
10
37.635023276011154
20
-14.772033166885379
30
0
10
37.788304456075039
20
-14.782540035247804
30
0
10
37.914362653096525
20
-14.837335220972697
30
0
10
37.978467671076459
20
-14.921323553721113
30
0
0
SPLINE
5
154
100
AcDbEntity
8
0
100
AcDbSpline
70
4
71
3
72
8
73
4
74
0
42
0.000000001
43
0.0000000001
44
0.0000000001
40
0
40
0
40
0
40
0
40
1
40
1
40
1
40
1
41
1
41
1
41
1
41
1
10
37.978467671076459
20
-14.921323553721113
30
0
10
38.019514099756883
20
-14.9751033782959
30
0
10
38.022659095128382
20
-14.989482951164248
30
0
10
38.020919052759808
20
-15.115507841110231
30
0
0
SPLINE
5
155
100
AcDbEntity
8
0
100
AcDbSpline
70
4
71
3
72
8
73
4
74
0
42
0.000000001
43
0.0000000001
44
0.0000000001
40
0
40
0
40
0
40
0
40
1
40
1
40
1
40
1
41
1
41
1
41
1
41
1
10
38.020919052759808
20
-15.115507841110231
30
0
10
38.015444580713911
20
-15.512196119626365
30
0
10
38.006120618184418
20
-15.614688046773278
30
0
10
37.968445269266773
20
-15.692255179087322
30
0
0
SPLINE
5
156
100
AcDbEntity
8
0
100
AcDbSpline
70
4
71
3
72
8
73
4
74
0
42
0.000000001
43
0.0000000001
44
0.0000000001
40
0
40
0
40
0
40
0
40
1
40
1
40
1
40
1
41
1
41
1
41
1
41
1
10
37.968445269266773
20
-15.692255179087322
30
0
10
37.926532856623339
20
-15.778545737266542
30
0
10
37.842998711268116
20
-15.854648367563886
30
0
10
37.77533488273621
20
-15.868180123964947
30
0
0
SPLINE
5
157
100
AcDbEntity
8
0
100
AcDbSpline
70
4
71
3
72
8
73
4
74
0
42
0.000000001
43
0.0000000001
44
0.0000000001
40
0
40
0
40
0
40
0
40
1
40
1
40
1
40
1
41
1
41
1
41
1
41
1
10
37.77533488273621
20
-15.868180123964947
30
0
10
37.750041691462208
20
-15.873238762219749
30
0
10
37.729344876607264
20
-15.887156073252362
30
0
10
37.729344876607264
20
-15.899109276135766
30
0
0
SPLINE
5
158
100
AcDbEntity
8
0
100
AcDbSpline
70
4
71
3
72
8
73
4
74
0
42
0.000000001
43
0.0000000001
44
0.0000000001
40
0
40
0
40
0
40
0
40
1
40
1
40
1
40
1
41
1
41
1
41
1
41
1
10
37.729344876607264
20
-15.899109276135766
30
0
10
37.729344876607264
20
-15.953053617477419
30
0
10
37.539524825414027
20
-16.207856782277428
30
0
10
37.471889257431037
20
-16.24470046361288
30
0
0
SPLINE
5
159
100
AcDbEntity
8
0
100
AcDbSpline
70
4
71
3
72
8
73
4
74
0
42
0.000000001
43
0.0000000001
44
0.0000000001
40
0
40
0
40
0
40
0
40
1
40
1
40
1
40
1
41
1
41
1
41
1
41
1
10
37.471889257431037
20
-16.24470046361288
30
0
10
37.43104267120362
20
-16.266949590047204
30
0
10
37.327275991439826
20
-16.194939692815147
30
0
10
37.277301247914643
20
-16.109663486480713
30
0
0
SPLINE
5
160
100
AcDbEntity
8
0
100
AcDbSpline
70
4
71
3
72
8
73
4
74
0
42
0.000000001
43
0.0000000001
44
0.0000000001
40
0
40
0
40
0
40
0
40
1
40
1
40
1
40
1
41
1
41
1
41
1
41
1
10
37.277301247914643
20
-16.109663486480713
30
0
10
37.238374360402432
20
-16.043241103490196
30
0
10
37.232665729522708
20
-16.039592464764915
30
0
10
37.180821752548226
20
-16.048005024592086
30
0
0
SPLINE
5
161
100
AcDbEntity
8
0
100
AcDbSpline
70
4
71
3
72
8
73
4
74
0
42
0.000000001
43
0.0000000001
44
0.0000000001
40
0
40
0
40
0
40
0
40
1
40
1
40
1
40
1
41
1
41
1
41
1
41
1
10
37.180821752548226
20
-16.048005024592086
30
0
10
37.131708955764779
20
-16.055974499384565
30
0
10
37.119780985514332
20
-16.050253756841027
30
0
10
37.071136506398524
20
-15.995318277676901
30
0
0
SPLINE
5
162
100
AcDbEntity
8
0
100
AcDbSpline
70
4
71
3
72
8
73
4
74
0
42
0.000000001
43
0.0000000001
44
0.0000000001
40
0
40
0
40
0
40
0
40
1
40
1
40
1
40
1
41
1
41
1
41
1
41
1
10
37.071136506398524
20
-15.995318277676901
30
0
10
37.009027894337983
20
-15.925187706947328
30
0
10
36.963738346099859
20
-15.818221529324852
30
0
10
36.935600932439179
20
-15.675205993652346
30
0
0
SPLINE
5
163
100
AcDbEntity
8
0
100
AcDbSpline
70
4
71
3
72
8
73
4
74
0
42
0.000000001
43
0.0000000001
44
0.0000000001
40
0
40
0
40
0
40
0
40
1
40
1
40
1
40
1
41
1
41
1
41
1
41
1
10
36.935600932439179
20
-15.675205993652346
30
0
10
36.924950742721563
20
-15.621075940132144
30
0
10
36.908244721094775
20
-15.576986455917361
30
0
10
36.898474645614627
20
-15.577229698499046
30
0
0
SPLINE
5
164
100
AcDbEntity
8
0
100
AcDbSpline
70
4
71
3
72
8
73
4
74
0
42
0.000000001
43
0.0000000001
44
0.0000000001
40
0
40
0
40
0
40
0
40
1
40
1
40
1
40
1
41
1
41
1
41
1
41
1
10
36.898474645614627
20
-15.577229698499046
30
0
10
36.888704570134486
20
-15.577471931775413
30
0
10
36.85267035166423
20
-15.598885353406274
30
0
10
36.818400398890184
20
-15.624816425641379
30
0
0
SPLINE
5
165
100
AcDbEntity
8
0
100
AcDbSpline
70
4
71
3
72
8
73
4
74
0
42
0.000000001
43
0.0000000001
44
0.0000000001
40
0
40
0
40
0
40
0
40
1
40
1
40
1
40
1
41
1
41
1
41
1
41
1
10
36.818400398890184
20
-15.624816425641379
30
0
10
36.739402071634935
20
-15.684589505195621
30
0
10
36.664319849014284
20
-15.686987614631656
30
0
10
36.583849954605107
20
-15.632306480407717
30
0
0
SPLINE
5
166
100
AcDbEntity
8
0
100
AcDbSpline
70
4
71
3
72
8
73
4
74
0
42
0.000000001
43
0.0000000001
44
0.0000000001
40
0
40
0
40
0
40
0
40
1
40
1
40
1
40
1
41
1
41
1
41
1
41
1
10
36.583849954605107
20
-15.632306480407717
30
0
10
36.551752026875818
20
-15.610496401786806
30
0
10
36.522601270675665
20
-15.592650874455771
30
0
10
36.519070720672616
20
-15.592650874455771
30
0
0
SPLINE
5
167
100
AcDbEntity
8
0
100
AcDbSpline
70
4
71
3
72
8
73
4
74
0
42
0.000000001
43
0.0000000001
44
0.0000000001
40
0
40
0
40
0
40
0
40
1
40
1
40
1
40
1
41
1
41
1
41
1
41
1
10
36.519070720672616
20
-15.592650874455771
30
0
10
36.515538152058923
20
-15.592650874455771
30
0
10
36.463409550984707
20
-15.625048565864565
30
0
10
36.403226693471275
20
-15.664645632108055
30
0
0
SPLINE
5
168
100
AcDbEntity
8
0
100
AcDbSpline
70
4
71
3
72
8
73
4
74
0
42
0.000000001
43
0.0000000001
44
0.0000000001
40
0
40
0
40
0
40
0
40
1
40
1
40
1
40
1
41
1
41
1
41
1
41
1
10
36.403226693471275
20
-15.664645632108055
30
0
10
36.235034036636357
20
-15.775308895111086
30
0
10
36.115128564834599
20
-15.79997732639313
30
0
10
35.833413283030197
20
-15.781876444816591
30
0
0
SPLINE
5
169
100
AcDbEntity
8
0
100
AcDbSpline
70
4
71
3
72
8
73
4
74
0
42
0.000000001
43
0.0000000001
44
0.0000000001
40
0
40
0
40
0
40
0
40
1
40
1
40
1
40
1
41
1
41
1
41
1
41
1
10
35.833413283030197
20
-15.781876444816591
30
0
10
35.753627697626754
20
-15.776749173800154
30
0
10
35.729584026336674
20
-15.781627146402997
30
0
10
35.687734190622969
20
-15.811425876617433
30
0
0
SPLINE
5
170
100
AcDbEntity
8
0
100
AcDbSpline
70
4
71
3
72
8
73
4
74
0
42
0.000000001
43
0.0000000001
44
0.0000000001
40
0
40
0
40
0
40
0
40
1
40
1
40
1
40
1
41
1
41
1
41
1
41
1
10
35.687734190622969
20
-15.811425876617433
30
0
10
35.55364999771119
20
-15.906902122497561
30
0
10
35.305185270309451
20
-15.929381370544435
30
0
10
35.097823492685961
20
-15.864797941843671
30
0
0
SPLINE
5
171
100
AcDbEntity
8
0
100
AcDbSpline
70
4
71
3
72
8
73
4
74
0
42
0.000000001
43
0.0000000001
44
0.0000000001
40
0
40
0
40
0
40
0
40
1
40
1
40
1
40
1
41
1
41
1
41
1
41
1
10
35.097823492685961
20
-15.864797941843671
30
0
10
35.033286492029831
20
-15.844697626431785
30
0
10
34.965475304921476
20
-15.818566711743676
30
0
10
34.947132190068572
20
-15.806728569666546
30
0
0
SPLINE
5
172
100
AcDbEntity
8
0
100
AcDbSpline
70
4
71
3
72
8
73
4
74
0
42
0.000000001
43
0.0000000001
44
0.0000000001
40
0
40
0
40
0
40
0
40
1
40
1
40
1
40
1
41
1
41
1
41
1
41
1
10
34.947132190068572
20
-15.806728569666546
30
0
10
34.928789075215661
20
-15.794891436894737
30
0
10
34.85310732523601
20
-15.769936362902326
30
0
10
34.778951644897468
20
-15.751273298263552
30
0
0
SPLINE
5
173
100
AcDbEntity
8
0
100
AcDbSpline
70
4
71
3
72
8
73
4
74
0
42
0.000000001
43
0.0000000001
44
0.0000000001
40
0
40
0
40
0
40
0
40
1
40
1
40
1
40
1
41
1
41
1
41
1
41
1
10
34.778951644897468
20
-15.751273298263552
30
0
10
34.616800689697271
20
-15.71046405633291
30
0
10
34.578800344467169
20
-15.688069589932763
30
0
10
34.564986991882328
20
-15.625176747639976
30
0
0
SPLINE
5
174
100
AcDbEntity
8
0
100
AcDbSpline
70
4
71
3
72
8
73
4
74
0
42
0.000000001
43
0.0000000001
44
0.0000000001
40
0
40
0
40
0
40
0
40
1
40
1
40
1
40
1
41
1
41
1
41
1
41
1
10
34.564986991882328
20
-15.625176747639976
30
0
10
34.552257633209237
20
-15.567224454879762
30
0
10
34.591790103912359
20
-15.420557252566024
30
0
10
34.644792763392132
20
-15.329082902272544
30
0
0
LINE
5
175
100
AcDbEntity
8
0
100
AcDbLine
10
34.644792763392132
20
-15.329082902272544
30
0
11
34.682623545328781
21
-15.26379396915436
31
0
0
LINE
5
176
100
AcDbEntity
8
0
100
AcDbLine
10
34.682623545328781
20
-15.26379396915436
30
0
11
34.512680753072111
21
-15.25277942021688
31
0
0
SPLINE
5
177
100
AcDbEntity
8
0
100
AcDbSpline
70
4
71
3
72
8
73
4
74
0
42
0.000000001
43
0.0000000001
44
0.0000000001
40
0
40
0
40
0
40
0
40
1
40
1
40
1
40
1
41
1
41
1
41
1
41
1
10
34.512680753072111
20
-15.25277942021688
30
0
10
34.392315038045254
20
-15.244976480801903
30
0
10
34.322945483525601
20
-15.232313736279808
30
0
10
34.274890438715623
20
-15.209373235702516
30
0
0
SPLINE
5
178
100
AcDbEntity
8
0
100
AcDbSpline
70
4
71
3
72
8
73
4
74
0
42
0.000000001
43
0.0000000001
44
0.0000000001
40
0
40
0
40
0
40
0
40
1
40
1
40
1
40
1
41
1
41
1
41
1
41
1
10
34.274890438715623
20
-15.209373235702516
30
0
10
34.206774441401173
20
-15.176853418350223
30
0
10
34.160322173436491
20
-15.114400633176171
30
0
10
34.160322173436491
20
-15.055340123176578
30
0
0
SPLINE
5
179
100
AcDbEntity
8
0
100
AcDbSpline
70
4
71
3
72
8
73
4
74
0
42
0.000000001
43
0.0000000001
44
0.0000000001
40
0
40
0
40
0
40
0
40
1
40
1
40
1
40
1
41
1
41
1
41
1
41
1
10
34.160322173436491
20
-15.055340123176578
30
0
10
34.160322173436491
20
-15.03812944889069
30
0
10
34.139274120330818
20
-15.002999567985537
30
0
10
34.113546927769988
20
-14.977273384730022
30
0
0
SPLINE
5
180
100
AcDbEntity
8
0
100
AcDbSpline
70
4
71
3
72
8
73
4
74
0
42
0.000000001
43
0.0000000001
44
0.0000000001
40
0
40
0
40
0
40
0
40
1
40
1
40
1
40
1
41
1
41
1
41
1
41
1
10
34.113546927769988
20
-14.977273384730022
30
0
10
34.050713634490975
20
-14.914440091451011
30
0
10
34.037485678990691
20
-14.855635945002239
30
0
10
34.071836376190191
20
-14.791850876808168
30
0
0
SPLINE
5
181
100
AcDbEntity
8
0
100
AcDbSpline
70
4
71
3
72
8
73
4
74
0
42
0.000000001
43
0.0000000001
44
0.0000000001
40
0
40
0
40
0
40
0
40
1
40
1
40
1
40
1
41
1
41
1
41
1
41
1
10
34.071836376190191
20
-14.791850876808168
30
0
10
34.105722792943325
20
-14.728927755355837
30
0
10
34.216800880432132
20
-14.672677151362103
30
0
10
34.307472832997647
20
-14.672523736953737
30
0
0
SPLINE
5
182
100
AcDbEntity
8
0
100
AcDbSpline
70
4
71
3
72
8
73
4
74
0
42
0.000000001
43
0.0000000001
44
0.0000000001
40
0
40
0
40
0
40
0
40
1
40
1
40
1
40
1
41
1
41
1
41
1
41
1
10
34.307472832997647
20
-14.672523736953737
30
0
10
34.344316514333094
20
-14.672462169329329
30
0
10
34.422963603337614
20
-14.667830467224123
30
0
10
34.482240104675299
20
-14.662231850624085
30
0
0
LINE
5
183
100
AcDbEntity
8
0
100
AcDbLine
10
34.482240104675299
20
-14.662231850624083
30
0
11
34.590017763773602
21
-14.652053006490073
31
0
0
LINE
5
184
100
AcDbEntity
8
0
100
AcDbLine
10
34.590017763773602
20
-14.652053006490073
30
0
11
34.548434384663899
21
-14.608649849891664
31
0
0
SPLINE
5
185
100
AcDbEntity
8
0
100
AcDbSpline
70
4
71
3
72
8
73
4
74
0
42
0.000000001
43
0.0000000001
44
0.0000000001
40
0
40
0
40
0
40
0
40
1
40
1
40
1
40
1
41
1
41
1
41
1
41
1
10
34.548434384663906
20
-14.608649849891664
30
0
10
34.51873860359192
20
-14.577654083569847
30
0
10
34.478858931859342
20
-14.559757081667584
30
0
10
34.408932240804042
20
-14.546044659614566
30
0
0
SPLINE
5
186
100
AcDbEntity
8
0
100
AcDbSpline
70
4
71
3
72
8
73
4
74
0
42
0.000000001
43
0.0000000001
44
0.0000000001
40
0
40
0
40
0
40
0
40
1
40
1
40
1
40
1
41
1
41
1
41
1
41
1
10
34.408932240804042
20
-14.546044659614566
30
0
10
34.267365058263152
20
-14.518284726142884
30
0
10
34.218003972371427
20
-14.493630425135297
30
0
10
34.121778821945192
20
-14.402626411120099
30
0
0
SPLINE
5
187
100
AcDbEntity
8
0
100
AcDbSpline
70
4
71
3
72
8
73
4
74
0
42
0.000000001
43
0.0000000001
44
0.0000000001
40
0
40
0
40
0
40
0
40
1
40
1
40
1
40
1
41
1
41
1
41
1
41
1
10
34.121778821945192
20
-14.402626411120099
30
0
10
34.013867934544891
20
-14.30056949456533
30
0
10
33.828317244847625
20
-14.057453076044721
30
0
10
33.771356089909879
20
-13.943486356735232
30
0
0
SPLINE
5
188
100
AcDbEntity
8
0
100
AcDbSpline
70
4
71
3
72
8
73
4
74
0
42
0.000000001
43
0.0000000001
44
0.0000000001
40
0
40
0
40
0
40
0
40
1
40
1
40
1
40
1
41
1
41
1
41
1
41
1
10
33.771356089909879
20
-13.943486356735232
30
0
10
33.733644406000778
20
-13.868034728368126
30
0
10
33.729817120234181
20
-13.8476104259491
30
0
10
33.741920709609992
20
-13.786361742019654
30
0
0
SPLINE
5
189
100
AcDbEntity
8
0
100
AcDbSpline
70
4
71
3
72
8
73
4
74
0
42
0.000000001
43
0.0000000001
44
0.0000000001
40
0
40
0
40
0
40
0
40
1
40
1
40
1
40
1
41
1
41
1
41
1
41
1
10
33.741920709609992
20
-13.786361742019654
30
0
10
33.751315323511768
20
-13.738811349868776
30
0
10
33.769537321726489
20
-13.705797982215884
30
0
10
33.798062308629355
20
-13.684645970662437
30
0
0
SPLINE
5
190
100
AcDbEntity
8
0
100
AcDbSpline
70
4
71
3
72
8
73
4
74
0
42
0.000000001
43
0.0000000001
44
0.0000000001
40
0
40
0
40
0
40
0
40
1
40
1
40
1
40
1
41
1
41
1
41
1
41
1
10
33.798062308629355
20
-13.684645970662437
30
0
10
33.837142610549932
20
-13.655665787061057
30
0
10
33.848083480199179
20
-13.654799803098046
30
0
10
33.944756762186692
20
-13.673040978113812
30
0
0
SPLINE
5
191
100
AcDbEntity
8
0
100
AcDbSpline
70
4
71
3
72
8
73
4
74
0
42
0.000000001
43
0.0000000001
44
0.0000000001
40
0
40
0
40
0
40
0
40
1
40
1
40
1
40
1
41
1
41
1
41
1
41
1
10
33.944756762186692
20
-13.673040978113812
30
0
10
34.00221247673035
20
-13.683880917231244
30
0
10
34.161658493677784
20
-13.693731737136844
30
0
10
34.299083487192796
20
-13.694927763938907
30
0
0
SPLINE
5
192
100
AcDbEntity
8
0
100
AcDbSpline
70
4
71
3
72
8
73
4
74
0
42
0.000000001
43
0.0000000001
44
0.0000000001
40
0
40
0
40
0
40
0
40
1
40
1
40
1
40
1
41
1
41
1
41
1
41
1
10
34.299083487192796
20
-13.694927763938907
30
0
10
34.585712067286181
20
-13.697414692242942
30
0
10
34.641145133972174
20
-13.714461859067285
30
0
10
34.769976902008061
20
-13.8396732489268
30
0
0
SPLINE
5
193
100
AcDbEntity
8
0
100
AcDbSpline
70
4
71
3
72
8
73
4
74
0
42
0.000000001
43
0.0000000001
44
0.0000000001
40
0
40
0
40
0
40
0
40
1
40
1
40
1
40
1
41
1
41
1
41
1
41
1
10
34.769976902008061
20
-13.8396732489268
30
0
10
34.842394558588666
20
-13.910055136680606
30
0
10
34.866048638025923
20
-13.966381438573203
30
0
10
34.889963118235279
20
-14.12538638909658
30
0
0
SPLINE
5
194
100
AcDbEntity
8
0
100
AcDbSpline
70
4
71
3
72
8
73
4
74
0
42
0.000000001
43
0.0000000001
44
0.0000000001
40
0
40
0
40
0
40
0
40
1
40
1
40
1
40
1
41
1
41
1
41
1
41
1
10
34.889963118235279
20
-14.12538638909658
30
0
10
34.901757860183722
20
-14.203816477457686
30
0
10
34.901915311813362
20
-14.20399209658305
30
0
10
34.903871345520024
20
-14.141248631477358
30
0
0
SPLINE
5
195
100
AcDbEntity
8
0
100
AcDbSpline
70
4
71
3
72
8
73
4
74
0
42
0.000000001
43
0.0000000001
44
0.0000000001
40
0
40
0
40
0
40
0
40
1
40
1
40
1
40
1
41
1
41
1
41
1
41
1
10
34.903871345520024
20
-14.141248631477358
30
0
10
34.904955339431766
20
-14.10635190010071
30
0
10
34.916558313369762
20
-14.02185184955597
30
0
10
34.929644966125494
20
-13.953471414248151
30
0
0
SPLINE
5
196
100
AcDbEntity
8
0
100
AcDbSpline
70
4
71
3
72
8
73
4
74
0
42
0.000000001
43
0.0000000001
44
0.0000000001
40
0
40
0
40
0
40
0
40
1
40
1
40
1
40
1
41
1
41
1
41
1
41
1
10
34.929644966125494
20
-13.953471414248151
30
0
10
34.942729600270596
20
-13.885090978940331
30
0
10
34.953436311086023
20
-13.826042580604556
30
0
10
34.953436311086023
20
-13.822252639134726
30
0
0
SPLINE
5
197
100
AcDbEntity
8
0
100
AcDbSpline
70
4
71
3
72
8
73
4
74
0
42
0.000000001
43
0.0000000001
44
0.0000000001
40
0
40
0
40
0
40
0
40
1
40
1
40
1
40
1
41
1
41
1
41
1
41
1
10
34.953436311086023
20
-13.822252639134726
30
0
10
34.953436311086023
20
-13.798929611841839
30
0
10
35.089815664291386
20
-13.67331046263377
30
0
10
35.115137116114305
20
-13.67331046263377
30
0
0
SPLINE
5
198
100
AcDbEntity
8
0
100
AcDbSpline
70
4
71
3
72
8
73
4
74
0
42
0.000000001
43
0.0000000001
44
0.0000000001
40
0
40
0
40
0
40
0
40
1
40
1
40
1
40
1
41
1
41
1
41
1
41
1
10
35.115137116114305
20
-13.67331046263377
30
0
10
35.171811628341686
20
-13.67331046263377
30
0
10
35.251556841532398
20
-13.75047286351522
30
0
10
35.278398307164515
20
-13.831286931037905
30
0
0
SPLINE
5
199
100
AcDbEntity
8
0
100
AcDbSpline
70
4
71
3
72
8
73
4
74
0
42
0.000000001
43
0.0000000001
44
0.0000000001
40
0
40
0
40
0
40
0
40
1
40
1
40
1
40
1
41
1
41
1
41
1
41
1
10
35.278398307164515
20
-13.831286931037905
30
0
10
35.312498696645108
20
-13.933953468004866
30
0
10
35.348785241444915
20
-13.963610895474755
30
0
10
35.44442297617595
20
-13.966975919405622
30
0
0
SPLINE
5
200
100
AcDbEntity
8
0
100
AcDbSpline
70
4
71
3
72
8
73
4
74
0
42
0.000000001
43
0.0000000001
44
0.0000000001
40
0
40
0
40
0
40
0
40
1
40
1
40
1
40
1
41
1
41
1
41
1
41
1
10
35.44442297617595
20
-13.966975919405622
30
0
10
35.534341986974084
20
-13.970140091578166
30
0
10
35.592314465840658
20
-14.00270028114319
30
0
10
35.636213191350308
20
-14.074695038795472
30
0
0
SPLINE
5
201
100
AcDbEntity
8
0
100
AcDbSpline
70
4
71
3
72
8
73
4
74
0
42
0.000000001
43
0.0000000001
44
0.0000000001
40
0
40
0
40
0
40
0
40
1
40
1
40
1
40
1
41
1
41
1
41
1
41
1
10
35.636213191350308
20
-14.074695038795472
30
0
10
35.683977556228641
20
-14.153030252456666
30
0
10
35.679639561971037
20
-14.368079908688864
30
0
10
35.62727276484172
20
-14.517964776357017
30
0
0
SPLINE
5
202
100
AcDbEntity
8
0
100
AcDbSpline
70
4
71
3
72
8
73
4
74
0
42
0.000000001
43
0.0000000001
44
0.0000000001
40
0
40
0
40
0
40
0
40
1
40
1
40
1
40
1
41
1
41
1
41
1
41
1
10
35.62727276484172
20
-14.517964776357017
30
0
10
35.605292113622035
20
-14.58088083267212
30
0
10
35.569173113505052
20
-14.659759052594506
30
0
10
35.547008768717454
20
-14.693249821662906
30
0
0
SPLINE
5
203
100
AcDbEntity
8
0
100
AcDbSpline
70
4
71
3
72
8
73
4
74
0
42
0.000000001
43
0.0000000001
44
0.0000000001
40
0
40
0
40
0
40
0
40
1
40
1
40
1
40
1
41
1
41
1
41
1
41
1
10
35.547008768717454
20
-14.693249821662906
30
0
10
35.524844423929856
20
-14.726740590731303
30
0
10
35.509004386266078
20
-14.766043949127198
30
0
10
35.511806217829395
20
-14.780591066678369
30
0
0
SPLINE
5
204
100
AcDbEntity
8
0
100
AcDbSpline
70
4
71
3
72
8
73
4
74
0
42
0.000000001
43
0.0000000001
44
0.0000000001
40
0
40
0
40
0
40
0
40
1
40
1
40
1
40
1
41
1
41
1
41
1
41
1
10
35.511806217829395
20
-14.780591066678369
30
0
10
35.518619028727223
20
-14.815970245997113
30
0
10
35.623070017496751
20
-14.871874658266705
30
0
10
35.738562806447348
20
-14.901957003275557
30
0
0
SPLINE
5
205
100
AcDbEntity
8
0
100
AcDbSpline
70
4
71
3
72
8
73
4
74
0
42
0.000000001
43
0.0000000001
44
0.0000000001
40
0
40
0
40
0
40
0
40
1
40
1
40
1
40
1
41
1
41
1
41
1
41
1
10
35.738562806447348
20
-14.901957003275557
30
0
10
35.858010053634651
20
-14.933068839708968
30
0
10
36.061483987172451
20
-14.935055152575176
30
0
10
36.072931528091438
20
-14.90522210597992
30
0
0
SPLINE
5
206
100
AcDbEntity
8
0
100
AcDbSpline
70
4
71
3
72
8
73
4
74
0
42
0.000000001
43
0.0000000001
44
0.0000000001
40
0
40
0
40
0
40
0
40
1
40
1
40
1
40
1
41
1
41
1
41
1
41
1
10
36.072931528091438
20
-14.90522210597992
30
0
10
36.088200298945111
20
-14.865432262420658
30
0
10
36.295529778798425
20
-14.70750121275584
30
0
10
36.40583070119223
20
-14.651637172698976
30
0
0
SPLINE
5
207
100
AcDbEntity
8
0
100
AcDbSpline
70
4
71
3
72
8
73
4
74
0
42
0.000000001
43
0.0000000001
44
0.0000000001
40
0
40
0
40
0
40
0
40
1
40
1
40
1
40
1
41
1
41
1
41
1
41
1
10
36.40583070119223
20
-14.651637172698976
30
0
10
36.516930993398034
20
-14.595369410514834
30
0
10
36.64077881177267
20
-14.564607803026837
30
0
10
36.784711805979413
20
-14.557528535525005
30
0
0
LINE
5
208
100
AcDbEntity
8
0
100
AcDbLine
10
36.784711805979413
20
-14.557528535525003
30
0
11
36.863203461964929
21
-14.553667942682903
31
0
0
LINE
5
209
100
AcDbEntity
8
0
100
AcDbLine
10
36.863203461964929
20
-14.553667942682903
30
0
11
36.938118139902755
21
-14.42865639527639
31
0
0
SPLINE
5
210
100
AcDbEntity
8
0
100
AcDbSpline
70
4
71
3
72
8
73
4
74
0
42
0.000000001
43
0.0000000001
44
0.0000000001
40
0
40
0
40
0
40
0
40
1
40
1
40
1
40
1
41
1
41
1
41
1
41
1
10
36.938118139902755
20
-14.42865639527639
30
0
10
37.007356484731048
20
-14.313118187586468
30
0
10
37.013805945714317
20
-14.293284328778586
30
0
10
37.02324295043946
20
-14.166928386688234
30
0
0
SPLINE
5
211
100
AcDbEntity
8
0
100
AcDbSpline
70
4
71
3
72
8
73
4
74
0
42
0.000000001
43
0.0000000001
44
0.0000000001
40
0
40
0
40
0
40
0
40
1
40
1
40
1
40
1
41
1
41
1
41
1
41
1
10
37.02324295043946
20
-14.166928386688234
30
0
10
37.040179093678802
20
-13.940175835291546
30
0
10
37.154214445749922
20
-13.526279910405478
30
0
10
37.24531838099162
20
-13.360915327072146
30
0
0
LINE
5
212
100
AcDbEntity
8
0
100
AcDbLine
10
37.24531838099162
20
-13.360915327072146
30
0
11
37.281970294316615
21
-13.294385957717896
31
0
0
LINE
5
213
100
AcDbEntity
8
0
100
AcDbLine
10
37.281970294316615
20
-13.294385957717896
30
0
11
37.14478753407797
21
-13.303075067202252
31
0
0
SPLINE
5
214
100
AcDbEntity
8
0
100
AcDbSpline
70
4
71
3
72
8
73
4
74
0
42
0.000000001
43
0.0000000001
44
0.0000000001
40
0
40
0
40
0
40
0
40
1
40
1
40
1
40
1
41
1
41
1
41
1
41
1
10
37.14478753407797
20
-13.303075067202252
30
0
10
37.024084711074835
20
-13.310721564292908
30
0
10
36.797645044326785
20
-13.346592275301617
30
0
10
36.784009329477954
20
-13.360227990150452
30
0
0
SPLINE
5
215
100
AcDbEntity
8
0
100
AcDbSpline
70
4
71
3
72
8
73
4
74
0
42
0.000000001
43
0.0000000001
44
0.0000000001
40
0
40
0
40
0
40
0
40
1
40
1
40
1
40
1
41
1
41
1
41
1
41
1
10
36.784009329477954
20
-13.360227990150452
30
0
10
36.781298335393274
20
-13.362939993540447
30
0
10
36.796593348185226
20
-13.413401222229007
30
0
10
36.817996676762903
20
-13.472367866834007
30
0
0
SPLINE
5
216
100
AcDbEntity
8
0
100
AcDbSpline
70
4
71
3
72
8
73
4
74
0
42
0.000000001
43
0.0000000001
44
0.0000000001
40
0
40
0
40
0
40
0
40
1
40
1
40
1
40
1
41
1
41
1
41
1
41
1
10
36.817996676762903
20
-13.472367866834007
30
0
10
36.84566577275595
20
-13.548597669601444
30
0
10
36.856911452611293
20
-13.612310067812603
30
0
10
36.856911452611293
20
-13.692846576372784
30
0
0
SPLINE
5
217
100
AcDbEntity
8
0
100
AcDbSpline
70
4
71
3
72
8
73
4
74
0
42
0.000000001
43
0.0000000001
44
0.0000000001
40
0
40
0
40
0
40
0
40
1
40
1
40
1
40
1
41
1
41
1
41
1
41
1
10
36.856911452611293
20
-13.692846576372784
30
0
10
36.856911452611293
20
-13.805811055501305
30
0
10
36.81261506080628
20
-14.001746487617496
30
0
10
36.766988404591885
20
-14.090598662694298
30
0
0
SPLINE
5
218
100
AcDbEntity
8
0
100
AcDbSpline
70
4
71
3
72
8
73
4
74
0
42
0.000000001
43
0.0000000001
44
0.0000000001
40
0
40
0
40
0
40
0
40
1
40
1
40
1
40
1
41
1
41
1
41
1
41
1
10
36.766988404591885
20
-14.090598662694298
30
0
10
36.71884252230327
20
-14.184357070922854
30
0
10
36.521850347518928
20
-14.266078503926598
30
0
10
36.427827501297003
20
-14.23129784266154
30
0
0
SPLINE
5
219
100
AcDbEntity
8
0
100
AcDbSpline
70
4
71
3
72
8
73
4
74
0
42
0.000000001
43
0.0000000001
44
0.0000000001
40
0
40
0
40
0
40
0
40
1
40
1
40
1
40
1
41
1
41
1
41
1
41
1
10
36.427827501297003
20
-14.23129784266154
30
0
10
36.396928628285735
20
-14.219867459932964
30
0
10
36.374136495590214
20
-14.227422110239667
30
0
10
36.308985837300625
20
-14.2706768989563
30
0
0
SPLINE
5
220
100
AcDbEntity
8
0
100
AcDbSpline
70
4
71
3
72
8
73
4
74
0
42
0.000000001
43
0.0000000001
44
0.0000000001
40
0
40
0
40
0
40
0
40
1
40
1
40
1
40
1
41
1
41
1
41
1
41
1
10
36.308985837300625
20
-14.2706768989563
30
0
10
36.212897952397668
20
-14.334476097424826
30
0
10
36.039973672231042
20
-14.387112379074098
30
0
10
35.926465177536016
20
-14.387112379074098
30
0
0
LINE
5
221
100
AcDbEntity
8
0
100
AcDbLine
10
35.926465177536016
20
-14.387112379074098
30
0
11
35.844556013743087
21
-14.387112379074098
31
0
0
LINE
5
222
100
AcDbEntity
8
0
100
AcDbLine
10
35.844556013743087
20
-14.387112379074098
30
0
11
35.807451931635541
21
-14.311769755681357
31
0
0
SPLINE
5
223
100
AcDbEntity
8
0
100
AcDbSpline
70
4
71
3
72
8
73
4
74
0
42
0.000000001
43
0.0000000001
44
0.0000000001
40
0
40
0
40
0
40
0
40
1
40
1
40
1
40
1
41
1
41
1
41
1
41
1
10
35.807451931635541
20
-14.311769755681357
30
0
10
35.721558030446374
20
-14.137351703643802
30
0
10
35.768470541636155
20
-13.665636714299524
30
0
10
35.881203889846809
20
-13.570206896464033
30
0
0
SPLINE
5
224
100
AcDbEntity
8
0
100
AcDbSpline
70
4
71
3
72
8
73
4
74
0
42
0.000000001
43
0.0000000001
44
0.0000000001
40
0
40
0
40
0
40
0
40
1
40
1
40
1
40
1
41
1
41
1
41
1
41
1
10
35.881203889846809
20
-13.570206896464033
30
0
10
35.891508897145592
20
-13.561483470598859
30
0
10
35.927353366216025
20
-13.519961659113569
30
0
10
35.960858265558883
20
-13.477938222885133
30
0
0
SPLINE
5
225
100
AcDbEntity
8
0
100
AcDbSpline
70
4
71
3
72
8
73
4
74
0
42
0.000000001
43
0.0000000001
44
0.0000000001
40
0
40
0
40
0
40
0
40
1
40
1
40
1
40
1
41
1
41
1
41
1
41
1
10
35.960858265558883
20
-13.477938222885133
30
0
10
36.018521896998095
20
-13.405610394477847
30
0
10
36.317518504460658
20
-13.165718706448875
30
0
10
36.350001986821503
20
-13.165718706448875
30
0
0
SPLINE
5
226
100
AcDbEntity
8
0
100
AcDbSpline
70
4
71
3
72
8
73
4
74
0
42
0.000000001
43
0.0000000001
44
0.0000000001
40
0
40
0
40
0
40
0
40
1
40
1
40
1
40
1
41
1
41
1
41
1
41
1
10
36.350001986821503
20
-13.165718706448875
30
0
10
36.38521261215211
20
-13.165718706448875
30
0
10
36.360817702611293
20
-13.13684248129527
30
0
10
36.303937292099008
20
-13.11119300524394
30
0
0
SPLINE
5
227
100
AcDbEntity
8
0
100
AcDbSpline
70
4
71
3
72
8
73
4
74
0
42
0.000000001
43
0.0000000001
44
0.0000000001
40
0
40
0
40
0
40
0
40
1
40
1
40
1
40
1
41
1
41
1
41
1
41
1
10
36.303937292099008
20
-13.11119300524394
30
0
10
36.206339486440029
20
-13.067182246843975
30
0
10
36.089928229649864
20
-13.089137665430705
30
0
10
35.878355630238858
20
-13.191450945536298
30
0
0
SPLINE
5
228
100
AcDbEntity
8
0
100
AcDbSpline
70
4
71
3
72
8
73
4
74
0
42
0.000000001
43
0.0000000001
44
0.0000000001
40
0
40
0
40
0
40
0
40
1
40
1
40
1
40
1
41
1
41
1
41
1
41
1
10
35.878355630238858
20
-13.191450945536298
30
0
10
35.678244702021289
20
-13.288223139444987
30
0
10
35.530728673934945
20
-13.318326679865521
30
0
10
35.379282410939538
20
-13.293296917279562
30
0
0
SPLINE
5
229
100
AcDbEntity
8
0
100
AcDbSpline
70
4
71
3
72
8
73
4
74
0
42
0.000000001
43
0.0000000001
44
0.0000000001
40
0
40
0
40
0
40
0
40
1
40
1
40
1
40
1
41
1
41
1
41
1
41
1
10
35.379282410939538
20
-13.293296917279562
30
0
10
35.251940377553311
20
-13.272248864173889
30
0
10
35.243359263738
20
-13.266212209065758
30
0
10
35.231867313385017
20
-13.189569600423178
30
0
0
SPLINE
5
230
100
AcDbEntity
8
0
100
AcDbSpline
70
4
71
3
72
8
73
4
74
0
42
0.000000001
43
0.0000000001
44
0.0000000001
40
0
40
0
40
0
40
0
40
1
40
1
40
1
40
1
41
1
41
1
41
1
41
1
10
35.231867313385017
20
-13.189569600423178
30
0
10
35.221885283788048
20
-13.123004905382793
30
0
10
35.217391856511441
20
-13.118298514684044
30
0
10
35.113378906250006
20
-13.065457344055178
30
0
0
SPLINE
5
231
100
AcDbEntity
8
0
100
AcDbSpline
70
4
71
3
72
8
73
4
74
0
42
0.000000001
43
0.0000000001
44
0.0000000001
40
0
40
0
40
0
40
0
40
1
40
1
40
1
40
1
41
1
41
1
41
1
41
1
10
35.113378906250006
20
-13.065457344055178
30
0
10
34.966539112726849
20
-12.990858578681948
30
0
10
34.793215147654223
20
-12.862131778399151
30
0
10
34.757580614089974
20
-12.801204053560895
30
0
0
SPLINE
5
232
100
AcDbEntity
8
0
100
AcDbSpline
70
4
71
3
72
8
73
4
74
0
42
0.000000001
43
0.0000000001
44
0.0000000001
40
0
40
0
40
0
40
0
40
1
40
1
40
1
40
1
41
1
41
1
41
1
41
1
10
34.757580614089974
20
-12.801204053560895
30
0
10
34.741462008158372
20
-12.77364799976349
30
0
10
34.730755297342945
20
-12.749583133061728
30
0
10
34.733787250518809
20
-12.747727020581564
30
0
0
SPLINE
5
233
100
AcDbEntity
8
0
100
AcDbSpline
70
4
71
3
72
8
73
4
74
0
42
0.000000001
43
0.0000000001
44
0.0000000001
40
0
40
0
40
0
40
0
40
1
40
1
40
1
40
1
41
1
41
1
41
1
41
1
10
34.733787250518809
20
-12.747727020581564
30
0
10
34.88120234807333
20
-12.657446678479513
30
0
10
35.146825265884402
20
-12.605642064412436
30
0
10
35.416731675465904
20
-12.614532025655112
30
0
0
SPLINE
5
234
100
AcDbEntity
8
0
100
AcDbSpline
70
4
71
3
72
8
73
4
74
0
42
0.000000001
43
0.0000000001
44
0.0000000001
40
0
40
0
40
0
40
0
40
1
40
1
40
1
40
1
41
1
41
1
41
1
41
1
10
35.416731675465904
20
-12.614532025655112
30
0
10
35.527591753005993
20
-12.618183692296348
30
0
10
35.614612038930261
20
-12.615220371882124
30
0
10
35.61010851860047
20
-12.607923094431561
30
0
0
SPLINE
5
235
100
AcDbEntity
8
0
100
AcDbSpline
70
4
71
3
72
8
73
4
74
0
42
0.000000001
43
0.0000000001
44
0.0000000001
40
0
40
0
40
0
40
0
40
1
40
1
40
1
40
1
41
1
41
1
41
1
41
1
10
35.61010851860047
20
-12.607923094431561
30
0
10
35.605604998270678
20
-12.6006369193395
30
0
10
35.586282857259121
20
-12.594508417447409
30
0
10
35.567166614532475
20
-12.594302519162497
30
0
0
SPLINE
5
236
100
AcDbEntity
8
0
100
AcDbSpline
70
4
71
3
72
8
73
4
74
0
42
0.000000001
43
0.0000000001
44
0.0000000001
40
0
40
0
40
0
40
0
40
1
40
1
40
1
40
1
41
1
41
1
41
1
41
1
10
35.567166614532475
20
-12.594302519162497
30
0
10
35.509500964482626
20
-12.593693908055625
30
0
10
35.299811728795376
20
-12.533171923955283
30
0
10
35.256076510747278
20
-12.504530866940817
30
0
0
SPLINE
5
237
100
AcDbEntity
8
0
100
AcDbSpline
70
4
71
3
72
8
73
4
74
0
42
0.000000001
43
0.0000000001
44
0.0000000001
40
0
40
0
40
0
40
0
40
1
40
1
40
1
40
1
41
1
41
1
41
1
41
1
10
35.256076510747278
20
-12.504530866940817
30
0
10
35.162019348144533
20
-12.442933972676597
30
0
10
35.051040172576911
20
-12.311705104509992
30
0
10
34.996247005462649
20
-12.197295300165813
30
0
0
SPLINE
5
238
100
AcDbEntity
8
0
100
AcDbSpline
70
4
71
3
72
8
73
4
74
0
42
0.000000001
43
0.0000000001
44
0.0000000001
40
0
40
0
40
0
40
0
40
1
40
1
40
1
40
1
41
1
41
1
41
1
41
1
10
34.996247005462649
20
-12.197295300165813
30
0
10
34.908911816279101
20
-12.01493300596873
30
0
10
34.871414105097458
20
-11.855008578300479
30
0
10
34.862546348571783
20
-11.62707614898682
30
0
0
SPLINE
5
239
100
AcDbEntity
8
0
100
AcDbSpline
70
4
71
3
72
8
73
4
74
0
42
0.000000001
43
0.0000000001
44
0.0000000001
40
0
40
0
40
0
40
0
40
1
40
1
40
1
40
1
41
1
41
1
41
1
41
1
10
34.862546348571783
20
-11.62707614898682
30
0
10
34.853914769490565
20
-11.40525405406952
30
0
10
34.871632115046189
20
-11.304909928639733
30
0
10
34.92440869013469
20
-11.27666451931
30
0
0
SPLINE
5
240
100
AcDbEntity
8
0
100
AcDbSpline
70
4
71
3
72
8
73
4
74
0
42
0.000000001
43
0.0000000001
44
0.0000000001
40
0
40
0
40
0
40
0
40
1
40
1
40
1
40
1
41
1
41
1
41
1
41
1
10
34.92440869013469
20
-11.27666451931
30
0
10
34.992482296625781
20
-11.240232634544373
30
0
10
35.142773914337162
20
-11.266258581479391
30
0
10
35.289262469609582
20
-11.339850060145062
30
0
0
LINE
5
241
100
AcDbEntity
8
0
100
AcDbLine
10
35.289262469609589
20
-11.339850060145062
30
0
11
35.4258497397105
21
-11.408465663592022
31
0
0
LINE
5
242
100
AcDbEntity
8
0
100
AcDbLine
10
35.4258497397105
20
-11.408465663592022
30
0
11
35.459306192398081
21
-11.375010220209758
31
0
0
SPLINE
5
243
100
AcDbEntity
8
0
100
AcDbSpline
70
4
71
3
72
8
73
4
74
0
42
0.000000001
43
0.0000000001
44
0.0000000001
40
0
40
0
40
0
40
0
40
1
40
1
40
1
40
1
41
1
41
1
41
1
41
1
10
35.459306192398074
20
-11.375010220209758
30
0
10
35.49930899937948
20
-11.335006403923035
30
0
10
35.555870469411218
20
-11.332377163569134
30
0
10
35.629081439971927
20
-11.367117452621462
30
0
0
SPLINE
5
244
100
AcDbEntity
8
0
100
AcDbSpline
70
4
71
3
72
8
73
4
74
0
42
0.000000001
43
0.0000000001
44
0.0000000001
40
0
40
0
40
0
40
0
40
1
40
1
40
1
40
1
41
1
41
1
41
1
41
1
10
35.629081439971927
20
-11.367117452621462
30
0
10
35.709993410110478
20
-11.40551243623098
30
0
10
35.890047423044848
20
-11.591351787249248
30
0
10
35.951681661605839
20
-11.700082230567935
30
0
0
LINE
5
245
100
AcDbEntity
8
0
100
AcDbLine
10
35.951681661605839
20
-11.700082230567935
30
0
11
36.006113497416187
21
-11.796105519930524
31
0
0
LINE
5
246
100
AcDbEntity
8
0
100
AcDbLine
10
36.006113497416187
20
-11.796105519930524
30
0
11
36.051610962549852
21
-11.744285766283673
31
0
0
SPLINE
5
247
100
AcDbEntity
8
0
100
AcDbSpline
70
4
71
3
72
8
73
4
74
0
42
0.000000001
43
0.0000000001
44
0.0000000001
40
0
40
0
40
0
40
0
40
1
40
1
40
1
40
1
41
1
41
1
41
1
41
1
10
36.051610962549852
20
-11.744285766283673
30
0
10
36.145544989903776
20
-11.637299402554833
30
0
10
36.34071637789409
20
-11.543956828117372
30
0
10
36.311547454198212
20
-11.619967611630759
30
0
0
SPLINE
5
248
100
AcDbEntity
8
0
100
AcDbSpline
70
4
71
3
72
8
73
4
74
0
42
0.000000001
43
0.0000000001
44
0.0000000001
40
0
40
0
40
0
40
0
40
1
40
1
40
1
40
1
41
1
41
1
41
1
41
1
10
36.311547454198212
20
-11.619967611630759
30
0
10
36.305772209167486
20
-11.635017363230389
30
0
10
36.308650747934983
20
-11.640536244710288
30
0
10
36.318955755233773
20
-11.634167528152467
30
0
0
SPLINE
5
249
100
AcDbEntity
8
0
100
AcDbSpline
70
4
71
3
72
8
73
4
74
0
42
0.000000001
43
0.0000000001
44
0.0000000001
40
0
40
0
40
0
40
0
40
1
40
1
40
1
40
1
41
1
41
1
41
1
41
1
10
36.318955755233773
20
-11.634167528152467
30
0
10
36.328227233886722
20
-11.628439720471702
30
0
10
36.353843402862552
20
-11.640559458732607
30
0
10
36.375882593790699
20
-11.661102859179181
30
0
0
SPLINE
5
250
100
AcDbEntity
8
0
100
AcDbSpline
70
4
71
3
72
8
73
4
74
0
42
0.000000001
43
0.0000000001
44
0.0000000001
40
0
40
0
40
0
40
0
40
1
40
1
40
1
40
1
41
1
41
1
41
1
41
1
10
36.375882593790699
20
-11.661102859179181
30
0
10
36.419876194000253
20
-11.702111943562826
30
0
10
36.515328216552739
20
-11.878779737154645
30
0
10
36.501149495442718
20
-11.892957448959351
30
0
0
SPLINE
5
251
100
AcDbEntity
8
0
100
AcDbSpline
70
4
71
3
72
8
73
4
74
0
42
0.000000001
43
0.0000000001
44
0.0000000001
40
0
40
0
40
0
40
0
40
1
40
1
40
1
40
1
41
1
41
1
41
1
41
1
10
36.501149495442718
20
-11.892957448959351
30
0
10
36.496268494923918
20
-11.897839458783469
30
0
10
36.508291339874276
20
-11.909607958793643
30
0
10
36.527869844436651
20
-11.919111577669781
30
0
0
SPLINE
5
252
100
AcDbEntity
8
0
100
AcDbSpline
70
4
71
3
72
8
73
4
74
0
42
0.000000001
43
0.0000000001
44
0.0000000001
40
0
40
0
40
0
40
0
40
1
40
1
40
1
40
1
41
1
41
1
41
1
41
1
10
36.527869844436651
20
-11.919111577669781
30
0
10
36.583343283335374
20
-11.946037824948629
30
0
10
36.639135662714651
20
-12.074210516611735
30
0
10
36.638249492645272
20
-12.17269449234009
30
0
0
SPLINE
5
253
100
AcDbEntity
8
0
100
AcDbSpline
70
4
71
3
72
8
73
4
74
0
42
0.000000001
43
0.0000000001
44
0.0000000001
40
0
40
0
40
0
40
0
40
1
40
1
40
1
40
1
41
1
41
1
41
1
41
1
10
36.638249492645272
20
-12.17269449234009
30
0
10
36.637349192301436
20
-12.27182341416677
30
0
10
36.534153779347747
20
-12.585516516367596
30
0
10
36.467902978261321
20
-12.690464083353682
30
0
0
SPLINE
5
254
100
AcDbEntity
8
0
100
AcDbSpline
70
4
71
3
72
8
73
4
74
0
42
0.000000001
43
0.0000000001
44
0.0000000001
40
0
40
0
40
0
40
0
40
1
40
1
40
1
40
1
41
1
41
1
41
1
41
1
10
36.467902978261321
20
-12.690464083353682
30
0
10
36.436721499760949
20
-12.739859485626221
30
0
10
36.428804508845019
20
-12.765882404645286
30
0
10
36.439702987670906
20
-12.783159693082176
30
0
0
SPLINE
5
255
100
AcDbEntity
8
0
100
AcDbSpline
70
4
71
3
72
8
73
4
74
0
42
0.000000001
43
0.0000000001
44
0.0000000001
40
0
40
0
40
0
40
0
40
1
40
1
40
1
40
1
41
1
41
1
41
1
41
1
10
36.439702987670906
20
-12.783159693082176
30
0
10
36.467689005533856
20
-12.827526736259463
30
0
10
36.717570797602342
20
-12.94130370616913
30
0
10
36.832928339640304
20
-12.962203391393029
30
0
0
SPLINE
5
256
100
AcDbEntity
8
0
100
AcDbSpline
70
4
71
3
72
8
73
4
74
0
42
0.000000001
43
0.0000000001
44
0.0000000001
40
0
40
0
40
0
40
0
40
1
40
1
40
1
40
1
41
1
41
1
41
1
41
1
10
36.832928339640304
20
-12.962203391393029
30
0
10
37.010927406946827
20
-12.994452714920046
30
0
10
37.381590747833258
20
-12.987745881080631
30
0
10
37.51520460446676
20
-12.949860596656801
30
0
0
LINE
5
257
100
AcDbEntity
8
0
100
AcDbLine
10
37.51520460446676
20
-12.949860596656803
30
0
11
37.626240301132206
21
-12.918375317255657
31
0
0
LINE
5
258
100
AcDbEntity
8
0
100
AcDbLine
10
37.626240301132206
20
-12.918375317255657
30
0
11
37.620927317937223
21
-12.829748217264811
31
0
0
SPLINE
5
259
100
AcDbEntity
8
0
100
AcDbSpline
70
4
71
3
72
8
73
4
74
0
42
0.000000001
43
0.0000000001
44
0.0000000001
40
0
40
0
40
0
40
0
40
1
40
1
40
1
40
1
41
1
41
1
41
1
41
1
10
37.620927317937223
20
-12.829748217264815
30
0
10
37.616262308756518
20
-12.751938851674399
30
0
10
37.620081520080568
20
-12.73799227078756
30
0
10
37.652215782801321
20
-12.715484762191773
30
0
0
SPLINE
5
260
100
AcDbEntity
8
0
100
AcDbSpline
70
4
71
3
72
8
73
4
74
0
42
0.000000001
43
0.0000000001
44
0.0000000001
40
0
40
0
40
0
40
0
40
1
40
1
40
1
40
1
41
1
41
1
41
1
41
1
10
37.652215782801321
20
-12.715484762191773
30
0
10
37.731438175837205
20
-12.65999517440796
30
0
10
37.945423014958706
20
-12.7072215795517
30
0
10
38.056440544128421
20
-12.804698268572492
30
0
0
LINE
5
261
100
AcDbEntity
8
0
100
AcDbLine
10
38.056440544128421
20
-12.804698268572492
30
0
11
38.11127812067668
21
-12.852846169471743
31
0
0
LINE
5
262
100
AcDbEntity
8
0
100
AcDbLine
10
38.11127812067668
20
-12.852846169471743
30
0
11
38.345568164189665
21
-12.841694355010988
31
0
0
SPLINE
5
263
100
AcDbEntity
8
0
100
AcDbSpline
70
4
71
3
72
8
73
4
74
0
42
0.000000001
43
0.0000000001
44
0.0000000001
40
0
40
0
40
0
40
0
40
1
40
1
40
1
40
1
41
1
41
1
41
1
41
1
10
38.345568164189665
20
-12.841694355010988
30
0
10
38.474426174163824
20
-12.835561815897625
30
0
10
38.618668015797944
20
-12.821925091743472
30
0
10
38.666103347142538
20
-12.811389962832136
30
0
0
LINE
5
264
100
AcDbEntity
8
0
100
AcDbLine
10
38.666103347142545
20
-12.811389962832136
30
0
11
38.752350505193078
21
-12.792236375808718
31
0
0
LINE
5
265
100
AcDbEntity
8
0
100
AcDbLine
10
38.752350505193078
20
-12.792236375808718
30
0
11
38.606267690658576
21
-12.670651419957482
31
0
0
SPLINE
5
266
100
AcDbEntity
8
0
100
AcDbSpline
70
4
71
3
72
8
73
4
74
0
42
0.000000001
43
0.0000000001
44
0.0000000001
40
0
40
0
40
0
40
0
40
1
40
1
40
1
40
1
41
1
41
1
41
1
41
1
10
38.606267690658576
20
-12.670651419957482
30
0
10
38.421013736724859
20
-12.516466911633813
30
0
10
38.319364579518641
20
-12.44817731380463
30
0
10
38.103659884134935
20
-12.332994381586712
30
0
0
LINE
5
267
100
AcDbEntity
8
0
100
AcDbLine
10
38.103659884134935
20
-12.332994381586712
30
0
11
37.930729548136398
21
-12.240652028719586
31
0
0
LINE
5
268
100
AcDbEntity
8
0
100
AcDbLine
10
37.930729548136398
20
-12.240652028719586
30
0
11
37.743909152348841
21
-12.277026383082072
31
0
0
SPLINE
5
269
100
AcDbEntity
8
0
100
AcDbSpline
70
4
71
3
72
8
73
4
74
0
42
0.000000001
43
0.0000000001
44
0.0000000001
40
0
40
0
40
0
40
0
40
1
40
1
40
1
40
1
41
1
41
1
41
1
41
1
10
37.743909152348841
20
-12.277026383082074
30
0
10
37.58149981498719
20
-12.308647918701174
30
0
10
37.524298445383714
20
-12.312354087829592
30
0
10
37.306141138076789
20
-12.305393918355307
30
0
0
SPLINE
5
270
100
AcDbEntity
8
0
100
AcDbSpline
70
4
71
3
72
8
73
4
74
0
42
0.000000001
43
0.0000000001
44
0.0000000001
40
0
40
0
40
0
40
0
40
1
40
1
40
1
40
1
41
1
41
1
41
1
41
1
10
37.306141138076789
20
-12.305393918355307
30
0
10
36.980440330505374
20
-12.295004129409792
30
0
10
36.876829083760583
20
-12.263952851295471
30
0
10
36.750859705607098
20
-12.138984704017641
30
0
0
SPLINE
5
271
100
AcDbEntity
8
0
100
AcDbSpline
70
4
71
3
72
8
73
4
74
0
42
0.000000001
43
0.0000000001
44
0.0000000001
40
0
40
0
40
0
40
0
40
1
40
1
40
1
40
1
41
1
41
1
41
1
41
1
10
36.750859705607098
20
-12.138984704017641
30
0
10
36.656798505783087
20
-12.045672408739726
30
0
10
36.634842077891037
20
-12.003343152999879
30
0
10
36.634842077891037
20
-11.915315580368045
30
0
0
SPLINE
5
272
100
AcDbEntity
8
0
100
AcDbSpline
70
4
71
3
72
8
73
4
74
0
42
0.000000001
43
0.0000000001
44
0.0000000001
40
0
40
0
40
0
40
0
40
1
40
1
40
1
40
1
41
1
41
1
41
1
41
1
10
36.634842077891037
20
-11.915315580368045
30
0
10
36.634842077891037
20
-11.875221935908002
30
0
10
36.618101739883429
20
-11.831614899635316
30
0
10
36.58196053504944
20
-11.777552469571432
30
0
0
SPLINE
5
273
100
AcDbEntity
8
0
100
AcDbSpline
70
4
71
3
72
8
73
4
74
0
42
0.000000001
43
0.0000000001
44
0.0000000001
40
0
40
0
40
0
40
0
40
1
40
1
40
1
40
1
41
1
41
1
41
1
41
1
10
36.58196053504944
20
-11.777552469571432
30
0
10
36.528431018193565
20
-11.697484278678896
30
0
10
36.492079877853399
20
-11.611602489153546
30
0
10
36.49208593368531
20
-11.565221881866456
30
0
0
SPLINE
5
274
100
AcDbEntity
8
0
100
AcDbSpline
70
4
71
3
72
8
73
4
74
0
42
0.000000001
43
0.0000000001
44
0.0000000001
40
0
40
0
40
0
40
0
40
1
40
1
40
1
40
1
41
1
41
1
41
1
41
1
10
36.49208593368531
20
-11.565221881866456
30
0
10
36.492089970906584
20
-11.531183060010274
30
0
10
36.679233344395961
20
-11.443685372670494
30
0
10
36.80139764149984
20
-11.420603569348655
30
0
0
SPLINE
5
275
100
AcDbEntity
8
0
100
AcDbSpline
70
4
71
3
72
8
73
4
74
0
42
0.000000001
43
0.0000000001
44
0.0000000001
40
0
40
0
40
0
40
0
40
1
40
1
40
1
40
1
41
1
41
1
41
1
41
1
10
36.80139764149984
20
-11.420603569348655
30
0
10
36.853742233912158
20
-11.410713386535647
30
0
10
36.971520090103155
20
-11.404940160115562
30
0
10
37.063124640782675
20
-11.407776308059693
30
0
0
LINE
5
276
100
AcDbEntity
8
0
100
AcDbLine
10
37.063124640782675
20
-11.407776308059693
30
0
11
37.229678185780848
21
-11.412930830319723
31
0
0
LINE
5
277
100
AcDbEntity
8
0
100
AcDbLine
10
37.229678185780848
20
-11.412930830319723
30
0
11
37.224320793151861
21
-11.303576636314395
31
0
0
LINE
5
278
100
AcDbEntity
8
0
100
AcDbLine
10
37.224320793151861
20
-11.303576636314395
30
0
11
37.218963400522881
21
-11.194222442309062
31
0
0
LINE
5
279
100
AcDbEntity
8
0
100
AcDbLine
10
37.218963400522881
20
-11.194222442309062
30
0
11
37.324310652414965
21
-11.202678402264914
31
0
0
SPLINE
5
280
100
AcDbEntity
8
0
100
AcDbSpline
70
4
71
3
72
8
73
4
74
0
42
0.000000001
43
0.0000000001
44
0.0000000001
40
0
40
0
40
0
40
0
40
1
40
1
40
1
40
1
41
1
41
1
41
1
41
1
10
37.324310652414965
20
-11.202678402264914
30
0
10
37.449942922592172
20
-11.212761362393699
30
0
10
37.587904866536462
20
-11.275826795895895
30
0
10
37.704259602228809
20
-11.376356633504233
30
0
0
SPLINE
5
281
100
AcDbEntity
8
0
100
AcDbSpline
70
4
71
3
72
8
73
4
74
0
42
0.000000001
43
0.0000000001
44
0.0000000001
40
0
40
0
40
0
40
0
40
1
40
1
40
1
40
1
41
1
41
1
41
1
41
1
10
37.704259602228809
20
-11.376356633504233
30
0
10
37.80224296251933
20
-11.461015144983929
30
0
10
37.949763027826947
20
-11.65874714056651
30
0
10
38.012251138687141
20
-11.789178657531741
30
0
0
SPLINE
5
282
100
AcDbEntity
8
0
100
AcDbSpline
70
4
71
3
72
8
73
4
74
0
42
0.000000001
43
0.0000000001
44
0.0000000001
40
0
40
0
40
0
40
0
40
1
40
1
40
1
40
1
41
1
41
1
41
1
41
1
10
38.012251138687141
20
-11.789178657531741
30
0
10
38.046515035629284
20
-11.860700050989788
30
0
10
38.077105061213182
20
-11.899548212687176
30
0
10
38.120696957906091
20
-11.926906442642213
30
0
0
SPLINE
5
283
100
AcDbEntity
8
0
100
AcDbSpline
70
4
71
3
72
8
73
4
74
0
42
0.000000001
43
0.0000000001
44
0.0000000001
40
0
40
0
40
0
40
0
40
1
40
1
40
1
40
1
41
1
41
1
41
1
41
1
10
38.120696957906091
20
-11.926906442642213
30
0
10
38.154092852274587
20
-11.947863658269249
30
0
10
38.202830187479663
20
-11.979565938313803
30
0
10
38.229003492991133
20
-11.997352925936383
30
0
0
SPLINE
5
284
100
AcDbEntity
8
0
100
AcDbSpline
70
4
71
3
72
8
73
4
74
0
42
0.000000001
43
0.0000000001
44
0.0000000001
40
0
40
0
40
0
40
0
40
1
40
1
40
1
40
1
41
1
41
1
41
1
41
1
10
38.229003492991133
20
-11.997352925936383
30
0
10
38.25517679850261
20
-12.01514092286428
30
0
10
38.268451182047528
20
-12.01940624713898
30
0
10
38.258501450220749
20
-12.006833330790203
30
0
0
SPLINE
5
285
100
AcDbEntity
8
0
100
AcDbSpline
70
4
71
3
72
8
73
4
74
0
42
0.000000001
43
0.0000000001
44
0.0000000001
40
0
40
0
40
0
40
0
40
1
40
1
40
1
40
1
41
1
41
1
41
1
41
1
10
38.258501450220749
20
-12.006833330790203
30
0
10
38.233941014607751
20
-11.975794164339703
30
0
10
38.18934788703919
20
-11.75212806860606
30
0
10
38.18934788703919
20
-11.659978493054711
30
0
0
SPLINE
5
286
100
AcDbEntity
8
0
100
AcDbSpline
70
4
71
3
72
8
73
4
74
0
42
0.000000001
43
0.0000000001
44
0.0000000001
40
0
40
0
40
0
40
0
40
1
40
1
40
1
40
1
41
1
41
1
41
1
41
1
10
38.18934788703919
20
-11.659978493054711
30
0
10
38.18934788703919
20
-11.57092849413554
30
0
10
38.227951796849574
20
-11.432109649976097
30
0
10
38.26225606600444
20
-11.397805380821229
30
0
0
SPLINE
5
287
100
AcDbEntity
8
0
100
AcDbSpline
70
4
71
3
72
8
73
4
74
0
42
0.000000001
43
0.0000000001
44
0.0000000001
40
0
40
0
40
0
40
0
40
1
40
1
40
1
40
1
41
1
41
1
41
1
41
1
10
38.26225606600444
20
-11.397805380821229
30
0
10
38.27574644088746
20
-11.384313996632896
30
0
10
38.309475406010954
20
-11.37319145202637
30
0
10
38.337207078933723
20
-11.373093549410505
30
0
0
SPLINE
5
288
100
AcDbEntity
8
0
100
AcDbSpline
70
4
71
3
72
8
73
4
74
0
42
0.000000001
43
0.0000000001
44
0.0000000001
40
0
40
0
40
0
40
0
40
1
40
1
40
1
40
1
41
1
41
1
41
1
41
1
10
38.337207078933723
20
-11.373093549410505
30
0
10
38.38088981310527
20
-11.372936097780865
30
0
10
38.391848850250256
20
-11.363928047815961
30
0
10
38.419223229090377
20
-11.305679019292196
30
0
0
SPLINE
5
289
100
AcDbEntity
8
0
100
AcDbSpline
70
4
71
3
72
8
73
4
74
0
42
0.000000001
43
0.0000000001
44
0.0000000001
40
0
40
0
40
0
40
0
40
1
40
1
40
1
40
1
41
1
41
1
41
1
41
1
10
38.419223229090377
20
-11.305679019292196
30
0
10
38.455400768915815
20
-11.228701321283978
30
0
10
38.574317121505743
20
-11.095402367909751
30
0
10
38.686469109853114
20
-11.006113163630168
30
0
0
SPLINE
5
290
100
AcDbEntity
8
0
100
AcDbSpline
70
4
71
3
72
8
73
4
74
0
42
0.000000001
43
0.0000000001
44
0.0000000001
40
0
40
0
40
0
40
0
40
1
40
1
40
1
40
1
41
1
41
1
41
1
41
1
10
38.686469109853114
20
-11.006113163630168
30
0
10
38.785058053334559
20
-10.927622516949974
30
0
10
38.853700908025111
20
-10.923132117589315
30
0
10
38.902714792887373
20
-10.991965730985008
30
0
0
SPLINE
5
291
100
AcDbEntity
8
0
100
AcDbSpline
70
4
71
3
72
8
73
4
74
0
42
0.000000001
43
0.0000000001
44
0.0000000001
40
0
40
0
40
0
40
0
40
1
40
1
40
1
40
1
41
1
41
1
41
1
41
1
10
38.902714792887373
20
-10.991965730985008
30
0
10
38.938991244633996
20
-11.042911426226301
30
0
10
38.987211815516162
20
-11.172300330797833
30
0
10
39.004289261500048
20
-11.264514501889549
30
0
0
SPLINE
5
292
100
AcDbEntity
8
0
100
AcDbSpline
70
4
71
3
72
8
73
4
74
0
42
0.000000001
43
0.0000000001
44
0.0000000001
40
0
40
0
40
0
40
0
40
1
40
1
40
1
40
1
41
1
41
1
41
1
41
1
10
39.004289261500048
20
-11.264514501889549
30
0
10
39.01363139152528
20
-11.314959581693016
30
0
10
39.022006607055673
20
-11.323624467849733
30
0
10
39.070156526565555
20
-11.332656741142275
30
0
0
SPLINE
5
293
100
AcDbEntity
8
0
100
AcDbSpline
70
4
71
3
72
8
73
4
74
0
42
0.000000001
43
0.0000000001
44
0.0000000001
40
0
40
0
40
0
40
0
40
1
40
1
40
1
40
1
41
1
41
1
41
1
41
1
10
39.070156526565555
20
-11.332656741142275
30
0
10
39.114380248387661
20
-11.340954240163168
30
0
10
39.132204580307011
20
-11.356234113375347
30
0
10
39.160027090708425
20
-11.409692978858949
30
0
0
SPLINE
5
294
100
AcDbEntity
8
0
100
AcDbSpline
70
4
71
3
72
8
73
4
74
0
42
0.000000001
43
0.0000000001
44
0.0000000001
40
0
40
0
40
0
40
0
40
1
40
1
40
1
40
1
41
1
41
1
41
1
41
1
10
39.160027090708425
20
-11.409692978858949
30
0
10
39.251328849792486
20
-11.585135475794477
30
0
10
39.162275822957362
20
-11.980235107739768
30
0
10
38.961452325185149
20
-12.290670172373455
30
0
0
SPLINE
5
295
100
AcDbEntity
8
0
100
AcDbSpline
70
4
71
3
72
8
73
4
74
0
42
0.000000001
43
0.0000000001
44
0.0000000001
40
0
40
0
40
0
40
0
40
1
40
1
40
1
40
1
41
1
41
1
41
1
41
1
10
38.961452325185149
20
-12.290670172373455
30
0
10
38.920662260055551
20
-12.353724503517151
30
0
10
38.887290589014697
20
-12.411595042546592
30
0
10
38.887290589014697
20
-12.419271818796796
30
0
0
SPLINE
5
296
100
AcDbEntity
8
0
100
AcDbSpline
70
4
71
3
72
8
73
4
74
0
42
0.000000001
43
0.0000000001
44
0.0000000001
40
0
40
0
40
0
40
0
40
1
40
1
40
1
40
1
41
1
41
1
41
1
41
1
10
38.887290589014697
20
-12.419271818796796
30
0
10
38.887290589014697
20
-12.426947585741681
30
0
10
38.909816265106208
20
-12.452185265223187
30
0
10
38.937352132797251
20
-12.475352859497074
30
0
0
LINE
5
297
100
AcDbEntity
8
0
100
AcDbLine
10
38.937352132797251
20
-12.475352859497074
30
0
11
38.987413676579806
21
-12.517476216952009
31
0
0
LINE
5
298
100
AcDbEntity
8
0
100
AcDbLine
10
38.987413676579806
20
-12.517476216952009
30
0
11
39.007910648981735
21
-12.457851505279542
31
0
0
SPLINE
5
299
100
AcDbEntity
8
0
100
AcDbSpline
70
4
71
3
72
8
73
4
74
0
42
0.000000001
43
0.0000000001
44
0.0000000001
40
0
40
0
40
0
40
0
40
1
40
1
40
1
40
1
41
1
41
1
41
1
41
1
10
39.007910648981735
20
-12.457851505279542
30
0
10
39.019184589385993
20
-12.425058166186016
30
0
10
39.041782935460418
20
-12.37996946970622
30
0
10
39.058129644393929
20
-12.357654738426209
30
0
0
SPLINE
5
300
100
AcDbEntity
8
0
100
AcDbSpline
70
4
71
3
72
8
73
4
74
0
42
0.000000001
43
0.0000000001
44
0.0000000001
40
0
40
0
40
0
40
0
40
1
40
1
40
1
40
1
41
1
41
1
41
1
41
1
10
39.058129644393929
20
-12.357654738426209
30
0
10
39.100308513641366
20
-12.30007588863373
30
0
10
39.230696630477915
20
-12.215342688560487
30
0
10
39.309589989980068
20
-12.194242151578269
30
0
0
SPLINE
5
301
100
AcDbEntity
8
0
100
AcDbSpline
70
4
71
3
72
8
73
4
74
0
42
0.000000001
43
0.0000000001
44
0.0000000001
40
0
40
0
40
0
40
0
40
1
40
1
40
1
40
1
41
1
41
1
41
1
41
1
10
39.309589989980068
20
-12.194242151578269
30
0
10
39.354913854599005
20
-12.182121404012046
30
0
10
39.382328605651864
20
-12.163818661371868
30
0
10
39.394202073415123
20
-12.137755370140077
30
0
0
SPLINE
5
302
100
AcDbEntity
8
0
100
AcDbSpline
70
4
71
3
72
8
73
4
74
0
42
0.000000001
43
0.0000000001
44
0.0000000001
40
0
40
0
40
0
40
0
40
1
40
1
40
1
40
1
41
1
41
1
41
1
41
1
10
39.394202073415123
20
-12.137755370140077
30
0
10
39.424335892995202
20
-12.071618620554608
30
0
10
39.547432788213101
20
-11.921371412277225
30
0
10
39.619450759887698
20
-11.862824638684593
30
0
0
SPLINE
5
303
100
AcDbEntity
8
0
100
AcDbSpline
70
4
71
3
72
8
73
4
74
0
42
0.000000001
43
0.0000000001
44
0.0000000001
40
0
40
0
40
0
40
0
40
1
40
1
40
1
40
1
41
1
41
1
41
1
41
1
10
39.619450759887698
20
-11.862824638684593
30
0
10
39.706689055760705
20
-11.791904791196188
30
0
10
39.825986925760908
20
-11.722245566050214
30
0
10
39.860202376047773
20
-11.722245566050214
30
0
0
SPLINE
5
304
100
AcDbEntity
8
0
100
AcDbSpline
70
4
71
3
72
8
73
4
74
0
42
0.000000001
43
0.0000000001
44
0.0000000001
40
0
40
0
40
0
40
0
40
1
40
1
40
1
40
1
41
1
41
1
41
1
41
1
10
39.860202376047773
20
-11.722245566050214
30
0
10
39.898132069905607
20
-11.722245566050214
30
0
10
40.008467308680224
20
-11.826953927675884
30
0
10
40.055997514724737
20
-11.908057665824892
30
0
0
SPLINE
5
305
100
AcDbEntity
8
0
100
AcDbSpline
70
4
71
3
72
8
73
4
74
0
42
0.000000001
43
0.0000000001
44
0.0000000001
40
0
40
0
40
0
40
0
40
1
40
1
40
1
40
1
41
1
41
1
41
1
41
1
10
40.055997514724737
20
-11.908057665824892
30
0
10
40.078408130009976
20
-11.946281067530315
30
0
10
40.108340088526411
20
-12.014689763387045
30
0
10
40.122534958521534
20
-12.060076204935712
30
0
0
LINE
5
306
100
AcDbEntity
8
0
100
AcDbLine
10
40.122534958521534
20
-12.060076204935712
30
0
11
40.148332802454632
21
-12.142597007751467
31
0
0
LINE
5
307
100
AcDbEntity
8
0
100
AcDbLine
10
40.148332802454632
20
-12.142597007751467
30
0
11
40.293594042460128
21
-12.142777673403423
31
0
0
SPLINE
5
308
100
AcDbEntity
8
0
100
AcDbSpline
70
4
71
3
72
8
73
4
74
0
42
0.000000001
43
0.0000000001
44
0.0000000001
40
0
40
0
40
0
40
0
40
1
40
1
40
1
40
1
41
1
41
1
41
1
41
1
10
40.293594042460128
20
-12.142777673403424
30
0
10
40.413709449768064
20
-12.142927050590517
30
0
10
40.444600248336798
20
-12.148156261444093
30
0
10
40.472045278549196
20
-12.172995265324912
30
0
0
SPLINE
5
309
100
AcDbEntity
8
0
100
AcDbSpline
70
4
71
3
72
8
73
4
74
0
42
0.000000001
43
0.0000000001
44
0.0000000001
40
0
40
0
40
0
40
0
40
1
40
1
40
1
40
1
41
1
41
1
41
1
41
1
10
40.472045278549196
20
-12.172995265324912
30
0
10
40.513864835103362
20
-12.210843205451967
30
0
10
40.514127254486084
20
-12.250823807716371
30
0
10
40.4728385925293
20
-12.306565721829735
30
0
0
SPLINE
5
310
100
AcDbEntity
8
0
100
AcDbSpline
70
4
71
3
72
8
73
4
74
0
42
0.000000001
43
0.0000000001
44
0.0000000001
40
0
40
0
40
0
40
0
40
1
40
1
40
1
40
1
41
1
41
1
41
1
41
1
10
40.4728385925293
20
-12.306565721829735
30
0
10
40.455058670043954
20
-12.330608383814496
30
0
10
40.416947301228845
20
-12.417968805631004
30
0
10
40.388139708836874
20
-12.500696516036989
30
0
0
SPLINE
5
311
100
AcDbEntity
8
0
100
AcDbSpline
70
4
71
3
72
8
73
4
74
0
42
0.000000001
43
0.0000000001
44
0.0000000001
40
0
40
0
40
0
40
0
40
1
40
1
40
1
40
1
41
1
41
1
41
1
41
1
10
40.388139708836874
20
-12.500696516036989
30
0
10
40.288408231735239
20
-12.787106076876324
30
0
10
40.130231920878103
20
-12.974527009328208
30
0
10
39.870664834976203
20
-13.113854543368024
30
0
0
SPLINE
5
312
100
AcDbEntity
8
0
100
AcDbSpline
70
4
71
3
72
8
73
4
74
0
42
0.000000001
43
0.0000000001
44
0.0000000001
40
0
40
0
40
0
40
0
40
1
40
1
40
1
40
1
41
1
41
1
41
1
41
1
10
39.870664834976203
20
-13.113854543368024
30
0
10
39.723538398742683
20
-13.192828647295636
30
0
10
39.70288195610047
20
-13.296648820241295
30
0
10
39.804159688949589
20
-13.448143529891968
30
0
0
SPLINE
5
313
100
AcDbEntity
8
0
100
AcDbSpline
70
4
71
3
72
8
73
4
74
0
42
0.000000001
43
0.0000000001
44
0.0000000001
40
0
40
0
40
0
40
0
40
1
40
1
40
1
40
1
41
1
41
1
41
1
41
1
10
39.804159688949589
20
-13.448143529891968
30
0
10
39.837375926971447
20
-13.497829612096153
30
0
10
39.90579875310263
20
-13.612013332049052
30
0
10
39.956209516525277
20
-13.701884905497234
30
0
0
SPLINE
5
314
100
AcDbEntity
8
0
100
AcDbSpline
70
4
71
3
72
8
73
4
74
0
42
0.000000001
43
0.0000000001
44
0.0000000001
40
0
40
0
40
0
40
0
40
1
40
1
40
1
40
1
41
1
41
1
41
1
41
1
10
39.956209516525277
20
-13.701884905497234
30
0
10
40.031715647379556
20
-13.836493937174481
30
0
10
40.051818990707403
20
-13.862007157007856
30
0
10
40.070303408304859
20
-13.846668744087221
30
0
0
SPLINE
5
315
100
AcDbEntity
8
0
100
AcDbSpline
70
4
71
3
72
8
73
4
74
0
42
0.000000001
43
0.0000000001
44
0.0000000001
40
0
40
0
40
0
40
0
40
1
40
1
40
1
40
1
41
1
41
1
41
1
41
1
10
40.070303408304859
20
-13.846668744087221
30
0
10
40.08644220034283
20
-13.833267188072206
30
0
10
40.092766507466635
20
-13.789692449569703
30
0
10
40.092845233281466
20
-13.691196362177534
30
0
0
SPLINE
5
316
100
AcDbEntity
8
0
100
AcDbSpline
70
4
71
3
72
8
73
4
74
0
42
0.000000001
43
0.0000000001
44
0.0000000001
40
0
40
0
40
0
40
0
40
1
40
1
40
1
40
1
41
1
41
1
41
1
41
1
10
40.092845233281466
20
-13.691196362177534
30
0
10
40.092990573247285
20
-13.526465622584027
30
0
10
40.112609450022383
20
-13.397549072901409
30
0
10
40.165307299296067
20
-13.215118145942689
30
0
0
SPLINE
5
317
100
AcDbEntity
8
0
100
AcDbSpline
70
4
71
3
72
8
73
4
74
0
42
0.000000001
43
0.0000000001
44
0.0000000001
40
0
40
0
40
0
40
0
40
1
40
1
40
1
40
1
41
1
41
1
41
1
41
1
10
40.165307299296067
20
-13.215118145942689
30
0
10
40.220996729532885
20
-13.022313578923546
30
0
10
40.279146846135461
20
-12.906611863772078
30
0
10
40.39087290763856
20
-12.766320443153383
30
0
0
SPLINE
5
318
100
AcDbEntity
8
0
100
AcDbSpline
70
4
71
3
72
8
73
4
74
0
42
0.000000001
43
0.0000000001
44
0.0000000001
40
0
40
0
40
0
40
0
40
1
40
1
40
1
40
1
41
1
41
1
41
1
41
1
10
40.39087290763856
20
-12.766320443153383
30
0
10
40.55178241729736
20
-12.564268620808921
30
0
10
40.774994325637827
20
-12.456138714154562
30
0
10
41.063871637980149
20
-12.440303723017376
30
0
0
SPLINE
5
319
100
AcDbEntity
8
0
100
AcDbSpline
70
4
71
3
72
8
73
4
74
0
42
0.000000001
43
0.0000000001
44
0.0000000001
40
0
40
0
40
0
40
0
40
1
40
1
40
1
40
1
41
1
41
1
41
1
41
1
10
41.063871637980149
20
-12.440303723017376
30
0
10
41.303965187072755
20
-12.427143390973413
30
0
10
41.329738807678225
20
-12.459917553265891
30
0
10
41.329900296529146
20
-12.778596623738609
30
0
0
SPLINE
5
320
100
AcDbEntity
8
0
100
AcDbSpline
70
4
71
3
72
8
73
4
74
0
42
0.000000001
43
0.0000000001
44
0.0000000001
40
0
40
0
40
0
40
0
40
1
40
1
40
1
40
1
41
1
41
1
41
1
41
1
10
41.329900296529146
20
-12.778596623738609
30
0
10
41.329979022343963
20
-12.937634881337486
30
0
10
41.333235041300469
20
-12.957500028610232
30
0
10
41.363544480005899
20
-12.98480678399404
30
0
0
SPLINE
5
321
100
AcDbEntity
8
0
100
AcDbSpline
70
4
71
3
72
8
73
4
74
0
42
0.000000001
43
0.0000000001
44
0.0000000001
40
0
40
0
40
0
40
0
40
1
40
1
40
1
40
1
41
1
41
1
41
1
41
1
10
41.363544480005899
20
-12.98480678399404
30
0
10
41.39364802042644
20
-13.011914706230165
30
0
10
41.396080446243289
20
-13.026118659973147
30
0
10
41.387146075566612
20
-13.122840388615929
30
0
0
SPLINE
5
322
100
AcDbEntity
8
0
100
AcDbSpline
70
4
71
3
72
8
73
4
74
0
42
0.000000001
43
0.0000000001
44
0.0000000001
40
0
40
0
40
0
40
0
40
1
40
1
40
1
40
1
41
1
41
1
41
1
41
1
10
41.387146075566612
20
-13.122840388615929
30
0
10
41.374975872039805
20
-13.254833300908409
30
0
10
41.312503910064706
20
-13.398923746744792
30
0
10
41.204471906026214
20
-13.544206182161968
30
0
0
SPLINE
5
323
100
AcDbEntity
8
0
100
AcDbSpline
70
4
71
3
72
8
73
4
74
0
42
0.000000001
43
0.0000000001
44
0.0000000001
40
0
40
0
40
0
40
0
40
1
40
1
40
1
40
1
41
1
41
1
41
1
41
1
10
41.204471906026214
20
-13.544206182161968
30
0
10
41.096944554646825
20
-13.68880834579468
30
0
10
41.045568895339969
20
-13.734396648406983
30
0
10
40.862034797668457
20
-13.848062594731651
30
0
0
SPLINE
5
324
100
AcDbEntity
8
0
100
AcDbSpline
70
4
71
3
72
8
73
4
74
0
42
0.000000001
43
0.0000000001
44
0.0000000001
40
0
40
0
40
0
40
0
40
1
40
1
40
1
40
1
41
1
41
1
41
1
41
1
10
40.862034797668457
20
-13.848062594731651
30
0
10
40.570226462682093
20
-14.028787795702618
30
0
10
40.509052467346194
20
-14.078865488370262
30
0
10
40.459081761042285
20
-14.177935870488486
30
0
0
SPLINE
5
325
100
AcDbEntity
8
0
100
AcDbSpline
70
4
71
3
72
8
73
4
74
0
42
0.000000001
43
0.0000000001
44
0.0000000001
40
0
40
0
40
0
40
0
40
1
40
1
40
1
40
1
41
1
41
1
41
1
41
1
10
40.459081761042285
20
-14.177935870488486
30
0
10
40.386149358749392
20
-14.322526931762699
30
0
10
40.375218582153323
20
-14.379002610842388
30
0
10
40.411295191446953
20
-14.424866453806562
30
0
0
SPLINE
5
326
100
AcDbEntity
8
0
100
AcDbSpline
70
4
71
3
72
8
73
4
74
0
42
0.000000001
43
0.0000000001
44
0.0000000001
40
0
40
0
40
0
40
0
40
1
40
1
40
1
40
1
41
1
41
1
41
1
41
1
10
40.411295191446953
20
-14.424866453806562
30
0
10
40.452065070470184
20
-14.476693272590639
30
0
10
40.536828549702975
20
-14.657742460568748
30
0
10
40.536844698588069
20
-14.693021718660992
30
0
0
SPLINE
5
327
100
AcDbEntity
8
0
100
AcDbSpline
70
4
71
3
72
8
73
4
74
0
42
0.000000001
43
0.0000000001
44
0.0000000001
40
0
40
0
40
0
40
0
40
1
40
1
40
1
40
1
41
1
41
1
41
1
41
1
10
40.536844698588069
20
-14.693021718660992
30
0
10
40.53685479164124
20
-14.717482233047487
30
0
10
40.541713587443041
20
-14.718733771642052
30
0
10
40.57254786491395
20
-14.702202359835308
30
0
0
SPLINE
5
328
100
AcDbEntity
8
0
100
AcDbSpline
70
4
71
3
72
8
73
4
74
0
42
0.000000001
43
0.0000000001
44
0.0000000001
40
0
40
0
40
0
40
0
40
1
40
1
40
1
40
1
41
1
41
1
41
1
41
1
10
40.57254786491395
20
-14.702202359835308
30
0
10
40.592921702067066
20
-14.69128268559774
30
0
10
40.675218439102174
20
-14.682530999183657
30
0
10
40.764257335662855
20
-14.681816411018374
30
0
0
LINE
5
329
100
AcDbEntity
8
0
100
AcDbLine
10
40.764257335662847
20
-14.681816411018371
30
0
11
40.920277770360315
21
-14.680572946866356
31
0
0
LINE
5
330
100
AcDbEntity
8
0
100
AcDbLine
10
40.920277770360315
20
-14.680572946866356
30
0
11
40.923638757069909
21
-14.506087271372479
31
0
0
SPLINE
5
331
100
AcDbEntity
8
0
100
AcDbSpline
70
4
71
3
72
8
73
4
74
0
42
0.000000001
43
0.0000000001
44
0.0000000001
40
0
40
0
40
0
40
0
40
1
40
1
40
1
40
1
41
1
41
1
41
1
41
1
10
40.923638757069909
20
-14.506087271372479
30
0
10
40.925491841634113
20
-14.410120503107709
30
0
10
40.935756476720186
20
-14.311085446675619
30
0
10
40.946418778101616
20
-14.286010265350344
30
0
0
LINE
5
332
100
AcDbEntity
8
0
100
AcDbLine
10
40.946418778101616
20
-14.286010265350344
30
0
11
40.965839831034351
21
-14.240418934822085
31
0
0
LINE
5
333
100
AcDbEntity
8
0
100
AcDbLine
10
40.965839831034351
20
-14.240418934822085
30
0
11
41.096345027287811
21
-14.247272117932642
31
0
0
SPLINE
5
334
100
AcDbEntity
8
0
100
AcDbSpline
70
4
71
3
72
8
73
4
74
0
42
0.000000001
43
0.0000000001
44
0.0000000001
40
0
40
0
40
0
40
0
40
1
40
1
40
1
40
1
41
1
41
1
41
1
41
1
10
41.096345027287811
20
-14.247272117932638
30
0
10
41.206678247451791
20
-14.253066539764408
30
0
10
41.242462158203132
20
-14.262446014086407
30
0
10
41.327815071741739
20
-14.307942469914757
30
0
0
SPLINE
5
335
100
AcDbEntity
8
0
100
AcDbSpline
70
4
71
3
72
8
73
4
74
0
42
0.000000001
43
0.0000000001
44
0.0000000001
40
0
40
0
40
0
40
0
40
1
40
1
40
1
40
1
41
1
41
1
41
1
41
1
10
41.327815071741739
20
-14.307942469914757
30
0
10
41.442996994654351
20
-14.369338512420658
30
0
10
41.566747919718438
20
-14.474823029836021
30
0
10
41.614792871475224
20
-14.552561744054159
30
0
0
SPLINE
5
336
100
AcDbEntity
8
0
100
AcDbSpline
70
4
71
3
72
8
73
4
74
0
42
0.000000001
43
0.0000000001
44
0.0000000001
40
0
40
0
40
0
40
0
40
1
40
1
40
1
40
1
41
1
41
1
41
1
41
1
10
41.614792871475224
20
-14.552561744054159
30
0
10
41.63281099001567
20
-14.581725621223452
30
0
10
41.660587072372444
20
-14.608992004394533
30
0
10
41.676507854461676
20
-14.613155388832094
30
0
0
SPLINE
5
337
100
AcDbEntity
8
0
100
AcDbSpline
70
4
71
3
72
8
73
4
74
0
42
0.000000001
43
0.0000000001
44
0.0000000001
40
0
40
0
40
0
40
0
40
1
40
1
40
1
40
1
41
1
41
1
41
1
41
1
10
41.676507854461676
20
-14.613155388832094
30
0
10
41.703765153884895
20
-14.6202831029892
30
0
10
41.704100243250537
20
-14.616923125584922
30
0
10
41.682248783111575
20
-14.555474599202476
30
0
0
SPLINE
5
338
100
AcDbEntity
8
0
100
AcDbSpline
70
4
71
3
72
8
73
4
74
0
42
0.000000001
43
0.0000000001
44
0.0000000001
40
0
40
0
40
0
40
0
40
1
40
1
40
1
40
1
41
1
41
1
41
1
41
1
10
41.682248783111575
20
-14.555474599202476
30
0
10
41.639014180501306
20
-14.433826057116192
30
0
10
41.640207179387417
20
-14.285189700126651
30
0
10
41.685952933629352
20
-14.093666950861614
30
0
0
SPLINE
5
339
100
AcDbEntity
8
0
100
AcDbSpline
70
4
71
3
72
8
73
4
74
0
42
0.000000001
43
0.0000000001
44
0.0000000001
40
0
40
0
40
0
40
0
40
1
40
1
40
1
40
1
41
1
41
1
41
1
41
1
10
41.685952933629352
20
-14.093666950861614
30
0
10
41.752429819107064
20
-13.8153732140859
30
0
10
41.756551822026573
20
-13.802302710215253
30
0
10
41.800030676523853
20
-13.732113599777222
30
0
0
SPLINE
5
340
100
AcDbEntity
8
0
100
AcDbSpline
70
4
71
3
72
8
73
4
74
0
42
0.000000001
43
0.0000000001
44
0.0000000001
40
0
40
0
40
0
40
0
40
1
40
1
40
1
40
1
41
1
41
1
41
1
41
1
10
41.800030676523853
20
-13.732113599777222
30
0
10
41.888512436548879
20
-13.589273683230083
30
0
10
41.936529127756756
20
-13.558878453572593
30
0
10
42.016282415390016
20
-13.595217482248945
30
0
0
SPLINE
5
341
100
AcDbEntity
8
0
100
AcDbSpline
70
4
71
3
72
8
73
4
74
0
42
0.000000001
43
0.0000000001
44
0.0000000001
40
0
40
0
40
0
40
0
40
1
40
1
40
1
40
1
41
1
41
1
41
1
41
1
10
42.016282415390016
20
-13.595217482248945
30
0
10
42.050063864390061
20
-13.610608379046125
30
0
10
42.063081884384168
20
-13.603183929125471
30
0
10
42.148362127939869
20
-13.51987082163493
30
0
0
SPLINE
5
342
100
AcDbEntity
8
0
100
AcDbSpline
70
4
71
3
72
8
73
4
74
0
42
0.000000001
43
0.0000000001
44
0.0000000001
40
0
40
0
40
0
40
0
40
1
40
1
40
1
40
1
41
1
41
1
41
1
41
1
10
42.148362127939869
20
-13.51987082163493
30
0
10
42.252500232060761
20
-13.418134864171346
30
0
10
42.396752166748051
20
-13.338025291760765
30
0
10
42.542778460184742
20
-13.300835418701173
30
0
0
SPLINE
5
343
100
AcDbEntity
8
0
100
AcDbSpline
70
4
71
3
72
8
73
4
74
0
42
0.000000001
43
0.0000000001
44
0.0000000001
40
0
40
0
40
0
40
0
40
1
40
1
40
1
40
1
41
1
41
1
41
1
41
1
10
42.542778460184742
20
-13.300835418701173
30
0
10
42.642318169275924
20
-13.275485706329349
30
0
10
42.785352881749475
20
-13.269197734196982
30
0
10
42.814378484090184
20
-13.288897355397545
30
0
0
SPLINE
5
344
100
AcDbEntity
8
0
100
AcDbSpline
70
4
71
3
72
8
73
4
74
0
42
0.000000001
43
0.0000000001
44
0.0000000001
40
0
40
0
40
0
40
0
40
1
40
1
40
1
40
1
41
1
41
1
41
1
41
1
10
42.814378484090184
20
-13.288897355397545
30
0
10
42.841280508041386
20
-13.30715669790904
30
0
10
42.868588272730513
20
-13.475110149383546
30
0
10
42.868588272730513
20
-13.622314302126568
30
0
0
SPLINE
5
345
100
AcDbEntity
8
0
100
AcDbSpline
70
4
71
3
72
8
73
4
74
0
42
0.000000001
43
0.0000000001
44
0.0000000001
40
0
40
0
40
0
40
0
40
1
40
1
40
1
40
1
41
1
41
1
41
1
41
1
10
42.868588272730513
20
-13.622314302126568
30
0
10
42.868588272730513
20
-13.748646020889284
30
0
10
42.871339639027923
20
-13.759493025143943
30
0
10
42.916172981262207
20
-13.810568920771281
30
0
0
SPLINE
5
346
100
AcDbEntity
8
0
100
AcDbSpline
70
4
71
3
72
8
73
4
74
0
42
0.000000001
43
0.0000000001
44
0.0000000001
40
0
40
0
40
0
40
0
40
1
40
1
40
1
40
1
41
1
41
1
41
1
41
1
10
42.916172981262207
20
-13.810568920771281
30
0
10
42.961438306172695
20
-13.862123227119447
30
0
10
42.963761727015182
20
-13.871669236818951
30
0
10
42.963761727015182
20
-14.006222756703696
30
0
0
SPLINE
5
347
100
AcDbEntity
8
0
100
AcDbSpline
70
4
71
3
72
8
73
4
74
0
42
0.000000001
43
0.0000000001
44
0.0000000001
40
0
40
0
40
0
40
0
40
1
40
1
40
1
40
1
41
1
41
1
41
1
41
1
10
42.963761727015182
20
-14.006222756703696
30
0
10
42.963761727015182
20
-14.133292277654014
30
0
10
42.957306210199995
20
-14.164376862843833
30
0
10
42.900338999430346
20
-14.311879769961042
30
0
0
SPLINE
5
348
100
AcDbEntity
8
0
100
AcDbSpline
70
4
71
3
72
8
73
4
74
0
42
0.000000001
43
0.0000000001
44
0.0000000001
40
0
40
0
40
0
40
0
40
1
40
1
40
1
40
1
41
1
41
1
41
1
41
1
10
42.900338999430346
20
-14.311879769961042
30
0
10
42.831918191909807
20
-14.489017899831138
30
0
10
42.744867626825979
20
-14.624359687169395
30
0
10
42.576670932769787
20
-14.815105271339419
30
0
0
SPLINE
5
349
100
AcDbEntity
8
0
100
AcDbSpline
70
4
71
3
72
8
73
4
74
0
42
0.000000001
43
0.0000000001
44
0.0000000001
40
0
40
0
40
0
40
0
40
1
40
1
40
1
40
1
41
1
41
1
41
1
41
1
10
42.576670932769787
20
-14.815105271339419
30
0
10
42.519118324915581
20
-14.880374018351239
30
0
10
42.472030194600435
20
-14.940500354766847
30
0
10
42.472030194600435
20
-14.948720137278242
30
0
0
SPLINE
5
350
100
AcDbEntity
8
0
100
AcDbSpline
70
4
71
3
72
8
73
4
74
0
42
0.000000001
43
0.0000000001
44
0.0000000001
40
0
40
0
40
0
40
0
40
1
40
1
40
1
40
1
41
1
41
1
41
1
41
1
10
42.472030194600435
20
-14.948720137278242
30
0
10
42.472030194600435
20
-14.956940929094953
30
0
10
42.527507670720425
20
-14.909676170349124
30
0
10
42.595314820607513
20
-14.843689807256064
30
0
0
SPLINE
5
351
100
AcDbEntity
8
0
100
AcDbSpline
70
4
71
3
72
8
73
4
74
0
42
0.000000001
43
0.0000000001
44
0.0000000001
40
0
40
0
40
0
40
0
40
1
40
1
40
1
40
1
41
1
41
1
41
1
41
1
10
42.595314820607513
20
-14.843689807256064
30
0
10
42.7190657456716
20
-14.723261515299482
30
0
10
42.757663599650073
20
-14.702609109878541
30
0
10
42.904188489913949
20
-14.678420098622642
30
0
0
SPLINE
5
352
100
AcDbEntity
8
0
100
AcDbSpline
70
4
71
3
72
8
73
4
74
0
42
0.000000001
43
0.0000000001
44
0.0000000001
40
0
40
0
40
0
40
0
40
1
40
1
40
1
40
1
41
1
41
1
41
1
41
1
10
42.904188489913949
20
-14.678420098622642
30
0
10
42.972916126251228
20
-14.667074497540792
30
0
10
43.011346435546884
20
-14.690437897046408
30
0
10
43.011346435546884
20
-14.743567728996279
30
0
0
SPLINE
5
353
100
AcDbEntity
8
0
100
AcDbSpline
70
4
71
3
72
8
73
4
74
0
42
0.000000001
43
0.0000000001
44
0.0000000001
40
0
40
0
40
0
40
0
40
1
40
1
40
1
40
1
41
1
41
1
41
1
41
1
10
43.011346435546884
20
-14.743567728996279
30
0
10
43.011346435546884
20
-14.777086758613589
30
0
10
43.019443082809453
20
-14.779377881685896
30
0
10
43.170162645975758
20
-14.788560541470847
30
0
0
SPLINE
5
354
100
AcDbEntity
8
0
100
AcDbSpline
70
4
71
3
72
8
73
4
74
0
42
0.000000001
43
0.0000000001
44
0.0000000001
40
0
40
0
40
0
40
0
40
1
40
1
40
1
40
1
41
1
41
1
41
1
41
1
10
43.170162645975758
20
-14.788560541470847
30
0
10
43.349457661310836
20
-14.799482234319052
30
0
10
43.415902249018359
20
-14.823846864700318
30
0
10
43.486890729268396
20
-14.904697267214459
30
0
0
SPLINE
5
355
100
AcDbEntity
8
0
100
AcDbSpline
70
4
71
3
72
8
73
4
74
0
42
0.000000001
43
0.0000000001
44
0.0000000001
40
0
40
0
40
0
40
0
40
1
40
1
40
1
40
1
41
1
41
1
41
1
41
1
10
43.486890729268396
20
-14.904697267214459
30
0
10
43.576339403788253
20
-15.00657452742259
30
0
10
43.571738990147907
20
-15.024338301022851
30
0
10
43.419358110427865
20
-15.165600673357648
30
0
0
SPLINE
5
356
100
AcDbEntity
8
0
100
AcDbSpline
70
4
71
3
72
8
73
4
74
0
42
0.000000001
43
0.0000000001
44
0.0000000001
40
0
40
0
40
0
40
0
40
1
40
1
40
1
40
1
41
1
41
1
41
1
41
1
10
43.419358110427865
20
-15.165600673357648
30
0
10
43.344887526830043
20
-15.234636147816978
30
0
10
43.24046883583069
20
-15.32746195793152
30
0
10
43.187308724721277
20
-15.371879466374718
30
0
0
SPLINE
5
357
100
AcDbEntity
8
0
100
AcDbSpline
70
4
71
3
72
8
73
4
74
0
42
0.000000001
43
0.0000000001
44
0.0000000001
40
0
40
0
40
0
40
0
40
1
40
1
40
1
40
1
41
1
41
1
41
1
41
1
10
43.187308724721277
20
-15.371879466374718
30
0
10
43.132973782221484
20
-15.417281047503156
30
0
10
43.090659666061413
20
-15.465482441584271
30
0
10
43.090659666061413
20
-15.481972471872966
30
0
0
SPLINE
5
358
100
AcDbEntity
8
0
100
AcDbSpline
70
4
71
3
72
8
73
4
74
0
42
0.000000001
43
0.0000000001
44
0.0000000001
40
0
40
0
40
0
40
0
40
1
40
1
40
1
40
1
41
1
41
1
41
1
41
1
10
43.090659666061413
20
-15.481972471872966
30
0
10
43.090659666061413
20
-15.530449406305951
30
0
10
42.96531403859457
20
-15.652850890159609
30
0
10
42.863644695281984
20
-15.703655282656355
30
0
0
SPLINE
5
359
100
AcDbEntity
8
0
100
AcDbSpline
70
4
71
3
72
8
73
4
74
0
42
0.000000001
43
0.0000000001
44
0.0000000001
40
0
40
0
40
0
40
0
40
1
40
1
40
1
40
1
41
1
41
1
41
1
41
1
10
42.863644695281984
20
-15.703655282656355
30
0
10
42.752316300074263
20
-15.759287182490034
30
0
10
42.631986920038862
20
-15.766129263242089
30
0
10
42.448493194580088
20
-15.727260915438336
30
0
0
SPLINE
5
360
100
AcDbEntity
8
0
100
AcDbSpline
70
4
71
3
72
8
73
4
74
0
42
0.000000001
43
0.0000000001
44
0.0000000001
40
0
40
0
40
0
40
0
40
1
40
1
40
1
40
1
41
1
41
1
41
1
41
1
10
42.448493194580088
20
-15.727260915438336
30
0
10
42.339762751261397
20
-15.70422856807709
30
0
10
42.33578406969707
20
-15.704554573694868
30
0
10
42.233044862747199
20
-15.744861181577051
30
0
0
SPLINE
5
361
100
AcDbEntity
8
0
100
AcDbSpline
70
4
71
3
72
8
73
4
74
0
42
0.000000001
43
0.0000000001
44
0.0000000001
40
0
40
0
40
0
40
0
40
1
40
1
40
1
40
1
41
1
41
1
41
1
41
1
10
42.233044862747199
20
-15.744861181577051
30
0
10
42.14117385546367
20
-15.780905493100486
30
0
10
42.125814247131359
20
-15.793023212750754
30
0
10
42.107463057835908
20
-15.843947712580366
30
0
0
SPLINE
5
362
100
AcDbEntity
8
0
100
AcDbSpline
70
4
71
3
72
8
73
4
74
0
42
0.000000001
43
0.0000000001
44
0.0000000001
40
0
40
0
40
0
40
0
40
1
40
1
40
1
40
1
41
1
41
1
41
1
41
1
10
42.107463057835908
20
-15.843947712580366
30
0
10
42.095952939987185
20
-15.875858918825788
30
0
10
42.069783671696982
20
-15.928594112396242
30
0
10
42.049286699295045
20
-15.961136134465537
30
0
0
SPLINE
5
363
100
AcDbEntity
8
0
100
AcDbSpline
70
4
71
3
72
8
73
4
74
0
42
0.000000001
43
0.0000000001
44
0.0000000001
40
0
40
0
40
0
40
0
40
1
40
1
40
1
40
1
41
1
41
1
41
1
41
1
10
42.049286699295045
20
-15.961136134465537
30
0
10
42.028781652450569
20
-15.993679165840151
30
0
10
42.012023146947229
20
-16.022931861877442
30
0
10
42.012023146947229
20
-16.026141452789307
30
0
0
SPLINE
5
364
100
AcDbEntity
8
0
100
AcDbSpline
70
4
71
3
72
8
73
4
74
0
42
0.000000001
43
0.0000000001
44
0.0000000001
40
0
40
0
40
0
40
0
40
1
40
1
40
1
40
1
41
1
41
1
41
1
41
1
10
42.012023146947229
20
-16.026141452789307
30
0
10
42.012023146947229
20
-16.029351043701176
30
0
10
42.040802478790283
20
-16.044955913225813
30
0
10
42.075978787740084
20
-16.06081815560659
30
0
0
SPLINE
5
365
100
AcDbEntity
8
0
100
AcDbSpline
70
4
71
3
72
8
73
4
74
0
42
0.000000001
43
0.0000000001
44
0.0000000001
40
0
40
0
40
0
40
0
40
1
40
1
40
1
40
1
41
1
41
1
41
1
41
1
10
42.075978787740084
20
-16.06081815560659
30
0
10
42.138632424672451
20
-16.089071639378865
30
0
10
42.141131464640303
20
-16.088992913564049
30
0
10
42.198910156885788
20
-16.056986832618716
30
0
0
SPLINE
5
366
100
AcDbEntity
8
0
100
AcDbSpline
70
4
71
3
72
8
73
4
74
0
42
0.000000001
43
0.0000000001
44
0.0000000001
40
0
40
0
40
0
40
0
40
1
40
1
40
1
40
1
41
1
41
1
41
1
41
1
10
42.198910156885788
20
-16.056986832618716
30
0
10
42.282595698038747
20
-16.010631457964582
30
0
10
42.370590972900395
20
-16.000327459971114
30
0
10
42.497079133987434
20
-16.022070924441024
30
0
0
SPLINE
5
367
100
AcDbEntity
8
0
100
AcDbSpline
70
4
71
3
72
8
73
4
74
0
42
0.000000001
43
0.0000000001
44
0.0000000001
40
0
40
0
40
0
40
0
40
1
40
1
40
1
40
1
41
1
41
1
41
1
41
1
10
42.497079133987434
20
-16.022070924441024
30
0
10
42.69892203013103
20
-16.056768822669984
30
0
10
42.73088269233704
20
-16.079262200991316
30
0
10
43.002599795659393
20
-16.377835909525555
30
0
0
SPLINE
5
368
100
AcDbEntity
8
0
100
AcDbSpline
70
4
71
3
72
8
73
4
74
0
42
0.000000001
43
0.0000000001
44
0.0000000001
40
0
40
0
40
0
40
0
40
1
40
1
40
1
40
1
41
1
41
1
41
1
41
1
10
43.002599795659393
20
-16.377835909525555
30
0
10
43.16594576835633
20
-16.557322692871097
30
0
10
43.201616636912036
20
-16.616589101155601
30
0
10
43.213066196441652
20
-16.727498634656271
30
0
0
LINE
5
369
100
AcDbEntity
8
0
100
AcDbLine
10
43.213066196441652
20
-16.727498634656271
30
0
11
43.222194353739425
21
-16.816006636619569
31
0
0
LINE
5
370
100
AcDbEntity
8
0
100
AcDbLine
10
43.222194353739425
20
-16.816006636619569
30
0
11
43.140168110529586
21
-16.893015623092651
31
0
0
SPLINE
5
371
100
AcDbEntity
8
0
100
AcDbSpline
70
4
71
3
72
8
73
4
74
0
42
0.000000001
43
0.0000000001
44
0.0000000001
40
0
40
0
40
0
40
0
40
1
40
1
40
1
40
1
41
1
41
1
41
1
41
1
10
43.140168110529586
20
-16.893015623092651
30
0
10
42.94582839012147
20
-17.075473801294965
30
0
10
42.659989086786908
20
-17.082801357905073
30
0
10
42.352542575200403
20
-16.913205766677859
30
0
0
SPLINE
5
372
100
AcDbEntity
8
0
100
AcDbSpline
70
4
71
3
72
8
73
4
74
0
42
0.000000001
43
0.0000000001
44
0.0000000001
40
0
40
0
40
0
40
0
40
1
40
1
40
1
40
1
41
1
41
1
41
1
41
1
10
42.352542575200403
20
-16.913205766677859
30
0
10
42.212184540430712
20
-16.835779937108359
30
0
10
42.091657336552942
20
-16.72488655249278
30
0
10
42.009067900975552
20
-16.597183187802635
30
0
0
SPLINE
5
373
100
AcDbEntity
8
0
100
AcDbSpline
70
4
71
3
72
8
73
4
74
0
42
0.000000001
43
0.0000000001
44
0.0000000001
40
0
40
0
40
0
40
0
40
1
40
1
40
1
40
1
41
1
41
1
41
1
41
1
10
42.009067900975552
20
-16.597183187802635
30
0
10
41.95045754114787
20
-16.506553626060487
30
0
10
41.92994643847149
20
-16.488495135307314
30
0
10
41.833390235900879
20
-16.44250411987305
30
0
0
LINE
5
374
100
AcDbEntity
8
0
100
AcDbLine
10
41.833390235900879
20
-16.44250411987305
30
0
11
41.724070358276379
21
-16.390434058507285
31
0
0
LINE
5
375
100
AcDbEntity
8
0
100
AcDbLine
10
41.724070358276379
20
-16.390434058507285
30
0
11
41.570625670750943
21
-16.543687987327576
31
0
0
SPLINE
5
376
100
AcDbEntity
8
0
100
AcDbSpline
70
4
71
3
72
8
73
4
74
0
42
0.000000001
43
0.0000000001
44
0.0000000001
40
0
40
0
40
0
40
0
40
1
40
1
40
1
40
1
41
1
41
1
41
1
41
1
10
41.570625670750943
20
-16.543687987327576
30
0
10
41.457666238149017
20
-16.656508135795598
30
0
10
41.351434834798184
20
-16.740638780593876
30
0
10
41.167979462941489
20
-16.86256589094798
30
0
0
SPLINE
5
377
100
AcDbEntity
8
0
100
AcDbSpline
70
4
71
3
72
8
73
4
74
0
42
0.000000001
43
0.0000000001
44
0.0000000001
40
0
40
0
40
0
40
0
40
1
40
1
40
1
40
1
41
1
41
1
41
1
41
1
10
41.167979462941489
20
-16.86256589094798
30
0
10
40.970967102050793
20
-16.993502060572311
30
0
10
40.91864673296611
20
-17.035664780934653
30
0
10
40.918150154749561
20
-17.06388092041016
30
0
0
SPLINE
5
378
100
AcDbEntity
8
0
100
AcDbSpline
70
4
71
3
72
8
73
4
74
0
42
0.000000001
43
0.0000000001
44
0.0000000001
40
0
40
0
40
0
40
0
40
1
40
1
40
1
40
1
41
1
41
1
41
1
41
1
10
40.918150154749561
20
-17.06388092041016
30
0
10
40.91762127876283
20
-17.095514567693076
30
0
10
40.925346501668301
20
-17.099571975072227
30
0
10
40.986441771189384
20
-17.099571975072227
30
0
0
SPLINE
5
379
100
AcDbEntity
8
0
100
AcDbSpline
70
4
71
3
72
8
73
4
74
0
42
0.000000001
43
0.0000000001
44
0.0000000001
40
0
40
0
40
0
40
0
40
1
40
1
40
1
40
1
41
1
41
1
41
1
41
1
10
40.986441771189384
20
-17.099571975072227
30
0
10
41.036820236841848
20
-17.099571975072227
30
0
10
41.063494157791141
20
-17.090457948048911
30
0
10
41.085581795374551
20
-17.065689595540366
30
0
0
SPLINE
5
380
100
AcDbEntity
8
0
100
AcDbSpline
70
4
71
3
72
8
73
4
74
0
42
0.000000001
43
0.0000000001
44
0.0000000001
40
0
40
0
40
0
40
0
40
1
40
1
40
1
40
1
41
1
41
1
41
1
41
1
10
41.085581795374551
20
-17.065689595540366
30
0
10
41.138427003224706
20
-17.006433280309043
30
0
10
41.423810100555428
20
-16.765264821052554
30
0
10
41.468944215774542
20
-16.741719746589663
30
0
0
SPLINE
5
381
100
AcDbEntity
8
0
100
AcDbSpline
70
4
71
3
72
8
73
4
74
0
42
0.000000001
43
0.0000000001
44
0.0000000001
40
0
40
0
40
0
40
0
40
1
40
1
40
1
40
1
41
1
41
1
41
1
41
1
10
41.468944215774542
20
-16.741719746589663
30
0
10
41.552878046035779
20
-16.697934063275657
30
0
10
41.622925853729257
20
-16.723585557937625
30
0
10
41.671546109517422
20
-16.815908734003706
30
0
0
SPLINE
5
382
100
AcDbEntity
8
0
100
AcDbSpline
70
4
71
3
72
8
73
4
74
0
42
0.000000001
43
0.0000000001
44
0.0000000001
40
0
40
0
40
0
40
0
40
1
40
1
40
1
40
1
41
1
41
1
41
1
41
1
10
41.671546109517422
20
-16.815908734003706
30
0
10
41.691469796498623
20
-16.853751627604169
30
0
10
41.704788589477545
20
-16.858414618174237
30
0
10
41.822110239664724
20
-16.868648974100751
30
0
0
SPLINE
5
383
100
AcDbEntity
8
0
100
AcDbSpline
70
4
71
3
72
8
73
4
74
0
42
0.000000001
43
0.0000000001
44
0.0000000001
40
0
40
0
40
0
40
0
40
1
40
1
40
1
40
1
41
1
41
1
41
1
41
1
10
41.822110239664724
20
-16.868648974100751
30
0
10
41.983015712102265
20
-16.882685383160911
30
0
10
42.080746746063241
20
-16.911434435844424
30
0
10
42.240364344914752
20
-16.991689348220827
30
0
0
SPLINE
5
384
100
AcDbEntity
8
0
100
AcDbSpline
70
4
71
3
72
8
73
4
74
0
42
0.000000001
43
0.0000000001
44
0.0000000001
40
0
40
0
40
0
40
0
40
1
40
1
40
1
40
1
41
1
41
1
41
1
41
1
10
42.240364344914752
20
-16.991689348220827
30
0
10
42.497537358601889
20
-17.120991452534994
30
0
10
42.727927446365364
20
-17.421229505538943
30
0
10
42.663031133015963
20
-17.542489465077718
30
0
0
SPLINE
5
385
100
AcDbEntity
8
0
100
AcDbSpline
70
4
71
3
72
8
73
4
74
0
42
0.000000001
43
0.0000000001
44
0.0000000001
40
0
40
0
40
0
40
0
40
1
40
1
40
1
40
1
41
1
41
1
41
1
41
1
10
42.663031133015963
20
-17.542489465077718
30
0
10
42.653083419799813
20
-17.561101055145269
30
0
10
42.638953145345056
20
-17.572637414932252
30
0
10
42.631651830673221
20
-17.56812783877055
30
0
0
SPLINE
5
386
100
AcDbEntity
8
0
100
AcDbSpline
70
4
71
3
72
8
73
4
74
0
42
0.000000001
43
0.0000000001
44
0.0000000001
40
0
40
0
40
0
40
0
40
1
40
1
40
1
40
1
41
1
41
1
41
1
41
1
10
42.631651830673221
20
-17.56812783877055
30
0
10
42.624348497390756
20
-17.563616243998212
30
0
10
42.608659855524706
20
-17.572340679168704
30
0
10
42.596758127212539
20
-17.587510538101199
30
0
0
SPLINE
5
387
100
AcDbEntity
8
0
100
AcDbSpline
70
4
71
3
72
8
73
4
74
0
42
0.000000001
43
0.0000000001
44
0.0000000001
40
0
40
0
40
0
40
0
40
1
40
1
40
1
40
1
41
1
41
1
41
1
41
1
10
42.596758127212539
20
-17.587510538101199
30
0
10
42.577179622650156
20
-17.6124706586202
30
0
10
42.577760982513425
20
-17.613023757934574
30
0
10
42.602896722157801
20
-17.593324136734012
30
0
0
SPLINE
5
388
100
AcDbEntity
8
0
100
AcDbSpline
70
4
71
3
72
8
73
4
74
0
42
0.000000001
43
0.0000000001
44
0.0000000001
40
0
40
0
40
0
40
0
40
1
40
1
40
1
40
1
41
1
41
1
41
1
41
1
10
42.602896722157801
20
-17.593324136734012
30
0
10
42.618163474400845
20
-17.581351757049564
30
0
10
42.63065665562948
20
-17.578372287750245
30
0
10
42.63065665562948
20
-17.586705112457278
30
0
0
SPLINE
5
389
100
AcDbEntity
8
0
100
AcDbSpline
70
4
71
3
72
8
73
4
74
0
42
0.000000001
43
0.0000000001
44
0.0000000001
40
0
40
0
40
0
40
0
40
1
40
1
40
1
40
1
41
1
41
1
41
1
41
1
10
42.63065665562948
20
-17.586705112457278
30
0
10
42.63065665562948
20
-17.612601868311565
30
0
10
42.508797168731704
20
-17.701301638285322
30
0
10
42.407234811782843
20
-17.749334478378298
30
0
0
SPLINE
5
390
100
AcDbEntity
8
0
100
AcDbSpline
70
4
71
3
72
8
73
4
74
0
42
0.000000001
43
0.0000000001
44
0.0000000001
40
0
40
0
40
0
40
0
40
1
40
1
40
1
40
1
41
1
41
1
41
1
41
1
10
42.407234811782843
20
-17.749334478378298
30
0
10
42.261057122548422
20
-17.818463818232221
30
0
10
42.11835951805115
20
-17.839069795608523
30
0
10
41.940949885050465
20
-17.816661198933922
30
0
0
SPLINE
5
391
100
AcDbEntity
8
0
100
AcDbSpline
70
4
71
3
72
8
73
4
74
0
42
0.000000001
43
0.0000000001
44
0.0000000001
40
0
40
0
40
0
40
0
40
1
40
1
40
1
40
1
41
1
41
1
41
1
41
1
10
41.940949885050465
20
-17.816661198933922
30
0
10
41.860645516713468
20
-17.806519699096683
30
0
10
41.774194478988647
20
-17.787397400538129
30
0
10
41.748828617731739
20
-17.774171463648479
30
0
0
SPLINE
5
392
100
AcDbEntity
8
0
100
AcDbSpline
70
4
71
3
72
8
73
4
74
0
42
0.000000001
43
0.0000000001
44
0.0000000001
40
0
40
0
40
0
40
0
40
1
40
1
40
1
40
1
41
1
41
1
41
1
41
1
10
41.748828617731739
20
-17.774171463648479
30
0
10
41.723454682032269
20
-17.760945526758832
30
0
10
41.69399305979411
20
-17.750079345703128
30
0
10
41.683336814244598
20
-17.75002282460531
30
0
0
SPLINE
5
393
100
AcDbEntity
8
0
100
AcDbSpline
70
4
71
3
72
8
73
4
74
0
42
0.000000001
43
0.0000000001
44
0.0000000001
40
0
40
0
40
0
40
0
40
1
40
1
40
1
40
1
41
1
41
1
41
1
41
1
10
41.683336814244598
20
-17.75002282460531
30
0
10
41.644345331192021
20
-17.74982701937358
30
0
10
41.477454678217576
20
-17.667015536626181
30
0
10
41.357086944580089
20
-17.588140344619752
30
0
0
SPLINE
5
394
100
AcDbEntity
8
0
100
AcDbSpline
70
4
71
3
72
8
73
4
74
0
42
0.000000001
43
0.0000000001
44
0.0000000001
40
0
40
0
40
0
40
0
40
1
40
1
40
1
40
1
41
1
41
1
41
1
41
1
10
41.357086944580089
20
-17.588140344619752
30
0
10
41.243782329559338
20
-17.513891808191936
30
0
10
41.223388306299853
20
-17.506285683314008
30
0
10
41.111220169067394
20
-17.496432844797773
30
0
0
SPLINE
5
395
100
AcDbEntity
8
0
100
AcDbSpline
70
4
71
3
72
8
73
4
74
0
42
0.000000001
43
0.0000000001
44
0.0000000001
40
0
40
0
40
0
40
0
40
1
40
1
40
1
40
1
41
1
41
1
41
1
41
1
10
41.111220169067394
20
-17.496432844797773
30
0
10
41.043949969609585
20
-17.49052437146505
30
0
10
40.963153060277307
20
-17.488701566060389
30
0
10
40.931676864624023
20
-17.49238149325053
30
0
0
LINE
5
396
100
AcDbEntity
8
0
100
AcDbLine
10
40.931676864624023
20
-17.49238149325053
30
0
11
40.874445215861009
21
-17.499073187510174
31
0
0
LINE
5
397
100
AcDbEntity
8
0
100
AcDbLine
10
40.874445215861009
20
-17.499073187510174
30
0
11
40.865872176488253
21
-17.731570704778036
31
0
0
SPLINE
5
398
100
AcDbEntity
8
0
100
AcDbSpline
70
4
71
3
72
8
73
4
74
0
42
0.000000001
43
0.0000000001
44
0.0000000001
40
0
40
0
40
0
40
0
40
1
40
1
40
1
40
1
41
1
41
1
41
1
41
1
10
40.865872176488253
20
-17.73157070477804
30
0
10
40.861136515935272
20
-17.859443632761639
30
0
10
40.848516162236535
20
-17.998247337341311
30
0
10
40.83778926531474
20
-18.040020465850834
30
0
0
SPLINE
5
399
100
AcDbEntity
8
0
100
AcDbSpline
70
4
71
3
72
8
73
4
74
0
42
0.000000001
43
0.0000000001
44
0.0000000001
40
0
40
0
40
0
40
0
40
1
40
1
40
1
40
1
41
1
41
1
41
1
41
1
10
40.83778926531474
20
-18.040020465850834
30
0
10
40.827074480056773
20
-18.081795612970989
30
0
10
40.82260123888652
20
-18.120272350311282
30
0
10
40.82784155209859
20
-18.125524775187177
30
0
0
SPLINE
5
400
100
AcDbEntity
8
0
100
AcDbSpline
70
4
71
3
72
8
73
4
74
0
42
0.000000001
43
0.0000000001
44
0.0000000001
40
0
40
0
40
0
40
0
40
1
40
1
40
1
40
1
41
1
41
1
41
1
41
1
10
40.82784155209859
20
-18.125524775187177
30
0
10
40.833106088638317
20
-18.130777200063072
30
0
10
40.871483914057421
20
-18.117282787958786
30
0
10
40.913154093424488
20
-18.09553629557292
30
0
0
SPLINE
5
401
100
AcDbEntity
8
0
100
AcDbSpline
70
4
71
3
72
8
73
4
74
0
42
0.000000001
43
0.0000000001
44
0.0000000001
40
0
40
0
40
0
40
0
40
1
40
1
40
1
40
1
41
1
41
1
41
1
41
1
10
40.913154093424488
20
-18.09553629557292
30
0
10
41.156441084543864
20
-17.968569723765057
30
0
10
41.22457928657532
20
-17.939509805043542
30
0
10
41.352722708384206
20
-17.908071962992352
30
0
0
SPLINE
5
402
100
AcDbEntity
8
0
100
AcDbSpline
70
4
71
3
72
8
73
4
74
0
42
0.000000001
43
0.0000000001
44
0.0000000001
40
0
40
0
40
0
40
0
40
1
40
1
40
1
40
1
41
1
41
1
41
1
41
1
10
41.352722708384206
20
-17.908071962992352
30
0
10
41.536276992162072
20
-17.863038778305057
30
0
10
41.69226311047872
20
-17.862838935852054
30
0
10
41.826367489496867
20
-17.907464361190797
30
0
0
SPLINE
5
403
100
AcDbEntity
8
0
100
AcDbSpline
70
4
71
3
72
8
73
4
74
0
42
0.000000001
43
0.0000000001
44
0.0000000001
40
0
40
0
40
0
40
0
40
1
40
1
40
1
40
1
41
1
41
1
41
1
41
1
10
41.826367489496867
20
-17.907464361190797
30
0
10
41.882838122049968
20
-17.926255607604983
30
0
10
41.942360893885308
20
-17.956435855229699
30
0
10
41.958643007278447
20
-17.974528662363692
30
0
0
SPLINE
5
404
100
AcDbEntity
8
0
100
AcDbSpline
70
4
71
3
72
8
73
4
74
0
42
0.000000001
43
0.0000000001
44
0.0000000001
40
0
40
0
40
0
40
0
40
1
40
1
40
1
40
1
41
1
41
1
41
1
41
1
10
41.958643007278447
20
-17.974528662363692
30
0
10
42.000434303283697
20
-18.020972855885827
30
0
10
42.122439130147306
20
-18.07161575953166
30
0
10
42.295212014516196
20
-18.114236704508468
30
0
0
SPLINE
5
405
100
AcDbEntity
8
0
100
AcDbSpline
70
4
71
3
72
8
73
4
74
0
42
0.000000001
43
0.0000000001
44
0.0000000001
40
0
40
0
40
0
40
0
40
1
40
1
40
1
40
1
41
1
41
1
41
1
41
1
10
42.295212014516196
20
-18.114236704508468
30
0
10
42.418827692667648
20
-18.144731855392461
30
0
10
42.453864717483526
20
-18.160636488596602
30
0
10
42.505389753977461
20
-18.20964835484823
30
0
0
SPLINE
5
406
100
AcDbEntity
8
0
100
AcDbSpline
70
4
71
3
72
8
73
4
74
0
42
0.000000001
43
0.0000000001
44
0.0000000001
40
0
40
0
40
0
40
0
40
1
40
1
40
1
40
1
41
1
41
1
41
1
41
1
10
42.505389753977461
20
-18.20964835484823
30
0
10
42.605581474304216
20
-18.304961093266808
30
0
10
42.58742205301921
20
-18.388878774642947
30
0
10
42.435400485992439
20
-18.53303785324097
30
0
0
SPLINE
5
407
100
AcDbEntity
8
0
100
AcDbSpline
70
4
71
3
72
8
73
4
74
0
42
0.000000001
43
0.0000000001
44
0.0000000001
40
0
40
0
40
0
40
0
40
1
40
1
40
1
40
1
41
1
41
1
41
1
41
1
10
42.435400485992439
20
-18.53303785324097
30
0
10
42.089079570770274
20
-18.861445617675784
30
0
10
41.733868694305428
20
-18.956112400690717
30
0
10
41.242716503143313
20
-18.850900395711264
30
0
0
SPLINE
5
408
100
AcDbEntity
8
0
100
AcDbSpline
70
4
71
3
72
8
73
4
74
0
42
0.000000001
43
0.0000000001
44
0.0000000001
40
0
40
0
40
0
40
0
40
1
40
1
40
1
40
1
41
1
41
1
41
1
41
1
10
41.242716503143313
20
-18.850900395711264
30
0
10
40.826761595408129
20
-18.761794884999595
30
0
10
40.855189689000454
20
-18.765256802241012
30
0
10
40.777339951197305
20
-18.794246069590251
30
0
0
SPLINE
5
409
100
AcDbEntity
8
0
100
AcDbSpline
70
4
71
3
72
8
73
4
74
0
42
0.000000001
43
0.0000000001
44
0.0000000001
40
0
40
0
40
0
40
0
40
1
40
1
40
1
40
1
41
1
41
1
41
1
41
1
10
40.777339951197305
20
-18.794246069590251
30
0
10
40.717344824473074
20
-18.816588052113854
30
0
10
40.698351716995248
20
-18.835201660792038
30
0
10
40.653298346201581
20
-18.915802764892582
30
0
0
SPLINE
5
410
100
AcDbEntity
8
0
100
AcDbSpline
70
4
71
3
72
8
73
4
74
0
42
0.000000001
43
0.0000000001
44
0.0000000001
40
0
40
0
40
0
40
0
40
1
40
1
40
1
40
1
41
1
41
1
41
1
41
1
10
40.653298346201581
20
-18.915802764892582
30
0
10
40.624040603637695
20
-18.968147357304893
30
0
10
40.578464412689215
20
-19.082356309890748
30
0
10
40.552016576131194
20
-19.169598642985029
30
0
0
SPLINE
5
411
100
AcDbEntity
8
0
100
AcDbSpline
70
4
71
3
72
8
73
4
74
0
42
0.000000001
43
0.0000000001
44
0.0000000001
40
0
40
0
40
0
40
0
40
1
40
1
40
1
40
1
41
1
41
1
41
1
41
1
10
40.552016576131194
20
-19.169598642985029
30
0
10
40.335544808705649
20
-19.883704360326135
30
0
10
39.961982742945359
20
-20.757972701390589
30
0
10
39.660741440455126
20
-21.255491590499883
30
0
0
SPLINE
5
412
100
AcDbEntity
8
0
100
AcDbSpline
70
4
71
3
72
8
73
4
74
0
42
0.000000001
43
0.0000000001
44
0.0000000001
40
0
40
0
40
0
40
0
40
1
40
1
40
1
40
1
41
1
41
1
41
1
41
1
10
39.660741440455126
20
-21.255491590499883
30
0
10
39.320224030812589
20
-21.817878532409672
30
0
10
39.016974210739143
20
-22.211979961395265
30
0
10
38.864926401774092
20
-22.289722712834678
30
0
0
SPLINE
5
413
100
AcDbEntity
8
0
100
AcDbSpline
70
4
71
3
72
8
73
4
74
0
42
0.000000001
43
0.0000000001
44
0.0000000001
40
0
40
0
40
0
40
0
40
1
40
1
40
1
40
1
41
1
41
1
41
1
41
1
10
38.864926401774092
20
-22.289722712834678
30
0
10
38.81481439272563
20
-22.315344937642418
30
0
10
38.761971203486134
20
-22.322718922297163
30
0
10
38.587335141499842
20
-22.328457832336429
30
0
0
SPLINE
5
414
100
AcDbEntity
8
0
100
AcDbSpline
70
4
71
3
72
8
73
4
74
0
42
0.000000001
43
0.0000000001
44
0.0000000001
40
0
40
0
40
0
40
0
40
1
40
1
40
1
40
1
41
1
41
1
41
1
41
1
10
38.587335141499842
20
-22.328457832336429
30
0
10
38.393263896306358
20
-22.334836641947433
30
0
10
38.366652552286794
20
-22.332428439458212
30
0
10
38.322037220001228
20
-22.304460589090986
30
0
0
SPLINE
5
415
100
AcDbEntity
8
0
100
AcDbSpline
70
4
71
3
72
8
73
4
74
0
42
0.000000001
43
0.0000000001
44
0.0000000001
40
0
40
0
40
0
40
0
40
1
40
1
40
1
40
1
41
1
41
1
41
1
41
1
10
38.322037220001228
20
-22.304460589090986
30
0
10
38.264896408716844
20
-22.26873319943746
30
0
10
38.211978530883798
20
-22.150456746419277
30
0
10
38.226768891016647
20
-22.091525427500407
30
0
0
SPLINE
5
416
100
AcDbEntity
8
0
100
AcDbSpline
70
4
71
3
72
8
73
4
74
0
42
0.000000001
43
0.0000000001
44
0.0000000001
40
0
40
0
40
0
40
0
40
1
40
1
40
1
40
1
41
1
41
1
41
1
41
1
10
38.226768891016647
20
-22.091525427500407
30
0
10
38.231982962290452
20
-22.070749886830651
30
0
10
38.328409973780325
20
-21.956880060831708
30
0
10
38.441048447291067
20
-21.838482491175334
30
0
0
SPLINE
5
417
100
AcDbEntity
8
0
100
AcDbSpline
70
4
71
3
72
8
73
4
74
0
42
0.000000001
43
0.0000000001
44
0.0000000001
40
0
40
0
40
0
40
0
40
1
40
1
40
1
40
1
41
1
41
1
41
1
41
1
10
38.441048447291067
20
-21.838482491175334
30
0
10
38.553686920801809
20
-21.720084921518964
30
0
10
38.669427998860684
20
-21.58865923881531
30
0
10
38.698247702916468
20
-21.546425867080693
30
0
0
SPLINE
5
418
100
AcDbEntity
8
0
100
AcDbSpline
70
4
71
3
72
8
73
4
74
0
42
0.000000001
43
0.0000000001
44
0.0000000001
40
0
40
0
40
0
40
0
40
1
40
1
40
1
40
1
41
1
41
1
41
1
41
1
10
38.698247702916468
20
-21.546425867080693
30
0
10
38.72706740697226
20
-21.504192495346071
30
0
10
38.805205806096403
20
-21.398257827758794
30
0
10
38.871886571248375
20
-21.31101549466451
30
0
0
SPLINE
5
419
100
AcDbEntity
8
0
100
AcDbSpline
70
4
71
3
72
8
73
4
74
0
42
0.000000001
43
0.0000000001
44
0.0000000001
40
0
40
0
40
0
40
0
40
1
40
1
40
1
40
1
41
1
41
1
41
1
41
1
10
38.871886571248375
20
-21.31101549466451
30
0
10
39.070891300837204
20
-21.050647020339966
30
0
10
39.117930984497079
20
-20.975730323791506
30
0
10
39.305136934916185
20
-20.621003913879399
30
0
0
SPLINE
5
420
100
AcDbEntity
8
0
100
AcDbSpline
70
4
71
3
72
8
73
4
74
0
42
0.000000001
43
0.0000000001
44
0.0000000001
40
0
40
0
40
0
40
0
40
1
40
1
40
1
40
1
41
1
41
1
41
1
41
1
10
39.305136934916185
20
-20.621003913879399
30
0
10
39.435262632369998
20
-20.374434661865237
30
0
10
39.516332054138189
20
-20.206673987706509
30
0
10
39.569587039947514
20
-20.073754533131918
30
0
0
SPLINE
5
421
100
AcDbEntity
8
0
100
AcDbSpline
70
4
71
3
72
8
73
4
74
0
42
0.000000001
43
0.0000000001
44
0.0000000001
40
0
40
0
40
0
40
0
40
1
40
1
40
1
40
1
41
1
41
1
41
1
41
1
10
39.569587039947514
20
-20.073754533131918
30
0
10
39.594060675303147
20
-20.012683486938482
30
0
10
39.632200304667158
20
-19.930562369028731
30
0
10
39.654354556401579
20
-19.891260019938152
30
0
0
SPLINE
5
422
100
AcDbEntity
8
0
100
AcDbSpline
70
4
71
3
72
8
73
4
74
0
42
0.000000001
43
0.0000000001
44
0.0000000001
40
0
40
0
40
0
40
0
40
1
40
1
40
1
40
1
41
1
41
1
41
1
41
1
10
39.654354556401579
20
-19.891260019938152
30
0
10
39.822359482447311
20
-19.593202066421512
30
0
10
40.09478713671367
20
-18.792455561955773
30
0
10
40.04509298006694
20
-18.742761405309043
30
0
0
SPLINE
5
423
100
AcDbEntity
8
0
100
AcDbSpline
70
4
71
3
72
8
73
4
74
0
42
0.000000001
43
0.0000000001
44
0.0000000001
40
0
40
0
40
0
40
0
40
1
40
1
40
1
40
1
41
1
41
1
41
1
41
1
10
40.04509298006694
20
-18.742761405309043
30
0
10
40.019295136133834
20
-18.716975673039759
30
0
10
39.89663224220277
20
-18.727298847834273
30
0
10
39.831096029281625
20
-18.760771449406946
30
0
0
SPLINE
5
424
100
AcDbEntity
8
0
100
AcDbSpline
70
4
71
3
72
8
73
4
74
0
42
0.000000001
43
0.0000000001
44
0.0000000001
40
0
40
0
40
0
40
0
40
1
40
1
40
1
40
1
41
1
41
1
41
1
41
1
10
39.831096029281625
20
-18.760771449406946
30
0
10
39.732779598236093
20
-18.810986407597863
30
0
10
39.524822330474862
20
-18.871950467427574
30
0
10
39.394228315353402
20
-18.888844219843548
30
0
0
SPLINE
5
425
100
AcDbEntity
8
0
100
AcDbSpline
70
4
71
3
72
8
73
4
74
0
42
0.000000001
43
0.0000000001
44
0.0000000001
40
0
40
0
40
0
40
0
40
1
40
1
40
1
40
1
41
1
41
1
41
1
41
1
10
39.394228315353402
20
-18.888844219843548
30
0
10
39.20853228569031
20
-18.91286568641663
30
0
10
38.998154703776045
20
-18.875117667516076
30
0
10
38.956769148508712
20
-18.810352563858036
30
0
0
SPLINE
5
426
100
AcDbEntity
8
0
100
AcDbSpline
70
4
71
3
72
8
73
4
74
0
42
0.000000001
43
0.0000000001
44
0.0000000001
40
0
40
0
40
0
40
0
40
1
40
1
40
1
40
1
41
1
41
1
41
1
41
1
10
38.956769148508712
20
-18.810352563858036
30
0
10
38.933308855692552
20
-18.773638073603315
30
0
10
38.903641335169482
20
-18.679591004053755
30
0
10
38.903391027450567
20
-18.641136471430464
30
0
0
SPLINE
5
427
100
AcDbEntity
8
0
100
AcDbSpline
70
4
71
3
72
8
73
4
74
0
42
0.000000001
43
0.0000000001
44
0.0000000001
40
0
40
0
40
0
40
0
40
1
40
1
40
1
40
1
41
1
41
1
41
1
41
1
10
38.903391027450567
20
-18.641136471430464
30
0
10
38.90307410558065
20
-18.592808914184573
30
0
10
38.875639168421429
20
-18.5430400689443
30
0
10
38.849308411280319
20
-18.5430400689443
30
0
0
SPLINE
5
428
100
AcDbEntity
8
0
100
AcDbSpline
70
4
71
3
72
8
73
4
74
0
42
0.000000001
43
0.0000000001
44
0.0000000001
40
0
40
0
40
0
40
0
40
1
40
1
40
1
40
1
41
1
41
1
41
1
41
1
10
38.849308411280319
20
-18.5430400689443
30
0
10
38.815696525573735
20
-18.5430400689443
30
0
10
38.682964801788337
20
-18.418033568064374
30
0
10
38.582974942525233
20
-18.292207511266074
30
0
0
SPLINE
5
429
100
AcDbEntity
8
0
100
AcDbSpline
70
4
71
3
72
8
73
4
74
0
42
0.000000001
43
0.0000000001
44
0.0000000001
40
0
40
0
40
0
40
0
40
1
40
1
40
1
40
1
41
1
41
1
41
1
41
1
10
38.582974942525233
20
-18.292207511266074
30
0
10
38.45399581591289
20
-18.129901123046878
30
0
10
38.455196889241542
20
-18.094129323959354
30
0
10
38.592920637130746
20
-17.995851246515912
30
0
0
SPLINE
5
430
100
AcDbEntity
8
0
100
AcDbSpline
70
4
71
3
72
8
73
4
74
0
42
0.000000001
43
0.0000000001
44
0.0000000001
40
0
40
0
40
0
40
0
40
1
40
1
40
1
40
1
41
1
41
1
41
1
41
1
10
38.592920637130746
20
-17.995851246515912
30
0
10
38.740384181340545
20
-17.890623092651371
30
0
10
38.864488363265998
20
-17.845050938924157
30
0
10
39.084864123662314
20
-17.815205780665082
30
0
0
LINE
5
431
100
AcDbEntity
8
0
100
AcDbLine
10
39.084864123662314
20
-17.815205780665082
30
0
11
39.274508555730193
21
-17.789520978927616
31
0
0
LINE
5
432
100
AcDbEntity
8
0
100
AcDbLine
10
39.274508555730193
20
-17.789520978927616
30
0
11
39.28721369107565
21
-17.728371206919356
31
0
0
SPLINE
5
433
100
AcDbEntity
8
0
100
AcDbSpline
70
4
71
3
72
8
73
4
74
0
42
0.000000001
43
0.0000000001
44
0.0000000001
40
0
40
0
40
0
40
0
40
1
40
1
40
1
40
1
41
1
41
1
41
1
41
1
10
39.28721369107565
20
-17.728371206919356
30
0
10
39.307422002156585
20
-17.631106472015382
30
0
10
39.347410678863532
20
-17.575437227884933
30
0
10
39.397070519129443
20
-17.575437227884933
30
0
0
SPLINE
5
434
100
AcDbEntity
8
0
100
AcDbSpline
70
4
71
3
72
8
73
4
74
0
42
0.000000001
43
0.0000000001
44
0.0000000001
40
0
40
0
40
0
40
0
40
1
40
1
40
1
40
1
41
1
41
1
41
1
41
1
10
39.397070519129443
20
-17.575437227884933
30
0
10
39.454405117034923
20
-17.575437227884933
30
0
10
39.66782474517823
20
-17.686289230982467
30
0
10
39.78000499407451
20
-17.774334971110029
30
0
0
SPLINE
5
435
100
AcDbEntity
8
0
100
AcDbSpline
70
4
71
3
72
8
73
4
74
0
42
0.000000001
43
0.0000000001
44
0.0000000001
40
0
40
0
40
0
40
0
40
1
40
1
40
1
40
1
41
1
41
1
41
1
41
1
10
39.78000499407451
20
-17.774334971110029
30
0
10
39.82966483434042
20
-17.813312323888148
30
0
10
39.925203657150277
20
-17.916683355967209
30
0
10
39.992308330535892
20
-18.004048824310306
30
0
0
SPLINE
5
436
100
AcDbEntity
8
0
100
AcDbSpline
70
4
71
3
72
8
73
4
74
0
42
0.000000001
43
0.0000000001
44
0.0000000001
40
0
40
0
40
0
40
0
40
1
40
1
40
1
40
1
41
1
41
1
41
1
41
1
10
39.992308330535892
20
-18.004048824310306
30
0
10
40.083404191335049
20
-18.122644217809043
30
0
10
40.126671091715508
20
-18.166155370076499
30
0
10
40.163056548436487
20
-18.175755882263186
30
0
0
LINE
5
437
100
AcDbEntity
8
0
100
AcDbLine
10
40.163056548436487
20
-18.175755882263189
30
0
11
40.211789846420288
21
-18.188614432017012
31
0
0
LINE
5
438
100
AcDbEntity
8
0
100
AcDbLine
10
40.211789846420288
20
-18.188614432017012
30
0
11
40.247434473037728
21
-18.076337289810184
31
0
0
SPLINE
5
439
100
AcDbEntity
8
0
100
AcDbSpline
70
4
71
3
72
8
73
4
74
0
42
0.000000001
43
0.0000000001
44
0.0000000001
40
0
40
0
40
0
40
0
40
1
40
1
40
1
40
1
41
1
41
1
41
1
41
1
10
40.247434473037728
20
-18.076337289810184
30
0
10
40.316676855087287
20
-17.858226410547896
30
0
10
40.363651943206797
20
-17.56265942255656
30
0
10
40.403406461079925
20
-17.09500385920207
30
0
0
SPLINE
5
440
100
AcDbEntity
8
0
100
AcDbSpline
70
4
71
3
72
8
73
4
74
0
42
0.000000001
43
0.0000000001
44
0.0000000001
40
0
40
0
40
0
40
0
40
1
40
1
40
1
40
1
41
1
41
1
41
1
41
1
10
40.403406461079925
20
-17.09500385920207
30
0
10
40.415550422668467
20
-16.952132654190066
30
0
10
40.402877585093186
20
-16.927614609400436
30
0
10
40.298824262619029
20
-16.893286116917931
30
0
0
SPLINE
5
441
100
AcDbEntity
8
0
100
AcDbSpline
70
4
71
3
72
8
73
4
74
0
42
0.000000001
43
0.0000000001
44
0.0000000001
40
0
40
0
40
0
40
0
40
1
40
1
40
1
40
1
41
1
41
1
41
1
41
1
10
40.298824262619029
20
-16.893286116917931
30
0
10
40.239909092585258
20
-16.873841849962872
30
0
10
40.230421622594207
20
-16.875259923934941
30
0
10
40.158884080251063
20
-16.914195895195011
30
0
0
SPLINE
5
442
100
AcDbEntity
8
0
100
AcDbSpline
70
4
71
3
72
8
73
4
74
0
42
0.000000001
43
0.0000000001
44
0.0000000001
40
0
40
0
40
0
40
0
40
1
40
1
40
1
40
1
41
1
41
1
41
1
41
1
10
40.158884080251063
20
-16.914195895195011
30
0
10
40.116676950454718
20
-16.937166674931849
30
0
10
40.039933411280316
20
-16.966012620925905
30
0
10
39.988343779246016
20
-16.978293848037723
30
0
0
SPLINE
5
443
100
AcDbEntity
8
0
100
AcDbSpline
70
4
71
3
72
8
73
4
74
0
42
0.000000001
43
0.0000000001
44
0.0000000001
40
0
40
0
40
0
40
0
40
1
40
1
40
1
40
1
41
1
41
1
41
1
41
1
10
39.988343779246016
20
-16.978293848037723
30
0
10
39.936752128601086
20
-16.99057507514954
30
0
10
39.826733811696378
20
-17.020632187525432
30
0
10
39.743853696187344
20
-17.045087655385338
30
0
0
SPLINE
5
444
100
AcDbEntity
8
0
100
AcDbSpline
70
4
71
3
72
8
73
4
74
0
42
0.000000001
43
0.0000000001
44
0.0000000001
40
0
40
0
40
0
40
0
40
1
40
1
40
1
40
1
41
1
41
1
41
1
41
1
10
39.480318021774295
20
-17.090151119232178
30
0
10
39.305348889033006
20
-17.091077661514284
30
0
10
39.24310906728109
20
-17.035691022872928
30
0
10
39.164130926132209
20
-16.808749731381734
30
0
0
SPLINE
5
445
100
AcDbEntity
8
0
100
AcDbSpline
70
4
71
3
72
8
73
4
74
0
42
0.000000001
43
0.0000000001
44
0.0000000001
40
0
40
0
40
0
40
0
40
1
40
1
40
1
40
1
41
1
41
1
41
1
41
1
10
39.743853696187344
20
-17.045087655385338
30
0
10
39.642743508021042
20
-17.074920701980595
30
0
10
39.556032069524136
20
-17.089749415715538
30
0
10
39.480318021774295
20
-17.090151119232178
30
0
0
ENDSEC
0
SECTION
2
OBJECTS
0
DICTIONARY
5
C
100
AcDbDictionary
3
ACAD_GROUP
350
D
3
ACAD_MLINESTYLE
350
17
0
DICTIONARY
5
D
100
AcDbDictionary
0
DICTIONARY
5
1A
330
C
100
AcDbDictionary
0
DICTIONARY
5
17
100
AcDbDictionary
0
ENDSEC
0
EOF
