0
SECTION
2
HEADER
9
$INSUNITS
70
4
9
$ACADVER
1
AC1014
9
$HANDSEED
5
FFFF
0
ENDSEC
0
SECTION
2
TABLES
0
TABLE
2
VPORT
5
8
100
AcDbSymbolTable
0
ENDTAB
0
TABLE
2
LTYPE
5
5
100
AcDbSymbolTable
0
LTYPE
5
14
100
AcDbSymbolTableRecord
100
AcDbLinetypeTableRecord
2
BYBLOCK
70
0
0
LTYPE
5
15
100
AcDbSymbolTableRecord
100
AcDbLinetypeTableRecord
2
BYLAYER
70
0
0
ENDTAB
0
TABLE
2
LAYER
5
2
100
AcDbSymbolTable
70
2
0
LAYER
5
50
100
AcDbSymbolTableRecord
100
AcDbLayerTableRecord
2
0
70
0
6
CONTINUOUS
0
ENDTAB
0
TABLE
2
STYLE
5
3
100
AcDbSymbolTable
70
1
0
STYLE
5
11
100
AcDbSymbolTableRecord
100
AcDbTextStyleTableRecord
2
STANDARD
70
0
0
ENDTAB
0
TABLE
2
VIEW
5
6
100
AcDbSymbolTable
70
0
0
ENDTAB
0
TABLE
2
UCS
5
7
100
AcDbSymbolTable
70
0
0
ENDTAB
0
TABLE
2
APPID
5
9
100
AcDbSymbolTable
70
2
0
APPID
5
12
100
AcDbSymbolTableRecord
100
AcDbRegAppTableRecord
2
ACAD
70
0
0
ENDTAB
0
TABLE
2
DIMSTYLE
5
A
100
AcDbSymbolTable
70
1
0
ENDTAB
0
TABLE
2
BLOCK_RECORD
5
1
100
AcDbSymbolTable
70
1
0
BLOCK_RECORD
5
1F
100
AcDbSymbolTableRecord
100
AcDbBlockTableRecord
2
*MODEL_SPACE
0
BLOCK_RECORD
5
1B
100
AcDbSymbolTableRecord
100
AcDbBlockTableRecord
2
*PAPER_SPACE
0
ENDTAB
0
ENDSEC
0
SECTION
2
BLOCKS
0
BLOCK
5
20
100
AcDbEntity
100
AcDbBlockBegin
2
*MODEL_SPACE
0
ENDBLK
5
21
100
AcDbEntity
100
AcDbBlockEnd
0
BLOCK
5
1C
100
AcDbEntity
100
AcDbBlockBegin
2
*PAPER_SPACE
0
ENDBLK
5
1D
100
AcDbEntity
100
AcDbBlockEnd
0
ENDSEC
0
SECTION
2
ENTITIES
0
SPLINE
5
100
100
AcDbEntity
8
0
100
AcDbSpline
70
4
71
3
72
8
73
4
74
0
42
0.000000001
43
0.0000000001
44
0.0000000001
40
0
40
0
40
0
40
0
40
1
40
1
40
1
40
1
41
1
41
1
41
1
41
1
10
20.720816640543624
20
-55.288491249572772
30
0
10
20.273193769144701
20
-55.265713247151709
30
0
10
20.04028647391765
20
-55.297219721964538
30
0
10
19.518205130584722
20
-55.451126671325703
30
0
0
SPLINE
5
101
100
AcDbEntity
8
0
100
AcDbSpline
70
4
71
3
72
8
73
4
74
0
42
0.000000001
43
0.0000000001
44
0.0000000001
40
0
40
0
40
0
40
0
40
1
40
1
40
1
40
1
41
1
41
1
41
1
41
1
10
19.518205130584722
20
-55.451126671325703
30
0
10
19.162089916554777
20
-55.556110573303243
30
0
10
18.708851270365404
20
-55.689758746317565
30
0
10
18.511011279113777
20
-55.748120817036963
30
0
0
SPLINE
5
102
100
AcDbEntity
8
0
100
AcDbSpline
70
4
71
3
72
8
73
4
74
0
42
0.000000001
43
0.0000000001
44
0.0000000001
40
0
40
0
40
0
40
0
40
1
40
1
40
1
40
1
41
1
41
1
41
1
41
1
10
18.511011279113777
20
-55.748120817036963
30
0
10
18.237610654520676
20
-55.828784498067236
30
0
10
17.883736098297124
20
-55.846709760518408
30
0
10
17.036190124837244
20
-55.822833633911145
30
0
0
SPLINE
5
103
100
AcDbEntity
8
0
100
AcDbSpline
70
4
71
3
72
8
73
4
74
0
42
0.000000001
43
0.0000000001
44
0.0000000001
40
0
40
0
40
0
40
0
40
1
40
1
40
1
40
1
41
1
41
1
41
1
41
1
10
17.036190124837244
20
-55.822833633911145
30
0
10
15.933592697469081
20
-55.791779327880882
30
0
10
15.910592647878017
20
-55.787758255493181
30
0
10
14.985830780354823
20
-55.464392980428073
30
0
0
SPLINE
5
104
100
AcDbEntity
8
0
100
AcDbSpline
70
4
71
3
72
8
73
4
74
0
42
0.000000001
43
0.0000000001
44
0.0000000001
40
0
40
0
40
0
40
0
40
1
40
1
40
1
40
1
41
1
41
1
41
1
41
1
10
14.985830780354823
20
-55.464392980428073
30
0
10
14.471444380767828
20
-55.284518623840349
30
0
10
13.726839475321457
20
-55.025006040425637
30
0
10
13.33115545559693
20
-54.88768399605307
30
0
0
SPLINE
5
105
100
AcDbEntity
8
0
100
AcDbSpline
70
4
71
3
72
8
73
4
74
0
42
0.000000001
43
0.0000000001
44
0.0000000001
40
0
40
0
40
0
40
0
40
1
40
1
40
1
40
1
41
1
41
1
41
1
41
1
10
13.33115545559693
20
-54.88768399605307
30
0
10
12.099314463623053
20
-54.460182635477715
30
0
10
10.802655884114589
20
-54.338847987345396
30
0
10
9.3648721977946021
20
-54.516550318888363
30
0
0
SPLINE
5
106
100
AcDbEntity
8
0
100
AcDbSpline
70
4
71
3
72
8
73
4
74
0
42
0.000000001
43
0.0000000001
44
0.0000000001
40
0
40
0
40
0
40
0
40
1
40
1
40
1
40
1
41
1
41
1
41
1
41
1
10
9.3648721977946021
20
-54.516550318888363
30
0
10
9.0336141551411995
20
-54.557495817036965
30
0
10
8.983758509643561
20
-54.545109622172056
30
0
10
8.8792631114400287
20
-54.395918147257504
30
0
0
SPLINE
5
107
100
AcDbEntity
8
0
100
AcDbSpline
70
4
71
3
72
8
73
4
74
0
42
0.000000001
43
0.0000000001
44
0.0000000001
40
0
40
0
40
0
40
0
40
1
40
1
40
1
40
1
41
1
41
1
41
1
41
1
10
8.8792631114400287
20
-54.395918147257504
30
0
10
8.7332650785522521
20
-54.187476412943539
30
0
10
8.7312464679158577
20
-53.955852954081237
30
0
10
8.8730457906799369
20
-53.681661034118669
30
0
0
SPLINE
5
108
100
AcDbEntity
8
0
100
AcDbSpline
70
4
71
3
72
8
73
4
74
0
42
0.000000001
43
0.0000000001
44
0.0000000001
40
0
40
0
40
0
40
0
40
1
40
1
40
1
40
1
41
1
41
1
41
1
41
1
10
8.8730457906799369
20
-53.681661034118669
30
0
10
9.0008036578572632
20
-53.434607315551773
30
0
10
9.0861020689086978
20
-53.487333425374366
30
0
10
7.863538611419683
20
-53.057571220886253
30
0
0
SPLINE
5
109
100
AcDbEntity
8
0
100
AcDbSpline
70
4
71
3
72
8
73
4
74
0
42
0.000000001
43
0.0000000001
44
0.0000000001
40
0
40
0
40
0
40
0
40
1
40
1
40
1
40
1
41
1
41
1
41
1
41
1
10
7.863538611419683
20
-53.057571220886253
30
0
10
7.1633310283101448
20
-52.811429914327007
30
0
10
7.1047146126505574
20
-52.803202057373056
30
0
10
5.6692927007751512
20
-52.749555461100279
30
0
0
SPLINE
5
110
100
AcDbEntity
8
0
100
AcDbSpline
70
4
71
3
72
8
73
4
74
0
42
0.000000001
43
0.0000000001
44
0.0000000001
40
0
40
0
40
0
40
0
40
1
40
1
40
1
40
1
41
1
41
1
41
1
41
1
10
5.6692927007751512
20
-52.749555461100279
30
0
10
4.8581422770894411
20
-52.719244003784198
30
0
10
4.0326031967875204
20
-52.658491898071311
30
0
10
3.8347591683146205
20
-52.614558856180842
30
0
0
SPLINE
5
111
100
AcDbEntity
8
0
100
AcDbSpline
70
4
71
3
72
8
73
4
74
0
42
0.000000001
43
0.0000000001
44
0.0000000001
40
0
40
0
40
0
40
0
40
1
40
1
40
1
40
1
41
1
41
1
41
1
41
1
10
3.8347591683146205
20
-52.614558856180842
30
0
10
3.2035880689697303
20
-52.474402682474789
30
0
10
2.6096118892110232
20
-52.132724571716324
30
0
10
2.2349698667602578
20
-51.694298490376802
30
0
0
SPLINE
5
112
100
AcDbEntity
8
0
100
AcDbSpline
70
4
71
3
72
8
73
4
74
0
42
0.000000001
43
0.0000000001
44
0.0000000001
40
0
40
0
40
0
40
0
40
1
40
1
40
1
40
1
41
1
41
1
41
1
41
1
10
2.2349698667602578
20
-51.694298490376802
30
0
10
1.4950239146626829
20
-50.828371048461932
30
0
10
1.3292313858744342
20
-50.6645486836548
30
0
10
1.1928136790669799
20
-50.6645486836548
30
0
0
SPLINE
5
113
100
AcDbEntity
8
0
100
AcDbSpline
70
4
71
3
72
8
73
4
74
0
42
0.000000001
43
0.0000000001
44
0.0000000001
40
0
40
0
40
0
40
0
40
1
40
1
40
1
40
1
41
1
41
1
41
1
41
1
10
1.1928136790669799
20
-50.6645486836548
30
0
10
0.75820277183024465
20
-50.6645486836548
30
0
10
0.33735071469116584
20
-50.115567334981307
30
0
10
0.15964838314819707
20
-49.316835403930682
30
0
0
SPLINE
5
114
100
AcDbEntity
8
0
100
AcDbSpline
70
4
71
3
72
8
73
4
74
0
42
0.000000001
43
0.0000000001
44
0.0000000001
40
0
40
0
40
0
40
0
40
1
40
1
40
1
40
1
41
1
41
1
41
1
41
1
10
0.15964838314819707
20
-49.316835403930682
30
0
10
0.0025237684326208766
20
-48.610588137797059
30
0
10
0.052052399007165157
20
-47.3009620035604
30
0
10
0.26043357500203823
20
-46.651978683959982
30
0
0
LINE
5
115
100
AcDbEntity
8
0
100
AcDbLine
10
0.26043357500203823
20
-46.651978683959982
30
0
11
0.40537789313761774
21
-46.200560824564633
31
0
0
LINE
5
116
100
AcDbEntity
8
0
100
AcDbLine
10
0.40537789313761774
20
-46.200560824564633
30
0
11
0.22893113741048551
21
-45.884866269917822
31
0
0
SPLINE
5
117
100
AcDbEntity
8
0
100
AcDbSpline
70
4
71
3
72
8
73
4
74
0
42
0.000000001
43
0.0000000001
44
0.0000000001
40
0
40
0
40
0
40
0
40
1
40
1
40
1
40
1
41
1
41
1
41
1
41
1
10
0.22893113741048549
20
-45.884866269917822
30
0
10
0.010678955403649524
20
-45.494370079528821
30
0
10
-0.061974878621415597
20
-44.948271306844092
30
0
10
0.056545826283776482
20
-44.589144325744641
30
0
0
SPLINE
5
118
100
AcDbEntity
8
0
100
AcDbSpline
70
4
71
3
72
8
73
4
74
0
42
0.000000001
43
0.0000000001
44
0.0000000001
40
0
40
0
40
0
40
0
40
1
40
1
40
1
40
1
41
1
41
1
41
1
41
1
10
0.056545826283776482
20
-44.589144325744641
30
0
10
0.17869195589193082
20
-44.219044177225761
30
0
10
0.45539099026489638
20
-43.924997203043638
30
0
10
1.2446637118733763
20
-43.326543744893407
30
0
0
SPLINE
5
119
100
AcDbEntity
8
0
100
AcDbSpline
70
4
71
3
72
8
73
4
74
0
42
0.000000001
43
0.0000000001
44
0.0000000001
40
0
40
0
40
0
40
0
40
1
40
1
40
1
40
1
41
1
41
1
41
1
41
1
10
1.2446637118733763
20
-43.326543744893407
30
0
10
1.6170650765177448
20
-43.044176451853453
30
0
10
2.1579396848754921
20
-42.551138878356952
30
0
10
2.4466010058797241
20
-42.230902449778256
30
0
0
SPLINE
5
120
100
AcDbEntity
8
0
100
AcDbSpline
70
4
71
3
72
8
73
4
74
0
42
0.000000001
43
0.0000000001
44
0.0000000001
40
0
40
0
40
0
40
0
40
1
40
1
40
1
40
1
41
1
41
1
41
1
41
1
10
2.4466010058797241
20
-42.230902449778256
30
0
10
3.2252639099833216
20
-41.367078400146504
30
0
10
3.6226879720764202
20
-41.228601710489919
30
0
10
4.3289957965291386
20
-41.575007407358825
30
0
0
LINE
5
121
100
AcDbEntity
8
0
100
AcDbLine
10
4.3289957965291386
20
-41.575007407358825
30
0
11
4.7185109421488489
21
-41.766040643544528
31
0
0
LINE
5
122
100
AcDbEntity
8
0
100
AcDbLine
10
4.7185109421488489
20
-41.766040643544528
30
0
11
5.032029434529627
21
-41.512022718282076
31
0
0
SPLINE
5
123
100
AcDbEntity
8
0
100
AcDbSpline
70
4
71
3
72
8
73
4
74
0
42
0.000000001
43
0.0000000001
44
0.0000000001
40
0
40
0
40
0
40
0
40
1
40
1
40
1
40
1
41
1
41
1
41
1
41
1
10
5.032029434529627
20
-41.512022718282076
30
0
10
5.8737416232503303
20
-40.830055300882997
30
0
10
6.4846256856994682
20
-40.82946990379844
30
0
10
7.6477087621765181
20
-41.509378338348398
30
0
0
SPLINE
5
124
100
AcDbEntity
8
0
100
AcDbSpline
70
4
71
3
72
8
73
4
74
0
42
0.000000001
43
0.0000000001
44
0.0000000001
40
0
40
0
40
0
40
0
40
1
40
1
40
1
40
1
41
1
41
1
41
1
41
1
10
7.6477087621765181
20
-41.509378338348398
30
0
10
9.4238398517049209
20
-42.547848543019626
30
0
10
10.177540616678879
20
-42.814139620951352
30
0
10
11.562178322163906
20
-42.892397118103041
30
0
0
SPLINE
5
125
100
AcDbEntity
8
0
100
AcDbSpline
70
4
71
3
72
8
73
4
74
0
42
0.000000001
43
0.0000000001
44
0.0000000001
40
0
40
0
40
0
40
0
40
1
40
1
40
1
40
1
41
1
41
1
41
1
41
1
10
11.562178322163906
20
-42.892397118103041
30
0
10
12.642163273183193
20
-42.953439903747572
30
0
10
13.235489460316982
20
-43.111949285359714
30
0
10
13.782985111562098
20
-43.48570311913047
30
0
0
SPLINE
5
126
100
AcDbEntity
8
0
100
AcDbSpline
70
4
71
3
72
8
73
4
74
0
42
0.000000001
43
0.0000000001
44
0.0000000001
40
0
40
0
40
0
40
0
40
1
40
1
40
1
40
1
41
1
41
1
41
1
41
1
10
13.782985111562098
20
-43.48570311913047
30
0
10
14.139810876536057
20
-43.729292901845312
30
0
10
14.578713349985764
20
-44.150056140116391
30
0
10
14.734037364013677
20
-44.397453022491469
30
0
0
SPLINE
5
127
100
AcDbEntity
8
0
100
AcDbSpline
70
4
71
3
72
8
73
4
74
0
42
0.000000001
43
0.0000000001
44
0.0000000001
40
0
40
0
40
0
40
0
40
1
40
1
40
1
40
1
41
1
41
1
41
1
41
1
10
14.734037364013677
20
-44.397453022491469
30
0
10
15.046094382293706
20
-44.894475333384207
30
0
10
15.957347707438156
20
-45.870182896148691
30
0
10
16.257410141316736
20
-46.02857519834393
30
0
0
SPLINE
5
128
100
AcDbEntity
8
0
100
AcDbSpline
70
4
71
3
72
8
73
4
74
0
42
0.000000001
43
0.0000000001
44
0.0000000001
40
0
40
0
40
0
40
0
40
1
40
1
40
1
40
1
41
1
41
1
41
1
41
1
10
16.257410141316736
20
-46.02857519834393
30
0
10
16.363249934204106
20
-46.084442266316749
30
0
10
16.843182687449143
20
-46.168642553181982
30
0
10
17.323922884948736
20
-46.215692329895035
30
0
0
SPLINE
5
129
100
AcDbEntity
8
0
100
AcDbSpline
70
4
71
3
72
8
73
4
74
0
42
0.000000001
43
0.0000000001
44
0.0000000001
40
0
40
0
40
0
40
0
40
1
40
1
40
1
40
1
41
1
41
1
41
1
41
1
10
17.323922884948736
20
-46.215692329895035
30
0
10
18.114612671223963
20
-46.293061638366723
30
0
10
18.260965979583748
20
-46.288007037333188
30
0
10
18.858103303599044
20
-46.162683614583351
30
0
0
SPLINE
5
130
100
AcDbEntity
8
0
100
AcDbSpline
70
4
71
3
72
8
73
4
74
0
42
0.000000001
43
0.0000000001
44
0.0000000001
40
0
40
0
40
0
40
0
40
1
40
1
40
1
40
1
41
1
41
1
41
1
41
1
10
18.858103303599044
20
-46.162683614583351
30
0
10
19.359594818440762
20
-46.057433256001808
30
0
10
19.803446925170903
20
-46.024651019266784
30
0
10
20.70526122697958
20
-46.026249758890799
30
0
0
SPLINE
5
131
100
AcDbEntity
8
0
100
AcDbSpline
70
4
71
3
72
8
73
4
74
0
42
0.000000001
43
0.0000000001
44
0.0000000001
40
0
40
0
40
0
40
0
40
1
40
1
40
1
40
1
41
1
41
1
41
1
41
1
10
20.70526122697958
20
-46.026249758890799
30
0
10
21.832114279754645
20
-46.028365262837745
30
0
10
21.946537205067958
20
-46.041938400756848
30
0
10
22.961631898569749
20
-46.296033033223488
30
0
0
SPLINE
5
132
100
AcDbEntity
8
0
100
AcDbSpline
70
4
71
3
72
8
73
4
74
0
42
0.000000001
43
0.0000000001
44
0.0000000001
40
0
40
0
40
0
40
0
40
1
40
1
40
1
40
1
41
1
41
1
41
1
41
1
10
22.961631898569749
20
-46.296033033223488
30
0
10
23.549758144704192
20
-46.443254344156912
30
0
10
24.122014074015308
20
-46.56370080360923
30
0
10
24.233312190063483
20
-46.56370080360923
30
0
0
SPLINE
5
133
100
AcDbEntity
8
0
100
AcDbSpline
70
4
71
3
72
8
73
4
74
0
42
0.000000001
43
0.0000000001
44
0.0000000001
40
0
40
0
40
0
40
0
40
1
40
1
40
1
40
1
41
1
41
1
41
1
41
1
10
24.233312190063483
20
-46.56370080360923
30
0
10
24.443970358856205
20
-46.56370080360923
30
0
10
26.31307461707561
20
-47.314785449198418
30
0
10
27.160148235646574
20
-47.739832179239926
30
0
0
SPLINE
5
134
100
AcDbEntity
8
0
100
AcDbSpline
70
4
71
3
72
8
73
4
74
0
42
0.000000001
43
0.0000000001
44
0.0000000001
40
0
40
0
40
0
40
0
40
1
40
1
40
1
40
1
41
1
41
1
41
1
41
1
10
27.160148235646574
20
-47.739832179239926
30
0
10
27.747709270802826
20
-48.034654299906435
30
0
10
28.58118149090577
20
-48.340594927958179
30
0
10
28.873565129923509
20
-48.368766657999693
30
0
0
SPLINE
5
135
100
AcDbEntity
8
0
100
AcDbSpline
70
4
71
3
72
8
73
4
74
0
42
0.000000001
43
0.0000000001
44
0.0000000001
40
0
40
0
40
0
40
0
40
1
40
1
40
1
40
1
41
1
41
1
41
1
41
1
10
28.873565129923509
20
-48.368766657999693
30
0
10
29.284312022216806
20
-48.408339500915545
30
0
10
29.988677943237313
20
-48.071764437845879
30
0
10
30.901719757405605
20
-47.399623617024751
30
0
0
SPLINE
5
136
100
AcDbEntity
8
0
100
AcDbSpline
70
4
71
3
72
8
73
4
74
0
42
0.000000001
43
0.0000000001
44
0.0000000001
40
0
40
0
40
0
40
0
40
1
40
1
40
1
40
1
41
1
41
1
41
1
41
1
10
30.901719757405605
20
-47.399623617024751
30
0
10
31.273200635599778
20
-47.126150322448751
30
0
10
31.358353706685392
20
-47.02237758685304
30
0
10
31.423046140360526
20
-46.764278030883801
30
0
0
SPLINE
5
137
100
AcDbEntity
8
0
100
AcDbSpline
70
4
71
3
72
8
73
4
74
0
42
0.000000001
43
0.0000000001
44
0.0000000001
40
0
40
0
40
0
40
0
40
1
40
1
40
1
40
1
41
1
41
1
41
1
41
1
10
31.423046140360526
20
-46.764278030883801
30
0
10
31.977606928833016
20
-44.551783880086276
30
0
10
33.692691195495613
20
-42.848419666778582
30
0
10
35.898217102376307
20
-42.31968094556683
30
0
0
SPLINE
5
138
100
AcDbEntity
8
0
100
AcDbSpline
70
4
71
3
72
8
73
4
74
0
42
0.000000001
43
0.0000000001
44
0.0000000001
40
0
40
0
40
0
40
0
40
1
40
1
40
1
40
1
41
1
41
1
41
1
41
1
10
35.898217102376307
20
-42.31968094556683
30
0
10
36.66705744712322
20
-42.135365645579043
30
0
10
38.047657931335458
20
-42.122212378672295
30
0
10
38.748027003295903
20
-42.292530632507344
30
0
0
SPLINE
5
139
100
AcDbEntity
8
0
100
AcDbSpline
70
4
71
3
72
8
73
4
74
0
42
0.000000001
43
0.0000000001
44
0.0000000001
40
0
40
0
40
0
40
0
40
1
40
1
40
1
40
1
41
1
41
1
41
1
41
1
10
38.748027003295903
20
-42.292530632507344
30
0
10
39.377292534200038
20
-42.44555343040976
30
0
10
40.317068827636724
20
-42.882295990478532
30
0
10
40.877257502563481
20
-43.282041454803483
30
0
0
SPLINE
5
140
100
AcDbEntity
8
0
100
AcDbSpline
70
4
71
3
72
8
73
4
74
0
42
0.000000001
43
0.0000000001
44
0.0000000001
40
0
40
0
40
0
40
0
40
1
40
1
40
1
40
1
41
1
41
1
41
1
41
1
10
40.877257502563481
20
-43.282041454803483
30
0
10
42.41561644523113
20
-44.379794216644299
30
0
10
43.366042928385433
20
-46.251155281555192
30
0
10
43.366042928385433
20
-48.182408524047872
30
0
0
SPLINE
5
141
100
AcDbEntity
8
0
100
AcDbSpline
70
4
71
3
72
8
73
4
74
0
42
0.000000001
43
0.0000000001
44
0.0000000001
40
0
40
0
40
0
40
0
40
1
40
1
40
1
40
1
41
1
41
1
41
1
41
1
10
43.366042928385433
20
-48.182408524047872
30
0
10
43.366042928385433
20
-52.678839493286148
30
0
10
38.681178693461106
20
-55.580931409688333
30
0
10
34.606427411722827
20
-53.608635775736516
30
0
0
SPLINE
5
142
100
AcDbEntity
8
0
100
AcDbSpline
70
4
71
3
72
8
73
4
74
0
42
0.000000001
43
0.0000000001
44
0.0000000001
40
0
40
0
40
0
40
0
40
1
40
1
40
1
40
1
41
1
41
1
41
1
41
1
10
34.606427411722827
20
-53.608635775736516
30
0
10
34.029863767313643
20
-53.329566892476414
30
0
10
33.987900889404308
20
-53.320095571370459
30
0
10
33.64926684348552
20
-53.392725182067892
30
0
0
SPLINE
5
143
100
AcDbEntity
8
0
100
AcDbSpline
70
4
71
3
72
8
73
4
74
0
42
0.000000001
43
0.0000000001
44
0.0000000001
40
0
40
0
40
0
40
0
40
1
40
1
40
1
40
1
41
1
41
1
41
1
41
1
10
33.64926684348552
20
-53.392725182067892
30
0
10
33.454478991516126
20
-53.434502347798684
30
0
10
33.095134000467944
20
-53.536046537251806
30
0
10
32.850736773498546
20
-53.618381627889008
30
0
0
SPLINE
5
144
100
AcDbEntity
8
0
100
AcDbSpline
70
4
71
3
72
8
73
4
74
0
42
0.000000001
43
0.0000000001
44
0.0000000001
40
0
40
0
40
0
40
0
40
1
40
1
40
1
40
1
41
1
41
1
41
1
41
1
10
32.850736773498546
20
-53.618381627889008
30
0
10
32.606331472086595
20
-53.700716718526223
30
0
10
32.049364499735525
20
-53.848664729288757
30
0
10
31.613029699015307
20
-53.947164853902194
30
0
0
SPLINE
5
145
100
AcDbEntity
8
0
100
AcDbSpline
70
4
71
3
72
8
73
4
74
0
42
0.000000001
43
0.0000000001
44
0.0000000001
40
0
40
0
40
0
40
0
40
1
40
1
40
1
40
1
41
1
41
1
41
1
41
1
10
31.613029699015307
20
-53.947164853902194
30
0
10
30.909987986572276
20
-54.105868022135439
30
0
10
30.725163996704108
20
-54.1206038797811
30
0
10
29.989097814249682
20
-54.076670837890646
30
0
0
SPLINE
5
146
100
AcDbEntity
8
0
100
AcDbSpline
70
4
71
3
72
8
73
4
74
0
42
0.000000001
43
0.0000000001
44
0.0000000001
40
0
40
0
40
0
40
0
40
1
40
1
40
1
40
1
41
1
41
1
41
1
41
1
10
29.989097814249682
20
-54.076670837890646
30
0
10
29.502015142130542
20
-54.047602844726583
30
0
10
28.97997013378907
20
-53.970088196289083
30
0
10
28.726840397206633
20
-53.889263026407896
30
0
0
SPLINE
5
147
100
AcDbEntity
8
0
100
AcDbSpline
70
4
71
3
72
8
73
4
74
0
42
0.000000001
43
0.0000000001
44
0.0000000001
40
0
40
0
40
0
40
0
40
1
40
1
40
1
40
1
41
1
41
1
41
1
41
1
10
28.726840397206633
20
-53.889263026407896
30
0
10
28.163615731882739
20
-53.7094128931478
30
0
10
27.281793749816899
20
-53.641288821390809
30
0
10
26.947055622426358
20
-53.751755269856787
30
0
0
SPLINE
5
148
100
AcDbEntity
8
0
100
AcDbSpline
70
4
71
3
72
8
73
4
74
0
42
0.000000001
43
0.0000000001
44
0.0000000001
40
0
40
0
40
0
40
0
40
1
40
1
40
1
40
1
41
1
41
1
41
1
41
1
10
26.947055622426358
20
-53.751755269856787
30
0
10
26.708863604553233
20
-53.830368042480487
30
0
10
26.688556381551116
20
-53.860203107686374
30
0
10
26.664119081186936
20
-54.167492167643246
30
0
0
SPLINE
5
149
100
AcDbEntity
8
0
100
AcDbSpline
70
4
71
3
72
8
73
4
74
0
42
0.000000001
43
0.0000000001
44
0.0000000001
40
0
40
0
40
0
40
0
40
1
40
1
40
1
40
1
41
1
41
1
41
1
41
1
10
26.664119081186936
20
-54.167492167643246
30
0
10
26.630008598653166
20
-54.596341960123723
30
0
10
26.708855530110686
20
-54.741084417195651
30
0
10
27.159829295166023
20
-55.077481842529316
30
0
0
SPLINE
5
150
100
AcDbEntity
8
0
100
AcDbSpline
70
4
71
3
72
8
73
4
74
0
42
0.000000001
43
0.0000000001
44
0.0000000001
40
0
40
0
40
0
40
0
40
1
40
1
40
1
40
1
41
1
41
1
41
1
41
1
10
27.159829295166023
20
-55.077481842529316
30
0
10
27.957798191396087
20
-55.672721672546402
30
0
10
27.596382105834966
20
-56.319234212727878
30
0
10
26.391800431894946
20
-56.451340167215996
30
0
0
SPLINE
5
151
100
AcDbEntity
8
0
100
AcDbSpline
70
4
71
3
72
8
73
4
74
0
42
0.000000001
43
0.0000000001
44
0.0000000001
40
0
40
0
40
0
40
0
40
1
40
1
40
1
40
1
41
1
41
1
41
1
41
1
10
26.391800431894946
20
-56.451340167215996
30
0
10
26.136308920867926
20
-56.479358482849136
30
0
10
25.818777430541999
20
-56.547619820129412
30
0
10
25.686178935058599
20
-56.603018570434585
30
0
0
SPLINE
5
152
100
AcDbEntity
8
0
100
AcDbSpline
70
4
71
3
72
8
73
4
74
0
42
0.000000001
43
0.0000000001
44
0.0000000001
40
0
40
0
40
0
40
0
40
1
40
1
40
1
40
1
41
1
41
1
41
1
41
1
10
25.686178935058599
20
-56.603018570434585
30
0
10
25.317911684997565
20
-56.756893222025575
30
0
10
24.819008028991707
20
-56.783030192545596
30
0
10
24.30237693437704
20
-56.675656255574566
30
0
0
SPLINE
5
153
100
AcDbEntity
8
0
100
AcDbSpline
70
4
71
3
72
8
73
4
74
0
42
0.000000001
43
0.0000000001
44
0.0000000001
40
0
40
0
40
0
40
0
40
1
40
1
40
1
40
1
41
1
41
1
41
1
41
1
10
24.30237693437704
20
-56.675656255574566
30
0
10
24.004486525543221
20
-56.613668760152194
30
0
10
23.370360180226651
20
-56.349384181193052
30
0
10
22.555350173004157
20
-55.947543399027523
30
0
0
SPLINE
5
154
100
AcDbEntity
8
0
100
AcDbSpline
70
4
71
3
72
8
73
4
74
0
42
0.000000001
43
0.0000000001
44
0.0000000001
40
0
40
0
40
0
40
0
40
1
40
1
40
1
40
1
41
1
41
1
41
1
41
1
10
22.555350173004157
20
-55.947543399027523
30
0
10
21.336714931813564
20
-55.346691831441262
30
0
10
21.24958765952556
20
-55.315395292134617
30
0
10
20.720816640543624
20
-55.288491249572772
30
0
0
CIRCLE
5
155
100
AcDbEntity
8
0
100
AcDbCircle
10
38.504356649027656
20
-47.480433360424598
30
0
40
2.5500000000000043
210
0
220
0
230
1
0
ENDSEC
0
SECTION
2
OBJECTS
0
DICTIONARY
5
C
100
AcDbDictionary
3
ACAD_GROUP
350
D
3
ACAD_MLINESTYLE
350
17
0
DICTIONARY
5
D
100
AcDbDictionary
0
DICTIONARY
5
1A
330
C
100
AcDbDictionary
0
DICTIONARY
5
17
100
AcDbDictionary
0
ENDSEC
0
EOF
