0
SECTION
2
HEADER
9
$INSUNITS
70
4
9
$ACADVER
1
AC1014
9
$HANDSEED
5
FFFF
0
ENDSEC
0
SECTION
2
TABLES
0
TABLE
2
VPORT
5
8
100
AcDbSymbolTable
0
ENDTAB
0
TABLE
2
LTYPE
5
5
100
AcDbSymbolTable
0
LTYPE
5
14
100
AcDbSymbolTableRecord
100
AcDbLinetypeTableRecord
2
BYBLOCK
70
0
0
LTYPE
5
15
100
AcDbSymbolTableRecord
100
AcDbLinetypeTableRecord
2
BYLAYER
70
0
0
ENDTAB
0
TABLE
2
LAYER
5
2
100
AcDbSymbolTable
70
2
0
LAYER
5
50
100
AcDbSymbolTableRecord
100
AcDbLayerTableRecord
2
0
70
0
6
CONTINUOUS
0
ENDTAB
0
TABLE
2
STYLE
5
3
100
AcDbSymbolTable
70
1
0
STYLE
5
11
100
AcDbSymbolTableRecord
100
AcDbTextStyleTableRecord
2
STANDARD
70
0
0
ENDTAB
0
TABLE
2
VIEW
5
6
100
AcDbSymbolTable
70
0
0
ENDTAB
0
TABLE
2
UCS
5
7
100
AcDbSymbolTable
70
0
0
ENDTAB
0
TABLE
2
APPID
5
9
100
AcDbSymbolTable
70
2
0
APPID
5
12
100
AcDbSymbolTableRecord
100
AcDbRegAppTableRecord
2
ACAD
70
0
0
ENDTAB
0
TABLE
2
DIMSTYLE
5
A
100
AcDbSymbolTable
70
1
0
ENDTAB
0
TABLE
2
BLOCK_RECORD
5
1
100
AcDbSymbolTable
70
1
0
BLOCK_RECORD
5
1F
100
AcDbSymbolTableRecord
100
AcDbBlockTableRecord
2
*MODEL_SPACE
0
BLOCK_RECORD
5
1B
100
AcDbSymbolTableRecord
100
AcDbBlockTableRecord
2
*PAPER_SPACE
0
ENDTAB
0
ENDSEC
0
SECTION
2
BLOCKS
0
BLOCK
5
20
100
AcDbEntity
100
AcDbBlockBegin
2
*MODEL_SPACE
0
ENDBLK
5
21
100
AcDbEntity
100
AcDbBlockEnd
0
BLOCK
5
1C
100
AcDbEntity
100
AcDbBlockBegin
2
*PAPER_SPACE
0
ENDBLK
5
1D
100
AcDbEntity
100
AcDbBlockEnd
0
ENDSEC
0
SECTION
2
ENTITIES
0
SPLINE
5
100
100
AcDbEntity
8
0
100
AcDbSpline
70
4
71
3
72
8
73
4
74
0
42
0.000000001
43
0.0000000001
44
0.0000000001
40
0
40
0
40
0
40
0
40
1
40
1
40
1
40
1
41
1
41
1
41
1
41
1
10
44.748173014322923
20
-141.5790174484253
30
0
10
44.372275416056326
20
-141.33129758834841
30
0
10
43.643855730692557
20
-140.90892753601076
30
0
10
43.129469331105554
20
-140.640415986379
30
0
0
SPLINE
5
101
100
AcDbEntity
8
0
100
AcDbSpline
70
4
71
3
72
8
73
4
74
0
42
0.000000001
43
0.0000000001
44
0.0000000001
40
0
40
0
40
0
40
0
40
1
40
1
40
1
40
1
41
1
41
1
41
1
41
1
10
43.129469331105554
20
-140.640415986379
30
0
10
41.30546083450318
20
-139.68828579584761
30
0
10
40.721093241373708
20
-139.07623901367188
30
0
10
40.131004905700685
20
-137.49991807937622
30
0
0
SPLINE
5
102
100
AcDbEntity
8
0
100
AcDbSpline
70
4
71
3
72
8
73
4
74
0
42
0.000000001
43
0.0000000001
44
0.0000000001
40
0
40
0
40
0
40
0
40
1
40
1
40
1
40
1
41
1
41
1
41
1
41
1
10
40.131004905700685
20
-137.49991807937622
30
0
10
40.05323187510173
20
-137.29215863545735
30
0
10
39.951465638478602
20
-137.08172655105591
30
0
10
39.90485591888428
20
-137.03229481379194
30
0
0
SPLINE
5
103
100
AcDbEntity
8
0
100
AcDbSpline
70
4
71
3
72
8
73
4
74
0
42
0.000000001
43
0.0000000001
44
0.0000000001
40
0
40
0
40
0
40
0
40
1
40
1
40
1
40
1
41
1
41
1
41
1
41
1
10
39.90485591888428
20
-137.03229481379194
30
0
10
39.769290065765389
20
-136.88850514094037
30
0
10
39.312454255421962
20
-136.17189029057823
30
0
10
39.136536375681565
20
-135.82706314722697
30
0
0
SPLINE
5
104
100
AcDbEntity
8
0
100
AcDbSpline
70
4
71
3
72
8
73
4
74
0
42
0.000000001
43
0.0000000001
44
0.0000000001
40
0
40
0
40
0
40
0
40
1
40
1
40
1
40
1
41
1
41
1
41
1
41
1
10
39.136536375681565
20
-135.82706314722697
30
0
10
38.81386146545411
20
-135.19456380208334
30
0
10
38.693528048197436
20
-134.72633495330811
30
0
10
38.653075091044116
20
-133.94581089019778
30
0
0
LINE
5
105
100
AcDbEntity
8
0
100
AcDbLine
10
38.653075091044109
20
-133.94581089019778
30
0
11
38.613348833719897
21
-133.1794251759847
31
0
0
LINE
5
106
100
AcDbEntity
8
0
100
AcDbLine
10
38.613348833719897
20
-133.1794251759847
30
0
11
38.312002563476568
21
-132.92752679189047
31
0
0
SPLINE
5
107
100
AcDbEntity
8
0
100
AcDbSpline
70
4
71
3
72
8
73
4
74
0
42
0.000000001
43
0.0000000001
44
0.0000000001
40
0
40
0
40
0
40
0
40
1
40
1
40
1
40
1
41
1
41
1
41
1
41
1
10
38.312002563476568
20
-132.92752679189047
30
0
10
38.029958248138428
20
-132.69176921844485
30
0
10
37.573849137624109
20
-131.94613078435265
30
0
10
37.445360533396411
20
-131.51075280507405
30
0
0
SPLINE
5
108
100
AcDbEntity
8
0
100
AcDbSpline
70
4
71
3
72
8
73
4
74
0
42
0.000000001
43
0.0000000001
44
0.0000000001
40
0
40
0
40
0
40
0
40
1
40
1
40
1
40
1
41
1
41
1
41
1
41
1
10
37.445360533396411
20
-131.51075280507405
30
0
10
37.416167386372891
20
-131.41183280944824
30
0
10
37.231157684326178
20
-131.11212968826294
30
0
10
37.034234142303475
20
-130.84474452336627
30
0
0
SPLINE
5
109
100
AcDbEntity
8
0
100
AcDbSpline
70
4
71
3
72
8
73
4
74
0
42
0.000000001
43
0.0000000001
44
0.0000000001
40
0
40
0
40
0
40
0
40
1
40
1
40
1
40
1
41
1
41
1
41
1
41
1
10
37.034234142303475
20
-130.84474452336627
30
0
10
36.83731463750204
20
-130.57735935846966
30
0
10
36.574221038818365
20
-130.12412071228027
30
0
10
36.449592018127447
20
-129.83755067189534
30
0
0
SPLINE
5
110
100
AcDbEntity
8
0
100
AcDbSpline
70
4
71
3
72
8
73
4
74
0
42
0.000000001
43
0.0000000001
44
0.0000000001
40
0
40
0
40
0
40
0
40
1
40
1
40
1
40
1
41
1
41
1
41
1
41
1
10
36.449592018127447
20
-129.83755067189534
30
0
10
36.235304387410487
20
-129.34482396443687
30
0
10
36.22330172856649
20
-129.26960245768231
30
0
10
36.22869141896566
20
-128.45320364634199
30
0
0
SPLINE
5
111
100
AcDbEntity
8
0
100
AcDbSpline
70
4
71
3
72
8
73
4
74
0
42
0.000000001
43
0.0000000001
44
0.0000000001
40
0
40
0
40
0
40
0
40
1
40
1
40
1
40
1
41
1
41
1
41
1
41
1
10
36.22869141896566
20
-128.45320364634199
30
0
10
36.233931732177737
20
-127.66118965148927
30
0
10
36.253932126363125
20
-127.53753360112509
30
0
10
36.470936806996669
20
-126.955895169576
30
0
0
SPLINE
5
112
100
AcDbEntity
8
0
100
AcDbSpline
70
4
71
3
72
8
73
4
74
0
42
0.000000001
43
0.0000000001
44
0.0000000001
40
0
40
0
40
0
40
0
40
1
40
1
40
1
40
1
41
1
41
1
41
1
41
1
10
36.470936806996669
20
-126.955895169576
30
0
10
36.724062506357832
20
-126.27745224634808
30
0
10
36.943465296427419
20
-125.95820089975994
30
0
10
37.274101607004809
20
-125.78722457885743
30
0
0
SPLINE
5
113
100
AcDbEntity
8
0
100
AcDbSpline
70
4
71
3
72
8
73
4
74
0
42
0.000000001
43
0.0000000001
44
0.0000000001
40
0
40
0
40
0
40
0
40
1
40
1
40
1
40
1
41
1
41
1
41
1
41
1
10
37.274101607004809
20
-125.78722457885743
30
0
10
37.55179379781088
20
-125.64362465540569
30
0
10
37.841694545745852
20
-125.7177117029826
30
0
10
37.841694545745852
20
-125.93228193918864
30
0
0
SPLINE
5
114
100
AcDbEntity
8
0
100
AcDbSpline
70
4
71
3
72
8
73
4
74
0
42
0.000000001
43
0.0000000001
44
0.0000000001
40
0
40
0
40
0
40
0
40
1
40
1
40
1
40
1
41
1
41
1
41
1
41
1
10
37.841694545745852
20
-125.93228193918864
30
0
10
37.841694545745852
20
-126.02100795110069
30
0
10
37.880387274424237
20
-126.20364780426027
30
0
10
37.92768332163493
20
-126.33815186818441
30
0
0
SPLINE
5
115
100
AcDbEntity
8
0
100
AcDbSpline
70
4
71
3
72
8
73
4
74
0
42
0.000000001
43
0.0000000001
44
0.0000000001
40
0
40
0
40
0
40
0
40
1
40
1
40
1
40
1
41
1
41
1
41
1
41
1
10
37.92768332163493
20
-126.33815186818441
30
0
10
38.012533601125085
20
-126.57945658365887
30
0
10
38.014346313476565
20
-126.58031247456869
30
0
10
38.064399782816579
20
-126.40284430185955
30
0
0
SPLINE
5
116
100
AcDbEntity
8
0
100
AcDbSpline
70
4
71
3
72
8
73
4
74
0
42
0.000000001
43
0.0000000001
44
0.0000000001
40
0
40
0
40
0
40
0
40
1
40
1
40
1
40
1
41
1
41
1
41
1
41
1
10
38.064399782816579
20
-126.40284430185955
30
0
10
38.092296981811529
20
-126.30392430623374
30
0
10
38.118349170684823
20
-126.05620444615683
30
0
10
38.122297573089604
20
-125.85235706965129
30
0
0
SPLINE
5
117
100
AcDbEntity
8
0
100
AcDbSpline
70
4
71
3
72
8
73
4
74
0
42
0.000000001
43
0.0000000001
44
0.0000000001
40
0
40
0
40
0
40
0
40
1
40
1
40
1
40
1
41
1
41
1
41
1
41
1
10
38.122297573089604
20
-125.85235706965129
30
0
10
38.128805573781335
20
-125.51579411824545
30
0
10
38.109729703267419
20
-125.46922880808512
30
0
10
37.914828809102382
20
-125.34582710266115
30
0
0
SPLINE
5
118
100
AcDbEntity
8
0
100
AcDbSpline
70
4
71
3
72
8
73
4
74
0
42
0.000000001
43
0.0000000001
44
0.0000000001
40
0
40
0
40
0
40
0
40
1
40
1
40
1
40
1
41
1
41
1
41
1
41
1
10
37.914828809102382
20
-125.34582710266115
30
0
10
37.796780459086108
20
-125.27108198801677
30
0
10
37.308268610636397
20
-124.82710472742717
30
0
10
36.829248269399017
20
-124.3592069307963
30
0
0
SPLINE
5
119
100
AcDbEntity
8
0
100
AcDbSpline
70
4
71
3
72
8
73
4
74
0
42
0.000000001
43
0.0000000001
44
0.0000000001
40
0
40
0
40
0
40
0
40
1
40
1
40
1
40
1
41
1
41
1
41
1
41
1
10
36.829248269399017
20
-124.3592069307963
30
0
10
35.982578372955331
20
-123.53219830195108
30
0
10
35.959598509470624
20
-123.50158001581829
30
0
10
36.004787127176925
20
-123.26071939468385
30
0
0
SPLINE
5
120
100
AcDbEntity
8
0
100
AcDbSpline
70
4
71
3
72
8
73
4
74
0
42
0.000000001
43
0.0000000001
44
0.0000000001
40
0
40
0
40
0
40
0
40
1
40
1
40
1
40
1
41
1
41
1
41
1
41
1
10
36.004787127176925
20
-123.26071939468385
30
0
10
36.042684523264576
20
-123.05870087941489
30
0
10
36.106973234812422
20
-122.98696753184001
30
0
10
36.35295305252076
20
-122.87223777770997
30
0
0
SPLINE
5
121
100
AcDbEntity
8
0
100
AcDbSpline
70
4
71
3
72
8
73
4
74
0
42
0.000000001
43
0.0000000001
44
0.0000000001
40
0
40
0
40
0
40
0
40
1
40
1
40
1
40
1
41
1
41
1
41
1
41
1
10
36.35295305252076
20
-122.87223777770997
30
0
10
36.518882846832284
20
-122.79484828313193
30
0
10
36.762230396270759
20
-122.65272598266603
30
0
10
36.893726730346685
20
-122.55641403198243
30
0
0
SPLINE
5
122
100
AcDbEntity
8
0
100
AcDbSpline
70
4
71
3
72
8
73
4
74
0
42
0.000000001
43
0.0000000001
44
0.0000000001
40
0
40
0
40
0
40
0
40
1
40
1
40
1
40
1
41
1
41
1
41
1
41
1
10
36.893726730346685
20
-122.55641403198243
30
0
10
37.182327493031828
20
-122.34503320058188
30
0
10
37.652704143524176
20
-122.26304127375286
30
0
10
38.01031312942505
20
-122.36178363164268
30
0
0
SPLINE
5
123
100
AcDbEntity
8
0
100
AcDbSpline
70
4
71
3
72
8
73
4
74
0
42
0.000000001
43
0.0000000001
44
0.0000000001
40
0
40
0
40
0
40
0
40
1
40
1
40
1
40
1
41
1
41
1
41
1
41
1
10
38.01031312942505
20
-122.36178363164268
30
0
10
38.215189997355154
20
-122.41835317611695
30
0
10
38.273350207010914
20
-122.41377900441489
30
0
10
38.273350207010914
20
-122.34109287261964
30
0
0
SPLINE
5
124
100
AcDbEntity
8
0
100
AcDbSpline
70
4
71
3
72
8
73
4
74
0
42
0.000000001
43
0.0000000001
44
0.0000000001
40
0
40
0
40
0
40
0
40
1
40
1
40
1
40
1
41
1
41
1
41
1
41
1
10
38.273350207010914
20
-122.34109287261964
30
0
10
38.273350207010914
20
-122.28977575302125
30
0
10
38.32528098424276
20
-122.20468727747601
30
0
10
38.388758214314784
20
-122.15200961430868
30
0
0
SPLINE
5
125
100
AcDbEntity
8
0
100
AcDbSpline
70
4
71
3
72
8
73
4
74
0
42
0.000000001
43
0.0000000001
44
0.0000000001
40
0
40
0
40
0
40
0
40
1
40
1
40
1
40
1
41
1
41
1
41
1
41
1
10
38.388758214314784
20
-122.15200961430868
30
0
10
38.565701548258467
20
-122.00515972773235
30
0
10
38.64002679189047
20
-121.74846108754477
30
0
10
38.70613225301107
20
-121.05587981541952
30
0
0
SPLINE
5
126
100
AcDbEntity
8
0
100
AcDbSpline
70
4
71
3
72
8
73
4
74
0
42
0.000000001
43
0.0000000001
44
0.0000000001
40
0
40
0
40
0
40
0
40
1
40
1
40
1
40
1
41
1
41
1
41
1
41
1
10
38.70613225301107
20
-121.05587981541952
30
0
10
38.799472808837898
20
-120.07802848815919
30
0
10
39.168321418762211
20
-119.45128218332927
30
0
10
39.482913812001556
20
-119.7359829902649
30
0
0
SPLINE
5
127
100
AcDbEntity
8
0
100
AcDbSpline
70
4
71
3
72
8
73
4
74
0
42
0.000000001
43
0.0000000001
44
0.0000000001
40
0
40
0
40
0
40
0
40
1
40
1
40
1
40
1
41
1
41
1
41
1
41
1
10
39.482913812001556
20
-119.7359829902649
30
0
10
39.617627811431888
20
-119.85789899826051
30
0
10
39.624301338195806
20
-119.85158882141114
30
0
10
39.706725247701016
20
-119.52424688339234
30
0
0
SPLINE
5
128
100
AcDbEntity
8
0
100
AcDbSpline
70
4
71
3
72
8
73
4
74
0
42
0.000000001
43
0.0000000001
44
0.0000000001
40
0
40
0
40
0
40
0
40
1
40
1
40
1
40
1
41
1
41
1
41
1
41
1
10
39.706725247701016
20
-119.52424688339234
30
0
10
39.83209711710613
20
-119.0263484954834
30
0
10
39.979374949137373
20
-118.78422826131185
30
0
10
40.256227397918707
20
-118.62088228861492
30
0
0
SPLINE
5
129
100
AcDbEntity
8
0
100
AcDbSpline
70
4
71
3
72
8
73
4
74
0
42
0.000000001
43
0.0000000001
44
0.0000000001
40
0
40
0
40
0
40
0
40
1
40
1
40
1
40
1
41
1
41
1
41
1
41
1
10
40.256227397918707
20
-118.62088228861492
30
0
10
40.39737269083659
20
-118.53760652542114
30
0
10
40.5035637219747
20
-118.41738211313884
30
0
10
40.5035637219747
20
-118.34087273279827
30
0
0
SPLINE
5
130
100
AcDbEntity
8
0
100
AcDbSpline
70
4
71
3
72
8
73
4
74
0
42
0.000000001
43
0.0000000001
44
0.0000000001
40
0
40
0
40
0
40
0
40
1
40
1
40
1
40
1
41
1
41
1
41
1
41
1
10
40.5035637219747
20
-118.34087273279827
30
0
10
40.5035637219747
20
-118.08634208043416
30
0
10
40.806767114003506
20
-117.3974589029948
30
0
10
41.031398105621342
20
-117.14161615371705
30
0
0
SPLINE
5
131
100
AcDbEntity
8
0
100
AcDbSpline
70
4
71
3
72
8
73
4
74
0
42
0.000000001
43
0.0000000001
44
0.0000000001
40
0
40
0
40
0
40
0
40
1
40
1
40
1
40
1
41
1
41
1
41
1
41
1
10
41.031398105621342
20
-117.14161615371705
30
0
10
41.303809611002613
20
-116.83135569890341
30
0
10
41.616787115732834
20
-116.69060201644898
30
0
10
42.034268093109134
20
-116.69060201644898
30
0
0
SPLINE
5
132
100
AcDbEntity
8
0
100
AcDbSpline
70
4
71
3
72
8
73
4
74
0
42
0.000000001
43
0.0000000001
44
0.0000000001
40
0
40
0
40
0
40
0
40
1
40
1
40
1
40
1
41
1
41
1
41
1
41
1
10
42.034268093109134
20
-116.69060201644898
30
0
10
42.406697718302411
20
-116.69060201644898
30
0
10
42.464732774098721
20
-116.64808200200399
30
0
10
42.917979494730638
20
-116.04312054316203
30
0
0
SPLINE
5
133
100
AcDbEntity
8
0
100
AcDbSpline
70
4
71
3
72
8
73
4
74
0
42
0.000000001
43
0.0000000001
44
0.0000000001
40
0
40
0
40
0
40
0
40
1
40
1
40
1
40
1
41
1
41
1
41
1
41
1
10
42.917979494730638
20
-116.04312054316203
30
0
10
43.325306860605878
20
-115.49944814046225
30
0
10
43.416212972005212
20
-115.4190468788147
30
0
10
43.695443344116214
20
-115.35550101598105
30
0
0
SPLINE
5
134
100
AcDbEntity
8
0
100
AcDbSpline
70
4
71
3
72
8
73
4
74
0
42
0.000000001
43
0.0000000001
44
0.0000000001
40
0
40
0
40
0
40
0
40
1
40
1
40
1
40
1
41
1
41
1
41
1
41
1
10
43.695443344116214
20
-115.35550101598105
30
0
10
43.850331338246669
20
-115.32025203704833
30
0
10
43.938629404703782
20
-115.34547255833944
30
0
10
44.049967892964688
20
-115.45682315826417
30
0
0
LINE
5
135
100
AcDbEntity
8
0
100
AcDbLine
10
44.049967892964695
20
-115.45682315826417
30
0
11
44.198226769765228
21
-115.6050820350647
31
0
0
LINE
5
136
100
AcDbEntity
8
0
100
AcDbLine
10
44.198226769765228
20
-115.6050820350647
30
0
11
44.464844862620048
21
-115.36420930226643
31
0
0
SPLINE
5
137
100
AcDbEntity
8
0
100
AcDbSpline
70
4
71
3
72
8
73
4
74
0
42
0.000000001
43
0.0000000001
44
0.0000000001
40
0
40
0
40
0
40
0
40
1
40
1
40
1
40
1
41
1
41
1
41
1
41
1
10
44.464844862620041
20
-115.36420930226643
30
0
10
44.638881397247317
20
-115.20698375701905
30
0
10
44.840540599823001
20
-115.10503988265992
30
0
10
45.04557491938273
20
-115.07064275741577
30
0
0
SPLINE
5
138
100
AcDbEntity
8
0
100
AcDbSpline
70
4
71
3
72
8
73
4
74
0
42
0.000000001
43
0.0000000001
44
0.0000000001
40
0
40
0
40
0
40
0
40
1
40
1
40
1
40
1
41
1
41
1
41
1
41
1
10
45.04557491938273
20
-115.07064275741577
30
0
10
45.232046095530201
20
-115.03936236699423
30
0
10
45.455712191263842
20
-114.93390207290651
30
0
10
45.5960015932719
20
-114.8111099878947
30
0
0
SPLINE
5
139
100
AcDbEntity
8
0
100
AcDbSpline
70
4
71
3
72
8
73
4
74
0
42
0.000000001
43
0.0000000001
44
0.0000000001
40
0
40
0
40
0
40
0
40
1
40
1
40
1
40
1
41
1
41
1
41
1
41
1
10
45.5960015932719
20
-114.8111099878947
30
0
10
45.725975894927984
20
-114.69734512964885
30
0
10
45.860475921630865
20
-114.60427103042603
30
0
10
45.894889195760094
20
-114.60427103042603
30
0
0
SPLINE
5
140
100
AcDbEntity
8
0
100
AcDbSpline
70
4
71
3
72
8
73
4
74
0
42
0.000000001
43
0.0000000001
44
0.0000000001
40
0
40
0
40
0
40
0
40
1
40
1
40
1
40
1
41
1
41
1
41
1
41
1
10
45.894889195760094
20
-114.60427103042603
30
0
10
45.929302469889336
20
-114.60427103042603
30
0
10
46.053887081146243
20
-114.43430401484171
30
0
10
46.171737607320154
20
-114.22657283147176
30
0
0
SPLINE
5
141
100
AcDbEntity
8
0
100
AcDbSpline
70
4
71
3
72
8
73
4
74
0
42
0.000000001
43
0.0000000001
44
0.0000000001
40
0
40
0
40
0
40
0
40
1
40
1
40
1
40
1
41
1
41
1
41
1
41
1
10
46.171737607320154
20
-114.22657283147176
30
0
10
46.668251228332522
20
-113.35138198534648
30
0
10
46.97151114145916
20
-113.13276847203574
30
0
10
48.848895740509036
20
-112.29667003949484
30
0
0
SPLINE
5
142
100
AcDbEntity
8
0
100
AcDbSpline
70
4
71
3
72
8
73
4
74
0
42
0.000000001
43
0.0000000001
44
0.0000000001
40
0
40
0
40
0
40
0
40
1
40
1
40
1
40
1
41
1
41
1
41
1
41
1
10
48.848895740509036
20
-112.29667003949484
30
0
10
49.585349496205652
20
-111.9686882019043
30
0
10
49.651596260070804
20
-111.90216286977133
30
0
10
49.298048718770353
20
-111.84562966028849
30
0
0
SPLINE
5
143
100
AcDbEntity
8
0
100
AcDbSpline
70
4
71
3
72
8
73
4
74
0
42
0.000000001
43
0.0000000001
44
0.0000000001
40
0
40
0
40
0
40
0
40
1
40
1
40
1
40
1
41
1
41
1
41
1
41
1
10
49.298048718770353
20
-111.84562966028849
30
0
10
48.793060970306399
20
-111.76487917900087
30
0
10
48.681068452199305
20
-111.51804347038268
30
0
10
48.78247941335043
20
-110.7092790444692
30
0
0
SPLINE
5
144
100
AcDbEntity
8
0
100
AcDbSpline
70
4
71
3
72
8
73
4
74
0
42
0.000000001
43
0.0000000001
44
0.0000000001
40
0
40
0
40
0
40
0
40
1
40
1
40
1
40
1
41
1
41
1
41
1
41
1
10
48.78247941335043
20
-110.7092790444692
30
0
10
48.894383112589523
20
-109.81681494712831
30
0
10
49.183997217814131
20
-109.37475738525391
30
0
10
49.85608959197998
20
-109.07052450180053
30
0
0
SPLINE
5
145
100
AcDbEntity
8
0
100
AcDbSpline
70
4
71
3
72
8
73
4
74
0
42
0.000000001
43
0.0000000001
44
0.0000000001
40
0
40
0
40
0
40
0
40
1
40
1
40
1
40
1
41
1
41
1
41
1
41
1
10
49.85608959197998
20
-109.07052450180053
30
0
10
50.706001377105714
20
-108.68579951922099
30
0
10
51.80330600738526
20
-109.07774709065755
30
0
10
52.04970569610596
20
-109.85409061113995
30
0
0
SPLINE
5
146
100
AcDbEntity
8
0
100
AcDbSpline
70
4
71
3
72
8
73
4
74
0
42
0.000000001
43
0.0000000001
44
0.0000000001
40
0
40
0
40
0
40
0
40
1
40
1
40
1
40
1
41
1
41
1
41
1
41
1
10
52.04970569610596
20
-109.85409061113995
30
0
10
52.080271498362229
20
-109.95039045015972
30
0
10
52.321786149342856
20
-110.24113094011943
30
0
10
52.586401780446373
20
-110.50017924308777
30
0
0
SPLINE
5
147
100
AcDbEntity
8
0
100
AcDbSpline
70
4
71
3
72
8
73
4
74
0
42
0.000000001
43
0.0000000001
44
0.0000000001
40
0
40
0
40
0
40
0
40
1
40
1
40
1
40
1
41
1
41
1
41
1
41
1
10
52.586401780446373
20
-110.50017924308777
30
0
10
53.121482976277676
20
-111.02400062878928
30
0
10
53.39085849126181
20
-111.4589385509491
30
0
10
53.565347194671638
20
-112.08080991109213
30
0
0
LINE
5
148
100
AcDbEntity
8
0
100
AcDbLine
10
53.565347194671631
20
-112.08080991109213
30
0
11
53.682220713297539
21
-112.49734416007996
31
0
0
LINE
5
149
100
AcDbEntity
8
0
100
AcDbLine
10
53.682220713297539
20
-112.49734416007996
30
0
11
54.895538934071865
21
-112.54781144460043
31
0
0
SPLINE
5
150
100
AcDbEntity
8
0
100
AcDbSpline
70
4
71
3
72
8
73
4
74
0
42
0.000000001
43
0.0000000001
44
0.0000000001
40
0
40
0
40
0
40
0
40
1
40
1
40
1
40
1
41
1
41
1
41
1
41
1
10
54.895538934071865
20
-112.54781144460043
30
0
10
55.720375537872322
20
-112.58211975097657
30
0
10
56.155390167236334
20
-112.57337109247844
30
0
10
56.254205195109051
20
-112.52049156824748
30
0
0
SPLINE
5
151
100
AcDbEntity
8
0
100
AcDbSpline
70
4
71
3
72
8
73
4
74
0
42
0.000000001
43
0.0000000001
44
0.0000000001
40
0
40
0
40
0
40
0
40
1
40
1
40
1
40
1
41
1
41
1
41
1
41
1
10
56.254205195109051
20
-112.52049156824748
30
0
10
56.505627187093104
20
-112.38593300183615
30
0
10
56.573295052846284
20
-112.15772906939191
30
0
10
56.555010477701835
20
-111.50605090459187
30
0
0
LINE
5
152
100
AcDbEntity
8
0
100
AcDbLine
10
56.555010477701835
20
-111.50605090459187
30
0
11
56.537731170654311
21
-110.88984376589458
31
0
0
LINE
5
153
100
AcDbEntity
8
0
100
AcDbLine
10
56.537731170654311
20
-110.88984376589458
30
0
11
56.812024021148694
21
-110.55876739819844
31
0
0
SPLINE
5
154
100
AcDbEntity
8
0
100
AcDbSpline
70
4
71
3
72
8
73
4
74
0
42
0.000000001
43
0.0000000001
44
0.0000000001
40
0
40
0
40
0
40
0
40
1
40
1
40
1
40
1
41
1
41
1
41
1
41
1
10
56.812024021148694
20
-110.55876739819844
30
0
10
57.185592142740887
20
-110.10786226590476
30
0
10
57.382850774129246
20
-109.96458128293355
30
0
10
57.998002179463711
20
-109.69731117884319
30
0
0
SPLINE
5
155
100
AcDbEntity
8
0
100
AcDbSpline
70
4
71
3
72
8
73
4
74
0
42
0.000000001
43
0.0000000001
44
0.0000000001
40
0
40
0
40
0
40
0
40
1
40
1
40
1
40
1
41
1
41
1
41
1
41
1
10
57.998002179463711
20
-109.69731117884319
30
0
10
58.465379174550385
20
-109.49424096743266
30
0
10
58.618999481201179
20
-109.46478136380513
30
0
10
59.352506065368658
20
-109.43754828770956
30
0
0
SPLINE
5
156
100
AcDbEntity
8
0
100
AcDbSpline
70
4
71
3
72
8
73
4
74
0
42
0.000000001
43
0.0000000001
44
0.0000000001
40
0
40
0
40
0
40
0
40
1
40
1
40
1
40
1
41
1
41
1
41
1
41
1
10
59.352506065368658
20
-109.43754828770956
30
0
10
59.811211109161384
20
-109.42050919532775
30
0
10
60.492144997914643
20
-109.44794615109763
30
0
10
60.88075176874797
20
-109.49913206100464
30
0
0
SPLINE
5
157
100
AcDbEntity
8
0
100
AcDbSpline
70
4
71
3
72
8
73
4
74
0
42
0.000000001
43
0.0000000001
44
0.0000000001
40
0
40
0
40
0
40
0
40
1
40
1
40
1
40
1
41
1
41
1
41
1
41
1
10
60.88075176874797
20
-109.49913206100464
30
0
10
61.429688707987474
20
-109.5714245637258
30
0
10
61.663661829630541
20
-109.572944577535
30
0
10
61.959884866078703
20
-109.50614269574484
30
0
0
SPLINE
5
158
100
AcDbEntity
8
0
100
AcDbSpline
70
4
71
3
72
8
73
4
74
0
42
0.000000001
43
0.0000000001
44
0.0000000001
40
0
40
0
40
0
40
0
40
1
40
1
40
1
40
1
41
1
41
1
41
1
41
1
10
61.959884866078703
20
-109.50614269574484
30
0
10
62.524001757303878
20
-109.37893994649251
30
0
10
62.552960745493579
20
-109.34940565427144
30
0
10
62.462615807851165
20
-108.99347009658814
30
0
0
SPLINE
5
159
100
AcDbEntity
8
0
100
AcDbSpline
70
4
71
3
72
8
73
4
74
0
42
0.000000001
43
0.0000000001
44
0.0000000001
40
0
40
0
40
0
40
0
40
1
40
1
40
1
40
1
41
1
41
1
41
1
41
1
10
62.462615807851165
20
-108.99347009658814
30
0
10
62.35906915664674
20
-108.58553714752198
30
0
10
62.457746918996186
20
-108.33463595708211
30
0
10
62.820632553100594
20
-108.08315744400025
30
0
0
SPLINE
5
160
100
AcDbEntity
8
0
100
AcDbSpline
70
4
71
3
72
8
73
4
74
0
42
0.000000001
43
0.0000000001
44
0.0000000001
40
0
40
0
40
0
40
0
40
1
40
1
40
1
40
1
41
1
41
1
41
1
41
1
10
62.820632553100594
20
-108.08315744400025
30
0
10
63.058824570973719
20
-107.91808959643046
30
0
10
63.189311599731454
20
-107.880490954717
30
0
10
63.517291418711352
20
-107.88242882092794
30
0
0
SPLINE
5
161
100
AcDbEntity
8
0
100
AcDbSpline
70
4
71
3
72
8
73
4
74
0
42
0.000000001
43
0.0000000001
44
0.0000000001
40
0
40
0
40
0
40
0
40
1
40
1
40
1
40
1
41
1
41
1
41
1
41
1
10
63.517291418711352
20
-107.88242882092794
30
0
10
64.232053184509283
20
-107.88666184743246
30
0
10
64.606751728057873
20
-108.06892018318177
30
0
10
65.241891415913912
20
-108.72133514086406
30
0
0
LINE
5
162
100
AcDbEntity
8
0
100
AcDbLine
10
65.241891415913912
20
-108.72133514086406
30
0
11
65.806525071462005
21
-109.30132840474445
31
0
0
LINE
5
163
100
AcDbEntity
8
0
100
AcDbLine
10
65.806525071462005
20
-109.30132840474445
30
0
11
65.96755771636964
21
-109.14029575983683
31
0
0
SPLINE
5
164
100
AcDbEntity
8
0
100
AcDbSpline
70
4
71
3
72
8
73
4
74
0
42
0.000000001
43
0.0000000001
44
0.0000000001
40
0
40
0
40
0
40
0
40
1
40
1
40
1
40
1
41
1
41
1
41
1
41
1
10
65.96755771636964
20
-109.14029575983683
30
0
10
66.268698088328051
20
-108.83915740648905
30
0
10
66.637583033243828
20
-108.63304514884948
30
0
10
66.875395552317315
20
-108.63304514884948
30
0
0
SPLINE
5
165
100
AcDbEntity
8
0
100
AcDbSpline
70
4
71
3
72
8
73
4
74
0
42
0.000000001
43
0.0000000001
44
0.0000000001
40
0
40
0
40
0
40
0
40
1
40
1
40
1
40
1
41
1
41
1
41
1
41
1
10
66.875395552317315
20
-108.63304514884948
30
0
10
67.30107612609865
20
-108.63304514884948
30
0
10
67.51750348409017
20
-109.0391674041748
30
0
10
67.316470050811773
20
-109.46072799364727
30
0
0
SPLINE
5
166
100
AcDbEntity
8
0
100
AcDbSpline
70
4
71
3
72
8
73
4
74
0
42
0.000000001
43
0.0000000001
44
0.0000000001
40
0
40
0
40
0
40
0
40
1
40
1
40
1
40
1
41
1
41
1
41
1
41
1
10
67.316470050811773
20
-109.46072799364727
30
0
10
67.254321066538495
20
-109.5910555521647
30
0
10
67.182563495636003
20
-109.80915431976319
30
0
10
67.157003847757991
20
-109.94539237022401
30
0
0
SPLINE
5
167
100
AcDbEntity
8
0
100
AcDbSpline
70
4
71
3
72
8
73
4
74
0
42
0.000000001
43
0.0000000001
44
0.0000000001
40
0
40
0
40
0
40
0
40
1
40
1
40
1
40
1
41
1
41
1
41
1
41
1
10
67.157003847757991
20
-109.94539237022401
30
0
10
67.116300582885756
20
-110.16235667864481
30
0
10
67.138481076558435
20
-110.21660078366597
30
0
10
67.335654926300052
20
-110.38251846631368
30
0
0
SPLINE
5
168
100
AcDbEntity
8
0
100
AcDbSpline
70
4
71
3
72
8
73
4
74
0
42
0.000000001
43
0.0000000001
44
0.0000000001
40
0
40
0
40
0
40
0
40
1
40
1
40
1
40
1
41
1
41
1
41
1
41
1
10
67.335654926300052
20
-110.38251846631368
30
0
10
67.635240968068445
20
-110.6346045811971
30
0
10
68.153099377950042
20
-110.78137170473735
30
0
10
69.045624033610039
20
-110.86714448928834
30
0
0
SPLINE
5
169
100
AcDbEntity
8
0
100
AcDbSpline
70
4
71
3
72
8
73
4
74
0
42
0.000000001
43
0.0000000001
44
0.0000000001
40
0
40
0
40
0
40
0
40
1
40
1
40
1
40
1
41
1
41
1
41
1
41
1
10
69.045624033610039
20
-110.86714448928834
30
0
10
69.926771799723312
20
-110.95182116826376
30
0
10
70.048647435506197
20
-110.99342675209046
30
0
10
70.433095868428552
20
-111.34075495402018
30
0
0
SPLINE
5
170
100
AcDbEntity
8
0
100
AcDbSpline
70
4
71
3
72
8
73
4
74
0
42
0.000000001
43
0.0000000001
44
0.0000000001
40
0
40
0
40
0
40
0
40
1
40
1
40
1
40
1
41
1
41
1
41
1
41
1
10
70.433095868428552
20
-111.34075495402018
30
0
10
70.842615445454925
20
-111.71073600451152
30
0
10
71.030217043558764
20
-112.09676702817282
30
0
10
70.970950635274264
20
-112.44754705429077
30
0
0
SPLINE
5
171
100
AcDbEntity
8
0
100
AcDbSpline
70
4
71
3
72
8
73
4
74
0
42
0.000000001
43
0.0000000001
44
0.0000000001
40
0
40
0
40
0
40
0
40
1
40
1
40
1
40
1
41
1
41
1
41
1
41
1
10
70.970950635274264
20
-112.44754705429077
30
0
10
70.914276123046875
20
-112.78296949068705
30
0
10
70.578726514180502
20
-113.32869482040407
30
0
10
70.32824115753175
20
-113.49281997680664
30
0
0
SPLINE
5
172
100
AcDbEntity
8
0
100
AcDbSpline
70
4
71
3
72
8
73
4
74
0
42
0.000000001
43
0.0000000001
44
0.0000000001
40
0
40
0
40
0
40
0
40
1
40
1
40
1
40
1
41
1
41
1
41
1
41
1
10
70.32824115753175
20
-113.49281997680664
30
0
10
70.202530161539727
20
-113.57518938382468
30
0
10
70.143877410888692
20
-113.67816073099773
30
0
10
70.143877410888692
20
-113.81649208068849
30
0
0
SPLINE
5
173
100
AcDbEntity
8
0
100
AcDbSpline
70
4
71
3
72
8
73
4
74
0
42
0.000000001
43
0.0000000001
44
0.0000000001
40
0
40
0
40
0
40
0
40
1
40
1
40
1
40
1
41
1
41
1
41
1
41
1
10
70.143877410888692
20
-113.81649208068849
30
0
10
70.143877410888692
20
-113.92806876500447
30
0
10
70.112798881530779
20
-114.10110810597737
30
0
10
70.074808629353853
20
-114.20102529525757
30
0
0
SPLINE
5
174
100
AcDbEntity
8
0
100
AcDbSpline
70
4
71
3
72
8
73
4
74
0
42
0.000000001
43
0.0000000001
44
0.0000000001
40
0
40
0
40
0
40
0
40
1
40
1
40
1
40
1
41
1
41
1
41
1
41
1
10
70.074808629353853
20
-114.20102529525757
30
0
10
70.009139188130703
20
-114.37374973297119
30
0
10
70.014678255716973
20
-114.37929283777873
30
0
10
70.187406730651873
20
-114.31362339655558
30
0
0
SPLINE
5
175
100
AcDbEntity
8
0
100
AcDbSpline
70
4
71
3
72
8
73
4
74
0
42
0.000000001
43
0.0000000001
44
0.0000000001
40
0
40
0
40
0
40
0
40
1
40
1
40
1
40
1
41
1
41
1
41
1
41
1
10
70.187406730651873
20
-114.31362339655558
30
0
10
70.287327957153337
20
-114.27563314437867
30
0
10
70.570159530639657
20
-114.24455461502076
30
0
10
70.815921338399264
20
-114.24455461502076
30
0
0
SPLINE
5
176
100
AcDbEntity
8
0
100
AcDbSpline
70
4
71
3
72
8
73
4
74
0
42
0.000000001
43
0.0000000001
44
0.0000000001
40
0
40
0
40
0
40
0
40
1
40
1
40
1
40
1
41
1
41
1
41
1
41
1
10
70.815921338399264
20
-114.24455461502076
30
0
10
71.382949066162112
20
-114.24455461502076
30
0
10
72.428960800170913
20
-114.11487099329631
30
0
10
72.599929046630876
20
-114.02337544759115
30
0
0
SPLINE
5
177
100
AcDbEntity
8
0
100
AcDbSpline
70
4
71
3
72
8
73
4
74
0
42
0.000000001
43
0.0000000001
44
0.0000000001
40
0
40
0
40
0
40
0
40
1
40
1
40
1
40
1
41
1
41
1
41
1
41
1
10
72.599929046630876
20
-114.02337544759115
30
0
10
72.671751213073733
20
-113.98493706385295
30
0
10
72.765180587768569
20
-113.8887220064799
30
0
10
72.807539113362637
20
-113.80956622759501
30
0
0
SPLINE
5
178
100
AcDbEntity
8
0
100
AcDbSpline
70
4
71
3
72
8
73
4
74
0
42
0.000000001
43
0.0000000001
44
0.0000000001
40
0
40
0
40
0
40
0
40
1
40
1
40
1
40
1
41
1
41
1
41
1
41
1
10
72.807539113362637
20
-113.80956622759501
30
0
10
72.871690559387218
20
-113.68970516522725
30
0
10
72.841968536376967
20
-113.61366006533305
30
0
10
72.629804484049487
20
-113.35473893483481
30
0
0
SPLINE
5
179
100
AcDbEntity
8
0
100
AcDbSpline
70
4
71
3
72
8
73
4
74
0
42
0.000000001
43
0.0000000001
44
0.0000000001
40
0
40
0
40
0
40
0
40
1
40
1
40
1
40
1
41
1
41
1
41
1
41
1
10
72.629804484049487
20
-113.35473893483481
30
0
10
72.489688682556164
20
-113.18374040921529
30
0
10
72.255392583211275
20
-112.78791710535685
30
0
10
72.109156354268407
20
-112.47512935002646
30
0
0
SPLINE
5
180
100
AcDbEntity
8
0
100
AcDbSpline
70
4
71
3
72
8
73
4
74
0
42
0.000000001
43
0.0000000001
44
0.0000000001
40
0
40
0
40
0
40
0
40
1
40
1
40
1
40
1
41
1
41
1
41
1
41
1
10
72.109156354268407
20
-112.47512935002646
30
0
10
71.878461456298837
20
-111.98169814745586
30
0
10
71.842691675821953
20
-111.83420230547588
30
0
10
71.838904762268086
20
-111.36074121793112
30
0
0
SPLINE
5
181
100
AcDbEntity
8
0
100
AcDbSpline
70
4
71
3
72
8
73
4
74
0
42
0.000000001
43
0.0000000001
44
0.0000000001
40
0
40
0
40
0
40
0
40
1
40
1
40
1
40
1
41
1
41
1
41
1
41
1
10
71.838904762268086
20
-111.36074121793112
30
0
10
71.834827168782567
20
-110.85067464510601
30
0
10
71.851500892639166
20
-110.78950670560202
30
0
10
72.094380124410009
20
-110.42358104387918
30
0
0
SPLINE
5
182
100
AcDbEntity
8
0
100
AcDbSpline
70
4
71
3
72
8
73
4
74
0
42
0.000000001
43
0.0000000001
44
0.0000000001
40
0
40
0
40
0
40
0
40
1
40
1
40
1
40
1
41
1
41
1
41
1
41
1
10
72.094380124410009
20
-110.42358104387918
30
0
10
72.339358711242681
20
-110.05450634956361
30
0
10
72.393271764119476
20
-110.01664932568869
30
0
10
73.036538378397637
20
-109.76204802195232
30
0
0
SPLINE
5
183
100
AcDbEntity
8
0
100
AcDbSpline
70
4
71
3
72
8
73
4
74
0
42
0.000000001
43
0.0000000001
44
0.0000000001
40
0
40
0
40
0
40
0
40
1
40
1
40
1
40
1
41
1
41
1
41
1
41
1
10
73.036538378397637
20
-109.76204802195232
30
0
10
73.417603619893413
20
-109.61122550964356
30
0
10
73.787057813008644
20
-109.41354902585347
30
0
10
73.873341306050634
20
-109.31431816418966
30
0
0
SPLINE
5
184
100
AcDbEntity
8
0
100
AcDbSpline
70
4
71
3
72
8
73
4
74
0
42
0.000000001
43
0.0000000001
44
0.0000000001
40
0
40
0
40
0
40
0
40
1
40
1
40
1
40
1
41
1
41
1
41
1
41
1
10
73.873341306050634
20
-109.31431816418966
30
0
10
73.973585510253926
20
-109.19902925491334
30
0
10
74.103777821858742
20
-109.13664005597433
30
0
10
74.244127782185885
20
-109.13664005597433
30
0
0
SPLINE
5
185
100
AcDbEntity
8
0
100
AcDbSpline
70
4
71
3
72
8
73
4
74
0
42
0.000000001
43
0.0000000001
44
0.0000000001
40
0
40
0
40
0
40
0
40
1
40
1
40
1
40
1
41
1
41
1
41
1
41
1
10
74.244127782185885
20
-109.13664005597433
30
0
10
74.363096618652349
20
-109.13664005597433
30
0
10
74.460434023539236
20
-109.10322801272075
30
0
10
74.460434023539236
20
-109.06238748232525
30
0
0
SPLINE
5
186
100
AcDbEntity
8
0
100
AcDbSpline
70
4
71
3
72
8
73
4
74
0
42
0.000000001
43
0.0000000001
44
0.0000000001
40
0
40
0
40
0
40
0
40
1
40
1
40
1
40
1
41
1
41
1
41
1
41
1
10
74.460434023539236
20
-109.06238748232525
30
0
10
74.460434023539236
20
-108.91997046470642
30
0
10
74.266001447041845
20
-108.524391412735
30
0
10
74.147840054829928
20
-108.42639190355938
30
0
0
SPLINE
5
187
100
AcDbEntity
8
0
100
AcDbSpline
70
4
71
3
72
8
73
4
74
0
42
0.000000001
43
0.0000000001
44
0.0000000001
40
0
40
0
40
0
40
0
40
1
40
1
40
1
40
1
41
1
41
1
41
1
41
1
10
74.147840054829928
20
-108.42639190355938
30
0
10
73.983823903401714
20
-108.29037590026856
30
0
10
73.998705101013201
20
-108.03507817586264
30
0
10
74.18021856943767
20
-107.87081171671551
30
0
0
SPLINE
5
188
100
AcDbEntity
8
0
100
AcDbSpline
70
4
71
3
72
8
73
4
74
0
42
0.000000001
43
0.0000000001
44
0.0000000001
40
0
40
0
40
0
40
0
40
1
40
1
40
1
40
1
41
1
41
1
41
1
41
1
10
74.18021856943767
20
-107.87081171671551
30
0
10
74.55947513580324
20
-107.52759138743085
30
0
10
75.533971532185888
20
-107.84078892072043
30
0
10
76.232951800028502
20
-108.53055221239727
30
0
0
SPLINE
5
189
100
AcDbEntity
8
0
100
AcDbSpline
70
4
71
3
72
8
73
4
74
0
42
0.000000001
43
0.0000000001
44
0.0000000001
40
0
40
0
40
0
40
0
40
1
40
1
40
1
40
1
41
1
41
1
41
1
41
1
10
76.232951800028502
20
-108.53055221239727
30
0
10
76.783459218343111
20
-109.07379666964215
30
0
10
76.940313339233413
20
-109.41641141573589
30
0
10
76.938609631856295
20
-110.07189062436423
30
0
0
SPLINE
5
190
100
AcDbEntity
8
0
100
AcDbSpline
70
4
71
3
72
8
73
4
74
0
42
0.000000001
43
0.0000000001
44
0.0000000001
40
0
40
0
40
0
40
0
40
1
40
1
40
1
40
1
41
1
41
1
41
1
41
1
10
76.938609631856295
20
-110.07189062436423
30
0
10
76.937285423278823
20
-110.53199860254924
30
0
10
76.905996958414718
20
-110.66849907239279
30
0
10
76.725315157572439
20
-110.99877808888752
30
0
0
SPLINE
5
191
100
AcDbEntity
8
0
100
AcDbSpline
70
4
71
3
72
8
73
4
74
0
42
0.000000001
43
0.0000000001
44
0.0000000001
40
0
40
0
40
0
40
0
40
1
40
1
40
1
40
1
41
1
41
1
41
1
41
1
10
76.725315157572439
20
-110.99877808888752
30
0
10
76.512472852071141
20
-111.38784308433532
30
0
10
76.165578651428234
20
-111.67504494984945
30
0
10
75.796673520406102
20
-111.76763660113018
30
0
0
SPLINE
5
192
100
AcDbEntity
8
0
100
AcDbSpline
70
4
71
3
72
8
73
4
74
0
42
0.000000001
43
0.0000000001
44
0.0000000001
40
0
40
0
40
0
40
0
40
1
40
1
40
1
40
1
41
1
41
1
41
1
41
1
10
75.796673520406102
20
-111.76763660113018
30
0
10
75.526292737325051
20
-111.83550027211508
30
0
10
75.502578099568694
20
-111.92855620384216
30
0
10
75.713401794433608
20
-112.09438910484315
30
0
0
SPLINE
5
193
100
AcDbEntity
8
0
100
AcDbSpline
70
4
71
3
72
8
73
4
74
0
42
0.000000001
43
0.0000000001
44
0.0000000001
40
0
40
0
40
0
40
0
40
1
40
1
40
1
40
1
41
1
41
1
41
1
41
1
10
75.713401794433608
20
-112.09438910484315
30
0
10
75.950782330830904
20
-112.28111058870951
30
0
10
75.947060012817388
20
-112.35956590970358
30
0
10
75.686384709676119
20
-112.66453760464987
30
0
0
SPLINE
5
194
100
AcDbEntity
8
0
100
AcDbSpline
70
4
71
3
72
8
73
4
74
0
42
0.000000001
43
0.0000000001
44
0.0000000001
40
0
40
0
40
0
40
0
40
1
40
1
40
1
40
1
41
1
41
1
41
1
41
1
10
75.686384709676119
20
-112.66453760464987
30
0
10
75.414760462443041
20
-112.98232142130533
30
0
10
75.415834363301599
20
-113.09480042457581
30
0
10
75.693344879150402
20
-113.39162096977233
30
0
0
SPLINE
5
195
100
AcDbEntity
8
0
100
AcDbSpline
70
4
71
3
72
8
73
4
74
0
42
0.000000001
43
0.0000000001
44
0.0000000001
40
0
40
0
40
0
40
0
40
1
40
1
40
1
40
1
41
1
41
1
41
1
41
1
10
75.693344879150402
20
-113.39162096977233
30
0
10
76.337709617614763
20
-114.08080895741782
30
0
10
76.415991338094088
20
-114.37281713485717
30
0
10
76.124552408854186
20
-115.00011250178019
30
0
0
SPLINE
5
196
100
AcDbEntity
8
0
100
AcDbSpline
70
4
71
3
72
8
73
4
74
0
42
0.000000001
43
0.0000000001
44
0.0000000001
40
0
40
0
40
0
40
0
40
1
40
1
40
1
40
1
41
1
41
1
41
1
41
1
10
76.124552408854186
20
-115.00011250178019
30
0
10
75.924871444702148
20
-115.42991911570232
30
0
10
75.681733830769872
20
-115.70070362091066
30
0
10
75.290002250671392
20
-115.92957369486491
30
0
0
SPLINE
5
197
100
AcDbEntity
8
0
100
AcDbSpline
70
4
71
3
72
8
73
4
74
0
42
0.000000001
43
0.0000000001
44
0.0000000001
40
0
40
0
40
0
40
0
40
1
40
1
40
1
40
1
41
1
41
1
41
1
41
1
10
75.290002250671392
20
-115.92957369486491
30
0
10
74.668455886840832
20
-116.2927136739095
30
0
10
74.10293807983399
20
-116.47544638315837
30
0
10
73.257810401916515
20
-116.5862317721049
30
0
0
SPLINE
5
198
100
AcDbEntity
8
0
100
AcDbSpline
70
4
71
3
72
8
73
4
74
0
42
0.000000001
43
0.0000000001
44
0.0000000001
40
0
40
0
40
0
40
0
40
1
40
1
40
1
40
1
41
1
41
1
41
1
41
1
10
73.257810401916515
20
-116.5862317721049
30
0
10
72.792577171325689
20
-116.64722207387288
30
0
10
72.275425275166839
20
-116.73148695627847
30
0
10
72.10859921773276
20
-116.7734982808431
30
0
0
SPLINE
5
199
100
AcDbEntity
8
0
100
AcDbSpline
70
4
71
3
72
8
73
4
74
0
42
0.000000001
43
0.0000000001
44
0.0000000001
40
0
40
0
40
0
40
0
40
1
40
1
40
1
40
1
41
1
41
1
41
1
41
1
10
72.10859921773276
20
-116.7734982808431
30
0
10
71.818654060363784
20
-116.84650739034018
30
0
10
71.797458648681655
20
-116.87096487681072
30
0
10
71.628347524007168
20
-117.32778857549033
30
0
0
SPLINE
5
200
100
AcDbEntity
8
0
100
AcDbSpline
70
4
71
3
72
8
73
4
74
0
42
0.000000001
43
0.0000000001
44
0.0000000001
40
0
40
0
40
0
40
0
40
1
40
1
40
1
40
1
41
1
41
1
41
1
41
1
10
71.628347524007168
20
-117.32778857549033
30
0
10
71.385153388977059
20
-117.98474944432577
30
0
10
71.339484341939297
20
-118.54896726608277
30
0
10
71.473019472757983
20
-119.24682922363282
30
0
0
SPLINE
5
201
100
AcDbEntity
8
0
100
AcDbSpline
70
4
71
3
72
8
73
4
74
0
42
0.000000001
43
0.0000000001
44
0.0000000001
40
0
40
0
40
0
40
0
40
1
40
1
40
1
40
1
41
1
41
1
41
1
41
1
10
71.473019472757983
20
-119.24682922363282
30
0
10
71.533351707458507
20
-119.56212409337361
30
0
10
71.582718849182143
20
-119.88091519673667
30
0
10
71.582726923624691
20
-119.95525658925375
30
0
0
SPLINE
5
202
100
AcDbEntity
8
0
100
AcDbSpline
70
4
71
3
72
8
73
4
74
0
42
0.000000001
43
0.0000000001
44
0.0000000001
40
0
40
0
40
0
40
0
40
1
40
1
40
1
40
1
41
1
41
1
41
1
41
1
10
71.582726923624691
20
-119.95525658925375
30
0
10
71.582734998067238
20
-120.02959798177085
30
0
10
71.300105285644534
20
-120.38571319580079
30
0
10
70.954656410217297
20
-120.7466246287028
30
0
0
SPLINE
5
203
100
AcDbEntity
8
0
100
AcDbSpline
70
4
71
3
72
8
73
4
74
0
42
0.000000001
43
0.0000000001
44
0.0000000001
40
0
40
0
40
0
40
0
40
1
40
1
40
1
40
1
41
1
41
1
41
1
41
1
10
70.954656410217297
20
-120.7466246287028
30
0
10
70.609207534790045
20
-121.10753606160483
30
0
10
70.180252774556479
20
-121.5581343650818
30
0
10
70.001420021057143
20
-121.74795239766439
30
0
0
LINE
5
204
100
AcDbEntity
8
0
100
AcDbLine
10
70.001420021057143
20
-121.74795239766439
30
0
11
69.676262219746917
21
-122.09307829538983
31
0
0
LINE
5
205
100
AcDbEntity
8
0
100
AcDbLine
10
69.676262219746917
20
-122.09307829538983
30
0
11
69.999998919169116
21
-122.04489809672039
31
0
0
SPLINE
5
206
100
AcDbEntity
8
0
100
AcDbSpline
70
4
71
3
72
8
73
4
74
0
42
0.000000001
43
0.0000000001
44
0.0000000001
40
0
40
0
40
0
40
0
40
1
40
1
40
1
40
1
41
1
41
1
41
1
41
1
10
69.999998919169116
20
-122.04489809672039
30
0
10
70.444941075642916
20
-121.97867959340414
30
0
10
71.178294245402029
20
-121.62261282602947
30
0
10
71.469499015808125
20
-121.33141209284466
30
0
0
SPLINE
5
207
100
AcDbEntity
8
0
100
AcDbSpline
70
4
71
3
72
8
73
4
74
0
42
0.000000001
43
0.0000000001
44
0.0000000001
40
0
40
0
40
0
40
0
40
1
40
1
40
1
40
1
41
1
41
1
41
1
41
1
10
71.469499015808125
20
-121.33141209284466
30
0
10
71.759896341959646
20
-121.04101476669312
30
0
10
72.086329905192073
20
-120.37929805119833
30
0
10
72.086329905192073
20
-120.08103218078614
30
0
0
SPLINE
5
208
100
AcDbEntity
8
0
100
AcDbSpline
70
4
71
3
72
8
73
4
74
0
42
0.000000001
43
0.0000000001
44
0.0000000001
40
0
40
0
40
0
40
0
40
1
40
1
40
1
40
1
41
1
41
1
41
1
41
1
10
72.086329905192073
20
-120.08103218078614
30
0
10
72.086329905192073
20
-119.75584611892701
30
0
10
72.210248374938971
20
-119.49003143310547
30
0
10
72.504279200236013
20
-119.18450260162354
30
0
0
SPLINE
5
209
100
AcDbEntity
8
0
100
AcDbSpline
70
4
71
3
72
8
73
4
74
0
42
0.000000001
43
0.0000000001
44
0.0000000001
40
0
40
0
40
0
40
0
40
1
40
1
40
1
40
1
41
1
41
1
41
1
41
1
10
72.504279200236013
20
-119.18450260162354
30
0
10
72.842453002929688
20
-118.83310286204021
30
0
10
73.162459309895837
20
-118.66918360392253
30
0
10
73.727137374877941
20
-118.55809138615926
30
0
0
SPLINE
5
210
100
AcDbEntity
8
0
100
AcDbSpline
70
4
71
3
72
8
73
4
74
0
42
0.000000001
43
0.0000000001
44
0.0000000001
40
0
40
0
40
0
40
0
40
1
40
1
40
1
40
1
41
1
41
1
41
1
41
1
10
73.727137374877941
20
-118.55809138615926
30
0
10
75.144331232706719
20
-118.27927684783937
30
0
10
76.642753982543951
20
-119.07156537373862
30
0
10
76.440432675679531
20
-119.99274218877159
30
0
0
SPLINE
5
211
100
AcDbEntity
8
0
100
AcDbSpline
70
4
71
3
72
8
73
4
74
0
42
0.000000001
43
0.0000000001
44
0.0000000001
40
0
40
0
40
0
40
0
40
1
40
1
40
1
40
1
41
1
41
1
41
1
41
1
10
76.440432675679531
20
-119.99274218877159
30
0
10
76.380641428629573
20
-120.26495990753175
30
0
10
76.231732559204119
20
-120.38687995274863
30
0
10
75.779168128967299
20
-120.53413759867351
30
0
0
SPLINE
5
212
100
AcDbEntity
8
0
100
AcDbSpline
70
4
71
3
72
8
73
4
74
0
42
0.000000001
43
0.0000000001
44
0.0000000001
40
0
40
0
40
0
40
0
40
1
40
1
40
1
40
1
41
1
41
1
41
1
41
1
10
75.779168128967299
20
-120.53413759867351
30
0
10
75.574618275960304
20
-120.60069522857667
30
0
10
75.169935290018728
20
-120.82301289240519
30
0
10
74.879885164896663
20
-121.02817236582439
30
0
0
LINE
5
213
100
AcDbEntity
8
0
100
AcDbLine
10
74.879885164896663
20
-121.02817236582439
30
0
11
74.352511024475106
21
-121.40119142532349
31
0
0
LINE
5
214
100
AcDbEntity
8
0
100
AcDbLine
10
74.352511024475106
20
-121.40119142532349
30
0
11
74.763952318827322
21
-121.44623066584271
31
0
0
SPLINE
5
215
100
AcDbEntity
8
0
100
AcDbSpline
70
4
71
3
72
8
73
4
74
0
42
0.000000001
43
0.0000000001
44
0.0000000001
40
0
40
0
40
0
40
0
40
1
40
1
40
1
40
1
41
1
41
1
41
1
41
1
10
74.763952318827322
20
-121.44623066584271
30
0
10
75.21836579640707
20
-121.49597326914471
30
0
10
75.44893150329591
20
-121.61696071624758
30
0
10
75.830804189046233
20
-122.00604791641237
30
0
0
SPLINE
5
216
100
AcDbEntity
8
0
100
AcDbSpline
70
4
71
3
72
8
73
4
74
0
42
0.000000001
43
0.0000000001
44
0.0000000001
40
0
40
0
40
0
40
0
40
1
40
1
40
1
40
1
41
1
41
1
41
1
41
1
10
75.830804189046233
20
-122.00604791641237
30
0
10
75.971202596028661
20
-122.149098777771
30
0
10
76.327535820007341
20
-122.38541752497355
30
0
10
76.622648620605474
20
-122.53120158513386
30
0
0
SPLINE
5
217
100
AcDbEntity
8
0
100
AcDbSpline
70
4
71
3
72
8
73
4
74
0
42
0.000000001
43
0.0000000001
44
0.0000000001
40
0
40
0
40
0
40
0
40
1
40
1
40
1
40
1
41
1
41
1
41
1
41
1
10
76.622648620605474
20
-122.53120158513386
30
0
10
77.151661872863784
20
-122.79252688090008
30
0
10
77.168852361043307
20
-122.79576473236084
30
0
10
77.842196273803722
20
-122.76081047058106
30
0
0
SPLINE
5
218
100
AcDbEntity
8
0
100
AcDbSpline
70
4
71
3
72
8
73
4
74
0
42
0.000000001
43
0.0000000001
44
0.0000000001
40
0
40
0
40
0
40
0
40
1
40
1
40
1
40
1
41
1
41
1
41
1
41
1
10
77.842196273803722
20
-122.76081047058106
30
0
10
78.780018552144384
20
-122.71212965647379
30
0
10
79.063455708821635
20
-122.87412719726564
30
0
10
78.964390373229989
20
-123.40220381418865
30
0
0
SPLINE
5
219
100
AcDbEntity
8
0
100
AcDbSpline
70
4
71
3
72
8
73
4
74
0
42
0.000000001
43
0.0000000001
44
0.0000000001
40
0
40
0
40
0
40
0
40
1
40
1
40
1
40
1
41
1
41
1
41
1
41
1
10
78.964390373229989
20
-123.40220381418865
30
0
10
78.924849828084319
20
-123.61295887629191
30
0
10
78.789094225565606
20
-123.7760303179423
30
0
10
78.250859959920263
20
-124.25926955540976
30
0
0
SPLINE
5
220
100
AcDbEntity
8
0
100
AcDbSpline
70
4
71
3
72
8
73
4
74
0
42
0.000000001
43
0.0000000001
44
0.0000000001
40
0
40
0
40
0
40
0
40
1
40
1
40
1
40
1
41
1
41
1
41
1
41
1
10
78.250859959920263
20
-124.25926955540976
30
0
10
77.885273424784344
20
-124.58750775655112
30
0
10
77.473694864908865
20
-124.94510059356691
30
0
10
77.336243629455581
20
-125.05392793019612
30
0
0
LINE
5
221
100
AcDbEntity
8
0
100
AcDbLine
10
77.336243629455581
20
-125.05392793019612
30
0
11
77.086331558227556
21
-125.25179214477539
31
0
0
LINE
5
222
100
AcDbEntity
8
0
100
AcDbLine
10
77.086331558227556
20
-125.25179214477539
30
0
11
77.30216140747072
21
-125.20951840082805
31
0
0
SPLINE
5
223
100
AcDbEntity
8
0
100
AcDbSpline
70
4
71
3
72
8
73
4
74
0
42
0.000000001
43
0.0000000001
44
0.0000000001
40
0
40
0
40
0
40
0
40
1
40
1
40
1
40
1
41
1
41
1
41
1
41
1
10
77.30216140747072
20
-125.20951840082805
30
0
10
78.253734461466479
20
-125.02312393188477
30
0
10
78.770781389872241
20
-124.69880990982055
30
0
10
79.392949485778828
20
-123.89809166590373
30
0
0
SPLINE
5
224
100
AcDbEntity
8
0
100
AcDbSpline
70
4
71
3
72
8
73
4
74
0
42
0.000000001
43
0.0000000001
44
0.0000000001
40
0
40
0
40
0
40
0
40
1
40
1
40
1
40
1
41
1
41
1
41
1
41
1
10
79.392949485778828
20
-123.89809166590373
30
0
10
79.935576248168957
20
-123.19973313013712
30
0
10
80.294549814860034
20
-123.09442625045776
30
0
10
80.60783011118572
20
-123.54168980916342
30
0
0
SPLINE
5
225
100
AcDbEntity
8
0
100
AcDbSpline
70
4
71
3
72
8
73
4
74
0
42
0.000000001
43
0.0000000001
44
0.0000000001
40
0
40
0
40
0
40
0
40
1
40
1
40
1
40
1
41
1
41
1
41
1
41
1
10
80.60783011118572
20
-123.54168980916342
30
0
10
80.782698313395187
20
-123.79135560989381
30
0
10
80.757368787129735
20
-124.62434740066529
30
0
10
80.562669754028335
20
-125.02653942108154
30
0
0
SPLINE
5
226
100
AcDbEntity
8
0
100
AcDbSpline
70
4
71
3
72
8
73
4
74
0
42
0.000000001
43
0.0000000001
44
0.0000000001
40
0
40
0
40
0
40
0
40
1
40
1
40
1
40
1
41
1
41
1
41
1
41
1
10
80.562669754028335
20
-125.02653942108154
30
0
10
80.34840634663901
20
-125.46913998921713
30
0
10
79.469252967834493
20
-126.3777045249939
30
0
10
79.049341583251959
20
-126.59049030939738
30
0
0
SPLINE
5
227
100
AcDbEntity
8
0
100
AcDbSpline
70
4
71
3
72
8
73
4
74
0
42
0.000000001
43
0.0000000001
44
0.0000000001
40
0
40
0
40
0
40
0
40
1
40
1
40
1
40
1
41
1
41
1
41
1
41
1
10
79.049341583251959
20
-126.59049030939738
30
0
10
78.859979756673198
20
-126.68644698460898
30
0
10
78.705047353108739
20
-126.77791023254395
30
0
10
78.705047353108739
20
-126.79373613993327
30
0
0
SPLINE
5
228
100
AcDbEntity
8
0
100
AcDbSpline
70
4
71
3
72
8
73
4
74
0
42
0.000000001
43
0.0000000001
44
0.0000000001
40
0
40
0
40
0
40
0
40
1
40
1
40
1
40
1
41
1
41
1
41
1
41
1
10
78.705047353108739
20
-126.79373613993327
30
0
10
78.705047353108739
20
-126.80955801010131
30
0
10
78.916226323445656
20
-127.02529904047648
30
0
10
79.174325879414894
20
-127.27314405441284
30
0
0
SPLINE
5
229
100
AcDbEntity
8
0
100
AcDbSpline
70
4
71
3
72
8
73
4
74
0
42
0.000000001
43
0.0000000001
44
0.0000000001
40
0
40
0
40
0
40
0
40
1
40
1
40
1
40
1
41
1
41
1
41
1
41
1
10
79.174325879414894
20
-127.27314405441284
30
0
10
79.514171091715497
20
-127.59948072433473
30
0
10
79.677880414326992
20
-127.82137044270833
30
0
10
79.767853927612322
20
-128.07762902577718
30
0
0
SPLINE
5
230
100
AcDbEntity
8
0
100
AcDbSpline
70
4
71
3
72
8
73
4
74
0
42
0.000000001
43
0.0000000001
44
0.0000000001
40
0
40
0
40
0
40
0
40
1
40
1
40
1
40
1
41
1
41
1
41
1
41
1
10
79.767853927612322
20
-128.07762902577718
30
0
10
79.865796915690112
20
-128.35659294128419
30
0
10
79.948777961730968
20
-128.46052716573081
30
0
10
80.159876187642425
20
-128.56867624918621
30
0
0
SPLINE
5
231
100
AcDbEntity
8
0
100
AcDbSpline
70
4
71
3
72
8
73
4
74
0
42
0.000000001
43
0.0000000001
44
0.0000000001
40
0
40
0
40
0
40
0
40
1
40
1
40
1
40
1
41
1
41
1
41
1
41
1
10
80.159876187642425
20
-128.56867624918621
30
0
10
80.556565475463884
20
-128.77189785639445
30
0
10
80.928127098083507
20
-129.1241898218791
30
0
10
81.047758038838708
20
-129.41050551732383
30
0
0
SPLINE
5
232
100
AcDbEntity
8
0
100
AcDbSpline
70
4
71
3
72
8
73
4
74
0
42
0.000000001
43
0.0000000001
44
0.0000000001
40
0
40
0
40
0
40
0
40
1
40
1
40
1
40
1
41
1
41
1
41
1
41
1
10
81.047758038838708
20
-129.41050551732383
30
0
10
81.144538307189947
20
-129.6421330134074
30
0
10
81.14164765675865
20
-129.6862073580424
30
0
10
81.013554700215664
20
-129.93195301691691
30
0
0
LINE
5
233
100
AcDbEntity
8
0
100
AcDbLine
10
81.013554700215664
20
-129.93195301691691
30
0
11
80.873640759785985
21
-130.20038785934449
31
0
0
LINE
5
234
100
AcDbEntity
8
0
100
AcDbLine
10
80.873640759785985
20
-130.20038785934449
30
0
11
81.03776995340985
21
-130.35458145141601
31
0
0
SPLINE
5
235
100
AcDbEntity
8
0
100
AcDbSpline
70
4
71
3
72
8
73
4
74
0
42
0.000000001
43
0.0000000001
44
0.0000000001
40
0
40
0
40
0
40
0
40
1
40
1
40
1
40
1
41
1
41
1
41
1
41
1
10
81.03776995340985
20
-130.35458145141601
30
0
10
81.128042221069336
20
-130.43938732147217
30
0
10
81.27949453989666
20
-130.66548786163332
30
0
10
81.374336942036948
20
-130.85702978769939
30
0
0
SPLINE
5
236
100
AcDbEntity
8
0
100
AcDbSpline
70
4
71
3
72
8
73
4
74
0
42
0.000000001
43
0.0000000001
44
0.0000000001
40
0
40
0
40
0
40
0
40
1
40
1
40
1
40
1
41
1
41
1
41
1
41
1
10
81.374336942036948
20
-130.85702978769939
30
0
10
81.545264816284202
20
-131.20224450429282
30
0
10
81.550488980611178
20
-131.2057205518087
30
0
10
81.972451273600271
20
-131.2550271352132
30
0
0
SPLINE
5
237
100
AcDbEntity
8
0
100
AcDbSpline
70
4
71
3
72
8
73
4
74
0
42
0.000000001
43
0.0000000001
44
0.0000000001
40
0
40
0
40
0
40
0
40
1
40
1
40
1
40
1
41
1
41
1
41
1
41
1
10
81.972451273600271
20
-131.2550271352132
30
0
10
82.206569735209158
20
-131.28238334655762
30
0
10
82.546503766377782
20
-131.35415302912395
30
0
10
82.727847671508798
20
-131.41450948715209
30
0
0
SPLINE
5
238
100
AcDbEntity
8
0
100
AcDbSpline
70
4
71
3
72
8
73
4
74
0
42
0.000000001
43
0.0000000001
44
0.0000000001
40
0
40
0
40
0
40
0
40
1
40
1
40
1
40
1
41
1
41
1
41
1
41
1
10
82.727847671508798
20
-131.41450948715209
30
0
10
83.324831581115731
20
-131.61320536931356
30
0
10
84.535513496398934
20
-132.16168610254925
30
0
10
84.987585385640472
20
-132.4382519086202
30
0
0
SPLINE
5
239
100
AcDbEntity
8
0
100
AcDbSpline
70
4
71
3
72
8
73
4
74
0
42
0.000000001
43
0.0000000001
44
0.0000000001
40
0
40
0
40
0
40
0
40
1
40
1
40
1
40
1
41
1
41
1
41
1
41
1
10
84.987585385640472
20
-132.4382519086202
30
0
10
85.430331293741872
20
-132.70911312103271
30
0
10
85.434699567159029
20
-132.71006994247438
30
0
10
86.43886146545411
20
-132.75755977630615
30
0
0
SPLINE
5
240
100
AcDbEntity
8
0
100
AcDbSpline
70
4
71
3
72
8
73
4
74
0
42
0.000000001
43
0.0000000001
44
0.0000000001
40
0
40
0
40
0
40
0
40
1
40
1
40
1
40
1
41
1
41
1
41
1
41
1
10
86.43886146545411
20
-132.75755977630615
30
0
10
87.711668141682964
20
-132.81775070826214
30
0
10
89.239578755696627
20
-133.15370403925579
30
0
10
90.89929656982423
20
-133.73830579121909
30
0
0
SPLINE
5
241
100
AcDbEntity
8
0
100
AcDbSpline
70
4
71
3
72
8
73
4
74
0
42
0.000000001
43
0.0000000001
44
0.0000000001
40
0
40
0
40
0
40
0
40
1
40
1
40
1
40
1
41
1
41
1
41
1
41
1
10
90.89929656982423
20
-133.73830579121909
30
0
10
93.663194402058934
20
-134.71184132893882
30
0
10
94.648340988159191
20
-134.88790051142377
30
0
10
96.546779696146658
20
-134.74761110941569
30
0
0
SPLINE
5
242
100
AcDbEntity
8
0
100
AcDbSpline
70
4
71
3
72
8
73
4
74
0
42
0.000000001
43
0.0000000001
44
0.0000000001
40
0
40
0
40
0
40
0
40
1
40
1
40
1
40
1
41
1
41
1
41
1
41
1
10
96.546779696146658
20
-134.74761110941569
30
0
10
97.120517285664903
20
-134.70521221160891
30
0
10
98.009812164306652
20
-134.59086599349976
30
0
10
98.522975285847991
20
-134.49350840250651
30
0
0
SPLINE
5
243
100
AcDbEntity
8
0
100
AcDbSpline
70
4
71
3
72
8
73
4
74
0
42
0.000000001
43
0.0000000001
44
0.0000000001
40
0
40
0
40
0
40
0
40
1
40
1
40
1
40
1
41
1
41
1
41
1
41
1
10
98.522975285847991
20
-134.49350840250651
30
0
10
99.556625048319503
20
-134.2974044164022
30
0
10
99.932264264424646
20
-134.27584969202678
30
0
10
100.16661688486737
20
-134.39920698801677
30
0
0
SPLINE
5
244
100
AcDbEntity
8
0
100
AcDbSpline
70
4
71
3
72
8
73
4
74
0
42
0.000000001
43
0.0000000001
44
0.0000000001
40
0
40
0
40
0
40
0
40
1
40
1
40
1
40
1
41
1
41
1
41
1
41
1
10
100.16661688486737
20
-134.39920698801677
30
0
10
100.38766282399496
20
-134.51555566787721
30
0
10
100.42931079864503
20
-134.59961465199791
30
0
10
100.43057041168214
20
-134.93187796274822
30
0
0
SPLINE
5
245
100
AcDbEntity
8
0
100
AcDbSpline
70
4
71
3
72
8
73
4
74
0
42
0.000000001
43
0.0000000001
44
0.0000000001
40
0
40
0
40
0
40
0
40
1
40
1
40
1
40
1
41
1
41
1
41
1
41
1
10
100.43057041168214
20
-134.93187796274822
30
0
10
100.43268591562908
20
-135.45792385737101
30
0
10
99.942922528584802
20
-135.78250029881798
30
0
10
98.633110682169601
20
-136.12340730031332
30
0
0
SPLINE
5
246
100
AcDbEntity
8
0
100
AcDbSpline
70
4
71
3
72
8
73
4
74
0
42
0.000000001
43
0.0000000001
44
0.0000000001
40
0
40
0
40
0
40
0
40
1
40
1
40
1
40
1
41
1
41
1
41
1
41
1
10
98.633110682169601
20
-136.12340730031332
30
0
10
98.080600802103689
20
-136.26720908482869
30
0
10
97.916358566284188
20
-136.3343682607015
30
0
10
98.021600850423184
20
-136.3734445254008
30
0
0
SPLINE
5
247
100
AcDbEntity
8
0
100
AcDbSpline
70
4
71
3
72
8
73
4
74
0
42
0.000000001
43
0.0000000001
44
0.0000000001
40
0
40
0
40
0
40
0
40
1
40
1
40
1
40
1
41
1
41
1
41
1
41
1
10
98.021600850423184
20
-136.3734445254008
30
0
10
99.274827003479018
20
-136.83881905873616
30
0
10
100.02892341613772
20
-137.29553778966269
30
0
10
101.15109329223634
20
-138.2688230196635
30
0
0
SPLINE
5
248
100
AcDbEntity
8
0
100
AcDbSpline
70
4
71
3
72
8
73
4
74
0
42
0.000000001
43
0.0000000001
44
0.0000000001
40
0
40
0
40
0
40
0
40
1
40
1
40
1
40
1
41
1
41
1
41
1
41
1
10
101.15109329223634
20
-138.2688230196635
30
0
10
102.00900281270347
20
-139.01290712356567
30
0
10
101.86380011240642
20
-138.98759778340658
30
0
10
102.94965114593508
20
-138.58232536315919
30
0
0
SPLINE
5
249
100
AcDbEntity
8
0
100
AcDbSpline
70
4
71
3
72
8
73
4
74
0
42
0.000000001
43
0.0000000001
44
0.0000000001
40
0
40
0
40
0
40
0
40
1
40
1
40
1
40
1
41
1
41
1
41
1
41
1
10
102.94965114593508
20
-138.58232536315919
30
0
10
104.121922938029
20
-138.14480361938476
30
0
10
104.86479587554933
20
-137.80205968221028
30
0
10
105.43065280914308
20
-137.43765201568604
30
0
0
SPLINE
5
250
100
AcDbEntity
8
0
100
AcDbSpline
70
4
71
3
72
8
73
4
74
0
42
0.000000001
43
0.0000000001
44
0.0000000001
40
0
40
0
40
0
40
0
40
1
40
1
40
1
40
1
41
1
41
1
41
1
41
1
10
105.43065280914308
20
-137.43765201568604
30
0
10
106.68861058553061
20
-136.62754319508872
30
0
10
106.70627746582034
20
-136.61860074996949
30
0
10
107.04718850453696
20
-136.61970694859824
30
0
0
SPLINE
5
251
100
AcDbEntity
8
0
100
AcDbSpline
70
4
71
3
72
8
73
4
74
0
42
0.000000001
43
0.0000000001
44
0.0000000001
40
0
40
0
40
0
40
0
40
1
40
1
40
1
40
1
41
1
41
1
41
1
41
1
10
107.04718850453696
20
-136.61970694859824
30
0
10
107.50271625518801
20
-136.62129357655843
30
0
10
107.71682624816896
20
-136.74684712092082
30
0
10
107.78210004170738
20
-137.05103155771891
30
0
0
SPLINE
5
252
100
AcDbEntity
8
0
100
AcDbSpline
70
4
71
3
72
8
73
4
74
0
42
0.000000001
43
0.0000000001
44
0.0000000001
40
0
40
0
40
0
40
0
40
1
40
1
40
1
40
1
41
1
41
1
41
1
41
1
10
107.78210004170738
20
-137.05103155771891
30
0
10
107.91435133616132
20
-137.66738201777142
30
0
10
107.36260852813722
20
-138.46116431554157
30
0
10
106.38283144632977
20
-139.06412331263226
30
0
0
SPLINE
5
253
100
AcDbEntity
8
0
100
AcDbSpline
70
4
71
3
72
8
73
4
74
0
42
0.000000001
43
0.0000000001
44
0.0000000001
40
0
40
0
40
0
40
0
40
1
40
1
40
1
40
1
41
1
41
1
41
1
41
1
10
106.38283144632977
20
-139.06412331263226
30
0
10
106.06083882649742
20
-139.26227820714317
30
0
10
105.74748586018882
20
-139.42630243301392
30
0
10
105.68647537231448
20
-139.42862383524579
30
0
0
SPLINE
5
254
100
AcDbEntity
8
0
100
AcDbSpline
70
4
71
3
72
8
73
4
74
0
42
0.000000001
43
0.0000000001
44
0.0000000001
40
0
40
0
40
0
40
0
40
1
40
1
40
1
40
1
41
1
41
1
41
1
41
1
10
105.68647537231448
20
-139.42862383524579
30
0
10
105.62547295888267
20
-139.43100579579672
30
0
10
105.78598480224612
20
-139.50656642913822
30
0
10
106.04318002065025
20
-139.59667317072552
30
0
0
SPLINE
5
255
100
AcDbEntity
8
0
100
AcDbSpline
70
4
71
3
72
8
73
4
74
0
42
0.000000001
43
0.0000000001
44
0.0000000001
40
0
40
0
40
0
40
0
40
1
40
1
40
1
40
1
41
1
41
1
41
1
41
1
10
106.04318002065025
20
-139.59667317072552
30
0
10
107.01380068461103
20
-139.93672428131103
30
0
10
108.46868604024253
20
-140.81775093078616
30
0
10
108.71747576395671
20
-141.21612777709964
30
0
0
SPLINE
5
256
100
AcDbEntity
8
0
100
AcDbSpline
70
4
71
3
72
8
73
4
74
0
42
0.000000001
43
0.0000000001
44
0.0000000001
40
0
40
0
40
0
40
0
40
1
40
1
40
1
40
1
41
1
41
1
41
1
41
1
10
108.71747576395671
20
-141.21612777709964
30
0
10
108.79166374206545
20
-141.33492301305137
30
0
10
108.87799568176271
20
-141.34487072626752
30
0
10
109.56193326314292
20
-141.31342884699504
30
0
0
SPLINE
5
257
100
AcDbEntity
8
0
100
AcDbSpline
70
4
71
3
72
8
73
4
74
0
42
0.000000001
43
0.0000000001
44
0.0000000001
40
0
40
0
40
0
40
0
40
1
40
1
40
1
40
1
41
1
41
1
41
1
41
1
10
109.56193326314292
20
-141.31342884699504
30
0
10
110.86074771881104
20
-141.25372238159179
30
0
10
112.43419818878175
20
-141.47706146240236
30
0
10
114.10073083241782
20
-141.95767246882122
30
0
0
SPLINE
5
258
100
AcDbEntity
8
0
100
AcDbSpline
70
4
71
3
72
8
73
4
74
0
42
0.000000001
43
0.0000000001
44
0.0000000001
40
0
40
0
40
0
40
0
40
1
40
1
40
1
40
1
41
1
41
1
41
1
41
1
10
114.10073083241782
20
-141.95767246882122
30
0
10
115.36597175598146
20
-142.32256056467693
30
0
10
116.23587182362876
20
-142.8437133471171
30
0
10
117.57587401072186
20
-144.03962306976319
30
0
0
SPLINE
5
259
100
AcDbEntity
8
0
100
AcDbSpline
70
4
71
3
72
8
73
4
74
0
42
0.000000001
43
0.0000000001
44
0.0000000001
40
0
40
0
40
0
40
0
40
1
40
1
40
1
40
1
41
1
41
1
41
1
41
1
10
117.57587401072186
20
-144.03962306976319
30
0
10
117.84511629740399
20
-144.2799104054769
30
0
10
118.07546399434409
20
-144.46478687922161
30
0
10
118.087761370341
20
-144.45045878092449
30
0
0
SPLINE
5
260
100
AcDbEntity
8
0
100
AcDbSpline
70
4
71
3
72
8
73
4
74
0
42
0.000000001
43
0.0000000001
44
0.0000000001
40
0
40
0
40
0
40
0
40
1
40
1
40
1
40
1
41
1
41
1
41
1
41
1
10
118.087761370341
20
-144.45045878092449
30
0
10
118.10006682078046
20
-144.43611857096354
30
0
10
118.16748034159345
20
-144.24634494781495
30
0
10
118.23759072621667
20
-144.02871853510538
30
0
0
SPLINE
5
261
100
AcDbEntity
8
0
100
AcDbSpline
70
4
71
3
72
8
73
4
74
0
42
0.000000001
43
0.0000000001
44
0.0000000001
40
0
40
0
40
0
40
0
40
1
40
1
40
1
40
1
41
1
41
1
41
1
41
1
10
118.23759072621667
20
-144.02871853510538
30
0
10
118.43041648864748
20
-143.43018836975097
30
0
10
118.58159427642825
20
-143.17145093282065
30
0
10
119.02137686411541
20
-142.68727909723918
30
0
0
SPLINE
5
262
100
AcDbEntity
8
0
100
AcDbSpline
70
4
71
3
72
8
73
4
74
0
42
0.000000001
43
0.0000000001
44
0.0000000001
40
0
40
0
40
0
40
0
40
1
40
1
40
1
40
1
41
1
41
1
41
1
41
1
10
119.02137686411541
20
-142.68727909723918
30
0
10
119.96807295481366
20
-141.64505023956298
30
0
10
120.96371631622317
20
-141.25658880869548
30
0
10
123.41657854715984
20
-140.97246936162315
30
0
0
SPLINE
5
263
100
AcDbEntity
8
0
100
AcDbSpline
70
4
71
3
72
8
73
4
74
0
42
0.000000001
43
0.0000000001
44
0.0000000001
40
0
40
0
40
0
40
0
40
1
40
1
40
1
40
1
41
1
41
1
41
1
41
1
10
123.41657854715984
20
-140.97246936162315
30
0
10
125.50199712117515
20
-140.7309103012085
30
0
10
126.61761054992678
20
-140.2897510210673
30
0
10
127.93902537027996
20
-139.18411760330201
30
0
0
SPLINE
5
264
100
AcDbEntity
8
0
100
AcDbSpline
70
4
71
3
72
8
73
4
74
0
42
0.000000001
43
0.0000000001
44
0.0000000001
40
0
40
0
40
0
40
0
40
1
40
1
40
1
40
1
41
1
41
1
41
1
41
1
10
127.93902537027996
20
-139.18411760330201
30
0
10
128.62234121958414
20
-138.61237843831381
30
0
10
128.6041737238566
20
-138.62302862803142
30
0
10
128.80860246022544
20
-138.67433767318727
30
0
0
SPLINE
5
265
100
AcDbEntity
8
0
100
AcDbSpline
70
4
71
3
72
8
73
4
74
0
42
0.000000001
43
0.0000000001
44
0.0000000001
40
0
40
0
40
0
40
0
40
1
40
1
40
1
40
1
41
1
41
1
41
1
41
1
10
128.80860246022544
20
-138.67433767318727
30
0
10
129.07824039459231
20
-138.74200957616171
30
0
10
129.20822277069095
20
-139.04688841501871
30
0
10
129.21121838887535
20
-139.61867198944094
30
0
0
SPLINE
5
266
100
AcDbEntity
8
0
100
AcDbSpline
70
4
71
3
72
8
73
4
74
0
42
0.000000001
43
0.0000000001
44
0.0000000001
40
0
40
0
40
0
40
0
40
1
40
1
40
1
40
1
41
1
41
1
41
1
41
1
10
129.21121838887535
20
-139.61867198944094
30
0
10
129.21254259745282
20
-139.88772452672325
30
0
10
129.26068242390951
20
-140.30210088094077
30
0
10
129.31800289154054
20
-140.53951371510823
30
0
0
SPLINE
5
267
100
AcDbEntity
8
0
100
AcDbSpline
70
4
71
3
72
8
73
4
74
0
42
0.000000001
43
0.0000000001
44
0.0000000001
40
0
40
0
40
0
40
0
40
1
40
1
40
1
40
1
41
1
41
1
41
1
41
1
10
129.31800289154054
20
-140.53951371510823
30
0
10
129.37533143361412
20
-140.77692251205445
30
0
10
129.42273648579916
20
-141.10930290222169
30
0
10
129.42335821787518
20
-141.27813545862836
30
0
0
LINE
5
268
100
AcDbEntity
8
0
100
AcDbLine
10
129.42335821787518
20
-141.27813545862833
30
0
11
129.42441596984867
21
-141.58510154088339
31
0
0
LINE
5
269
100
AcDbEntity
8
0
100
AcDbLine
10
129.42441596984867
20
-141.58510154088339
30
0
11
129.80211416880292
21
-141.39435494740806
31
0
0
SPLINE
5
270
100
AcDbEntity
8
0
100
AcDbSpline
70
4
71
3
72
8
73
4
74
0
42
0.000000001
43
0.0000000001
44
0.0000000001
40
0
40
0
40
0
40
0
40
1
40
1
40
1
40
1
41
1
41
1
41
1
41
1
10
129.80211416880292
20
-141.39435494740806
30
0
10
130.39599749247236
20
-141.09442977905275
30
0
10
130.78171361287437
20
-140.81039915084841
30
0
10
131.41913433074953
20
-140.20361690521241
30
0
0
SPLINE
5
271
100
AcDbEntity
8
0
100
AcDbSpline
70
4
71
3
72
8
73
4
74
0
42
0.000000001
43
0.0000000001
44
0.0000000001
40
0
40
0
40
0
40
0
40
1
40
1
40
1
40
1
41
1
41
1
41
1
41
1
10
131.41913433074953
20
-140.20361690521241
30
0
10
132.03952604929609
20
-139.61304410298666
30
0
10
132.20484218597414
20
-139.5441287358602
30
0
10
132.50193322499595
20
-139.75222326914468
30
0
0
SPLINE
5
272
100
AcDbEntity
8
0
100
AcDbSpline
70
4
71
3
72
8
73
4
74
0
42
0.000000001
43
0.0000000001
44
0.0000000001
40
0
40
0
40
0
40
0
40
1
40
1
40
1
40
1
41
1
41
1
41
1
41
1
10
132.50193322499595
20
-139.75222326914468
30
0
10
132.6384720484416
20
-139.84786100387572
30
0
10
132.66182333628339
20
-139.9306038538615
30
0
10
132.66182333628339
20
-140.31873019536337
30
0
0
LINE
5
273
100
AcDbEntity
8
0
100
AcDbLine
10
132.66182333628336
20
-140.31873019536337
30
0
11
132.66182333628339
21
-140.77324056625366
31
0
0
LINE
5
274
100
AcDbEntity
8
0
100
AcDbLine
10
132.66182333628339
20
-140.77324056625366
30
0
11
133.21937974294028
21
-140.49845921198528
31
0
0
SPLINE
5
275
100
AcDbEntity
8
0
100
AcDbSpline
70
4
71
3
72
8
73
4
74
0
42
0.000000001
43
0.0000000001
44
0.0000000001
40
0
40
0
40
0
40
0
40
1
40
1
40
1
40
1
41
1
41
1
41
1
41
1
10
133.21937974294028
20
-140.49845921198528
30
0
10
133.93050397237144
20
-140.14799207051595
30
0
10
134.72632910410564
20
-139.97987410227461
30
0
10
135.64743728637697
20
-139.98554236094157
30
0
0
SPLINE
5
276
100
AcDbEntity
8
0
100
AcDbSpline
70
4
71
3
72
8
73
4
74
0
42
0.000000001
43
0.0000000001
44
0.0000000001
40
0
40
0
40
0
40
0
40
1
40
1
40
1
40
1
41
1
41
1
41
1
41
1
10
135.64743728637697
20
-139.98554236094157
30
0
10
136.55850893656415
20
-139.99115006128949
30
0
10
137.10329157511396
20
-140.15448795954387
30
0
10
137.87764676411948
20
-140.65422732035319
30
0
0
SPLINE
5
277
100
AcDbEntity
8
0
100
AcDbSpline
70
4
71
3
72
8
73
4
74
0
42
0.000000001
43
0.0000000001
44
0.0000000001
40
0
40
0
40
0
40
0
40
1
40
1
40
1
40
1
41
1
41
1
41
1
41
1
10
137.87764676411948
20
-140.65422732035319
30
0
10
138.19419720967613
20
-140.85851475397746
30
0
10
138.67981033325196
20
-141.17276802062989
30
0
10
138.9567798614502
20
-141.35256970723472
30
0
0
SPLINE
5
278
100
AcDbEntity
8
0
100
AcDbSpline
70
4
71
3
72
8
73
4
74
0
42
0.000000001
43
0.0000000001
44
0.0000000001
40
0
40
0
40
0
40
0
40
1
40
1
40
1
40
1
41
1
41
1
41
1
41
1
10
138.9567798614502
20
-141.35256970723472
30
0
10
139.46672935485842
20
-141.68360166549684
30
0
10
140.09370981852217
20
-142.15410346984865
30
0
10
140.56753425598149
20
-142.56130164464315
30
0
0
SPLINE
5
279
100
AcDbEntity
8
0
100
AcDbSpline
70
4
71
3
72
8
73
4
74
0
42
0.000000001
43
0.0000000001
44
0.0000000001
40
0
40
0
40
0
40
0
40
1
40
1
40
1
40
1
41
1
41
1
41
1
41
1
10
140.56753425598149
20
-142.56130164464315
30
0
10
141.05397097269696
20
-142.97933975855511
30
0
10
141.80092150370282
20
-143.46091566085815
30
0
10
142.5018477121989
20
-143.80837910970052
30
0
0
SPLINE
5
280
100
AcDbEntity
8
0
100
AcDbSpline
70
4
71
3
72
8
73
4
74
0
42
0.000000001
43
0.0000000001
44
0.0000000001
40
0
40
0
40
0
40
0
40
1
40
1
40
1
40
1
41
1
41
1
41
1
41
1
10
142.5018477121989
20
-143.80837910970052
30
0
10
143.33537241617842
20
-144.22158063252769
30
0
10
143.66658604939781
20
-144.33164335886636
30
0
10
144.71217791239422
20
-144.54286673863731
30
0
0
SPLINE
5
281
100
AcDbEntity
8
0
100
AcDbSpline
70
4
71
3
72
8
73
4
74
0
42
0.000000001
43
0.0000000001
44
0.0000000001
40
0
40
0
40
0
40
0
40
1
40
1
40
1
40
1
41
1
41
1
41
1
41
1
10
144.71217791239422
20
-144.54286673863731
30
0
10
145.96316744486495
20
-144.79558064142864
30
0
10
148.25441970825199
20
-144.76061830520632
30
0
10
150.37874094645184
20
-144.45640157063804
30
0
0
SPLINE
5
282
100
AcDbEntity
8
0
100
AcDbSpline
70
4
71
3
72
8
73
4
74
0
42
0.000000001
43
0.0000000001
44
0.0000000001
40
0
40
0
40
0
40
0
40
1
40
1
40
1
40
1
41
1
41
1
41
1
41
1
10
150.37874094645184
20
-144.45640157063804
30
0
10
150.64642486572268
20
-144.41806815465293
30
0
10
151.15648740132653
20
-144.36604452133179
30
0
10
151.51221504211429
20
-144.3407957394918
30
0
0
SPLINE
5
283
100
AcDbEntity
8
0
100
AcDbSpline
70
4
71
3
72
8
73
4
74
0
42
0.000000001
43
0.0000000001
44
0.0000000001
40
0
40
0
40
0
40
0
40
1
40
1
40
1
40
1
41
1
41
1
41
1
41
1
10
151.51221504211429
20
-144.3407957394918
30
0
10
152.0751974741618
20
-144.30083128611247
30
0
10
152.17758140563967
20
-144.31171159744264
30
0
10
152.30249303181969
20
-144.42474975585938
30
0
0
SPLINE
5
284
100
AcDbEntity
8
0
100
AcDbSpline
70
4
71
3
72
8
73
4
74
0
42
0.000000001
43
0.0000000001
44
0.0000000001
40
0
40
0
40
0
40
0
40
1
40
1
40
1
40
1
41
1
41
1
41
1
41
1
10
152.30249303181969
20
-144.42474975585938
30
0
10
152.46004155476891
20
-144.56732422510782
30
0
10
152.48034070332847
20
-144.6847831408183
30
0
10
152.38029836018882
20
-144.87501700719199
30
0
0
SPLINE
5
285
100
AcDbEntity
8
0
100
AcDbSpline
70
4
71
3
72
8
73
4
74
0
42
0.000000001
43
0.0000000001
44
0.0000000001
40
0
40
0
40
0
40
0
40
1
40
1
40
1
40
1
41
1
41
1
41
1
41
1
10
152.38029836018882
20
-144.87501700719199
30
0
10
152.34417330423992
20
-144.94372243881227
30
0
10
152.22832120259605
20
-145.18641999562584
30
0
10
152.12285283406578
20
-145.41434132258098
30
0
0
SPLINE
5
286
100
AcDbEntity
8
0
100
AcDbSpline
70
4
71
3
72
8
73
4
74
0
42
0.000000001
43
0.0000000001
44
0.0000000001
40
0
40
0
40
0
40
0
40
1
40
1
40
1
40
1
41
1
41
1
41
1
41
1
10
152.12285283406578
20
-145.41434132258098
30
0
10
151.88772506713869
20
-145.92247002919515
30
0
10
151.39897905985518
20
-146.3636777559916
30
0
10
150.50013211568199
20
-146.87922687530519
30
0
0
LINE
5
287
100
AcDbEntity
8
0
100
AcDbLine
10
150.50013211568196
20
-146.87922687530519
30
0
11
149.85766487121583
21
-147.24772020975749
31
0
0
LINE
5
288
100
AcDbEntity
8
0
100
AcDbLine
10
149.85766487121583
20
-147.24772020975749
30
0
11
150.28171844482424
21
-147.33114938735963
31
0
0
SPLINE
5
289
100
AcDbEntity
8
0
100
AcDbSpline
70
4
71
3
72
8
73
4
74
0
42
0.000000001
43
0.0000000001
44
0.0000000001
40
0
40
0
40
0
40
0
40
1
40
1
40
1
40
1
41
1
41
1
41
1
41
1
10
150.28171844482424
20
-147.33114938735963
30
0
10
150.77853889465334
20
-147.42889455159508
30
0
10
151.07908579508467
20
-147.63590307235719
30
0
10
151.07908579508467
20
-147.88035278320314
30
0
0
SPLINE
5
290
100
AcDbEntity
8
0
100
AcDbSpline
70
4
71
3
72
8
73
4
74
0
42
0.000000001
43
0.0000000001
44
0.0000000001
40
0
40
0
40
0
40
0
40
1
40
1
40
1
40
1
41
1
41
1
41
1
41
1
10
151.07908579508467
20
-147.88035278320314
30
0
10
151.07908579508467
20
-148.29717165629069
30
0
10
150.23028424580895
20
-148.88593578338626
30
0
10
149.2823123931885
20
-149.12667528788251
30
0
0
SPLINE
5
291
100
AcDbEntity
8
0
100
AcDbSpline
70
4
71
3
72
8
73
4
74
0
42
0.000000001
43
0.0000000001
44
0.0000000001
40
0
40
0
40
0
40
0
40
1
40
1
40
1
40
1
41
1
41
1
41
1
41
1
10
149.2823123931885
20
-149.12667528788251
30
0
10
148.70810648600263
20
-149.27249972025552
30
0
10
148.69169921875002
20
-149.24868818918864
30
0
10
149.60885899861657
20
-149.60054009755453
30
0
0
SPLINE
5
292
100
AcDbEntity
8
0
100
AcDbSpline
70
4
71
3
72
8
73
4
74
0
42
0.000000001
43
0.0000000001
44
0.0000000001
40
0
40
0
40
0
40
0
40
1
40
1
40
1
40
1
41
1
41
1
41
1
41
1
10
149.60885899861657
20
-149.60054009755453
30
0
10
150.47372868855797
20
-149.93232701619468
30
0
10
150.57548281351728
20
-149.9889207839966
30
0
10
150.57548281351728
20
-150.13813648223876
30
0
0
SPLINE
5
293
100
AcDbEntity
8
0
100
AcDbSpline
70
4
71
3
72
8
73
4
74
0
42
0.000000001
43
0.0000000001
44
0.0000000001
40
0
40
0
40
0
40
0
40
1
40
1
40
1
40
1
41
1
41
1
41
1
41
1
10
150.57548281351728
20
-150.13813648223876
30
0
10
150.57548281351728
20
-150.25999596913658
30
0
10
150.61133333841963
20
-150.27310886383057
30
0
10
150.84526608784995
20
-150.23685461680094
30
0
0
SPLINE
5
294
100
AcDbEntity
8
0
100
AcDbSpline
70
4
71
3
72
8
73
4
74
0
42
0.000000001
43
0.0000000001
44
0.0000000001
40
0
40
0
40
0
40
0
40
1
40
1
40
1
40
1
41
1
41
1
41
1
41
1
10
150.84526608784995
20
-150.23685461680094
30
0
10
150.9936420440674
20
-150.21385860443115
30
0
10
151.27208112080893
20
-150.1341557820638
30
0
10
151.46399447123213
20
-150.05972557067872
30
0
0
SPLINE
5
295
100
AcDbEntity
8
0
100
AcDbSpline
70
4
71
3
72
8
73
4
74
0
42
0.000000001
43
0.0000000001
44
0.0000000001
40
0
40
0
40
0
40
0
40
1
40
1
40
1
40
1
41
1
41
1
41
1
41
1
10
151.46399447123213
20
-150.05972557067872
30
0
10
151.98132400512696
20
-149.85909989674889
30
0
10
153.68622639973961
20
-149.58795204162598
30
0
10
155.04447682698571
20
-149.49026743570965
30
0
0
SPLINE
5
296
100
AcDbEntity
8
0
100
AcDbSpline
70
4
71
3
72
8
73
4
74
0
42
0.000000001
43
0.0000000001
44
0.0000000001
40
0
40
0
40
0
40
0
40
1
40
1
40
1
40
1
41
1
41
1
41
1
41
1
10
155.04447682698571
20
-149.49026743570965
30
0
10
156.12858378092452
20
-149.41230061848958
30
0
10
156.28962046305341
20
-149.41623287200929
30
0
10
156.77109947204593
20
-149.53241602579754
30
0
0
SPLINE
5
297
100
AcDbEntity
8
0
100
AcDbSpline
70
4
71
3
72
8
73
4
74
0
42
0.000000001
43
0.0000000001
44
0.0000000001
40
0
40
0
40
0
40
0
40
1
40
1
40
1
40
1
41
1
41
1
41
1
41
1
10
156.77109947204593
20
-149.53241602579754
30
0
10
159.03307380676273
20
-150.07824026743572
30
0
10
160.92032941182455
20
-151.34846312204996
30
0
10
162.24218025207523
20
-153.21474939982099
30
0
0
SPLINE
5
298
100
AcDbEntity
8
0
100
AcDbSpline
70
4
71
3
72
8
73
4
74
0
42
0.000000001
43
0.0000000001
44
0.0000000001
40
0
40
0
40
0
40
0
40
1
40
1
40
1
40
1
41
1
41
1
41
1
41
1
10
162.24218025207523
20
-153.21474939982099
30
0
10
162.69313786824546
20
-153.8514353434245
30
0
10
162.85296338399252
20
-154.20338414510093
30
0
10
163.06921310424809
20
-155.03590761820476
30
0
0
SPLINE
5
299
100
AcDbEntity
8
0
100
AcDbSpline
70
4
71
3
72
8
73
4
74
0
42
0.000000001
43
0.0000000001
44
0.0000000001
40
0
40
0
40
0
40
0
40
1
40
1
40
1
40
1
41
1
41
1
41
1
41
1
10
163.06921310424809
20
-155.03590761820476
30
0
10
163.33192316691083
20
-156.04733651479086
30
0
10
163.22784360249841
20
-156.48025582631431
30
0
10
162.69639994303387
20
-156.58653971354167
30
0
0
SPLINE
5
300
100
AcDbEntity
8
0
100
AcDbSpline
70
4
71
3
72
8
73
4
74
0
42
0.000000001
43
0.0000000001
44
0.0000000001
40
0
40
0
40
0
40
0
40
1
40
1
40
1
40
1
41
1
41
1
41
1
41
1
10
162.69639994303387
20
-156.58653971354167
30
0
10
162.41511866251631
20
-156.64279435475669
30
0
10
162.11539535522462
20
-156.41586214701337
30
0
10
162.04878120422364
20
-156.09617881774903
30
0
0
SPLINE
5
301
100
AcDbEntity
8
0
100
AcDbSpline
70
4
71
3
72
8
73
4
74
0
42
0.000000001
43
0.0000000001
44
0.0000000001
40
0
40
0
40
0
40
0
40
1
40
1
40
1
40
1
41
1
41
1
41
1
41
1
10
162.04878120422364
20
-156.09617881774903
30
0
10
161.8182074228923
20
-154.9898671468099
30
0
10
160.40280609130861
20
-154.17094103495282
30
0
10
158.88484319051111
20
-154.26558157602949
30
0
0
SPLINE
5
302
100
AcDbEntity
8
0
100
AcDbSpline
70
4
71
3
72
8
73
4
74
0
42
0.000000001
43
0.0000000001
44
0.0000000001
40
0
40
0
40
0
40
0
40
1
40
1
40
1
40
1
41
1
41
1
41
1
41
1
10
158.88484319051111
20
-154.26558157602949
30
0
10
156.85097185770672
20
-154.39239069620768
30
0
10
155.92933883666996
20
-155.99327812194826
30
0
10
157.2121578216553
20
-157.17108090718591
30
0
0
SPLINE
5
303
100
AcDbEntity
8
0
100
AcDbSpline
70
4
71
3
72
8
73
4
74
0
42
0.000000001
43
0.0000000001
44
0.0000000001
40
0
40
0
40
0
40
0
40
1
40
1
40
1
40
1
41
1
41
1
41
1
41
1
10
157.2121578216553
20
-157.17108090718591
30
0
10
157.96379152933758
20
-157.86118736267093
30
0
10
158.83573443094892
20
-158.09423192342123
30
0
10
160.23064282735191
20
-157.97783075968425
30
0
0
SPLINE
5
304
100
AcDbEntity
8
0
100
AcDbSpline
70
4
71
3
72
8
73
4
74
0
42
0.000000001
43
0.0000000001
44
0.0000000001
40
0
40
0
40
0
40
0
40
1
40
1
40
1
40
1
41
1
41
1
41
1
41
1
10
160.23064282735191
20
-157.97783075968425
30
0
10
160.50559374491374
20
-157.9548912684123
30
0
10
160.58969713846847
20
-157.97650655110681
30
0
10
160.67799924214683
20
-158.09345677693685
30
0
0
SPLINE
5
305
100
AcDbEntity
8
0
100
AcDbSpline
70
4
71
3
72
8
73
4
74
0
42
0.000000001
43
0.0000000001
44
0.0000000001
40
0
40
0
40
0
40
0
40
1
40
1
40
1
40
1
41
1
41
1
41
1
41
1
10
160.67799924214683
20
-158.09345677693685
30
0
10
160.92528711954756
20
-158.42064933776857
30
0
10
160.79389979044601
20
-158.84648736317953
30
0
10
160.27705472310387
20
-159.392981783549
30
0
0
SPLINE
5
306
100
AcDbEntity
8
0
100
AcDbSpline
70
4
71
3
72
8
73
4
74
0
42
0.000000001
43
0.0000000001
44
0.0000000001
40
0
40
0
40
0
40
0
40
1
40
1
40
1
40
1
41
1
41
1
41
1
41
1
10
160.27705472310387
20
-159.392981783549
30
0
10
159.85442225138348
20
-159.83986180623373
30
0
10
159.29560623168948
20
-160.1697431564331
30
0
10
158.7704767862956
20
-160.28236548105878
30
0
0
SPLINE
5
307
100
AcDbEntity
8
0
100
AcDbSpline
70
4
71
3
72
8
73
4
74
0
42
0.000000001
43
0.0000000001
44
0.0000000001
40
0
40
0
40
0
40
0
40
1
40
1
40
1
40
1
41
1
41
1
41
1
41
1
10
158.7704767862956
20
-160.28236548105878
30
0
10
157.95980275472007
20
-160.45622437795004
30
0
10
156.6989462534587
20
-160.33036804199219
30
0
10
155.79133046468101
20
-159.98499991099041
30
0
0
SPLINE
5
308
100
AcDbEntity
8
0
100
AcDbSpline
70
4
71
3
72
8
73
4
74
0
42
0.000000001
43
0.0000000001
44
0.0000000001
40
0
40
0
40
0
40
0
40
1
40
1
40
1
40
1
41
1
41
1
41
1
41
1
10
155.79133046468101
20
-159.98499991099041
30
0
10
155.35776519775393
20
-159.82002290089926
30
0
10
154.48099377950035
20
-159.27318127950033
30
0
10
153.86486536661786
20
-158.783490562439
30
0
0
SPLINE
5
309
100
AcDbEntity
8
0
100
AcDbSpline
70
4
71
3
72
8
73
4
74
0
42
0.000000001
43
0.0000000001
44
0.0000000001
40
0
40
0
40
0
40
0
40
1
40
1
40
1
40
1
41
1
41
1
41
1
41
1
10
153.86486536661786
20
-158.783490562439
30
0
10
153.51753514607748
20
-158.5074334462484
30
0
10
153.0531901041667
20
-158.17848873138428
30
0
10
152.83298390706383
20
-158.0525032043457
30
0
0
SPLINE
5
310
100
AcDbEntity
8
0
100
AcDbSpline
70
4
71
3
72
8
73
4
74
0
42
0.000000001
43
0.0000000001
44
0.0000000001
40
0
40
0
40
0
40
0
40
1
40
1
40
1
40
1
41
1
41
1
41
1
41
1
10
152.83298390706383
20
-158.0525032043457
30
0
10
152.47128117879234
20
-157.84556331634522
30
0
10
152.39442863464359
20
-157.82792065938315
30
0
10
152.03744138081871
20
-157.86987546284993
30
0
0
SPLINE
5
311
100
AcDbEntity
8
0
100
AcDbSpline
70
4
71
3
72
8
73
4
74
0
42
0.000000001
43
0.0000000001
44
0.0000000001
40
0
40
0
40
0
40
0
40
1
40
1
40
1
40
1
41
1
41
1
41
1
41
1
10
152.03744138081871
20
-157.86987546284993
30
0
10
151.82009353637699
20
-157.89540685017903
30
0
10
151.55500958760581
20
-157.96144771575928
30
0
10
151.4483623504639
20
-158.01659615834555
30
0
0
SPLINE
5
312
100
AcDbEntity
8
0
100
AcDbSpline
70
4
71
3
72
8
73
4
74
0
42
0.000000001
43
0.0000000001
44
0.0000000001
40
0
40
0
40
0
40
0
40
1
40
1
40
1
40
1
41
1
41
1
41
1
41
1
10
151.4483623504639
20
-158.01659615834555
30
0
10
151.13985404968264
20
-158.1761390686035
30
0
10
150.62150713602705
20
-158.7762477874756
30
0
10
150.39862022399905
20
-159.23194510142011
30
0
0
SPLINE
5
313
100
AcDbEntity
8
0
100
AcDbSpline
70
4
71
3
72
8
73
4
74
0
42
0.000000001
43
0.0000000001
44
0.0000000001
40
0
40
0
40
0
40
0
40
1
40
1
40
1
40
1
41
1
41
1
41
1
41
1
10
150.39862022399905
20
-159.23194510142011
30
0
10
150.10563100179039
20
-159.83097184499104
30
0
10
150.08492813110354
20
-160.22374502817792
30
0
10
150.3159056345622
20
-160.80109996795656
30
0
0
SPLINE
5
314
100
AcDbEntity
8
0
100
AcDbSpline
70
4
71
3
72
8
73
4
74
0
42
0.000000001
43
0.0000000001
44
0.0000000001
40
0
40
0
40
0
40
0
40
1
40
1
40
1
40
1
41
1
41
1
41
1
41
1
10
150.3159056345622
20
-160.80109996795656
30
0
10
150.52159398396813
20
-161.31523202260337
30
0
10
150.54622103373214
20
-161.55425974527992
30
0
10
150.42169698079428
20
-161.82755540211997
30
0
0
SPLINE
5
315
100
AcDbEntity
8
0
100
AcDbSpline
70
4
71
3
72
8
73
4
74
0
42
0.000000001
43
0.0000000001
44
0.0000000001
40
0
40
0
40
0
40
0
40
1
40
1
40
1
40
1
41
1
41
1
41
1
41
1
10
150.42169698079428
20
-161.82755540211997
30
0
10
150.32729059855146
20
-162.03476174672446
30
0
10
150.03591626485192
20
-162.12372595469159
30
0
10
149.77570927937828
20
-162.02479788462318
30
0
0
SPLINE
5
316
100
AcDbEntity
8
0
100
AcDbSpline
70
4
71
3
72
8
73
4
74
0
42
0.000000001
43
0.0000000001
44
0.0000000001
40
0
40
0
40
0
40
0
40
1
40
1
40
1
40
1
41
1
41
1
41
1
41
1
10
149.77570927937828
20
-162.02479788462318
30
0
10
149.55253168741865
20
-161.9399435679118
30
0
10
149.48669268290203
20
-161.85953019460044
30
0
10
149.21027221679691
20
-161.33403739929201
30
0
0
SPLINE
5
317
100
AcDbEntity
8
0
100
AcDbSpline
70
4
71
3
72
8
73
4
74
0
42
0.000000001
43
0.0000000001
44
0.0000000001
40
0
40
0
40
0
40
0
40
1
40
1
40
1
40
1
41
1
41
1
41
1
41
1
10
149.21027221679691
20
-161.33403739929201
30
0
10
148.70229288736982
20
-160.36834214528403
30
0
10
147.83353131612142
20
-159.37957013448082
30
0
10
147.10718676249189
20
-158.94043350219729
30
0
0
SPLINE
5
318
100
AcDbEntity
8
0
100
AcDbSpline
70
4
71
3
72
8
73
4
74
0
42
0.000000001
43
0.0000000001
44
0.0000000001
40
0
40
0
40
0
40
0
40
1
40
1
40
1
40
1
41
1
41
1
41
1
41
1
10
147.10718676249189
20
-158.94043350219729
30
0
10
146.89786491394045
20
-158.81388276418051
30
0
10
146.52348531087242
20
-158.6584981918335
30
0
10
146.27522850036624
20
-158.59513804117839
30
0
0
SPLINE
5
319
100
AcDbEntity
8
0
100
AcDbSpline
70
4
71
3
72
8
73
4
74
0
42
0.000000001
43
0.0000000001
44
0.0000000001
40
0
40
0
40
0
40
0
40
1
40
1
40
1
40
1
41
1
41
1
41
1
41
1
10
146.27522850036624
20
-158.59513804117839
30
0
10
145.86123568216962
20
-158.48947588602704
30
0
10
145.79100418090823
20
-158.48949203491213
30
0
10
145.42707290649415
20
-158.59529145558676
30
0
0
SPLINE
5
320
100
AcDbEntity
8
0
100
AcDbSpline
70
4
71
3
72
8
73
4
74
0
42
0.000000001
43
0.0000000001
44
0.0000000001
40
0
40
0
40
0
40
0
40
1
40
1
40
1
40
1
41
1
41
1
41
1
41
1
10
145.42707290649415
20
-158.59529145558676
30
0
10
144.9586098988851
20
-158.7314750035604
30
0
10
144.55592130025229
20
-159.09682737986248
30
0
10
144.28500760396324
20
-159.63145236968995
30
0
0
SPLINE
5
321
100
AcDbEntity
8
0
100
AcDbSpline
70
4
71
3
72
8
73
4
74
0
42
0.000000001
43
0.0000000001
44
0.0000000001
40
0
40
0
40
0
40
0
40
1
40
1
40
1
40
1
41
1
41
1
41
1
41
1
10
144.28500760396324
20
-159.63145236968995
30
0
10
144.04776433308922
20
-160.09962469736735
30
0
10
143.74329325358073
20
-160.31857935587567
30
0
10
143.40566851298016
20
-160.26379426320398
30
0
0
SPLINE
5
322
100
AcDbEntity
8
0
100
AcDbSpline
70
4
71
3
72
8
73
4
74
0
42
0.000000001
43
0.0000000001
44
0.0000000001
40
0
40
0
40
0
40
0
40
1
40
1
40
1
40
1
41
1
41
1
41
1
41
1
10
143.40566851298016
20
-160.26379426320398
30
0
10
143.07991320292157
20
-160.21093088785807
30
0
10
142.97014923095705
20
-160.11543445587159
30
0
10
142.91064058939617
20
-159.83309542338054
30
0
0
SPLINE
5
323
100
AcDbEntity
8
0
100
AcDbSpline
70
4
71
3
72
8
73
4
74
0
42
0.000000001
43
0.0000000001
44
0.0000000001
40
0
40
0
40
0
40
0
40
1
40
1
40
1
40
1
41
1
41
1
41
1
41
1
10
142.91064058939617
20
-159.83309542338054
30
0
10
142.69571507771812
20
-158.81322065989178
30
0
10
142.04425290425621
20
-157.00658836364747
30
0
10
141.49212252298992
20
-155.89921894073487
30
0
0
LINE
5
324
100
AcDbEntity
8
0
100
AcDbLine
10
141.49212252298992
20
-155.89921894073487
30
0
11
141.25896492004398
21
-155.43159567515056
31
0
0
LINE
5
325
100
AcDbEntity
8
0
100
AcDbLine
10
141.25896492004398
20
-155.43159567515056
30
0
11
141.21671943664555
21
-155.97116222381595
31
0
0
SPLINE
5
326
100
AcDbEntity
8
0
100
AcDbSpline
70
4
71
3
72
8
73
4
74
0
42
0.000000001
43
0.0000000001
44
0.0000000001
40
0
40
0
40
0
40
0
40
1
40
1
40
1
40
1
41
1
41
1
41
1
41
1
10
141.21671943664555
20
-155.97116222381595
30
0
10
141.19348119099936
20
-156.26792221069337
30
0
10
141.13758989969892
20
-156.64087263743085
30
0
10
141.09250221252444
20
-156.79993915557861
30
0
0
SPLINE
5
327
100
AcDbEntity
8
0
100
AcDbSpline
70
4
71
3
72
8
73
4
74
0
42
0.000000001
43
0.0000000001
44
0.0000000001
40
0
40
0
40
0
40
0
40
1
40
1
40
1
40
1
41
1
41
1
41
1
41
1
10
141.09250221252444
20
-156.79993915557861
30
0
10
141.00421625773114
20
-157.11136233011882
30
0
10
140.54825248718262
20
-157.91249237060549
30
0
10
140.4088068644206
20
-158.00116589864098
30
0
0
SPLINE
5
328
100
AcDbEntity
8
0
100
AcDbSpline
70
4
71
3
72
8
73
4
74
0
42
0.000000001
43
0.0000000001
44
0.0000000001
40
0
40
0
40
0
40
0
40
1
40
1
40
1
40
1
41
1
41
1
41
1
41
1
10
140.4088068644206
20
-158.00116589864098
30
0
10
140.27446428934735
20
-158.08659350077312
30
0
10
139.95266545613609
20
-158.06636702219646
30
0
10
139.87427876790366
20
-157.96756006876626
30
0
0
SPLINE
5
329
100
AcDbEntity
8
0
100
AcDbSpline
70
4
71
3
72
8
73
4
74
0
42
0.000000001
43
0.0000000001
44
0.0000000001
40
0
40
0
40
0
40
0
40
1
40
1
40
1
40
1
41
1
41
1
41
1
41
1
10
139.87427876790366
20
-157.96756006876626
30
0
10
139.83503697713218
20
-157.9180960337321
30
0
10
139.78169720967611
20
-157.58626066843669
30
0
10
139.75574595133466
20
-157.23015352884929
30
0
0
SPLINE
5
330
100
AcDbEntity
8
0
100
AcDbSpline
70
4
71
3
72
8
73
4
74
0
42
0.000000001
43
0.0000000001
44
0.0000000001
40
0
40
0
40
0
40
0
40
1
40
1
40
1
40
1
41
1
41
1
41
1
41
1
10
139.75574595133466
20
-157.23015352884929
30
0
10
139.72861582438154
20
-156.85786520640056
30
0
10
139.64228388468425
20
-156.40102939605714
30
0
10
139.55259297688804
20
-156.15530796051024
30
0
0
LINE
5
331
100
AcDbEntity
8
0
100
AcDbLine
10
139.55259297688804
20
-156.15530796051024
30
0
11
139.39662704467776
21
-155.7279438654582
31
0
0
LINE
5
332
100
AcDbEntity
8
0
100
AcDbLine
10
139.39662704467776
20
-155.7279438654582
30
0
11
139.31184539794924
21
-156.22725124359133
31
0
0
SPLINE
5
333
100
AcDbEntity
8
0
100
AcDbSpline
70
4
71
3
72
8
73
4
74
0
42
0.000000001
43
0.0000000001
44
0.0000000001
40
0
40
0
40
0
40
0
40
1
40
1
40
1
40
1
41
1
41
1
41
1
41
1
10
139.31184539794924
20
-156.22725124359133
30
0
10
139.20978444417321
20
-156.82825622558596
30
0
10
139.08025423685712
20
-157.15225938161214
30
0
10
138.81741498311362
20
-157.46396516164145
30
0
0
SPLINE
5
334
100
AcDbEntity
8
0
100
AcDbSpline
70
4
71
3
72
8
73
4
74
0
42
0.000000001
43
0.0000000001
44
0.0000000001
40
0
40
0
40
0
40
0
40
1
40
1
40
1
40
1
41
1
41
1
41
1
41
1
10
138.81741498311362
20
-157.46396516164145
30
0
10
138.65061314900717
20
-157.661789004008
30
0
10
138.57203267415366
20
-157.69777679443362
30
0
10
138.30693257649742
20
-157.69777679443362
30
0
0
SPLINE
5
335
100
AcDbEntity
8
0
100
AcDbSpline
70
4
71
3
72
8
73
4
74
0
42
0.000000001
43
0.0000000001
44
0.0000000001
40
0
40
0
40
0
40
0
40
1
40
1
40
1
40
1
41
1
41
1
41
1
41
1
10
138.30693257649742
20
-157.69777679443362
30
0
10
137.83013674418135
20
-157.69777679443362
30
0
10
137.65442072550459
20
-157.50354607899988
30
0
10
137.43918838500977
20
-156.73854916890463
30
0
0
SPLINE
5
336
100
AcDbEntity
8
0
100
AcDbSpline
70
4
71
3
72
8
73
4
74
0
42
0.000000001
43
0.0000000001
44
0.0000000001
40
0
40
0
40
0
40
0
40
1
40
1
40
1
40
1
41
1
41
1
41
1
41
1
10
137.43918838500977
20
-156.73854916890463
30
0
10
137.13573468526207
20
-155.65998935699466
30
0
10
136.97991409301761
20
-155.49264653523764
30
0
10
135.57961196899416
20
-154.74144077301025
30
0
0
SPLINE
5
337
100
AcDbEntity
8
0
100
AcDbSpline
70
4
71
3
72
8
73
4
74
0
42
0.000000001
43
0.0000000001
44
0.0000000001
40
0
40
0
40
0
40
0
40
1
40
1
40
1
40
1
41
1
41
1
41
1
41
1
10
135.57961196899416
20
-154.74144077301025
30
0
10
134.97988274892174
20
-154.41971460978192
30
0
10
134.57812271118166
20
-154.14472332000736
30
0
10
134.24926681518556
20
-153.83086973826093
30
0
0
SPLINE
5
338
100
AcDbEntity
8
0
100
AcDbSpline
70
4
71
3
72
8
73
4
74
0
42
0.000000001
43
0.0000000001
44
0.0000000001
40
0
40
0
40
0
40
0
40
1
40
1
40
1
40
1
41
1
41
1
41
1
41
1
10
134.24926681518556
20
-153.83086973826093
30
0
10
133.99014180501302
20
-153.5835657119751
30
0
10
133.76976604461672
20
-153.3812282562256
30
0
10
133.75954380035404
20
-153.3812282562256
30
0
0
SPLINE
5
339
100
AcDbEntity
8
0
100
AcDbSpline
70
4
71
3
72
8
73
4
74
0
42
0.000000001
43
0.0000000001
44
0.0000000001
40
0
40
0
40
0
40
0
40
1
40
1
40
1
40
1
41
1
41
1
41
1
41
1
10
133.75954380035404
20
-153.3812282562256
30
0
10
133.74932963053388
20
-153.3812282562256
30
0
10
133.74097258249921
20
-153.43245251973471
30
0
10
133.74097258249921
20
-153.49506982167563
30
0
0
SPLINE
5
340
100
AcDbEntity
8
0
100
AcDbSpline
70
4
71
3
72
8
73
4
74
0
42
0.000000001
43
0.0000000001
44
0.0000000001
40
0
40
0
40
0
40
0
40
1
40
1
40
1
40
1
41
1
41
1
41
1
41
1
10
133.74097258249921
20
-153.49506982167563
30
0
10
133.74097258249921
20
-153.68782291412356
30
0
10
133.30780296325685
20
-154.60809942881266
30
0
10
133.01553236643474
20
-155.03627904256186
30
0
0
SPLINE
5
341
100
AcDbEntity
8
0
100
AcDbSpline
70
4
71
3
72
8
73
4
74
0
42
0.000000001
43
0.0000000001
44
0.0000000001
40
0
40
0
40
0
40
0
40
1
40
1
40
1
40
1
41
1
41
1
41
1
41
1
10
133.01553236643474
20
-155.03627904256186
30
0
10
132.57080014546713
20
-155.68781388600669
30
0
10
132.20761979420982
20
-155.77767435709637
30
0
10
131.87497698465984
20
-155.31848080952963
30
0
0
SPLINE
5
342
100
AcDbEntity
8
0
100
AcDbSpline
70
4
71
3
72
8
73
4
74
0
42
0.000000001
43
0.0000000001
44
0.0000000001
40
0
40
0
40
0
40
0
40
1
40
1
40
1
40
1
41
1
41
1
41
1
41
1
10
131.87497698465984
20
-155.31848080952963
30
0
10
131.62194010416667
20
-154.96918042500818
30
0
10
131.48667704264324
20
-154.5709327697754
30
0
10
131.3322048823039
20
-153.72045981089275
30
0
0
SPLINE
5
343
100
AcDbEntity
8
0
100
AcDbSpline
70
4
71
3
72
8
73
4
74
0
42
0.000000001
43
0.0000000001
44
0.0000000001
40
0
40
0
40
0
40
0
40
1
40
1
40
1
40
1
41
1
41
1
41
1
41
1
10
131.3322048823039
20
-153.72045981089275
30
0
10
131.26907081604006
20
-153.37286313374841
30
0
10
131.06962401072187
20
-152.69301122029623
30
0
10
130.88899065653487
20
-152.20966701507569
30
0
0
SPLINE
5
344
100
AcDbEntity
8
0
100
AcDbSpline
70
4
71
3
72
8
73
4
74
0
42
0.000000001
43
0.0000000001
44
0.0000000001
40
0
40
0
40
0
40
0
40
1
40
1
40
1
40
1
41
1
41
1
41
1
41
1
10
130.88899065653487
20
-152.20966701507569
30
0
10
130.37291266123455
20
-150.82874355316164
30
0
10
130.3809790293376
20
-150.83425839742026
30
0
10
130.34407075246176
20
-151.83728179931643
30
0
0
SPLINE
5
345
100
AcDbEntity
8
0
100
AcDbSpline
70
4
71
3
72
8
73
4
74
0
42
0.000000001
43
0.0000000001
44
0.0000000001
40
0
40
0
40
0
40
0
40
1
40
1
40
1
40
1
41
1
41
1
41
1
41
1
10
130.34407075246176
20
-151.83728179931643
30
0
10
130.3024066289266
20
-152.96952857971192
30
0
10
130.09467544555665
20
-153.63676821390789
30
0
10
129.73735713958743
20
-153.78607273101807
30
0
0
SPLINE
5
346
100
AcDbEntity
8
0
100
AcDbSpline
70
4
71
3
72
8
73
4
74
0
42
0.000000001
43
0.0000000001
44
0.0000000001
40
0
40
0
40
0
40
0
40
1
40
1
40
1
40
1
41
1
41
1
41
1
41
1
10
129.73735713958743
20
-153.78607273101807
30
0
10
129.19475460052493
20
-154.01278692881266
30
0
10
129.10652516682944
20
-153.91815446217856
30
0
10
128.78977286020915
20
-152.76971842447918
30
0
0
SPLINE
5
347
100
AcDbEntity
8
0
100
AcDbSpline
70
4
71
3
72
8
73
4
74
0
42
0.000000001
43
0.0000000001
44
0.0000000001
40
0
40
0
40
0
40
0
40
1
40
1
40
1
40
1
41
1
41
1
41
1
41
1
10
128.78977286020915
20
-152.76971842447918
30
0
10
128.66972204844157
20
-152.33446559906008
30
0
10
128.40980574289961
20
-151.63842442830403
30
0
10
128.21216761271162
20
-151.2229539871216
30
0
0
LINE
5
348
100
AcDbEntity
8
0
100
AcDbLine
10
128.21216761271162
20
-151.2229539871216
30
0
11
127.85283069610598
21
-150.46755758921307
31
0
0
LINE
5
349
100
AcDbEntity
8
0
100
AcDbLine
10
127.85283069610598
20
-150.46755758921307
30
0
11
127.84727547963463
21
-150.95174153645834
31
0
0
SPLINE
5
350
100
AcDbEntity
8
0
100
AcDbSpline
70
4
71
3
72
8
73
4
74
0
42
0.000000001
43
0.0000000001
44
0.0000000001
40
0
40
0
40
0
40
0
40
1
40
1
40
1
40
1
41
1
41
1
41
1
41
1
10
127.84727547963462
20
-150.95174153645834
30
0
10
127.84000040690105
20
-151.58528652191163
30
0
10
127.5461795171102
20
-152.33694445292156
30
0
10
127.2305899302165
20
-152.52940686543783
30
0
0
SPLINE
5
351
100
AcDbEntity
8
0
100
AcDbSpline
70
4
71
3
72
8
73
4
74
0
42
0.000000001
43
0.0000000001
44
0.0000000001
40
0
40
0
40
0
40
0
40
1
40
1
40
1
40
1
41
1
41
1
41
1
41
1
10
127.2305899302165
20
-152.52940686543783
30
0
10
126.97890148162843
20
-152.68289394378661
30
0
10
126.59838530222578
20
-152.70279744466148
30
0
10
126.48677228291831
20
-152.56830145517986
30
0
0
SPLINE
5
352
100
AcDbEntity
8
0
100
AcDbSpline
70
4
71
3
72
8
73
4
74
0
42
0.000000001
43
0.0000000001
44
0.0000000001
40
0
40
0
40
0
40
0
40
1
40
1
40
1
40
1
41
1
41
1
41
1
41
1
10
126.48677228291831
20
-152.56830145517986
30
0
10
126.44409885406496
20
-152.51688340504967
30
0
10
126.38703676859541
20
-152.33072713216146
30
0
10
126.35997931162518
20
-152.15463161468506
30
0
0
SPLINE
5
353
100
AcDbEntity
8
0
100
AcDbSpline
70
4
71
3
72
8
73
4
74
0
42
0.000000001
43
0.0000000001
44
0.0000000001
40
0
40
0
40
0
40
0
40
1
40
1
40
1
40
1
41
1
41
1
41
1
41
1
10
126.35997931162518
20
-152.15463161468506
30
0
10
126.28045412699385
20
-151.63707599639895
30
0
10
125.91473032633465
20
-150.71017843882242
30
0
10
125.64459985097251
20
-150.3415397644043
30
0
0
SPLINE
5
354
100
AcDbEntity
8
0
100
AcDbSpline
70
4
71
3
72
8
73
4
74
0
42
0.000000001
43
0.0000000001
44
0.0000000001
40
0
40
0
40
0
40
0
40
1
40
1
40
1
40
1
41
1
41
1
41
1
41
1
10
125.64459985097251
20
-150.3415397644043
30
0
10
125.31986999511722
20
-149.89839820861818
30
0
10
124.86309878031415
20
-149.5681615829468
30
0
10
124.57552750905357
20
-149.56865412394205
30
0
0
SPLINE
5
355
100
AcDbEntity
8
0
100
AcDbSpline
70
4
71
3
72
8
73
4
74
0
42
0.000000001
43
0.0000000001
44
0.0000000001
40
0
40
0
40
0
40
0
40
1
40
1
40
1
40
1
41
1
41
1
41
1
41
1
10
124.57552750905357
20
-149.56865412394205
30
0
10
124.30768210093183
20
-149.56918703715007
30
0
10
124.12963256835938
20
-149.68074353535971
30
0
10
123.46099605560305
20
-150.26748097737629
30
0
0
SPLINE
5
356
100
AcDbEntity
8
0
100
AcDbSpline
70
4
71
3
72
8
73
4
74
0
42
0.000000001
43
0.0000000001
44
0.0000000001
40
0
40
0
40
0
40
0
40
1
40
1
40
1
40
1
41
1
41
1
41
1
41
1
10
123.46099605560305
20
-150.26748097737629
30
0
10
122.83510564168296
20
-150.81670455932618
30
0
10
122.61157277425133
20
-150.93591562906903
30
0
10
122.11077162424726
20
-150.98760821024575
30
0
0
LINE
5
357
100
AcDbEntity
8
0
100
AcDbLine
10
122.11077162424726
20
-150.98760821024575
30
0
11
121.71975059509279
21
-151.02796427408856
31
0
0
LINE
5
358
100
AcDbEntity
8
0
100
AcDbLine
10
121.71975059509279
20
-151.02796427408856
30
0
11
121.76587988535564
21
-151.25135987599691
31
0
0
SPLINE
5
359
100
AcDbEntity
8
0
100
AcDbSpline
70
4
71
3
72
8
73
4
74
0
42
0.000000001
43
0.0000000001
44
0.0000000001
40
0
40
0
40
0
40
0
40
1
40
1
40
1
40
1
41
1
41
1
41
1
41
1
10
121.76587988535564
20
-151.25135987599691
30
0
10
121.82211837768557
20
-151.52375926971439
30
0
10
121.87830842336021
20
-151.56944446563722
30
0
10
122.7136741002401
20
-152.02209771474205
30
0
0
SPLINE
5
360
100
AcDbEntity
8
0
100
AcDbSpline
70
4
71
3
72
8
73
4
74
0
42
0.000000001
43
0.0000000001
44
0.0000000001
40
0
40
0
40
0
40
0
40
1
40
1
40
1
40
1
41
1
41
1
41
1
41
1
10
122.7136741002401
20
-152.02209771474205
30
0
10
123.67992649078371
20
-152.54568494160969
30
0
10
123.98085289001466
20
-152.96516030629476
30
0
10
124.20479755401614
20
-154.1006530125936
30
0
0
SPLINE
5
361
100
AcDbEntity
8
0
100
AcDbSpline
70
4
71
3
72
8
73
4
74
0
42
0.000000001
43
0.0000000001
44
0.0000000001
40
0
40
0
40
0
40
0
40
1
40
1
40
1
40
1
41
1
41
1
41
1
41
1
10
124.20479755401614
20
-154.1006530125936
30
0
10
124.36748949686688
20
-154.9255865097046
30
0
10
124.50038674672447
20
-155.32824281056722
30
0
10
124.82970288594565
20
-155.99404519399008
30
0
0
SPLINE
5
362
100
AcDbEntity
8
0
100
AcDbSpline
70
4
71
3
72
8
73
4
74
0
42
0.000000001
43
0.0000000001
44
0.0000000001
40
0
40
0
40
0
40
0
40
1
40
1
40
1
40
1
41
1
41
1
41
1
41
1
10
124.82970288594565
20
-155.99404519399008
30
0
10
125.10639788309734
20
-156.55344257354739
30
0
10
125.14763406117758
20
-156.7191624323527
30
0
10
125.06424121856691
20
-156.93649412790936
30
0
0
SPLINE
5
363
100
AcDbEntity
8
0
100
AcDbSpline
70
4
71
3
72
8
73
4
74
0
42
0.000000001
43
0.0000000001
44
0.0000000001
40
0
40
0
40
0
40
0
40
1
40
1
40
1
40
1
41
1
41
1
41
1
41
1
10
125.06424121856691
20
-156.93649412790936
30
0
10
125.00994059244795
20
-157.07799873352053
30
0
10
124.53968505859378
20
-157.08514461517336
30
0
10
124.16193033854169
20
-156.9501964569092
30
0
0
LINE
5
364
100
AcDbEntity
8
0
100
AcDbLine
10
124.16193033854169
20
-156.9501964569092
30
0
11
123.89940598805748
21
-156.85641180674236
31
0
0
LINE
5
365
100
AcDbEntity
8
0
100
AcDbLine
10
123.89940598805748
20
-156.85641180674236
30
0
11
124.02736167907717
21
-157.15491587320966
31
0
0
SPLINE
5
366
100
AcDbEntity
8
0
100
AcDbSpline
70
4
71
3
72
8
73
4
74
0
42
0.000000001
43
0.0000000001
44
0.0000000001
40
0
40
0
40
0
40
0
40
1
40
1
40
1
40
1
41
1
41
1
41
1
41
1
10
124.02736167907717
20
-157.15491587320966
30
0
10
124.21429309844973
20
-157.59100036621095
30
0
10
124.80769195556641
20
-158.47818781534832
30
0
10
125.42255268096925
20
-159.24083506266277
30
0
0
SPLINE
5
367
100
AcDbEntity
8
0
100
AcDbSpline
70
4
71
3
72
8
73
4
74
0
42
0.000000001
43
0.0000000001
44
0.0000000001
40
0
40
0
40
0
40
0
40
1
40
1
40
1
40
1
41
1
41
1
41
1
41
1
10
125.42255268096925
20
-159.24083506266277
30
0
10
125.69548498789472
20
-159.57936414082846
30
0
10
125.75480791727705
20
-160.03975270589194
30
0
10
125.5569840749105
20
-160.2840530395508
30
0
0
SPLINE
5
368
100
AcDbEntity
8
0
100
AcDbSpline
70
4
71
3
72
8
73
4
74
0
42
0.000000001
43
0.0000000001
44
0.0000000001
40
0
40
0
40
0
40
0
40
1
40
1
40
1
40
1
41
1
41
1
41
1
41
1
10
125.5569840749105
20
-160.2840530395508
30
0
10
125.43347740173343
20
-160.43657925923668
30
0
10
125.35777142842612
20
-160.45817839304607
30
0
10
124.95603561401369
20
-160.45546538035074
30
0
0
SPLINE
5
369
100
AcDbEntity
8
0
100
AcDbSpline
70
4
71
3
72
8
73
4
74
0
42
0.000000001
43
0.0000000001
44
0.0000000001
40
0
40
0
40
0
40
0
40
1
40
1
40
1
40
1
41
1
41
1
41
1
41
1
10
124.95603561401369
20
-160.45546538035074
30
0
10
124.68430639902752
20
-160.45361633300783
30
0
10
124.31993103027345
20
-160.39116051991783
30
0
10
124.06474634806317
20
-160.30264848073324
30
0
0
SPLINE
5
370
100
AcDbEntity
8
0
100
AcDbSpline
70
4
71
3
72
8
73
4
74
0
42
0.000000001
43
0.0000000001
44
0.0000000001
40
0
40
0
40
0
40
0
40
1
40
1
40
1
40
1
41
1
41
1
41
1
41
1
10
124.06474634806317
20
-160.30264848073324
30
0
10
123.79582703908285
20
-160.20937252044678
30
0
10
123.60732110341391
20
-160.17833436330162
30
0
10
123.56474456787112
20
-160.22032146453859
30
0
0
SPLINE
5
371
100
AcDbEntity
8
0
100
AcDbSpline
70
4
71
3
72
8
73
4
74
0
42
0.000000001
43
0.0000000001
44
0.0000000001
40
0
40
0
40
0
40
0
40
1
40
1
40
1
40
1
41
1
41
1
41
1
41
1
10
123.56474456787112
20
-160.22032146453859
30
0
10
123.52715803782147
20
-160.25738315582277
30
0
10
123.41854063669842
20
-160.28770268758137
30
0
10
123.32338333129884
20
-160.28770268758137
30
0
0
SPLINE
5
372
100
AcDbEntity
8
0
100
AcDbSpline
70
4
71
3
72
8
73
4
74
0
42
0.000000001
43
0.0000000001
44
0.0000000001
40
0
40
0
40
0
40
0
40
1
40
1
40
1
40
1
41
1
41
1
41
1
41
1
10
123.32338333129884
20
-160.28770268758137
30
0
10
123.01151606241862
20
-160.28770268758137
30
0
10
121.62227592468264
20
-159.98953774770104
30
0
10
121.46379076639812
20
-159.88858299255372
30
0
0
SPLINE
5
373
100
AcDbEntity
8
0
100
AcDbSpline
70
4
71
3
72
8
73
4
74
0
42
0.000000001
43
0.0000000001
44
0.0000000001
40
0
40
0
40
0
40
0
40
1
40
1
40
1
40
1
41
1
41
1
41
1
41
1
10
121.46379076639812
20
-159.88858299255372
30
0
10
121.30992418924968
20
-159.79057540893558
30
0
10
121.30964158376059
20
-159.79143937428796
30
0
10
121.42189248402914
20
-160.01643371582034
30
0
0
SPLINE
5
374
100
AcDbEntity
8
0
100
AcDbSpline
70
4
71
3
72
8
73
4
74
0
42
0.000000001
43
0.0000000001
44
0.0000000001
40
0
40
0
40
0
40
0
40
1
40
1
40
1
40
1
41
1
41
1
41
1
41
1
10
121.42189248402914
20
-160.01643371582034
30
0
10
121.52518882751467
20
-160.22348664601645
30
0
10
121.52459131876628
20
-160.27198982238772
30
0
10
121.41493231455486
20
-160.58074035644529
30
0
0
SPLINE
5
375
100
AcDbEntity
8
0
100
AcDbSpline
70
4
71
3
72
8
73
4
74
0
42
0.000000001
43
0.0000000001
44
0.0000000001
40
0
40
0
40
0
40
0
40
1
40
1
40
1
40
1
41
1
41
1
41
1
41
1
10
121.41493231455486
20
-160.58074035644529
30
0
10
121.34894797007246
20
-160.76651713053388
30
0
10
121.29496224721274
20
-161.01351432800294
30
0
10
121.29496224721274
20
-161.12961673736572
30
0
0
SPLINE
5
376
100
AcDbEntity
8
0
100
AcDbSpline
70
4
71
3
72
8
73
4
74
0
42
0.000000001
43
0.0000000001
44
0.0000000001
40
0
40
0
40
0
40
0
40
1
40
1
40
1
40
1
41
1
41
1
41
1
41
1
10
121.29496224721274
20
-161.12961673736572
30
0
10
121.29496224721274
20
-161.67577203114831
30
0
10
120.69100201924643
20
-163.04513289133709
30
0
10
120.26004479726157
20
-163.47609011332196
30
0
0
LINE
5
377
100
AcDbEntity
8
0
100
AcDbLine
10
120.26004479726157
20
-163.47609011332196
30
0
11
120.01487242380779
21
-163.7212544123332
31
0
0
LINE
5
378
100
AcDbEntity
8
0
100
AcDbLine
10
120.01487242380779
20
-163.7212544123332
30
0
11
120.16930421193442
21
-163.90394674936931
31
0
0
SPLINE
5
379
100
AcDbEntity
8
0
100
AcDbSpline
70
4
71
3
72
8
73
4
74
0
42
0.000000001
43
0.0000000001
44
0.0000000001
40
0
40
0
40
0
40
0
40
1
40
1
40
1
40
1
41
1
41
1
41
1
41
1
10
120.16930421193443
20
-163.90394674936931
30
0
10
120.29230219523114
20
-164.04945627848306
30
0
10
120.42715346018475
20
-164.10110041300456
30
0
10
120.83189296722415
20
-164.15770225524903
30
0
0
SPLINE
5
380
100
AcDbEntity
8
0
100
AcDbSpline
70
4
71
3
72
8
73
4
74
0
42
0.000000001
43
0.0000000001
44
0.0000000001
40
0
40
0
40
0
40
0
40
1
40
1
40
1
40
1
41
1
41
1
41
1
41
1
10
120.83189296722415
20
-164.15770225524903
30
0
10
121.21322466532391
20
-164.21102587382001
30
0
10
121.54108740488689
20
-164.3290742238363
30
0
10
122.14552402496339
20
-164.63067887624106
30
0
0
SPLINE
5
381
100
AcDbEntity
8
0
100
AcDbSpline
70
4
71
3
72
8
73
4
74
0
42
0.000000001
43
0.0000000001
44
0.0000000001
40
0
40
0
40
0
40
0
40
1
40
1
40
1
40
1
41
1
41
1
41
1
41
1
10
122.14552402496339
20
-164.63067887624106
30
0
10
122.5885363896688
20
-164.85173288981122
30
0
10
123.0559093475342
20
-165.10603745778405
30
0
10
123.1841314951579
20
-165.19580103556314
30
0
0
SPLINE
5
382
100
AcDbEntity
8
0
100
AcDbSpline
70
4
71
3
72
8
73
4
74
0
42
0.000000001
43
0.0000000001
44
0.0000000001
40
0
40
0
40
0
40
0
40
1
40
1
40
1
40
1
41
1
41
1
41
1
41
1
10
123.1841314951579
20
-165.19580103556314
30
0
10
123.60355033874514
20
-165.48942006429036
30
0
10
124.60645262400311
20
-166.34678859710698
30
0
10
124.75508696238201
20
-166.53878269195559
30
0
0
SPLINE
5
383
100
AcDbEntity
8
0
100
AcDbSpline
70
4
71
3
72
8
73
4
74
0
42
0.000000001
43
0.0000000001
44
0.0000000001
40
0
40
0
40
0
40
0
40
1
40
1
40
1
40
1
41
1
41
1
41
1
41
1
10
124.75508696238201
20
-166.53878269195559
30
0
10
125.10725377400718
20
-166.99369678497317
30
0
10
126.10817782084149
20
-167.94056243896483
30
0
10
126.5863059361776
20
-168.27109781901044
30
0
0
SPLINE
5
384
100
AcDbEntity
8
0
100
AcDbSpline
70
4
71
3
72
8
73
4
74
0
42
0.000000001
43
0.0000000001
44
0.0000000001
40
0
40
0
40
0
40
0
40
1
40
1
40
1
40
1
41
1
41
1
41
1
41
1
10
126.5863059361776
20
-168.27109781901044
30
0
10
127.14496854146324
20
-168.65729840596518
30
0
10
128.083961613973
20
-169.13661346435546
30
0
10
128.28188234965009
20
-169.13661346435546
30
0
0
SPLINE
5
385
100
AcDbEntity
8
0
100
AcDbSpline
70
4
71
3
72
8
73
4
74
0
42
0.000000001
43
0.0000000001
44
0.0000000001
40
0
40
0
40
0
40
0
40
1
40
1
40
1
40
1
41
1
41
1
41
1
41
1
10
128.28188234965009
20
-169.13661346435546
30
0
10
128.34814122517906
20
-169.13661346435546
30
0
10
128.50283139546715
20
-169.25104446411132
30
0
10
128.62563559214277
20
-169.3909180323283
30
0
0
SPLINE
5
386
100
AcDbEntity
8
0
100
AcDbSpline
70
4
71
3
72
8
73
4
74
0
42
0.000000001
43
0.0000000001
44
0.0000000001
40
0
40
0
40
0
40
0
40
1
40
1
40
1
40
1
41
1
41
1
41
1
41
1
10
128.62563559214277
20
-169.3909180323283
30
0
10
128.91500746409099
20
-169.72048447926838
30
0
10
128.94462451934817
20
-170.24704310099284
30
0
10
128.68704172770185
20
-170.48256651560465
30
0
0
SPLINE
5
387
100
AcDbEntity
8
0
100
AcDbSpline
70
4
71
3
72
8
73
4
74
0
42
0.000000001
43
0.0000000001
44
0.0000000001
40
0
40
0
40
0
40
0
40
1
40
1
40
1
40
1
41
1
41
1
41
1
41
1
10
128.68704172770185
20
-170.48256651560465
30
0
10
128.47797018686933
20
-170.67374509175622
30
0
10
128.10149122873943
20
-170.86323610941571
30
0
10
127.93076521555584
20
-170.86323610941571
30
0
0
SPLINE
5
388
100
AcDbEntity
8
0
100
AcDbSpline
70
4
71
3
72
8
73
4
74
0
42
0.000000001
43
0.0000000001
44
0.0000000001
40
0
40
0
40
0
40
0
40
1
40
1
40
1
40
1
41
1
41
1
41
1
41
1
10
127.93076521555584
20
-170.86323610941571
30
0
10
127.85710207621258
20
-170.86323610941571
30
0
10
127.72523028055829
20
-170.96009712219242
30
0
10
127.63770332336428
20
-171.07847652435305
30
0
0
SPLINE
5
389
100
AcDbEntity
8
0
100
AcDbSpline
70
4
71
3
72
8
73
4
74
0
42
0.000000001
43
0.0000000001
44
0.0000000001
40
0
40
0
40
0
40
0
40
1
40
1
40
1
40
1
41
1
41
1
41
1
41
1
10
127.63770332336428
20
-171.07847652435305
30
0
10
127.35982138315839
20
-171.45432567596436
30
0
10
127.03295180002851
20
-171.56435610453289
30
0
10
125.93350340525311
20
-171.65214951833093
30
0
0
SPLINE
5
390
100
AcDbEntity
8
0
100
AcDbSpline
70
4
71
3
72
8
73
4
74
0
42
0.000000001
43
0.0000000001
44
0.0000000001
40
0
40
0
40
0
40
0
40
1
40
1
40
1
40
1
41
1
41
1
41
1
41
1
10
125.93350340525311
20
-171.65214951833093
30
0
10
125.38415063222251
20
-171.696017964681
30
0
10
124.92408504486086
20
-171.74250253041583
30
0
10
124.9111417134603
20
-171.75545393625896
30
0
0
SPLINE
5
391
100
AcDbEntity
8
0
100
AcDbSpline
70
4
71
3
72
8
73
4
74
0
42
0.000000001
43
0.0000000001
44
0.0000000001
40
0
40
0
40
0
40
0
40
1
40
1
40
1
40
1
41
1
41
1
41
1
41
1
10
124.9111417134603
20
-171.75545393625896
30
0
10
124.85864976247154
20
-171.80793781280522
30
0
10
125.67683302561443
20
-172.70384565989175
30
0
10
126.09418481191001
20
-173.05087712605797
30
0
0
SPLINE
5
392
100
AcDbEntity
8
0
100
AcDbSpline
70
4
71
3
72
8
73
4
74
0
42
0.000000001
43
0.0000000001
44
0.0000000001
40
0
40
0
40
0
40
0
40
1
40
1
40
1
40
1
41
1
41
1
41
1
41
1
10
126.09418481191001
20
-173.05087712605797
30
0
10
126.33987394968671
20
-173.2551685969035
30
0
10
126.79490915934247
20
-173.55766951243083
30
0
10
127.10537954966229
20
-173.72309869130453
30
0
0
SPLINE
5
393
100
AcDbEntity
8
0
100
AcDbSpline
70
4
71
3
72
8
73
4
74
0
42
0.000000001
43
0.0000000001
44
0.0000000001
40
0
40
0
40
0
40
0
40
1
40
1
40
1
40
1
41
1
41
1
41
1
41
1
10
127.10537954966229
20
-173.72309869130453
30
0
10
127.91075674692792
20
-174.15222301483155
30
0
10
128.2733799616496
20
-174.64600747426351
30
0
10
128.2733799616496
20
-175.31359430948896
30
0
0
SPLINE
5
394
100
AcDbEntity
8
0
100
AcDbSpline
70
4
71
3
72
8
73
4
74
0
42
0.000000001
43
0.0000000001
44
0.0000000001
40
0
40
0
40
0
40
0
40
1
40
1
40
1
40
1
41
1
41
1
41
1
41
1
10
128.2733799616496
20
-175.31359430948896
30
0
10
128.2733799616496
20
-175.60229600270588
30
0
10
128.23853066762291
20
-175.68983910878501
30
0
10
128.05279426574708
20
-175.86775945027671
30
0
0
SPLINE
5
395
100
AcDbEntity
8
0
100
AcDbSpline
70
4
71
3
72
8
73
4
74
0
42
0.000000001
43
0.0000000001
44
0.0000000001
40
0
40
0
40
0
40
0
40
1
40
1
40
1
40
1
41
1
41
1
41
1
41
1
10
128.05279426574708
20
-175.86775945027671
30
0
10
127.87216091156009
20
-176.04079475402835
30
0
10
127.77380612691246
20
-176.0777999242147
30
0
10
127.50974763234458
20
-176.07208321889243
30
0
0
SPLINE
5
396
100
AcDbEntity
8
0
100
AcDbSpline
70
4
71
3
72
8
73
4
74
0
42
0.000000001
43
0.0000000001
44
0.0000000001
40
0
40
0
40
0
40
0
40
1
40
1
40
1
40
1
41
1
41
1
41
1
41
1
10
127.50974763234458
20
-176.07208321889243
30
0
10
127.26588331858318
20
-176.06679445902506
30
0
10
127.19641888936363
20
-176.08888613382976
30
0
10
127.22476018269859
20
-176.16273498535156
30
0
0
SPLINE
5
397
100
AcDbEntity
8
0
100
AcDbSpline
70
4
71
3
72
8
73
4
74
0
42
0.000000001
43
0.0000000001
44
0.0000000001
40
0
40
0
40
0
40
0
40
1
40
1
40
1
40
1
41
1
41
1
41
1
41
1
10
127.22476018269859
20
-176.16273498535156
30
0
10
127.33263473510745
20
-176.44385477701826
30
0
10
127.42110640207927
20
-177.25250212351483
30
0
10
127.37959569295249
20
-177.5780071258545
30
0
0
SPLINE
5
398
100
AcDbEntity
8
0
100
AcDbSpline
70
4
71
3
72
8
73
4
74
0
42
0.000000001
43
0.0000000001
44
0.0000000001
40
0
40
0
40
0
40
0
40
1
40
1
40
1
40
1
41
1
41
1
41
1
41
1
10
127.37959569295249
20
-177.5780071258545
30
0
10
127.35353139241539
20
-177.78236319224044
30
0
10
127.23292344411217
20
-178.30332622528076
30
0
10
127.1115645726522
20
-178.73569647471112
30
0
0
SPLINE
5
399
100
AcDbEntity
8
0
100
AcDbSpline
70
4
71
3
72
8
73
4
74
0
42
0.000000001
43
0.0000000001
44
0.0000000001
40
0
40
0
40
0
40
0
40
1
40
1
40
1
40
1
41
1
41
1
41
1
41
1
10
127.1115645726522
20
-178.73569647471112
30
0
10
126.89938437143964
20
-179.4916661580404
30
0
10
126.8939744949341
20
-179.54567610422771
30
0
10
126.97063325246177
20
-180.14344323476161
30
0
0
SPLINE
5
400
100
AcDbEntity
8
0
100
AcDbSpline
70
4
71
3
72
8
73
4
74
0
42
0.000000001
43
0.0000000001
44
0.0000000001
40
0
40
0
40
0
40
0
40
1
40
1
40
1
40
1
41
1
41
1
41
1
41
1
10
126.97063325246177
20
-180.14344323476161
30
0
10
127.09564177195233
20
-181.11818186442059
30
0
10
127.07488238016767
20
-181.72139924367272
30
0
10
126.90686130523684
20
-181.99698804219565
30
0
0
SPLINE
5
401
100
AcDbEntity
8
0
100
AcDbSpline
70
4
71
3
72
8
73
4
74
0
42
0.000000001
43
0.0000000001
44
0.0000000001
40
0
40
0
40
0
40
0
40
1
40
1
40
1
40
1
41
1
41
1
41
1
41
1
10
126.90686130523684
20
-181.99698804219565
30
0
10
126.60641129811607
20
-182.48977127075196
30
0
10
126.08325201670331
20
-182.62228094736736
30
0
10
125.16571273803713
20
-182.43801409403486
30
0
0
SPLINE
5
402
100
AcDbEntity
8
0
100
AcDbSpline
70
4
71
3
72
8
73
4
74
0
42
0.000000001
43
0.0000000001
44
0.0000000001
40
0
40
0
40
0
40
0
40
1
40
1
40
1
40
1
41
1
41
1
41
1
41
1
10
125.16571273803713
20
-182.43801409403486
30
0
10
124.77040417989096
20
-182.35862617492677
30
0
10
124.76538187662761
20
-182.35982119242351
30
0
10
124.38032786051434
20
-182.62551072438561
30
0
0
SPLINE
5
403
100
AcDbEntity
8
0
100
AcDbSpline
70
4
71
3
72
8
73
4
74
0
42
0.000000001
43
0.0000000001
44
0.0000000001
40
0
40
0
40
0
40
0
40
1
40
1
40
1
40
1
41
1
41
1
41
1
41
1
10
124.38032786051434
20
-182.62551072438561
30
0
10
124.00160420735679
20
-182.88683198293052
30
0
10
123.98053798675539
20
-182.89218533833827
30
0
10
123.4532284418742
20
-182.86107451121012
30
0
0
SPLINE
5
404
100
AcDbEntity
8
0
100
AcDbSpline
70
4
71
3
72
8
73
4
74
0
42
0.000000001
43
0.0000000001
44
0.0000000001
40
0
40
0
40
0
40
0
40
1
40
1
40
1
40
1
41
1
41
1
41
1
41
1
10
123.4532284418742
20
-182.86107451121012
30
0
10
123.05439135233563
20
-182.83755366007489
30
0
10
122.81482264200848
20
-182.77877979278566
30
0
10
122.53469600677492
20
-182.63574911753338
30
0
0
SPLINE
5
405
100
AcDbEntity
8
0
100
AcDbSpline
70
4
71
3
72
8
73
4
74
0
42
0.000000001
43
0.0000000001
44
0.0000000001
40
0
40
0
40
0
40
0
40
1
40
1
40
1
40
1
41
1
41
1
41
1
41
1
10
122.53469600677492
20
-182.63574911753338
30
0
10
122.12378762563071
20
-182.42595087687178
30
0
10
121.95027592976891
20
-182.45024687449137
30
0
10
121.79560998280846
20
-182.73923924764
30
0
0
SPLINE
5
406
100
AcDbEntity
8
0
100
AcDbSpline
70
4
71
3
72
8
73
4
74
0
42
0.000000001
43
0.0000000001
44
0.0000000001
40
0
40
0
40
0
40
0
40
1
40
1
40
1
40
1
41
1
41
1
41
1
41
1
10
121.79560998280846
20
-182.73923924764
30
0
10
121.69058570861819
20
-182.93548049926758
30
0
10
121.30112304687502
20
-183.16545677185061
30
0
10
121.07912432352704
20
-183.16230773925781
30
0
0
SPLINE
5
407
100
AcDbEntity
8
0
100
AcDbSpline
70
4
71
3
72
8
73
4
74
0
42
0.000000001
43
0.0000000001
44
0.0000000001
40
0
40
0
40
0
40
0
40
1
40
1
40
1
40
1
41
1
41
1
41
1
41
1
10
121.07912432352704
20
-183.16230773925781
30
0
10
120.98020432790122
20
-183.16098353068037
30
0
10
120.79093939463299
20
-183.11272258758547
30
0
10
120.65854276021324
20
-183.05529715220135
30
0
0
SPLINE
5
408
100
AcDbEntity
8
0
100
AcDbSpline
70
4
71
3
72
8
73
4
74
0
42
0.000000001
43
0.0000000001
44
0.0000000001
40
0
40
0
40
0
40
0
40
1
40
1
40
1
40
1
41
1
41
1
41
1
41
1
10
120.65854276021324
20
-183.05529715220135
30
0
10
120.52613805135094
20
-182.99780712127685
30
0
10
120.29952074686689
20
-182.8580708185832
30
0
10
120.1549478530884
20
-182.74477831522626
30
0
0
SPLINE
5
409
100
AcDbEntity
8
0
100
AcDbSpline
70
4
71
3
72
8
73
4
74
0
42
0.000000001
43
0.0000000001
44
0.0000000001
40
0
40
0
40
0
40
0
40
1
40
1
40
1
40
1
41
1
41
1
41
1
41
1
10
120.1549478530884
20
-182.74477831522626
30
0
10
119.66120376586916
20
-182.35787525177003
30
0
10
119.61680240631105
20
-182.35026105244955
30
0
10
119.23137696584067
20
-182.58643042246504
30
0
0
SPLINE
5
410
100
AcDbEntity
8
0
100
AcDbSpline
70
4
71
3
72
8
73
4
74
0
42
0.000000001
43
0.0000000001
44
0.0000000001
40
0
40
0
40
0
40
0
40
1
40
1
40
1
40
1
41
1
41
1
41
1
41
1
10
119.23137696584067
20
-182.58643042246504
30
0
10
118.89328390757244
20
-182.79359639485676
30
0
10
118.87618223826092
20
-182.79637400309247
30
0
10
118.52517814636232
20
-182.70128936767577
30
0
0
SPLINE
5
411
100
AcDbEntity
8
0
100
AcDbSpline
70
4
71
3
72
8
73
4
74
0
42
0.000000001
43
0.0000000001
44
0.0000000001
40
0
40
0
40
0
40
0
40
1
40
1
40
1
40
1
41
1
41
1
41
1
41
1
10
118.52517814636232
20
-182.70128936767577
30
0
10
117.72174688975016
20
-182.48362661997479
30
0
10
117.48841972351076
20
-182.30774911244711
30
0
10
117.05791467030846
20
-181.59523607889813
30
0
0
SPLINE
5
412
100
AcDbEntity
8
0
100
AcDbSpline
70
4
71
3
72
8
73
4
74
0
42
0.000000001
43
0.0000000001
44
0.0000000001
40
0
40
0
40
0
40
0
40
1
40
1
40
1
40
1
41
1
41
1
41
1
41
1
10
117.05791467030846
20
-181.59523607889813
30
0
10
116.79575366973879
20
-181.16134783426924
30
0
10
116.75452556610109
20
-181.03298034667972
30
0
10
116.71571979522707
20
-180.52980531056727
30
0
0
SPLINE
5
413
100
AcDbEntity
8
0
100
AcDbSpline
70
4
71
3
72
8
73
4
74
0
42
0.000000001
43
0.0000000001
44
0.0000000001
40
0
40
0
40
0
40
0
40
1
40
1
40
1
40
1
41
1
41
1
41
1
41
1
10
116.71571979522707
20
-180.52980531056727
30
0
10
116.68360773722333
20
-180.11334171295169
30
0
10
116.70648263295493
20
-179.79220498402918
30
0
10
116.79980703989668
20
-179.34935410817468
30
0
0
SPLINE
5
414
100
AcDbEntity
8
0
100
AcDbSpline
70
4
71
3
72
8
73
4
74
0
42
0.000000001
43
0.0000000001
44
0.0000000001
40
0
40
0
40
0
40
0
40
1
40
1
40
1
40
1
41
1
41
1
41
1
41
1
10
116.79980703989668
20
-179.34935410817468
30
0
10
116.87573102315268
20
-178.9890724817912
30
0
10
116.93095213572185
20
-178.40363502502441
30
0
10
116.93522351582845
20
-177.91366977691652
30
0
0
SPLINE
5
415
100
AcDbEntity
8
0
100
AcDbSpline
70
4
71
3
72
8
73
4
74
0
42
0.000000001
43
0.0000000001
44
0.0000000001
40
0
40
0
40
0
40
0
40
1
40
1
40
1
40
1
41
1
41
1
41
1
41
1
10
116.93522351582845
20
-177.91366977691652
30
0
10
116.94173151652021
20
-177.16713911692301
30
0
10
116.9620871861776
20
-177.0441734313965
30
0
10
117.14356028238933
20
-176.65467847188319
30
0
0
SPLINE
5
416
100
AcDbEntity
8
0
100
AcDbSpline
70
4
71
3
72
8
73
4
74
0
42
0.000000001
43
0.0000000001
44
0.0000000001
40
0
40
0
40
0
40
0
40
1
40
1
40
1
40
1
41
1
41
1
41
1
41
1
10
117.14356028238933
20
-176.65467847188319
30
0
10
117.27237186431886
20
-176.37821763356527
30
0
10
117.52319634755453
20
-176.04196554819742
30
0
10
117.84117596944174
20
-175.719423866272
30
0
0
SPLINE
5
417
100
AcDbEntity
8
0
100
AcDbSpline
70
4
71
3
72
8
73
4
74
0
42
0.000000001
43
0.0000000001
44
0.0000000001
40
0
40
0
40
0
40
0
40
1
40
1
40
1
40
1
41
1
41
1
41
1
41
1
10
117.84117596944174
20
-175.719423866272
30
0
10
118.11424554189047
20
-175.44244626363121
30
0
10
118.37594629923504
20
-175.11870148976644
30
0
10
118.42272154490155
20
-174.99999910990397
30
0
0
SPLINE
5
418
100
AcDbEntity
8
0
100
AcDbSpline
70
4
71
3
72
8
73
4
74
0
42
0.000000001
43
0.0000000001
44
0.0000000001
40
0
40
0
40
0
40
0
40
1
40
1
40
1
40
1
41
1
41
1
41
1
41
1
10
118.42272154490155
20
-174.99999910990397
30
0
10
118.54712448120118
20
-174.68431262969972
30
0
10
118.53414885203046
20
-171.99753379821777
30
0
10
118.40639502207439
20
-171.61870517730711
30
0
0
SPLINE
5
419
100
AcDbEntity
8
0
100
AcDbSpline
70
4
71
3
72
8
73
4
74
0
42
0.000000001
43
0.0000000001
44
0.0000000001
40
0
40
0
40
0
40
0
40
1
40
1
40
1
40
1
41
1
41
1
41
1
41
1
10
118.40639502207439
20
-171.61870517730711
30
0
10
118.3208382288615
20
-171.36500619252524
30
0
10
118.2795374552409
20
-171.32809791564944
30
0
10
118.05754680633547
20
-171.30697517395021
30
0
0
SPLINE
5
420
100
AcDbEntity
8
0
100
AcDbSpline
70
4
71
3
72
8
73
4
74
0
42
0.000000001
43
0.0000000001
44
0.0000000001
40
0
40
0
40
0
40
0
40
1
40
1
40
1
40
1
41
1
41
1
41
1
41
1
10
118.05754680633547
20
-171.30697517395021
30
0
10
117.91906204223635
20
-171.29379768371587
30
0
10
117.63185412089031
20
-171.30459321339927
30
0
10
117.41931864420576
20
-171.33123887379966
30
0
0
LINE
5
421
100
AcDbEntity
8
0
100
AcDbLine
10
117.41931864420573
20
-171.33123887379966
30
0
11
117.03289197285972
21
-171.37944329579676
31
0
0
LINE
5
422
100
AcDbEntity
8
0
100
AcDbLine
10
117.03289197285972
20
-171.37944329579676
30
0
11
117.25527019500734
21
-171.51468213399255
31
0
0
SPLINE
5
423
100
AcDbEntity
8
0
100
AcDbSpline
70
4
71
3
72
8
73
4
74
0
42
0.000000001
43
0.0000000001
44
0.0000000001
40
0
40
0
40
0
40
0
40
1
40
1
40
1
40
1
41
1
41
1
41
1
41
1
10
117.25527019500734
20
-171.51468213399255
30
0
10
117.61974245707195
20
-171.73632558186853
30
0
10
117.91365216573082
20
-172.20263271331788
30
0
10
117.91365216573082
20
-172.55923239390057
30
0
0
SPLINE
5
424
100
AcDbEntity
8
0
100
AcDbSpline
70
4
71
3
72
8
73
4
74
0
42
0.000000001
43
0.0000000001
44
0.0000000001
40
0
40
0
40
0
40
0
40
1
40
1
40
1
40
1
41
1
41
1
41
1
41
1
10
117.91365216573082
20
-172.55923239390057
30
0
10
117.91365216573082
20
-173.36823501586912
30
0
10
117.02475293477377
20
-173.66270186106365
30
0
10
115.82732117970787
20
-173.25038045247396
30
0
0
SPLINE
5
425
100
AcDbEntity
8
0
100
AcDbSpline
70
4
71
3
72
8
73
4
74
0
42
0.000000001
43
0.0000000001
44
0.0000000001
40
0
40
0
40
0
40
0
40
1
40
1
40
1
40
1
41
1
41
1
41
1
41
1
10
115.82732117970787
20
-173.25038045247396
30
0
10
114.90802974700929
20
-172.93383000691733
30
0
10
114.10969346364341
20
-172.89812482198079
30
0
10
113.16545200347902
20
-173.13131472269697
30
0
0
SPLINE
5
426
100
AcDbEntity
8
0
100
AcDbSpline
70
4
71
3
72
8
73
4
74
0
42
0.000000001
43
0.0000000001
44
0.0000000001
40
0
40
0
40
0
40
0
40
1
40
1
40
1
40
1
41
1
41
1
41
1
41
1
10
113.16545200347902
20
-173.13131472269697
30
0
10
112.24651584625246
20
-173.35826307932535
30
0
10
111.25913263956707
20
-173.45589116414388
30
0
10
110.60100097656252
20
-173.38489259084068
30
0
0
SPLINE
5
427
100
AcDbEntity
8
0
100
AcDbSpline
70
4
71
3
72
8
73
4
74
0
42
0.000000001
43
0.0000000001
44
0.0000000001
40
0
40
0
40
0
40
0
40
1
40
1
40
1
40
1
41
1
41
1
41
1
41
1
10
110.60100097656252
20
-173.38489259084068
30
0
10
109.94568729400638
20
-173.31419277191162
30
0
10
109.04384473164879
20
-173.09072450002034
30
0
10
108.71267954508465
20
-172.91697864532472
30
0
0
SPLINE
5
428
100
AcDbEntity
8
0
100
AcDbSpline
70
4
71
3
72
8
73
4
74
0
42
0.000000001
43
0.0000000001
44
0.0000000001
40
0
40
0
40
0
40
0
40
1
40
1
40
1
40
1
41
1
41
1
41
1
41
1
10
108.71267954508465
20
-172.91697864532472
30
0
10
108.53226420084637
20
-172.8223300298055
30
0
10
108.51144828796387
20
-172.83334356943769
30
0
10
108.16269696553549
20
-173.20786043802897
30
0
0
SPLINE
5
429
100
AcDbEntity
8
0
100
AcDbSpline
70
4
71
3
72
8
73
4
74
0
42
0.000000001
43
0.0000000001
44
0.0000000001
40
0
40
0
40
0
40
0
40
1
40
1
40
1
40
1
41
1
41
1
41
1
41
1
10
108.16269696553549
20
-173.20786043802897
30
0
10
107.80688050587975
20
-173.58997535705569
30
0
10
107.79278252919516
20
-173.5971212387085
30
0
10
107.3948336283366
20
-173.5971212387085
30
0
0
SPLINE
5
430
100
AcDbEntity
8
0
100
AcDbSpline
70
4
71
3
72
8
73
4
74
0
42
0.000000001
43
0.0000000001
44
0.0000000001
40
0
40
0
40
0
40
0
40
1
40
1
40
1
40
1
41
1
41
1
41
1
41
1
10
107.3948336283366
20
-173.5971212387085
30
0
10
106.93187739054365
20
-173.5971212387085
30
0
10
106.67597408294679
20
-173.43530133565267
30
0
10
106.43688983917238
20
-172.99134426116944
30
0
0
SPLINE
5
431
100
AcDbEntity
8
0
100
AcDbSpline
70
4
71
3
72
8
73
4
74
0
42
0.000000001
43
0.0000000001
44
0.0000000001
40
0
40
0
40
0
40
0
40
1
40
1
40
1
40
1
41
1
41
1
41
1
41
1
10
106.43688983917238
20
-172.99134426116944
30
0
10
106.36061058044434
20
-172.84970239003499
30
0
10
106.28127918243409
20
-172.73397140502931
30
0
10
106.26060053507489
20
-172.73417326609294
30
0
0
SPLINE
5
432
100
AcDbEntity
8
0
100
AcDbSpline
70
4
71
3
72
8
73
4
74
0
42
0.000000001
43
0.0000000001
44
0.0000000001
40
0
40
0
40
0
40
0
40
1
40
1
40
1
40
1
41
1
41
1
41
1
41
1
10
106.26060053507489
20
-172.73417326609294
30
0
10
106.11916859944664
20
-172.73549747467044
30
0
10
104.96859283447266
20
-174.71015892028811
30
0
10
104.20675303141279
20
-176.25899041493736
30
0
0
SPLINE
5
433
100
AcDbEntity
8
0
100
AcDbSpline
70
4
71
3
72
8
73
4
74
0
42
0.000000001
43
0.0000000001
44
0.0000000001
40
0
40
0
40
0
40
0
40
1
40
1
40
1
40
1
41
1
41
1
41
1
41
1
10
104.20675303141279
20
-176.25899041493736
30
0
10
104.04131577809653
20
-176.59532324473062
30
0
10
103.82798093159994
20
-176.96762771606444
30
0
10
103.73267828623455
20
-177.08633009592694
30
0
0
SPLINE
5
434
100
AcDbEntity
8
0
100
AcDbSpline
70
4
71
3
72
8
73
4
74
0
42
0.000000001
43
0.0000000001
44
0.0000000001
40
0
40
0
40
0
40
0
40
1
40
1
40
1
40
1
41
1
41
1
41
1
41
1
10
103.73267828623455
20
-177.08633009592694
30
0
10
103.63737564086917
20
-177.20503247578938
30
0
10
103.43425496419272
20
-177.4885826746623
30
0
10
103.28130079905193
20
-177.7164353688558
30
0
0
SPLINE
5
435
100
AcDbEntity
8
0
100
AcDbSpline
70
4
71
3
72
8
73
4
74
0
42
0.000000001
43
0.0000000001
44
0.0000000001
40
0
40
0
40
0
40
0
40
1
40
1
40
1
40
1
41
1
41
1
41
1
41
1
10
103.28130079905193
20
-177.7164353688558
30
0
10
102.9768700917562
20
-178.16995258331301
30
0
10
102.65964946746827
20
-178.47447210947675
30
0
10
102.16462961832684
20
-178.78840643564865
30
0
0
SPLINE
5
436
100
AcDbEntity
8
0
100
AcDbSpline
70
4
71
3
72
8
73
4
74
0
42
0.000000001
43
0.0000000001
44
0.0000000001
40
0
40
0
40
0
40
0
40
1
40
1
40
1
40
1
41
1
41
1
41
1
41
1
10
102.16462961832684
20
-178.78840643564865
30
0
10
101.91735788981121
20
-178.94522825876874
30
0
10
101.7555218378703
20
-178.99281094868979
30
0
10
101.46950085957846
20
-178.99281094868979
30
0
0
SPLINE
5
437
100
AcDbEntity
8
0
100
AcDbSpline
70
4
71
3
72
8
73
4
74
0
42
0.000000001
43
0.0000000001
44
0.0000000001
40
0
40
0
40
0
40
0
40
1
40
1
40
1
40
1
41
1
41
1
41
1
41
1
10
101.46950085957846
20
-178.99281094868979
30
0
10
100.83120810190837
20
-178.99281094868979
30
0
10
100.5024410247803
20
-179.19860426584881
30
0
10
99.830267906188965
20
-180.01890303293865
30
0
0
SPLINE
5
438
100
AcDbEntity
8
0
100
AcDbSpline
70
4
71
3
72
8
73
4
74
0
42
0.000000001
43
0.0000000001
44
0.0000000001
40
0
40
0
40
0
40
0
40
1
40
1
40
1
40
1
41
1
41
1
41
1
41
1
10
99.830267906188965
20
-180.01890303293865
30
0
10
99.679986381530767
20
-180.20229784647626
30
0
10
99.421983718872085
20
-180.41704572041829
30
0
10
99.256925964355474
20
-180.49610258738201
30
0
0
SPLINE
5
439
100
AcDbEntity
8
0
100
AcDbSpline
70
4
71
3
72
8
73
4
74
0
42
0.000000001
43
0.0000000001
44
0.0000000001
40
0
40
0
40
0
40
0
40
1
40
1
40
1
40
1
41
1
41
1
41
1
41
1
10
99.256925964355474
20
-180.49610258738201
30
0
10
98.875360107421884
20
-180.6788756688436
30
0
10
97.800013923645039
20
-180.82172063191734
30
0
10
97.216118685404481
20
-180.76719392140711
30
0
0
SPLINE
5
440
100
AcDbEntity
8
0
100
AcDbSpline
70
4
71
3
72
8
73
4
74
0
42
0.000000001
43
0.0000000001
44
0.0000000001
40
0
40
0
40
0
40
0
40
1
40
1
40
1
40
1
41
1
41
1
41
1
41
1
10
97.216118685404481
20
-180.76719392140711
30
0
10
96.663552284240737
20
-180.71559823354085
30
0
10
96.378128814697277
20
-180.57468306223555
30
0
10
96.168217531840014
20
-180.24983208974206
30
0
0
SPLINE
5
441
100
AcDbEntity
8
0
100
AcDbSpline
70
4
71
3
72
8
73
4
74
0
42
0.000000001
43
0.0000000001
44
0.0000000001
40
0
40
0
40
0
40
0
40
1
40
1
40
1
40
1
41
1
41
1
41
1
41
1
10
96.168217531840014
20
-180.24983208974206
30
0
10
96.079648971557646
20
-180.11276842753094
30
0
10
95.942431894938167
20
-179.9805736541748
30
0
10
95.86329428354901
20
-179.95606772104901
30
0
0
SPLINE
5
442
100
AcDbEntity
8
0
100
AcDbSpline
70
4
71
3
72
8
73
4
74
0
42
0.000000001
43
0.0000000001
44
0.0000000001
40
0
40
0
40
0
40
0
40
1
40
1
40
1
40
1
41
1
41
1
41
1
41
1
10
95.86329428354901
20
-179.95606772104901
30
0
10
95.587543996175143
20
-179.87068856557212
30
0
10
95.373498598734557
20
-179.60000902811686
30
0
10
95.073137410481792
20
-178.95683123270672
30
0
0
SPLINE
5
443
100
AcDbEntity
8
0
100
AcDbSpline
70
4
71
3
72
8
73
4
74
0
42
0.000000001
43
0.0000000001
44
0.0000000001
40
0
40
0
40
0
40
0
40
1
40
1
40
1
40
1
41
1
41
1
41
1
41
1
10
95.073137410481792
20
-178.95683123270672
30
0
10
94.633403269449886
20
-178.01522204081215
30
0
10
94.460755538940447
20
-177.46502952575685
30
0
10
94.457897186279325
20
-176.99611434936526
30
0
0
SPLINE
5
444
100
AcDbEntity
8
0
100
AcDbSpline
70
4
71
3
72
8
73
4
74
0
42
0.000000001
43
0.0000000001
44
0.0000000001
40
0
40
0
40
0
40
0
40
1
40
1
40
1
40
1
41
1
41
1
41
1
41
1
10
94.457897186279325
20
-176.99611434936526
30
0
10
94.456572977701839
20
-176.76875419616698
30
0
10
94.408675384521501
20
-176.37229906717937
30
0
10
94.351605224609386
20
-176.11510384877528
30
0
0
SPLINE
5
445
100
AcDbEntity
8
0
100
AcDbSpline
70
4
71
3
72
8
73
4
74
0
42
0.000000001
43
0.0000000001
44
0.0000000001
40
0
40
0
40
0
40
0
40
1
40
1
40
1
40
1
41
1
41
1
41
1
41
1
10
94.351605224609386
20
-176.11510384877528
30
0
10
94.294535064697271
20
-175.85790863037113
30
0
10
94.227969360351565
20
-175.32373580932619
30
0
10
94.203681437174481
20
-174.92805582682294
30
0
0
LINE
5
446
100
AcDbEntity
8
0
100
AcDbLine
10
94.203681437174481
20
-174.92805582682294
30
0
11
94.159522310892754
21
-174.20863107045491
31
0
0
LINE
5
447
100
AcDbEntity
8
0
100
AcDbLine
10
94.159522310892754
20
-174.20863107045491
30
0
11
94.480505625406892
21
-173.55740305582685
31
0
0
SPLINE
5
448
100
AcDbEntity
8
0
100
AcDbSpline
70
4
71
3
72
8
73
4
74
0
42
0.000000001
43
0.0000000001
44
0.0000000001
40
0
40
0
40
0
40
0
40
1
40
1
40
1
40
1
41
1
41
1
41
1
41
1
10
94.48050562540692
20
-173.55740305582685
30
0
10
94.823023478190123
20
-172.86248423258462
30
0
10
95.082552210489922
20
-172.58401285807295
30
0
10
95.519742902119958
20
-172.44232254028321
30
0
0
SPLINE
5
449
100
AcDbEntity
8
0
100
AcDbSpline
70
4
71
3
72
8
73
4
74
0
42
0.000000001
43
0.0000000001
44
0.0000000001
40
0
40
0
40
0
40
0
40
1
40
1
40
1
40
1
41
1
41
1
41
1
41
1
10
95.519742902119958
20
-172.44232254028321
30
0
10
95.669128163655614
20
-172.39390818277997
30
0
10
96.020713615417492
20
-172.22927029927575
30
0
10
96.301042111714693
20
-172.07645339965822
30
0
0
SPLINE
5
450
100
AcDbEntity
8
0
100
AcDbSpline
70
4
71
3
72
8
73
4
74
0
42
0.000000001
43
0.0000000001
44
0.0000000001
40
0
40
0
40
0
40
0
40
1
40
1
40
1
40
1
41
1
41
1
41
1
41
1
10
96.301042111714693
20
-172.07645339965822
30
0
10
96.70214811960858
20
-171.85780556996664
30
0
10
96.957461992899582
20
-171.77658475240071
30
0
10
97.499491246541353
20
-171.695218594869
30
0
0
SPLINE
5
451
100
AcDbEntity
8
0
100
AcDbSpline
70
4
71
3
72
8
73
4
74
0
42
0.000000001
43
0.0000000001
44
0.0000000001
40
0
40
0
40
0
40
0
40
1
40
1
40
1
40
1
41
1
41
1
41
1
41
1
10
97.499491246541353
20
-171.695218594869
30
0
10
97.878311793009459
20
-171.63835029602055
30
0
10
98.317771402994808
20
-171.5569518407186
30
0
10
98.476070849100751
20
-171.51432685852052
30
0
0
SPLINE
5
452
100
AcDbEntity
8
0
100
AcDbSpline
70
4
71
3
72
8
73
4
74
0
42
0.000000001
43
0.0000000001
44
0.0000000001
40
0
40
0
40
0
40
0
40
1
40
1
40
1
40
1
41
1
41
1
41
1
41
1
10
98.476070849100751
20
-171.51432685852052
30
0
10
98.84592876434327
20
-171.41473668416342
30
0
10
99.439303398132338
20
-170.97118333180745
30
0
10
100.24688491821291
20
-170.19060274759931
30
0
0
LINE
5
453
100
AcDbEntity
8
0
100
AcDbLine
10
100.24688491821293
20
-170.19060274759931
30
0
11
100.88946520487468
21
-169.5695085525513
31
0
0
LINE
5
454
100
AcDbEntity
8
0
100
AcDbLine
10
100.88946520487468
20
-169.5695085525513
30
0
11
100.71450818379719
21
-169.38274669647217
31
0
0
SPLINE
5
455
100
AcDbEntity
8
0
100
AcDbSpline
70
4
71
3
72
8
73
4
74
0
42
0.000000001
43
0.0000000001
44
0.0000000001
40
0
40
0
40
0
40
0
40
1
40
1
40
1
40
1
41
1
41
1
41
1
41
1
10
100.71450818379722
20
-169.38274669647217
30
0
10
100.61828505198163
20
-169.28002363840739
30
0
10
100.26357479095461
20
-169.05747585296632
30
0
10
99.926281102498393
20
-168.8881790161133
30
0
0
SPLINE
5
456
100
AcDbEntity
8
0
100
AcDbSpline
70
4
71
3
72
8
73
4
74
0
42
0.000000001
43
0.0000000001
44
0.0000000001
40
0
40
0
40
0
40
0
40
1
40
1
40
1
40
1
41
1
41
1
41
1
41
1
10
99.926281102498393
20
-168.8881790161133
30
0
10
99.588979339599618
20
-168.7188902537028
30
0
10
98.914480781555199
20
-168.31706562042234
30
0
10
98.427390034993493
20
-167.99522641499837
30
0
0
SPLINE
5
457
100
AcDbEntity
8
0
100
AcDbSpline
70
4
71
3
72
8
73
4
74
0
42
0.000000001
43
0.0000000001
44
0.0000000001
40
0
40
0
40
0
40
0
40
1
40
1
40
1
40
1
41
1
41
1
41
1
41
1
10
98.427390034993493
20
-167.99522641499837
30
0
10
97.68987852732343
20
-167.50793380737306
30
0
10
97.493613052368175
20
-167.41007156372069
30
0
10
97.253785959879565
20
-167.41007156372069
30
0
0
SPLINE
5
458
100
AcDbEntity
8
0
100
AcDbSpline
70
4
71
3
72
8
73
4
74
0
42
0.000000001
43
0.0000000001
44
0.0000000001
40
0
40
0
40
0
40
0
40
1
40
1
40
1
40
1
41
1
41
1
41
1
41
1
10
97.253785959879565
20
-167.41007156372069
30
0
10
97.062381299336778
20
-167.41007156372069
30
0
10
96.817128181457534
20
-167.3287296295166
30
0
10
96.522459475199383
20
-167.16751530965169
30
0
0
SPLINE
5
459
100
AcDbEntity
8
0
100
AcDbSpline
70
4
71
3
72
8
73
4
74
0
42
0.000000001
43
0.0000000001
44
0.0000000001
40
0
40
0
40
0
40
0
40
1
40
1
40
1
40
1
41
1
41
1
41
1
41
1
10
96.522459475199383
20
-167.16751530965169
30
0
10
96.188557052612325
20
-166.98483104705812
30
0
10
95.923222796122246
20
-166.90418351491297
30
0
10
95.447581609090179
20
-166.84078299204509
30
0
0
SPLINE
5
460
100
AcDbEntity
8
0
100
AcDbSpline
70
4
71
3
72
8
73
4
74
0
42
0.000000001
43
0.0000000001
44
0.0000000001
40
0
40
0
40
0
40
0
40
1
40
1
40
1
40
1
41
1
41
1
41
1
41
1
10
95.447581609090179
20
-166.84078299204509
30
0
10
95.100235239664727
20
-166.79449221293135
30
0
10
94.789369201660179
20
-166.77309494018556
30
0
10
94.756772677103683
20
-166.79324874877932
30
0
0
SPLINE
5
461
100
AcDbEntity
8
0
100
AcDbSpline
70
4
71
3
72
8
73
4
74
0
42
0.000000001
43
0.0000000001
44
0.0000000001
40
0
40
0
40
0
40
0
40
1
40
1
40
1
40
1
41
1
41
1
41
1
41
1
10
94.756772677103683
20
-166.79324874877932
30
0
10
94.724168078104668
20
-166.81341063181563
30
0
10
94.678313318888371
20
-167.05872834523518
30
0
10
94.65486513773601
20
-167.33842703501384
30
0
0
SPLINE
5
462
100
AcDbEntity
8
0
100
AcDbSpline
70
4
71
3
72
8
73
4
74
0
42
0.000000001
43
0.0000000001
44
0.0000000001
40
0
40
0
40
0
40
0
40
1
40
1
40
1
40
1
41
1
41
1
41
1
41
1
10
94.65486513773601
20
-167.33842703501384
30
0
10
94.606555747985851
20
-167.91466770172121
30
0
10
94.2847246170044
20
-168.69031480153404
30
0
10
94.015773010253923
20
-168.87869154612224
30
0
0
SPLINE
5
463
100
AcDbEntity
8
0
100
AcDbSpline
70
4
71
3
72
8
73
4
74
0
42
0.000000001
43
0.0000000001
44
0.0000000001
40
0
40
0
40
0
40
0
40
1
40
1
40
1
40
1
41
1
41
1
41
1
41
1
10
94.015773010253923
20
-168.87869154612224
30
0
10
93.634546279907227
20
-169.14571336110436
30
0
10
93.244251950581884
20
-168.95924218495685
30
0
10
92.992393938700374
20
-168.38975982666017
30
0
0
SPLINE
5
464
100
AcDbEntity
8
0
100
AcDbSpline
70
4
71
3
72
8
73
4
74
0
42
0.000000001
43
0.0000000001
44
0.0000000001
40
0
40
0
40
0
40
0
40
1
40
1
40
1
40
1
41
1
41
1
41
1
41
1
10
92.992393938700374
20
-168.38975982666017
30
0
10
92.774448585510271
20
-167.89695237477622
30
0
10
92.58577308654786
20
-167.77746677398682
30
0
10
92.099336369832372
20
-167.82420972188316
30
0
0
SPLINE
5
465
100
AcDbEntity
8
0
100
AcDbSpline
70
4
71
3
72
8
73
4
74
0
42
0.000000001
43
0.0000000001
44
0.0000000001
40
0
40
0
40
0
40
0
40
1
40
1
40
1
40
1
41
1
41
1
41
1
41
1
10
92.099336369832372
20
-167.82420972188316
30
0
10
91.830150604248061
20
-167.85008831024172
30
0
10
91.640280087788909
20
-167.82474263509116
30
0
10
91.444967397054043
20
-167.73656972249347
30
0
0
SPLINE
5
466
100
AcDbEntity
8
0
100
AcDbSpline
70
4
71
3
72
8
73
4
74
0
42
0.000000001
43
0.0000000001
44
0.0000000001
40
0
40
0
40
0
40
0
40
1
40
1
40
1
40
1
41
1
41
1
41
1
41
1
10
91.444967397054043
20
-167.73656972249347
30
0
10
91.191268412272152
20
-167.62216294606529
30
0
10
91.15253531138103
20
-167.62142817179364
30
0
10
90.948179244995117
20
-167.72709840138754
30
0
0
SPLINE
5
467
100
AcDbEntity
8
0
100
AcDbSpline
70
4
71
3
72
8
73
4
74
0
42
0.000000001
43
0.0000000001
44
0.0000000001
40
0
40
0
40
0
40
0
40
1
40
1
40
1
40
1
41
1
41
1
41
1
41
1
10
90.948179244995117
20
-167.72709840138754
30
0
10
90.690854835510265
20
-167.8601652145386
30
0
10
90.297346878051769
20
-167.87578118642173
30
0
10
90.049308077494317
20
-167.76276321411132
30
0
0
SPLINE
5
468
100
AcDbEntity
8
0
100
AcDbSpline
70
4
71
3
72
8
73
4
74
0
42
0.000000001
43
0.0000000001
44
0.0000000001
40
0
40
0
40
0
40
0
40
1
40
1
40
1
40
1
41
1
41
1
41
1
41
1
10
90.049308077494317
20
-167.76276321411132
30
0
10
89.914012718200695
20
-167.7011148452759
30
0
10
89.827341651916512
20
-167.70900357564295
30
0
10
89.653813807169612
20
-167.79873485565187
30
0
0
SPLINE
5
469
100
AcDbEntity
8
0
100
AcDbSpline
70
4
71
3
72
8
73
4
74
0
42
0.000000001
43
0.0000000001
44
0.0000000001
40
0
40
0
40
0
40
0
40
1
40
1
40
1
40
1
41
1
41
1
41
1
41
1
10
89.653813807169612
20
-167.79873485565187
30
0
10
89.531590970357257
20
-167.86194159189861
30
0
10
89.296648915608742
20
-167.91365032196046
30
0
10
89.13172842661541
20
-167.91365032196046
30
0
0
SPLINE
5
470
100
AcDbEntity
8
0
100
AcDbSpline
70
4
71
3
72
8
73
4
74
0
42
0.000000001
43
0.0000000001
44
0.0000000001
40
0
40
0
40
0
40
0
40
1
40
1
40
1
40
1
41
1
41
1
41
1
41
1
10
89.13172842661541
20
-167.91365032196046
30
0
10
88.857657623291018
20
-167.91365032196046
30
0
10
88.792432276407879
20
-167.87343152364093
30
0
10
88.373360633850112
20
-167.44602705637615
30
0
0
SPLINE
5
471
100
AcDbEntity
8
0
100
AcDbSpline
70
4
71
3
72
8
73
4
74
0
42
0.000000001
43
0.0000000001
44
0.0000000001
40
0
40
0
40
0
40
0
40
1
40
1
40
1
40
1
41
1
41
1
41
1
41
1
10
88.373360633850112
20
-167.44602705637615
30
0
10
88.121179644266775
20
-167.18883183797203
30
0
10
87.854690742492693
20
-166.97840379079182
30
0
10
87.781156794230156
20
-166.97840379079182
30
0
0
SPLINE
5
472
100
AcDbEntity
8
0
100
AcDbSpline
70
4
71
3
72
8
73
4
74
0
42
0.000000001
43
0.0000000001
44
0.0000000001
40
0
40
0
40
0
40
0
40
1
40
1
40
1
40
1
41
1
41
1
41
1
41
1
10
87.781156794230156
20
-166.97840379079182
30
0
10
87.70762284596762
20
-166.97840379079182
30
0
10
87.508725102742517
20
-166.87318572998049
30
0
10
87.339145660400405
20
-166.7445921579997
30
0
0
SPLINE
5
473
100
AcDbEntity
8
0
100
AcDbSpline
70
4
71
3
72
8
73
4
74
0
42
0.000000001
43
0.0000000001
44
0.0000000001
40
0
40
0
40
0
40
0
40
1
40
1
40
1
40
1
41
1
41
1
41
1
41
1
10
87.339145660400405
20
-166.7445921579997
30
0
10
86.694756698608415
20
-166.25591074625652
30
0
10
86.716711107889836
20
-166.26388829549157
30
0
10
86.343308512369802
20
-166.38309129079181
30
0
0
SPLINE
5
474
100
AcDbEntity
8
0
100
AcDbSpline
70
4
71
3
72
8
73
4
74
0
42
0.000000001
43
0.0000000001
44
0.0000000001
40
0
40
0
40
0
40
0
40
1
40
1
40
1
40
1
41
1
41
1
41
1
41
1
10
86.343308512369802
20
-166.38309129079181
30
0
10
85.874175326029473
20
-166.53285605112714
30
0
10
85.535404014587414
20
-166.4265075683594
30
0
10
85.04386425018312
20
-165.97516237894695
30
0
0
SPLINE
5
475
100
AcDbEntity
8
0
100
AcDbSpline
70
4
71
3
72
8
73
4
74
0
42
0.000000001
43
0.0000000001
44
0.0000000001
40
0
40
0
40
0
40
0
40
1
40
1
40
1
40
1
41
1
41
1
41
1
41
1
10
85.04386425018312
20
-165.97516237894695
30
0
10
84.753135871887224
20
-165.70821323394773
30
0
10
84.567722447713223
20
-165.60015296936035
30
0
10
84.302913029988616
20
-165.54336541493734
30
0
0
SPLINE
5
476
100
AcDbEntity
8
0
100
AcDbSpline
70
4
71
3
72
8
73
4
74
0
42
0.000000001
43
0.0000000001
44
0.0000000001
40
0
40
0
40
0
40
0
40
1
40
1
40
1
40
1
41
1
41
1
41
1
41
1
10
84.302913029988616
20
-165.54336541493734
30
0
10
83.781635093688976
20
-165.43157475789388
30
0
10
83.676077906290686
20
-165.44559199015305
30
0
10
83.166257603963217
20
-165.69430904388429
30
0
0
SPLINE
5
477
100
AcDbEntity
8
0
100
AcDbSpline
70
4
71
3
72
8
73
4
74
0
42
0.000000001
43
0.0000000001
44
0.0000000001
40
0
40
0
40
0
40
0
40
1
40
1
40
1
40
1
41
1
41
1
41
1
41
1
10
83.166257603963217
20
-165.69430904388429
30
0
10
82.489950370788577
20
-166.02425498962404
30
0
10
81.691880544026702
20
-166.05784467061363
30
0
10
80.629187011718756
20
-165.80107739766441
30
0
0
SPLINE
5
478
100
AcDbEntity
8
0
100
AcDbSpline
70
4
71
3
72
8
73
4
74
0
42
0.000000001
43
0.0000000001
44
0.0000000001
40
0
40
0
40
0
40
0
40
1
40
1
40
1
40
1
41
1
41
1
41
1
41
1
10
80.629187011718756
20
-165.80107739766441
30
0
10
80.203680038452148
20
-165.69826552073158
30
0
10
79.726157506306976
20
-165.54814548492431
30
0
10
79.568035697937034
20
-165.46747372945148
30
0
0
SPLINE
5
479
100
AcDbEntity
8
0
100
AcDbSpline
70
4
71
3
72
8
73
4
74
0
42
0.000000001
43
0.0000000001
44
0.0000000001
40
0
40
0
40
0
40
0
40
1
40
1
40
1
40
1
41
1
41
1
41
1
41
1
10
79.568035697937034
20
-165.46747372945148
30
0
10
79.285737037658706
20
-165.32345797220867
30
0
10
79.280545171101892
20
-165.32332878112794
30
0
10
79.280545171101892
20
-165.46057008107505
30
0
0
SPLINE
5
480
100
AcDbEntity
8
0
100
AcDbSpline
70
4
71
3
72
8
73
4
74
0
42
0.000000001
43
0.0000000001
44
0.0000000001
40
0
40
0
40
0
40
0
40
1
40
1
40
1
40
1
41
1
41
1
41
1
41
1
10
79.280545171101892
20
-165.46057008107505
30
0
10
79.280545171101892
20
-165.89390926361085
30
0
10
78.04206295013428
20
-165.74701900482179
30
0
10
77.184452184041362
20
-165.21196606953939
30
0
0
SPLINE
5
481
100
AcDbEntity
8
0
100
AcDbSpline
70
4
71
3
72
8
73
4
74
0
42
0.000000001
43
0.0000000001
44
0.0000000001
40
0
40
0
40
0
40
0
40
1
40
1
40
1
40
1
41
1
41
1
41
1
41
1
10
77.184452184041362
20
-165.21196606953939
30
0
10
76.072375361124685
20
-164.51815344492593
30
0
10
75.262072753906267
20
-163.49255390167235
30
0
10
74.821006329854342
20
-162.22054659525554
30
0
0
LINE
5
482
100
AcDbEntity
8
0
100
AcDbLine
10
74.821006329854342
20
-162.22054659525554
30
0
11
74.655504480997735
21
-161.74325822194419
31
0
0
LINE
5
483
100
AcDbEntity
8
0
100
AcDbLine
10
74.655504480997735
20
-161.74325822194419
30
0
11
74.247777430216487
21
-162.25651016235355
31
0
0
SPLINE
5
484
100
AcDbEntity
8
0
100
AcDbSpline
70
4
71
3
72
8
73
4
74
0
42
0.000000001
43
0.0000000001
44
0.0000000001
40
0
40
0
40
0
40
0
40
1
40
1
40
1
40
1
41
1
41
1
41
1
41
1
10
74.247777430216487
20
-162.25651016235355
30
0
10
73.325175476074222
20
-163.41788145701091
30
0
10
72.617741266886398
20
-164.58959611256918
30
0
10
72.121437581380221
20
-165.77831554412842
30
0
0
SPLINE
5
485
100
AcDbEntity
8
0
100
AcDbSpline
70
4
71
3
72
8
73
4
74
0
42
0.000000001
43
0.0000000001
44
0.0000000001
40
0
40
0
40
0
40
0
40
1
40
1
40
1
40
1
41
1
41
1
41
1
41
1
10
72.121437581380221
20
-165.77831554412842
30
0
10
72.008791033426931
20
-166.0481311162313
30
0
10
71.850475438435879
20
-166.31521752675377
30
0
10
71.769626045227056
20
-166.37184359232583
30
0
0
SPLINE
5
486
100
AcDbEntity
8
0
100
AcDbSpline
70
4
71
3
72
8
73
4
74
0
42
0.000000001
43
0.0000000001
44
0.0000000001
40
0
40
0
40
0
40
0
40
1
40
1
40
1
40
1
41
1
41
1
41
1
41
1
10
71.769626045227056
20
-166.37184359232583
30
0
10
71.546771430969244
20
-166.52793871561687
30
0
10
71.202993965148934
20
-166.50256074269612
30
0
10
71.090032513936364
20
-166.32167708079024
30
0
0
SPLINE
5
487
100
AcDbEntity
8
0
100
AcDbSpline
70
4
71
3
72
8
73
4
74
0
42
0.000000001
43
0.0000000001
44
0.0000000001
40
0
40
0
40
0
40
0
40
1
40
1
40
1
40
1
41
1
41
1
41
1
41
1
10
71.090032513936364
20
-166.32167708079024
30
0
10
70.999388821919766
20
-166.17653090159104
30
0
10
70.974131965637227
20
-166.2017231623332
30
0
10
70.605735524495458
20
-166.80469023386638
30
0
0
SPLINE
5
488
100
AcDbEntity
8
0
100
AcDbSpline
70
4
71
3
72
8
73
4
74
0
42
0.000000001
43
0.0000000001
44
0.0000000001
40
0
40
0
40
0
40
0
40
1
40
1
40
1
40
1
41
1
41
1
41
1
41
1
10
70.605735524495458
20
-166.80469023386638
30
0
10
70.161189015706384
20
-167.53228632609051
30
0
10
70.052854220072447
20
-167.8569273630778
30
0
10
69.892035547892263
20
-168.94338397979737
30
0
0
SPLINE
5
489
100
AcDbEntity
8
0
100
AcDbSpline
70
4
71
3
72
8
73
4
74
0
42
0.000000001
43
0.0000000001
44
0.0000000001
40
0
40
0
40
0
40
0
40
1
40
1
40
1
40
1
41
1
41
1
41
1
41
1
10
69.892035547892263
20
-168.94338397979737
30
0
10
69.779049873352065
20
-169.70670948028567
30
0
10
69.577915509541839
20
-170.37241497039793
30
0
10
69.140498733520516
20
-171.43074830373132
30
0
0
SPLINE
5
490
100
AcDbEntity
8
0
100
AcDbSpline
70
4
71
3
72
8
73
4
74
0
42
0.000000001
43
0.0000000001
44
0.0000000001
40
0
40
0
40
0
40
0
40
1
40
1
40
1
40
1
41
1
41
1
41
1
41
1
10
69.140498733520516
20
-171.43074830373132
30
0
10
69.019680849711108
20
-171.72305927276611
30
0
10
68.9208335240682
20
-172.00876534779866
30
0
10
68.9208335240682
20
-172.06564979553224
30
0
0
SPLINE
5
491
100
AcDbEntity
8
0
100
AcDbSpline
70
4
71
3
72
8
73
4
74
0
42
0.000000001
43
0.0000000001
44
0.0000000001
40
0
40
0
40
0
40
0
40
1
40
1
40
1
40
1
41
1
41
1
41
1
41
1
10
68.9208335240682
20
-172.06564979553224
30
0
10
68.9208335240682
20
-172.12253424326579
30
0
10
68.793895212809261
20
-172.38516356150311
30
0
10
68.638752873738611
20
-172.64927857716879
30
0
0
SPLINE
5
492
100
AcDbEntity
8
0
100
AcDbSpline
70
4
71
3
72
8
73
4
74
0
42
0.000000001
43
0.0000000001
44
0.0000000001
40
0
40
0
40
0
40
0
40
1
40
1
40
1
40
1
41
1
41
1
41
1
41
1
10
68.638752873738611
20
-172.64927857716879
30
0
10
68.483610534667974
20
-172.9133935928345
30
0
10
68.314959653218608
20
-173.27516899108886
30
0
10
68.263961474100768
20
-173.45322659810387
30
0
0
SPLINE
5
493
100
AcDbEntity
8
0
100
AcDbSpline
70
4
71
3
72
8
73
4
74
0
42
0.000000001
43
0.0000000001
44
0.0000000001
40
0
40
0
40
0
40
0
40
1
40
1
40
1
40
1
41
1
41
1
41
1
41
1
10
68.263961474100768
20
-173.45322659810387
30
0
10
68.21297136942546
20
-173.63128420511885
30
0
10
68.049245897928884
20
-173.93275966644291
30
0
10
67.900127092997252
20
-174.12317117055261
30
0
0
SPLINE
5
494
100
AcDbEntity
8
0
100
AcDbSpline
70
4
71
3
72
8
73
4
74
0
42
0.000000001
43
0.0000000001
44
0.0000000001
40
0
40
0
40
0
40
0
40
1
40
1
40
1
40
1
41
1
41
1
41
1
41
1
10
67.900127092997252
20
-174.12317117055261
30
0
10
67.475580978393566
20
-174.6652811686198
30
0
10
67.371247069040948
20
-175.2734885533651
30
0
10
67.514519977569591
20
-176.37112827301024
30
0
0
SPLINE
5
495
100
AcDbEntity
8
0
100
AcDbSpline
70
4
71
3
72
8
73
4
74
0
42
0.000000001
43
0.0000000001
44
0.0000000001
40
0
40
0
40
0
40
0
40
1
40
1
40
1
40
1
41
1
41
1
41
1
41
1
10
67.514519977569591
20
-176.37112827301024
30
0
10
67.570701948801684
20
-176.80155258178715
30
0
10
67.568533960978201
20
-176.80944131215415
30
0
10
67.341323184967052
20
-177.00062796274821
30
0
0
SPLINE
5
496
100
AcDbEntity
8
0
100
AcDbSpline
70
4
71
3
72
8
73
4
74
0
42
0.000000001
43
0.0000000001
44
0.0000000001
40
0
40
0
40
0
40
0
40
1
40
1
40
1
40
1
41
1
41
1
41
1
41
1
10
67.341323184967052
20
-177.00062796274821
30
0
10
67.054555320739752
20
-177.24192460378015
30
0
10
66.83480936686199
20
-177.24574381510419
30
0
10
66.559632364908865
20
-177.01420110066735
30
0
0
SPLINE
5
497
100
AcDbEntity
8
0
100
AcDbSpline
70
4
71
3
72
8
73
4
74
0
42
0.000000001
43
0.0000000001
44
0.0000000001
40
0
40
0
40
0
40
0
40
1
40
1
40
1
40
1
41
1
41
1
41
1
41
1
10
66.559632364908865
20
-177.01420110066735
30
0
10
65.781837463378906
20
-176.35972716013589
30
0
10
65.319321282704678
20
-174.76323223114014
30
0
10
65.476235961914071
20
-173.27455533345542
30
0
0
SPLINE
5
498
100
AcDbEntity
8
0
100
AcDbSpline
70
4
71
3
72
8
73
4
74
0
42
0.000000001
43
0.0000000001
44
0.0000000001
40
0
40
0
40
0
40
0
40
1
40
1
40
1
40
1
41
1
41
1
41
1
41
1
10
65.476235961914071
20
-173.27455533345542
30
0
10
65.513842678070077
20
-172.91779416402181
30
0
10
65.525187269846612
20
-172.43164812723796
30
0
10
65.501452445983887
20
-172.19423529307051
30
0
0
LINE
5
499
100
AcDbEntity
8
0
100
AcDbLine
10
65.501452445983901
20
-172.19423529307051
30
0
11
65.458294550577804
21
-171.76258366902672
31
0
0
LINE
5
500
100
AcDbEntity
8
0
100
AcDbLine
10
65.458294550577804
20
-171.76258366902672
30
0
11
64.965321572621676
21
-172.23996086120607
31
0
0
SPLINE
5
501
100
AcDbEntity
8
0
100
AcDbSpline
70
4
71
3
72
8
73
4
74
0
42
0.000000001
43
0.0000000001
44
0.0000000001
40
0
40
0
40
0
40
0
40
1
40
1
40
1
40
1
41
1
41
1
41
1
41
1
10
64.965321572621676
20
-172.23996086120607
30
0
10
64.660846455891942
20
-172.53479913075765
30
0
10
64.345818042755127
20
-172.76566359202067
30
0
10
64.1414377530416
20
-172.84371922810874
30
0
0
SPLINE
5
502
100
AcDbEntity
8
0
100
AcDbSpline
70
4
71
3
72
8
73
4
74
0
42
0.000000001
43
0.0000000001
44
0.0000000001
40
0
40
0
40
0
40
0
40
1
40
1
40
1
40
1
41
1
41
1
41
1
41
1
10
64.1414377530416
20
-172.84371922810874
30
0
10
63.898707898457857
20
-172.93642190297447
30
0
10
63.79824568430584
20
-173.01901537577317
30
0
10
63.76444606781007
20
-173.15368900299075
30
0
0
SPLINE
5
503
100
AcDbEntity
8
0
100
AcDbSpline
70
4
71
3
72
8
73
4
74
0
42
0.000000001
43
0.0000000001
44
0.0000000001
40
0
40
0
40
0
40
0
40
1
40
1
40
1
40
1
41
1
41
1
41
1
41
1
10
63.76444606781007
20
-173.15368900299075
30
0
10
63.739100392659516
20
-173.25466798146567
30
0
10
63.76063493092856
20
-173.83534959157311
30
0
10
63.812291177113856
20
-174.44408988952637
30
0
0
LINE
5
504
100
AcDbEntity
8
0
100
AcDbLine
10
63.812291177113856
20
-174.44408988952637
30
0
11
63.906217130025233
21
-175.55090217590333
31
0
0
LINE
5
505
100
AcDbEntity
8
0
100
AcDbLine
10
63.906217130025233
20
-175.55090217590333
30
0
11
63.733670330047616
21
-175.71834996541341
31
0
0
SPLINE
5
506
100
AcDbEntity
8
0
100
AcDbSpline
70
4
71
3
72
8
73
4
74
0
42
0.000000001
43
0.0000000001
44
0.0000000001
40
0
40
0
40
0
40
0
40
1
40
1
40
1
40
1
41
1
41
1
41
1
41
1
10
63.733670330047616
20
-175.71834996541341
30
0
10
63.638771406809497
20
-175.81044705708823
30
0
10
63.427196788787853
20
-175.90723539988201
30
0
10
63.263507652282726
20
-175.9334531148275
30
0
0
SPLINE
5
507
100
AcDbEntity
8
0
100
AcDbSpline
70
4
71
3
72
8
73
4
74
0
42
0.000000001
43
0.0000000001
44
0.0000000001
40
0
40
0
40
0
40
0
40
1
40
1
40
1
40
1
41
1
41
1
41
1
41
1
10
63.263507652282726
20
-175.9334531148275
30
0
10
62.999517790476489
20
-175.97572282155355
30
0
10
62.937570667266854
20
-175.95623111724854
30
0
10
62.715228780110685
20
-175.76102339426677
30
0
0
SPLINE
5
508
100
AcDbEntity
8
0
100
AcDbSpline
70
4
71
3
72
8
73
4
74
0
42
0.000000001
43
0.0000000001
44
0.0000000001
40
0
40
0
40
0
40
0
40
1
40
1
40
1
40
1
41
1
41
1
41
1
41
1
10
62.715228780110685
20
-175.76102339426677
30
0
10
62.375512758890792
20
-175.46274541219077
30
0
10
61.958855374654142
20
-174.64537766774498
30
0
10
61.82311995824179
20
-174.01094449361167
30
0
0
SPLINE
5
509
100
AcDbEntity
8
0
100
AcDbSpline
70
4
71
3
72
8
73
4
74
0
42
0.000000001
43
0.0000000001
44
0.0000000001
40
0
40
0
40
0
40
0
40
1
40
1
40
1
40
1
41
1
41
1
41
1
41
1
10
61.82311995824179
20
-174.01094449361167
30
0
10
61.75143505732219
20
-173.67589550018312
30
0
10
61.709585221608485
20
-173.09016736348471
30
0
10
61.706165695190442
20
-172.37408542633059
30
0
0
SPLINE
5
510
100
AcDbEntity
8
0
100
AcDbSpline
70
4
71
3
72
8
73
4
74
0
42
0.000000001
43
0.0000000001
44
0.0000000001
40
0
40
0
40
0
40
0
40
1
40
1
40
1
40
1
41
1
41
1
41
1
41
1
10
61.706165695190442
20
-172.37408542633059
30
0
10
61.701216061910003
20
-171.33957169850669
30
0
10
61.715374596913662
20
-171.21478118896482
30
0
10
61.901752916971859
20
-170.64746278127035
30
0
0
SPLINE
5
511
100
AcDbEntity
8
0
100
AcDbSpline
70
4
71
3
72
8
73
4
74
0
42
0.000000001
43
0.0000000001
44
0.0000000001
40
0
40
0
40
0
40
0
40
1
40
1
40
1
40
1
41
1
41
1
41
1
41
1
10
61.901752916971859
20
-170.64746278127035
30
0
10
62.012251663208019
20
-170.31112995147708
30
0
10
62.15021966298422
20
-169.94336331685386
30
0
10
62.20833950042725
20
-169.83019193013513
30
0
0
SPLINE
5
512
100
AcDbEntity
8
0
100
AcDbSpline
70
4
71
3
72
8
73
4
74
0
42
0.000000001
43
0.0000000001
44
0.0000000001
40
0
40
0
40
0
40
0
40
1
40
1
40
1
40
1
41
1
41
1
41
1
41
1
10
62.20833950042725
20
-169.83019193013513
30
0
10
62.377777640024831
20
-169.50027828216554
30
0
10
62.169243049621592
20
-169.66787141164147
30
0
10
61.092330423990894
20
-170.72709293365477
30
0
0
SPLINE
5
513
100
AcDbEntity
8
0
100
AcDbSpline
70
4
71
3
72
8
73
4
74
0
42
0.000000001
43
0.0000000001
44
0.0000000001
40
0
40
0
40
0
40
0
40
1
40
1
40
1
40
1
41
1
41
1
41
1
41
1
10
61.092330423990894
20
-170.72709293365477
30
0
10
60.49231456120809
20
-171.3172458648682
30
0
10
60.0772357304891
20
-172.2134201685588
30
0
10
59.755299631754568
20
-173.61377881368003
30
0
0
SPLINE
5
514
100
AcDbEntity
8
0
100
AcDbSpline
70
4
71
3
72
8
73
4
74
0
42
0.000000001
43
0.0000000001
44
0.0000000001
40
0
40
0
40
0
40
0
40
1
40
1
40
1
40
1
41
1
41
1
41
1
41
1
10
59.755299631754568
20
-173.61377881368003
30
0
10
59.706231244405117
20
-173.82721862792971
30
0
10
59.397823874155691
20
-174.02875671386721
30
0
10
59.120272986094164
20
-174.02875671386721
30
0
0
SPLINE
5
515
100
AcDbEntity
8
0
100
AcDbSpline
70
4
71
3
72
8
73
4
74
0
42
0.000000001
43
0.0000000001
44
0.0000000001
40
0
40
0
40
0
40
0
40
1
40
1
40
1
40
1
41
1
41
1
41
1
41
1
10
59.120272986094164
20
-174.02875671386721
30
0
10
58.888742383321137
20
-174.02875671386721
30
0
10
58.672670300801606
20
-173.86184183756512
30
0
10
58.538683001200368
20
-173.57948665618898
30
0
0
SPLINE
5
516
100
AcDbEntity
8
0
100
AcDbSpline
70
4
71
3
72
8
73
4
74
0
42
0.000000001
43
0.0000000001
44
0.0000000001
40
0
40
0
40
0
40
0
40
1
40
1
40
1
40
1
41
1
41
1
41
1
41
1
10
58.538683001200368
20
-173.57948665618898
30
0
10
58.37093242009481
20
-173.22597141265871
30
0
10
58.129470252990735
20
-171.72342262268069
30
0
10
58.129470252990735
20
-171.0330577850342
30
0
0
SPLINE
5
517
100
AcDbEntity
8
0
100
AcDbSpline
70
4
71
3
72
8
73
4
74
0
42
0.000000001
43
0.0000000001
44
0.0000000001
40
0
40
0
40
0
40
0
40
1
40
1
40
1
40
1
41
1
41
1
41
1
41
1
10
58.129470252990735
20
-171.0330577850342
30
0
10
58.129470252990735
20
-170.29413324991864
30
0
10
58.309263865153007
20
-169.13167997996013
30
0
10
58.485084851582847
20
-168.73379567464195
30
0
0
LINE
5
518
100
AcDbEntity
8
0
100
AcDbLine
10
58.485084851582847
20
-168.73379567464198
30
0
11
58.615430577596037
21
-168.43882821400962
31
0
0
LINE
5
519
100
AcDbEntity
8
0
100
AcDbLine
10
58.615430577596037
20
-168.43882821400962
30
0
11
58.324791018168142
21
-168.57925084431969
31
0
0
SPLINE
5
520
100
AcDbEntity
8
0
100
AcDbSpline
70
4
71
3
72
8
73
4
74
0
42
0.000000001
43
0.0000000001
44
0.0000000001
40
0
40
0
40
0
40
0
40
1
40
1
40
1
40
1
41
1
41
1
41
1
41
1
10
58.324791018168142
20
-168.57925084431969
30
0
10
58.125505701700853
20
-168.67553857167565
30
0
10
57.953031571706148
20
-168.70692392985029
30
0
10
57.776055939992276
20
-168.67910747528077
30
0
0
SPLINE
5
521
100
AcDbEntity
8
0
100
AcDbSpline
70
4
71
3
72
8
73
4
74
0
42
0.000000001
43
0.0000000001
44
0.0000000001
40
0
40
0
40
0
40
0
40
1
40
1
40
1
40
1
41
1
41
1
41
1
41
1
10
57.776055939992276
20
-168.67910747528077
30
0
10
57.534593772888194
20
-168.64115759531657
30
0
10
57.49780257542929
20
-168.66257101694742
30
0
10
57.205217075347903
20
-169.01119314829509
30
0
0
SPLINE
5
522
100
AcDbEntity
8
0
100
AcDbSpline
70
4
71
3
72
8
73
4
74
0
42
0.000000001
43
0.0000000001
44
0.0000000001
40
0
40
0
40
0
40
0
40
1
40
1
40
1
40
1
41
1
41
1
41
1
41
1
10
57.205217075347903
20
-169.01119314829509
30
0
10
56.841318098704022
20
-169.44479878743493
30
0
10
56.53461039861044
20
-170.03681691487631
30
0
10
56.152519702911391
20
-171.04315083821618
30
0
0
SPLINE
5
523
100
AcDbEntity
8
0
100
AcDbSpline
70
4
71
3
72
8
73
4
74
0
42
0.000000001
43
0.0000000001
44
0.0000000001
40
0
40
0
40
0
40
0
40
1
40
1
40
1
40
1
41
1
41
1
41
1
41
1
10
56.152519702911391
20
-171.04315083821618
30
0
10
56.002282587687176
20
-171.43883889516195
30
0
10
55.847499561309817
20
-171.80304470062256
30
0
10
55.808556524912525
20
-171.85250066121421
30
0
0
SPLINE
5
524
100
AcDbEntity
8
0
100
AcDbSpline
70
4
71
3
72
8
73
4
74
0
42
0.000000001
43
0.0000000001
44
0.0000000001
40
0
40
0
40
0
40
0
40
1
40
1
40
1
40
1
41
1
41
1
41
1
41
1
10
55.808556524912525
20
-171.85250066121421
30
0
10
55.769613488515226
20
-171.90196469624837
30
0
10
55.609731451670335
20
-171.94243380228676
30
0
10
55.453256829579672
20
-171.94243380228676
30
0
0
SPLINE
5
525
100
AcDbEntity
8
0
100
AcDbSpline
70
4
71
3
72
8
73
4
74
0
42
0.000000001
43
0.0000000001
44
0.0000000001
40
0
40
0
40
0
40
0
40
1
40
1
40
1
40
1
41
1
41
1
41
1
41
1
10
55.453256829579672
20
-171.94243380228676
30
0
10
54.819053777058926
20
-171.94243380228676
30
0
10
54.532193056742358
20
-171.21683209737142
30
0
10
54.532528146108
20
-169.61346581776937
30
0
0
SPLINE
5
526
100
AcDbEntity
8
0
100
AcDbSpline
70
4
71
3
72
8
73
4
74
0
42
0.000000001
43
0.0000000001
44
0.0000000001
40
0
40
0
40
0
40
0
40
1
40
1
40
1
40
1
41
1
41
1
41
1
41
1
10
54.532528146108
20
-169.61346581776937
30
0
10
54.532673486073826
20
-168.91580168406171
30
0
10
54.567902278900149
20
-168.60964304606119
30
0
10
54.708349132537847
20
-168.08540986378986
30
0
0
SPLINE
5
527
100
AcDbEntity
8
0
100
AcDbSpline
70
4
71
3
72
8
73
4
74
0
42
0.000000001
43
0.0000000001
44
0.0000000001
40
0
40
0
40
0
40
0
40
1
40
1
40
1
40
1
41
1
41
1
41
1
41
1
10
54.708349132537847
20
-168.08540986378986
30
0
10
54.966864522298181
20
-167.12049783070881
30
0
10
55.383929665883393
20
-166.29825312296555
30
0
10
55.915599409739187
20
-165.70532258351648
30
0
0
SPLINE
5
528
100
AcDbEntity
8
0
100
AcDbSpline
70
4
71
3
72
8
73
4
74
0
42
0.000000001
43
0.0000000001
44
0.0000000001
40
0
40
0
40
0
40
0
40
1
40
1
40
1
40
1
41
1
41
1
41
1
41
1
10
55.915599409739187
20
-165.70532258351648
30
0
10
56.223982556660978
20
-165.36140785217285
30
0
10
56.394179693857836
20
-165.10133005777993
30
0
10
56.452404499053969
20
-164.88503189086913
30
0
0
SPLINE
5
529
100
AcDbEntity
8
0
100
AcDbSpline
70
4
71
3
72
8
73
4
74
0
42
0.000000001
43
0.0000000001
44
0.0000000001
40
0
40
0
40
0
40
0
40
1
40
1
40
1
40
1
41
1
41
1
41
1
41
1
10
56.452404499053969
20
-164.88503189086913
30
0
10
56.499292786916101
20
-164.71084194183351
30
0
10
56.651475842793786
20
-164.4445306777954
30
0
10
56.790590413411472
20
-164.29321562449138
30
0
0
LINE
5
530
100
AcDbEntity
8
0
100
AcDbLine
10
56.790590413411472
20
-164.29321562449138
30
0
11
57.043522326151539
21
-164.01810321807861
31
0
0
LINE
5
531
100
AcDbEntity
8
0
100
AcDbLine
10
57.043522326151539
20
-164.01810321807861
30
0
11
56.83506848017376
21
-163.73034623463951
31
0
0
SPLINE
5
532
100
AcDbEntity
8
0
100
AcDbSpline
70
4
71
3
72
8
73
4
74
0
42
0.000000001
43
0.0000000001
44
0.0000000001
40
0
40
0
40
0
40
0
40
1
40
1
40
1
40
1
41
1
41
1
41
1
41
1
10
56.83506848017376
20
-163.73034623463951
30
0
10
56.720423507690434
20
-163.57207908630372
30
0
10
56.587332471211759
20
-163.25882301330566
30
0
10
56.539321835835779
20
-163.03423239390057
30
0
0
SPLINE
5
533
100
AcDbEntity
8
0
100
AcDbSpline
70
4
71
3
72
8
73
4
74
0
42
0.000000001
43
0.0000000001
44
0.0000000001
40
0
40
0
40
0
40
0
40
1
40
1
40
1
40
1
41
1
41
1
41
1
41
1
10
56.539321835835779
20
-163.03423239390057
30
0
10
56.491307163238531
20
-162.80964177449547
30
0
10
56.432868385314947
20
-162.60442174275715
30
0
10
56.40945250193279
20
-162.5781878789266
30
0
0
SPLINE
5
534
100
AcDbEntity
8
0
100
AcDbSpline
70
4
71
3
72
8
73
4
74
0
42
0.000000001
43
0.0000000001
44
0.0000000001
40
0
40
0
40
0
40
0
40
1
40
1
40
1
40
1
41
1
41
1
41
1
41
1
10
56.40945250193279
20
-162.5781878789266
30
0
10
56.352584203084319
20
-162.5144886016846
30
0
10
55.290928236643481
20
-162.80086485544842
30
0
10
54.53926223119101
20
-163.08266290028888
30
0
0
SPLINE
5
535
100
AcDbEntity
8
0
100
AcDbSpline
70
4
71
3
72
8
73
4
74
0
42
0.000000001
43
0.0000000001
44
0.0000000001
40
0
40
0
40
0
40
0
40
1
40
1
40
1
40
1
41
1
41
1
41
1
41
1
10
54.53926223119101
20
-163.08266290028888
30
0
10
53.856002902984628
20
-163.33881651560466
30
0
10
53.703117370605476
20
-163.35801753997805
30
0
10
53.640762488047287
20
-163.19552745819095
30
0
0
SPLINE
5
536
100
AcDbEntity
8
0
100
AcDbSpline
70
4
71
3
72
8
73
4
74
0
42
0.000000001
43
0.0000000001
44
0.0000000001
40
0
40
0
40
0
40
0
40
1
40
1
40
1
40
1
41
1
41
1
41
1
41
1
10
53.640762488047287
20
-163.19552745819095
30
0
10
53.318943468729657
20
-162.35688355763756
30
0
10
54.768596585591638
20
-160.82043018341068
30
0
10
57.060272757212331
20
-159.57126547495525
30
0
0
SPLINE
5
537
100
AcDbEntity
8
0
100
AcDbSpline
70
4
71
3
72
8
73
4
74
0
42
0.000000001
43
0.0000000001
44
0.0000000001
40
0
40
0
40
0
40
0
40
1
40
1
40
1
40
1
41
1
41
1
41
1
41
1
10
57.060272757212331
20
-159.57126547495525
30
0
10
57.641471131642668
20
-159.25446472167971
30
0
10
57.976984405517591
20
-159.20826276143396
30
0
10
58.462153434753425
20
-159.37822977701825
30
0
0
SPLINE
5
538
100
AcDbEntity
8
0
100
AcDbSpline
70
4
71
3
72
8
73
4
74
0
42
0.000000001
43
0.0000000001
44
0.0000000001
40
0
40
0
40
0
40
0
40
1
40
1
40
1
40
1
41
1
41
1
41
1
41
1
10
58.462153434753425
20
-159.37822977701825
30
0
10
58.615507284800223
20
-159.43195711771648
30
0
10
58.902852471669519
20
-159.49846630096437
30
0
10
59.100692462921145
20
-159.52603244781497
30
0
0
SPLINE
5
539
100
AcDbEntity
8
0
100
AcDbSpline
70
4
71
3
72
8
73
4
74
0
42
0.000000001
43
0.0000000001
44
0.0000000001
40
0
40
0
40
0
40
0
40
1
40
1
40
1
40
1
41
1
41
1
41
1
41
1
10
59.100692462921145
20
-159.52603244781497
30
0
10
59.663012790679943
20
-159.60438683827721
30
0
10
60.477631187438973
20
-159.84051583607993
30
0
10
60.867905330657962
20
-160.03828315734864
30
0
0
SPLINE
5
540
100
AcDbEntity
8
0
100
AcDbSpline
70
4
71
3
72
8
73
4
74
0
42
0.000000001
43
0.0000000001
44
0.0000000001
40
0
40
0
40
0
40
0
40
1
40
1
40
1
40
1
41
1
41
1
41
1
41
1
10
60.867905330657962
20
-160.03828315734864
30
0
10
61.063597520192474
20
-160.13744538625082
30
0
10
61.512815093994149
20
-160.47808996836346
30
0
10
61.86616884867351
20
-160.79527022043865
30
0
0
SPLINE
5
541
100
AcDbEntity
8
0
100
AcDbSpline
70
4
71
3
72
8
73
4
74
0
42
0.000000001
43
0.0000000001
44
0.0000000001
40
0
40
0
40
0
40
0
40
1
40
1
40
1
40
1
41
1
41
1
41
1
41
1
10
61.86616884867351
20
-160.79527022043865
30
0
10
62.599792512257899
20
-161.4537894566854
30
0
10
62.633305486043305
20
-161.45944156646726
30
0
10
63.284707101186122
20
-161.03450787862144
30
0
0
SPLINE
5
542
100
AcDbEntity
8
0
100
AcDbSpline
70
4
71
3
72
8
73
4
74
0
42
0.000000001
43
0.0000000001
44
0.0000000001
40
0
40
0
40
0
40
0
40
1
40
1
40
1
40
1
41
1
41
1
41
1
41
1
10
63.284707101186122
20
-161.03450787862144
30
0
10
64.182984797159847
20
-160.44852943420409
30
0
10
65.928824615478533
20
-158.83740361531576
30
0
10
67.286788400014245
20
-157.34124978383386
30
0
0
SPLINE
5
543
100
AcDbEntity
8
0
100
AcDbSpline
70
4
71
3
72
8
73
4
74
0
42
0.000000001
43
0.0000000001
44
0.0000000001
40
0
40
0
40
0
40
0
40
1
40
1
40
1
40
1
41
1
41
1
41
1
41
1
10
67.286788400014245
20
-157.34124978383386
30
0
10
68.614440727233898
20
-155.87847569783531
30
0
10
68.932153892517093
20
-155.41596355438233
30
0
10
69.10438982645671
20
-154.69519844055179
30
0
0
SPLINE
5
544
100
AcDbEntity
8
0
100
AcDbSpline
70
4
71
3
72
8
73
4
74
0
42
0.000000001
43
0.0000000001
44
0.0000000001
40
0
40
0
40
0
40
0
40
1
40
1
40
1
40
1
41
1
41
1
41
1
41
1
10
69.10438982645671
20
-154.69519844055179
30
0
10
69.339202690124523
20
-153.71260337829591
30
0
10
69.1996359507243
20
-153.34928576151529
30
0
10
68.394848187764495
20
-152.84808896382651
30
0
0
SPLINE
5
545
100
AcDbEntity
8
0
100
AcDbSpline
70
4
71
3
72
8
73
4
74
0
42
0.000000001
43
0.0000000001
44
0.0000000001
40
0
40
0
40
0
40
0
40
1
40
1
40
1
40
1
41
1
41
1
41
1
41
1
10
68.394848187764495
20
-152.84808896382651
30
0
10
67.616213544209799
20
-152.36318639119469
30
0
10
67.154977162679046
20
-152.17610963185629
30
0
10
66.330637137095152
20
-152.01085001627607
30
0
0
SPLINE
5
546
100
AcDbEntity
8
0
100
AcDbSpline
70
4
71
3
72
8
73
4
74
0
42
0.000000001
43
0.0000000001
44
0.0000000001
40
0
40
0
40
0
40
0
40
1
40
1
40
1
40
1
41
1
41
1
41
1
41
1
10
66.330637137095152
20
-152.01085001627607
30
0
10
65.91892131169638
20
-151.92831306457521
30
0
10
65.548215579986589
20
-151.84043083190917
30
0
10
65.506846173604345
20
-151.81556154886883
30
0
0
SPLINE
5
547
100
AcDbEntity
8
0
100
AcDbSpline
70
4
71
3
72
8
73
4
74
0
42
0.000000001
43
0.0000000001
44
0.0000000001
40
0
40
0
40
0
40
0
40
1
40
1
40
1
40
1
41
1
41
1
41
1
41
1
10
65.506846173604345
20
-151.81556154886883
30
0
10
65.4654767672221
20
-151.79069226582845
30
0
10
65.536237144470221
20
-151.89042778015138
30
0
10
65.664091904958099
20
-152.0372049967448
30
0
0
SPLINE
5
548
100
AcDbEntity
8
0
100
AcDbSpline
70
4
71
3
72
8
73
4
74
0
42
0.000000001
43
0.0000000001
44
0.0000000001
40
0
40
0
40
0
40
0
40
1
40
1
40
1
40
1
41
1
41
1
41
1
41
1
10
65.664091904958099
20
-152.0372049967448
30
0
10
65.956305980682387
20
-152.37265771230062
30
0
10
66.125348472595221
20
-152.69525591532388
30
0
10
66.076126670837411
20
-152.82352650960289
30
0
0
SPLINE
5
549
100
AcDbEntity
8
0
100
AcDbSpline
70
4
71
3
72
8
73
4
74
0
42
0.000000001
43
0.0000000001
44
0.0000000001
40
0
40
0
40
0
40
0
40
1
40
1
40
1
40
1
41
1
41
1
41
1
41
1
10
66.076126670837411
20
-152.82352650960289
30
0
10
66.053582827250182
20
-152.88225193023683
30
0
10
65.822536691029882
20
-152.95862000783285
30
0
10
65.506943066914886
20
-153.01164487202965
30
0
0
SPLINE
5
550
100
AcDbEntity
8
0
100
AcDbSpline
70
4
71
3
72
8
73
4
74
0
42
0.000000001
43
0.0000000001
44
0.0000000001
40
0
40
0
40
0
40
0
40
1
40
1
40
1
40
1
41
1
41
1
41
1
41
1
10
65.506943066914886
20
-153.01164487202965
30
0
10
65.044870980580654
20
-153.08928871154788
30
0
10
64.921069590250667
20
-153.08517882029219
30
0
10
64.556177457173675
20
-152.98008187611899
30
0
0
SPLINE
5
551
100
AcDbEntity
8
0
100
AcDbSpline
70
4
71
3
72
8
73
4
74
0
42
0.000000001
43
0.0000000001
44
0.0000000001
40
0
40
0
40
0
40
0
40
1
40
1
40
1
40
1
41
1
41
1
41
1
41
1
10
64.556177457173675
20
-152.98008187611899
30
0
10
63.545430850982676
20
-152.68896592458091
30
0
10
61.906456279754643
20
-151.5910597483317
30
0
10
61.220496050516779
20
-150.74559294382732
30
0
0
SPLINE
5
552
100
AcDbEntity
8
0
100
AcDbSpline
70
4
71
3
72
8
73
4
74
0
42
0.000000001
43
0.0000000001
44
0.0000000001
40
0
40
0
40
0
40
0
40
1
40
1
40
1
40
1
41
1
41
1
41
1
41
1
10
61.220496050516779
20
-150.74559294382732
30
0
10
60.879758612314873
20
-150.32563311258951
30
0
10
60.251518535614025
20
-149.80900605519614
30
0
10
59.788647079467779
20
-149.56812928517661
30
0
0
SPLINE
5
553
100
AcDbEntity
8
0
100
AcDbSpline
70
4
71
3
72
8
73
4
74
0
42
0.000000001
43
0.0000000001
44
0.0000000001
40
0
40
0
40
0
40
0
40
1
40
1
40
1
40
1
41
1
41
1
41
1
41
1
10
59.788647079467779
20
-149.56812928517661
30
0
10
59.692205937703456
20
-149.51793855031332
30
0
10
59.213076591491706
20
-149.39884859720866
30
0
10
58.723914750417087
20
-149.30348135630288
30
0
0
SPLINE
5
554
100
AcDbEntity
8
0
100
AcDbSpline
70
4
71
3
72
8
73
4
74
0
42
0.000000001
43
0.0000000001
44
0.0000000001
40
0
40
0
40
0
40
0
40
1
40
1
40
1
40
1
41
1
41
1
41
1
41
1
10
58.723914750417087
20
-149.30348135630288
30
0
10
57.800699138641363
20
-149.123485883077
30
0
10
56.842723051706955
20
-148.81896635691328
30
0
10
56.222989400227874
20
-148.50847981770835
30
0
0
SPLINE
5
555
100
AcDbEntity
8
0
100
AcDbSpline
70
4
71
3
72
8
73
4
74
0
42
0.000000001
43
0.0000000001
44
0.0000000001
40
0
40
0
40
0
40
0
40
1
40
1
40
1
40
1
41
1
41
1
41
1
41
1
10
56.222989400227874
20
-148.50847981770835
30
0
10
55.232332007090257
20
-148.01216805775962
30
0
10
54.267827733357748
20
-147.19400498072307
30
0
10
53.886697896321621
20
-146.5266644159953
30
0
0
LINE
5
556
100
AcDbEntity
8
0
100
AcDbLine
10
53.886697896321621
20
-146.5266644159953
30
0
11
53.686750475565603
21
-146.17656869888307
31
0
0
LINE
5
557
100
AcDbEntity
8
0
100
AcDbLine
10
53.686750475565603
20
-146.17656869888307
30
0
11
53.605049228668221
21
-146.41093343098959
31
0
0
SPLINE
5
558
100
AcDbEntity
8
0
100
AcDbSpline
70
4
71
3
72
8
73
4
74
0
42
0.000000001
43
0.0000000001
44
0.0000000001
40
0
40
0
40
0
40
0
40
1
40
1
40
1
40
1
41
1
41
1
41
1
41
1
10
53.605049228668221
20
-146.41093343098959
30
0
10
53.500343894958505
20
-146.71128654479983
30
0
10
53.322815163930258
20
-146.90644178390502
30
0
10
53.154285399119068
20
-146.90644178390502
30
0
0
SPLINE
5
559
100
AcDbEntity
8
0
100
AcDbSpline
70
4
71
3
72
8
73
4
74
0
42
0.000000001
43
0.0000000001
44
0.0000000001
40
0
40
0
40
0
40
0
40
1
40
1
40
1
40
1
41
1
41
1
41
1
41
1
10
53.154285399119068
20
-146.90644178390502
30
0
10
53.013382339477545
20
-146.90644178390502
30
0
10
52.971706104278567
20
-146.72991428375244
30
0
10
53.094667752583831
20
-146.65391763051352
30
0
0
SPLINE
5
560
100
AcDbEntity
8
0
100
AcDbSpline
70
4
71
3
72
8
73
4
74
0
42
0.000000001
43
0.0000000001
44
0.0000000001
40
0
40
0
40
0
40
0
40
1
40
1
40
1
40
1
41
1
41
1
41
1
41
1
10
53.094667752583831
20
-146.65391763051352
30
0
10
53.134882513682058
20
-146.62907257080079
30
0
10
53.147022438049319
20
-146.57513933181764
30
0
10
53.121648502349863
20
-146.53407675425211
30
0
0
SPLINE
5
561
100
AcDbEntity
8
0
100
AcDbSpline
70
4
71
3
72
8
73
4
74
0
42
0.000000001
43
0.0000000001
44
0.0000000001
40
0
40
0
40
0
40
0
40
1
40
1
40
1
40
1
41
1
41
1
41
1
41
1
10
53.121648502349863
20
-146.53407675425211
30
0
10
53.090598233540859
20
-146.4838335355123
30
0
10
53.058934307098397
20
-146.48624779383343
30
0
10
53.024811712900799
20
-146.54145679473879
30
0
0
SPLINE
5
562
100
AcDbEntity
8
0
100
AcDbSpline
70
4
71
3
72
8
73
4
74
0
42
0.000000001
43
0.0000000001
44
0.0000000001
40
0
40
0
40
0
40
0
40
1
40
1
40
1
40
1
41
1
41
1
41
1
41
1
10
53.024811712900799
20
-146.54145679473879
30
0
10
52.994823233286546
20
-146.58998015721639
30
0
10
52.884667650858567
20
-146.4528438250224
30
0
10
52.755141480763761
20
-146.20574165980022
30
0
0
SPLINE
5
563
100
AcDbEntity
8
0
100
AcDbSpline
70
4
71
3
72
8
73
4
74
0
42
0.000000001
43
0.0000000001
44
0.0000000001
40
0
40
0
40
0
40
0
40
1
40
1
40
1
40
1
41
1
41
1
41
1
41
1
10
52.755141480763761
20
-146.20574165980022
30
0
10
52.134878953297942
20
-145.02246036529542
30
0
10
51.441256078084322
20
-144.21468505859377
30
0
10
50.740559991200769
20
-143.85961144765218
30
0
0
SPLINE
5
564
100
AcDbEntity
8
0
100
AcDbSpline
70
4
71
3
72
8
73
4
74
0
42
0.000000001
43
0.0000000001
44
0.0000000001
40
0
40
0
40
0
40
0
40
1
40
1
40
1
40
1
41
1
41
1
41
1
41
1
10
50.740559991200769
20
-143.85961144765218
30
0
10
50.155170981089285
20
-143.56297257741292
30
0
10
48.773056538899752
20
-143.11365407307943
30
0
10
48.160226535797122
20
-143.02075761159261
30
0
0
SPLINE
5
565
100
AcDbEntity
8
0
100
AcDbSpline
70
4
71
3
72
8
73
4
74
0
42
0.000000001
43
0.0000000001
44
0.0000000001
40
0
40
0
40
0
40
0
40
1
40
1
40
1
40
1
41
1
41
1
41
1
41
1
10
48.160226535797122
20
-143.02075761159261
30
0
10
47.028137207031257
20
-142.84915148417156
30
0
10
46.045425065358486
20
-142.43391520182291
30
0
10
44.748173014322923
20
-141.5790174484253
30
0
0
SPLINE
5
566
100
AcDbEntity
8
0
100
AcDbSpline
70
4
71
3
72
8
73
4
74
0
42
0.000000001
43
0.0000000001
44
0.0000000001
40
0
40
0
40
0
40
0
40
1
40
1
40
1
40
1
41
1
41
1
41
1
41
1
10
66.115106042226174
20
-112.74106918970745
30
0
10
66.115106042226174
20
-112.44482596715292
30
0
10
65.990622361501067
20
-112.37409788767496
30
0
10
65.469243494669612
20
-112.37409788767496
30
0
0
SPLINE
5
567
100
AcDbEntity
8
0
100
AcDbSpline
70
4
71
3
72
8
73
4
74
0
42
0.000000001
43
0.0000000001
44
0.0000000001
40
0
40
0
40
0
40
0
40
1
40
1
40
1
40
1
41
1
41
1
41
1
41
1
10
65.469243494669612
20
-112.37409788767496
30
0
10
65.164792601267507
20
-112.37409788767496
30
0
10
64.941029612223318
20
-112.33556462923687
30
0
10
64.84178260167441
20
-112.26604771614076
30
0
0
SPLINE
5
568
100
AcDbEntity
8
0
100
AcDbSpline
70
4
71
3
72
8
73
4
74
0
42
0.000000001
43
0.0000000001
44
0.0000000001
40
0
40
0
40
0
40
0
40
1
40
1
40
1
40
1
41
1
41
1
41
1
41
1
10
64.84178260167441
20
-112.26604771614076
30
0
10
64.699341360727956
20
-112.16627788543703
30
0
10
64.641899776458743
20
-112.18006095886231
30
0
10
64.09217154184978
20
-112.44590390523274
30
0
0
SPLINE
5
569
100
AcDbEntity
8
0
100
AcDbSpline
70
4
71
3
72
8
73
4
74
0
42
0.000000001
43
0.0000000001
44
0.0000000001
40
0
40
0
40
0
40
0
40
1
40
1
40
1
40
1
41
1
41
1
41
1
41
1
10
64.09217154184978
20
-112.44590390523274
30
0
10
63.420337549845385
20
-112.77079726854961
30
0
10
62.968851057688404
20
-112.81721723874411
30
0
10
62.328975709279391
20
-112.62719734509787
30
0
0
SPLINE
5
570
100
AcDbEntity
8
0
100
AcDbSpline
70
4
71
3
72
8
73
4
74
0
42
0.000000001
43
0.0000000001
44
0.0000000001
40
0
40
0
40
0
40
0
40
1
40
1
40
1
40
1
41
1
41
1
41
1
41
1
10
62.328975709279391
20
-112.62719734509787
30
0
10
61.870250479380296
20
-112.49096938769023
30
0
10
61.636035124460868
20
-112.2433484395345
30
0
10
61.585751533508308
20
-111.84143296877544
30
0
0
LINE
5
571
100
AcDbEntity
8
0
100
AcDbLine
10
61.585751533508308
20
-111.84143296877544
30
0
11
61.546760050455731
21
-111.52975948651631
31
0
0
LINE
5
572
100
AcDbEntity
8
0
100
AcDbLine
10
61.546760050455731
20
-111.52975948651631
30
0
11
61.27957674662273
21
-111.69953271547953
31
0
0
LINE
5
573
100
AcDbEntity
8
0
100
AcDbLine
10
61.27957674662273
20
-111.69953271547953
30
0
11
61.012393442789723
21
-111.8693079630534
31
0
0
LINE
5
574
100
AcDbEntity
8
0
100
AcDbLine
10
61.012393442789723
20
-111.8693079630534
30
0
11
61.223842906951909
21
-112.21163202921548
31
0
0
SPLINE
5
575
100
AcDbEntity
8
0
100
AcDbSpline
70
4
71
3
72
8
73
4
74
0
42
0.000000001
43
0.0000000001
44
0.0000000001
40
0
40
0
40
0
40
0
40
1
40
1
40
1
40
1
41
1
41
1
41
1
41
1
10
61.223842906951916
20
-112.21163202921551
30
0
10
61.486754830678308
20
-112.63727223078411
30
0
10
61.654674975077327
20
-113.41620159149171
30
0
10
61.654674975077327
20
-114.2101453781128
30
0
0
LINE
5
576
100
AcDbEntity
8
0
100
AcDbLine
10
61.654674975077327
20
-114.2101453781128
30
0
11
61.654674975077327
21
-114.81376244227093
31
0
0
LINE
5
577
100
AcDbEntity
8
0
100
AcDbLine
10
61.654674975077327
20
-114.81376244227093
30
0
11
61.946299616495779
21
-114.71086982091268
31
0
0
SPLINE
5
578
100
AcDbEntity
8
0
100
AcDbSpline
70
4
71
3
72
8
73
4
74
0
42
0.000000001
43
0.0000000001
44
0.0000000001
40
0
40
0
40
0
40
0
40
1
40
1
40
1
40
1
41
1
41
1
41
1
41
1
10
61.946299616495779
20
-114.71086982091268
30
0
10
62.106694380442313
20
-114.65428009033204
30
0
10
62.568023618062341
20
-114.55562655131021
30
0
10
62.971479288736987
20
-114.49163659413657
30
0
0
SPLINE
5
579
100
AcDbEntity
8
0
100
AcDbSpline
70
4
71
3
72
8
73
4
74
0
42
0.000000001
43
0.0000000001
44
0.0000000001
40
0
40
0
40
0
40
0
40
1
40
1
40
1
40
1
41
1
41
1
41
1
41
1
10
65.176714515686044
20
-113.98634201685589
30
0
10
65.560601774851492
20
-113.73229784965515
30
0
10
66.115106042226174
20
-112.99645371437073
30
0
10
66.115106042226174
20
-112.74106918970745
30
0
0
SPLINE
5
580
100
AcDbEntity
8
0
100
AcDbSpline
70
4
71
3
72
8
73
4
74
0
42
0.000000001
43
0.0000000001
44
0.0000000001
40
0
40
0
40
0
40
0
40
1
40
1
40
1
40
1
41
1
41
1
41
1
41
1
10
62.971479288736987
20
-114.49163659413657
30
0
10
64.78795433044435
20
-114.20354855855307
30
0
10
64.880548000335693
20
-114.18233296076457
30
0
10
65.176714515686044
20
-113.98634201685589
30
0
0
ENDSEC
0
SECTION
2
OBJECTS
0
DICTIONARY
5
C
100
AcDbDictionary
3
ACAD_GROUP
350
D
3
ACAD_MLINESTYLE
350
17
0
DICTIONARY
5
D
100
AcDbDictionary
0
DICTIONARY
5
1A
330
C
100
AcDbDictionary
0
DICTIONARY
5
17
100
AcDbDictionary
0
ENDSEC
0
EOF
