<?xml version="1.0" encoding="UTF-8" standalone="no"?>
<!-- Created with Inkscape (http://www.inkscape.org/) -->

<svg
   version="1.1"
   id="svg1"
   width="14.316547cm"
   height="10cm"
   viewBox="0 0 541.09787 377.95273"
   sodipodi:docname="IMG_2423.PNG"
   xml:space="preserve"
   inkscape:export-filename="IMG_2423.PNG.svg"
   inkscape:export-xdpi="96"
   inkscape:export-ydpi="96"
   xmlns:inkscape="http://www.inkscape.org/namespaces/inkscape"
   xmlns:sodipodi="http://sodipodi.sourceforge.net/DTD/sodipodi-0.dtd"
   xmlns="http://www.w3.org/2000/svg"
   xmlns:svg="http://www.w3.org/2000/svg"><defs
     id="defs1" /><sodipodi:namedview
     id="namedview1"
     pagecolor="#ffffff"
     bordercolor="#000000"
     borderopacity="0.25"
     inkscape:showpageshadow="2"
     inkscape:pageopacity="0.0"
     inkscape:pagecheckerboard="0"
     inkscape:deskcolor="#d1d1d1"
     showgrid="false"
     inkscape:document-units="cm" /><g
     inkscape:groupmode="layer"
     inkscape:label="Image"
     id="g1"
     transform="translate(0,-0.81287419)"><path
       style="fill:#000000"
       d="m 423.95061,316.2413 c -5.8814,-1.95473 -9.753,-5.20521 -12.05234,-10.1188 -0.66673,-1.42477 -0.69017,-1.57727 -0.5826,-3.79076 0.13216,-2.7198 0.72523,-4.5023 2.31636,-6.96192 1.0484,-1.62066 1.79136,-3.225 2.4976,-5.39328 0.50911,-1.56304 0.3888,-3.6403 -0.26134,-4.51254 -0.66068,-0.88637 -1.78085,-1.48908 -2.45369,-1.32021 -0.30643,0.0769 -1.6045,1.17082 -2.88459,2.43091 -2.57176,2.53159 -4.10864,3.66484 -6.71671,4.95274 -6.95438,3.43415 -14.67534,3.42312 -19.37473,-0.0277 -2.59985,-1.90909 -3.73496,-4.24075 -3.0006,-6.16364 0.60542,-1.58528 1.29403,-1.85174 4.78534,-1.85174 3.31488,0 4.11594,-0.24863 6.00173,-1.86279 3.79204,-3.24585 3.86101,-8.14703 0.15315,-10.88261 -0.9542,-0.70399 -4.66559,-1.86968 -5.95277,-1.86968 -0.5713,0 -1.59408,0.16144 -2.27286,0.35877 -1.01925,0.29631 -1.39043,0.5565 -2.13182,1.49444 -0.49373,0.62461 -1.26697,1.81421 -1.71832,2.64355 -2.35544,4.32805 -4.66573,7.15553 -7.67453,9.3926 -2.22844,1.65686 -5.54467,3.33151 -6.59724,3.33151 -0.42346,0 -1.80532,0.15551 -3.07079,0.34558 -2.20559,0.33128 -2.37597,0.32611 -4.11536,-0.12476 -5.70448,-1.47867 -10.61388,-4.52513 -13.84548,-8.59161 -1.62106,-2.03987 -3.37312,-4.84098 -4.04744,-6.47088 -0.59344,-1.43441 -1.61621,-6.223 -1.86874,-8.74938 -0.091,-0.91005 0.009,-3.12288 0.25453,-5.63515 0.34777,-3.55825 0.36485,-4.45284 0.12211,-6.39783 -0.35789,-2.86773 -0.9198,-4.68348 -2.00243,-6.47063 -1.77344,-2.92751 -3.65384,-4.59563 -7.55561,-6.70267 -3.96077,-2.13889 -6.54137,-2.6433 -10.5538,-2.06285 -3.57365,0.51697 -6.00929,1.06973 -7.88294,1.78902 -2.61938,1.00557 -11.97629,3.30256 -13.42629,3.29596 -0.47581,-0.002 -1.57888,-0.16499 -2.45125,-0.36185 -0.87238,-0.19685 -2.29146,-0.39293 -3.15353,-0.43573 -0.86206,-0.0428 -1.98369,-0.14731 -2.49249,-0.23224 -1.99793,-0.33351 -6.07665,-2.81927 -8.47226,-5.16339 -3.00839,-2.94373 -4.35589,-5.89091 -4.33896,-9.48998 0.0223,-4.74546 0.29793,-6.45714 1.53714,-9.54616 0.63083,-1.57247 1.59683,-3.5484 2.14668,-4.39096 2.66947,-4.09053 6.91604,-7.83325 11.93933,-10.52274 3.79233,-2.03043 7.84012,-4.0066 9.44417,-4.61074 0.76918,-0.2897 1.63589,-0.67988 1.92602,-0.86707 0.88172,-0.56888 7.85172,-2.55314 10.38419,-2.95624 7.23356,-1.15136 9.11905,-1.13231 19.37348,0.19575 5.70758,0.73919 12.73028,3.35442 17.39474,6.47775 4.78671,3.20518 12.72842,11.31013 14.46325,14.76052 1.18463,2.35612 2.56266,6.50613 3.0703,9.24638 0.50756,2.7398 0.56659,9.85208 0.0987,11.89599 -0.49281,2.15292 -0.41333,4.34275 0.20149,5.55147 0.82742,1.62669 1.32924,2.22536 2.38307,2.84294 1.37018,0.80298 3.02027,0.858 5.19245,0.17315 1.45029,-0.45725 2.14429,-0.88855 4.93325,-3.06582 1.78505,-1.39354 4.00203,-2.96879 4.92663,-3.50056 2.00033,-1.15048 2.80924,-1.89131 4.5355,-4.15378 1.7012,-2.22965 2.90597,-4.29773 4.33649,-7.44392 l 1.16955,-2.57223 0.1156,-4.79196 0.11561,-4.79196 -0.73828,-3.05897 c -0.40606,-1.68244 -1.06916,-3.97666 -1.47357,-5.09829 -0.93224,-2.58555 -3.00421,-6.12962 -4.5763,-7.82766 -2.6176,-2.82732 -8.2351,-7.11125 -12.83043,-9.78454 -2.88281,-1.67705 -7.53025,-4.77032 -9.68103,-6.44355 -2.00521,-1.55999 -5.36866,-5.45422 -8.62035,-9.98072 -1.57893,-2.19794 -2.33626,-3.55603 -3.82721,-6.86309 -0.64613,-1.43318 -1.93425,-4.14749 -2.8625,-6.03179 -1.62839,-3.30558 -2.57877,-5.92541 -2.57914,-7.10973 -2.9e-4,-0.91265 -1.30753,-3.4303 -2.33619,-4.49933 -1.50861,-1.56783 -3.56404,-2.66527 -4.81769,-2.57226 -0.98663,0.0732 -3.0257,1.22389 -3.95471,2.23175 -1.41232,1.53219 -2.38359,2.12003 -3.50282,2.12003 -1.08321,0 -1.39147,-0.27066 -2.05694,-1.80603 -0.61378,-1.41609 -0.55822,-3.6477 0.1241,-4.98515 1.5607,-3.05924 4.0855,-5.45067 6.75545,-6.39861 2.49065,-0.88428 5.50376,-0.70536 7.27255,0.43183 0.4993,0.32101 0.56131,0.31508 0.7779,-0.0744 0.55816,-1.00366 1.47253,-1.66944 2.29279,-1.66944 0.80422,0 0.8108,-0.008 0.4667,-0.53268 -0.45851,-0.69978 -2.0017,-4.71077 -2.36682,-6.15174 -0.15789,-0.62312 -0.5951,-1.79573 -0.97158,-2.60579 -1.66043,-3.57269 -2.77074,-7.86352 -2.54034,-9.81722 0.35254,-2.98942 1.66039,-5.64351 3.34645,-6.79114 0.64429,-0.43854 1.36708,-0.83223 1.60619,-0.87487 0.25195,-0.0449 0.68115,-0.5539 1.02075,-1.21047 0.96561,-1.8669 1.94385,-3.07038 4.15142,-5.10727 5.78635,-5.338944 9.53868,-6.97499 17.16541,-7.484242 1.93169,-0.128983 4.26456,-0.322908 5.18416,-0.430946 0.9196,-0.108038 1.79282,-0.150071 1.94048,-0.09341 0.25457,0.09769 2.39544,-0.09075 6.69738,-0.589512 2.63938,-0.306006 3.75371,0.139956 4.43721,1.775803 0.48261,1.155039 0.39446,1.747068 -0.39378,2.64483 -0.95506,1.08775 -1.68932,1.4284 -6.08275,2.822002 -10.41117,3.302445 -12.23652,4.232195 -16.76225,8.537895 -2.1848,2.07859 -2.87265,3.2752 -4.27767,7.44164 -2.03961,6.04823 -2.41753,10.52289 -1.2855,15.22038 0.73441,3.04749 0.91522,3.37846 1.10184,2.01689 0.36177,-2.63939 2.73111,-8.95441 4.75792,-12.68131 1.14338,-2.10245 3.63049,-4.77 6.41396,-6.87929 2.39869,-1.81771 3.44825,-2.42452 7.36758,-4.25957 3.61147,-1.6909 6.29985,-2.66977 8.009,-2.91615 0.62312,-0.0898 1.91468,-0.35999 2.87013,-0.60036 1.88249,-0.4736 3.47161,-0.55142 4.72064,-0.23118 0.43619,0.11184 1.06505,0.26405 1.39748,0.33824 0.76161,0.17 1.54931,1.40815 1.54486,2.42832 -0.007,1.51975 -0.3332,1.85042 -6.27668,6.35544 -9.17657,6.95562 -15.39272,16.11263 -17.2989,25.48301 -0.80525,3.9584 -0.82579,4.45106 -0.0791,1.89677 1.04914,-3.58887 3.10304,-7.23077 6.17714,-10.95307 3.93119,-4.76012 11.07718,-9.42709 17.1949,-11.22983 2.58701,-0.76233 6.07655,-1.15302 10.25596,-1.14827 4.63406,0.005 9.01097,1.16546 13.06642,3.46355 2.55717,1.44906 6.75211,4.52068 8.86725,6.49278 1.69892,1.58402 2.87924,2.41998 5.7503,4.07263 3.81482,2.1959 4.7228,2.50036 7.46513,2.50319 1.4951,0.002 4.97669,-0.83834 7.02643,-1.69502 4.11495,-1.71982 5.03618,-1.99198 6.76799,-1.99951 2.48979,-0.0108 4.05007,0.90141 4.86088,2.84194 0.44115,1.05583 0.43867,1.82789 -0.0101,3.1198 -0.89518,2.57736 -2.43225,3.82997 -7.19858,5.86636 -2.83997,1.21338 -4.42045,1.57677 -7.62223,1.75258 -2.74752,0.15087 -6.77351,-0.28408 -8.70761,-0.94072 -0.8716,-0.29592 -1.05232,-0.28349 -2.18263,0.15009 -2.53143,0.97103 -10.48814,0.14327 -15.61703,-1.62469 -1.0614,-0.36587 -2.79653,-0.8264 -3.85584,-1.02341 -1.05931,-0.197 -2.89469,-0.59721 -4.07863,-0.88937 -4.11005,-1.01422 -6.45522,-1.27695 -11.80078,-1.322 -5.71971,-0.0482 -6.21245,0.0564 -8.75234,1.85822 -2.10118,1.4906 -5.17505,5.31884 -6.35609,7.91599 -0.55567,1.22195 -0.58335,1.46622 -0.55658,4.91135 0.0423,5.44355 0.75848,9.29713 2.49171,13.40734 1.47714,3.50294 4.93287,8.8186 7.48749,11.51737 0.9742,1.02917 2.16555,2.46991 2.64745,3.20163 0.48189,0.73172 1.3674,1.98378 1.9678,2.78235 1.21086,1.61055 1.2229,1.57884 0.50825,-1.33865 -0.1679,-0.68543 -0.36938,-1.96001 -0.44773,-2.83238 -0.19409,-2.16125 -1.16506,-7.33506 -1.71859,-9.15749 -0.24928,-0.82074 -0.75167,-2.46093 -1.11642,-3.64487 -0.95798,-3.10947 -1.1967,-5.51335 -1.05689,-10.64242 0.13009,-4.77211 0.71256,-8.17474 1.74622,-10.20087 0.73813,-1.44687 2.10372,-2.79499 3.54709,-3.50174 1.1428,-0.55958 1.46117,-0.61851 2.66276,-0.49292 2.5317,0.26462 3.71454,1.609 3.48538,3.96141 -0.13501,1.38592 -0.81215,2.7424 -2.33388,4.67533 -1.55348,1.97327 -2.45726,3.80791 -2.95582,6.00027 -0.88996,3.91351 0.59396,8.31852 4.70733,13.97366 0.78957,1.08552 1.04226,1.53348 3.75134,6.65044 4.3605,8.23617 6.87738,18.9537 5.96387,25.39566 -0.44774,3.15736 -1.60033,7.09046 -3.20038,10.9209 -0.4047,0.96884 -0.67129,1.82605 -0.59242,1.90492 0.21644,0.21644 3.25116,-1.35608 4.79784,-2.48614 1.48518,-1.08512 3.8654,-3.64639 5.16947,-5.56269 1.76346,-2.59134 2.61015,-7.30812 1.97361,-10.99466 -0.60794,-3.52095 -1.67341,-7.11804 -3.27931,-11.07118 -2.69286,-6.62888 -4.27784,-12.78506 -5.4708,-21.24905 -0.41906,-2.97323 -0.31765,-5.29227 0.35287,-8.06906 0.95636,-3.9605 1.70417,-5.40347 3.4592,-6.67481 0.78675,-0.56991 1.123,-0.66428 2.3671,-0.66428 1.59173,0 2.36,0.30126 3.2711,1.28267 1.08557,1.16936 1.42879,2.09821 1.39495,3.7751 -0.0327,1.6185 -0.34107,2.40531 -2.46821,6.297 -1.35148,2.47258 -1.29632,3.91952 0.29272,7.67883 2.94183,6.95967 4.47294,9.47413 8.20961,13.48212 2.34042,2.51038 4.44053,6.36783 5.98306,10.98964 1.11929,3.35368 1.37114,5.26062 1.21925,9.23201 -0.18852,4.92924 -0.95437,7.3342 -3.66628,11.51307 -3.15038,4.85453 -8.62108,11.28261 -12.05321,14.16254 -1.1009,0.92378 -3.15795,2.77646 -4.57121,4.11705 -2.96493,2.81249 -5.58643,4.97146 -6.5595,5.40219 l -0.67714,0.29972 0.93777,0.61083 c 2.89278,1.88422 6.47661,6.4286 7.7973,9.88713 1.34096,3.51161 1.51822,4.88575 1.20661,9.35372 -0.442,6.33759 -0.43674,6.51503 0.23591,7.9549 0.36015,0.77093 0.93135,1.52823 1.45271,1.92602 0.75859,0.57878 1.07981,0.66487 2.74371,0.73532 1.70113,0.072 1.98266,0.0223 2.89281,-0.5111 1.54242,-0.90392 3.27873,-3.27371 4.66167,-6.36244 0.97034,-2.16722 2.90699,-5.0184 4.28289,-6.3054 2.31595,-2.1663 7.0486,-3.78016 10.15272,-3.46213 2.8207,0.28899 5.7425,1.92225 6.3191,3.53233 0.47686,1.33156 0.3835,2.9527 -0.24508,4.25569 -0.69294,1.43641 -1.07704,1.69574 -3.59016,2.42402 -1.09463,0.31721 -2.49772,0.8339 -3.11796,1.1482 -2.06371,1.04576 -3.83123,3.38751 -3.83123,5.07589 0,1.3779 0.79055,2.25999 2.51033,2.80099 1.11101,0.3495 5.08281,-1.2511 7.9727,-3.21293 4.25618,-2.88936 7.54015,-6.99499 8.88995,-11.11429 0.61139,-1.86583 0.77067,-5.4645 0.32172,-7.26892 -0.34915,-1.40334 -1.34158,-4.16289 -2.57338,-7.15556 -0.9369,-2.2762 -1.34277,-5.34256 -1.3173,-9.95201 0.0214,-3.87706 0.31941,-7.55148 0.65666,-8.09717 0.0854,-0.13822 0.63894,-1.69682 1.23003,-3.46356 3.98203,-11.9021 10.89186,-18.08446 21.69686,-19.41261 4.5549,-0.55989 10.52595,1.11665 15.24052,4.27918 1.84684,1.23886 4.78291,2.50428 7.54799,3.25312 1.35256,0.36629 2.26585,0.46565 3.73875,0.40676 2.91234,-0.11646 3.92533,-0.70645 7.81744,-4.5531 2.96459,-2.92996 3.20502,-3.11562 4.03477,-3.11562 0.48528,0 1.17467,0.15118 1.53197,0.33595 1.02541,0.53026 1.25766,1.5602 1.22719,5.44211 -0.0234,2.98675 -0.10047,3.64476 -0.6353,5.42698 -1.06421,3.54624 -2.15619,5.31955 -5.21049,8.4615 -3.15569,3.24625 -4.92401,4.45075 -8.21064,5.59272 -3.60164,1.25143 -9.63383,1.76063 -13.33433,1.12562 -4.71056,-0.80835 -9.5885,-0.6974 -11.16741,0.25399 -0.86098,0.5188 -2.71759,2.91799 -3.40804,4.40401 -0.42598,0.91682 -0.60506,1.7395 -0.67746,3.11225 -0.0884,1.67539 -0.0365,1.9926 0.50788,3.10522 0.33346,0.68157 0.89661,1.4835 1.25144,1.78208 0.93587,0.78748 2.94361,1.12863 4.95956,0.84271 0.89179,-0.12648 2.92772,-0.29607 4.5243,-0.37688 3.27914,-0.16596 3.89563,-0.0332 7.23498,1.55758 3.83186,1.82545 5.55476,5.05499 5.59275,10.48347 0.0178,2.53869 -0.0243,2.81281 -0.63344,4.13172 -0.79445,1.72003 -2.42125,3.32354 -3.72908,3.6757 -0.65422,0.17616 -1.35103,0.18011 -2.39361,0.0136 -1.71145,-0.27341 -1.6391,-0.2499 -4.44107,-1.44309 -2.08431,-0.88758 -2.23168,-0.91646 -4.6451,-0.91018 -2.88911,0.008 -4.21092,0.31484 -4.8503,1.12768 -0.69479,0.88328 -1.32865,2.78231 -1.8267,5.47268 -0.24779,1.33854 -0.61117,3.30043 -0.8075,4.35974 -0.48773,2.63146 -1.62517,4.89755 -3.16435,6.30428 -2.24789,2.05445 -4.05547,2.523 -9.75558,2.52881 -3.7867,0.004 -3.88159,0.0158 -4.78433,0.60112 -1.12821,0.73155 -2.11797,2.20137 -2.10786,3.13026 0.004,0.38009 0.34998,1.55777 0.76856,2.61708 2.65095,6.70895 2.45385,5.98213 2.34696,8.65464 -0.0884,2.21061 -0.16512,2.5582 -0.87357,3.95864 -1.48233,2.93026 -4.5773,5.29405 -7.9399,6.06411 -2.47193,0.56609 -5.09714,0.66674 -6.99863,0.26833 -4.43259,-0.92875 -8.15726,-4.13913 -8.15726,-7.03093 0,-0.92807 0.10693,-1.12587 1.19919,-2.21829 1.56178,-1.562 2.39632,-2.68408 2.64741,-3.5596 0.47419,-1.65341 -1.8399,-2.73135 -6.22579,-2.90007 -5.2358,-0.20142 -8.19306,0.92074 -11.58563,4.39624 -3.85409,3.94832 -4.71512,7.71054 -2.15909,9.43405 4.00811,2.70264 6.63706,3.2226 11.02479,2.18052 1.87393,-0.44506 2.01164,-0.4489 3.1028,-0.0865 0.79541,0.26419 1.25427,0.57691 1.51243,1.03077 0.20383,0.35833 0.44707,0.65216 0.54054,0.65295 0.31707,0.003 0.17186,1.36958 -0.29165,2.74549 -1.45669,4.3241 -5.87037,7.99793 -10.72435,8.92665 -2.55418,0.4887 -7.37071,0.43507 -8.9806,-0.1 z m 2.20454,-0.15151 c -0.0753,-0.0753 -0.27073,-0.0833 -0.4343,-0.0179 -0.18076,0.0723 -0.12707,0.12603 0.1369,0.1369 0.23886,0.01 0.37269,-0.0437 0.2974,-0.11901 z m 6.11794,-0.22659 c -0.0753,-0.0753 -0.27073,-0.0833 -0.4343,-0.0179 -0.18076,0.0723 -0.12707,0.12603 0.1369,0.1369 0.23886,0.01 0.37269,-0.0437 0.2974,-0.11901 z m 1.19432,-0.89456 c 1.58051,-0.47212 4.38812,-1.9206 5.50108,-2.83806 1.0584,-0.87248 2.49152,-2.95558 3.37718,-4.90885 0.59628,-1.31506 0.63876,-1.55039 0.38879,-2.15385 -0.59854,-1.44501 -1.81005,-1.70938 -4.05547,-0.88497 -0.76061,0.27926 -1.79681,0.37437 -4.07863,0.37437 h -3.05897 l -1.81272,-0.88355 c -2.38731,-1.16362 -3.15226,-1.75396 -3.87846,-2.99312 -0.80401,-1.37194 -0.98703,-3.61342 -0.43159,-5.2857 0.4837,-1.4563 3.55767,-5.35321 5.20186,-6.59448 1.88305,-1.4216 4.9464,-2.70907 7.03885,-2.95829 2.47227,-0.29446 5.9566,-0.0306 8.15725,0.6178 1.41911,0.41811 1.97828,0.712 2.57513,1.35343 0.70474,0.75738 0.75495,0.90922 0.66384,2.00782 -0.13943,1.68142 -1.02682,3.08209 -2.65173,4.18554 -0.72792,0.49432 -1.38817,1.06731 -1.46722,1.27331 -0.26286,0.68501 0.94983,2.93824 1.97651,3.67241 2.54669,1.82113 5.39192,2.77723 8.22639,2.76438 2.35708,-0.0107 3.93553,-0.4145 6.17553,-1.57988 2.11496,-1.10032 3.74162,-2.73425 4.73544,-4.75658 1.17039,-2.38166 0.67423,-6.2907 -1.33981,-10.55586 -1.41625,-2.9992 -1.24557,-5.14521 0.56133,-7.05761 1.18735,-1.25668 2.23709,-1.49954 5.58283,-1.29158 2.73786,0.17017 5.70851,-0.26965 7.59131,-1.12393 1.56445,-0.70983 3.11942,-2.34426 4.07548,-4.28373 0.63301,-1.28412 0.92295,-2.33206 1.36055,-4.91745 0.96011,-5.67246 1.41862,-7.24321 2.43063,-8.32686 1.07553,-1.15166 1.76638,-1.29649 6.06812,-1.27209 2.52603,0.0143 4.04313,0.31786 5.00225,1.00081 0.65168,0.46404 3.61733,1.3485 4.50999,1.34504 1.69855,-0.007 4.3461,-2.13865 4.6935,-3.77966 0.29278,-1.38299 0.14128,-4.9187 -0.27162,-6.33902 -0.92246,-3.17316 -2.31339,-4.84337 -5.17382,-6.21267 -2.96915,-1.42134 -4.24594,-1.52989 -11.49112,-0.97693 -2.65995,0.20302 -4.12659,-0.22588 -5.36439,-1.56874 -2.90388,-3.15034 -2.3531,-8.23948 1.3276,-12.26675 0.67116,-0.73436 1.64759,-1.48963 2.40471,-1.86005 1.17916,-0.57691 1.47962,-0.62326 4.0084,-0.61825 1.73296,0.003 3.93645,0.19719 6.01926,0.52929 5.33409,0.85053 10.41977,0.45638 14.37274,-1.1139 3.03511,-1.20568 4.04611,-1.8338 5.98632,-3.71921 3.71661,-3.61163 5.58641,-6.47692 6.52294,-9.99577 0.32446,-1.21912 0.42214,-2.38991 0.42214,-5.0599 0,-3.17713 -0.0376,-3.50123 -0.43984,-3.79539 -1.07701,-0.78752 -2.38256,-0.0269 -4.43577,2.58419 -2.28576,2.90687 -5.14902,4.57836 -8.13599,4.74958 -2.48767,0.1426 -7.12926,-1.0794 -10.10137,-2.6594 -1.18352,-0.62917 -3.09504,-1.64371 -4.24782,-2.25454 -4.00837,-2.12392 -8.41064,-3.35224 -11.13088,-3.10574 -3.44881,0.31253 -6.40519,1.17157 -9.82362,2.85449 -2.91136,1.43328 -3.39169,1.75735 -4.95608,3.34384 -2.03745,2.06621 -4.88135,6.24872 -5.97906,8.79336 -0.42716,0.99022 -0.84529,1.85139 -0.92917,1.9137 -0.33273,0.24718 -1.60818,4.73205 -1.92779,6.77871 -0.18652,1.19439 -0.39564,3.75208 -0.4647,5.68376 -0.15806,4.42052 0.23534,7.2182 1.52817,10.86779 2.55987,7.22642 2.52031,7.0559 2.39417,10.31841 -0.15972,4.13097 -0.69896,5.70793 -3.27945,9.5905 -1.40333,2.11142 -3.89258,4.51408 -6.15339,5.93934 -4.97782,3.13812 -6.55514,3.77645 -8.76741,3.54813 -1.63428,-0.16867 -2.57184,-0.74596 -3.20848,-1.97558 -0.43042,-0.8313 -0.5013,-1.23228 -0.39259,-2.22079 0.18051,-1.64141 0.59483,-2.54162 1.74307,-3.78731 1.20459,-1.30683 3.84217,-2.67392 6.1234,-3.17383 1.93341,-0.4237 2.44711,-0.86671 3.02601,-2.60963 0.57691,-1.73688 0.23452,-2.69297 -1.33838,-3.73732 -0.6597,-0.43801 -1.72848,-0.9974 -2.37507,-1.24309 -1.05166,-0.3996 -1.39009,-0.4224 -3.20959,-0.21629 -3.48823,0.39516 -6.55128,1.79669 -8.4803,3.88026 -0.66042,0.71333 -1.89021,2.5026 -2.73287,3.97616 -0.84266,1.47356 -1.93805,3.38067 -2.43421,4.23801 -1.98839,3.43585 -3.94432,4.60703 -7.33617,4.39274 -1.91416,-0.12092 -2.82196,-0.57856 -3.86788,-1.94986 -1.15061,-1.50854 -1.27108,-2.31093 -1.09408,-7.28725 0.21581,-6.06773 0.18868,-6.6109 -0.45282,-9.06361 -1.08626,-4.15326 -2.92053,-6.99556 -6.73886,-10.44226 -1.27426,-1.15024 -2.41824,-2.34517 -2.54218,-2.65541 -0.19825,-0.49625 -0.13355,-0.63498 0.53814,-1.15403 1.60801,-1.24259 6.6744,-5.54992 8.36614,-7.11271 0.97316,-0.89899 2.64875,-2.42592 3.72355,-3.39319 1.07479,-0.96727 2.9555,-2.95461 4.17934,-4.41631 1.22385,-1.4617 2.38937,-2.82282 2.59005,-3.02471 0.35492,-0.35707 3.64724,-4.81963 5.13175,-6.95584 1.7157,-2.46887 2.65228,-5.80553 2.90704,-10.35655 0.17629,-3.14911 0.0107,-4.18485 -1.2992,-8.12634 -1.45068,-4.36514 -2.84379,-6.87115 -5.93689,-10.67965 -1.11336,-1.37088 -2.36418,-2.85094 -2.7796,-3.28904 -1.07373,-1.13236 -1.99294,-2.73772 -4.08493,-7.13412 -2.41219,-5.06934 -2.68197,-5.90043 -2.68468,-8.27055 -0.002,-1.81263 0.5436,-4.07863 0.98216,-4.07863 0.0846,0 0.70855,-1.07277 1.38654,-2.38393 l 1.23271,-2.38392 -0.28551,-1.06748 c -0.38058,-1.42294 -1.10767,-2.32614 -2.3869,-2.96502 -1.53282,-0.76552 -2.6497,-0.54023 -3.58006,0.72217 -0.99075,1.34435 -1.67524,2.97848 -2.33071,5.56431 -0.74003,2.91937 -0.73942,5.13821 0.003,9.44927 1.35688,7.88362 2.64063,12.61921 4.87673,17.98954 1.01187,2.43019 1.97248,5.03031 2.13469,5.77806 0.1622,0.74775 0.51469,2.17527 0.7833,3.17226 0.57976,2.15183 0.91378,6.56372 0.67914,8.9704 -0.3182,3.26383 -1.92013,6.27981 -5.19419,9.77921 -1.9886,2.12546 -4.60549,3.90856 -6.88949,4.69437 -0.68516,0.23573 -1.6117,0.60226 -2.05898,0.8145 -0.96347,0.4572 -1.20833,0.30651 -0.86414,-0.53178 2.16949,-5.28386 2.11662,-5.16188 2.70689,-6.24457 0.19344,-0.35481 0.71632,-2.03724 1.16195,-3.73874 0.78352,-2.99157 0.8108,-3.23195 0.82682,-7.28556 0.0138,-3.49737 -0.0691,-4.62367 -0.50014,-6.79771 -0.68053,-3.43197 -1.89133,-7.42323 -3.13554,-10.33597 -1.18204,-2.76719 -4.5892,-8.97093 -6.73073,-12.25528 -3.0481,-4.67472 -3.94931,-6.92035 -4.16476,-10.37765 -0.10322,-1.65632 -0.0339,-2.40103 0.36896,-3.96533 0.66311,-2.57467 1.26649,-3.80525 3.05531,-6.23124 1.51468,-2.05421 2.08612,-3.3784 1.85511,-4.29883 -0.22313,-0.88902 -1.0167,-1.65476 -2.09603,-2.02253 -1.01416,-0.34556 -1.09596,-0.33976 -2.09472,0.1485 -3.23796,1.58293 -4.80571,5.49698 -5.14989,12.85728 -0.17869,3.8212 0.18346,7.33116 1.03873,10.06748 1.57602,5.04225 2.3454,8.2906 2.73481,11.54637 0.13247,1.10758 0.55003,3.45279 0.92791,5.21158 0.95465,4.44327 1.03019,5.12381 0.56874,5.12381 -0.4527,0 -2.75464,-2.87822 -5.01867,-6.27508 -0.92977,-1.39499 -2.09146,-2.85857 -2.58153,-3.2524 -1.78201,-1.43206 -5.66108,-6.92234 -6.59277,-9.33112 -0.15773,-0.40781 -0.68735,-1.63161 -1.17694,-2.71955 -1.42692,-3.1709 -2.20094,-6.65931 -2.47712,-11.16416 -0.27373,-4.46485 -0.20778,-5.33355 0.575,-7.57406 0.7565,-2.16527 2.0922,-4.2505 4.13246,-6.45139 2.06669,-2.22941 3.38185,-3.12497 5.53384,-3.76827 1.60392,-0.47946 1.94945,-0.49725 7.23582,-0.37249 5.49682,0.12973 8.0604,0.42357 9.74338,1.11679 0.43619,0.17967 2.06764,0.55627 3.62545,0.8369 1.55781,0.28062 4.10695,0.84841 5.66476,1.26176 5.84017,1.54961 9.217,1.88831 16.5411,1.6591 0.81006,-0.0254 3.0533,0.1 4.98498,0.27853 5.52699,0.51087 9.19376,0.028 12.78094,-1.68312 3.08498,-1.47155 4.72629,-2.80725 5.52369,-4.49518 0.37101,-0.78535 0.6094,-1.61173 0.55183,-1.91289 -0.0558,-0.29163 -0.50437,-0.98807 -0.99693,-1.54765 -1.67719,-1.90539 -3.57676,-1.93101 -8.05311,-0.1086 -4.6316,1.88561 -6.95216,2.45675 -10.03924,2.47086 -1.69975,0.008 -2.27797,-0.0742 -2.71908,-0.38544 -0.30814,-0.21742 -1.07385,-0.60507 -1.70159,-0.86145 -1.93044,-0.78842 -6.20891,-3.79881 -8.82863,-6.21193 -3.47063,-3.19693 -8.04236,-5.99557 -12.1736,-7.45223 -3.15603,-1.1128 -5.4428,-1.4502 -10.03226,-1.48021 -3.51973,-0.023 -4.40465,0.0463 -6.45783,0.50612 -1.30856,0.29304 -2.83804,0.68772 -3.39885,0.87706 -1.73435,0.58556 -5.20935,2.42959 -7.80196,4.14015 -8.81224,5.81417 -13.19778,12.54381 -14.61964,22.43391 -0.58934,4.09928 -0.71863,4.68287 -1.03744,4.68287 -0.4865,0 -0.60929,-0.52858 -0.73093,-3.14663 -0.18002,-3.87451 0.83566,-10.40662 2.23425,-14.36914 2.20208,-6.23896 5.14226,-10.79043 11.16784,-17.28812 0.98704,-1.06438 4.78518,-3.96531 7.61448,-5.81576 2.12959,-1.39282 3.62658,-2.8303 3.62658,-3.4824 0,-0.91654 -1.13571,-1.75949 -2.62389,-1.94751 -2.92586,-0.36967 -9.55121,1.33309 -14.1438,3.63505 -5.10885,2.56073 -7.18021,3.88637 -9.36793,5.99534 -3.14576,3.03253 -4.68857,5.43436 -6.77681,10.5501 -1.64814,4.03759 -2.20111,6.13302 -2.36241,8.95218 -0.12083,2.11181 -0.2001,2.49944 -0.49938,2.4418 -0.50385,-0.097 -1.51723,-2.6721 -2.4213,-6.15265 -1.61693,-6.22497 -1.21885,-10.28337 1.75212,-17.86278 1.44256,-3.68021 2.50866,-5.25444 4.93716,-7.29038 4.64108,-3.89085 5.89952,-4.5306 14.51196,-7.37739 1.80706,-0.597313 3.94834,-1.389534 4.7584,-1.760491 1.49016,-0.6824 2.94567,-1.835344 2.94567,-2.333331 0,-0.149399 -0.34668,-0.618318 -0.77041,-1.042042 -0.93838,-0.938386 -1.42091,-0.964816 -5.76447,-0.315743 -1.6625,0.248434 -3.54886,0.451118 -4.19192,0.45041 -1.13711,-0.0013 -2.21949,0.09519 -8.90896,0.793832 -5.39568,0.563517 -9.27154,2.352019 -13.52857,6.242705 -1.63863,1.49762 -4.56932,5.11594 -5.02284,6.20135 -0.203,0.48585 -0.49733,0.8135 -0.73277,0.81573 -1.49644,0.0142 -3.37013,2.35148 -4.33445,5.40694 -0.49674,1.57392 -0.49941,1.64332 -0.13769,3.5737 0.20288,1.08273 0.71325,2.94553 1.13415,4.13955 1.71425,4.86301 2.60955,7.26785 3.50768,9.42183 1.70336,4.08516 1.72808,4.41851 0.32763,4.41851 -0.62732,0 -0.99653,0.17498 -1.55384,0.73642 -0.40205,0.40503 -0.84417,0.94035 -0.98249,1.1896 -0.24228,0.43658 -0.28729,0.43964 -1.229,0.0836 -0.53764,-0.20329 -1.51363,-0.60624 -2.16889,-0.89543 -1.09701,-0.48417 -1.30815,-0.50581 -2.66591,-0.27324 -2.99051,0.51225 -5.99074,2.49332 -7.29367,4.81605 -0.31699,0.5651 -0.77532,1.31464 -1.01851,1.66565 -0.24319,0.35101 -0.48996,1.16674 -0.54839,1.81273 -0.1381,1.52683 0.59829,2.94706 1.58724,3.06119 0.53033,0.0612 0.86115,-0.15631 1.92033,-1.26264 0.70379,-0.73513 1.97232,-1.72284 2.81896,-2.19492 1.43777,-0.8017 1.63961,-0.85222 3.05897,-0.76575 1.84507,0.11242 2.87804,0.58551 4.4848,2.054 1.3621,1.24488 2.30843,2.99006 2.91784,5.38093 0.20648,0.81006 0.48161,1.8807 0.61141,2.37919 0.36684,1.4089 7.31957,15.51791 8.75993,17.77635 0.84569,1.326 2.89419,3.91831 4.99487,6.32083 1.08721,1.24344 4.81931,4.2546 6.94163,5.6007 0.37387,0.23714 1.54171,1.03887 2.59519,1.78162 1.05349,0.74276 3.04182,2.00381 4.41852,2.80232 1.37669,0.79852 2.9209,1.79255 3.43157,2.20896 0.51067,0.41641 1.53033,1.11425 2.2659,1.55076 1.85987,1.10368 4.7817,3.6621 6.56393,5.74753 2.63079,3.07834 4.22471,6.21669 5.72508,11.2724 1.18028,3.9771 1.46898,6.95708 1.15485,11.92042 -0.21362,3.37519 -0.23938,3.49519 -1.36316,6.34862 -1.19961,3.04597 -2.39075,5.0634 -4.66562,7.90215 -1.08796,1.35764 -1.82851,1.99564 -3.68214,3.17226 -1.27616,0.81006 -3,2.06387 -3.83074,2.78624 -2.55571,2.22228 -5.97041,4.39537 -7.76162,4.93944 -2.92345,0.88797 -5.33452,0.43911 -7.30836,-1.36056 -1.85912,-1.69508 -2.38561,-5.03688 -1.37764,-8.74432 0.50159,-1.8449 0.4942,-8.40475 -0.0125,-11.10895 -0.68985,-3.68149 -2.79158,-8.8547 -4.72772,-11.6368 -1.20642,-1.73356 -5.34494,-5.96045 -8.51557,-8.69741 -5.83824,-5.03968 -12.71243,-8.38949 -19.41275,-9.45988 -6.20163,-0.99071 -11.51655,-1.3126 -15.15981,-0.91812 -3.96006,0.42877 -8.78306,1.38641 -10.19388,2.02405 -2.44166,1.10354 -7.27043,3.08043 -8.38653,3.43343 -0.4985,0.15766 -3.06879,1.34206 -5.71176,2.63198 -3.98862,1.94669 -5.25957,2.69298 -7.47748,4.39073 -1.46965,1.12497 -3.05904,2.52781 -3.53197,3.11742 -0.83665,1.04306 -3.66673,5.30426 -4.21893,6.35238 -0.69189,1.31327 -1.82327,5.38569 -2.16448,7.79112 -0.43832,3.08996 -0.28271,4.44652 0.76093,6.6335 1.53458,3.21577 6.20195,7.42084 9.68179,8.72282 1.81432,0.67882 5.12758,1.37691 7.25147,1.52786 1.9013,0.13512 6.12582,-0.27298 6.56692,-0.63439 0.13757,-0.11272 1.39618,-0.45843 2.7969,-0.76824 2.50586,-0.55425 5.06692,-1.3751 6.33296,-2.0298 1.52931,-0.79084 7.35651,-1.71158 10.83224,-1.71158 1.85798,0 4.36597,0.78602 7.45727,2.33717 6.47485,3.24894 9.46226,7.00246 10.32559,12.9736 0.21391,1.47947 0.20661,2.90418 -0.0349,6.81852 -0.38118,6.17738 -0.35222,7.02537 0.35472,10.38643 0.72827,3.46241 1.38908,5.14267 2.92787,7.44468 3.14032,4.69789 6.69635,7.8436 11.19657,9.90461 2.74989,1.2594 4.09548,1.53241 7.68267,1.55879 1.82462,0.0134 4.75868,-0.63856 6.24935,-1.38865 3.25988,-1.64036 7.38079,-5.43824 9.12868,-8.4131 0.37993,-0.64662 1.26097,-2.14749 1.95787,-3.33526 0.6969,-1.18778 1.55092,-2.43139 1.89781,-2.76359 1.83234,-1.75472 4.66999,-2.05562 8.2303,-0.87275 4.45285,1.47941 6.52748,4.16327 6.29673,8.14582 -0.11391,1.96606 -0.76376,3.26989 -2.55265,5.12148 -2.34562,2.42785 -6.28378,3.89389 -8.26051,3.07511 -0.88338,-0.36591 -1.88191,-0.12983 -2.63465,0.62292 -0.79397,0.79396 -0.65256,1.74602 0.51124,3.44194 1.45181,2.11562 3.67378,3.23053 7.83746,3.93255 2.99799,0.50548 6.91282,-0.2196 11.22644,-2.07931 3.46036,-1.49184 5.15597,-2.633 7.68678,-5.17325 2.30425,-2.31284 2.34514,-2.34095 3.39885,-2.33603 1.29843,0.006 2.85503,0.67478 3.24006,1.39195 0.55075,1.02584 0.86522,3.17908 0.63972,4.38027 -0.44039,2.34583 -1.70565,5.41043 -3.29319,7.97642 -0.16949,0.27394 -0.5806,1.19163 -0.9136,2.03931 -0.48765,1.24138 -0.60937,1.938 -0.6256,3.58055 -0.0187,1.88947 0.0356,2.147 0.73791,3.50488 1.98946,3.84621 6.62323,7.72122 11.02464,9.21942 1.25787,0.42817 7.44513,0.24368 9.17691,-0.27363 z m 6.45782,-2.82058 c 0.22557,-0.24925 0.35914,-0.45318 0.29683,-0.45318 -0.0623,0 -0.29785,0.20393 -0.52342,0.45318 -0.22557,0.24925 -0.35914,0.45318 -0.29683,0.45318 0.0623,0 0.29785,-0.20393 0.52342,-0.45318 z m -22.54574,-0.0738 c 0,-0.0406 -0.28041,-0.32099 -0.62312,-0.62312 l -0.62313,-0.54933 0.54933,0.62313 c 0.51343,0.5824 0.69692,0.72703 0.69692,0.54932 z m -1.81272,-1.82447 c 0,-0.0471 -0.17844,-0.2255 -0.39654,-0.39654 -0.35938,-0.28185 -0.3674,-0.27383 -0.0856,0.0856 0.29601,0.37745 0.48209,0.49748 0.48209,0.31099 z m 17.95728,-6.18246 c -0.15578,-0.0629 -0.41069,-0.0629 -0.56647,0 -0.15578,0.0629 -0.0283,0.11429 0.28324,0.11429 0.31156,0 0.43901,-0.0514 0.28323,-0.11429 z m 2.60107,0.0132 c -0.0753,-0.0753 -0.27073,-0.0833 -0.4343,-0.0179 -0.18075,0.0723 -0.12706,0.12603 0.1369,0.1369 0.23887,0.01 0.3727,-0.0437 0.2974,-0.11901 z m -24.24809,-1.84577 c -0.0519,-0.34272 -0.0944,-0.0623 -0.0944,0.62312 0,0.68544 0.0425,0.96585 0.0944,0.62313 0.0519,-0.34272 0.0519,-0.90353 0,-1.24625 z m 41.24237,0.0331 c -0.0753,-0.0753 -0.27073,-0.0833 -0.4343,-0.0179 -0.18076,0.0723 -0.12706,0.12602 0.1369,0.1369 0.23887,0.01 0.3727,-0.0437 0.2974,-0.11901 z m 3.74778,-0.0117 c -0.15341,-0.0621 -0.45931,-0.0659 -0.67977,-0.008 -0.22047,0.0574 -0.0949,0.10823 0.27892,0.11285 0.37387,0.005 0.55426,-0.0424 0.40085,-0.10445 z m -29.29112,-0.60494 c 0,-0.0406 -0.28041,-0.321 -0.62313,-0.62313 l -0.62312,-0.54932 0.54933,0.62312 c 0.51342,0.5824 0.69692,0.72703 0.69692,0.54933 z m 37.06178,-2.92853 0.66552,-0.73642 -0.73642,0.66552 c -0.40503,0.36603 -0.73642,0.69742 -0.73642,0.73642 0,0.17505 0.18696,0.0209 0.80732,-0.66552 z m -38.94084,-1.5836 c -0.0542,-0.28186 -0.1006,-0.10461 -0.10311,0.39389 -0.003,0.4985 0.0418,0.72911 0.0985,0.51247 0.0567,-0.21664 0.0588,-0.6245 0.005,-0.90636 z m 20.26178,-3.51479 c 0.28185,-0.35939 0.27384,-0.3674 -0.0856,-0.0856 -0.37744,0.29601 -0.49747,0.48208 -0.31098,0.48208 0.0471,0 0.22549,-0.17844 0.39653,-0.39653 z M 395.008,293.41902 c -0.15341,-0.0621 -0.4593,-0.0659 -0.67977,-0.008 -0.22047,0.0575 -0.095,0.10824 0.27893,0.11286 0.37387,0.005 0.55425,-0.0424 0.40084,-0.10446 z m -4.42754,-0.21486 c -0.0753,-0.0753 -0.27073,-0.0833 -0.4343,-0.0179 -0.18076,0.0723 -0.12707,0.12603 0.1369,0.1369 0.23886,0.01 0.37269,-0.0437 0.2974,-0.11901 z m 6.24026,-0.0117 c -0.1534,-0.0621 -0.4593,-0.0659 -0.67977,-0.008 -0.22046,0.0575 -0.0949,0.10824 0.27893,0.11286 0.37387,0.005 0.55425,-0.0424 0.40084,-0.10446 z m 70.57287,-1.94327 c -0.0504,-0.40727 -0.0927,-0.12869 -0.094,0.61906 -0.001,0.74775 0.04,1.08096 0.0917,0.74048 0.0517,-0.34049 0.0527,-0.95228 0.002,-1.35954 z m -19.67234,0.58021 c 0.38562,-0.58217 0.69944,-1.16848 0.69739,-1.30289 -0.002,-0.13442 -0.25104,0.16347 -0.55331,0.66197 -0.30228,0.4985 -0.66107,1.0848 -0.79732,1.30289 -0.55114,0.88224 10e-4,0.32268 0.65324,-0.66197 z m -18.98334,-0.0178 c 0.28185,-0.35938 0.27384,-0.3674 -0.0856,-0.0856 -0.21809,0.17104 -0.39653,0.34948 -0.39653,0.39654 0,0.18649 0.18607,0.0665 0.48208,-0.31099 z m -26.31339,-0.28323 c 0.18694,-0.12081 0.23792,-0.21966 0.1133,-0.21966 -0.12463,0 -0.37954,0.0989 -0.56648,0.21966 -0.18693,0.1208 -0.23792,0.21965 -0.11329,0.21965 0.12462,0 0.37954,-0.0989 0.56647,-0.21965 z m 27.54499,-1.1896 0.66552,-0.73642 -0.73642,0.66551 c -0.40503,0.36604 -0.73642,0.69743 -0.73642,0.73642 0,0.17506 0.18697,0.0209 0.80732,-0.66551 z m 37.18806,-0.66561 c -0.0723,-0.18076 -0.12603,-0.12707 -0.1369,0.1369 -0.01,0.23886 0.0437,0.37269 0.11901,0.2974 0.0753,-0.0753 0.0833,-0.27073 0.0179,-0.4343 z m -35.92716,-0.35405 c 0.28184,-0.35939 0.27383,-0.3674 -0.0856,-0.0856 -0.37745,0.29601 -0.49748,0.48208 -0.31099,0.48208 0.0471,0 0.22549,-0.17844 0.39654,-0.39653 z M 417.0811,287.8604 c -0.0723,-0.18075 -0.12603,-0.12706 -0.1369,0.1369 -0.01,0.23887 0.0437,0.3727 0.11901,0.2974 0.0753,-0.0753 0.0833,-0.27073 0.0179,-0.4343 z m 19.78466,-1.09771 c 0.56109,-0.11273 1.27507,-0.24729 1.58663,-0.29901 0.31157,-0.0517 -0.0156,-0.057 -0.72711,-0.0116 -0.71147,0.0453 -1.62916,0.23886 -2.03931,0.43007 -0.41015,0.19121 -0.54202,0.28869 -0.29305,0.21661 0.24897,-0.0721 0.91175,-0.22329 1.47284,-0.33603 z m -26.73716,-0.33264 c 0.29269,-0.31156 0.48119,-0.56647 0.41888,-0.56647 -0.0623,0 -0.35278,0.25491 -0.64547,0.56647 -0.2927,0.31156 -0.4812,0.56648 -0.41888,0.56648 0.0623,0 0.35277,-0.25492 0.64547,-0.56648 z m -28.3956,-0.15578 c -0.0723,-0.18076 -0.12603,-0.12707 -0.1369,0.1369 -0.01,0.23886 0.0437,0.37269 0.11901,0.2974 0.0753,-0.0753 0.0833,-0.27073 0.0179,-0.4343 z m 61.31216,0.12045 c -0.15341,-0.0621 -0.4593,-0.0659 -0.67977,-0.008 -0.22046,0.0574 -0.0949,0.10824 0.27893,0.11285 0.37387,0.005 0.55425,-0.0424 0.40084,-0.10445 z m -79.36759,-0.63181 c 0.18693,-0.0403 -0.83272,-0.078 -2.26591,-0.0837 -1.43318,-0.006 -2.4095,0.0665 -2.16959,0.16053 0.39663,0.1554 3.61802,0.0996 4.4355,-0.0768 z m 3.49192,-0.54637 c 0.0659,-0.10662 -0.13202,-0.14572 -0.43981,-0.0869 -0.30779,0.0588 -0.55962,0.14607 -0.55962,0.19386 0,0.17532 0.8834,0.0808 0.99943,-0.10698 z m 15.34398,-0.42927 c 0.28185,-0.35938 0.27384,-0.3674 -0.0856,-0.0855 -0.37744,0.29601 -0.49747,0.48208 -0.31098,0.48208 0.0471,0 0.22549,-0.17844 0.39653,-0.39653 z m 29.00357,0 c 0.28185,-0.35938 0.27384,-0.3674 -0.0856,-0.0855 -0.37744,0.29601 -0.49747,0.48208 -0.31098,0.48208 0.047,0 0.22549,-0.17844 0.39653,-0.39653 z m -25.01521,-0.64673 c -0.0753,-0.0753 -0.27073,-0.0833 -0.4343,-0.0179 -0.18076,0.0723 -0.12707,0.12602 0.1369,0.13689 0.23886,0.01 0.37269,-0.0437 0.2974,-0.11901 z m -1.35954,-0.22659 c -0.0753,-0.0753 -0.27073,-0.0833 -0.4343,-0.0179 -0.18076,0.0723 -0.12707,0.12602 0.1369,0.13689 0.23886,0.01 0.37269,-0.0437 0.2974,-0.11901 z m 8.02093,-2.29894 c 0.28185,-0.35939 0.27384,-0.3674 -0.0856,-0.0856 -0.37744,0.29601 -0.49747,0.48208 -0.31098,0.48208 0.0471,0 0.22549,-0.17844 0.39653,-0.39653 z m -43.53426,-0.36879 c 0,-0.0471 -0.17844,-0.22549 -0.39653,-0.39654 -0.35938,-0.28184 -0.3674,-0.27383 -0.0856,0.0856 0.29601,0.37744 0.48208,0.49747 0.48208,0.31098 z m 25.27909,-1.10405 0.66551,-0.73642 -0.73642,0.66552 c -0.40503,0.36603 -0.73641,0.69742 -0.73641,0.73642 0,0.17505 0.18696,0.0209 0.80732,-0.66552 z m -26.41204,0.20506 c 0,-0.043 -0.22942,-0.27242 -0.50983,-0.50983 l -0.50982,-0.43165 0.43165,0.50983 c 0.40564,0.47911 0.588,0.61298 0.588,0.43165 z m 117.26053,-2.18773 c 0.22556,-0.24925 0.35914,-0.45318 0.29682,-0.45318 -0.0623,0 -0.29785,0.20393 -0.52341,0.45318 -0.22557,0.24925 -0.35914,0.45318 -0.29683,0.45318 0.0623,0 0.29785,-0.20393 0.52342,-0.45318 z m -119.29984,0.14842 c 0,-0.043 -0.22942,-0.27242 -0.50983,-0.50983 l -0.50983,-0.43165 0.43165,0.50983 c 0.40565,0.47911 0.58801,0.61298 0.58801,0.43165 z m 123.32493,-1.44087 c -0.27869,-0.0538 -0.78852,-0.0552 -1.13295,-0.003 -0.34443,0.0521 -0.11641,0.0961 0.50671,0.0978 0.62313,0.002 0.90493,-0.0409 0.62624,-0.0947 z M 395.78707,275.613 c -0.0542,-0.28186 -0.1006,-0.1046 -0.10312,0.39389 -0.003,0.4985 0.0418,0.72911 0.0986,0.51247 0.0567,-0.21664 0.0588,-0.6245 0.005,-0.90636 z m 84.84004,-0.79571 c 0.28185,-0.35938 0.27383,-0.36739 -0.0856,-0.0856 -0.37744,0.29602 -0.49748,0.48209 -0.31098,0.48209 0.0471,0 0.22549,-0.17844 0.39653,-0.39654 z m 1.35954,-1.35954 c 0.28185,-0.35938 0.27384,-0.3674 -0.0856,-0.0855 -0.37744,0.29601 -0.49747,0.48209 -0.31098,0.48209 0.0471,0 0.22549,-0.17844 0.39653,-0.39654 z m -87.71938,-1.94754 c 0,-0.043 -0.22942,-0.27242 -0.50983,-0.50983 l -0.50983,-0.43165 0.43166,0.50982 c 0.40564,0.47912 0.588,0.61299 0.588,0.43166 z m -12.20698,-1.6779 c 0.28185,-0.35939 0.27384,-0.3674 -0.0856,-0.0856 -0.21809,0.17104 -0.39653,0.34948 -0.39653,0.39653 0,0.18649 0.18607,0.0665 0.48208,-0.31098 z m 47.38514,-1.79285 c -0.15578,-0.0629 -0.4107,-0.0629 -0.56648,0 -0.15578,0.0629 -0.0283,0.11429 0.28324,0.11429 0.31156,0 0.43902,-0.0514 0.28324,-0.11429 z m -4.13528,-0.83447 c 0,-0.043 -0.22942,-0.27242 -0.50983,-0.50983 l -0.50982,-0.43165 0.43165,0.50983 c 0.40564,0.47911 0.588,0.61298 0.588,0.43165 z m 7.81737,-0.82819 c 0.22557,-0.24925 0.35914,-0.45318 0.29683,-0.45318 -0.0623,0 -0.29785,0.20393 -0.52342,0.45318 -0.22557,0.24925 -0.35914,0.45318 -0.29683,0.45318 0.0623,0 0.29785,-0.20393 0.52342,-0.45318 z m 25.74691,-0.62312 c 0.28185,-0.35939 0.27384,-0.3674 -0.0856,-0.0855 -0.37744,0.29601 -0.49747,0.48208 -0.31098,0.48208 0.0471,0 0.22549,-0.17844 0.39653,-0.39653 z m -11.47171,-2.54914 c 0.22556,-0.24925 0.35914,-0.45318 0.29682,-0.45318 -0.0623,0 -0.29785,0.20393 -0.52342,0.45318 -0.22556,0.24925 -0.35914,0.45318 -0.29682,0.45318 0.0623,0 0.29785,-0.20393 0.52342,-0.45318 z m -24.20228,-0.84972 c -0.057,-0.21809 -0.10362,-0.0396 -0.10362,0.39654 0,0.43618 0.0466,0.61462 0.10362,0.39653 0.057,-0.21809 0.057,-0.57497 0,-0.79307 z m -83.61326,-2.36503 c -0.0723,-0.18076 -0.12602,-0.12707 -0.13689,0.1369 -0.01,0.23886 0.0437,0.37269 0.11901,0.29739 0.0753,-0.0753 0.0833,-0.27072 0.0179,-0.43429 z m 115.8884,-0.58064 c 0.28185,-0.35939 0.27383,-0.3674 -0.0855,-0.0856 -0.37745,0.29601 -0.49748,0.48208 -0.31099,0.48208 0.0471,0 0.2255,-0.17844 0.39654,-0.39653 z m 48.46144,-0.28324 c 0.43618,-0.2388 0.70988,-0.43846 0.60822,-0.44368 -0.10166,-0.005 -0.40756,0.11409 -0.67977,0.26514 -0.27221,0.15105 -1.00476,0.34062 -1.62788,0.42127 l -1.13295,0.14664 1.01965,0.0224 c 0.61547,0.0135 1.33403,-0.1497 1.81273,-0.41178 z m 1.47283,-0.90636 c 0.22557,-0.24925 0.35914,-0.45318 0.29683,-0.45318 -0.0623,0 -0.29785,0.20393 -0.52342,0.45318 -0.22556,0.24925 -0.35914,0.45318 -0.29682,0.45318 0.0623,0 0.29785,-0.20393 0.52341,-0.45318 z m -165.6008,-0.50983 c -0.0629,-0.15578 -0.11429,-0.0283 -0.11429,0.28324 0,0.31156 0.0514,0.43902 0.11429,0.28324 0.0629,-0.15578 0.0629,-0.4107 0,-0.56648 z m 83.61658,-0.21243 c -0.0723,-0.18076 -0.12603,-0.12706 -0.1369,0.1369 -0.01,0.23886 0.0437,0.37269 0.11901,0.2974 0.0753,-0.0753 0.0833,-0.27073 0.0179,-0.4343 z m 69.12522,-0.57299 c -0.34272,-0.0519 -0.90353,-0.0519 -1.24625,0 -0.34272,0.0519 -0.0623,0.0944 0.62313,0.0944 0.68543,0 0.96584,-0.0425 0.62312,-0.0944 z m -36.42441,-2.86893 c 0,-0.0471 -0.17843,-0.22549 -0.39653,-0.39653 -0.35938,-0.28185 -0.3674,-0.27384 -0.0856,0.0856 0.29601,0.37744 0.48208,0.49747 0.48208,0.31098 z m 10.12701,-0.98644 c -0.0574,-0.22046 -0.10824,-0.0949 -0.11285,0.27893 -0.005,0.37387 0.0424,0.55425 0.10445,0.40084 0.0621,-0.15341 0.0659,-0.4593 0.008,-0.67977 z m -17.89245,-1.5574 c -0.0753,-0.0753 -0.27072,-0.0833 -0.43429,-0.0179 -0.18076,0.0723 -0.12707,0.12603 0.13689,0.1369 0.23887,0.01 0.3727,-0.0437 0.2974,-0.11901 z m 58.89835,-1.50588 c -0.0629,-0.15578 -0.11429,-0.0283 -0.11429,0.28324 0,0.31156 0.0514,0.43901 0.11429,0.28323 0.0629,-0.15578 0.0629,-0.41069 0,-0.56647 z m -167.21899,0.0142 c -0.0723,-0.18076 -0.12602,-0.12707 -0.13689,0.1369 -0.01,0.23886 0.0437,0.37269 0.11901,0.2974 0.0753,-0.0753 0.0833,-0.27073 0.0179,-0.4343 z m 165.02961,-5.46453 c 0,-0.0379 -0.38237,-0.42024 -0.84972,-0.84971 l -0.84971,-0.78087 0.78087,0.84971 c 0.72681,0.7909 0.91856,0.9539 0.91856,0.78087 z m -130.35084,-0.52123 c -0.0753,-0.0753 -0.27073,-0.0833 -0.4343,-0.0179 -0.18076,0.0723 -0.12707,0.12602 0.1369,0.1369 0.23886,0.01 0.37269,-0.0437 0.2974,-0.11901 z m -4.84875,-1.73248 c -0.25151,-0.2804 -0.62617,-0.76193 -0.83256,-1.07007 -0.2064,-0.30813 -0.37526,-0.45882 -0.37526,-0.33486 0,0.25815 1.32271,1.91476 1.52883,1.91476 0.075,0 -0.0695,-0.22942 -0.32101,-0.50983 z m 49.09524,-0.25549 c 0,-0.047 -0.17844,-0.22549 -0.39653,-0.39653 -0.35939,-0.28185 -0.3674,-0.27384 -0.0856,0.0855 0.29601,0.37744 0.48208,0.49747 0.48208,0.31098 z m -82.4789,-0.6724 c 0,-0.043 -0.22942,-0.27242 -0.50983,-0.50982 l -0.50983,-0.43166 0.43166,0.50983 c 0.40564,0.47912 0.588,0.61298 0.588,0.43165 z m 155.83282,-0.5119 c -0.0753,-0.0753 -0.27073,-0.0833 -0.4343,-0.0179 -0.18076,0.0723 -0.12707,0.12603 0.1369,0.1369 0.23886,0.01 0.37269,-0.0437 0.2974,-0.11901 z m 3.85203,-0.22659 c -0.0753,-0.0753 -0.27072,-0.0833 -0.43429,-0.0179 -0.18076,0.0723 -0.12707,0.12603 0.1369,0.1369 0.23886,0.01 0.37269,-0.0437 0.29739,-0.11901 z m 1.58614,0 c -0.0753,-0.0753 -0.27073,-0.0833 -0.4343,-0.0179 -0.18076,0.0723 -0.12707,0.12603 0.1369,0.1369 0.23886,0.01 0.37269,-0.0437 0.2974,-0.11901 z m -129.29408,-0.69582 c -0.26712,-0.45935 -0.33162,-0.31232 -0.11297,0.25748 0.0777,0.20251 0.18902,0.32046 0.24736,0.26212 0.0583,-0.0583 -0.002,-0.29216 -0.13439,-0.5196 z m 48.68927,0.30136 c 0,-0.043 -0.22942,-0.27242 -0.50983,-0.50983 l -0.50983,-0.43165 0.43165,0.50983 c 0.40565,0.47911 0.58801,0.61298 0.58801,0.43165 z m -82.02572,-0.23396 c 0,-0.047 -0.17844,-0.22549 -0.39653,-0.39653 -0.35939,-0.28185 -0.3674,-0.27384 -0.0856,0.0855 0.29601,0.37744 0.48208,0.49747 0.48208,0.31098 z m -36.19781,-0.53354 c -0.52966,-0.0477 -1.39637,-0.0477 -1.92602,0 -0.52966,0.0477 -0.0963,0.0867 0.96301,0.0867 1.05931,0 1.49266,-0.039 0.96301,-0.0867 z m -7.85563,-0.71069 c -0.0669,-0.10826 -0.50627,-0.26066 -0.97638,-0.33867 -0.4701,-0.078 -1.39005,-0.39261 -2.04433,-0.69911 -0.65428,-0.3065 -1.1896,-0.51269 -1.1896,-0.45821 0,0.21961 2.37464,1.28349 3.25271,1.45728 0.51657,0.10224 0.97072,0.19706 1.00923,0.21071 0.0385,0.0137 0.0153,-0.0637 -0.0516,-0.172 z m 192.17175,-2.33815 c -0.0723,-0.18076 -0.12603,-0.12707 -0.1369,0.1369 -0.01,0.23886 0.0437,0.37269 0.11901,0.2974 0.0753,-0.0753 0.0833,-0.27073 0.0179,-0.4343 z M 312.58743,235.8309 c -0.0698,-0.0698 -0.2526,-1.4e-4 -0.4063,0.15471 -0.22212,0.22379 -0.1961,0.24982 0.12684,0.12685 0.22347,-0.0851 0.34923,-0.21179 0.27946,-0.28156 z m -28.32979,-0.31055 c -0.37388,-0.26346 -1.52099,-1.33837 -2.54914,-2.3887 -1.02816,-1.05032 -1.86937,-1.84361 -1.86937,-1.76288 0,0.4499 4.49201,4.6597 4.94868,4.63778 0.0823,-0.004 -0.1563,-0.22274 -0.53017,-0.4862 z m 31.26947,-0.32319 c 1.18091,-0.27709 1.22557,-0.30489 0.33989,-0.21161 -0.56081,0.0591 -1.47851,0.262 -2.03932,0.45096 -1.07567,0.36244 -0.54948,0.28833 1.69943,-0.23935 z m 167.48707,-0.14644 c -0.0629,-0.15578 -0.11429,-0.0283 -0.11429,0.28324 0,0.31156 0.0514,0.43902 0.11429,0.28324 0.0629,-0.15578 0.0629,-0.4107 0,-0.56648 z m -66.51215,-0.33988 c 0.28185,-0.35939 0.27383,-0.3674 -0.0856,-0.0856 -0.37744,0.29601 -0.49747,0.48208 -0.31098,0.48208 0.0471,0 0.22549,-0.17844 0.39653,-0.39653 z m -98.42578,0.0137 c -0.21809,-0.057 -0.57497,-0.057 -0.79306,0 -0.2181,0.057 -0.0397,0.10362 0.39653,0.10362 0.43619,0 0.61463,-0.0466 0.39653,-0.10362 z m 6.33981,-0.2073 c -0.0753,-0.0753 -0.27073,-0.0833 -0.4343,-0.0179 -0.18075,0.0723 -0.12706,0.12603 0.1369,0.1369 0.23887,0.01 0.3727,-0.0437 0.2974,-0.11901 z m -1.69039,-0.23832 c -0.15341,-0.0621 -0.45931,-0.0659 -0.67977,-0.008 -0.22047,0.0574 -0.095,0.10824 0.27892,0.11286 0.37388,0.005 0.55426,-0.0424 0.40085,-0.10446 z m 160.5151,-0.81438 c -0.0629,-0.15578 -0.11429,-0.0283 -0.11429,0.28324 0,0.31156 0.0514,0.43902 0.11429,0.28324 0.0629,-0.15578 0.0629,-0.4107 0,-0.56648 z m -21.06068,-1.69943 c -0.0519,-0.34272 -0.0944,-0.0623 -0.0944,0.62313 0,0.68543 0.0425,0.96584 0.0944,0.62312 0.0519,-0.34272 0.0519,-0.90353 0,-1.24625 z m -42.5347,0.28324 c 0.42277,-0.43619 0.71769,-0.79307 0.65538,-0.79307 -0.0623,0 -0.4592,0.35688 -0.88197,0.79307 -0.42277,0.43619 -0.71768,0.79307 -0.65537,0.79307 0.0623,0 0.45919,-0.35688 0.88196,-0.79307 z m -50.82805,-1.06214 c -0.0723,-0.18076 -0.12602,-0.12707 -0.13689,0.1369 -0.01,0.23886 0.0437,0.37269 0.119,0.2974 0.0753,-0.0753 0.0833,-0.27073 0.0179,-0.4343 z m 53.67469,-1.6003 0.66551,-0.73642 -0.73641,0.66552 c -0.68645,0.62036 -0.84058,0.80732 -0.66552,0.80732 0.039,0 0.37038,-0.33139 0.73642,-0.73642 z m 39.90242,-1.81272 c -0.0629,-0.15578 -0.11429,-0.0283 -0.11429,0.28324 0,0.31156 0.0514,0.43902 0.11429,0.28324 0.0629,-0.15578 0.0629,-0.4107 0,-0.56648 z m -37.73517,-0.1133 c 0.28185,-0.35938 0.27384,-0.36739 -0.0856,-0.0856 -0.21809,0.17104 -0.39653,0.34948 -0.39653,0.39654 0,0.18649 0.18607,0.0665 0.48208,-0.31099 z m -55.8397,-1.12863 c -0.0574,-0.22047 -0.10823,-0.0949 -0.11285,0.27892 -0.005,0.37388 0.0424,0.55426 0.10446,0.40085 0.0621,-0.15341 0.0658,-0.45931 0.008,-0.67977 z m 133.13908,0.47018 c -0.15341,-0.0621 -0.4593,-0.0658 -0.67977,-0.008 -0.22046,0.0575 -0.0949,0.10824 0.27893,0.11285 0.37387,0.005 0.55425,-0.0424 0.40084,-0.10445 z m -75.62885,-0.75774 c 0.22557,-0.24924 0.35914,-0.45318 0.29683,-0.45318 -0.0623,0 -0.29785,0.20394 -0.52342,0.45318 -0.22557,0.24925 -0.35914,0.45319 -0.29683,0.45319 0.0623,0 0.29785,-0.20394 0.52342,-0.45319 z m 36.29736,-1.0763 c -0.057,-0.21809 -0.10362,-0.0396 -0.10362,0.39653 0,0.43619 0.0466,0.61463 0.10362,0.39654 0.057,-0.2181 0.057,-0.57498 0,-0.79307 z m 28.22425,0.92624 c -0.15578,-0.0629 -0.41069,-0.0629 -0.56647,0 -0.15579,0.0629 -0.0283,0.11429 0.28323,0.11429 0.31157,0 0.43902,-0.0514 0.28324,-0.11429 z m 3.50743,0.0132 c -0.0753,-0.0753 -0.27073,-0.0834 -0.4343,-0.0179 -0.18075,0.0723 -0.12706,0.12602 0.1369,0.1369 0.23887,0.01 0.3727,-0.0437 0.2974,-0.11901 z m -31.5065,-1.9449 c -0.0723,-0.18076 -0.12602,-0.12707 -0.1369,0.13689 -0.01,0.23887 0.0437,0.3727 0.11901,0.2974 0.0753,-0.0753 0.0833,-0.27072 0.0179,-0.43429 z m -33.69016,-0.75058 c 0.2927,-0.31157 0.48119,-0.56648 0.41888,-0.56648 -0.0623,0 -0.35277,0.25491 -0.64547,0.56648 -0.2927,0.31156 -0.48119,0.56647 -0.41888,0.56647 0.0623,0 0.35277,-0.25491 0.64547,-0.56647 z m -151.43418,-0.60897 c -0.0723,-0.18076 -0.12603,-0.12706 -0.1369,0.1369 -0.01,0.23887 0.0437,0.3727 0.11901,0.2974 0.0753,-0.0753 0.0833,-0.27073 0.0179,-0.4343 z m 241.95704,-1.99682 c 1.11642,-1.12163 1.97888,-2.03932 1.91657,-2.03932 -0.0623,0 -1.02674,0.91769 -2.14316,2.03932 -1.11643,1.12162 -1.97888,2.03931 -1.91657,2.03931 0.0623,0 1.02673,-0.91769 2.14316,-2.03931 z m -122.54391,0.63728 c -0.0723,-0.18076 -0.12602,-0.12707 -0.1369,0.1369 -0.01,0.23886 0.0437,0.37269 0.11901,0.2974 0.0753,-0.0753 0.0833,-0.27073 0.0179,-0.4343 z m 33.63608,0.0991 c 0.28185,-0.35938 0.27384,-0.3674 -0.0856,-0.0856 -0.21809,0.17104 -0.39653,0.34948 -0.39653,0.39654 0,0.18649 0.18607,0.0665 0.48208,-0.31099 z m -152.82038,-0.90204 c -0.0575,-0.22047 -0.10824,-0.095 -0.11285,0.27892 -0.005,0.37388 0.0424,0.55426 0.10445,0.40085 0.0621,-0.15341 0.0659,-0.45931 0.008,-0.67977 z m 154.37761,-0.85403 c 0.42277,-0.43619 0.71769,-0.79307 0.65538,-0.79307 -0.0623,0 -0.4592,0.35688 -0.88197,0.79307 -0.42276,0.43619 -0.71768,0.79307 -0.65537,0.79307 0.0623,0 0.4592,-0.35688 0.88196,-0.79307 z m -34.96125,-1.07366 c -0.0542,-0.28186 -0.1006,-0.10461 -0.10311,0.39389 -0.003,0.4985 0.0418,0.72911 0.0985,0.51247 0.0567,-0.21664 0.0588,-0.6245 0.005,-0.90636 z m -118.54527,-1.93909 c -0.12664,-0.12663 -0.80199,2.06034 -0.78538,2.54329 0.009,0.2582 0.20514,-0.19248 0.43615,-1.00152 0.23101,-0.80904 0.38816,-1.50284 0.34923,-1.54177 z m 134.36563,-0.002 c -0.0698,-0.0698 -0.2526,-1.4e-4 -0.4063,0.15471 -0.22212,0.22379 -0.19609,0.24981 0.12684,0.12685 0.22347,-0.0851 0.34923,-0.2118 0.27946,-0.28156 z m -131.25532,-5.76572 c 0.55283,-0.7786 1.12926,-1.67055 1.28095,-1.98211 l 0.2758,-0.56648 -0.4777,0.56648 c -0.86997,1.03166 -2.20042,3.04187 -2.80691,4.24103 -0.80297,1.58764 -0.7551,1.83714 0.0665,0.34687 0.36089,-0.65459 1.10849,-1.82719 1.66132,-2.60579 z m 139.0667,1.53004 c 0.29269,-0.31157 0.48119,-0.56648 0.41888,-0.56648 -0.0623,0 -0.35278,0.25491 -0.64548,0.56648 -0.29269,0.31156 -0.48119,0.56647 -0.41888,0.56647 0.0623,0 0.35278,-0.25491 0.64548,-0.56647 z m -57.32737,-1.55839 c 0,-0.0471 -0.17844,-0.22549 -0.39654,-0.39653 -0.35938,-0.28185 -0.36739,-0.27384 -0.0856,0.0856 0.29602,0.37744 0.48209,0.49747 0.48209,0.31098 z m 59.62217,-0.99076 c 0.28185,-0.35938 0.27384,-0.36739 -0.0856,-0.0856 -0.21809,0.17105 -0.39653,0.34949 -0.39653,0.39654 0,0.18649 0.18607,0.0665 0.48208,-0.31099 z m 87.94482,-0.88648 c -0.15578,-0.0629 -0.4107,-0.0629 -0.56648,0 -0.15578,0.0629 -0.0283,0.11429 0.28324,0.11429 0.31156,0 0.43902,-0.0514 0.28324,-0.11429 z m -149.60631,-0.38129 c 0,-0.043 -0.22942,-0.27242 -0.50982,-0.50983 l -0.50983,-0.43165 0.43165,0.50983 c 0.40565,0.47911 0.588,0.61298 0.588,0.43165 z m 164.4281,-1.33801 c -0.0629,-0.15579 -0.11429,-0.0283 -0.11429,0.28323 0,0.31157 0.0514,0.43902 0.11429,0.28324 0.0629,-0.15578 0.0629,-0.41069 0,-0.56647 z m -54.50286,0.11329 c 0.28185,-0.35938 0.27384,-0.3674 -0.0856,-0.0856 -0.37744,0.29601 -0.49747,0.48208 -0.31098,0.48208 0.047,0 0.22549,-0.17844 0.39653,-0.39653 z m -186.62608,-0.50983 c 0.22557,-0.24925 0.35914,-0.45318 0.29683,-0.45318 -0.0623,0 -0.29785,0.20393 -0.52342,0.45318 -0.22557,0.24925 -0.35914,0.45318 -0.29683,0.45318 0.0623,0 0.29785,-0.20393 0.52342,-0.45318 z m 234.08212,-1.1896 0.66552,-0.73642 -0.73642,0.66552 c -0.68645,0.62036 -0.84057,0.80732 -0.66552,0.80732 0.039,0 0.37039,-0.33139 0.73642,-0.73642 z m -232.94917,0.0566 c 0.22557,-0.24925 0.35914,-0.45318 0.29683,-0.45318 -0.0623,0 -0.29785,0.20393 -0.52342,0.45318 -0.22557,0.24925 -0.35914,0.45318 -0.29683,0.45318 0.0623,0 0.29785,-0.20393 0.52342,-0.45318 z m 1.27515,-1.0763 c 0.28185,-0.35939 0.27384,-0.3674 -0.0856,-0.0855 -0.37744,0.29601 -0.49747,0.48208 -0.31098,0.48208 0.0471,0 0.22549,-0.17844 0.39653,-0.39653 z m 238.72556,-0.32573 c -0.0723,-0.18076 -0.12603,-0.12706 -0.1369,0.1369 -0.01,0.23886 0.0437,0.37269 0.11901,0.2974 0.0753,-0.0753 0.0833,-0.27073 0.0179,-0.4343 z m -237.8192,-0.35405 c 0.28185,-0.35938 0.27384,-0.36739 -0.0856,-0.0855 -0.21809,0.17105 -0.39653,0.34949 -0.39653,0.39654 0,0.18649 0.18607,0.0665 0.48208,-0.31099 z m 0.90636,-0.67977 c 0.28185,-0.35938 0.27384,-0.3674 -0.0856,-0.0856 -0.21809,0.17104 -0.39653,0.34948 -0.39653,0.39654 0,0.18649 0.18607,0.0665 0.48208,-0.31099 z m 67.26845,0.0844 c 0,-0.0471 -0.17844,-0.2255 -0.39654,-0.39654 -0.35938,-0.28185 -0.3674,-0.27383 -0.0856,0.0855 0.29601,0.37745 0.48209,0.49748 0.48209,0.31099 z m 84.66828,-1.33064 c -0.0629,-0.15578 -0.11429,-0.0283 -0.11429,0.28323 0,0.31157 0.0514,0.43902 0.11429,0.28324 0.0628,-0.15578 0.0628,-0.41069 0,-0.56647 z m -147.75751,-1.24893 c -0.10179,-0.1018 -2.3954,1.04111 -2.3954,1.19363 0,0.0589 0.55797,-0.16663 1.23992,-0.50109 0.68195,-0.33446 1.20192,-0.64611 1.15548,-0.69254 z m 61.50309,1.22002 c 0,-0.0471 -0.17844,-0.22549 -0.39653,-0.39653 -0.35939,-0.28185 -0.3674,-0.27383 -0.0856,0.0856 0.29601,0.37744 0.48208,0.49748 0.48208,0.31098 z m 62.92033,-1.08988 c -0.0723,-0.18076 -0.12603,-0.12707 -0.1369,0.1369 -0.01,0.23886 0.0437,0.37269 0.11901,0.29739 0.0753,-0.0753 0.0833,-0.27072 0.0179,-0.43429 z m 106.40365,0.34703 c -0.15341,-0.0621 -0.45931,-0.0658 -0.67977,-0.008 -0.22047,0.0574 -0.0949,0.10823 0.27892,0.11285 0.37388,0.005 0.55426,-0.0424 0.40085,-0.10446 z m -38.64269,-0.21486 c -0.0753,-0.0753 -0.27073,-0.0833 -0.4343,-0.0179 -0.18076,0.0723 -0.12707,0.12602 0.1369,0.13689 0.23886,0.01 0.37269,-0.0437 0.2974,-0.11901 z m 2.49985,-0.24537 c -0.21664,-0.0567 -0.6245,-0.0588 -0.90636,-0.005 -0.28186,0.0542 -0.10461,0.10061 0.39389,0.10312 0.4985,0.003 0.72911,-0.0418 0.51247,-0.0985 z m -188.54681,-2.87332 c 0.64275,-0.31751 1.45847,-0.64474 1.81273,-0.72719 0.52795,-0.12288 3.95361,-1.50543 5.85567,-2.36327 0.24925,-0.11241 1.06497,-0.45977 1.81272,-0.7719 0.74775,-0.31213 1.25758,-0.57059 1.13295,-0.57436 -0.40832,-0.0123 -2.37925,0.64273 -3.00913,1.00016 -0.33897,0.19234 -1.8399,0.76547 -3.3354,1.27361 -2.42493,0.82395 -8.25209,3.58328 -9.33207,4.41901 -0.38559,0.29839 2.44476,-0.96293 5.06253,-2.25606 z m 118.2874,0.59316 c -0.057,-0.2181 -0.10362,-0.0397 -0.10362,0.39653 0,0.43619 0.0466,0.61463 0.10362,0.39653 0.057,-0.21809 0.057,-0.57497 0,-0.79306 z m -29.61294,-4.67401 c 0,-0.0471 -0.17844,-0.22549 -0.39653,-0.39653 -0.35939,-0.28185 -0.3674,-0.27384 -0.0855,0.0856 0.29601,0.37744 0.48208,0.49747 0.48208,0.31098 z m -75.47348,-0.96665 c 0.22472,-0.1922 -1.03349,-0.0524 -1.34066,0.14899 -0.23913,0.15676 -0.10478,0.17966 0.45318,0.0773 0.43619,-0.08 0.83555,-0.18186 0.88748,-0.22627 z m 1.20848,-0.23082 c -0.15578,-0.0629 -0.41069,-0.0629 -0.56648,0 -0.15578,0.0629 -0.0283,0.11429 0.28324,0.11429 0.31156,0 0.43902,-0.0514 0.28324,-0.11429 z m 1.36386,-0.22515 c -0.15341,-0.0621 -0.45931,-0.0659 -0.67978,-0.008 -0.22046,0.0574 -0.0949,0.10824 0.27893,0.11285 0.37387,0.005 0.55425,-0.0424 0.40085,-0.10445 z m 4.98067,-0.68121 c -0.15578,-0.0629 -0.41069,-0.0629 -0.56647,0 -0.15579,0.0629 -0.0283,0.11429 0.28323,0.11429 0.31157,0 0.43902,-0.0514 0.28324,-0.11429 z m 2.26902,-0.23603 c -0.27869,-0.0538 -0.78852,-0.0552 -1.13295,-0.003 -0.34443,0.0521 -0.11641,0.0961 0.50671,0.0978 0.62313,0.002 0.90493,-0.0409 0.62624,-0.0947 z m 80.83301,-4.59889 c 0,-0.12463 -0.10799,-0.22659 -0.23997,-0.22659 -0.13198,0 -0.17694,0.10196 -0.0999,0.22659 0.077,0.12462 0.18501,0.22659 0.23996,0.22659 0.055,0 0.0999,-0.10197 0.0999,-0.22659 z m -5.43817,-7.0875 c 0,-0.0348 -0.68827,-0.72302 -1.52949,-1.52948 l -1.52948,-1.46629 1.46629,1.52948 c 1.36195,1.42065 1.59268,1.63307 1.59268,1.46629 z m -31.49607,-1.14793 c 0,-0.043 -0.22942,-0.27242 -0.50983,-0.50983 l -0.50982,-0.43165 0.43165,0.50983 c 0.40564,0.47911 0.588,0.61298 0.588,0.43165 z m 65.03144,-0.007 c 0,-0.0471 -0.17844,-0.22549 -0.39653,-0.39653 -0.35939,-0.28185 -0.3674,-0.27383 -0.0856,0.0856 0.29601,0.37744 0.48208,0.49748 0.48208,0.31098 z m -7.09386,-15.71481 c -0.0575,-0.22047 -0.10824,-0.095 -0.11286,0.27892 -0.005,0.37388 0.0424,0.55426 0.10446,0.40085 0.0621,-0.15341 0.0659,-0.45931 0.008,-0.67977 z m -6.56555,-2.04051 c -0.0521,-0.34443 -0.0961,-0.11641 -0.0978,0.50671 -0.002,0.62312 0.0409,0.90493 0.0947,0.62624 0.0538,-0.27869 0.0552,-0.78852 0.003,-1.13295 z m -19.72118,0.35093 c -0.0723,-0.18076 -0.12602,-0.12707 -0.1369,0.1369 -0.01,0.23886 0.0437,0.37269 0.11901,0.2974 0.0753,-0.0753 0.0833,-0.27073 0.0179,-0.4343 z m 27.02912,-0.97717 c 0,-0.12463 -0.0988,-0.0736 -0.21965,0.11329 -0.12081,0.18694 -0.21965,0.44186 -0.21965,0.56648 0,0.12462 0.0988,0.0736 0.21965,-0.1133 0.12081,-0.18693 0.21965,-0.44185 0.21965,-0.56647 z m -27.02912,-6.04713 c -0.0723,-0.18076 -0.12602,-0.12707 -0.1369,0.1369 -0.01,0.23886 0.0437,0.37269 0.11901,0.2974 0.0753,-0.0753 0.0833,-0.27073 0.0179,-0.4343 z m 28.11569,-3.92898 c -0.46551,-0.43281 -1.02632,-0.78461 -1.24624,-0.78178 -0.25119,0.003 -0.13235,0.13709 0.31963,0.36 0.39572,0.19515 0.89586,0.54971 1.11142,0.7879 0.21556,0.23819 0.4526,0.43032 0.52676,0.42695 0.0742,-0.003 -0.24605,-0.36025 -0.71157,-0.79307 z m -4.90276,-0.0505 c 0.28185,-0.35938 0.27383,-0.3674 -0.0856,-0.0855 -0.37744,0.29601 -0.49748,0.48209 -0.31098,0.48209 0.0471,0 0.22549,-0.17844 0.39653,-0.39654 z m -46.53921,-3.95773 c -0.0459,-0.65846 -0.084,-0.17754 -0.0846,1.06871 -5.9e-4,1.24624 0.037,1.78498 0.0835,1.19719 0.0465,-0.58779 0.047,-1.60744 10e-4,-2.2659 z m 49.40197,3.06563 c -0.21664,-0.0567 -0.6245,-0.0588 -0.90636,-0.005 -0.28186,0.0542 -0.1046,0.1006 0.39389,0.10311 0.4985,0.003 0.72912,-0.0418 0.51247,-0.0985 z m -48.66986,-1.54374 c 0,-0.37527 -0.0378,-0.39475 -0.21965,-0.1133 -0.12081,0.18694 -0.21965,0.54382 -0.21965,0.79307 0,0.37526 0.0378,0.39474 0.21965,0.11329 0.12081,-0.18693 0.21965,-0.54381 0.21965,-0.79306 z m -38.28684,-1.58614 c 0.2927,-0.31156 0.4812,-0.56647 0.41888,-0.56647 -0.0623,0 -0.35277,0.25491 -0.64547,0.56647 -0.29269,0.31157 -0.48119,0.56648 -0.41888,0.56648 0.0623,0 0.35278,-0.25491 0.64547,-0.56648 z m 37.99538,-0.60896 c -0.0723,-0.18076 -0.12602,-0.12706 -0.13689,0.1369 -0.01,0.23887 0.0437,0.3727 0.11901,0.2974 0.0753,-0.0753 0.0833,-0.27073 0.0179,-0.4343 z m 33.30879,0 c -0.0723,-0.18076 -0.12602,-0.12706 -0.1369,0.1369 -0.01,0.23887 0.0437,0.3727 0.11901,0.2974 0.0753,-0.0753 0.0833,-0.27073 0.0179,-0.4343 z m -7.17909,-1.20376 c 0.2927,-0.31156 0.4812,-0.56647 0.41888,-0.56647 -0.0623,0 -0.35277,0.25491 -0.64547,0.56647 -0.2927,0.31156 -0.48119,0.56648 -0.41888,0.56648 0.0623,0 0.35277,-0.25492 0.64547,-0.56648 z m -62.28345,-0.0566 c 0.28185,-0.35938 0.27383,-0.3674 -0.0856,-0.0856 -0.21809,0.17104 -0.39653,0.34948 -0.39653,0.39654 0,0.18649 0.18607,0.0665 0.48208,-0.31099 z m 69.10928,-0.11707 c -0.22378,-0.22212 -0.24981,-0.19609 -0.12684,0.12685 0.0851,0.22346 0.21179,0.34922 0.28155,0.27946 0.0698,-0.0698 1.5e-4,-0.2526 -0.15471,-0.40631 z m 37.41594,-1.00585 c -0.2804,-0.054 -0.73925,-0.054 -1.01965,0 -0.28041,0.054 -0.051,0.0982 0.50983,0.0982 0.56081,0 0.79023,-0.0442 0.50982,-0.0982 z m 4.76272,0.0113 c -0.15341,-0.0621 -0.45931,-0.0659 -0.67978,-0.008 -0.22046,0.0575 -0.0949,0.10823 0.27893,0.11285 0.37387,0.005 0.55425,-0.0424 0.40085,-0.10445 z m -14.85104,-0.24333 c -0.47012,-0.049 -1.18388,-0.0482 -1.58613,0.002 -0.40225,0.05 -0.0176,0.0902 0.85476,0.0892 0.87238,-0.001 1.20149,-0.042 0.73137,-0.091 z m -44.91649,-0.51441 c 0.22557,-0.24925 0.35914,-0.45318 0.29683,-0.45318 -0.0623,0 -0.29785,0.20393 -0.52342,0.45318 -0.22557,0.24925 -0.35914,0.45318 -0.29683,0.45318 0.0623,0 0.29785,-0.20393 0.52342,-0.45318 z m 40.50303,0.30312 c -0.15578,-0.0629 -0.4107,-0.0629 -0.56648,0 -0.15578,0.0629 -0.0283,0.11429 0.28324,0.11429 0.31156,0 0.43902,-0.0514 0.28324,-0.11429 z m -2.8371,-0.44001 c -0.0753,-0.0753 -0.27073,-0.0833 -0.4343,-0.0179 -0.18076,0.0723 -0.12707,0.12602 0.1369,0.13689 0.23886,0.01 0.37269,-0.0437 0.2974,-0.119 z m 33.17247,-3.6585 c 0.28185,-0.35938 0.27383,-0.36739 -0.0856,-0.0856 -0.2181,0.17104 -0.39654,0.34948 -0.39654,0.39654 0,0.18649 0.18608,0.0665 0.48209,-0.31099 z m -125.44668,-0.73641 c 0.22556,-0.24925 0.35914,-0.45318 0.29682,-0.45318 -0.0623,0 -0.29785,0.20393 -0.52341,0.45318 -0.22557,0.24925 -0.35914,0.45318 -0.29683,0.45318 0.0623,0 0.29785,-0.20393 0.52342,-0.45318 z m 69.3933,-0.1562 c -0.21809,-0.057 -0.57497,-0.057 -0.79307,0 -0.21809,0.057 -0.0396,0.10363 0.39654,0.10363 0.43618,0 0.61462,-0.0466 0.39653,-0.10363 z m 1.35482,0.0193 c -0.0753,-0.0753 -0.27073,-0.0833 -0.4343,-0.0179 -0.18075,0.0723 -0.12706,0.12602 0.1369,0.1369 0.23887,0.01 0.3727,-0.0437 0.2974,-0.11901 z m -43.67057,-3.11348 c 0,-0.33809 -0.13697,-0.50455 -0.41517,-0.50455 -0.3579,0 -0.38304,0.0851 -0.18222,0.61716 0.26509,0.7023 0.59739,0.63966 0.59739,-0.11261 z m -13.28403,-0.81566 c -0.0536,-0.0554 -0.32398,0.13774 -0.60093,0.42917 l -0.50353,0.52988 0.60093,-0.42917 c 0.33051,-0.23605 0.5571,-0.47449 0.50353,-0.52988 z m 92.47737,0.66718 c -0.077,-0.12462 -0.26148,-0.22503 -0.40991,-0.22312 -0.16215,0.002 -0.1342,0.0911 0.07,0.22312 0.43531,0.28132 0.51375,0.28132 0.33989,0 z m 3.23155,0.0709 c -0.21664,-0.0567 -0.6245,-0.0588 -0.90636,-0.005 -0.28186,0.0542 -0.10461,0.1006 0.39389,0.10312 0.4985,0.003 0.72911,-0.0418 0.51247,-0.0985 z m -101.74172,-0.22709 c -0.2181,-0.057 -0.57498,-0.057 -0.79307,0 -0.21809,0.057 -0.0396,0.10362 0.39653,0.10362 0.43619,0 0.61463,-0.0466 0.39654,-0.10362 z m 16.758,-8.05507 c -0.0542,-0.28186 -0.1006,-0.10461 -0.10312,0.39389 -0.003,0.4985 0.0418,0.72911 0.0985,0.51247 0.0567,-0.21664 0.0588,-0.6245 0.005,-0.90636 z m 25.69995,0.56383 c 0.28185,-0.35938 0.27383,-0.36739 -0.0856,-0.0855 -0.21809,0.17104 -0.39653,0.34948 -0.39653,0.39654 0,0.18649 0.18607,0.0665 0.48208,-0.31099 z M 360.4335,121.9971 c -0.0723,-0.18076 -0.12603,-0.12706 -0.1369,0.1369 -0.01,0.23887 0.0437,0.3727 0.11901,0.2974 0.0753,-0.0753 0.0833,-0.27073 0.0179,-0.4343 z m 6.40939,-0.2974 c 0,-0.12462 -0.0988,-0.0736 -0.21965,0.1133 -0.12081,0.18694 -0.21965,0.44185 -0.21965,0.56647 0,0.12463 0.0988,0.0737 0.21965,-0.11329 0.12081,-0.18694 0.21965,-0.44185 0.21965,-0.56648 z m 17.25672,-0.0566 c 0.28184,-0.35939 0.27383,-0.3674 -0.0856,-0.0855 -0.21809,0.17104 -0.39653,0.34948 -0.39653,0.39653 0,0.18649 0.18607,0.0665 0.48209,-0.31098 z m 2.36455,-2.83238 0.66551,-0.73642 -0.73642,0.66551 c -0.68644,0.62036 -0.84057,0.80732 -0.66551,0.80732 0.039,0 0.37038,-0.33138 0.73642,-0.73641 z m 18.1649,-0.53344 c -0.0753,-0.0753 -0.27073,-0.0833 -0.4343,-0.0179 -0.18076,0.0723 -0.12707,0.12602 0.1369,0.13689 0.23886,0.01 0.37269,-0.0437 0.2974,-0.11901 z m 8.27958,-0.0117 c -0.15341,-0.0621 -0.4593,-0.0658 -0.67977,-0.008 -0.22046,0.0575 -0.0949,0.10823 0.27893,0.11285 0.37387,0.005 0.55425,-0.0424 0.40084,-0.10446 z m -2.7234,-0.24501 c -0.65428,-0.0458 -1.72491,-0.0458 -2.37919,0 -0.65428,0.0458 -0.11896,0.0832 1.18959,0.0832 1.30856,0 1.84388,-0.0375 1.1896,-0.0832 z m -40.36083,-0.90925 c 0.28185,-0.35939 0.27384,-0.3674 -0.0856,-0.0855 -0.21809,0.17104 -0.39653,0.34948 -0.39653,0.39653 0,0.18649 0.18607,0.0665 0.48208,-0.31098 z m 2.69018,-2.93621 c 0,-0.17014 -0.20344,0.01 -1.14242,1.01019 l -1.01019,1.0763 1.07631,-1.01018 c 0.59197,-0.55561 1.0763,-1.03994 1.0763,-1.07631 z m 17.02318,1.57667 c 0.28185,-0.35939 0.27384,-0.3674 -0.0856,-0.0855 -0.21809,0.17104 -0.39653,0.34948 -0.39653,0.39653 0,0.18649 0.18607,0.0665 0.48208,-0.31098 z m 1.13296,-0.90637 c 0.28185,-0.35938 0.27383,-0.3674 -0.0856,-0.0855 -0.2181,0.17104 -0.39654,0.34948 -0.39654,0.39654 0,0.18649 0.18608,0.0665 0.48209,-0.31099 z m 7.0243,-5.21157 c 0.28185,-0.35939 0.27383,-0.3674 -0.0855,-0.0855 -0.2181,0.17104 -0.39654,0.34948 -0.39654,0.39653 0,0.18649 0.18608,0.0665 0.48209,-0.31098 z m -49.76549,-1.41619 c 0.22556,-0.24925 0.35914,-0.45318 0.29682,-0.45318 -0.0623,0 -0.29785,0.20393 -0.52341,0.45318 -0.22557,0.24925 -0.35914,0.45318 -0.29683,0.45318 0.0623,0 0.29785,-0.20393 0.52342,-0.45318 z m 18.24052,-0.79307 c 0.42277,-0.43619 0.71769,-0.79307 0.65538,-0.79307 -0.0623,0 -0.4592,0.35688 -0.88197,0.79307 -0.42277,0.43619 -0.71769,0.79307 -0.65537,0.79307 0.0623,0 0.45919,-0.35688 0.88196,-0.79307 z m 23.05085,-1.60974 c -0.0753,-0.0753 -0.27073,-0.0833 -0.4343,-0.0179 -0.18075,0.0723 -0.12706,0.12603 0.1369,0.1369 0.23887,0.01 0.3727,-0.0437 0.2974,-0.11901 z m -19.62309,-1.39258 c 0.28185,-0.35939 0.27384,-0.3674 -0.0856,-0.0855 -0.37744,0.29601 -0.49747,0.48208 -0.31098,0.48208 0.0471,0 0.22549,-0.17844 0.39653,-0.39653 z m -16.76769,-1.13296 c 0.28185,-0.35938 0.27384,-0.36739 -0.0856,-0.0855 -0.21809,0.17105 -0.39653,0.34949 -0.39653,0.39654 0,0.18649 0.18607,0.0665 0.48208,-0.31099 z m 3.82314,-4.069152 c 0,-0.170144 -0.20344,0.0097 -1.14243,1.010182 l -1.01018,1.07631 1.0763,-1.01019 c 0.59197,-0.555601 1.07631,-1.039938 1.07631,-1.076302 z m 32.43132,-3.408326 c 0.28185,-0.359385 0.27384,-0.367399 -0.0856,-0.08555 -0.21809,0.17104 -0.39653,0.34948 -0.39653,0.396533 0,0.186492 0.18607,0.06646 0.48208,-0.310983 z m -19.00153,-2.47118 c -0.15341,-0.06207 -0.45931,-0.06585 -0.67977,-0.0084 -0.22047,0.05745 -0.095,0.108234 0.27892,0.112851 0.37388,0.0046 0.55426,-0.04239 0.40085,-0.104455 z m 2.48818,-0.237874 c -0.28041,-0.05401 -0.73925,-0.05401 -1.01966,0 -0.2804,0.05401 -0.051,0.0982 0.50983,0.0982 0.56081,0 0.79024,-0.04419 0.50983,-0.0982 z m 6.23124,-0.455565 c -0.34272,-0.05192 -0.90353,-0.05192 -1.24625,0 -0.34272,0.05192 -0.0623,0.0944 0.62312,0.0944 0.68544,0 0.96584,-0.04248 0.62313,-0.0944 z m 9.05889,-0.880963 c -0.0753,-0.07529 -0.27073,-0.08334 -0.4343,-0.01789 -0.18076,0.07233 -0.12706,0.126026 0.1369,0.136898 0.23887,0.0098 0.37269,-0.04372 0.2974,-0.119008 z"
       id="path2" /></g></svg>
