0
SECTION
2
HEADER
9
$INSUNITS
70
4
9
$ACADVER
1
AC1014
9
$HANDSEED
5
FFFF
0
ENDSEC
0
SECTION
2
TABLES
0
TABLE
2
VPORT
5
8
100
AcDbSymbolTable
0
ENDTAB
0
TABLE
2
LTYPE
5
5
100
AcDbSymbolTable
0
LTYPE
5
14
100
AcDbSymbolTableRecord
100
AcDbLinetypeTableRecord
2
BYBLOCK
70
0
0
LTYPE
5
15
100
AcDbSymbolTableRecord
100
AcDbLinetypeTableRecord
2
BYLAYER
70
0
0
ENDTAB
0
TABLE
2
LAYER
5
2
100
AcDbSymbolTable
70
2
0
LAYER
5
50
100
AcDbSymbolTableRecord
100
AcDbLayerTableRecord
2
0
70
0
6
CONTINUOUS
0
ENDTAB
0
TABLE
2
STYLE
5
3
100
AcDbSymbolTable
70
1
0
STYLE
5
11
100
AcDbSymbolTableRecord
100
AcDbTextStyleTableRecord
2
STANDARD
70
0
0
ENDTAB
0
TABLE
2
VIEW
5
6
100
AcDbSymbolTable
70
0
0
ENDTAB
0
TABLE
2
UCS
5
7
100
AcDbSymbolTable
70
0
0
ENDTAB
0
TABLE
2
APPID
5
9
100
AcDbSymbolTable
70
2
0
APPID
5
12
100
AcDbSymbolTableRecord
100
AcDbRegAppTableRecord
2
ACAD
70
0
0
ENDTAB
0
TABLE
2
DIMSTYLE
5
A
100
AcDbSymbolTable
70
1
0
ENDTAB
0
TABLE
2
BLOCK_RECORD
5
1
100
AcDbSymbolTable
70
1
0
BLOCK_RECORD
5
1F
100
AcDbSymbolTableRecord
100
AcDbBlockTableRecord
2
*MODEL_SPACE
0
BLOCK_RECORD
5
1B
100
AcDbSymbolTableRecord
100
AcDbBlockTableRecord
2
*PAPER_SPACE
0
ENDTAB
0
ENDSEC
0
SECTION
2
BLOCKS
0
BLOCK
5
20
100
AcDbEntity
100
AcDbBlockBegin
2
*MODEL_SPACE
0
ENDBLK
5
21
100
AcDbEntity
100
AcDbBlockEnd
0
BLOCK
5
1C
100
AcDbEntity
100
AcDbBlockBegin
2
*PAPER_SPACE
0
ENDBLK
5
1D
100
AcDbEntity
100
AcDbBlockEnd
0
ENDSEC
0
SECTION
2
ENTITIES
0
SPLINE
5
100
100
AcDbEntity
8
0
100
AcDbSpline
70
4
71
3
72
8
73
4
74
0
42
0.000000001
43
0.0000000001
44
0.0000000001
40
0
40
0
40
0
40
0
40
1
40
1
40
1
40
1
41
1
41
1
41
1
41
1
10
7.6068651835123902
20
-61.780565534899665
30
0
10
7.4764790852864671
20
-62.350193233162202
30
0
10
7.4975049336751454
20
-62.929582932462331
30
0
10
7.6601726531982628
20
-63.249391415586103
30
0
0
SPLINE
5
101
100
AcDbEntity
8
0
100
AcDbSpline
70
4
71
3
72
8
73
4
74
0
42
0.000000001
43
0.0000000001
44
0.0000000001
40
0
40
0
40
0
40
0
40
1
40
1
40
1
40
1
41
1
41
1
41
1
41
1
10
7.6601726531982628
20
-63.249391415586103
30
0
10
7.879095013936368
20
-63.679787463814051
30
0
10
8.0118711471557802
20
-63.838183803230557
30
0
10
8.2906897226969534
20
-64.001586297025327
30
0
0
SPLINE
5
102
100
AcDbEntity
8
0
100
AcDbSpline
70
4
71
3
72
8
73
4
74
0
42
0.000000001
43
0.0000000001
44
0.0000000001
40
0
40
0
40
0
40
0
40
1
40
1
40
1
40
1
41
1
41
1
41
1
41
1
10
8.2906897226969534
20
-64.001586297025327
30
0
10
8.6532160441080919
20
-64.214041029284431
30
0
10
9.08980115254721
20
-64.228599249194104
30
0
10
9.6645238240560083
20
-64.047400684028901
30
0
0
SPLINE
5
103
100
AcDbEntity
8
0
100
AcDbSpline
70
4
71
3
72
8
73
4
74
0
42
0.000000001
43
0.0000000001
44
0.0000000001
40
0
40
0
40
0
40
0
40
1
40
1
40
1
40
1
41
1
41
1
41
1
41
1
10
9.6645238240560083
20
-64.047400684028901
30
0
10
10.048245557149258
20
-63.926421311368586
30
0
10
10.231866455078134
20
-63.812305214871998
30
0
10
10.96978168487551
20
-63.236234111458096
30
0
0
SPLINE
5
104
100
AcDbEntity
8
0
100
AcDbSpline
70
4
71
3
72
8
73
4
74
0
42
0.000000001
43
0.0000000001
44
0.0000000001
40
0
40
0
40
0
40
0
40
1
40
1
40
1
40
1
41
1
41
1
41
1
41
1
10
10.96978168487551
20
-63.236234111458096
30
0
10
11.442080052693697
20
-62.867526804278327
30
0
10
12.028656005859393
20
-62.450740228960946
30
0
10
12.273287391662606
20
-62.310043067604333
30
0
0
SPLINE
5
105
100
AcDbEntity
8
0
100
AcDbSpline
70
4
71
3
72
8
73
4
74
0
42
0.000000001
43
0.0000000001
44
0.0000000001
40
0
40
0
40
0
40
0
40
1
40
1
40
1
40
1
41
1
41
1
41
1
41
1
10
12.273287391662606
20
-62.310043067604333
30
0
10
12.802542877197283
20
-62.005644658078786
30
0
10
13.016564051310233
20
-61.809633528063728
30
0
10
13.473302968343113
20
-61.211022618283863
30
0
0
SPLINE
5
106
100
AcDbEntity
8
0
100
AcDbSpline
70
4
71
3
72
8
73
4
74
0
42
0.000000001
43
0.0000000001
44
0.0000000001
40
0
40
0
40
0
40
0
40
1
40
1
40
1
40
1
41
1
41
1
41
1
41
1
10
13.473302968343113
20
-61.211022618283863
30
0
10
13.923412768046077
20
-60.621095771461754
30
0
10
14.242175610860208
20
-60.073915023475919
30
0
10
14.620665105183939
20
-59.241484406461353
30
0
0
LINE
5
107
100
AcDbEntity
8
0
100
AcDbLine
10
14.620665105183939
20
-59.241484406461353
30
0
11
14.930110041300484
21
-58.560913867622652
31
0
0
LINE
5
108
100
AcDbEntity
8
0
100
AcDbLine
10
14.930110041300484
20
-58.560913867622652
30
0
11
14.960696029663101
21
-57.293040675789157
31
0
0
LINE
5
109
100
AcDbEntity
8
0
100
AcDbLine
10
14.960696029663101
20
-57.293040675789157
30
0
11
14.991282018025736
21
-56.025167483955656
31
0
0
LINE
5
110
100
AcDbEntity
8
0
100
AcDbLine
10
14.991282018025736
20
-56.025167483955656
30
0
11
14.795945103963231
21
-55.215813623736338
31
0
0
SPLINE
5
111
100
AcDbEntity
8
0
100
AcDbSpline
70
4
71
3
72
8
73
4
74
0
42
0.000000001
43
0.0000000001
44
0.0000000001
40
0
40
0
40
0
40
0
40
1
40
1
40
1
40
1
41
1
41
1
41
1
41
1
10
14.795945103963231
20
-55.215813623736338
30
0
10
14.688506571451843
20
-54.770669606198901
30
0
10
14.513065083821637
20
-54.163657238950364
30
0
10
14.406062571207698
20
-53.866889177630377
30
0
0
SPLINE
5
112
100
AcDbEntity
8
0
100
AcDbSpline
70
4
71
3
72
8
73
4
74
0
42
0.000000001
43
0.0000000001
44
0.0000000001
40
0
40
0
40
0
40
0
40
1
40
1
40
1
40
1
41
1
41
1
41
1
41
1
10
14.406062571207698
20
-53.866889177630377
30
0
10
14.159404500325543
20
-53.182794144620537
30
0
10
13.611198298136404
20
-52.245092982918059
30
0
10
13.195251464843771
20
-51.795818888018559
30
0
0
SPLINE
5
113
100
AcDbEntity
8
0
100
AcDbSpline
70
4
71
3
72
8
73
4
74
0
42
0.000000001
43
0.0000000001
44
0.0000000001
40
0
40
0
40
0
40
0
40
1
40
1
40
1
40
1
41
1
41
1
41
1
41
1
10
13.195251464843771
20
-51.795818888018559
30
0
10
12.502674229939785
20
-51.047758121162687
30
0
10
11.016379292806011
20
-49.914300174385346
30
0
10
9.8005297342936259
20
-49.206991119056973
30
0
0
SPLINE
5
114
100
AcDbEntity
8
0
100
AcDbSpline
70
4
71
3
72
8
73
4
74
0
42
0.000000001
43
0.0000000001
44
0.0000000001
40
0
40
0
40
0
40
0
40
1
40
1
40
1
40
1
41
1
41
1
41
1
41
1
10
9.8005297342936259
20
-49.206991119056973
30
0
10
9.0377855936686302
20
-48.763272240628829
30
0
10
7.808152961730972
20
-47.944842706988283
30
0
10
7.2390904744466233
20
-47.502137171099612
30
0
0
SPLINE
5
115
100
AcDbEntity
8
0
100
AcDbSpline
70
4
71
3
72
8
73
4
74
0
42
0.000000001
43
0.0000000001
44
0.0000000001
40
0
40
0
40
0
40
0
40
1
40
1
40
1
40
1
41
1
41
1
41
1
41
1
10
7.2390904744466233
20
-47.502137171099612
30
0
10
6.7085430781046718
20
-47.08938781705502
30
0
10
5.8186345418294394
20
-46.05904050158464
30
0
10
4.9582865397135478
20
-44.861406885455082
30
0
0
SPLINE
5
116
100
AcDbEntity
8
0
100
AcDbSpline
70
4
71
3
72
8
73
4
74
0
42
0.000000001
43
0.0000000001
44
0.0000000001
40
0
40
0
40
0
40
0
40
1
40
1
40
1
40
1
41
1
41
1
41
1
41
1
10
4.9582865397135478
20
-44.861406885455082
30
0
10
4.5405310312906977
20
-44.279869384437831
30
0
10
4.3401475906372156
20
-43.92054054227475
30
0
10
3.9456707000732472
20
-43.045549538602465
30
0
0
SPLINE
5
117
100
AcDbEntity
8
0
100
AcDbSpline
70
4
71
3
72
8
73
4
74
0
42
0.000000001
43
0.0000000001
44
0.0000000001
40
0
40
0
40
0
40
0
40
1
40
1
40
1
40
1
41
1
41
1
41
1
41
1
10
3.9456707000732472
20
-43.045549538602465
30
0
10
3.7747186024983925
20
-42.666353530555995
30
0
10
3.4338963826497526
20
-41.948192424446376
30
0
10
3.1883041381836108
20
-41.449640006691254
30
0
0
SPLINE
5
118
100
AcDbEntity
8
0
100
AcDbSpline
70
4
71
3
72
8
73
4
74
0
42
0.000000001
43
0.0000000001
44
0.0000000001
40
0
40
0
40
0
40
0
40
1
40
1
40
1
40
1
41
1
41
1
41
1
41
1
10
3.1883041381836108
20
-41.449640006691254
30
0
10
2.7574599583943815
20
-40.575040613482429
30
0
10
2.5060056686401566
20
-39.881873944272627
30
0
10
2.5059087753296083
20
-39.568525015185308
30
0
0
SPLINE
5
119
100
AcDbEntity
8
0
100
AcDbSpline
70
4
71
3
72
8
73
4
74
0
42
0.000000001
43
0.0000000001
44
0.0000000001
40
0
40
0
40
0
40
0
40
1
40
1
40
1
40
1
41
1
41
1
41
1
41
1
10
2.5059087753296083
20
-39.568525015185308
30
0
10
2.5058280309041514
20
-39.327054773638679
30
0
10
2.1599592844645343
20
-38.660925375292734
30
0
10
1.8877940495809042
20
-38.378077652921313
30
0
0
SPLINE
5
120
100
AcDbEntity
8
0
100
AcDbSpline
70
4
71
3
72
8
73
4
74
0
42
0.000000001
43
0.0000000001
44
0.0000000001
40
0
40
0
40
0
40
0
40
1
40
1
40
1
40
1
41
1
41
1
41
1
41
1
10
1.8877940495809042
20
-38.378077652921313
30
0
10
1.4886420567830605
20
-37.963257204363778
30
0
10
0.94481220245363318
20
-37.672892175982426
30
0
10
0.61311410268148236
20
-37.697499039640057
30
0
0
SPLINE
5
121
100
AcDbEntity
8
0
100
AcDbSpline
70
4
71
3
72
8
73
4
74
0
42
0.000000001
43
0.0000000001
44
0.0000000001
40
0
40
0
40
0
40
0
40
1
40
1
40
1
40
1
41
1
41
1
41
1
41
1
10
0.61311410268148236
20
-37.697499039640057
30
0
10
0.35206737518311826
20
-37.716865590085618
30
0
10
-0.18743457794188956
20
-38.02132052070899
30
0
10
-0.43323675791421934
20
-38.287983022997807
30
0
0
SPLINE
5
122
100
AcDbEntity
8
0
100
AcDbSpline
70
4
71
3
72
8
73
4
74
0
42
0.000000001
43
0.0000000001
44
0.0000000001
40
0
40
0
40
0
40
0
40
1
40
1
40
1
40
1
41
1
41
1
41
1
41
1
10
-0.43323675791421934
20
-38.287983022997807
30
0
10
-0.80691388448078882
20
-38.693376559883383
30
0
10
-1.0638910929361778
20
-38.848906472196212
30
0
10
-1.3600212732950645
20
-38.848906472196212
30
0
0
SPLINE
5
123
100
AcDbEntity
8
0
100
AcDbSpline
70
4
71
3
72
8
73
4
74
0
42
0.000000001
43
0.0000000001
44
0.0000000001
40
0
40
0
40
0
40
0
40
1
40
1
40
1
40
1
41
1
41
1
41
1
41
1
10
-1.3600212732950645
20
-38.848906472196212
30
0
10
-1.6466236114501775
20
-38.848906472196212
30
0
10
-1.7281835556030067
20
-38.777294241259526
30
0
10
-1.9042548497517764
20
-38.371060962349205
30
0
0
SPLINE
5
124
100
AcDbEntity
8
0
100
AcDbSpline
70
4
71
3
72
8
73
4
74
0
42
0.000000001
43
0.0000000001
44
0.0000000001
40
0
40
0
40
0
40
0
40
1
40
1
40
1
40
1
41
1
41
1
41
1
41
1
10
-1.9042548497517764
20
-38.371060962349205
30
0
10
-2.0666480382283403
20
-37.996386642128257
30
0
10
-2.0519525527953952
20
-37.405938993761964
30
0
10
-1.8714160919189382
20
-37.05207251198096
30
0
0
SPLINE
5
125
100
AcDbEntity
8
0
100
AcDbSpline
70
4
71
3
72
8
73
4
74
0
42
0.000000001
43
0.0000000001
44
0.0000000001
40
0
40
0
40
0
40
0
40
1
40
1
40
1
40
1
41
1
41
1
41
1
41
1
10
-1.8714160919189382
20
-37.05207251198096
30
0
10
-1.4584810256957859
20
-36.242650019000003
30
0
10
-0.7904581705729008
20
-35.609916515022547
30
0
10
-0.084033266703276155
20
-35.35910818067196
30
0
0
SPLINE
5
126
100
AcDbEntity
8
0
100
AcDbSpline
70
4
71
3
72
8
73
4
74
0
42
0.000000001
43
0.0000000001
44
0.0000000001
40
0
40
0
40
0
40
0
40
1
40
1
40
1
40
1
41
1
41
1
41
1
41
1
10
-0.084033266703276155
20
-35.35910818067196
30
0
10
0.57495428721111352
20
-35.12514313347144
30
0
10
1.3721682230631593
20
-35.17248359011613
30
0
10
1.8401629130045727
20
-35.473361542691819
30
0
0
SPLINE
5
127
100
AcDbEntity
8
0
100
AcDbSpline
70
4
71
3
72
8
73
4
74
0
42
0.000000001
43
0.0000000001
44
0.0000000001
40
0
40
0
40
0
40
0
40
1
40
1
40
1
40
1
41
1
41
1
41
1
41
1
10
1.8401629130045727
20
-35.473361542691819
30
0
10
1.9722688674926836
20
-35.558296603828701
30
0
10
1.9886761347452975
20
-35.556726124753581
30
0
10
2.0459804534912251
20
-35.453676051765711
30
0
0
SPLINE
5
128
100
AcDbEntity
8
0
100
AcDbSpline
70
4
71
3
72
8
73
4
74
0
42
0.000000001
43
0.0000000001
44
0.0000000001
40
0
40
0
40
0
40
0
40
1
40
1
40
1
40
1
41
1
41
1
41
1
41
1
10
2.0459804534912251
20
-35.453676051765711
30
0
10
2.1936620076497526
20
-35.188123785326908
30
0
10
2.4355884552002038
20
-35.011971746752685
30
0
10
2.652613321940116
20
-35.011971746752685
30
0
0
SPLINE
5
129
100
AcDbEntity
8
0
100
AcDbSpline
70
4
71
3
72
8
73
4
74
0
42
0.000000001
43
0.0000000001
44
0.0000000001
40
0
40
0
40
0
40
0
40
1
40
1
40
1
40
1
41
1
41
1
41
1
41
1
10
2.652613321940116
20
-35.011971746752685
30
0
10
2.8653991063436024
20
-35.011971746752685
30
0
10
2.8671351114908994
20
-35.009856242805746
30
0
10
2.7760957717895707
20
-34.871032352119713
30
0
0
SPLINE
5
130
100
AcDbEntity
8
0
100
AcDbSpline
70
4
71
3
72
8
73
4
74
0
42
0.000000001
43
0.0000000001
44
0.0000000001
40
0
40
0
40
0
40
0
40
1
40
1
40
1
40
1
41
1
41
1
41
1
41
1
10
2.7760957717895707
20
-34.871032352119713
30
0
10
2.6547853469848803
20
-34.685881347328454
30
0
10
2.246476936340347
20
-33.624641214678718
30
0
10
2.1498743057251168
20
-33.243384205172489
30
0
0
SPLINE
5
131
100
AcDbEntity
8
0
100
AcDbSpline
70
4
71
3
72
8
73
4
74
0
42
0.000000001
43
0.0000000001
44
0.0000000001
40
0
40
0
40
0
40
0
40
1
40
1
40
1
40
1
41
1
41
1
41
1
41
1
10
2.1498743057251168
20
-33.243384205172489
30
0
10
2.1080971399943138
20
-33.078516200055709
30
0
10
1.992422676086445
20
-32.768263819684613
30
0
10
1.8928082784016986
20
-32.55393581675493
30
0
0
SPLINE
5
132
100
AcDbEntity
8
0
100
AcDbSpline
70
4
71
3
72
8
73
4
74
0
42
0.000000001
43
0.0000000001
44
0.0000000001
40
0
40
0
40
0
40
0
40
1
40
1
40
1
40
1
41
1
41
1
41
1
41
1
10
1.8928082784016986
20
-32.55393581675493
30
0
10
1.4534859339396355
20
-31.608660827944707
30
0
10
1.1597134908040552
20
-30.473380075762698
30
0
10
1.2206755320231188
20
-29.956462338437667
30
0
0
SPLINE
5
133
100
AcDbEntity
8
0
100
AcDbSpline
70
4
71
3
72
8
73
4
74
0
42
0.000000001
43
0.0000000001
44
0.0000000001
40
0
40
0
40
0
40
0
40
1
40
1
40
1
40
1
41
1
41
1
41
1
41
1
10
1.2206755320231188
20
-29.956462338437667
30
0
10
1.3139514923095774
20
-29.165512151390342
30
0
10
1.6599898020426629
20
-28.463283939033776
30
0
10
2.1060866038004633
20
-28.159640489886236
30
0
0
SPLINE
5
134
100
AcDbEntity
8
0
100
AcDbSpline
70
4
71
3
72
8
73
4
74
0
42
0.000000001
43
0.0000000001
44
0.0000000001
40
0
40
0
40
0
40
0
40
1
40
1
40
1
40
1
41
1
41
1
41
1
41
1
10
2.1060866038004633
20
-28.159640489886236
30
0
10
2.276554234822612
20
-28.043610750506353
30
0
10
2.4677893320719591
20
-27.939446404447189
30
0
10
2.5310606638590549
20
-27.928164389600386
30
0
0
SPLINE
5
135
100
AcDbEntity
8
0
100
AcDbSpline
70
4
71
3
72
8
73
4
74
0
42
0.000000001
43
0.0000000001
44
0.0000000001
40
0
40
0
40
0
40
0
40
1
40
1
40
1
40
1
41
1
41
1
41
1
41
1
10
2.5310606638590549
20
-27.928164389600386
30
0
10
2.5977232615153056
20
-27.91628486600521
30
0
10
2.7112822214762566
20
-27.781611238787601
30
0
10
2.8011346181233776
20
-27.607893644640875
30
0
0
SPLINE
5
136
100
AcDbEntity
8
0
100
AcDbSpline
70
4
71
3
72
8
73
4
74
0
42
0.000000001
43
0.0000000001
44
0.0000000001
40
0
40
0
40
0
40
0
40
1
40
1
40
1
40
1
41
1
41
1
41
1
41
1
10
2.8011346181233776
20
-27.607893644640875
30
0
10
3.0566180547078581
20
-27.113943659136723
30
0
10
3.3154443105062015
20
-26.795521961520144
30
0
10
3.8995333353678596
20
-26.256595312426519
30
0
0
SPLINE
5
137
100
AcDbEntity
8
0
100
AcDbSpline
70
4
71
3
72
8
73
4
74
0
42
0.000000001
43
0.0000000001
44
0.0000000001
40
0
40
0
40
0
40
0
40
1
40
1
40
1
40
1
41
1
41
1
41
1
41
1
10
3.8995333353678596
20
-26.256595312426519
30
0
10
5.4305041631062956
20
-24.843999849627444
30
0
10
6.4233053207397539
20
-24.41112898475928
30
0
10
8.4412134806315287
20
-24.276388743390669
30
0
0
SPLINE
5
138
100
AcDbEntity
8
0
100
AcDbSpline
70
4
71
3
72
8
73
4
74
0
42
0.000000001
43
0.0000000001
44
0.0000000001
40
0
40
0
40
0
40
0
40
1
40
1
40
1
40
1
41
1
41
1
41
1
41
1
10
8.4412134806315287
20
-24.276388743390669
30
0
10
8.9523095448812029
20
-24.242262111971804
30
0
10
9.5695441563924355
20
-24.190953066815961
30
0
10
9.8128594080607279
20
-24.162367521593996
30
0
0
SPLINE
5
139
100
AcDbEntity
8
0
100
AcDbSpline
70
4
71
3
72
8
73
4
74
0
42
0.000000001
43
0.0000000001
44
0.0000000001
40
0
40
0
40
0
40
0
40
1
40
1
40
1
40
1
41
1
41
1
41
1
41
1
10
9.8128594080607279
20
-24.162367521593996
30
0
10
10.056166585286466
20
-24.133781976372035
30
0
10
10.287208684285503
20
-24.122661450376143
30
0
10
10.326280911763526
20
-24.137653671572636
30
0
0
SPLINE
5
140
100
AcDbEntity
8
0
100
AcDbSpline
70
4
71
3
72
8
73
4
74
0
42
0.000000001
43
0.0000000001
44
0.0000000001
40
0
40
0
40
0
40
0
40
1
40
1
40
1
40
1
41
1
41
1
41
1
41
1
10
10.326280911763526
20
-24.137653671572636
30
0
10
10.393637911478688
20
-24.163499962161016
30
0
10
10.960076204935731
20
-24.113642298052739
30
0
10
12.098298072814959
20
-23.981677646309166
30
0
0
SPLINE
5
141
100
AcDbEntity
8
0
100
AcDbSpline
70
4
71
3
72
8
73
4
74
0
42
0.000000001
43
0.0000000001
44
0.0000000001
40
0
40
0
40
0
40
0
40
1
40
1
40
1
40
1
41
1
41
1
41
1
41
1
10
12.098298072814959
20
-23.981677646309166
30
0
10
12.796632385253925
20
-23.90071319229407
30
0
10
13.091470654805519
20
-24.018707039823163
30
0
10
13.272313944498713
20
-24.451525420814782
30
0
0
SPLINE
5
142
100
AcDbEntity
8
0
100
AcDbSpline
70
4
71
3
72
8
73
4
74
0
42
0.000000001
43
0.0000000001
44
0.0000000001
40
0
40
0
40
0
40
0
40
1
40
1
40
1
40
1
41
1
41
1
41
1
41
1
10
13.272313944498713
20
-24.451525420814782
30
0
10
13.40000317891441
20
-24.757128940890262
30
0
10
13.376684188842791
20
-24.913771107663738
30
0
10
13.168129412333194
20
-25.151303039858767
30
0
0
SPLINE
5
143
100
AcDbEntity
8
0
100
AcDbSpline
70
4
71
3
72
8
73
4
74
0
42
0.000000001
43
0.0000000001
44
0.0000000001
40
0
40
0
40
0
40
0
40
1
40
1
40
1
40
1
41
1
41
1
41
1
41
1
10
13.168129412333194
20
-25.151303039858767
30
0
10
12.915439732869487
20
-25.439104432731895
30
0
10
12.721160570780459
20
-25.529233379036217
30
0
10
11.558731524149586
20
-25.897956835101077
30
0
0
SPLINE
5
144
100
AcDbEntity
8
0
100
AcDbSpline
70
4
71
3
72
8
73
4
74
0
42
0.000000001
43
0.0000000001
44
0.0000000001
40
0
40
0
40
0
40
0
40
1
40
1
40
1
40
1
41
1
41
1
41
1
41
1
10
11.558731524149586
20
-25.897956835101077
30
0
10
8.8041112263997512
20
-26.771728597948975
30
0
10
8.3211545944213938
20
-27.017724564542402
30
0
10
7.1237228393554908
20
-28.156941607465377
30
0
0
SPLINE
5
145
100
AcDbEntity
8
0
100
AcDbSpline
70
4
71
3
72
8
73
4
74
0
42
0.000000001
43
0.0000000001
44
0.0000000001
40
0
40
0
40
0
40
0
40
1
40
1
40
1
40
1
41
1
41
1
41
1
41
1
10
7.1237228393554908
20
-28.156941607465377
30
0
10
6.5456573486328296
20
-28.706901982297527
30
0
10
6.3636674880981658
20
-29.023504911730718
30
0
10
5.9919201532999899
20
-30.125876254707606
30
0
0
SPLINE
5
146
100
AcDbEntity
8
0
100
AcDbSpline
70
4
71
3
72
8
73
4
74
0
42
0.000000001
43
0.0000000001
44
0.0000000001
40
0
40
0
40
0
40
0
40
1
40
1
40
1
40
1
41
1
41
1
41
1
41
1
10
5.9919201532999899
20
-30.125876254707606
30
0
10
5.4522728602091597
20
-31.726137911150882
30
0
10
5.3522789637247925
20
-32.910057086616781
30
0
10
5.6518004099528163
20
-34.152935841550459
30
0
0
SPLINE
5
147
100
AcDbEntity
8
0
100
AcDbSpline
70
4
71
3
72
8
73
4
74
0
42
0.000000001
43
0.0000000001
44
0.0000000001
40
0
40
0
40
0
40
0
40
1
40
1
40
1
40
1
41
1
41
1
41
1
41
1
10
5.6518004099528163
20
-34.152935841550459
30
0
10
5.8461118698120274
20
-34.959249674151373
30
0
10
5.8939529418945469
20
-35.046821040779378
30
0
10
5.94332815806073
20
-34.686571712166099
30
0
0
SPLINE
5
148
100
AcDbEntity
8
0
100
AcDbSpline
70
4
71
3
72
8
73
4
74
0
42
0.000000001
43
0.0000000001
44
0.0000000001
40
0
40
0
40
0
40
0
40
1
40
1
40
1
40
1
41
1
41
1
41
1
41
1
10
5.94332815806073
20
-34.686571712166099
30
0
10
6.0390425999959518
20
-33.988233362505859
30
0
10
6.6659342447916892
20
-32.317384929329187
30
0
10
7.2021983464559014
20
-31.331307763725551
30
0
0
SPLINE
5
149
100
AcDbEntity
8
0
100
AcDbSpline
70
4
71
3
72
8
73
4
74
0
42
0.000000001
43
0.0000000001
44
0.0000000001
40
0
40
0
40
0
40
0
40
1
40
1
40
1
40
1
41
1
41
1
41
1
41
1
10
7.2021983464559014
20
-31.331307763725551
30
0
10
7.5047154108683323
20
-30.775035193433396
30
0
10
8.1627663294474395
20
-30.069246151914228
30
0
10
8.8992281595866096
20
-29.51116288788123
30
0
0
SPLINE
5
150
100
AcDbEntity
8
0
100
AcDbSpline
70
4
71
3
72
8
73
4
74
0
42
0.000000001
43
0.0000000001
44
0.0000000001
40
0
40
0
40
0
40
0
40
1
40
1
40
1
40
1
41
1
41
1
41
1
41
1
10
8.8992281595866096
20
-29.51116288788123
30
0
10
9.5338793436686409
20
-29.030226885149908
30
0
10
9.8115755716959718
20
-28.869674669573733
30
0
10
10.848568153381368
20
-28.384152383476525
30
0
0
SPLINE
5
151
100
AcDbEntity
8
0
100
AcDbSpline
70
4
71
3
72
8
73
4
74
0
42
0.000000001
43
0.0000000001
44
0.0000000001
40
0
40
0
40
0
40
0
40
1
40
1
40
1
40
1
41
1
41
1
41
1
41
1
10
10.848568153381368
20
-28.384152383476525
30
0
10
11.804105758667003
20
-27.936767708132692
30
0
10
12.515399551391617
20
-27.677775926262171
30
0
10
12.967616780598981
20
-27.612586914370489
30
0
0
SPLINE
5
152
100
AcDbEntity
8
0
100
AcDbSpline
70
4
71
3
72
8
73
4
74
0
42
0.000000001
43
0.0000000001
44
0.0000000001
40
0
40
0
40
0
40
0
40
1
40
1
40
1
40
1
41
1
41
1
41
1
41
1
10
12.967616780598981
20
-27.612586914370489
30
0
10
13.132480748494473
20
-27.588827867180136
30
0
10
13.474207305908212
20
-27.517338771492273
30
0
10
13.727001953125022
20
-27.453742443392706
30
0
0
SPLINE
5
153
100
AcDbEntity
8
0
100
AcDbSpline
70
4
71
3
72
8
73
4
74
0
42
0.000000001
43
0.0000000001
44
0.0000000001
40
0
40
0
40
0
40
0
40
1
40
1
40
1
40
1
41
1
41
1
41
1
41
1
10
13.727001953125022
20
-27.453742443392706
30
0
10
14.225073941548683
20
-27.328435169527957
30
0
10
14.645534388224295
20
-27.307845341036746
30
0
10
14.976005172729501
20
-27.392576522499354
30
0
0
SPLINE
5
154
100
AcDbEntity
8
0
100
AcDbSpline
70
4
71
3
72
8
73
4
74
0
42
0.000000001
43
0.0000000001
44
0.0000000001
40
0
40
0
40
0
40
0
40
1
40
1
40
1
40
1
41
1
41
1
41
1
41
1
10
14.976005172729501
20
-27.392576522499354
30
0
10
15.091413180033388
20
-27.422167335818241
30
0
10
15.257803217570007
20
-27.462440636624919
30
0
10
15.345758120218935
20
-27.482069606453209
30
0
0
SPLINE
5
155
100
AcDbEntity
8
0
100
AcDbSpline
70
4
71
3
72
8
73
4
74
0
42
0.000000001
43
0.0000000001
44
0.0000000001
40
0
40
0
40
0
40
0
40
1
40
1
40
1
40
1
41
1
41
1
41
1
41
1
10
15.345758120218935
20
-27.482069606453209
30
0
10
15.547263908386242
20
-27.527048288653326
30
0
10
15.755681419372571
20
-27.854642553001675
30
0
10
15.754502550760918
20
-28.124563092857628
30
0
0
SPLINE
5
156
100
AcDbEntity
8
0
100
AcDbSpline
70
4
71
3
72
8
73
4
74
0
42
0.000000001
43
0.0000000001
44
0.0000000001
40
0
40
0
40
0
40
0
40
1
40
1
40
1
40
1
41
1
41
1
41
1
41
1
10
15.754502550760918
20
-28.124563092857628
30
0
10
15.752653503417982
20
-28.526664275795252
30
0
10
15.666345787048357
20
-28.61415287938717
30
0
10
14.093799654642751
20
-29.80610612518592
30
0
0
SPLINE
5
157
100
AcDbEntity
8
0
100
AcDbSpline
70
4
71
3
72
8
73
4
74
0
42
0.000000001
43
0.0000000001
44
0.0000000001
40
0
40
0
40
0
40
0
40
1
40
1
40
1
40
1
41
1
41
1
41
1
41
1
10
14.093799654642751
20
-29.80610612518592
30
0
10
11.665830930074073
20
-31.646447200447348
30
0
10
10.021139653523772
20
-34.069240207344322
30
0
10
9.5168018976847435
20
-36.548485679298672
30
0
0
SPLINE
5
158
100
AcDbEntity
8
0
100
AcDbSpline
70
4
71
3
72
8
73
4
74
0
42
0.000000001
43
0.0000000001
44
0.0000000001
40
0
40
0
40
0
40
0
40
1
40
1
40
1
40
1
41
1
41
1
41
1
41
1
10
9.5168018976847435
20
-36.548485679298672
30
0
10
9.3037496566772582
20
-37.59581354744239
30
0
10
9.2983155568440878
20
-37.726163310676846
30
0
10
9.4958729426066313
20
-37.05034054405494
30
0
0
SPLINE
5
159
100
AcDbEntity
8
0
100
AcDbSpline
70
4
71
3
72
8
73
4
74
0
42
0.000000001
43
0.0000000001
44
0.0000000001
40
0
40
0
40
0
40
0
40
1
40
1
40
1
40
1
41
1
41
1
41
1
41
1
10
9.4958729426066313
20
-37.05034054405494
30
0
10
9.7734561284383226
20
-36.100786100695565
30
0
10
10.316882260640483
20
-35.137198276191981
30
0
10
11.130245081583681
20
-34.152342370023362
30
0
0
SPLINE
5
160
100
AcDbEntity
8
0
100
AcDbSpline
70
4
71
3
72
8
73
4
74
0
42
0.000000001
43
0.0000000001
44
0.0000000001
40
0
40
0
40
0
40
0
40
1
40
1
40
1
40
1
41
1
41
1
41
1
41
1
10
11.130245081583681
20
-34.152342370023362
30
0
10
12.170370546976734
20
-32.892894858986168
30
0
10
14.06108201344809
20
-31.658090546598068
30
0
10
15.679725138346363
20
-31.181117076545984
30
0
0
SPLINE
5
161
100
AcDbEntity
8
0
100
AcDbSpline
70
4
71
3
72
8
73
4
74
0
42
0.000000001
43
0.0000000001
44
0.0000000001
40
0
40
0
40
0
40
0
40
1
40
1
40
1
40
1
41
1
41
1
41
1
41
1
10
15.679725138346363
20
-31.181117076545984
30
0
10
16.364203707377136
20
-30.97941750175757
30
0
10
17.287475840250668
20
-30.87604646967851
30
0
10
18.393278821309416
20
-30.877304064104983
30
0
0
SPLINE
5
162
100
AcDbEntity
8
0
100
AcDbSpline
70
4
71
3
72
8
73
4
74
0
42
0.000000001
43
0.0000000001
44
0.0000000001
40
0
40
0
40
0
40
0
40
1
40
1
40
1
40
1
41
1
41
1
41
1
41
1
10
18.393278821309416
20
-30.877304064104983
30
0
10
19.619374847412132
20
-30.878626254071825
30
0
10
20.777427546183276
20
-31.18566500630978
30
0
10
21.850432141621923
20
-31.793700809150963
30
0
0
SPLINE
5
163
100
AcDbEntity
8
0
100
AcDbSpline
70
4
71
3
72
8
73
4
74
0
42
0.000000001
43
0.0000000001
44
0.0000000001
40
0
40
0
40
0
40
0
40
1
40
1
40
1
40
1
41
1
41
1
41
1
41
1
10
21.850432141621923
20
-31.793700809150963
30
0
10
22.527013905843116
20
-32.177097545931765
30
0
10
23.636926778157576
20
-32.989798262586227
30
0
10
24.196558316548682
20
-33.511582870155607
30
0
0
SPLINE
5
164
100
AcDbEntity
8
0
100
AcDbSpline
70
4
71
3
72
8
73
4
74
0
42
0.000000001
43
0.0000000001
44
0.0000000001
40
0
40
0
40
0
40
0
40
1
40
1
40
1
40
1
41
1
41
1
41
1
41
1
10
24.196558316548682
20
-33.511582870155607
30
0
10
24.646062533060729
20
-33.930686810483564
30
0
10
24.958357747395858
20
-34.151870015134442
30
0
10
25.717993227640807
20
-34.589133376747398
30
0
0
SPLINE
5
165
100
AcDbEntity
8
0
100
AcDbSpline
70
4
71
3
72
8
73
4
74
0
42
0.000000001
43
0.0000000001
44
0.0000000001
40
0
40
0
40
0
40
0
40
1
40
1
40
1
40
1
41
1
41
1
41
1
41
1
10
25.717993227640807
20
-34.589133376747398
30
0
10
26.727330843607593
20
-35.170129890114097
30
0
10
26.967569732666039
20
-35.250688603391282
30
0
10
27.693139139811223
20
-35.251435489326745
30
0
0
SPLINE
5
166
100
AcDbEntity
8
0
100
AcDbSpline
70
4
71
3
72
8
73
4
74
0
42
0.000000001
43
0.0000000001
44
0.0000000001
40
0
40
0
40
0
40
0
40
1
40
1
40
1
40
1
41
1
41
1
41
1
41
1
10
27.693139139811223
20
-35.251435489326745
30
0
10
28.088714154561369
20
-35.251964365313484
30
0
10
29.009886932373057
20
-35.029626515378581
30
0
10
29.552214940389021
20
-34.802960764239266
30
0
0
SPLINE
5
167
100
AcDbEntity
8
0
100
AcDbSpline
70
4
71
3
72
8
73
4
74
0
42
0.000000001
43
0.0000000001
44
0.0000000001
40
0
40
0
40
0
40
0
40
1
40
1
40
1
40
1
41
1
41
1
41
1
41
1
10
29.552214940389021
20
-34.802960764239266
30
0
10
30.640964698791517
20
-34.347925554583497
30
0
10
30.884707895914723
20
-34.275917675962077
30
0
10
31.3429163614909
20
-34.273923288653322
30
0
0
SPLINE
5
168
100
AcDbEntity
8
0
100
AcDbSpline
70
4
71
3
72
8
73
4
74
0
42
0.000000001
43
0.0000000001
44
0.0000000001
40
0
40
0
40
0
40
0
40
1
40
1
40
1
40
1
41
1
41
1
41
1
41
1
10
31.3429163614909
20
-34.273923288653322
30
0
10
32.001669756571474
20
-34.271064935992193
30
0
10
32.414499855041527
20
-34.512422135343186
30
0
10
32.629021644592306
20
-35.025851713488535
30
0
0
SPLINE
5
169
100
AcDbEntity
8
0
100
AcDbSpline
70
4
71
3
72
8
73
4
74
0
42
0.000000001
43
0.0000000001
44
0.0000000001
40
0
40
0
40
0
40
0
40
1
40
1
40
1
40
1
41
1
41
1
41
1
41
1
10
32.629021644592306
20
-35.025851713488535
30
0
10
32.745745786031094
20
-35.305207239458987
30
0
10
32.745083681742372
20
-35.509482561419439
30
0
10
32.626349004109727
20
-35.851297937701176
30
0
0
SPLINE
5
170
100
AcDbEntity
8
0
100
AcDbSpline
70
4
71
3
72
8
73
4
74
0
42
0.000000001
43
0.0000000001
44
0.0000000001
40
0
40
0
40
0
40
0
40
1
40
1
40
1
40
1
41
1
41
1
41
1
41
1
10
32.626349004109727
20
-35.851297937701176
30
0
10
32.389501380920436
20
-36.533224982887532
30
0
10
31.98281593322756
20
-36.864644514391848
30
0
10
30.72172527313235
20
-37.403439953794113
30
0
0
SPLINE
5
171
100
AcDbEntity
8
0
100
AcDbSpline
70
4
71
3
72
8
73
4
74
0
42
0.000000001
43
0.0000000001
44
0.0000000001
40
0
40
0
40
0
40
0
40
1
40
1
40
1
40
1
41
1
41
1
41
1
41
1
10
30.72172527313235
20
-37.403439953794113
30
0
10
29.970317649841327
20
-37.724479789406089
30
0
10
29.552150344848656
20
-37.820626214017501
30
0
10
28.70501213073732
20
-37.867143077522549
30
0
0
SPLINE
5
172
100
AcDbEntity
8
0
100
AcDbSpline
70
4
71
3
72
8
73
4
74
0
42
0.000000001
43
0.0000000001
44
0.0000000001
40
0
40
0
40
0
40
0
40
1
40
1
40
1
40
1
41
1
41
1
41
1
41
1
10
28.70501213073732
20
-37.867143077522549
30
0
10
27.97806199391685
20
-37.907059084246583
30
0
10
26.912857309977234
20
-37.791982129087081
30
0
10
26.401123364766459
20
-37.61824434883399
30
0
0
SPLINE
5
173
100
AcDbEntity
8
0
100
AcDbSpline
70
4
71
3
72
8
73
4
74
0
42
0.000000001
43
0.0000000001
44
0.0000000001
40
0
40
0
40
0
40
0
40
1
40
1
40
1
40
1
41
1
41
1
41
1
41
1
10
26.401123364766459
20
-37.61824434883399
30
0
10
26.170509211222353
20
-37.539950516690844
30
0
10
26.122700436910016
20
-37.543236814806889
30
0
10
25.823639233907087
20
-37.657954457273121
30
0
0
SPLINE
5
174
100
AcDbEntity
8
0
100
AcDbSpline
70
4
71
3
72
8
73
4
74
0
42
0.000000001
43
0.0000000001
44
0.0000000001
40
0
40
0
40
0
40
0
40
1
40
1
40
1
40
1
41
1
41
1
41
1
41
1
10
25.823639233907087
20
-37.657954457273121
30
0
10
25.153864224751814
20
-37.914871107409425
30
0
10
23.048655192057304
20
-37.695859927803312
30
0
10
21.691632080078147
20
-37.228087285031904
30
0
0
SPLINE
5
175
100
AcDbEntity
8
0
100
AcDbSpline
70
4
71
3
72
8
73
4
74
0
42
0.000000001
43
0.0000000001
44
0.0000000001
40
0
40
0
40
0
40
0
40
1
40
1
40
1
40
1
41
1
41
1
41
1
41
1
10
21.691632080078147
20
-37.228087285031904
30
0
10
21.410802968343123
20
-37.13128279335303
30
0
10
20.951714388529474
20
-37.009435418119068
30
0
10
20.671442413330094
20
-36.957310854266119
30
0
0
SPLINE
5
176
100
AcDbEntity
8
0
100
AcDbSpline
70
4
71
3
72
8
73
4
74
0
42
0.000000001
43
0.0000000001
44
0.0000000001
40
0
40
0
40
0
40
0
40
1
40
1
40
1
40
1
41
1
41
1
41
1
41
1
10
20.671442413330094
20
-36.957310854266119
30
0
10
20.391170438130715
20
-36.90518629041317
30
0
10
19.905557314554869
20
-36.799298050870533
30
0
10
19.592301241556811
20
-36.721997375160484
30
0
0
SPLINE
5
177
100
AcDbEntity
8
0
100
AcDbSpline
70
4
71
3
72
8
73
4
74
0
42
0.000000001
43
0.0000000001
44
0.0000000001
40
0
40
0
40
0
40
0
40
1
40
1
40
1
40
1
41
1
41
1
41
1
41
1
10
19.592301241556811
20
-36.721997375160484
30
0
10
18.504851468404144
20
-36.453651351600918
30
0
10
17.884354782104506
20
-36.384138475726083
30
0
10
16.470011202494312
20
-36.372216561307539
30
0
0
SPLINE
5
178
100
AcDbEntity
8
0
100
AcDbSpline
70
4
71
3
72
8
73
4
74
0
42
0.000000001
43
0.0000000001
44
0.0000000001
40
0
40
0
40
0
40
0
40
1
40
1
40
1
40
1
41
1
41
1
41
1
41
1
10
16.470011202494312
20
-36.372216561307539
30
0
10
14.9566749572754
20
-36.359462979306805
30
0
10
14.826296933492031
20
-36.387138131131763
30
0
10
14.154285303751646
20
-36.863869367907476
30
0
0
SPLINE
5
179
100
AcDbEntity
8
0
100
AcDbSpline
70
4
71
3
72
8
73
4
74
0
42
0.000000001
43
0.0000000001
44
0.0000000001
40
0
40
0
40
0
40
0
40
1
40
1
40
1
40
1
41
1
41
1
41
1
41
1
10
14.154285303751646
20
-36.863869367907476
30
0
10
13.598351860046396
20
-37.25825743960344
30
0
10
12.785053634643564
20
-38.271143773069014
30
0
10
12.472572708129892
20
-38.95830709424618
30
0
0
SPLINE
5
180
100
AcDbEntity
8
0
100
AcDbSpline
70
4
71
3
72
8
73
4
74
0
42
0.000000001
43
0.0000000001
44
0.0000000001
40
0
40
0
40
0
40
0
40
1
40
1
40
1
40
1
41
1
41
1
41
1
41
1
10
12.472572708129892
20
-38.95830709424618
30
0
10
12.325553258260111
20
-39.28161584821347
30
0
10
12.318229738871267
20
-39.346243686348231
30
0
10
12.325311024983741
20
-40.257767505317958
30
0
0
SPLINE
5
181
100
AcDbEntity
8
0
100
AcDbSpline
70
4
71
3
72
8
73
4
74
0
42
0.000000001
43
0.0000000001
44
0.0000000001
40
0
40
0
40
0
40
0
40
1
40
1
40
1
40
1
41
1
41
1
41
1
41
1
10
12.325311024983741
20
-40.257767505317958
30
0
10
12.336502202351909
20
-41.698042157163258
30
0
10
12.525993220011404
20
-42.717634315162925
30
0
10
12.984573109944684
20
-43.805124460528326
30
0
0
SPLINE
5
182
100
AcDbEntity
8
0
100
AcDbSpline
70
4
71
3
72
8
73
4
74
0
42
0.000000001
43
0.0000000001
44
0.0000000001
40
0
40
0
40
0
40
0
40
1
40
1
40
1
40
1
41
1
41
1
41
1
41
1
10
12.984573109944684
20
-43.805124460528326
30
0
10
13.375400352478035
20
-44.731945310900642
30
0
10
14.289726003011083
20
-46.138379974037434
30
0
10
14.965637588500993
20
-46.852427151670085
30
0
0
SPLINE
5
183
100
AcDbEntity
8
0
100
AcDbSpline
70
4
71
3
72
8
73
4
74
0
42
0.000000001
43
0.0000000001
44
0.0000000001
40
0
40
0
40
0
40
0
40
1
40
1
40
1
40
1
41
1
41
1
41
1
41
1
10
14.965637588500993
20
-46.852427151670085
30
0
10
15.223398017883323
20
-47.124729652076994
30
0
10
15.538608105977385
20
-47.505924084653486
30
0
10
15.666111628214541
20
-47.699524993568687
30
0
0
SPLINE
5
184
100
AcDbEntity
8
0
100
AcDbSpline
70
4
71
3
72
8
73
4
74
0
42
0.000000001
43
0.0000000001
44
0.0000000001
40
0
40
0
40
0
40
0
40
1
40
1
40
1
40
1
41
1
41
1
41
1
41
1
10
15.666111628214541
20
-47.699524993568687
30
0
10
15.793615150451679
20
-47.893125902483895
30
0
10
16.027903175354012
20
-48.224400094022386
30
0
10
16.186759757995617
20
-48.435688069333665
30
0
0
SPLINE
5
185
100
AcDbEntity
8
0
100
AcDbSpline
70
4
71
3
72
8
73
4
74
0
42
0.000000001
43
0.0000000001
44
0.0000000001
40
0
40
0
40
0
40
0
40
1
40
1
40
1
40
1
41
1
41
1
41
1
41
1
10
16.186759757995617
20
-48.435688069333665
30
0
10
16.507129414876314
20
-48.861812737455004
30
0
10
16.510318819681817
20
-48.853423391650153
30
0
10
16.321231524149589
20
-48.081502647072114
30
0
0
SPLINE
5
186
100
AcDbEntity
8
0
100
AcDbSpline
70
4
71
3
72
8
73
4
74
0
42
0.000000001
43
0.0000000001
44
0.0000000001
40
0
40
0
40
0
40
0
40
1
40
1
40
1
40
1
41
1
41
1
41
1
41
1
10
16.321231524149589
20
-48.081502647072114
30
0
10
16.276805941263852
20
-47.900150667498536
30
0
10
16.22349847157798
20
-47.562917537361422
30
0
10
16.202771377563501
20
-47.332101522753675
30
0
0
SPLINE
5
187
100
AcDbEntity
8
0
100
AcDbSpline
70
4
71
3
72
8
73
4
74
0
42
0.000000001
43
0.0000000001
44
0.0000000001
40
0
40
0
40
0
40
0
40
1
40
1
40
1
40
1
41
1
41
1
41
1
41
1
10
16.202771377563501
20
-47.332101522753675
30
0
10
16.15141792297365
20
-46.760269501676191
30
0
10
15.894513384501163
20
-45.391364847491218
30
0
10
15.748059145609545
20
-44.909183361997236
30
0
0
SPLINE
5
188
100
AcDbEntity
8
0
100
AcDbSpline
70
4
71
3
72
8
73
4
74
0
42
0.000000001
43
0.0000000001
44
0.0000000001
40
0
40
0
40
0
40
0
40
1
40
1
40
1
40
1
41
1
41
1
41
1
41
1
10
15.748059145609545
20
-44.909183361997236
30
0
10
15.682107098897315
20
-44.6920293041766
30
0
10
15.549177551269544
20
-44.258060315122236
30
0
10
15.452671813964862
20
-43.94481231656674
30
0
0
SPLINE
5
189
100
AcDbEntity
8
0
100
AcDbSpline
70
4
71
3
72
8
73
4
74
0
42
0.000000001
43
0.0000000001
44
0.0000000001
40
0
40
0
40
0
40
0
40
1
40
1
40
1
40
1
41
1
41
1
41
1
41
1
10
15.452671813964862
20
-43.94481231656674
30
0
10
15.199206988016787
20
-43.122099291155763
30
0
10
15.136048698425313
20
-42.486071414619715
30
0
10
15.173037719726583
20
-41.129003893206544
30
0
0
SPLINE
5
190
100
AcDbEntity
8
0
100
AcDbSpline
70
4
71
3
72
8
73
4
74
0
42
0.000000001
43
0.0000000001
44
0.0000000001
40
0
40
0
40
0
40
0
40
1
40
1
40
1
40
1
41
1
41
1
41
1
41
1
10
15.173037719726583
20
-41.129003893206544
30
0
10
15.207459068298359
20
-39.866383126248948
30
0
10
15.361567878723168
20
-38.966102968523934
30
0
10
15.635057322184256
20
-38.430024579038253
30
0
0
SPLINE
5
191
100
AcDbEntity
8
0
100
AcDbSpline
70
4
71
3
72
8
73
4
74
0
42
0.000000001
43
0.0000000001
44
0.0000000001
40
0
40
0
40
0
40
0
40
1
40
1
40
1
40
1
41
1
41
1
41
1
41
1
10
15.635057322184256
20
-38.430024579038253
30
0
10
15.830353864034024
20
-38.047207183510096
30
0
10
16.191669019063326
20
-37.690518684059413
30
0
10
16.573557853698748
20
-37.503522669146491
30
0
0
SPLINE
5
192
100
AcDbEntity
8
0
100
AcDbSpline
70
4
71
3
72
8
73
4
74
0
42
0.000000001
43
0.0000000001
44
0.0000000001
40
0
40
0
40
0
40
0
40
1
40
1
40
1
40
1
41
1
41
1
41
1
41
1
10
16.573557853698748
20
-37.503522669146491
30
0
10
16.87592150370282
20
-37.355465653409595
30
0
10
16.960162162780783
20
-37.339873904854088
30
0
10
17.278077189127625
20
-37.373104273150396
30
0
0
SPLINE
5
193
100
AcDbEntity
8
0
100
AcDbSpline
70
4
71
3
72
8
73
4
74
0
42
0.000000001
43
0.0000000001
44
0.0000000001
40
0
40
0
40
0
40
0
40
1
40
1
40
1
40
1
41
1
41
1
41
1
41
1
10
17.278077189127625
20
-37.373104273150396
30
0
10
17.947924868265801
20
-37.443117764463054
30
0
10
18.26088218688966
20
-37.798817144701914
30
0
10
18.200251197814961
20
-38.421227473884855
30
0
0
SPLINE
5
194
100
AcDbEntity
8
0
100
AcDbSpline
70
4
71
3
72
8
73
4
74
0
42
0.000000001
43
0.0000000001
44
0.0000000001
40
0
40
0
40
0
40
0
40
1
40
1
40
1
40
1
41
1
41
1
41
1
41
1
10
18.200251197814961
20
-38.421227473884855
30
0
10
18.164529863993337
20
-38.787920207649499
30
0
10
17.98536605834963
20
-39.14682110435767
30
0
10
17.582742055257174
20
-39.658240146309168
30
0
0
SPLINE
5
195
100
AcDbEntity
8
0
100
AcDbSpline
70
4
71
3
72
8
73
4
74
0
42
0.000000001
43
0.0000000001
44
0.0000000001
40
0
40
0
40
0
40
0
40
1
40
1
40
1
40
1
41
1
41
1
41
1
41
1
10
17.582742055257174
20
-39.658240146309168
30
0
10
17.171720631917342
20
-40.180333601305911
30
0
10
16.932596015930184
20
-40.665748901039393
30
0
10
16.800683848063169
20
-41.24581281629208
30
0
0
SPLINE
5
196
100
AcDbEntity
8
0
100
AcDbSpline
70
4
71
3
72
8
73
4
74
0
42
0.000000001
43
0.0000000001
44
0.0000000001
40
0
40
0
40
0
40
0
40
1
40
1
40
1
40
1
41
1
41
1
41
1
41
1
10
16.800683848063169
20
-41.24581281629208
30
0
10
16.565216954549165
20
-42.281263179451258
30
0
10
16.957836723327659
20
-43.44675647702816
30
0
10
18.046166610717798
20
-44.943011239041923
30
0
0
SPLINE
5
197
100
AcDbEntity
8
0
100
AcDbSpline
70
4
71
3
72
8
73
4
74
0
42
0.000000001
43
0.0000000001
44
0.0000000001
40
0
40
0
40
0
40
0
40
1
40
1
40
1
40
1
41
1
41
1
41
1
41
1
10
18.046166610717798
20
-44.943011239041923
30
0
10
18.255076662699405
20
-45.23022319760922
30
0
10
18.321933046976735
20
-45.348743902514414
30
0
10
19.038709386189794
20
-46.702605870236987
30
0
0
SPLINE
5
198
100
AcDbEntity
8
0
100
AcDbSpline
70
4
71
3
72
8
73
4
74
0
42
0.000000001
43
0.0000000001
44
0.0000000001
40
0
40
0
40
0
40
0
40
1
40
1
40
1
40
1
41
1
41
1
41
1
41
1
10
19.038709386189794
20
-46.702605870236987
30
0
10
20.192426109313981
20
-48.881760647763841
30
0
10
20.858349609375022
20
-51.717440274228686
30
0
10
20.616649246215832
20
-53.42187435117367
30
0
0
SPLINE
5
199
100
AcDbEntity
8
0
100
AcDbSpline
70
4
71
3
72
8
73
4
74
0
42
0.000000001
43
0.0000000001
44
0.0000000001
40
0
40
0
40
0
40
0
40
1
40
1
40
1
40
1
41
1
41
1
41
1
41
1
10
20.616649246215832
20
-53.42187435117367
30
0
10
20.49818102518719
20
-54.257260214159913
30
0
10
20.193225479125996
20
-55.297890332212077
30
0
10
19.769882456461598
20
-56.311362062762214
30
0
0
SPLINE
5
200
100
AcDbEntity
8
0
100
AcDbSpline
70
4
71
3
72
8
73
4
74
0
42
0.000000001
43
0.0000000001
44
0.0000000001
40
0
40
0
40
0
40
0
40
1
40
1
40
1
40
1
41
1
41
1
41
1
41
1
10
19.769882456461598
20
-56.311362062762214
30
0
10
19.662807273864757
20
-56.567701390256524
30
0
10
19.592268943786628
20
-56.794504406919117
30
0
10
19.613141377766947
20
-56.815372803678144
30
0
0
SPLINE
5
201
100
AcDbEntity
8
0
100
AcDbSpline
70
4
71
3
72
8
73
4
74
0
42
0.000000001
43
0.0000000001
44
0.0000000001
40
0
40
0
40
0
40
0
40
1
40
1
40
1
40
1
41
1
41
1
41
1
41
1
10
19.613141377766947
20
-56.815372803678144
30
0
10
19.670405324300138
20
-56.872640787432623
30
0
10
20.473344039917016
20
-56.456576874723076
30
0
10
20.882572937011741
20
-56.157580267260499
30
0
0
SPLINE
5
202
100
AcDbEntity
8
0
100
AcDbSpline
70
4
71
3
72
8
73
4
74
0
42
0.000000001
43
0.0000000001
44
0.0000000001
40
0
40
0
40
0
40
0
40
1
40
1
40
1
40
1
41
1
41
1
41
1
41
1
10
20.882572937011741
20
-56.157580267260499
30
0
10
21.275523757934582
20
-55.870477313667564
30
0
10
21.90528990427655
20
-55.192805499702722
30
0
10
22.25032698313397
20
-54.68578702893857
30
0
0
SPLINE
5
203
100
AcDbEntity
8
0
100
AcDbSpline
70
4
71
3
72
8
73
4
74
0
42
0.000000001
43
0.0000000001
44
0.0000000001
40
0
40
0
40
0
40
0
40
1
40
1
40
1
40
1
41
1
41
1
41
1
41
1
10
22.25032698313397
20
-54.68578702893857
30
0
10
22.716908645629896
20
-54.000161889066334
30
0
10
22.940925979614271
20
-52.752180086443857
30
0
10
22.77250925699871
20
-51.776783389717373
30
0
0
SPLINE
5
204
100
AcDbEntity
8
0
100
AcDbSpline
70
4
71
3
72
8
73
4
74
0
42
0.000000001
43
0.0000000001
44
0.0000000001
40
0
40
0
40
0
40
0
40
1
40
1
40
1
40
1
41
1
41
1
41
1
41
1
10
22.77250925699871
20
-51.776783389717373
30
0
10
22.611658287048364
20
-50.845198618243174
30
0
10
22.329755274454772
20
-49.893468112617761
30
0
10
21.904861958821638
20
-48.847533085813161
30
0
0
SPLINE
5
205
100
AcDbEntity
8
0
100
AcDbSpline
70
4
71
3
72
8
73
4
74
0
42
0.000000001
43
0.0000000001
44
0.0000000001
40
0
40
0
40
0
40
0
40
1
40
1
40
1
40
1
41
1
41
1
41
1
41
1
10
21.904861958821638
20
-48.847533085813161
30
0
10
21.192373148600279
20
-47.093643048276533
30
0
10
20.773018900553399
20
-45.464818051328294
30
0
10
20.457380867004407
20
-43.22538756019874
30
0
0
SPLINE
5
206
100
AcDbEntity
8
0
100
AcDbSpline
70
4
71
3
72
8
73
4
74
0
42
0.000000001
43
0.0000000001
44
0.0000000001
40
0
40
0
40
0
40
0
40
1
40
1
40
1
40
1
41
1
41
1
41
1
41
1
10
20.457380867004407
20
-43.22538756019874
30
0
10
20.346502621968607
20
-42.438718846311204
30
0
10
20.37333399454754
20
-41.825141957273118
30
0
10
20.550745646158877
20
-41.090448430051438
30
0
0
SPLINE
5
207
100
AcDbEntity
8
0
100
AcDbSpline
70
4
71
3
72
8
73
4
74
0
42
0.000000001
43
0.0000000001
44
0.0000000001
40
0
40
0
40
0
40
0
40
1
40
1
40
1
40
1
41
1
41
1
41
1
41
1
10
20.550745646158877
20
-41.090448430051438
30
0
10
20.803782526652039
20
-40.042567462593354
30
0
10
21.001638666788747
20
-39.66077955848975
30
0
10
21.465991783142098
20
-39.324406356483728
30
0
0
SPLINE
5
208
100
AcDbEntity
8
0
100
AcDbSpline
70
4
71
3
72
8
73
4
74
0
42
0.000000001
43
0.0000000001
44
0.0000000001
40
0
40
0
40
0
40
0
40
1
40
1
40
1
40
1
41
1
41
1
41
1
41
1
10
21.465991783142098
20
-39.324406356483728
30
0
10
21.674150911966983
20
-39.173616141945153
30
0
10
21.763115119934096
20
-39.148649965594245
30
0
10
22.092285919189472
20
-39.148649965594245
30
0
0
SPLINE
5
209
100
AcDbEntity
8
0
100
AcDbSpline
70
4
71
3
72
8
73
4
74
0
42
0.000000001
43
0.0000000001
44
0.0000000001
40
0
40
0
40
0
40
0
40
1
40
1
40
1
40
1
41
1
41
1
41
1
41
1
10
22.092285919189472
20
-39.148649965594245
30
0
10
22.513432693481459
20
-39.148649965594245
30
0
10
22.716698710123708
20
-39.228356825182871
30
0
10
22.957761192321797
20
-39.488022823005949
30
0
0
SPLINE
5
210
100
AcDbEntity
8
0
100
AcDbSpline
70
4
71
3
72
8
73
4
74
0
42
0.000000001
43
0.0000000001
44
0.0000000001
40
0
40
0
40
0
40
0
40
1
40
1
40
1
40
1
41
1
41
1
41
1
41
1
10
22.957761192321797
20
-39.488022823005949
30
0
10
23.24498526255292
20
-39.797415275245939
30
0
10
23.335798517862969
20
-40.043173045784272
30
0
10
23.326843961079931
20
-40.486851551999685
30
0
0
SPLINE
5
211
100
AcDbEntity
8
0
100
AcDbSpline
70
4
71
3
72
8
73
4
74
0
42
0.000000001
43
0.0000000001
44
0.0000000001
40
0
40
0
40
0
40
0
40
1
40
1
40
1
40
1
41
1
41
1
41
1
41
1
10
23.326843961079931
20
-40.486851551999685
30
0
10
23.318188158671074
20
-40.915079612404142
30
0
10
23.236603991190616
20
-41.123254890114104
30
0
10
22.673799196879081
20
-42.152932026853193
30
0
0
SPLINE
5
212
100
AcDbEntity
8
0
100
AcDbSpline
70
4
71
3
72
8
73
4
74
0
42
0.000000001
43
0.0000000001
44
0.0000000001
40
0
40
0
40
0
40
0
40
1
40
1
40
1
40
1
41
1
41
1
41
1
41
1
10
22.673799196879081
20
-42.152932026853193
30
0
10
22.316222508748389
20
-42.807135473559335
30
0
10
22.330813026428231
20
-43.189973055193853
30
0
10
22.751249249776215
20
-44.184623260170255
30
0
0
SPLINE
5
213
100
AcDbEntity
8
0
100
AcDbSpline
70
4
71
3
72
8
73
4
74
0
42
0.000000001
43
0.0000000001
44
0.0000000001
40
0
40
0
40
0
40
0
40
1
40
1
40
1
40
1
41
1
41
1
41
1
41
1
10
22.751249249776215
20
-44.184623260170255
30
0
10
23.529609362284365
20
-46.026036217679611
30
0
10
23.934712219238303
20
-46.691321836779551
30
0
10
24.923379262288421
20
-47.751766636838546
30
0
0
SPLINE
5
214
100
AcDbEntity
8
0
100
AcDbSpline
70
4
71
3
72
8
73
4
74
0
42
0.000000001
43
0.0000000001
44
0.0000000001
40
0
40
0
40
0
40
0
40
1
40
1
40
1
40
1
41
1
41
1
41
1
41
1
10
24.923379262288421
20
-47.751766636838546
30
0
10
25.542616335550967
20
-48.415970280637374
30
0
10
26.098267173767109
20
-49.436587892840336
30
0
10
26.506397946675637
20
-50.65944203026099
30
0
0
SPLINE
5
215
100
AcDbEntity
8
0
100
AcDbSpline
70
4
71
3
72
8
73
4
74
0
42
0.000000001
43
0.0000000001
44
0.0000000001
40
0
40
0
40
0
40
0
40
1
40
1
40
1
40
1
41
1
41
1
41
1
41
1
10
26.506397946675637
20
-50.65944203026099
30
0
10
26.802544275919615
20
-51.546770782142914
30
0
10
26.86918265024822
20
-52.05131443626685
30
0
10
26.828988075256373
20
-53.102077979713712
30
0
0
SPLINE
5
216
100
AcDbEntity
8
0
100
AcDbSpline
70
4
71
3
72
8
73
4
74
0
42
0.000000001
43
0.0000000001
44
0.0000000001
40
0
40
0
40
0
40
0
40
1
40
1
40
1
40
1
41
1
41
1
41
1
41
1
10
26.828988075256373
20
-53.102077979713712
30
0
10
26.779112243652357
20
-54.406274051338464
30
0
10
26.576476033528671
20
-55.042584533363616
30
0
10
25.858948771158872
20
-56.148246211677829
30
0
0
SPLINE
5
217
100
AcDbEntity
8
0
100
AcDbSpline
70
4
71
3
72
8
73
4
74
0
42
0.000000001
43
0.0000000001
44
0.0000000001
40
0
40
0
40
0
40
0
40
1
40
1
40
1
40
1
41
1
41
1
41
1
41
1
10
25.858948771158872
20
-56.148246211677829
30
0
10
25.025407918294285
20
-57.432672010729746
30
0
10
23.5779510498047
20
-59.133436253537766
30
0
10
22.669866943359391
20
-59.895417359342211
30
0
0
SPLINE
5
218
100
AcDbEntity
8
0
100
AcDbSpline
70
4
71
3
72
8
73
4
74
0
42
0.000000001
43
0.0000000001
44
0.0000000001
40
0
40
0
40
0
40
0
40
1
40
1
40
1
40
1
41
1
41
1
41
1
41
1
10
22.669866943359391
20
-59.895417359342211
30
0
10
22.378589502970385
20
-60.139834772417977
30
0
10
21.834323628743508
20
-60.63002206769589
30
0
10
21.460404268900568
20
-60.984720217059092
30
0
0
SPLINE
5
219
100
AcDbEntity
8
0
100
AcDbSpline
70
4
71
3
72
8
73
4
74
0
42
0.000000001
43
0.0000000001
44
0.0000000001
40
0
40
0
40
0
40
0
40
1
40
1
40
1
40
1
41
1
41
1
41
1
41
1
10
21.460404268900568
20
-60.984720217059092
30
0
10
20.675931803385428
20
-61.728856804837818
30
0
10
19.982329114278166
20
-62.30008727994565
30
0
10
19.724867439270035
20
-62.414049962033864
30
0
0
LINE
5
220
100
AcDbEntity
8
0
100
AcDbLine
10
19.724867439270035
20
-62.414049962033872
30
0
11
19.54570363362631
21
-62.493349062273936
31
0
0
LINE
5
221
100
AcDbEntity
8
0
100
AcDbLine
10
19.54570363362631
20
-62.493349062273936
30
0
11
19.793823178609227
21
-62.654963067044854
31
0
0
SPLINE
5
222
100
AcDbEntity
8
0
100
AcDbSpline
70
4
71
3
72
8
73
4
74
0
42
0.000000001
43
0.0000000001
44
0.0000000001
40
0
40
0
40
0
40
0
40
1
40
1
40
1
40
1
41
1
41
1
41
1
41
1
10
19.793823178609227
20
-62.654963067044847
30
0
10
20.559207661946637
20
-63.153495298693613
30
0
10
21.507429822285982
20
-64.355864575376145
30
0
10
21.856859397888204
20
-65.270933074623386
30
0
0
SPLINE
5
223
100
AcDbEntity
8
0
100
AcDbSpline
70
4
71
3
72
8
73
4
74
0
42
0.000000001
43
0.0000000001
44
0.0000000001
40
0
40
0
40
0
40
0
40
1
40
1
40
1
40
1
41
1
41
1
41
1
41
1
10
21.856859397888204
20
-65.270933074623386
30
0
10
22.211658477783214
20
-66.200047066678636
30
0
10
22.258554840087914
20
-66.563619028399415
30
0
10
22.176106707255059
20
-67.745773938169108
30
0
0
SPLINE
5
224
100
AcDbEntity
8
0
100
AcDbSpline
70
4
71
3
72
8
73
4
74
0
42
0.000000001
43
0.0000000001
44
0.0000000001
40
0
40
0
40
0
40
0
40
1
40
1
40
1
40
1
41
1
41
1
41
1
41
1
10
22.176106707255059
20
-67.745773938169108
30
0
10
22.059164555867525
20
-69.422593421608241
30
0
10
22.060553359985366
20
-69.469546305010752
30
0
10
22.238522148132347
20
-69.850506578753425
30
0
0
SPLINE
5
225
100
AcDbEntity
8
0
100
AcDbSpline
70
4
71
3
72
8
73
4
74
0
42
0.000000001
43
0.0000000001
44
0.0000000001
40
0
40
0
40
0
40
0
40
1
40
1
40
1
40
1
41
1
41
1
41
1
41
1
10
22.238522148132347
20
-69.850506578753425
30
0
10
22.333808644612638
20
-70.054483146339692
30
0
10
22.484937985738132
20
-70.254850438108079
30
0
10
22.622881762186697
20
-70.360100796689622
30
0
0
SPLINE
5
226
100
AcDbEntity
8
0
100
AcDbSpline
70
4
71
3
72
8
73
4
74
0
42
0.000000001
43
0.0000000001
44
0.0000000001
40
0
40
0
40
0
40
0
40
1
40
1
40
1
40
1
41
1
41
1
41
1
41
1
10
22.622881762186697
20
-70.360100796689622
30
0
10
22.823588180542007
20
-70.513232599566422
30
0
10
22.908579762776711
20
-70.536010601987471
30
0
10
23.348822593688983
20
-70.554654489825197
30
0
0
SPLINE
5
227
100
AcDbEntity
8
0
100
AcDbSpline
70
4
71
3
72
8
73
4
74
0
42
0.000000001
43
0.0000000001
44
0.0000000001
40
0
40
0
40
0
40
0
40
1
40
1
40
1
40
1
41
1
41
1
41
1
41
1
10
23.348822593688983
20
-70.554654489825197
30
0
10
23.798916244506856
20
-70.573702099790211
30
0
10
23.873402976989766
20
-70.560556907326017
30
0
10
24.11421515146893
20
-70.41942372607194
30
0
0
SPLINE
5
228
100
AcDbEntity
8
0
100
AcDbSpline
70
4
71
3
72
8
73
4
74
0
42
0.000000001
43
0.0000000001
44
0.0000000001
40
0
40
0
40
0
40
0
40
1
40
1
40
1
40
1
41
1
41
1
41
1
41
1
10
24.11421515146893
20
-70.41942372607194
30
0
10
24.522313626607275
20
-70.18025873787208
30
0
10
24.981709035237643
20
-69.55325405088071
30
0
10
25.347618548075381
20
-68.736031646400718
30
0
0
SPLINE
5
229
100
AcDbEntity
8
0
100
AcDbSpline
70
4
71
3
72
8
73
4
74
0
42
0.000000001
43
0.0000000001
44
0.0000000001
40
0
40
0
40
0
40
0
40
1
40
1
40
1
40
1
41
1
41
1
41
1
41
1
10
25.347618548075381
20
-68.736031646400718
30
0
10
25.604353523254417
20
-68.162625109026862
30
0
10
26.116757647196476
20
-67.408246090879075
30
0
10
26.480801963806169
20
-67.067726662625915
30
0
0
SPLINE
5
230
100
AcDbEntity
8
0
100
AcDbSpline
70
4
71
3
72
8
73
4
74
0
42
0.000000001
43
0.0000000001
44
0.0000000001
40
0
40
0
40
0
40
0
40
1
40
1
40
1
40
1
41
1
41
1
41
1
41
1
10
26.480801963806169
20
-67.067726662625915
30
0
10
27.093563334147159
20
-66.494558321307139
30
0
10
28.345747884114605
20
-66.067557576169605
30
0
10
29.167039807637547
20
-66.151705379158287
30
0
0
SPLINE
5
231
100
AcDbEntity
8
0
100
AcDbSpline
70
4
71
3
72
8
73
4
74
0
42
0.000000001
43
0.0000000001
44
0.0000000001
40
0
40
0
40
0
40
0
40
1
40
1
40
1
40
1
41
1
41
1
41
1
41
1
10
29.167039807637547
20
-66.151705379158287
30
0
10
29.913352457682301
20
-66.228166312843598
30
0
10
30.686407661438011
20
-66.660302403440113
30
0
10
30.838966178894065
20
-67.086301917701988
30
0
0
SPLINE
5
232
100
AcDbEntity
8
0
100
AcDbSpline
70
4
71
3
72
8
73
4
74
0
42
0.000000001
43
0.0000000001
44
0.0000000001
40
0
40
0
40
0
40
0
40
1
40
1
40
1
40
1
41
1
41
1
41
1
41
1
10
30.838966178894065
20
-67.086301917701988
30
0
10
30.96513741811119
20
-67.438610032071708
30
0
10
30.940437698364267
20
-67.867536531756357
30
0
10
30.774120330810568
20
-68.212282930682136
30
0
0
SPLINE
5
233
100
AcDbEntity
8
0
100
AcDbSpline
70
4
71
3
72
8
73
4
74
0
42
0.000000001
43
0.0000000001
44
0.0000000001
40
0
40
0
40
0
40
0
40
1
40
1
40
1
40
1
41
1
41
1
41
1
41
1
10
30.774120330810568
20
-68.212282930682136
30
0
10
30.590782038370783
20
-68.592330792417158
30
0
10
30.489157104492204
20
-68.660947405169438
30
0
10
29.824226760864274
20
-68.853635902077002
30
0
0
SPLINE
5
234
100
AcDbEntity
8
0
100
AcDbSpline
70
4
71
3
72
8
73
4
74
0
42
0.000000001
43
0.0000000001
44
0.0000000001
40
0
40
0
40
0
40
0
40
1
40
1
40
1
40
1
41
1
41
1
41
1
41
1
10
29.824226760864274
20
-68.853635902077002
30
0
10
29.534604581197126
20
-68.937561657895671
30
0
10
29.163374010721856
20
-69.074270044634773
30
0
10
28.999269040425641
20
-69.157428728411631
30
0
0
SPLINE
5
235
100
AcDbEntity
8
0
100
AcDbSpline
70
4
71
3
72
8
73
4
74
0
42
0.000000001
43
0.0000000001
44
0.0000000001
40
0
40
0
40
0
40
0
40
1
40
1
40
1
40
1
41
1
41
1
41
1
41
1
10
28.999269040425641
20
-69.157428728411631
30
0
10
28.453242937723822
20
-69.434115651120777
30
0
10
27.985587374369327
20
-70.053707999855305
30
0
10
27.985587374369327
20
-70.500426533689136
30
0
0
SPLINE
5
236
100
AcDbEntity
8
0
100
AcDbSpline
70
4
71
3
72
8
73
4
74
0
42
0.000000001
43
0.0000000001
44
0.0000000001
40
0
40
0
40
0
40
0
40
1
40
1
40
1
40
1
41
1
41
1
41
1
41
1
10
27.985587374369327
20
-70.500426533689136
30
0
10
27.985587374369327
20
-70.864995689064301
30
0
10
28.19475580851238
20
-71.098379376401539
30
0
10
28.649774869283053
20
-71.241523093849452
30
0
0
SPLINE
5
237
100
AcDbEntity
8
0
100
AcDbSpline
70
4
71
3
72
8
73
4
74
0
42
0.000000001
43
0.0000000001
44
0.0000000001
40
0
40
0
40
0
40
0
40
1
40
1
40
1
40
1
41
1
41
1
41
1
41
1
10
28.649774869283053
20
-71.241523093849452
30
0
10
28.943733024597194
20
-71.333991609881352
30
0
10
29.994605573018411
20
-70.910503247251157
30
0
10
30.759214909871435
20
-70.391437708208997
30
0
0
SPLINE
5
238
100
AcDbEntity
8
0
100
AcDbSpline
70
4
71
3
72
8
73
4
74
0
42
0.000000001
43
0.0000000001
44
0.0000000001
40
0
40
0
40
0
40
0
40
1
40
1
40
1
40
1
41
1
41
1
41
1
41
1
10
30.759214909871435
20
-70.391437708208997
30
0
10
31.885325113932304
20
-69.626957562436701
30
0
10
32.754215876261412
20
-68.540678583453143
30
0
10
33.1113484700521
20
-67.450782254209159
30
0
0
SPLINE
5
239
100
AcDbEntity
8
0
100
AcDbSpline
70
4
71
3
72
8
73
4
74
0
42
0.000000001
43
0.0000000001
44
0.0000000001
40
0
40
0
40
0
40
0
40
1
40
1
40
1
40
1
41
1
41
1
41
1
41
1
10
33.1113484700521
20
-67.450782254209159
30
0
10
33.273111852010118
20
-66.957114874194104
30
0
10
33.315252367655447
20
-66.004968534777589
30
0
10
33.196469243367531
20
-65.527546933164231
30
0
0
SPLINE
5
240
100
AcDbEntity
8
0
100
AcDbSpline
70
4
71
3
72
8
73
4
74
0
42
0.000000001
43
0.0000000001
44
0.0000000001
40
0
40
0
40
0
40
0
40
1
40
1
40
1
40
1
41
1
41
1
41
1
41
1
10
33.196469243367531
20
-65.527546933164231
30
0
10
33.104089546203639
20
-65.156247729927344
30
0
10
32.841508674621593
20
-64.426116262743903
30
0
10
32.51559187571209
20
-63.634304128954838
30
0
0
SPLINE
5
241
100
AcDbEntity
8
0
100
AcDbSpline
70
4
71
3
72
8
73
4
74
0
42
0.000000001
43
0.0000000001
44
0.0000000001
40
0
40
0
40
0
40
0
40
1
40
1
40
1
40
1
41
1
41
1
41
1
41
1
10
32.51559187571209
20
-63.634304128954838
30
0
10
32.267706489563004
20
-63.032059720029466
30
0
10
32.160316403706886
20
-62.220751844714115
30
0
10
32.167058563232445
20
-61.001167856524425
30
0
0
SPLINE
5
242
100
AcDbEntity
8
0
100
AcDbSpline
70
4
71
3
72
8
73
4
74
0
42
0.000000001
43
0.0000000001
44
0.0000000001
40
0
40
0
40
0
40
0
40
1
40
1
40
1
40
1
41
1
41
1
41
1
41
1
10
32.167058563232445
20
-61.001167856524425
30
0
10
32.172718747456898
20
-59.975362414985931
30
0
10
32.251565678914403
20
-59.003171271950038
30
0
10
32.340796343485536
20
-58.858792164792646
30
0
0
SPLINE
5
243
100
AcDbEntity
8
0
100
AcDbSpline
70
4
71
3
72
8
73
4
74
0
42
0.000000001
43
0.0000000001
44
0.0000000001
40
0
40
0
40
0
40
0
40
1
40
1
40
1
40
1
41
1
41
1
41
1
41
1
10
32.340796343485536
20
-58.858792164792646
30
0
10
32.363388633728043
20
-58.822223014503756
30
0
10
32.509850947062198
20
-58.409841047594981
30
0
10
32.666244824727393
20
-57.9423913825254
30
0
0
SPLINE
5
244
100
AcDbEntity
8
0
100
AcDbSpline
70
4
71
3
72
8
73
4
74
0
42
0.000000001
43
0.0000000001
44
0.0000000001
40
0
40
0
40
0
40
0
40
1
40
1
40
1
40
1
41
1
41
1
41
1
41
1
10
32.666244824727393
20
-57.9423913825254
30
0
10
33.719822311401387
20
-54.793294194211597
30
0
10
35.548045667012559
20
-53.157545362780525
30
0
10
38.406874720255558
20
-52.806137548754641
30
0
0
SPLINE
5
245
100
AcDbEntity
8
0
100
AcDbSpline
70
4
71
3
72
8
73
4
74
0
42
0.000000001
43
0.0000000001
44
0.0000000001
40
0
40
0
40
0
40
0
40
1
40
1
40
1
40
1
41
1
41
1
41
1
41
1
10
38.406874720255558
20
-52.806137548754641
30
0
10
39.612025642395032
20
-52.657999788592292
30
0
10
41.191862996419282
20
-53.101585438718431
30
0
10
42.439259401957216
20
-53.938335882494883
30
0
0
SPLINE
5
246
100
AcDbEntity
8
0
100
AcDbSpline
70
4
71
3
72
8
73
4
74
0
42
0.000000001
43
0.0000000001
44
0.0000000001
40
0
40
0
40
0
40
0
40
1
40
1
40
1
40
1
41
1
41
1
41
1
41
1
10
42.439259401957216
20
-53.938335882494883
30
0
10
42.927900441487651
20
-54.266117877632418
30
0
10
43.704734484354674
20
-54.600928675005861
30
0
10
44.436335500081405
20
-54.799055308967866
30
0
0
SPLINE
5
247
100
AcDbEntity
8
0
100
AcDbSpline
70
4
71
3
72
8
73
4
74
0
42
0.000000001
43
0.0000000001
44
0.0000000001
40
0
40
0
40
0
40
0
40
1
40
1
40
1
40
1
41
1
41
1
41
1
41
1
10
44.436335500081405
20
-54.799055308967866
30
0
10
44.794202868143742
20
-54.895968805621102
30
0
10
45.035838635762545
20
-54.922259190549489
30
0
10
45.425543530782079
20
-54.906675516436529
30
0
0
SPLINE
5
248
100
AcDbEntity
8
0
100
AcDbSpline
70
4
71
3
72
8
73
4
74
0
42
0.000000001
43
0.0000000001
44
0.0000000001
40
0
40
0
40
0
40
0
40
1
40
1
40
1
40
1
41
1
41
1
41
1
41
1
10
45.425543530782079
20
-54.906675516436529
30
0
10
46.196095657348657
20
-54.875863443682618
30
0
10
46.464118703206395
20
-54.719760245949061
30
0
10
47.49390080769858
20
-53.702000986407235
30
0
0
SPLINE
5
249
100
AcDbEntity
8
0
100
AcDbSpline
70
4
71
3
72
8
73
4
74
0
42
0.000000001
43
0.0000000001
44
0.0000000001
40
0
40
0
40
0
40
0
40
1
40
1
40
1
40
1
41
1
41
1
41
1
41
1
10
47.49390080769858
20
-53.702000986407235
30
0
10
48.27828445434573
20
-52.926781832049329
30
0
10
48.341894912719745
20
-52.877660960823327
30
0
10
48.561439005533877
20
-52.877660960823327
30
0
0
SPLINE
5
250
100
AcDbEntity
8
0
100
AcDbSpline
70
4
71
3
72
8
73
4
74
0
42
0.000000001
43
0.0000000001
44
0.0000000001
40
0
40
0
40
0
40
0
40
1
40
1
40
1
40
1
41
1
41
1
41
1
41
1
10
48.561439005533877
20
-52.877660960823327
30
0
10
48.689838790893575
20
-52.877660960823327
30
0
10
48.872240447998067
20
-52.917661749194096
30
0
10
48.966776021321635
20
-52.966548461586271
30
0
0
SPLINE
5
251
100
AcDbEntity
8
0
100
AcDbSpline
70
4
71
3
72
8
73
4
74
0
42
0.000000001
43
0.0000000001
44
0.0000000001
40
0
40
0
40
0
40
0
40
1
40
1
40
1
40
1
41
1
41
1
41
1
41
1
10
48.966776021321635
20
-52.966548461586271
30
0
10
49.238077290852885
20
-53.106845938036869
30
0
10
49.299539947509778
20
-53.379350299507415
30
0
10
49.291465504964208
20
-54.406439577410652
30
0
0
SPLINE
5
252
100
AcDbEntity
8
0
100
AcDbSpline
70
4
71
3
72
8
73
4
74
0
42
0.000000001
43
0.0000000001
44
0.0000000001
40
0
40
0
40
0
40
0
40
1
40
1
40
1
40
1
41
1
41
1
41
1
41
1
10
49.291465504964208
20
-54.406439577410652
30
0
10
49.285280481974297
20
-55.196685269345878
30
0
10
49.264884440104183
20
-55.370782362292246
30
0
10
49.123371760050475
20
-55.8423298069537
30
0
0
SPLINE
5
253
100
AcDbEntity
8
0
100
AcDbSpline
70
4
71
3
72
8
73
4
74
0
42
0.000000001
43
0.0000000001
44
0.0000000001
40
0
40
0
40
0
40
0
40
1
40
1
40
1
40
1
41
1
41
1
41
1
41
1
10
49.123371760050475
20
-55.8423298069537
30
0
10
48.841799799601247
20
-56.78060425407692
30
0
10
48.552880096435572
20
-57.249793961515067
30
0
10
47.744757588704445
20
-58.081102231015798
30
0
0
SPLINE
5
254
100
AcDbEntity
8
0
100
AcDbSpline
70
4
71
3
72
8
73
4
74
0
42
0.000000001
43
0.0000000001
44
0.0000000001
40
0
40
0
40
0
40
0
40
1
40
1
40
1
40
1
41
1
41
1
41
1
41
1
10
47.744757588704445
20
-58.081102231015798
30
0
10
46.909811782836925
20
-58.94000490791602
30
0
10
46.441946283976264
20
-59.258695080747245
30
0
10
45.572361119588237
20
-59.560840720802581
30
0
0
SPLINE
5
255
100
AcDbEntity
8
0
100
AcDbSpline
70
4
71
3
72
8
73
4
74
0
42
0.000000001
43
0.0000000001
44
0.0000000001
40
0
40
0
40
0
40
0
40
1
40
1
40
1
40
1
41
1
41
1
41
1
41
1
10
45.572361119588237
20
-59.560840720802581
30
0
10
44.619423484802269
20
-59.891949386268884
30
0
10
43.023413022359236
20
-60.026675497363044
30
0
10
42.044322268168145
20
-59.858662496874764
30
0
0
SPLINE
5
256
100
AcDbEntity
8
0
100
AcDbSpline
70
4
71
3
72
8
73
4
74
0
42
0.000000001
43
0.0000000001
44
0.0000000001
40
0
40
0
40
0
40
0
40
1
40
1
40
1
40
1
41
1
41
1
41
1
41
1
10
42.044322268168145
20
-59.858662496874764
30
0
10
40.797983614603694
20
-59.644786662727626
30
0
10
39.507364718119327
20
-59.674141298602059
30
0
10
39.089609209696476
20
-59.92586204496029
30
0
0
SPLINE
5
257
100
AcDbEntity
8
0
100
AcDbSpline
70
4
71
3
72
8
73
4
74
0
42
0.000000001
43
0.0000000001
44
0.0000000001
40
0
40
0
40
0
40
0
40
1
40
1
40
1
40
1
41
1
41
1
41
1
41
1
10
39.089609209696476
20
-59.92586204496029
30
0
10
38.861804962158217
20
-60.063127568235039
30
0
10
38.370580101013196
20
-60.697911980619068
30
0
10
38.187895838419621
20
-61.091088885933196
30
0
0
SPLINE
5
258
100
AcDbEntity
8
0
100
AcDbSpline
70
4
71
3
72
8
73
4
74
0
42
0.000000001
43
0.0000000001
44
0.0000000001
40
0
40
0
40
0
40
0
40
1
40
1
40
1
40
1
41
1
41
1
41
1
41
1
10
38.187895838419621
20
-61.091088885933196
30
0
10
38.075184694925959
20
-61.333665326108573
30
0
10
38.027803866068538
20
-61.551332111030852
30
0
10
38.008651288350435
20
-61.914536685615815
30
0
0
SPLINE
5
259
100
AcDbEntity
8
0
100
AcDbSpline
70
4
71
3
72
8
73
4
74
0
42
0.000000001
43
0.0000000001
44
0.0000000001
40
0
40
0
40
0
40
0
40
1
40
1
40
1
40
1
41
1
41
1
41
1
41
1
10
38.008651288350435
20
-61.914536685615815
30
0
10
37.985259628295921
20
-62.35781550692522
30
0
10
37.998994255065938
20
-62.441745299965177
30
0
10
38.143026161193859
20
-62.736127363512949
30
0
0
SPLINE
5
260
100
AcDbEntity
8
0
100
AcDbSpline
70
4
71
3
72
8
73
4
74
0
42
0.000000001
43
0.0000000001
44
0.0000000001
40
0
40
0
40
0
40
0
40
1
40
1
40
1
40
1
41
1
41
1
41
1
41
1
10
38.143026161193859
20
-62.736127363512949
30
0
10
38.231255594889348
20
-62.916457926104499
30
0
10
38.380253283182796
20
-63.128638127317068
30
0
10
38.474134826660169
20
-63.20763443596168
30
0
0
SPLINE
5
261
100
AcDbEntity
8
0
100
AcDbSpline
70
4
71
3
72
8
73
4
74
0
42
0.000000001
43
0.0000000001
44
0.0000000001
40
0
40
0
40
0
40
0
40
1
40
1
40
1
40
1
41
1
41
1
41
1
41
1
10
38.474134826660169
20
-63.20763443596168
30
0
10
38.721753756205253
20
-63.415987351407644
30
0
10
39.252963256835955
20
-63.506251544624604
30
0
10
39.786352856953954
20
-63.430602092415128
30
0
0
SPLINE
5
262
100
AcDbEntity
8
0
100
AcDbSpline
70
4
71
3
72
8
73
4
74
0
42
0.000000001
43
0.0000000001
44
0.0000000001
40
0
40
0
40
0
40
0
40
1
40
1
40
1
40
1
41
1
41
1
41
1
41
1
10
39.786352856953954
20
-63.430602092415128
30
0
10
40.022304217020697
20
-63.397137565285
30
0
10
40.560982577006044
20
-63.352267888059252
30
0
10
40.983405113220229
20
-63.330886764198581
30
0
0
SPLINE
5
263
100
AcDbEntity
8
0
100
AcDbSpline
70
4
71
3
72
8
73
4
74
0
42
0.000000001
43
0.0000000001
44
0.0000000001
40
0
40
0
40
0
40
0
40
1
40
1
40
1
40
1
41
1
41
1
41
1
41
1
10
40.983405113220229
20
-63.330886764198581
30
0
10
41.851012039184582
20
-63.286977945635748
30
0
10
42.014123853047707
20
-63.32210177070899
30
0
10
42.89766165415449
20
-63.742998237282073
30
0
0
SPLINE
5
264
100
AcDbEntity
8
0
100
AcDbSpline
70
4
71
3
72
8
73
4
74
0
42
0.000000001
43
0.0000000001
44
0.0000000001
40
0
40
0
40
0
40
0
40
1
40
1
40
1
40
1
41
1
41
1
41
1
41
1
10
42.89766165415449
20
-63.742998237282073
30
0
10
43.911504809061711
20
-64.225983129809336
30
0
10
44.367355537414568
20
-65.080465049415864
30
0
10
44.377408218383806
20
-66.516750926643638
30
0
0
SPLINE
5
265
100
AcDbEntity
8
0
100
AcDbSpline
70
4
71
3
72
8
73
4
74
0
42
0.000000001
43
0.0000000001
44
0.0000000001
40
0
40
0
40
0
40
0
40
1
40
1
40
1
40
1
41
1
41
1
41
1
41
1
10
44.377408218383806
20
-66.516750926643638
30
0
10
44.382115618387878
20
-67.188447653124769
30
0
10
44.370980962117542
20
-67.260972296069099
30
0
10
44.209807014465348
20
-67.609937591224949
30
0
0
SPLINE
5
266
100
AcDbEntity
8
0
100
AcDbSpline
70
4
71
3
72
8
73
4
74
0
42
0.000000001
43
0.0000000001
44
0.0000000001
40
0
40
0
40
0
40
0
40
1
40
1
40
1
40
1
41
1
41
1
41
1
41
1
10
44.209807014465348
20
-67.609937591224949
30
0
10
43.999605051676447
20
-68.065029321978528
30
0
10
43.56918074289959
20
-68.48929283109311
30
0
10
43.223158582051617
20
-68.582463823626483
30
0
0
SPLINE
5
267
100
AcDbEntity
8
0
100
AcDbSpline
70
4
71
3
72
8
73
4
74
0
42
0.000000001
43
0.0000000001
44
0.0000000001
40
0
40
0
40
0
40
0
40
1
40
1
40
1
40
1
41
1
41
1
41
1
41
1
10
43.223158582051617
20
-68.582463823626483
30
0
10
43.05006675720216
20
-68.629069505999524
30
0
10
42.865694936116547
20
-68.630119183530439
30
0
10
42.589847755432153
20
-68.586065025001801
30
0
0
SPLINE
5
268
100
AcDbEntity
8
0
100
AcDbSpline
70
4
71
3
72
8
73
4
74
0
42
0.000000001
43
0.0000000001
44
0.0000000001
40
0
40
0
40
0
40
0
40
1
40
1
40
1
40
1
41
1
41
1
41
1
41
1
10
42.589847755432153
20
-68.586065025001801
30
0
10
42.137024943033872
20
-68.513726094236006
30
0
10
42.156169446309434
20
-68.519943414996106
30
0
10
41.414814503987643
20
-68.204248860349296
30
0
0
SPLINE
5
269
100
AcDbEntity
8
0
100
AcDbSpline
70
4
71
3
72
8
73
4
74
0
42
0.000000001
43
0.0000000001
44
0.0000000001
40
0
40
0
40
0
40
0
40
1
40
1
40
1
40
1
41
1
41
1
41
1
41
1
10
41.414814503987643
20
-68.204248860349296
30
0
10
40.863338152567565
20
-67.969411773353855
30
0
10
40.824346669514995
20
-67.961765276263193
30
0
10
40.18579552968346
20
-67.963428611427588
30
0
0
SPLINE
5
270
100
AcDbEntity
8
0
100
AcDbSpline
70
4
71
3
72
8
73
4
74
0
42
0.000000001
43
0.0000000001
44
0.0000000001
40
0
40
0
40
0
40
0
40
1
40
1
40
1
40
1
41
1
41
1
41
1
41
1
10
40.18579552968346
20
-67.963428611427588
30
0
10
39.421388053894063
20
-67.965544115374513
30
0
10
39.071659723917662
20
-68.046732635170258
30
0
10
38.902484003702824
20
-68.261795412371583
30
0
0
SPLINE
5
271
100
AcDbEntity
8
0
100
AcDbSpline
70
4
71
3
72
8
73
4
74
0
42
0.000000001
43
0.0000000001
44
0.0000000001
40
0
40
0
40
0
40
0
40
1
40
1
40
1
40
1
41
1
41
1
41
1
41
1
10
38.902484003702824
20
-68.261795412371583
30
0
10
38.718653170267757
20
-68.495494002968101
30
0
10
38.550946998596203
20
-68.997950413694028
30
0
10
38.419172096252453
20
-69.709777119626636
30
0
0
SPLINE
5
272
100
AcDbEntity
8
0
100
AcDbSpline
70
4
71
3
72
8
73
4
74
0
42
0.000000001
43
0.0000000001
44
0.0000000001
40
0
40
0
40
0
40
0
40
1
40
1
40
1
40
1
41
1
41
1
41
1
41
1
10
38.419172096252453
20
-69.709777119626636
30
0
10
38.353607622782405
20
-70.063930244118012
30
0
10
38.257465235392267
20
-70.583011932045252
30
0
10
38.205522346496608
20
-70.863291981687183
30
0
0
SPLINE
5
273
100
AcDbEntity
8
0
100
AcDbSpline
70
4
71
3
72
8
73
4
74
0
42
0.000000001
43
0.0000000001
44
0.0000000001
40
0
40
0
40
0
40
0
40
1
40
1
40
1
40
1
41
1
41
1
41
1
41
1
10
38.205522346496608
20
-70.863291981687183
30
0
10
38.076476605733248
20
-71.559535013506846
30
0
10
37.775525983174667
20
-72.159102744728358
30
0
10
37.36829147338868
20
-72.531302248309089
30
0
0
SPLINE
5
274
100
AcDbEntity
8
0
100
AcDbSpline
70
4
71
3
72
8
73
4
74
0
42
0.000000001
43
0.0000000001
44
0.0000000001
40
0
40
0
40
0
40
0
40
1
40
1
40
1
40
1
41
1
41
1
41
1
41
1
10
37.36829147338868
20
-72.531302248309089
30
0
10
36.773536109924336
20
-73.074873720477058
30
0
10
36.2952788035075
20
-73.198848711321787
30
0
10
34.787126350402851
20
-73.200382855405451
30
0
0
SPLINE
5
275
100
AcDbEntity
8
0
100
AcDbSpline
70
4
71
3
72
8
73
4
74
0
42
0.000000001
43
0.0000000001
44
0.0000000001
40
0
40
0
40
0
40
0
40
1
40
1
40
1
40
1
41
1
41
1
41
1
41
1
10
34.787126350402851
20
-73.200382855405451
30
0
10
33.785225296020528
20
-73.201440607378913
30
0
10
33.760121854146341
20
-73.204565416644044
30
0
10
33.521271769205754
20
-73.359425150225604
30
0
0
SPLINE
5
276
100
AcDbEntity
8
0
100
AcDbSpline
70
4
71
3
72
8
73
4
74
0
42
0.000000001
43
0.0000000001
44
0.0000000001
40
0
40
0
40
0
40
0
40
1
40
1
40
1
40
1
41
1
41
1
41
1
41
1
10
33.521271769205754
20
-73.359425150225604
30
0
10
33.222767702738466
20
-73.55297761248552
30
0
10
32.960889307657894
20
-73.941866988807959
30
0
10
32.963570022583028
20
-74.187636871010099
30
0
0
SPLINE
5
277
100
AcDbEntity
8
0
100
AcDbSpline
70
4
71
3
72
8
73
4
74
0
42
0.000000001
43
0.0000000001
44
0.0000000001
40
0
40
0
40
0
40
0
40
1
40
1
40
1
40
1
41
1
41
1
41
1
41
1
10
32.963570022583028
20
-74.187636871010099
30
0
10
32.964627774556504
20
-74.288204052915205
30
0
10
33.056167729695659
20
-74.599796790748869
30
0
10
33.166916783650734
20
-74.880068765948252
30
0
0
SPLINE
5
278
100
AcDbEntity
8
0
100
AcDbSpline
70
4
71
3
72
8
73
4
74
0
42
0.000000001
43
0.0000000001
44
0.0000000001
40
0
40
0
40
0
40
0
40
1
40
1
40
1
40
1
41
1
41
1
41
1
41
1
10
33.166916783650734
20
-74.880068765948252
30
0
10
33.868311309814473
20
-76.655146140724455
30
0
10
33.816166559855162
20
-76.46283714261655
30
0
10
33.787881787618019
20
-77.169940299659999
30
0
0
SPLINE
5
279
100
AcDbEntity
8
0
100
AcDbSpline
70
4
71
3
72
8
73
4
74
0
42
0.000000001
43
0.0000000001
44
0.0000000001
40
0
40
0
40
0
40
0
40
1
40
1
40
1
40
1
41
1
41
1
41
1
41
1
10
33.787881787618019
20
-77.169940299659999
30
0
10
33.764490127563498
20
-77.754828694333668
30
0
10
33.744190979003932
20
-77.846796594927753
30
0
10
33.556750869750985
20
-78.217332763344089
30
0
0
SPLINE
5
280
100
AcDbEntity
8
0
100
AcDbSpline
70
4
71
3
72
8
73
4
74
0
42
0.000000001
43
0.0000000001
44
0.0000000001
40
0
40
0
40
0
40
0
40
1
40
1
40
1
40
1
41
1
41
1
41
1
41
1
10
33.556750869750985
20
-78.217332763344089
30
0
10
33.164550971984887
20
-78.992632662127448
30
0
10
32.345673306783063
20
-79.618046683937351
30
0
10
31.455982780456555
20
-79.821797167132331
30
0
0
SPLINE
5
281
100
AcDbEntity
8
0
100
AcDbSpline
70
4
71
3
72
8
73
4
74
0
42
0.000000001
43
0.0000000001
44
0.0000000001
40
0
40
0
40
0
40
0
40
1
40
1
40
1
40
1
41
1
41
1
41
1
41
1
10
31.455982780456555
20
-79.821797167132331
30
0
10
30.801952934265149
20
-79.971578076352714
30
0
10
30.10736516316733
20
-79.998207587868009
30
0
10
29.604262797037784
20
-79.89279574043556
30
0
0
SPLINE
5
282
100
AcDbEntity
8
0
100
AcDbSpline
70
4
71
3
72
8
73
4
74
0
42
0.000000001
43
0.0000000001
44
0.0000000001
40
0
40
0
40
0
40
0
40
1
40
1
40
1
40
1
41
1
41
1
41
1
41
1
10
29.604262797037784
20
-79.89279574043556
30
0
10
28.43147424062094
20
-79.647066230446143
30
0
10
27.445988527933771
20
-78.797651023536957
30
0
10
27.445988527933771
20
-78.032524922361006
30
0
0
SPLINE
5
283
100
AcDbEntity
8
0
100
AcDbSpline
70
4
71
3
72
8
73
4
74
0
42
0.000000001
43
0.0000000001
44
0.0000000001
40
0
40
0
40
0
40
0
40
1
40
1
40
1
40
1
41
1
41
1
41
1
41
1
10
27.445988527933771
20
-78.032524922361006
30
0
10
27.445988527933771
20
-77.786973050107605
30
0
10
27.474281374613465
20
-77.734634513527197
30
0
10
27.763273747762067
20
-77.445601768165858
30
0
0
SPLINE
5
284
100
AcDbEntity
8
0
100
AcDbSpline
70
4
71
3
72
8
73
4
74
0
42
0.000000001
43
0.0000000001
44
0.0000000001
40
0
40
0
40
0
40
0
40
1
40
1
40
1
40
1
41
1
41
1
41
1
41
1
10
27.763273747762067
20
-77.445601768165858
30
0
10
28.176491419474292
20
-77.03231950091326
30
0
10
28.397303199768089
20
-76.73543839739763
30
0
10
28.463731638590506
20
-76.503790715207685
30
0
0
SPLINE
5
285
100
AcDbEntity
8
0
100
AcDbSpline
70
4
71
3
72
8
73
4
74
0
42
0.000000001
43
0.0000000001
44
0.0000000001
40
0
40
0
40
0
40
0
40
1
40
1
40
1
40
1
41
1
41
1
41
1
41
1
10
28.463731638590506
20
-76.503790715207685
30
0
10
28.589192326863628
20
-76.066325492531092
30
0
10
27.976923497517916
20
-75.781120032936371
30
0
10
26.81648883819582
20
-75.736484514544443
30
0
0
SPLINE
5
286
100
AcDbEntity
8
0
100
AcDbSpline
70
4
71
3
72
8
73
4
74
0
42
0.000000001
43
0.0000000001
44
0.0000000001
40
0
40
0
40
0
40
0
40
1
40
1
40
1
40
1
41
1
41
1
41
1
41
1
10
26.81648883819582
20
-75.736484514544443
30
0
10
25.431180953979506
20
-75.683193193743662
30
0
10
24.648743247985863
20
-75.980098520586921
30
0
10
23.75112361907961
20
-76.899656409889502
30
0
0
SPLINE
5
287
100
AcDbEntity
8
0
100
AcDbSpline
70
4
71
3
72
8
73
4
74
0
42
0.000000001
43
0.0000000001
44
0.0000000001
40
0
40
0
40
0
40
0
40
1
40
1
40
1
40
1
41
1
41
1
41
1
41
1
10
23.75112361907961
20
-76.899656409889502
30
0
10
22.731394195556653
20
-77.944319711993174
30
0
10
22.503581873575857
20
-78.939736989011408
30
0
10
23.179864883422869
20
-79.395749206215186
30
0
0
SPLINE
5
288
100
AcDbEntity
8
0
100
AcDbSpline
70
4
71
3
72
8
73
4
74
0
42
0.000000001
43
0.0000000001
44
0.0000000001
40
0
40
0
40
0
40
0
40
1
40
1
40
1
40
1
41
1
41
1
41
1
41
1
10
23.179864883422869
20
-79.395749206215186
30
0
10
24.240346018473318
20
-80.110821838051123
30
0
10
24.935918871561711
20
-80.248394190142591
30
0
10
26.096837997436548
20
-79.972676200538913
30
0
0
SPLINE
5
289
100
AcDbEntity
8
0
100
AcDbSpline
70
4
71
3
72
8
73
4
74
0
42
0.000000001
43
0.0000000001
44
0.0000000001
40
0
40
0
40
0
40
0
40
1
40
1
40
1
40
1
41
1
41
1
41
1
41
1
10
26.096837997436548
20
-79.972676200538913
30
0
10
26.592649141947451
20
-79.854918530454285
30
0
10
26.629081026713077
20
-79.853901150693531
30
0
10
26.917790794372571
20
-79.949793230364762
30
0
0
SPLINE
5
290
100
AcDbEntity
8
0
100
AcDbSpline
70
4
71
3
72
8
73
4
74
0
42
0.000000001
43
0.0000000001
44
0.0000000001
40
0
40
0
40
0
40
0
40
1
40
1
40
1
40
1
41
1
41
1
41
1
41
1
10
26.917790794372571
20
-79.949793230364762
30
0
10
27.12824306488038
20
-80.019693679481776
30
0
10
27.249650382995618
20
-80.10243249224628
30
0
10
27.317952092488618
20
-80.222515601784025
30
0
0
SPLINE
5
291
100
AcDbEntity
8
0
100
AcDbSpline
70
4
71
3
72
8
73
4
74
0
42
0.000000001
43
0.0000000001
44
0.0000000001
40
0
40
0
40
0
40
0
40
1
40
1
40
1
40
1
41
1
41
1
41
1
41
1
10
27.317952092488618
20
-80.222515601784025
30
0
10
27.3718812942505
20
-80.317325706154151
30
0
10
27.436242675781273
20
-80.395066438982923
30
0
10
27.460966618855807
20
-80.395276374489114
30
0
0
SPLINE
5
292
100
AcDbEntity
8
0
100
AcDbSpline
70
4
71
3
72
8
73
4
74
0
42
0.000000001
43
0.0000000001
44
0.0000000001
40
0
40
0
40
0
40
0
40
1
40
1
40
1
40
1
41
1
41
1
41
1
41
1
10
27.460966618855807
20
-80.395276374489114
30
0
10
27.544860076904314
20
-80.396067669858567
30
0
10
27.506441879272483
20
-80.757641207049332
30
0
10
27.383799171447762
20
-81.121685523659025
30
0
0
SPLINE
5
293
100
AcDbEntity
8
0
100
AcDbSpline
70
4
71
3
72
8
73
4
74
0
42
0.000000001
43
0.0000000001
44
0.0000000001
40
0
40
0
40
0
40
0
40
1
40
1
40
1
40
1
41
1
41
1
41
1
41
1
10
27.383799171447762
20
-81.121685523659025
30
0
10
26.998381805419935
20
-82.265769436826332
30
0
10
25.830599403381367
20
-83.237803128232599
30
0
10
24.546318944295269
20
-83.483524563779469
30
0
0
SPLINE
5
294
100
AcDbEntity
8
0
100
AcDbSpline
70
4
71
3
72
8
73
4
74
0
42
0.000000001
43
0.0000000001
44
0.0000000001
40
0
40
0
40
0
40
0
40
1
40
1
40
1
40
1
41
1
41
1
41
1
41
1
10
24.546318944295269
20
-83.483524563779469
30
0
10
23.870528475443535
20
-83.612828686704276
30
0
10
22.59615535736085
20
-83.598633816709167
30
0
10
22.170268885294604
20
-83.457104987770364
30
0
0
SPLINE
5
295
100
AcDbEntity
8
0
100
AcDbSpline
70
4
71
3
72
8
73
4
74
0
42
0.000000001
43
0.0000000001
44
0.0000000001
40
0
40
0
40
0
40
0
40
1
40
1
40
1
40
1
41
1
41
1
41
1
41
1
10
22.170268885294604
20
-83.457104987770364
30
0
10
20.614146169026704
20
-82.939912719398762
30
0
10
19.589790089925145
20
-82.079895769427253
30
0
10
18.981421216328958
20
-80.779837849607105
30
0
0
SPLINE
5
296
100
AcDbEntity
8
0
100
AcDbSpline
70
4
71
3
72
8
73
4
74
0
42
0.000000001
43
0.0000000001
44
0.0000000001
40
0
40
0
40
0
40
0
40
1
40
1
40
1
40
1
41
1
41
1
41
1
41
1
10
18.981421216328958
20
-80.779837849607105
30
0
10
18.805018870035823
20
-80.402866350481929
30
0
10
18.798817698160821
20
-80.362518361081712
30
0
10
18.827272033691429
20
-79.776862894366218
30
0
0
SPLINE
5
297
100
AcDbEntity
8
0
100
AcDbSpline
70
4
71
3
72
8
73
4
74
0
42
0.000000001
43
0.0000000001
44
0.0000000001
40
0
40
0
40
0
40
0
40
1
40
1
40
1
40
1
41
1
41
1
41
1
41
1
10
18.827272033691429
20
-79.776862894366218
30
0
10
18.862242444356294
20
-79.057252425819669
30
0
10
19.019153086344414
20
-78.585632311175303
30
0
10
19.440138371785505
20
-77.934856465329759
30
0
0
SPLINE
5
298
100
AcDbEntity
8
0
100
AcDbSpline
70
4
71
3
72
8
73
4
74
0
42
0.000000001
43
0.0000000001
44
0.0000000001
40
0
40
0
40
0
40
0
40
1
40
1
40
1
40
1
41
1
41
1
41
1
41
1
10
19.440138371785505
20
-77.934856465329759
30
0
10
19.717527770996117
20
-77.506055119504566
30
0
10
19.914100074768086
20
-77.081573600441246
30
0
10
20.100958824157722
20
-76.507884457578299
30
0
0
SPLINE
5
299
100
AcDbEntity
8
0
100
AcDbSpline
70
4
71
3
72
8
73
4
74
0
42
0.000000001
43
0.0000000001
44
0.0000000001
40
0
40
0
40
0
40
0
40
1
40
1
40
1
40
1
41
1
41
1
41
1
41
1
10
20.100958824157722
20
-76.507884457578299
30
0
10
20.235664749145528
20
-76.094327659279145
30
0
10
20.203827222188337
20
-75.544724578529639
30
0
10
20.031809298197452
20
-75.31394086169206
30
0
0
SPLINE
5
300
100
AcDbEntity
8
0
100
AcDbSpline
70
4
71
3
72
8
73
4
74
0
42
0.000000001
43
0.0000000001
44
0.0000000001
40
0
40
0
40
0
40
0
40
1
40
1
40
1
40
1
41
1
41
1
41
1
41
1
10
20.031809298197452
20
-75.31394086169206
30
0
10
19.857005691528329
20
-75.0794186779559
30
0
10
19.560625203450535
20
-74.919956512123377
30
0
10
19.382599894205743
20
-74.964632402728043
30
0
0
SPLINE
5
301
100
AcDbEntity
8
0
100
AcDbSpline
70
4
71
3
72
8
73
4
74
0
42
0.000000001
43
0.0000000001
44
0.0000000001
40
0
40
0
40
0
40
0
40
1
40
1
40
1
40
1
41
1
41
1
41
1
41
1
10
19.382599894205743
20
-74.964632402728043
30
0
10
19.301524416605655
20
-74.984979997942872
30
0
10
18.95807800292971
20
-75.274408390988938
30
0
10
18.619387435913097
20
-75.607810198138196
30
0
0
SPLINE
5
302
100
AcDbEntity
8
0
100
AcDbSpline
70
4
71
3
72
8
73
4
74
0
42
0.000000001
43
0.0000000001
44
0.0000000001
40
0
40
0
40
0
40
0
40
1
40
1
40
1
40
1
41
1
41
1
41
1
41
1
10
18.619387435913097
20
-75.607810198138196
30
0
10
17.938946088155134
20
-76.277625579506193
30
0
10
17.532309087117532
20
-76.5774619289935
30
0
10
16.842259152730321
20
-76.918219553301768
30
0
0
SPLINE
5
303
100
AcDbEntity
8
0
100
AcDbSpline
70
4
71
3
72
8
73
4
74
0
42
0.000000001
43
0.0000000001
44
0.0000000001
40
0
40
0
40
0
40
0
40
1
40
1
40
1
40
1
41
1
41
1
41
1
41
1
10
16.842259152730321
20
-76.918219553301768
30
0
10
15.002247111002625
20
-77.826836572955088
30
0
10
12.959405072530128
20
-77.823921699196148
30
0
10
11.716029739379898
20
-76.910887959470386
30
0
0
SPLINE
5
304
100
AcDbEntity
8
0
100
AcDbSpline
70
4
71
3
72
8
73
4
74
0
42
0.000000001
43
0.0000000001
44
0.0000000001
40
0
40
0
40
0
40
0
40
1
40
1
40
1
40
1
41
1
41
1
41
1
41
1
10
11.716029739379898
20
-76.910887959470386
30
0
10
11.028151830037451
20
-76.405775057146982
30
0
10
10.727822939554859
20
-75.788855348895027
30
0
10
10.922118250528978
20
-75.28009279854102
30
0
0
SPLINE
5
305
100
AcDbEntity
8
0
100
AcDbSpline
70
4
71
3
72
8
73
4
74
0
42
0.000000001
43
0.0000000001
44
0.0000000001
40
0
40
0
40
0
40
0
40
1
40
1
40
1
40
1
41
1
41
1
41
1
41
1
10
10.922118250528978
20
-75.28009279854102
30
0
10
11.082299041748058
20
-74.860657806068701
30
0
10
11.26449883778891
20
-74.790151773760755
30
0
10
12.188239288330092
20
-74.790151773760755
30
0
0
SPLINE
5
306
100
AcDbEntity
8
0
100
AcDbSpline
70
4
71
3
72
8
73
4
74
0
42
0.000000001
43
0.0000000001
44
0.0000000001
40
0
40
0
40
0
40
0
40
1
40
1
40
1
40
1
41
1
41
1
41
1
41
1
10
12.188239288330092
20
-74.790151773760755
30
0
10
13.065301386515316
20
-74.790151773760755
30
0
10
13.27724742889405
20
-74.724369290341969
30
0
10
13.776199531555182
20
-74.297287800778975
30
0
0
SPLINE
5
307
100
AcDbEntity
8
0
100
AcDbSpline
70
4
71
3
72
8
73
4
74
0
42
0.000000001
43
0.0000000001
44
0.0000000001
40
0
40
0
40
0
40
0
40
1
40
1
40
1
40
1
41
1
41
1
41
1
41
1
10
13.776199531555182
20
-74.297287800778975
30
0
10
14.779513613382989
20
-73.438490091631849
30
0
10
14.797761853535984
20
-72.141718469927739
30
0
10
13.816717084248875
20
-71.417933514585144
30
0
0
SPLINE
5
308
100
AcDbEntity
8
0
100
AcDbSpline
70
4
71
3
72
8
73
4
74
0
42
0.000000001
43
0.0000000001
44
0.0000000001
40
0
40
0
40
0
40
0
40
1
40
1
40
1
40
1
41
1
41
1
41
1
41
1
10
13.816717084248875
20
-71.417933514585144
30
0
10
13.564253489176448
20
-71.231672273943857
30
0
10
12.582280158996593
20
-70.923244717588062
30
0
10
12.241716321309415
20
-70.923244717588062
30
0
0
SPLINE
5
309
100
AcDbEntity
8
0
100
AcDbSpline
70
4
71
3
72
8
73
4
74
0
42
0.000000001
43
0.0000000001
44
0.0000000001
40
0
40
0
40
0
40
0
40
1
40
1
40
1
40
1
41
1
41
1
41
1
41
1
10
12.241716321309415
20
-70.923244717588062
30
0
10
12.090562756856293
20
-70.923244717588062
30
0
10
11.819947814941418
20
-70.965958518654148
30
0
10
11.640356063842781
20
-71.018167864153824
30
0
0
SPLINE
5
310
100
AcDbEntity
8
0
100
AcDbSpline
70
4
71
3
72
8
73
4
74
0
42
0.000000001
43
0.0000000001
44
0.0000000001
40
0
40
0
40
0
40
0
40
1
40
1
40
1
40
1
41
1
41
1
41
1
41
1
10
11.640356063842781
20
-71.018167864153824
30
0
10
11.370677757263206
20
-71.096562626828785
30
0
10
11.272468312581392
20
-71.165405323972351
30
0
10
11.076315879821799
20
-71.41357331561052
30
0
0
SPLINE
5
311
100
AcDbEntity
8
0
100
AcDbSpline
70
4
71
3
72
8
73
4
74
0
42
0.000000001
43
0.0000000001
44
0.0000000001
40
0
40
0
40
0
40
0
40
1
40
1
40
1
40
1
41
1
41
1
41
1
41
1
10
11.076315879821799
20
-71.41357331561052
30
0
10
10.945679473876968
20
-71.57883293119076
30
0
10
10.74109732309978
20
-71.893582776059745
30
0
10
10.621676317850763
20
-72.113013826678241
30
0
0
SPLINE
5
312
100
AcDbEntity
8
0
100
AcDbSpline
70
4
71
3
72
8
73
4
74
0
42
0.000000001
43
0.0000000001
44
0.0000000001
40
0
40
0
40
0
40
0
40
1
40
1
40
1
40
1
41
1
41
1
41
1
41
1
10
10.621676317850763
20
-72.113013826678241
30
0
10
9.998466618855808
20
-73.258147417376478
30
0
10
9.3871990203857614
20
-74.006244519223813
30
0
10
8.5911235809326314
20
-74.598141530027021
30
0
0
SPLINE
5
313
100
AcDbEntity
8
0
100
AcDbSpline
70
4
71
3
72
8
73
4
74
0
42
0.000000001
43
0.0000000001
44
0.0000000001
40
0
40
0
40
0
40
0
40
1
40
1
40
1
40
1
41
1
41
1
41
1
41
1
10
8.5911235809326314
20
-74.598141530027021
30
0
10
8.0015116373698092
20
-75.036519164711265
30
0
10
7.1240942637125748
20
-75.479604199399589
30
0
10
6.8456067403157661
20
-75.479604199399589
30
0
0
SPLINE
5
314
100
AcDbEntity
8
0
100
AcDbSpline
70
4
71
3
72
8
73
4
74
0
42
0.000000001
43
0.0000000001
44
0.0000000001
40
0
40
0
40
0
40
0
40
1
40
1
40
1
40
1
41
1
41
1
41
1
41
1
10
6.8456067403157661
20
-75.479604199399589
30
0
10
6.7335657755534051
20
-75.479604199399589
30
0
10
6.3679469426473112
20
-75.520751558611835
30
0
10
6.03312403361004
20
-75.571039186785654
30
0
0
SPLINE
5
315
100
AcDbEntity
8
0
100
AcDbSpline
70
4
71
3
72
8
73
4
74
0
42
0.000000001
43
0.0000000001
44
0.0000000001
40
0
40
0
40
0
40
0
40
1
40
1
40
1
40
1
41
1
41
1
41
1
41
1
10
6.03312403361004
20
-75.571039186785654
30
0
10
5.4495598475138429
20
-75.658687260617853
30
0
10
5.4044802347819143
20
-75.657322679827644
30
0
10
4.9442693074544408
20
-75.538030865659351
30
0
0
SPLINE
5
316
100
AcDbEntity
8
0
100
AcDbSpline
70
4
71
3
72
8
73
4
74
0
42
0.000000001
43
0.0000000001
44
0.0000000001
40
0
40
0
40
0
40
0
40
1
40
1
40
1
40
1
41
1
41
1
41
1
41
1
10
4.9442693074544408
20
-75.538030865659351
30
0
10
3.4349622090657661
20
-75.146799900998701
30
0
10
2.1360104878743691
20
-74.340760599444337
30
0
10
1.2809835433960082
20
-73.264833055804218
30
0
0
SPLINE
5
317
100
AcDbEntity
8
0
100
AcDbSpline
70
4
71
3
72
8
73
4
74
0
42
0.000000001
43
0.0000000001
44
0.0000000001
40
0
40
0
40
0
40
0
40
1
40
1
40
1
40
1
41
1
41
1
41
1
41
1
10
1.2809835433960082
20
-73.264833055804218
30
0
10
0.85207722981772704
20
-72.725121167173029
30
0
10
0.38851540883383606
20
-71.983992309242524
30
0
10
0.21009445190431464
20
-71.552744407326017
30
0
0
SPLINE
5
318
100
AcDbEntity
8
0
100
AcDbSpline
70
4
71
3
72
8
73
4
74
0
42
0.000000001
43
0.0000000001
44
0.0000000001
40
0
40
0
40
0
40
0
40
1
40
1
40
1
40
1
41
1
41
1
41
1
41
1
10
0.21009445190431464
20
-71.552744407326017
30
0
10
0.053078842163092332
20
-71.173221384356452
30
0
10
-0.21752802530922821
20
-69.90624445564552
30
0
10
-0.28434403737385594
20
-69.237801729510267
30
0
0
SPLINE
5
319
100
AcDbEntity
8
0
100
AcDbSpline
70
4
71
3
72
8
73
4
74
0
42
0.000000001
43
0.0000000001
44
0.0000000001
40
0
40
0
40
0
40
0
40
1
40
1
40
1
40
1
41
1
41
1
41
1
41
1
10
-0.28434403737385594
20
-69.237801729510267
30
0
10
-0.30842202504475225
20
-68.997013778358735
30
0
10
-0.28196207682290364
20
-68.411535949379243
30
0
10
-0.21700318654376716
20
-67.746831690142585
30
0
0
SPLINE
5
320
100
AcDbEntity
8
0
100
AcDbSpline
70
4
71
3
72
8
73
4
74
0
42
0.000000001
43
0.0000000001
44
0.0000000001
40
0
40
0
40
0
40
0
40
1
40
1
40
1
40
1
41
1
41
1
41
1
41
1
10
-0.21700318654376716
20
-67.746831690142585
30
0
10
-0.12498683929441867
20
-66.805379949877704
30
0
10
-0.12047322591143939
20
-66.568685741096772
30
0
10
-0.18469734191892684
20
-66.054073257118503
30
0
0
SPLINE
5
321
100
AcDbEntity
8
0
100
AcDbSpline
70
4
71
3
72
8
73
4
74
0
42
0.000000001
43
0.0000000001
44
0.0000000001
40
0
40
0
40
0
40
0
40
1
40
1
40
1
40
1
41
1
41
1
41
1
41
1
10
-0.18469734191892684
20
-66.054073257118503
30
0
10
-0.27938632965087251
20
-65.295317891111011
30
0
10
-0.42806104024249336
20
-64.814900671313239
30
0
10
-0.71450996398924715
20
-64.342053241401942
30
0
0
SPLINE
5
322
100
AcDbEntity
8
0
100
AcDbSpline
70
4
71
3
72
8
73
4
74
0
42
0.000000001
43
0.0000000001
44
0.0000000001
40
0
40
0
40
0
40
0
40
1
40
1
40
1
40
1
41
1
41
1
41
1
41
1
10
-0.71450996398924715
20
-64.342053241401942
30
0
10
-1.1837319691975701
20
-63.567484079668958
30
0
10
-1.6812548955281414
20
-63.126126975685395
30
0
10
-2.713596598307273
20
-62.568639201790134
30
0
0
SPLINE
5
323
100
AcDbEntity
8
0
100
AcDbSpline
70
4
71
3
72
8
73
4
74
0
42
0.000000001
43
0.0000000001
44
0.0000000001
40
0
40
0
40
0
40
0
40
1
40
1
40
1
40
1
41
1
41
1
41
1
41
1
10
-2.713596598307273
20
-62.568639201790134
30
0
10
-3.7615542729695584
20
-62.002725747098559
30
0
10
-4.4443372090657363
20
-61.869267323484053
30
0
10
-5.5059568405151182
20
-62.022843220700857
30
0
0
SPLINE
5
324
100
AcDbEntity
8
0
100
AcDbSpline
70
4
71
3
72
8
73
4
74
0
42
0.000000001
43
0.0000000001
44
0.0000000001
40
0
40
0
40
0
40
0
40
1
40
1
40
1
40
1
41
1
41
1
41
1
41
1
10
-5.5059568405151182
20
-62.022843220700857
30
0
10
-6.4514821370442554
20
-62.159624277422864
30
0
10
-7.0959114710489857
20
-62.30587665525082
30
0
10
-7.5916499455769682
20
-62.496187228828703
30
0
0
SPLINE
5
325
100
AcDbEntity
8
0
100
AcDbSpline
70
4
71
3
72
8
73
4
74
0
42
0.000000001
43
0.0000000001
44
0.0000000001
40
0
40
0
40
0
40
0
40
1
40
1
40
1
40
1
41
1
41
1
41
1
41
1
10
-7.5916499455769682
20
-62.496187228828703
30
0
10
-8.2846954981485865
20
-62.762244147926609
30
0
10
-10.760376103719063
20
-63.369991289446787
30
0
10
-11.144025166829419
20
-63.368243172635665
30
0
0
SPLINE
5
326
100
AcDbEntity
8
0
100
AcDbSpline
70
4
71
3
72
8
73
4
74
0
42
0.000000001
43
0.0000000001
44
0.0000000001
40
0
40
0
40
0
40
0
40
1
40
1
40
1
40
1
41
1
41
1
41
1
41
1
10
-11.144025166829419
20
-63.368243172635665
30
0
10
-11.269913800557445
20
-63.367714296648934
30
0
10
-11.561772600809723
20
-63.324588699013027
30
0
10
-11.792588615417472
20
-63.272504507372815
30
0
0
SPLINE
5
327
100
AcDbEntity
8
0
100
AcDbSpline
70
4
71
3
72
8
73
4
74
0
42
0.000000001
43
0.0000000001
44
0.0000000001
40
0
40
0
40
0
40
0
40
1
40
1
40
1
40
1
41
1
41
1
41
1
41
1
10
-11.792588615417472
20
-63.272504507372815
30
0
10
-12.023404630025221
20
-63.220420315732596
30
0
10
-12.398874282836907
20
-63.168542022377288
30
0
10
-12.626961135864248
20
-63.157217616707122
30
0
0
SPLINE
5
328
100
AcDbEntity
8
0
100
AcDbSpline
70
4
71
3
72
8
73
4
74
0
42
0.000000001
43
0.0000000001
44
0.0000000001
40
0
40
0
40
0
40
0
40
1
40
1
40
1
40
1
41
1
41
1
41
1
41
1
10
-12.626961135864248
20
-63.157217616707122
30
0
10
-12.855047988891588
20
-63.145893211036956
30
0
10
-13.151816050211576
20
-63.11824228253964
30
0
10
-13.28643315633137
20
-63.09577110893531
30
0
0
SPLINE
5
329
100
AcDbEntity
8
0
100
AcDbSpline
70
4
71
3
72
8
73
4
74
0
42
0.000000001
43
0.0000000001
44
0.0000000001
40
0
40
0
40
0
40
0
40
1
40
1
40
1
40
1
41
1
41
1
41
1
41
1
10
-13.28643315633137
20
-63.09577110893531
30
0
10
-13.815050760904937
20
-63.007529563576021
30
0
10
-14.894216156005848
20
-62.349837957690191
30
0
10
-15.528051821390774
20
-61.729623876879643
30
0
0
SPLINE
5
330
100
AcDbEntity
8
0
100
AcDbSpline
70
4
71
3
72
8
73
4
74
0
42
0.000000001
43
0.0000000001
44
0.0000000001
40
0
40
0
40
0
40
0
40
1
40
1
40
1
40
1
41
1
41
1
41
1
41
1
10
-15.528051821390774
20
-61.729623876879643
30
0
10
-16.32402229309081
20
-60.950763148933682
30
0
10
-16.680549303690579
20
-60.170985971758803
30
0
10
-16.67606798807779
20
-59.218734664589199
30
0
0
SPLINE
5
331
100
AcDbEntity
8
0
100
AcDbSpline
70
4
71
3
72
8
73
4
74
0
42
0.000000001
43
0.0000000001
44
0.0000000001
40
0
40
0
40
0
40
0
40
1
40
1
40
1
40
1
41
1
41
1
41
1
41
1
10
-16.67606798807779
20
-59.218734664589199
30
0
10
-16.67016557057697
20
-57.963166923195153
30
0
10
-16.597237205505362
20
-57.510283552477794
30
0
10
-16.269366391499823
20
-56.692980403572349
30
0
0
SPLINE
5
332
100
AcDbEntity
8
0
100
AcDbSpline
70
4
71
3
72
8
73
4
74
0
42
0.000000001
43
0.0000000001
44
0.0000000001
40
0
40
0
40
0
40
0
40
1
40
1
40
1
40
1
41
1
41
1
41
1
41
1
10
-16.269366391499823
20
-56.692980403572349
30
0
10
-16.10245958964029
20
-56.276932639747898
30
0
10
-15.846871185302724
20
-55.754132671028415
30
0
10
-15.701393953959135
20
-55.53120538678769
30
0
0
SPLINE
5
333
100
AcDbEntity
8
0
100
AcDbSpline
70
4
71
3
72
8
73
4
74
0
42
0.000000001
43
0.0000000001
44
0.0000000001
40
0
40
0
40
0
40
0
40
1
40
1
40
1
40
1
41
1
41
1
41
1
41
1
10
-15.701393953959135
20
-55.53120538678769
30
0
10
-14.995098241170233
20
-54.44891921964291
30
0
10
-13.871523412068676
20
-53.458657474190034
30
0
10
-12.542445945739731
20
-52.74706492709123
30
0
0
SPLINE
5
334
100
AcDbEntity
8
0
100
AcDbSpline
70
4
71
3
72
8
73
4
74
0
42
0.000000001
43
0.0000000001
44
0.0000000001
40
0
40
0
40
0
40
0
40
1
40
1
40
1
40
1
41
1
41
1
41
1
41
1
10
-12.542445945739731
20
-52.74706492709123
30
0
10
-11.539059193929022
20
-52.209848041206627
30
0
10
-10.468081283569326
20
-51.686983476946786
30
0
10
-10.043672434488924
20
-51.527141812314625
30
0
0
SPLINE
5
335
100
AcDbEntity
8
0
100
AcDbSpline
70
4
71
3
72
8
73
4
74
0
42
0.000000001
43
0.0000000001
44
0.0000000001
40
0
40
0
40
0
40
0
40
1
40
1
40
1
40
1
41
1
41
1
41
1
41
1
10
-10.043672434488924
20
-51.527141812314625
30
0
10
-9.8401641845702947
20
-51.450491129229505
30
0
10
-9.6108419418334812
20
-51.347255344063079
30
0
10
-9.5340782165527216
20
-51.297730750709803
30
0
0
SPLINE
5
336
100
AcDbEntity
8
0
100
AcDbSpline
70
4
71
3
72
8
73
4
74
0
42
0.000000001
43
0.0000000001
44
0.0000000001
40
0
40
0
40
0
40
0
40
1
40
1
40
1
40
1
41
1
41
1
41
1
41
1
10
-9.5340782165527216
20
-51.297730750709803
30
0
10
-9.3007914225260357
20
-51.147215067217779
30
0
10
-7.4566452662149985
20
-50.622210775683357
30
0
10
-6.7865957260131715
20
-50.515559501320155
30
0
0
SPLINE
5
337
100
AcDbEntity
8
0
100
AcDbSpline
70
4
71
3
72
8
73
4
74
0
42
0.000000001
43
0.0000000001
44
0.0000000001
40
0
40
0
40
0
40
0
40
1
40
1
40
1
40
1
41
1
41
1
41
1
41
1
10
-6.7865957260131715
20
-50.515559501320155
30
0
10
-4.8727186838785741
20
-50.210926932960774
30
0
10
-4.3738473256428989
20
-50.215969422330495
30
0
10
-1.6606973648071133
20
-50.567353013028729
30
0
0
SPLINE
5
338
100
AcDbEntity
8
0
100
AcDbSpline
70
4
71
3
72
8
73
4
74
0
42
0.000000001
43
0.0000000001
44
0.0000000001
40
0
40
0
40
0
40
0
40
1
40
1
40
1
40
1
41
1
41
1
41
1
41
1
10
-1.6606973648071133
20
-50.567353013028729
30
0
10
-0.1505666732787958
20
-50.762932160367598
30
0
10
1.7075240453084461
20
-51.454875551531742
30
0
10
2.9416622161865291
20
-52.281258411079676
30
0
0
SPLINE
5
339
100
AcDbEntity
8
0
100
AcDbSpline
70
4
71
3
72
8
73
4
74
0
42
0.000000001
43
0.0000000001
44
0.0000000001
40
0
40
0
40
0
40
0
40
1
40
1
40
1
40
1
41
1
41
1
41
1
41
1
10
2.9416622161865291
20
-52.281258411079676
30
0
10
4.2081466039021898
20
-53.129296925534831
30
0
10
6.3093910853068103
20
-55.273731600115724
30
0
10
6.7683989206950024
20
-56.186644223203295
30
0
0
SPLINE
5
340
100
AcDbEntity
8
0
100
AcDbSpline
70
4
71
3
72
8
73
4
74
0
42
0.000000001
43
0.0000000001
44
0.0000000001
40
0
40
0
40
0
40
0
40
1
40
1
40
1
40
1
41
1
41
1
41
1
41
1
10
6.7683989206950024
20
-56.186644223203295
30
0
10
7.0818326314290481
20
-56.810035597155526
30
0
10
7.4464340845744026
20
-57.908058852821618
30
0
10
7.5807524363199974
20
-58.633083235094986
30
0
0
SPLINE
5
341
100
AcDbEntity
8
0
100
AcDbSpline
70
4
71
3
72
8
73
4
74
0
42
0.000000001
43
0.0000000001
44
0.0000000001
40
0
40
0
40
0
40
0
40
1
40
1
40
1
40
1
41
1
41
1
41
1
41
1
10
7.5807524363199974
20
-58.633083235094986
30
0
10
7.715046564737964
20
-59.35799053795143
30
0
10
7.7306625366211001
20
-61.239779745409919
30
0
10
7.6068651835123902
20
-61.780565534899665
30
0
0
CIRCLE
5
342
100
AcDbEntity
8
0
100
AcDbCircle
10
-11.000000163912773
20
-58.000000864267349
30
0
40
2.5499999999999985
210
0
220
0
230
1
0
ENDSEC
0
SECTION
2
OBJECTS
0
DICTIONARY
5
C
100
AcDbDictionary
3
ACAD_GROUP
350
D
3
ACAD_MLINESTYLE
350
17
0
DICTIONARY
5
D
100
AcDbDictionary
0
DICTIONARY
5
1A
330
C
100
AcDbDictionary
0
DICTIONARY
5
17
100
AcDbDictionary
0
ENDSEC
0
EOF
