0
SECTION
2
HEADER
9
$INSUNITS
70
4
9
$ACADVER
1
AC1014
9
$HANDSEED
5
FFFF
0
ENDSEC
0
SECTION
2
TABLES
0
TABLE
2
VPORT
5
8
100
AcDbSymbolTable
0
ENDTAB
0
TABLE
2
LTYPE
5
5
100
AcDbSymbolTable
0
LTYPE
5
14
100
AcDbSymbolTableRecord
100
AcDbLinetypeTableRecord
2
BYBLOCK
70
0
0
LTYPE
5
15
100
AcDbSymbolTableRecord
100
AcDbLinetypeTableRecord
2
BYLAYER
70
0
0
ENDTAB
0
TABLE
2
LAYER
5
2
100
AcDbSymbolTable
70
2
0
LAYER
5
50
100
AcDbSymbolTableRecord
100
AcDbLayerTableRecord
2
0
70
0
6
CONTINUOUS
0
ENDTAB
0
TABLE
2
STYLE
5
3
100
AcDbSymbolTable
70
1
0
STYLE
5
11
100
AcDbSymbolTableRecord
100
AcDbTextStyleTableRecord
2
STANDARD
70
0
0
ENDTAB
0
TABLE
2
VIEW
5
6
100
AcDbSymbolTable
70
0
0
ENDTAB
0
TABLE
2
UCS
5
7
100
AcDbSymbolTable
70
0
0
ENDTAB
0
TABLE
2
APPID
5
9
100
AcDbSymbolTable
70
2
0
APPID
5
12
100
AcDbSymbolTableRecord
100
AcDbRegAppTableRecord
2
ACAD
70
0
0
ENDTAB
0
TABLE
2
DIMSTYLE
5
A
100
AcDbSymbolTable
70
1
0
ENDTAB
0
TABLE
2
BLOCK_RECORD
5
1
100
AcDbSymbolTable
70
1
0
BLOCK_RECORD
5
1F
100
AcDbSymbolTableRecord
100
AcDbBlockTableRecord
2
*MODEL_SPACE
0
BLOCK_RECORD
5
1B
100
AcDbSymbolTableRecord
100
AcDbBlockTableRecord
2
*PAPER_SPACE
0
ENDTAB
0
ENDSEC
0
SECTION
2
BLOCKS
0
BLOCK
5
20
100
AcDbEntity
100
AcDbBlockBegin
2
*MODEL_SPACE
0
ENDBLK
5
21
100
AcDbEntity
100
AcDbBlockEnd
0
BLOCK
5
1C
100
AcDbEntity
100
AcDbBlockBegin
2
*PAPER_SPACE
0
ENDBLK
5
1D
100
AcDbEntity
100
AcDbBlockEnd
0
ENDSEC
0
SECTION
2
ENTITIES
0
SPLINE
5
100
100
AcDbEntity
8
0
100
AcDbSpline
70
4
71
3
72
8
73
4
74
0
42
0.000000001
43
0.0000000001
44
0.0000000001
40
0
40
0
40
0
40
0
40
1
40
1
40
1
40
1
41
1
41
1
41
1
41
1
10
-64.799150244394937
20
-38.359252090126304
30
0
10
-64.757934252421052
20
-38.364783083270027
30
0
10
-64.724211343129468
20
-38.357927881548832
30
0
10
-64.724211343129468
20
-38.343951021502448
30
0
0
SPLINE
5
101
100
AcDbEntity
8
0
100
AcDbSpline
70
4
71
3
72
8
73
4
74
0
42
0.000000001
43
0.0000000001
44
0.0000000001
40
0
40
0
40
0
40
0
40
1
40
1
40
1
40
1
41
1
41
1
41
1
41
1
10
-64.724211343129468
20
-38.343951021502448
30
0
10
-64.724211343129468
20
-38.281257012357344
30
0
10
-65.423046271006257
20
-37.889690958331059
30
0
10
-65.534937858581529
20
-37.889690958331059
30
0
0
SPLINE
5
102
100
AcDbEntity
8
0
100
AcDbSpline
70
4
71
3
72
8
73
4
74
0
42
0.000000001
43
0.0000000001
44
0.0000000001
40
0
40
0
40
0
40
0
40
1
40
1
40
1
40
1
41
1
41
1
41
1
41
1
10
-65.534937858581529
20
-37.889690958331059
30
0
10
-65.694549401601151
20
-37.889690958331059
30
0
10
-66.152693271636963
20
-37.599370339383711
30
0
10
-66.581090895334867
20
-37.226763076454432
30
0
0
SPLINE
5
103
100
AcDbEntity
8
0
100
AcDbSpline
70
4
71
3
72
8
73
4
74
0
42
0.000000001
43
0.0000000001
44
0.0000000001
40
0
40
0
40
0
40
0
40
1
40
1
40
1
40
1
41
1
41
1
41
1
41
1
10
-66.581090895334867
20
-37.226763076454432
30
0
10
-66.82071208953856
20
-37.018345565468103
30
0
10
-67.009504667917881
20
-36.911464169492355
30
0
10
-67.247523085276285
20
-36.849468599627443
30
0
0
SPLINE
5
104
100
AcDbEntity
8
0
100
AcDbSpline
70
4
71
3
72
8
73
4
74
0
42
0.000000001
43
0.0000000001
44
0.0000000001
40
0
40
0
40
0
40
0
40
1
40
1
40
1
40
1
41
1
41
1
41
1
41
1
10
-67.247523085276285
20
-36.849468599627443
30
0
10
-67.604740460713685
20
-36.756426798174807
30
0
10
-67.901670010884601
20
-36.778805115689863
30
0
10
-67.901670010884601
20
-36.898775183031987
30
0
0
SPLINE
5
105
100
AcDbEntity
8
0
100
AcDbSpline
70
4
71
3
72
8
73
4
74
0
42
0.000000001
43
0.0000000001
44
0.0000000001
40
0
40
0
40
0
40
0
40
1
40
1
40
1
40
1
41
1
41
1
41
1
41
1
10
-67.901670010884601
20
-36.898775183031987
30
0
10
-67.901670010884601
20
-36.992652689288093
30
0
10
-67.357521216074616
20
-37.507471071551272
30
0
10
-67.002387046813951
20
-37.749583231280276
30
0
0
SPLINE
5
106
100
AcDbEntity
8
0
100
AcDbSpline
70
4
71
3
72
8
73
4
74
0
42
0.000000001
43
0.0000000001
44
0.0000000001
40
0
40
0
40
0
40
0
40
1
40
1
40
1
40
1
41
1
41
1
41
1
41
1
10
-67.002387046813951
20
-37.749583231280276
30
0
10
-66.381062730153403
20
-38.173176561663581
30
0
10
-66.111473242441804
20
-38.272350902229576
30
0
10
-65.473608430226633
20
-38.311964117358158
30
0
0
SPLINE
5
107
100
AcDbEntity
8
0
100
AcDbSpline
70
4
71
3
72
8
73
4
74
0
42
0.000000001
43
0.0000000001
44
0.0000000001
40
0
40
0
40
0
40
0
40
1
40
1
40
1
40
1
41
1
41
1
41
1
41
1
10
-65.473608430226633
20
-38.311964117358158
30
0
10
-65.143872419993073
20
-38.332440903653733
30
0
10
-64.840366236368808
20
-38.353725134203863
30
0
10
-64.799150244394937
20
-38.359252090126304
30
0
0
SPLINE
5
108
100
AcDbEntity
8
0
100
AcDbSpline
70
4
71
3
72
8
73
4
74
0
42
0.000000001
43
0.0000000001
44
0.0000000001
40
0
40
0
40
0
40
0
40
1
40
1
40
1
40
1
41
1
41
1
41
1
41
1
10
-52.264526939392084
20
-35.429634399086268
30
0
10
-52.144895998636869
20
-35.217502644528977
30
0
10
-52.056908798217762
20
-34.952943534523278
30
0
10
-52.020517285664866
20
-34.695966326067875
30
0
0
SPLINE
5
109
100
AcDbEntity
8
0
100
AcDbSpline
70
4
71
3
72
8
73
4
74
0
42
0.000000001
43
0.0000000001
44
0.0000000001
40
0
40
0
40
0
40
0
40
1
40
1
40
1
40
1
41
1
41
1
41
1
41
1
10
-52.020517285664866
20
-34.695966326067875
30
0
10
-51.921451950073234
20
-33.996420847247073
30
0
10
-52.086630821228013
20
-33.665501931180586
30
0
10
-52.776575787862129
20
-33.181301835050213
30
0
0
SPLINE
5
110
100
AcDbEntity
8
0
100
AcDbSpline
70
4
71
3
72
8
73
4
74
0
42
0.000000001
43
0.0000000001
44
0.0000000001
40
0
40
0
40
0
40
0
40
1
40
1
40
1
40
1
41
1
41
1
41
1
41
1
10
-52.776575787862129
20
-33.181301835050213
30
0
10
-53.723082129160559
20
-32.517047725985478
30
0
10
-54.090768019358308
20
-31.957141656547815
30
0
10
-54.227892239888497
20
-30.97126029617591
30
0
0
SPLINE
5
111
100
AcDbEntity
8
0
100
AcDbSpline
70
4
71
3
72
8
73
4
74
0
42
0.000000001
43
0.0000000001
44
0.0000000001
40
0
40
0
40
0
40
0
40
1
40
1
40
1
40
1
41
1
41
1
41
1
41
1
10
-54.227892239888497
20
-30.97126029617591
30
0
10
-54.354329935709629
20
-30.062199182182582
30
0
10
-54.258191585540764
20
-29.228389854103355
30
0
10
-53.926897207895905
20
-28.360823300351726
30
0
0
SPLINE
5
112
100
AcDbEntity
8
0
100
AcDbSpline
70
4
71
3
72
8
73
4
74
0
42
0.000000001
43
0.0000000001
44
0.0000000001
40
0
40
0
40
0
40
0
40
1
40
1
40
1
40
1
41
1
41
1
41
1
41
1
10
-53.926897207895905
20
-28.360823300351726
30
0
10
-53.667255433400463
20
-27.680880549420941
30
0
10
-53.432713063557941
20
-27.38564865079525
30
0
10
-53.099912802378327
20
-27.319833869606285
30
0
0
SPLINE
5
113
100
AcDbEntity
8
0
100
AcDbSpline
70
4
71
3
72
8
73
4
74
0
42
0.000000001
43
0.0000000001
44
0.0000000001
40
0
40
0
40
0
40
0
40
1
40
1
40
1
40
1
41
1
41
1
41
1
41
1
10
-53.099912802378327
20
-27.319833869606285
30
0
10
-52.7250123977661
20
-27.245694338152834
30
0
10
-52.584242566426589
20
-27.303244927396406
30
0
10
-52.31869433720906
20
-27.639178072283698
30
0
0
SPLINE
5
114
100
AcDbEntity
8
0
100
AcDbSpline
70
4
71
3
72
8
73
4
74
0
42
0.000000001
43
0.0000000001
44
0.0000000001
40
0
40
0
40
0
40
0
40
1
40
1
40
1
40
1
41
1
41
1
41
1
41
1
10
-52.31869433720906
20
-27.639178072283698
30
0
10
-52.05279083251952
20
-27.975575497617356
30
0
10
-51.955461502075188
20
-28.327433461815147
30
0
10
-51.808797327677397
20
-29.482603584597538
30
0
0
SPLINE
5
115
100
AcDbEntity
8
0
100
AcDbSpline
70
4
71
3
72
8
73
4
74
0
42
0.000000001
43
0.0000000001
44
0.0000000001
40
0
40
0
40
0
40
0
40
1
40
1
40
1
40
1
41
1
41
1
41
1
41
1
10
-51.808797327677397
20
-29.482603584597538
30
0
10
-51.730895105997718
20
-30.096158268918622
30
0
10
-51.703482373555488
20
-30.184849964449832
30
0
10
-51.510487047831212
20
-30.447765925397508
30
0
0
SPLINE
5
116
100
AcDbEntity
8
0
100
AcDbSpline
70
4
71
3
72
8
73
4
74
0
42
0.000000001
43
0.0000000001
44
0.0000000001
40
0
40
0
40
0
40
0
40
1
40
1
40
1
40
1
41
1
41
1
41
1
41
1
10
-51.510487047831212
20
-30.447765925397508
30
0
10
-51.222899627685543
20
-30.839533840487434
30
0
10
-50.854462814331043
20
-31.169851210584273
30
0
10
-50.442157554626455
20
-31.405546207100183
30
0
0
SPLINE
5
117
100
AcDbEntity
8
0
100
AcDbSpline
70
4
71
3
72
8
73
4
74
0
42
0.000000001
43
0.0000000001
44
0.0000000001
40
0
40
0
40
0
40
0
40
1
40
1
40
1
40
1
41
1
41
1
41
1
41
1
10
-50.442157554626455
20
-31.405546207100183
30
0
10
-50.253441683451321
20
-31.51343085256222
30
0
10
-49.973847961425768
20
-31.741765994697843
30
0
10
-49.820837275187166
20
-31.912962344159716
30
0
0
LINE
5
118
100
AcDbEntity
8
0
100
AcDbLine
10
-49.820837275187166
20
-31.912962344159716
30
0
11
-49.542640431721992
21
-32.224228067070278
31
0
0
LINE
5
119
100
AcDbEntity
8
0
100
AcDbLine
10
-49.542640431721992
20
-32.224228067070278
30
0
11
-49.709611829121897
21
-31.924466406176517
31
0
0
SPLINE
5
120
100
AcDbEntity
8
0
100
AcDbSpline
70
4
71
3
72
8
73
4
74
0
42
0.000000001
43
0.0000000001
44
0.0000000001
40
0
40
0
40
0
40
0
40
1
40
1
40
1
40
1
41
1
41
1
41
1
41
1
10
-49.709611829121897
20
-31.924466406176517
30
0
10
-49.801450538635244
20
-31.759598401059741
30
0
10
-50.0026252746582
20
-31.449346020688644
30
0
10
-50.156669489542629
20
-31.235018017758954
30
0
0
SPLINE
5
121
100
AcDbEntity
8
0
100
AcDbSpline
70
4
71
3
72
8
73
4
74
0
42
0.000000001
43
0.0000000001
44
0.0000000001
40
0
40
0
40
0
40
0
40
1
40
1
40
1
40
1
41
1
41
1
41
1
41
1
10
-50.156669489542629
20
-31.235018017758954
30
0
10
-50.775365575154616
20
-30.374211791028607
30
0
10
-51.223432540893548
20
-29.468180611600509
30
0
10
-51.614421272277824
20
-28.287311556806198
30
0
0
SPLINE
5
122
100
AcDbEntity
8
0
100
AcDbSpline
70
4
71
3
72
8
73
4
74
0
42
0.000000001
43
0.0000000001
44
0.0000000001
40
0
40
0
40
0
40
0
40
1
40
1
40
1
40
1
41
1
41
1
41
1
41
1
10
-51.614421272277824
20
-28.287311556806198
30
0
10
-51.905504926045722
20
-27.408154140780397
30
0
10
-52.152001508076971
20
-25.880794607470463
30
0
10
-52.154617627461739
20
-24.940055436760215
30
0
0
SPLINE
5
123
100
AcDbEntity
8
0
100
AcDbSpline
70
4
71
3
72
8
73
4
74
0
42
0.000000001
43
0.0000000001
44
0.0000000001
40
0
40
0
40
0
40
0
40
1
40
1
40
1
40
1
41
1
41
1
41
1
41
1
10
-52.154617627461739
20
-24.940055436760215
30
0
10
-52.156466674804676
20
-24.259688777595791
30
0
10
-52.141415913899735
20
-24.151995900144207
30
0
10
-51.990779113769527
20
-23.770991216967534
30
0
0
SPLINE
5
124
100
AcDbEntity
8
0
100
AcDbSpline
70
4
71
3
72
8
73
4
74
0
42
0.000000001
43
0.0000000001
44
0.0000000001
40
0
40
0
40
0
40
0
40
1
40
1
40
1
40
1
41
1
41
1
41
1
41
1
10
-51.990779113769527
20
-23.770991216967534
30
0
10
-51.738460858662911
20
-23.132807464271814
30
0
10
-51.552676010131826
20
-22.826079578071862
30
0
10
-51.323386065165195
20
-22.669138656924197
30
0
0
SPLINE
5
125
100
AcDbEntity
8
0
100
AcDbSpline
70
4
71
3
72
8
73
4
74
0
42
0.000000001
43
0.0000000001
44
0.0000000001
40
0
40
0
40
0
40
0
40
1
40
1
40
1
40
1
41
1
41
1
41
1
41
1
10
-51.323386065165195
20
-22.669138656924197
30
0
10
-51.208785502115873
20
-22.590697466204595
30
0
10
-51.115017000834143
20
-22.479108670224775
30
0
10
-51.115017000834143
20
-22.42116243329647
30
0
0
SPLINE
5
126
100
AcDbEntity
8
0
100
AcDbSpline
70
4
71
3
72
8
73
4
74
0
42
0.000000001
43
0.0000000001
44
0.0000000001
40
0
40
0
40
0
40
0
40
1
40
1
40
1
40
1
41
1
41
1
41
1
41
1
10
-51.115017000834143
20
-22.42116243329647
30
0
10
-51.115017000834143
20
-22.363216196368167
30
0
10
-51.180290794372553
20
-22.117143522570558
30
0
10
-51.260074361165351
20
-21.874334942171998
30
0
0
SPLINE
5
127
100
AcDbEntity
8
0
100
AcDbSpline
70
4
71
3
72
8
73
4
74
0
42
0.000000001
43
0.0000000001
44
0.0000000001
40
0
40
0
40
0
40
0
40
1
40
1
40
1
40
1
41
1
41
1
41
1
41
1
10
-51.260074361165351
20
-21.874334942171998
30
0
10
-51.467127291361479
20
-21.244171129534671
30
0
10
-51.489517720540348
20
-21.0240476954679
30
0
10
-51.41771977742512
20
-20.324433583885462
30
0
0
SPLINE
5
128
100
AcDbEntity
8
0
100
AcDbSpline
70
4
71
3
72
8
73
4
74
0
42
0.000000001
43
0.0000000001
44
0.0000000001
40
0
40
0
40
0
40
0
40
1
40
1
40
1
40
1
41
1
41
1
41
1
41
1
10
-51.41771977742512
20
-20.324433583885462
30
0
10
-51.340762265523267
20
-19.574545974403648
30
0
10
-51.191845321655265
20
-19.215318062772383
30
0
10
-50.717641385396313
20
-18.635702279080974
30
0
0
SPLINE
5
129
100
AcDbEntity
8
0
100
AcDbSpline
70
4
71
3
72
8
73
4
74
0
42
0.000000001
43
0.0000000001
44
0.0000000001
40
0
40
0
40
0
40
0
40
1
40
1
40
1
40
1
41
1
41
1
41
1
41
1
10
-50.717641385396313
20
-18.635702279080974
30
0
10
-50.138558514912916
20
-17.927890589704145
30
0
10
-49.713083839416498
20
-17.677094367017375
30
0
10
-48.499608167012518
20
-17.328282486269899
30
0
0
SPLINE
5
130
100
AcDbEntity
8
0
100
AcDbSpline
70
4
71
3
72
8
73
4
74
0
42
0.000000001
43
0.0000000001
44
0.0000000001
40
0
40
0
40
0
40
0
40
1
40
1
40
1
40
1
41
1
41
1
41
1
41
1
10
-48.499608167012518
20
-17.328282486269899
30
0
10
-48.05142008463541
20
-17.199450718234012
30
0
10
-47.532524108886705
20
-17.018120943377443
30
0
10
-47.346505101521799
20
-16.925323393811812
30
0
0
SPLINE
5
131
100
AcDbEntity
8
0
100
AcDbSpline
70
4
71
3
72
8
73
4
74
0
42
0.000000001
43
0.0000000001
44
0.0000000001
40
0
40
0
40
0
40
0
40
1
40
1
40
1
40
1
41
1
41
1
41
1
41
1
10
-47.346505101521799
20
-16.925323393811812
30
0
10
-46.994911575317374
20
-16.749924297004966
30
0
10
-46.489015452067051
20
-16.273508972793845
30
0
10
-46.059229024251287
20
-15.71305585987372
30
0
0
SPLINE
5
132
100
AcDbEntity
8
0
100
AcDbSpline
70
4
71
3
72
8
73
4
74
0
42
0.000000001
43
0.0000000001
44
0.0000000001
40
0
40
0
40
0
40
0
40
1
40
1
40
1
40
1
41
1
41
1
41
1
41
1
10
-46.059229024251287
20
-15.71305585987372
30
0
10
-45.653100713094062
20
-15.183452164004274
30
0
10
-44.934652964274079
20
-14.952571553856162
30
0
10
-44.458688799540191
20
-15.198703776667543
30
0
0
SPLINE
5
133
100
AcDbEntity
8
0
100
AcDbSpline
70
4
71
3
72
8
73
4
74
0
42
0.000000001
43
0.0000000001
44
0.0000000001
40
0
40
0
40
0
40
0
40
1
40
1
40
1
40
1
41
1
41
1
41
1
41
1
10
-44.458688799540191
20
-15.198703776667543
30
0
10
-44.289609972635887
20
-15.286136868466961
30
0
10
-44.272379112243641
20
-15.281758501996626
30
0
10
-43.991533851623529
20
-15.079988275835937
30
0
0
SPLINE
5
134
100
AcDbEntity
8
0
100
AcDbSpline
70
4
71
3
72
8
73
4
74
0
42
0.000000001
43
0.0000000001
44
0.0000000001
40
0
40
0
40
0
40
0
40
1
40
1
40
1
40
1
41
1
41
1
41
1
41
1
10
-43.991533851623529
20
-15.079988275835937
30
0
10
-43.675306383768707
20
-14.852801723152426
30
0
10
-43.042294311523428
20
-14.656994472811647
30
0
10
-42.825648943583161
20
-14.719347336759196
30
0
0
SPLINE
5
135
100
AcDbEntity
8
0
100
AcDbSpline
70
4
71
3
72
8
73
4
74
0
42
0.000000001
43
0.0000000001
44
0.0000000001
40
0
40
0
40
0
40
0
40
1
40
1
40
1
40
1
41
1
41
1
41
1
41
1
10
-42.825648943583161
20
-14.719347336759196
30
0
10
-42.564771779378248
20
-14.794429559379845
30
0
10
-42.210780143737779
20
-14.976361889511374
30
0
10
-42.11156139373778
20
-15.086353964477805
30
0
0
SPLINE
5
136
100
AcDbEntity
8
0
100
AcDbSpline
70
4
71
3
72
8
73
4
74
0
42
0.000000001
43
0.0000000001
44
0.0000000001
40
0
40
0
40
0
40
0
40
1
40
1
40
1
40
1
41
1
41
1
41
1
41
1
10
-42.11156139373778
20
-15.086353964477805
30
0
10
-42.056243387858061
20
-15.147677337000795
30
0
10
-41.965187899271641
20
-15.332742550840008
30
0
10
-41.909215863545725
20
-15.49761055595679
30
0
0
SPLINE
5
137
100
AcDbEntity
8
0
100
AcDbSpline
70
4
71
3
72
8
73
4
74
0
42
0.000000001
43
0.0000000001
44
0.0000000001
40
0
40
0
40
0
40
0
40
1
40
1
40
1
40
1
41
1
41
1
41
1
41
1
10
-41.909215863545725
20
-15.49761055595679
30
0
10
-41.78938306172688
20
-15.85059591419501
30
0
10
-41.819185829162592
20
-16.459216104815432
30
0
10
-41.979681523640942
20
-16.936460068692792
30
0
0
SPLINE
5
138
100
AcDbEntity
8
0
100
AcDbSpline
70
4
71
3
72
8
73
4
74
0
42
0.000000001
43
0.0000000001
44
0.0000000001
40
0
40
0
40
0
40
0
40
1
40
1
40
1
40
1
41
1
41
1
41
1
41
1
10
-41.979681523640942
20
-16.936460068692792
30
0
10
-42.123648834228504
20
-17.364556919405885
30
0
10
-42.752639834086082
20
-18.259633098910278
30
0
10
-43.105525271097811
20
-18.538574809700279
30
0
0
SPLINE
5
139
100
AcDbEntity
8
0
100
AcDbSpline
70
4
71
3
72
8
73
4
74
0
42
0.000000001
43
0.0000000001
44
0.0000000001
40
0
40
0
40
0
40
0
40
1
40
1
40
1
40
1
41
1
41
1
41
1
41
1
10
-43.105525271097811
20
-18.538574809700279
30
0
10
-43.751311111450178
20
-19.049043086042033
30
0
10
-44.849992434183747
20
-19.470387684176394
30
0
10
-46.648590660095202
20
-19.897344019879924
30
0
0
SPLINE
5
140
100
AcDbEntity
8
0
100
AcDbSpline
70
4
71
3
72
8
73
4
74
0
42
0.000000001
43
0.0000000001
44
0.0000000001
40
0
40
0
40
0
40
0
40
1
40
1
40
1
40
1
41
1
41
1
41
1
41
1
10
-46.648590660095202
20
-19.897344019879924
30
0
10
-46.813462702433256
20
-19.93648084289832
30
0
10
-47.145071983337388
20
-20.061128031084966
30
0
10
-47.385512733459464
20
-20.174339790016443
30
0
0
SPLINE
5
141
100
AcDbEntity
8
0
100
AcDbSpline
70
4
71
3
72
8
73
4
74
0
42
0.000000001
43
0.0000000001
44
0.0000000001
40
0
40
0
40
0
40
0
40
1
40
1
40
1
40
1
41
1
41
1
41
1
41
1
10
-47.385512733459464
20
-20.174339790016443
30
0
10
-47.792254702250155
20
-20.365851436922977
30
0
10
-47.832530021667466
20
-20.40220459587378
30
0
10
-47.964264551798486
20
-20.696689608564007
30
0
0
SPLINE
5
142
100
AcDbEntity
8
0
100
AcDbSpline
70
4
71
3
72
8
73
4
74
0
42
0.000000001
43
0.0000000001
44
0.0000000001
40
0
40
0
40
0
40
0
40
1
40
1
40
1
40
1
41
1
41
1
41
1
41
1
10
-47.964264551798486
20
-20.696689608564007
30
0
10
-48.202169926961254
20
-21.228510748217531
30
0
10
-48.217963536580399
20
-21.349338725080123
30
0
10
-48.013163375854482
20
-21.070719991991943
30
0
0
SPLINE
5
143
100
AcDbEntity
8
0
100
AcDbSpline
70
4
71
3
72
8
73
4
74
0
42
0.000000001
43
0.0000000001
44
0.0000000001
40
0
40
0
40
0
40
0
40
1
40
1
40
1
40
1
41
1
41
1
41
1
41
1
10
-48.013163375854482
20
-21.070719991991943
30
0
10
-47.773756154378248
20
-20.745031296084349
30
0
10
-47.11455059051513
20
-20.153511765470139
30
0
10
-46.873044013977037
20
-20.047676009804039
30
0
0
SPLINE
5
144
100
AcDbEntity
8
0
100
AcDbSpline
70
4
71
3
72
8
73
4
74
0
42
0.000000001
43
0.0000000001
44
0.0000000001
40
0
40
0
40
0
40
0
40
1
40
1
40
1
40
1
41
1
41
1
41
1
41
1
10
-46.873044013977037
20
-20.047676009804039
30
0
10
-46.765678151448562
20
-20.00062219586971
30
0
10
-46.515305836995431
20
-19.945136645307173
30
0
10
-46.316658401489249
20
-19.924375234911867
30
0
0
SPLINE
5
145
100
AcDbEntity
8
0
100
AcDbSpline
70
4
71
3
72
8
73
4
74
0
42
0.000000001
43
0.0000000001
44
0.0000000001
40
0
40
0
40
0
40
0
40
1
40
1
40
1
40
1
41
1
41
1
41
1
41
1
10
-46.316658401489249
20
-19.924375234911867
30
0
10
-45.992978223164869
20
-19.890543320645918
30
0
10
-45.940114847819004
20
-19.901062300672162
30
0
10
-45.807427533467603
20
-20.025711507469445
30
0
0
SPLINE
5
146
100
AcDbEntity
8
0
100
AcDbSpline
70
4
71
3
72
8
73
4
74
0
42
0.000000001
43
0.0000000001
44
0.0000000001
40
0
40
0
40
0
40
0
40
1
40
1
40
1
40
1
41
1
41
1
41
1
41
1
10
-45.807427533467603
20
-20.025711507469445
30
0
10
-45.572630818684885
20
-20.246289128929405
30
0
10
-45.651372782389316
20
-20.838357721636722
30
0
10
-45.929706891377755
20
-20.945164429018924
30
0
0
SPLINE
5
147
100
AcDbEntity
8
0
100
AcDbSpline
70
4
71
3
72
8
73
4
74
0
42
0.000000001
43
0.0000000001
44
0.0000000001
40
0
40
0
40
0
40
0
40
1
40
1
40
1
40
1
41
1
41
1
41
1
41
1
10
-45.929706891377755
20
-20.945164429018924
30
0
10
-45.981908162434884
20
-20.965195102363854
30
0
10
-46.108297411600738
20
-21.16039878812435
30
0
10
-46.210568300882962
20
-21.378947705894738
30
0
0
SPLINE
5
148
100
AcDbEntity
8
0
100
AcDbSpline
70
4
71
3
72
8
73
4
74
0
42
0.000000001
43
0.0000000001
44
0.0000000001
40
0
40
0
40
0
40
0
40
1
40
1
40
1
40
1
41
1
41
1
41
1
41
1
10
-46.210568300882962
20
-21.378947705894738
30
0
10
-46.376926040649408
20
-21.734445225069948
30
0
10
-46.399324544270826
20
-21.849808822939821
30
0
10
-46.423160298665351
20
-22.473892580340333
30
0
0
SPLINE
5
149
100
AcDbEntity
8
0
100
AcDbSpline
70
4
71
3
72
8
73
4
74
0
42
0.000000001
43
0.0000000001
44
0.0000000001
40
0
40
0
40
0
40
0
40
1
40
1
40
1
40
1
41
1
41
1
41
1
41
1
10
-46.423160298665351
20
-22.473892580340333
30
0
10
-46.449224599202459
20
-23.156039654086062
30
0
10
-46.444912846883128
20
-23.1853781410754
30
0
10
-46.228743871053048
20
-23.799877535174318
30
0
0
SPLINE
5
150
100
AcDbEntity
8
0
100
AcDbSpline
70
4
71
3
72
8
73
4
74
0
42
0.000000001
43
0.0000000001
44
0.0000000001
40
0
40
0
40
0
40
0
40
1
40
1
40
1
40
1
41
1
41
1
41
1
41
1
10
-46.228743871053048
20
-23.799877535174318
30
0
10
-45.807807032267235
20
-24.996437250445315
30
0
10
-45.477925682067863
20
-25.585276066134401
30
0
10
-44.840771420796699
20
-26.277411225309002
30
0
0
SPLINE
5
151
100
AcDbEntity
8
0
100
AcDbSpline
70
4
71
3
72
8
73
4
74
0
42
0.000000001
43
0.0000000001
44
0.0000000001
40
0
40
0
40
0
40
0
40
1
40
1
40
1
40
1
41
1
41
1
41
1
41
1
10
-44.840771420796699
20
-26.277411225309002
30
0
10
-44.66450634002684
20
-26.468886537224083
30
0
10
-44.519683138529444
20
-26.657735636701215
30
0
10
-44.518948364257803
20
-26.697074320783244
30
0
0
SPLINE
5
152
100
AcDbEntity
8
0
100
AcDbSpline
70
4
71
3
72
8
73
4
74
0
42
0.000000001
43
0.0000000001
44
0.0000000001
40
0
40
0
40
0
40
0
40
1
40
1
40
1
40
1
41
1
41
1
41
1
41
1
10
-44.518948364257803
20
-26.697074320783244
30
0
10
-44.517357699076321
20
-26.783109524716963
30
0
10
-44.283715629577628
20
-26.496063092221846
30
0
10
-44.281801986694319
20
-26.405712098747522
30
0
0
SPLINE
5
153
100
AcDbEntity
8
0
100
AcDbSpline
70
4
71
3
72
8
73
4
74
0
42
0.000000001
43
0.0000000001
44
0.0000000001
40
0
40
0
40
0
40
0
40
1
40
1
40
1
40
1
41
1
41
1
41
1
41
1
10
-44.281801986694319
20
-26.405712098747522
30
0
10
-44.27830575307209
20
-26.239976091057091
30
0
10
-43.769252522786452
20
-25.324098128944662
30
0
10
-43.365191268920888
20
-24.756549599637619
30
0
0
SPLINE
5
154
100
AcDbEntity
8
0
100
AcDbSpline
70
4
71
3
72
8
73
4
74
0
42
0.000000001
43
0.0000000001
44
0.0000000001
40
0
40
0
40
0
40
0
40
1
40
1
40
1
40
1
41
1
41
1
41
1
41
1
10
-43.365191268920888
20
-24.756549599637619
30
0
10
-42.898851839701322
20
-24.101530634234379
30
0
10
-42.530342356363917
20
-23.729541066159832
30
0
10
-41.912364896138499
20
-23.290006767580937
30
0
0
SPLINE
5
155
100
AcDbEntity
8
0
100
AcDbSpline
70
4
71
3
72
8
73
4
74
0
42
0.000000001
43
0.0000000001
44
0.0000000001
40
0
40
0
40
0
40
0
40
1
40
1
40
1
40
1
41
1
41
1
41
1
41
1
10
-41.912364896138499
20
-23.290006767580937
30
0
10
-41.339668909708649
20
-22.882683438926964
30
0
10
-40.371995417277006
20
-22.380909318596153
30
0
10
-39.707614135742176
20
-22.146770670880901
30
0
0
SPLINE
5
156
100
AcDbEntity
8
0
100
AcDbSpline
70
4
71
3
72
8
73
4
74
0
42
0.000000001
43
0.0000000001
44
0.0000000001
40
0
40
0
40
0
40
0
40
1
40
1
40
1
40
1
41
1
41
1
41
1
41
1
10
-39.707614135742176
20
-22.146770670880901
30
0
10
-39.370465787251788
20
-22.027953230212162
30
0
10
-38.8653044382731
20
-21.849546403557092
30
0
10
-38.585024388631183
20
-21.750311504671998
30
0
0
SPLINE
5
157
100
AcDbEntity
8
0
100
AcDbSpline
70
4
71
3
72
8
73
4
74
0
42
0.000000001
43
0.0000000001
44
0.0000000001
40
0
40
0
40
0
40
0
40
1
40
1
40
1
40
1
41
1
41
1
41
1
41
1
10
-38.585024388631183
20
-21.750311504671998
30
0
10
-38.3047524134318
20
-21.651076605786908
30
0
10
-37.670755259195957
20
-21.466216280927291
30
0
10
-37.176147206624336
20
-21.339512128502157
30
0
0
SPLINE
5
158
100
AcDbEntity
8
0
100
AcDbSpline
70
4
71
3
72
8
73
4
74
0
42
0.000000001
43
0.0000000001
44
0.0000000001
40
0
40
0
40
0
40
0
40
1
40
1
40
1
40
1
41
1
41
1
41
1
41
1
10
-37.176147206624336
20
-21.339512128502157
30
0
10
-36.259657605489082
20
-21.104731562604538
30
0
10
-34.504370689392076
20
-20.515945230791996
30
0
10
-33.908759435017899
20
-20.243515557915003
30
0
0
SPLINE
5
159
100
AcDbEntity
8
0
100
AcDbSpline
70
4
71
3
72
8
73
4
74
0
42
0.000000001
43
0.0000000001
44
0.0000000001
40
0
40
0
40
0
40
0
40
1
40
1
40
1
40
1
41
1
41
1
41
1
41
1
10
-33.908759435017899
20
-20.243515557915003
30
0
10
-33.573976898193351
20
-20.090385773648848
30
0
10
-32.492954381306959
20
-19.257650346428182
30
0
10
-32.11020158131916
20
-18.858042147626509
30
0
0
SPLINE
5
160
100
AcDbEntity
8
0
100
AcDbSpline
70
4
71
3
72
8
73
4
74
0
42
0.000000001
43
0.0000000001
44
0.0000000001
40
0
40
0
40
0
40
0
40
1
40
1
40
1
40
1
41
1
41
1
41
1
41
1
10
-32.11020158131916
20
-18.858042147626509
30
0
10
-31.99479357401529
20
-18.737553297350832
30
0
10
-31.563141949971509
20
-18.188460925092325
30
0
10
-31.150965881347652
20
-17.637838445971436
30
0
0
SPLINE
5
161
100
AcDbEntity
8
0
100
AcDbSpline
70
4
71
3
72
8
73
4
74
0
42
0.000000001
43
0.0000000001
44
0.0000000001
40
0
40
0
40
0
40
0
40
1
40
1
40
1
40
1
41
1
41
1
41
1
41
1
10
-31.150965881347652
20
-17.637838445971436
30
0
10
-30.5079334259033
20
-16.77880657799048
30
0
10
-30.360098457336413
20
-16.616149960825869
30
0
10
-30.109427388509094
20
-16.491900438934593
30
0
0
LINE
5
162
100
AcDbEntity
8
0
100
AcDbLine
10
-30.109427388509076
20
-16.491900438934593
30
0
11
-29.817285982767725
21
-16.347097423543559
31
0
0
LINE
5
163
100
AcDbEntity
8
0
100
AcDbLine
10
-29.817285982767725
20
-16.347097423543559
30
0
11
-29.480226453145324
21
-16.461667707433328
31
0
0
SPLINE
5
164
100
AcDbEntity
8
0
100
AcDbSpline
70
4
71
3
72
8
73
4
74
0
42
0.000000001
43
0.0000000001
44
0.0000000001
40
0
40
0
40
0
40
0
40
1
40
1
40
1
40
1
41
1
41
1
41
1
41
1
10
-29.480226453145324
20
-16.461667707433332
30
0
10
-29.042777379353826
20
-16.610360585520695
30
0
10
-28.772808392842606
20
-16.850277506182618
30
0
10
-28.6868075052897
20
-17.166759318977622
30
0
0
SPLINE
5
165
100
AcDbEntity
8
0
100
AcDbSpline
70
4
71
3
72
8
73
4
74
0
42
0.000000001
43
0.0000000001
44
0.0000000001
40
0
40
0
40
0
40
0
40
1
40
1
40
1
40
1
41
1
41
1
41
1
41
1
10
-28.6868075052897
20
-17.166759318977622
30
0
10
-28.604407819112136
20
-17.469992990165977
30
0
10
-28.649947675069161
20
-18.222924664487469
30
0
10
-28.770918973286932
20
-18.557378167778282
30
0
0
LINE
5
166
100
AcDbEntity
8
0
100
AcDbLine
10
-28.770918973286932
20
-18.557378167778282
30
0
11
-28.858462079366038
21
-18.799397471418011
31
0
0
LINE
5
167
100
AcDbEntity
8
0
100
AcDbLine
10
-28.858462079366038
20
-18.799397471418011
30
0
11
-28.341051801045722
21
-18.750708582868207
31
0
0
SPLINE
5
168
100
AcDbEntity
8
0
100
AcDbSpline
70
4
71
3
72
8
73
4
74
0
42
0.000000001
43
0.0000000001
44
0.0000000001
40
0
40
0
40
0
40
0
40
1
40
1
40
1
40
1
41
1
41
1
41
1
41
1
10
-28.341051801045722
20
-18.750708582868207
30
0
10
-27.835276794433579
20
-18.703113781283328
30
0
10
-27.575618871053038
20
-18.641667273511516
30
0
10
-26.414764340718566
20
-18.29486996617916
30
0
0
SPLINE
5
169
100
AcDbEntity
8
0
100
AcDbSpline
70
4
71
3
72
8
73
4
74
0
42
0.000000001
43
0.0000000001
44
0.0000000001
40
0
40
0
40
0
40
0
40
1
40
1
40
1
40
1
41
1
41
1
41
1
41
1
10
-26.414764340718566
20
-18.29486996617916
30
0
10
-25.669937388102202
20
-18.072358515729533
30
0
10
-24.439440790812164
20
-17.605294405291506
30
0
10
-23.989791234334295
20
-17.374417832364667
30
0
0
SPLINE
5
170
100
AcDbEntity
8
0
100
AcDbSpline
70
4
71
3
72
8
73
4
74
0
42
0.000000001
43
0.0000000001
44
0.0000000001
40
0
40
0
40
0
40
0
40
1
40
1
40
1
40
1
41
1
41
1
41
1
41
1
10
-23.989791234334295
20
-17.374417832364667
30
0
10
-23.02453200022379
20
-16.87879240003231
30
0
10
-22.172177696228008
20
-16.189754798879253
30
0
10
-21.423079363505035
20
-15.299498052269247
30
0
0
SPLINE
5
171
100
AcDbEntity
8
0
100
AcDbSpline
70
4
71
3
72
8
73
4
74
0
42
0.000000001
43
0.0000000001
44
0.0000000001
40
0
40
0
40
0
40
0
40
1
40
1
40
1
40
1
41
1
41
1
41
1
41
1
10
-21.423079363505035
20
-15.299498052269247
30
0
10
-20.86171989440917
20
-14.632359348605103
30
0
10
-20.515697733561176
20
-14.053840679794579
30
0
10
-20.156086285909005
20
-13.181200348208375
30
0
0
SPLINE
5
172
100
AcDbEntity
8
0
100
AcDbSpline
70
4
71
3
72
8
73
4
74
0
42
0.000000001
43
0.0000000001
44
0.0000000001
40
0
40
0
40
0
40
0
40
1
40
1
40
1
40
1
41
1
41
1
41
1
41
1
10
-20.156086285909005
20
-13.181200348208375
30
0
10
-19.997948328653958
20
-12.797460447619386
30
0
10
-19.792518361409499
20
-12.391232215235657
30
0
10
-19.69956537882485
20
-12.278471615781415
30
0
0
SPLINE
5
173
100
AcDbEntity
8
0
100
AcDbSpline
70
4
71
3
72
8
73
4
74
0
42
0.000000001
43
0.0000000001
44
0.0000000001
40
0
40
0
40
0
40
0
40
1
40
1
40
1
40
1
41
1
41
1
41
1
41
1
10
-19.69956537882485
20
-12.278471615781415
30
0
10
-19.466238212585427
20
-11.995399827629356
30
0
10
-18.469101079304995
20
-11.196133974065409
30
0
10
-18.141383679707825
20
-11.029484545062013
30
0
0
SPLINE
5
174
100
AcDbEntity
8
0
100
AcDbSpline
70
4
71
3
72
8
73
4
74
0
42
0.000000001
43
0.0000000001
44
0.0000000001
40
0
40
0
40
0
40
0
40
1
40
1
40
1
40
1
41
1
41
1
41
1
41
1
10
-18.141383679707825
20
-11.029484545062013
30
0
10
-17.738630485534657
20
-10.824681356420147
30
0
10
-17.402733675638817
20
-10.842860963811505
30
0
10
-17.163318379720032
20
-11.082417562474834
30
0
0
SPLINE
5
175
100
AcDbEntity
8
0
100
AcDbSpline
70
4
71
3
72
8
73
4
74
0
42
0.000000001
43
0.0000000001
44
0.0000000001
40
0
40
0
40
0
40
0
40
1
40
1
40
1
40
1
41
1
41
1
41
1
41
1
10
-17.163318379720032
20
-11.082417562474834
30
0
10
-16.995587984720846
20
-11.250249897311157
30
0
10
-16.97284228006998
20
-11.31172870285315
30
0
10
-16.976637268066384
20
-11.587013700475321
30
0
0
SPLINE
5
176
100
AcDbEntity
8
0
100
AcDbSpline
70
4
71
3
72
8
73
4
74
0
42
0.000000001
43
0.0000000001
44
0.0000000001
40
0
40
0
40
0
40
0
40
1
40
1
40
1
40
1
41
1
41
1
41
1
41
1
10
-16.976637268066384
20
-11.587013700475321
30
0
10
-16.982911109924306
20
-12.04283515897396
30
0
10
-17.172983487447091
20
-12.360133499771385
30
0
10
-17.810977490742985
20
-12.979887337356832
30
0
0
SPLINE
5
177
100
AcDbEntity
8
0
100
AcDbSpline
70
4
71
3
72
8
73
4
74
0
42
0.000000001
43
0.0000000001
44
0.0000000001
40
0
40
0
40
0
40
0
40
1
40
1
40
1
40
1
41
1
41
1
41
1
41
1
10
-17.810977490742985
20
-12.979887337356832
30
0
10
-18.472783025105777
20
-13.622768397003441
30
0
10
-18.63630663553872
20
-13.920854611068991
30
0
10
-18.80963261922199
20
-14.800343079239157
30
0
0
SPLINE
5
178
100
AcDbEntity
8
0
100
AcDbSpline
70
4
71
3
72
8
73
4
74
0
42
0.000000001
43
0.0000000001
44
0.0000000001
40
0
40
0
40
0
40
0
40
1
40
1
40
1
40
1
41
1
41
1
41
1
41
1
10
-18.80963261922199
20
-14.800343079239157
30
0
10
-18.877013842264798
20
-15.14226241396867
30
0
10
-18.984371630350729
20
-15.573810079564678
30
0
10
-19.048208173116041
20
-15.759337555239625
30
0
0
SPLINE
5
179
100
AcDbEntity
8
0
100
AcDbSpline
70
4
71
3
72
8
73
4
74
0
42
0.000000001
43
0.0000000001
44
0.0000000001
40
0
40
0
40
0
40
0
40
1
40
1
40
1
40
1
41
1
41
1
41
1
41
1
10
-19.048208173116041
20
-15.759337555239625
30
0
10
-19.216883277893047
20
-16.249611650774906
30
0
10
-19.712460263570133
20
-17.115058663358319
30
0
10
-20.184362983703608
20
-17.743478396405806
30
0
0
LINE
5
180
100
AcDbEntity
8
0
100
AcDbLine
10
-20.184362983703608
20
-17.743478396405806
30
0
11
-20.59534403483072
21
-18.290766130755372
31
0
0
LINE
5
181
100
AcDbEntity
8
0
100
AcDbLine
10
-20.59534403483072
20
-18.290766130755372
30
0
11
-20.366401290893545
21
-18.162091814349125
31
0
0
SPLINE
5
182
100
AcDbEntity
8
0
100
AcDbSpline
70
4
71
3
72
8
73
4
74
0
42
0.000000001
43
0.0000000001
44
0.0000000001
40
0
40
0
40
0
40
0
40
1
40
1
40
1
40
1
41
1
41
1
41
1
41
1
10
-20.366401290893545
20
-18.162091814349125
30
0
10
-19.711184501647931
20
-17.793838694562542
30
0
10
-18.216096496582015
20
-16.505083985000876
30
0
10
-16.756414922078431
20
-15.050308643649048
30
0
0
SPLINE
5
183
100
AcDbEntity
8
0
100
AcDbSpline
70
4
71
3
72
8
73
4
74
0
42
0.000000001
43
0.0000000001
44
0.0000000001
40
0
40
0
40
0
40
0
40
1
40
1
40
1
40
1
41
1
41
1
41
1
41
1
10
-16.756414922078431
20
-15.050308643649048
30
0
10
-15.335958989461247
20
-13.634629753102887
30
0
10
-14.431589126586903
20
-12.533462511370608
30
0
10
-14.015141677856437
20
-11.712516779571798
30
0
0
SPLINE
5
184
100
AcDbEntity
8
0
100
AcDbSpline
70
4
71
3
72
8
73
4
74
0
42
0.000000001
43
0.0000000001
44
0.0000000001
40
0
40
0
40
0
40
0
40
1
40
1
40
1
40
1
41
1
41
1
41
1
41
1
10
-14.015141677856437
20
-11.712516779571798
30
0
10
-13.862583160400384
20
-11.411776092519389
30
0
10
-13.470141029357894
20
-11.109494196246095
30
0
10
-13.106661923726382
20
-11.012743197749087
30
0
0
SPLINE
5
185
100
AcDbEntity
8
0
100
AcDbSpline
70
4
71
3
72
8
73
4
74
0
42
0.000000001
43
0.0000000001
44
0.0000000001
40
0
40
0
40
0
40
0
40
1
40
1
40
1
40
1
41
1
41
1
41
1
41
1
10
-13.106661923726382
20
-11.012743197749087
30
0
10
-12.88861967722573
20
-10.954705114036825
30
0
10
-12.710545921325664
20
-10.817234701782493
30
0
10
-12.159796269734677
20
-10.281789146731324
30
0
0
SPLINE
5
186
100
AcDbEntity
8
0
100
AcDbSpline
70
4
71
3
72
8
73
4
74
0
42
0.000000001
43
0.0000000001
44
0.0000000001
40
0
40
0
40
0
40
0
40
1
40
1
40
1
40
1
41
1
41
1
41
1
41
1
10
-12.159796269734677
20
-10.281789146731324
30
0
10
-11.786724726359026
20
-9.9190791317522802
30
0
10
-11.329178365071595
20
-9.5218488562802737
30
0
10
-11.143030166625962
20
-9.3990537433525194
30
0
0
SPLINE
5
187
100
AcDbEntity
8
0
100
AcDbSpline
70
4
71
3
72
8
73
4
74
0
42
0.000000001
43
0.0000000001
44
0.0000000001
40
0
40
0
40
0
40
0
40
1
40
1
40
1
40
1
41
1
41
1
41
1
41
1
10
-11.143030166625962
20
-9.3990537433525194
30
0
10
-10.090292421976716
20
-8.7046042470832923
30
0
10
-7.9036849339802906
20
-8.0918983885348119
30
0
10
-6.778584035237607
20
-8.1760966567894098
30
0
0
SPLINE
5
188
100
AcDbEntity
8
0
100
AcDbSpline
70
4
71
3
72
8
73
4
74
0
42
0.000000001
43
0.0000000001
44
0.0000000001
40
0
40
0
40
0
40
0
40
1
40
1
40
1
40
1
41
1
41
1
41
1
41
1
10
-6.778584035237607
20
-8.1760966567894098
30
0
10
-5.5754113515217973
20
-8.2661367842257292
30
0
10
-4.8314322153727041
20
-8.7400197613934942
30
0
10
-4.832433446248352
20
-9.4157072811027636
30
0
0
SPLINE
5
189
100
AcDbEntity
8
0
100
AcDbSpline
70
4
71
3
72
8
73
4
74
0
42
0.000000001
43
0.0000000001
44
0.0000000001
40
0
40
0
40
0
40
0
40
1
40
1
40
1
40
1
41
1
41
1
41
1
41
1
10
-4.832433446248352
20
-9.4157072811027636
30
0
10
-4.832667605082186
20
-9.570974774032857
30
0
10
-4.8777714411417428
20
-9.7504201758603521
30
0
10
-4.9404694875081212
20
-9.8454987554451101
30
0
0
SPLINE
5
190
100
AcDbEntity
8
0
100
AcDbSpline
70
4
71
3
72
8
73
4
74
0
42
0.000000001
43
0.0000000001
44
0.0000000001
40
0
40
0
40
0
40
0
40
1
40
1
40
1
40
1
41
1
41
1
41
1
41
1
10
-4.9404694875081212
20
-9.8454987554451101
30
0
10
-5.1229599634806178
20
-10.122223022451031
30
0
10
-5.7633278528849097
20
-10.592973115911112
30
0
10
-6.1025513331095205
20
-10.699764683713543
30
0
0
SPLINE
5
191
100
AcDbEntity
8
0
100
AcDbSpline
70
4
71
3
72
8
73
4
74
0
42
0.000000001
43
0.0000000001
44
0.0000000001
40
0
40
0
40
0
40
0
40
1
40
1
40
1
40
1
41
1
41
1
41
1
41
1
10
-6.1025513331095205
20
-10.699764683713543
30
0
10
-6.277572949727368
20
-10.754863670339214
30
0
10
-6.4747266133626091
20
-10.822944341967531
30
0
10
-6.5406705856323022
20
-10.851055513689943
30
0
0
SPLINE
5
192
100
AcDbEntity
8
0
100
AcDbSpline
70
4
71
3
72
8
73
4
74
0
42
0.000000001
43
0.0000000001
44
0.0000000001
40
0
40
0
40
0
40
0
40
1
40
1
40
1
40
1
41
1
41
1
41
1
41
1
10
-6.5406705856323022
20
-10.851055513689943
30
0
10
-6.6066145579019953
20
-10.879167694717673
30
0
10
-7.0184757232665795
20
-10.918723379443115
30
0
10
-7.4559086481730041
20
-10.938957932462321
30
0
0
SPLINE
5
193
100
AcDbEntity
8
0
100
AcDbSpline
70
4
71
3
72
8
73
4
74
0
42
0.000000001
43
0.0000000001
44
0.0000000001
40
0
40
0
40
0
40
0
40
1
40
1
40
1
40
1
41
1
41
1
41
1
41
1
10
-7.4559086481730041
20
-10.938957932462321
30
0
10
-8.361635017395006
20
-10.980854196220664
30
0
10
-8.4491619745890212
20
-11.000181383758811
30
0
10
-8.3758783340453924
20
-11.142098795245118
30
0
0
SPLINE
5
194
100
AcDbEntity
8
0
100
AcDbSpline
70
4
71
3
72
8
73
4
74
0
42
0.000000001
43
0.0000000001
44
0.0000000001
40
0
40
0
40
0
40
0
40
1
40
1
40
1
40
1
41
1
41
1
41
1
41
1
10
-8.3758783340453924
20
-11.142098795245118
30
0
10
-8.2650808334350501
20
-11.356635724375671
30
0
10
-8.24289226531981
20
-12.087250648806521
30
0
10
-8.3339154561360473
20
-12.523778226842509
30
0
0
SPLINE
5
195
100
AcDbEntity
8
0
100
AcDbSpline
70
4
71
3
72
8
73
4
74
0
42
0.000000001
43
0.0000000001
44
0.0000000001
40
0
40
0
40
0
40
0
40
1
40
1
40
1
40
1
41
1
41
1
41
1
41
1
10
-8.3339154561360473
20
-12.523778226842509
30
0
10
-8.4550805409749152
20
-13.104909987121848
30
0
10
-8.7297811508178569
20
-13.590841041872926
30
0
10
-9.5774926503499103
20
-14.723619726171124
30
0
0
SPLINE
5
196
100
AcDbEntity
8
0
100
AcDbSpline
70
4
71
3
72
8
73
4
74
0
42
0.000000001
43
0.0000000001
44
0.0000000001
40
0
40
0
40
0
40
0
40
1
40
1
40
1
40
1
41
1
41
1
41
1
41
1
10
-9.5774926503499103
20
-14.723619726171124
30
0
10
-10.535137685139961
20
-16.003306836754113
30
0
10
-10.748480606079092
20
-16.372555131584434
30
0
10
-11.459209187825508
20
-17.98048548983537
30
0
0
SPLINE
5
197
100
AcDbEntity
8
0
100
AcDbSpline
70
4
71
3
72
8
73
4
74
0
42
0.000000001
43
0.0000000001
44
0.0000000001
40
0
40
0
40
0
40
0
40
1
40
1
40
1
40
1
41
1
41
1
41
1
41
1
10
-11.459209187825508
20
-17.98048548983537
30
0
10
-11.695992215474433
20
-18.516180343300132
30
0
10
-12.364838663736961
20
-19.539490782092045
30
0
10
-12.932011731465636
20
-20.233828245470949
30
0
0
SPLINE
5
198
100
AcDbEntity
8
0
100
AcDbSpline
70
4
71
3
72
8
73
4
74
0
42
0.000000001
43
0.0000000001
44
0.0000000001
40
0
40
0
40
0
40
0
40
1
40
1
40
1
40
1
41
1
41
1
41
1
41
1
10
-12.932011731465636
20
-20.233828245470949
30
0
10
-13.84062875111896
20
-21.346169506380981
30
0
10
-15.065731620788565
20
-22.320114822059899
30
0
10
-16.397877375284811
20
-22.989155056943527
30
0
0
SPLINE
5
199
100
AcDbEntity
8
0
100
AcDbSpline
70
4
71
3
72
8
73
4
74
0
42
0.000000001
43
0.0000000001
44
0.0000000001
40
0
40
0
40
0
40
0
40
1
40
1
40
1
40
1
41
1
41
1
41
1
41
1
10
-16.397877375284811
20
-22.989155056943527
30
0
10
-16.956330045064281
20
-23.269628893206544
30
0
10
-17.991287867228181
20
-23.693682466814945
30
0
10
-18.291277631123855
20
-23.764943459500898
30
0
0
SPLINE
5
200
100
AcDbEntity
8
0
100
AcDbSpline
70
4
71
3
72
8
73
4
74
0
42
0.000000001
43
0.0000000001
44
0.0000000001
40
0
40
0
40
0
40
0
40
1
40
1
40
1
40
1
41
1
41
1
41
1
41
1
10
-18.291277631123855
20
-23.764943459500898
30
0
10
-18.390197626749654
20
-23.788442105919149
30
0
10
-18.727426719665505
20
-23.885535258919028
30
0
10
-19.040674718221009
20
-23.980708713203697
30
0
0
SPLINE
5
201
100
AcDbEntity
8
0
100
AcDbSpline
70
4
71
3
72
8
73
4
74
0
42
0.000000001
43
0.0000000001
44
0.0000000001
40
0
40
0
40
0
40
0
40
1
40
1
40
1
40
1
41
1
41
1
41
1
41
1
10
-19.040674718221009
20
-23.980708713203697
30
0
10
-19.443831634521462
20
-24.103198006620037
30
0
10
-19.852923266092919
20
-24.173683852821618
30
0
10
-20.441017214457187
20
-24.221985168129233
30
0
0
SPLINE
5
202
100
AcDbEntity
8
0
100
AcDbSpline
70
4
71
3
72
8
73
4
74
0
42
0.000000001
43
0.0000000001
44
0.0000000001
40
0
40
0
40
0
40
0
40
1
40
1
40
1
40
1
41
1
41
1
41
1
41
1
10
-20.441017214457187
20
-24.221985168129233
30
0
10
-21.370611635843897
20
-24.298333059618898
30
0
10
-24.742208162943502
20
-24.317707684507003
30
0
10
-25.665383402506503
20
-24.252005945513673
30
0
0
SPLINE
5
203
100
AcDbEntity
8
0
100
AcDbSpline
70
4
71
3
72
8
73
4
74
0
42
0.000000001
43
0.0000000001
44
0.0000000001
40
0
40
0
40
0
40
0
40
1
40
1
40
1
40
1
41
1
41
1
41
1
41
1
10
-25.665383402506503
20
-24.252005945513673
30
0
10
-26.248172442118314
20
-24.210529552767703
30
0
10
-26.5436647415161
20
-24.238656873375209
30
0
10
-27.332416661580385
20
-24.410690946251179
30
0
0
SPLINE
5
204
100
AcDbEntity
8
0
100
AcDbSpline
70
4
71
3
72
8
73
4
74
0
42
0.000000001
43
0.0000000001
44
0.0000000001
40
0
40
0
40
0
40
0
40
1
40
1
40
1
40
1
41
1
41
1
41
1
41
1
10
-27.332416661580385
20
-24.410690946251179
30
0
10
-27.586551666259744
20
-24.466119975715905
30
0
10
-27.691737429300929
20
-24.468572587639123
30
0
10
-27.722105407714839
20
-24.419782768557496
30
0
0
SPLINE
5
205
100
AcDbEntity
8
0
100
AcDbSpline
70
4
71
3
72
8
73
4
74
0
42
0.000000001
43
0.0000000001
44
0.0000000001
40
0
40
0
40
0
40
0
40
1
40
1
40
1
40
1
41
1
41
1
41
1
41
1
10
-27.722105407714839
20
-24.419782768557496
30
0
10
-27.844893455505364
20
-24.222516062726605
30
0
10
-28.998626327514643
20
-24.091924066215782
30
0
10
-29.972032674153635
20
-24.165110813448855
30
0
0
SPLINE
5
206
100
AcDbEntity
8
0
100
AcDbSpline
70
4
71
3
72
8
73
4
74
0
42
0.000000001
43
0.0000000001
44
0.0000000001
40
0
40
0
40
0
40
0
40
1
40
1
40
1
40
1
41
1
41
1
41
1
41
1
10
-29.972032674153635
20
-24.165110813448855
30
0
10
-30.570042037963852
20
-24.210073346763878
30
0
10
-30.709883308410628
20
-24.203807579348513
30
0
10
-30.861803944905581
20
-24.125249309212002
30
0
0
SPLINE
5
207
100
AcDbEntity
8
0
100
AcDbSpline
70
4
71
3
72
8
73
4
74
0
42
0.000000001
43
0.0000000001
44
0.0000000001
40
0
40
0
40
0
40
0
40
1
40
1
40
1
40
1
41
1
41
1
41
1
41
1
10
-30.861803944905581
20
-24.125249309212002
30
0
10
-31.152863375345845
20
-23.974735644330607
30
0
10
-32.173343722025542
20
-23.91928844737016
30
0
10
-32.733419354756649
20
-24.023553723961143
30
0
0
SPLINE
5
208
100
AcDbEntity
8
0
100
AcDbSpline
70
4
71
3
72
8
73
4
74
0
42
0.000000001
43
0.0000000001
44
0.0000000001
40
0
40
0
40
0
40
0
40
1
40
1
40
1
40
1
41
1
41
1
41
1
41
1
10
-32.733419354756649
20
-24.023553723961143
30
0
10
-33.157820129394523
20
-24.102562144269577
30
0
10
-33.241858927408842
20
-24.101809202502199
30
0
10
-33.546709505716947
20
-24.016272595395669
30
0
0
SPLINE
5
209
100
AcDbEntity
8
0
100
AcDbSpline
70
4
71
3
72
8
73
4
74
0
42
0.000000001
43
0.0000000001
44
0.0000000001
40
0
40
0
40
0
40
0
40
1
40
1
40
1
40
1
41
1
41
1
41
1
41
1
10
-33.546709505716947
20
-24.016272595395669
30
0
10
-34.182797940572094
20
-23.83779511736833
30
0
10
-34.992890612284327
20
-23.944630085299444
30
0
10
-35.787585322062156
20
-24.311801229784912
30
0
0
SPLINE
5
210
100
AcDbEntity
8
0
100
AcDbSpline
70
4
71
3
72
8
73
4
74
0
42
0.000000001
43
0.0000000001
44
0.0000000001
40
0
40
0
40
0
40
0
40
1
40
1
40
1
40
1
41
1
41
1
41
1
41
1
10
-35.787585322062156
20
-24.311801229784912
30
0
10
-36.113195292154927
20
-24.462240206072757
30
0
10
-36.322920862833641
20
-24.52040041572852
30
0
10
-36.539808464050282
20
-24.52040041572852
30
0
0
SPLINE
5
211
100
AcDbEntity
8
0
100
AcDbSpline
70
4
71
3
72
8
73
4
74
0
42
0.000000001
43
0.0000000001
44
0.0000000001
40
0
40
0
40
0
40
0
40
1
40
1
40
1
40
1
41
1
41
1
41
1
41
1
10
-36.539808464050282
20
-24.52040041572852
30
0
10
-37.304869969685868
20
-24.52040041572852
30
0
10
-37.864630699157701
20
-24.79796139684322
30
0
10
-38.659656461079912
20
-25.571547495196292
30
0
0
SPLINE
5
212
100
AcDbEntity
8
0
100
AcDbSpline
70
4
71
3
72
8
73
4
74
0
42
0.000000001
43
0.0000000001
44
0.0000000001
40
0
40
0
40
0
40
0
40
1
40
1
40
1
40
1
41
1
41
1
41
1
41
1
10
-38.659656461079912
20
-25.571547495196292
30
0
10
-39.0129456202189
20
-25.915312849352787
30
0
10
-39.226256243387851
20
-26.074336976677209
30
0
10
-39.404951731363923
20
-26.127176128695439
30
0
0
SPLINE
5
213
100
AcDbEntity
8
0
100
AcDbSpline
70
4
71
3
72
8
73
4
74
0
42
0.000000001
43
0.0000000001
44
0.0000000001
40
0
40
0
40
0
40
0
40
1
40
1
40
1
40
1
41
1
41
1
41
1
41
1
10
-39.404951731363923
20
-26.127176128695439
30
0
10
-39.737489573160794
20
-26.225508708626059
30
0
10
-40.272009595235183
20
-26.593358106285365
30
0
10
-40.497213872273754
20
-26.878854245811731
30
0
0
SPLINE
5
214
100
AcDbEntity
8
0
100
AcDbSpline
70
4
71
3
72
8
73
4
74
0
42
0.000000001
43
0.0000000001
44
0.0000000001
40
0
40
0
40
0
40
0
40
1
40
1
40
1
40
1
41
1
41
1
41
1
41
1
10
-40.497213872273754
20
-26.878854245811731
30
0
10
-40.698178672790519
20
-27.133627131452194
30
0
10
-40.923189163207994
20
-27.679653234154014
30
0
10
-40.923189163207994
20
-27.912558510770431
30
0
0
SPLINE
5
215
100
AcDbEntity
8
0
100
AcDbSpline
70
4
71
3
72
8
73
4
74
0
42
0.000000001
43
0.0000000001
44
0.0000000001
40
0
40
0
40
0
40
0
40
1
40
1
40
1
40
1
41
1
41
1
41
1
41
1
10
-40.923189163207994
20
-27.912558510770431
30
0
10
-40.923189163207994
20
-27.995192355781825
30
0
10
-40.988293393452949
20
-28.133015015592207
30
0
10
-41.06786702473957
20
-28.218830190966557
30
0
0
SPLINE
5
216
100
AcDbEntity
8
0
100
AcDbSpline
70
4
71
3
72
8
73
4
74
0
42
0.000000001
43
0.0000000001
44
0.0000000001
40
0
40
0
40
0
40
0
40
1
40
1
40
1
40
1
41
1
41
1
41
1
41
1
10
-41.06786702473957
20
-28.218830190966557
30
0
10
-41.147440656026191
20
-28.304643347730266
30
0
10
-41.31099656422932
20
-28.606970662742881
30
0
10
-41.431329981485987
20
-28.890674276024132
30
0
0
SPLINE
5
217
100
AcDbEntity
8
0
100
AcDbSpline
70
4
71
3
72
8
73
4
74
0
42
0.000000001
43
0.0000000001
44
0.0000000001
40
0
40
0
40
0
40
0
40
1
40
1
40
1
40
1
41
1
41
1
41
1
41
1
10
-41.431329981485987
20
-28.890674276024132
30
0
10
-41.61762351989745
20
-29.329879541069296
30
0
10
-41.658237965901684
20
-29.508898006747195
30
0
10
-41.704770978291819
20
-30.095944296191167
30
0
0
SPLINE
5
218
100
AcDbEntity
8
0
100
AcDbSpline
70
4
71
3
72
8
73
4
74
0
42
0.000000001
43
0.0000000001
44
0.0000000001
40
0
40
0
40
0
40
0
40
1
40
1
40
1
40
1
41
1
41
1
41
1
41
1
10
-41.704770978291819
20
-30.095944296191167
30
0
10
-41.786904207865383
20
-31.1320466705859
30
0
10
-41.882659022013335
20
-32.9412082859576
30
0
10
-41.884055900573721
20
-33.483233502378098
30
0
0
SPLINE
5
219
100
AcDbEntity
8
0
100
AcDbSpline
70
4
71
3
72
8
73
4
74
0
42
0.000000001
43
0.0000000001
44
0.0000000001
40
0
40
0
40
0
40
0
40
1
40
1
40
1
40
1
41
1
41
1
41
1
41
1
10
-41.884055900573721
20
-33.483233502378098
30
0
10
-41.884847195943181
20
-33.747021503120692
30
0
10
-41.907261848449693
20
-34.05729406959815
30
0
10
-41.934125518798815
20
-34.172726300229655
30
0
0
LINE
5
220
100
AcDbEntity
8
0
100
AcDbLine
10
-41.934125518798815
20
-34.172726300229655
30
0
11
-41.982967821756986
21
-34.382601248095462
31
0
0
LINE
5
221
100
AcDbEntity
8
0
100
AcDbLine
10
-41.982967821756986
20
-34.382601248095462
30
0
11
-41.595741780598942
21
-34.187712465594245
31
0
0
SPLINE
5
222
100
AcDbEntity
8
0
100
AcDbSpline
70
4
71
3
72
8
73
4
74
0
42
0.000000001
43
0.0000000001
44
0.0000000001
40
0
40
0
40
0
40
0
40
1
40
1
40
1
40
1
41
1
41
1
41
1
41
1
10
-41.595741780598949
20
-34.187712465594245
30
0
10
-41.286014238993317
20
-34.031827277809413
30
0
10
-41.135765012105296
20
-33.992823683093022
30
0
10
-40.844972038269027
20
-33.992823683093022
30
0
0
SPLINE
5
223
100
AcDbEntity
8
0
100
AcDbSpline
70
4
71
3
72
8
73
4
74
0
42
0.000000001
43
0.0000000001
44
0.0000000001
40
0
40
0
40
0
40
0
40
1
40
1
40
1
40
1
41
1
41
1
41
1
41
1
10
-40.844972038269027
20
-33.992823683093022
30
0
10
-40.256765047709138
20
-33.992823683093022
30
0
10
-39.806009292602539
20
-34.150255126625325
30
0
10
-39.482514826456701
20
-34.468674805631274
30
0
0
SPLINE
5
224
100
AcDbEntity
8
0
100
AcDbSpline
70
4
71
3
72
8
73
4
74
0
42
0.000000001
43
0.0000000001
44
0.0000000001
40
0
40
0
40
0
40
0
40
1
40
1
40
1
40
1
41
1
41
1
41
1
41
1
10
-39.482514826456701
20
-34.468674805631274
30
0
10
-39.236244328816724
20
-34.711081682513189
30
0
10
-39.189929326375307
20
-34.800243714322676
30
0
10
-39.075684038798002
20
-35.251819025347658
30
0
0
SPLINE
5
225
100
AcDbEntity
8
0
100
AcDbSpline
70
4
71
3
72
8
73
4
74
0
42
0.000000001
43
0.0000000001
44
0.0000000001
40
0
40
0
40
0
40
0
40
1
40
1
40
1
40
1
41
1
41
1
41
1
41
1
10
-39.075684038798002
20
-35.251819025347658
30
0
10
-38.850334421793619
20
-36.142579415311445
30
0
10
-38.814459673563633
20
-36.519797184934248
30
0
10
-38.888470013936356
20
-37.22040041572852
30
0
0
SPLINE
5
226
100
AcDbEntity
8
0
100
AcDbSpline
70
4
71
3
72
8
73
4
74
0
42
0.000000001
43
0.0000000001
44
0.0000000001
40
0
40
0
40
0
40
0
40
1
40
1
40
1
40
1
41
1
41
1
41
1
41
1
10
-38.888470013936356
20
-37.22040041572852
30
0
10
-39.011419550577799
20
-38.384161745379402
30
0
10
-39.487068812052399
20
-40.181980787585218
30
0
10
-40.034661356608069
20
-41.552633558581306
30
0
0
LINE
5
227
100
AcDbEntity
8
0
100
AcDbLine
10
-40.034661356608076
20
-41.552633558581306
30
0
11
-40.240583864847814
21
-42.068077710141765
31
0
0
LINE
5
228
100
AcDbEntity
8
0
100
AcDbLine
10
-40.240583864847814
20
-42.068077710141765
30
0
11
-39.907432365417463
21
-42.332015088071458
31
0
0
SPLINE
5
229
100
AcDbEntity
8
0
100
AcDbSpline
70
4
71
3
72
8
73
4
74
0
42
0.000000001
43
0.0000000001
44
0.0000000001
40
0
40
0
40
0
40
0
40
1
40
1
40
1
40
1
41
1
41
1
41
1
41
1
10
-39.907432365417463
20
-42.332015088071458
30
0
10
-39.40873864491779
20
-42.727097561826341
30
0
10
-39.054997316996243
20
-43.520819301277427
30
0
10
-38.846272977193181
20
-44.713034966458913
30
0
0
SPLINE
5
230
100
AcDbEntity
8
0
100
AcDbSpline
70
4
71
3
72
8
73
4
74
0
42
0.000000001
43
0.0000000001
44
0.0000000001
40
0
40
0
40
0
40
0
40
1
40
1
40
1
40
1
41
1
41
1
41
1
41
1
10
-38.846272977193181
20
-44.713034966458913
30
0
10
-38.753255399068181
20
-45.244357509285244
30
0
10
-38.764624214172358
20
-45.78749699877703
30
0
10
-38.889204788207991
20
-46.763858591387702
30
0
0
SPLINE
5
231
100
AcDbEntity
8
0
100
AcDbSpline
70
4
71
3
72
8
73
4
74
0
42
0.000000001
43
0.0000000001
44
0.0000000001
40
0
40
0
40
0
40
0
40
1
40
1
40
1
40
1
41
1
41
1
41
1
41
1
10
-38.889204788207991
20
-46.763858591387702
30
0
10
-38.989271354675274
20
-47.548096898069019
30
0
10
-39.491776212056457
20
-48.853742332130707
30
0
10
-39.961660321553545
20
-49.550381011635096
30
0
0
SPLINE
5
232
100
AcDbEntity
8
0
100
AcDbSpline
70
4
71
3
72
8
73
4
74
0
42
0.000000001
43
0.0000000001
44
0.0000000001
40
0
40
0
40
0
40
0
40
1
40
1
40
1
40
1
41
1
41
1
41
1
41
1
10
-39.961660321553545
20
-49.550381011635096
30
0
10
-40.050624529520661
20
-49.682272993395756
30
0
10
-40.14126822153726
20
-49.820971730222332
30
0
10
-40.163093439737942
20
-49.85859459526344
30
0
0
SPLINE
5
233
100
AcDbEntity
8
0
100
AcDbSpline
70
4
71
3
72
8
73
4
74
0
42
0.000000001
43
0.0000000001
44
0.0000000001
40
0
40
0
40
0
40
0
40
1
40
1
40
1
40
1
41
1
41
1
41
1
41
1
10
-40.163093439737942
20
-49.85859459526344
30
0
10
-40.187276395161938
20
-49.900270830462404
30
0
10
-40.044859377543119
20
-50.021391505867278
30
0
10
-39.798596954345697
20
-50.168596667915615
30
0
0
SPLINE
5
234
100
AcDbEntity
8
0
100
AcDbSpline
70
4
71
3
72
8
73
4
74
0
42
0.000000001
43
0.0000000001
44
0.0000000001
40
0
40
0
40
0
40
0
40
1
40
1
40
1
40
1
41
1
41
1
41
1
41
1
10
-39.798596954345697
20
-50.168596667915615
30
0
10
-38.996320343017565
20
-50.648157996803548
30
0
10
-37.742181777954102
20
-51.831237430244713
30
0
10
-37.23100496927897
20
-52.590703347196211
30
0
0
SPLINE
5
235
100
AcDbEntity
8
0
100
AcDbSpline
70
4
71
3
72
8
73
4
74
0
42
0.000000001
43
0.0000000001
44
0.0000000001
40
0
40
0
40
0
40
0
40
1
40
1
40
1
40
1
41
1
41
1
41
1
41
1
10
-37.23100496927897
20
-52.590703347196211
30
0
10
-36.911014811197909
20
-53.066118449836999
30
0
10
-36.427888615926101
20
-54.068984400103524
30
0
10
-36.254861386617009
20
-54.616948369016285
30
0
0
SPLINE
5
236
100
AcDbEntity
8
0
100
AcDbSpline
70
4
71
3
72
8
73
4
74
0
42
0.000000001
43
0.0000000001
44
0.0000000001
40
0
40
0
40
0
40
0
40
1
40
1
40
1
40
1
41
1
41
1
41
1
41
1
10
-36.254861386617009
20
-54.616948369016285
30
0
10
-35.838866106669087
20
-55.934390563637052
30
0
10
-35.75814590454101
20
-57.597439085314704
30
0
10
-36.017731157938627
20
-59.502418091764085
30
0
0
SPLINE
5
237
100
AcDbEntity
8
0
100
AcDbSpline
70
4
71
3
72
8
73
4
74
0
42
0.000000001
43
0.0000000001
44
0.0000000001
40
0
40
0
40
0
40
0
40
1
40
1
40
1
40
1
41
1
41
1
41
1
41
1
10
-36.017731157938627
20
-59.502418091764085
30
0
10
-36.106816482543934
20
-60.156149183581313
30
0
10
-36.462075805664043
20
-61.819637762377695
30
0
10
-36.606705220540348
20
-62.260211645434332
30
0
0
SPLINE
5
238
100
AcDbEntity
8
0
100
AcDbSpline
70
4
71
3
72
8
73
4
74
0
42
0.000000001
43
0.0000000001
44
0.0000000001
40
0
40
0
40
0
40
0
40
1
40
1
40
1
40
1
41
1
41
1
41
1
41
1
10
-36.606705220540348
20
-62.260211645434332
30
0
10
-36.671647961934397
20
-62.458055673907239
30
0
10
-36.763236363728836
20
-62.741323267291023
30
0
10
-36.810237693786604
20
-62.88970729795102
30
0
0
SPLINE
5
239
100
AcDbEntity
8
0
100
AcDbSpline
70
4
71
3
72
8
73
4
74
0
42
0.000000001
43
0.0000000001
44
0.0000000001
40
0
40
0
40
0
40
0
40
1
40
1
40
1
40
1
41
1
41
1
41
1
41
1
10
-36.810237693786604
20
-62.88970729795102
30
0
10
-36.857239023844386
20
-63.038087291389743
30
0
10
-37.075781885782874
20
-63.672080408404305
30
0
10
-37.295891189575187
20
-64.298580442736579
30
0
0
SPLINE
5
240
100
AcDbEntity
8
0
100
AcDbSpline
70
4
71
3
72
8
73
4
74
0
42
0.000000001
43
0.0000000001
44
0.0000000001
40
0
40
0
40
0
40
0
40
1
40
1
40
1
40
1
41
1
41
1
41
1
41
1
10
-37.295891189575187
20
-64.298580442736579
30
0
10
-37.866043726603174
20
-65.921426314979826
30
0
10
-37.835183207194007
20
-65.736832446724208
30
0
10
-37.633144505818677
20
-66.315774014463059
30
0
0
SPLINE
5
241
100
AcDbEntity
8
0
100
AcDbSpline
70
4
71
3
72
8
73
4
74
0
42
0.000000001
43
0.0000000001
44
0.0000000001
40
0
40
0
40
0
40
0
40
1
40
1
40
1
40
1
41
1
41
1
41
1
41
1
10
-37.633144505818677
20
-66.315774014463059
30
0
10
-37.41456127166748
20
-66.942116597165693
30
0
10
-36.662693405151359
20
-68.778430544207524
30
0
10
-36.46649252573647
20
-69.165123672157563
30
0
0
SPLINE
5
242
100
AcDbEntity
8
0
100
AcDbSpline
70
4
71
3
72
8
73
4
74
0
42
0.000000001
43
0.0000000001
44
0.0000000001
40
0
40
0
40
0
40
0
40
1
40
1
40
1
40
1
41
1
41
1
41
1
41
1
10
-36.46649252573647
20
-69.165123672157563
30
0
10
-36.244703737894675
20
-69.602265917132343
30
0
10
-35.845333735148103
20
-70.105400581032072
30
0
10
-35.158578173319484
20
-70.812859013547538
30
0
0
SPLINE
5
243
100
AcDbEntity
8
0
100
AcDbSpline
70
4
71
3
72
8
73
4
74
0
42
0.000000001
43
0.0000000001
44
0.0000000001
40
0
40
0
40
0
40
0
40
1
40
1
40
1
40
1
41
1
41
1
41
1
41
1
10
-35.158578173319484
20
-70.812859013547538
30
0
10
-34.51205755869546
20
-71.47887940691912
30
0
10
-33.957416025797507
20
-71.882528864214848
30
0
10
-33.004785219828264
20
-72.380326321591966
30
0
0
SPLINE
5
244
100
AcDbEntity
8
0
100
AcDbSpline
70
4
71
3
72
8
73
4
74
0
42
0.000000001
43
0.0000000001
44
0.0000000001
40
0
40
0
40
0
40
0
40
1
40
1
40
1
40
1
41
1
41
1
41
1
41
1
10
-33.004785219828264
20
-72.380326321591966
30
0
10
-32.469958368937156
20
-72.659807001421882
30
0
10
-30.697464815775533
20
-73.255377883583336
30
0
10
-29.84826761881509
20
-73.440952796608244
30
0
0
SPLINE
5
245
100
AcDbEntity
8
0
100
AcDbSpline
70
4
71
3
72
8
73
4
74
0
42
0.000000001
43
0.0000000001
44
0.0000000001
40
0
40
0
40
0
40
0
40
1
40
1
40
1
40
1
41
1
41
1
41
1
41
1
10
-29.84826761881509
20
-73.440952796608244
30
0
10
-29.327603340148904
20
-73.554737840960456
30
0
10
-28.384193547566721
20
-73.964031333595543
30
0
10
-27.794032541910791
20
-74.332177467018397
30
0
0
SPLINE
5
246
100
AcDbEntity
8
0
100
AcDbSpline
70
4
71
3
72
8
73
4
74
0
42
0.000000001
43
0.0000000001
44
0.0000000001
40
0
40
0
40
0
40
0
40
1
40
1
40
1
40
1
41
1
41
1
41
1
41
1
10
-27.794032541910791
20
-74.332177467018397
30
0
10
-27.032975959777819
20
-74.806930465370442
30
0
10
-26.298556963602682
20
-75.597943229347507
30
0
10
-25.587578074137358
20
-76.708647397031427
30
0
0
SPLINE
5
247
100
AcDbEntity
8
0
100
AcDbSpline
70
4
71
3
72
8
73
4
74
0
42
0.000000001
43
0.0000000001
44
0.0000000001
40
0
40
0
40
0
40
0
40
1
40
1
40
1
40
1
41
1
41
1
41
1
41
1
10
-25.587578074137358
20
-76.708647397031427
30
0
10
-25.35540555318196
20
-77.071359430621101
30
0
10
-25.1098133087158
20
-77.449057629575378
30
0
10
-25.041810353596983
20
-77.547977625201185
30
0
0
SPLINE
5
248
100
AcDbEntity
8
0
100
AcDbSpline
70
4
71
3
72
8
73
4
74
0
42
0.000000001
43
0.0000000001
44
0.0000000001
40
0
40
0
40
0
40
0
40
1
40
1
40
1
40
1
41
1
41
1
41
1
41
1
10
-25.041810353596983
20
-77.547977625201185
30
0
10
-24.915792528788234
20
-77.731323992083503
30
0
10
-24.590231005350738
20
-78.379136517514823
30
0
10
-24.137957255045563
20
-79.346543553342457
30
0
0
SPLINE
5
249
100
AcDbEntity
8
0
100
AcDbSpline
70
4
71
3
72
8
73
4
74
0
42
0.000000001
43
0.0000000001
44
0.0000000001
40
0
40
0
40
0
40
0
40
1
40
1
40
1
40
1
41
1
41
1
41
1
41
1
10
-24.137957255045563
20
-79.346543553342457
30
0
10
-23.858839925130191
20
-79.943567835162114
30
0
10
-23.356892204284652
20
-81.349384803444181
30
0
10
-23.206804466247544
20
-81.954459304481787
30
0
0
SPLINE
5
250
100
AcDbEntity
8
0
100
AcDbSpline
70
4
71
3
72
8
73
4
74
0
42
0.000000001
43
0.0000000001
44
0.0000000001
40
0
40
0
40
0
40
0
40
1
40
1
40
1
40
1
41
1
41
1
41
1
41
1
10
-23.206804466247544
20
-81.954459304481787
30
0
10
-23.153642336527493
20
-82.168787307411463
30
0
10
-23.003869501749659
20
-82.673480338722513
30
0
10
-22.873984018961568
20
-83.076007448504399
30
0
0
SPLINE
5
251
100
AcDbEntity
8
0
100
AcDbSpline
70
4
71
3
72
8
73
4
74
0
42
0.000000001
43
0.0000000001
44
0.0000000001
40
0
40
0
40
0
40
0
40
1
40
1
40
1
40
1
41
1
41
1
41
1
41
1
10
-22.873984018961568
20
-83.076007448504399
30
0
10
-22.744098536173496
20
-83.478526483843766
30
0
10
-22.637822723388652
20
-83.85116200732196
30
0
10
-22.637822723388652
20
-83.904073829323096
30
0
0
SPLINE
5
252
100
AcDbEntity
8
0
100
AcDbSpline
70
4
71
3
72
8
73
4
74
0
42
0.000000001
43
0.0000000001
44
0.0000000001
40
0
40
0
40
0
40
0
40
1
40
1
40
1
40
1
41
1
41
1
41
1
41
1
10
-22.637822723388652
20
-83.904073829323096
30
0
10
-22.637822723388652
20
-83.956985651324231
30
0
10
-22.518474388122538
20
-84.369557367632822
30
0
10
-22.372601509094228
20
-84.820894482602711
30
0
0
SPLINE
5
253
100
AcDbEntity
8
0
100
AcDbSpline
70
4
71
3
72
8
73
4
74
0
42
0.000000001
43
0.0000000001
44
0.0000000001
40
0
40
0
40
0
40
0
40
1
40
1
40
1
40
1
41
1
41
1
41
1
41
1
10
-22.372601509094228
20
-84.820894482602711
30
0
10
-22.226728630065899
20
-85.272231597572613
30
0
10
-22.07669741312662
20
-85.803376502662942
30
0
10
-22.039191627502426
20
-86.001224568357117
30
0
0
SPLINE
5
254
100
AcDbEntity
8
0
100
AcDbSpline
70
4
71
3
72
8
73
4
74
0
42
0.000000001
43
0.0000000001
44
0.0000000001
40
0
40
0
40
0
40
0
40
1
40
1
40
1
40
1
41
1
41
1
41
1
41
1
10
-22.039191627502426
20
-86.001224568357117
30
0
10
-22.001685841878249
20
-86.199064559608729
30
0
10
-21.894505691528305
20
-86.657700970639823
30
0
10
-21.801019795735659
20
-87.020413004229496
30
0
0
SPLINE
5
255
100
AcDbEntity
8
0
100
AcDbSpline
70
4
71
3
72
8
73
4
74
0
42
0.000000001
43
0.0000000001
44
0.0000000001
40
0
40
0
40
0
40
0
40
1
40
1
40
1
40
1
41
1
41
1
41
1
41
1
10
-21.801019795735659
20
-87.020413004229496
30
0
10
-21.707533899943012
20
-87.383125037819184
30
0
10
-21.563203239440902
20
-87.990137405067728
30
0
10
-21.480294863382969
20
-88.369329375892931
30
0
0
SPLINE
5
256
100
AcDbEntity
8
0
100
AcDbSpline
70
4
71
3
72
8
73
4
74
0
42
0.000000001
43
0.0000000001
44
0.0000000001
40
0
40
0
40
0
40
0
40
1
40
1
40
1
40
1
41
1
41
1
41
1
41
1
10
-21.480294863382969
20
-88.369329375892931
30
0
10
-21.356029192606591
20
-88.937665163348157
30
0
10
-21.279305839538551
20
-89.142110048602063
30
0
10
-21.043524042765291
20
-89.533179524411807
30
0
0
SPLINE
5
257
100
AcDbEntity
8
0
100
AcDbSpline
70
4
71
3
72
8
73
4
74
0
42
0.000000001
43
0.0000000001
44
0.0000000001
40
0
40
0
40
0
40
0
40
1
40
1
40
1
40
1
41
1
41
1
41
1
41
1
10
-21.043524042765291
20
-89.533179524411807
30
0
10
-20.703993733723944
20
-90.096323445310247
30
0
10
-20.281345113118476
20
-91.094938201576511
30
0
10
-20.116069348653145
20
-91.724510561297379
30
0
0
SPLINE
5
258
100
AcDbEntity
8
0
100
AcDbSpline
70
4
71
3
72
8
73
4
74
0
42
0.000000001
43
0.0000000001
44
0.0000000001
40
0
40
0
40
0
40
0
40
1
40
1
40
1
40
1
41
1
41
1
41
1
41
1
10
-20.116069348653145
20
-91.724510561297379
30
0
10
-19.856225713094062
20
-92.71431610074643
30
0
10
-19.939868863423644
20
-94.198350193967457
30
0
10
-20.324026616414379
20
-95.414425836871118
30
0
0
SPLINE
5
259
100
AcDbEntity
8
0
100
AcDbSpline
70
4
71
3
72
8
73
4
74
0
42
0.000000001
43
0.0000000001
44
0.0000000001
40
0
40
0
40
0
40
0
40
1
40
1
40
1
40
1
41
1
41
1
41
1
41
1
10
-20.324026616414379
20
-95.414425836871118
30
0
10
-20.556029574076327
20
-96.148828684161145
30
0
10
-21.120941797892243
20
-97.002030804624184
30
0
10
-21.3756097157796
20
-97.002644462257663
30
0
0
SPLINE
5
260
100
AcDbEntity
8
0
100
AcDbSpline
70
4
71
3
72
8
73
4
74
0
42
0.000000001
43
0.0000000001
44
0.0000000001
40
0
40
0
40
0
40
0
40
1
40
1
40
1
40
1
41
1
41
1
41
1
41
1
10
-21.3756097157796
20
-97.002644462257663
30
0
10
-21.426842053731274
20
-97.002765578895833
30
0
10
-21.644125302632631
20
-97.265273780494965
30
0
10
-21.858453305562318
20
-97.585982563962574
30
0
0
SPLINE
5
261
100
AcDbEntity
8
0
100
AcDbSpline
70
4
71
3
72
8
73
4
74
0
42
0.000000001
43
0.0000000001
44
0.0000000001
40
0
40
0
40
0
40
0
40
1
40
1
40
1
40
1
41
1
41
1
41
1
41
1
10
-21.858453305562318
20
-97.585982563962574
30
0
10
-22.072781308492004
20
-97.906691347430197
30
0
10
-22.436995188395166
20
-98.362848904599787
30
0
10
-22.667803128560369
20
-98.599664230018902
30
0
0
SPLINE
5
262
100
AcDbEntity
8
0
100
AcDbSpline
70
4
71
3
72
8
73
4
74
0
42
0.000000001
43
0.0000000001
44
0.0000000001
40
0
40
0
40
0
40
0
40
1
40
1
40
1
40
1
41
1
41
1
41
1
41
1
10
-30.048223114013659
20
-98.685390586525244
30
0
10
-30.462393569946276
20
-98.194843978554047
30
0
10
-30.473689715067529
20
-97.667582880328126
30
0
10
-30.075918451944972
20
-97.392123272885911
30
0
0
SPLINE
5
263
100
AcDbEntity
8
0
100
AcDbSpline
70
4
71
3
72
8
73
4
74
0
42
0.000000001
43
0.0000000001
44
0.0000000001
40
0
40
0
40
0
40
0
40
1
40
1
40
1
40
1
41
1
41
1
41
1
41
1
10
-30.075918451944972
20
-97.392123272885911
30
0
10
-29.541600290934227
20
-97.022095794349937
30
0
10
-27.917531140645337
20
-95.530722032854982
30
0
10
-27.11720046997069
20
-94.675137951841009
30
0
0
SPLINE
5
264
100
AcDbEntity
8
0
100
AcDbSpline
70
4
71
3
72
8
73
4
74
0
42
0.000000001
43
0.0000000001
44
0.0000000001
40
0
40
0
40
0
40
0
40
1
40
1
40
1
40
1
41
1
41
1
41
1
41
1
10
-27.11720046997069
20
-94.675137951841009
30
0
10
-26.451567649841294
20
-93.963545404742206
30
0
10
-26.150915781656892
20
-93.520557263364438
30
0
10
-25.915489260355624
20
-92.904485371579767
30
0
0
LINE
5
265
100
AcDbEntity
8
0
100
AcDbLine
10
-25.915489260355624
20
-92.904485371579767
30
0
11
-25.72885659535725
21
-92.416102714210794
31
0
0
LINE
5
266
100
AcDbEntity
8
0
100
AcDbLine
10
-25.72885659535725
20
-92.416102714210794
30
0
11
-25.727007548014313
21
-91.157111409177418
31
0
0
SPLINE
5
267
100
AcDbEntity
8
0
100
AcDbSpline
70
4
71
3
72
8
73
4
74
0
42
0.000000001
43
0.0000000001
44
0.0000000001
40
0
40
0
40
0
40
0
40
1
40
1
40
1
40
1
41
1
41
1
41
1
41
1
10
-25.727007548014313
20
-91.157111409177418
30
0
10
-25.725416882832839
20
-90.032147775958023
30
0
10
-25.740290006001771
20
-89.837489115069346
30
0
10
-25.866525840759262
20
-89.328573150306994
30
0
0
SPLINE
5
268
100
AcDbEntity
8
0
100
AcDbSpline
70
4
71
3
72
8
73
4
74
0
42
0.000000001
43
0.0000000001
44
0.0000000001
40
0
40
0
40
0
40
0
40
1
40
1
40
1
40
1
41
1
41
1
41
1
41
1
10
-25.866525840759262
20
-89.328573150306994
30
0
10
-25.944226201375304
20
-89.015325151751483
30
0
10
-26.100644302368146
20
-88.381336071958174
30
0
10
-26.21412251790364
20
-87.91970404274268
30
0
0
SPLINE
5
269
100
AcDbEntity
8
0
100
AcDbSpline
70
4
71
3
72
8
73
4
74
0
42
0.000000001
43
0.0000000001
44
0.0000000001
40
0
40
0
40
0
40
0
40
1
40
1
40
1
40
1
41
1
41
1
41
1
41
1
10
-26.21412251790364
20
-87.91970404274268
30
0
10
-26.455080032348626
20
-86.93950708992287
30
0
10
-27.099848492940257
20
-84.984337348610211
30
0
10
-27.392450141906721
20
-84.346585578590663
30
0
0
SPLINE
5
270
100
AcDbEntity
8
0
100
AcDbSpline
70
4
71
3
72
8
73
4
74
0
42
0.000000001
43
0.0000000001
44
0.0000000001
40
0
40
0
40
0
40
0
40
1
40
1
40
1
40
1
41
1
41
1
41
1
41
1
10
-27.392450141906721
20
-84.346585578590663
30
0
10
-27.671753184000636
20
-83.737821057309745
30
0
10
-28.210302352905252
20
-83.048861172666193
30
0
10
-29.019975153605131
20
-82.264493674904145
30
0
0
SPLINE
5
271
100
AcDbEntity
8
0
100
AcDbSpline
70
4
71
3
72
8
73
4
74
0
42
0.000000001
43
0.0000000001
44
0.0000000001
40
0
40
0
40
0
40
0
40
1
40
1
40
1
40
1
41
1
41
1
41
1
41
1
10
-29.019975153605131
20
-82.264493674904145
30
0
10
-30.266200764973945
20
-81.057227248817725
30
0
10
-31.907710711161279
20
-79.866594174375166
30
0
10
-33.159305826822902
20
-79.262117182085944
30
0
0
SPLINE
5
272
100
AcDbEntity
8
0
100
AcDbSpline
70
4
71
3
72
8
73
4
74
0
42
0.000000001
43
0.0000000001
44
0.0000000001
40
0
40
0
40
0
40
0
40
1
40
1
40
1
40
1
41
1
41
1
41
1
41
1
10
-33.159305826822902
20
-79.262117182085944
30
0
10
-33.522017860412575
20
-79.086942151059745
30
0
10
-33.913200378417955
20
-78.895359852780928
30
0
10
-34.028608385721824
20
-78.836376049985532
30
0
0
SPLINE
5
273
100
AcDbEntity
8
0
100
AcDbSpline
70
4
71
3
72
8
73
4
74
0
42
0.000000001
43
0.0000000001
44
0.0000000001
40
0
40
0
40
0
40
0
40
1
40
1
40
1
40
1
41
1
41
1
41
1
41
1
10
-34.028608385721824
20
-78.836376049985532
30
0
10
-34.644987106323235
20
-78.521351674070004
30
0
10
-37.188137753804504
20
-77.577974179257993
30
0
10
-37.421012751261387
20
-77.577974179257993
30
0
0
SPLINE
5
274
100
AcDbEntity
8
0
100
AcDbSpline
70
4
71
3
72
8
73
4
74
0
42
0.000000001
43
0.0000000001
44
0.0000000001
40
0
40
0
40
0
40
0
40
1
40
1
40
1
40
1
41
1
41
1
41
1
41
1
10
-37.421012751261387
20
-77.577974179257993
30
0
10
-37.62699985504149
20
-77.577974179257993
30
0
10
-38.751204490661607
20
-77.19674744891131
30
0
10
-39.274412218729644
20
-76.949475720395682
30
0
0
SPLINE
5
275
100
AcDbEntity
8
0
100
AcDbSpline
70
4
71
3
72
8
73
4
74
0
42
0.000000001
43
0.0000000001
44
0.0000000001
40
0
40
0
40
0
40
0
40
1
40
1
40
1
40
1
41
1
41
1
41
1
41
1
10
-39.274412218729644
20
-76.949475720395682
30
0
10
-41.034866778055815
20
-76.117460937172211
30
0
10
-43.22992820739745
20
-74.628751741717295
30
0
10
-44.552521896362293
20
-73.369833106666832
30
0
0
LINE
5
276
100
AcDbEntity
8
0
100
AcDbLine
10
-44.552521896362293
20
-73.369833106666832
30
0
11
-45.201763598124174
21
-72.751839497556318
31
0
0
LINE
5
277
100
AcDbEntity
8
0
100
AcDbLine
10
-45.201763598124174
20
-72.751839497556318
30
0
11
-44.952077611287422
21
-73.121535923947931
31
0
0
SPLINE
5
278
100
AcDbEntity
8
0
100
AcDbSpline
70
4
71
3
72
8
73
4
74
0
42
0.000000001
43
0.0000000001
44
0.0000000001
40
0
40
0
40
0
40
0
40
1
40
1
40
1
40
1
41
1
41
1
41
1
41
1
10
-44.952077611287422
20
-73.121535923947917
30
0
10
-44.536962445576975
20
-73.736178639402027
30
0
10
-44.023363304138172
20
-74.342916475604014
30
0
10
-43.46302928924559
20
-74.880617828041352
30
0
0
SPLINE
5
279
100
AcDbEntity
8
0
100
AcDbSpline
70
4
71
3
72
8
73
4
74
0
42
0.000000001
43
0.0000000001
44
0.0000000001
40
0
40
0
40
0
40
0
40
1
40
1
40
1
40
1
41
1
41
1
41
1
41
1
10
-43.46302928924559
20
-74.880617828041352
30
0
10
-42.773019727071116
20
-75.542754414548511
30
0
10
-42.565328915913895
20
-75.70650410937273
30
0
10
-41.522611554463687
20
-76.41050668047869
30
0
0
SPLINE
5
280
100
AcDbEntity
8
0
100
AcDbSpline
70
4
71
3
72
8
73
4
74
0
42
0.000000001
43
0.0000000001
44
0.0000000001
40
0
40
0
40
0
40
0
40
1
40
1
40
1
40
1
41
1
41
1
41
1
41
1
10
-41.522611554463687
20
-76.41050668047869
30
0
10
-39.685780843098954
20
-77.650668385495777
30
0
10
-38.366255442301416
20
-78.748453445106776
30
0
10
-38.140437507629379
20
-79.224344939857758
30
0
0
SPLINE
5
281
100
AcDbEntity
8
0
100
AcDbSpline
70
4
71
3
72
8
73
4
74
0
42
0.000000001
43
0.0000000001
44
0.0000000001
40
0
40
0
40
0
40
0
40
1
40
1
40
1
40
1
41
1
41
1
41
1
41
1
10
-38.140437507629379
20
-79.224344939857758
30
0
10
-37.886706225077305
20
-79.759050674110682
30
0
10
-37.78265895843505
20
-80.920631904274259
30
0
10
-37.952157656351716
20
-81.326291897763838
30
0
0
SPLINE
5
282
100
AcDbEntity
8
0
100
AcDbSpline
70
4
71
3
72
8
73
4
74
0
42
0.000000001
43
0.0000000001
44
0.0000000001
40
0
40
0
40
0
40
0
40
1
40
1
40
1
40
1
41
1
41
1
41
1
41
1
10
-37.952157656351716
20
-81.326291897763838
30
0
10
-38.120009167989082
20
-81.728019637733738
30
0
10
-39.117751884460432
20
-82.899435538917814
30
0
10
-40.122640482584622
20
-83.87458596514665
30
0
0
SPLINE
5
283
100
AcDbEntity
8
0
100
AcDbSpline
70
4
71
3
72
8
73
4
74
0
42
0.000000001
43
0.0000000001
44
0.0000000001
40
0
40
0
40
0
40
0
40
1
40
1
40
1
40
1
41
1
41
1
41
1
41
1
10
-40.122640482584622
20
-83.87458596514665
30
0
10
-40.805584907531731
20
-84.537320060402195
30
0
10
-42.700721168518058
20
-86.137723019590027
30
0
10
-43.220505332946772
20
-86.4906730521421
30
0
0
SPLINE
5
284
100
AcDbEntity
8
0
100
AcDbSpline
70
4
71
3
72
8
73
4
74
0
42
0.000000001
43
0.0000000001
44
0.0000000001
40
0
40
0
40
0
40
0
40
1
40
1
40
1
40
1
41
1
41
1
41
1
41
1
10
-43.220505332946772
20
-86.4906730521421
30
0
10
-43.358223025004051
20
-86.584191245704929
30
0
10
-43.821663729349758
20
-86.91984582232439
30
0
10
-44.250360107421862
20
-87.236581980059583
30
0
0
SPLINE
5
285
100
AcDbEntity
8
0
100
AcDbSpline
70
4
71
3
72
8
73
4
74
0
42
0.000000001
43
0.0000000001
44
0.0000000001
40
0
40
0
40
0
40
0
40
1
40
1
40
1
40
1
41
1
41
1
41
1
41
1
10
-44.250360107421862
20
-87.236581980059583
30
0
10
-44.679056485493966
20
-87.553318137794776
30
0
10
-45.465886688232409
20
-88.112182604144053
30
0
10
-45.998864491780587
20
-88.478503913551606
30
0
0
SPLINE
5
286
100
AcDbEntity
8
0
100
AcDbSpline
70
4
71
3
72
8
73
4
74
0
42
0.000000001
43
0.0000000001
44
0.0000000001
40
0
40
0
40
0
40
0
40
1
40
1
40
1
40
1
41
1
41
1
41
1
41
1
10
-45.998864491780587
20
-88.478503913551606
30
0
10
-48.858210309346504
20
-90.44379900581643
30
0
10
-49.772326024373363
20
-91.36866987831398
30
0
10
-50.363569005330397
20
-92.894586105018888
30
0
0
SPLINE
5
287
100
AcDbEntity
8
0
100
AcDbSpline
70
4
71
3
72
8
73
4
74
0
42
0.000000001
43
0.0000000001
44
0.0000000001
40
0
40
0
40
0
40
0
40
1
40
1
40
1
40
1
41
1
41
1
41
1
41
1
10
-50.363569005330397
20
-92.894586105018888
30
0
10
-51.31372903188069
20
-95.34681852943703
30
0
10
-52.719917424519849
20
-97.785130614906578
30
0
10
-53.65997228622436
20
-98.610516280800141
30
0
0
SPLINE
5
288
100
AcDbEntity
8
0
100
AcDbSpline
70
4
71
3
72
8
73
4
74
0
42
0.000000001
43
0.0000000001
44
0.0000000001
40
0
40
0
40
0
40
0
40
1
40
1
40
1
40
1
41
1
41
1
41
1
41
1
10
-53.65997228622436
20
-98.610516280800141
30
0
10
-53.850028514862053
20
-98.777382710446943
30
0
10
-53.920134862263993
20
-98.801856345802577
30
0
10
-54.190600426991779
20
-98.795719769467951
30
0
0
SPLINE
5
289
100
AcDbEntity
8
0
100
AcDbSpline
70
4
71
3
72
8
73
4
74
0
42
0.000000001
43
0.0000000001
44
0.0000000001
40
0
40
0
40
0
40
0
40
1
40
1
40
1
40
1
41
1
41
1
41
1
41
1
10
-60.988671429951971
20
-98.703832613299326
30
0
10
-61.406701469421378
20
-98.391731185585314
30
0
10
-61.457905546824129
20
-97.892585296303082
30
0
10
-61.147213109334302
20
-97.158473128944678
30
0
0
SPLINE
5
290
100
AcDbEntity
8
0
100
AcDbSpline
70
4
71
3
72
8
73
4
74
0
42
0.000000001
43
0.0000000001
44
0.0000000001
40
0
40
0
40
0
40
0
40
1
40
1
40
1
40
1
41
1
41
1
41
1
41
1
10
-61.147213109334302
20
-97.158473128944678
30
0
10
-60.993197154998775
20
-96.794549928973169
30
0
10
-60.877559026082352
20
-96.659076931943545
30
0
10
-59.927895577748615
20
-95.729991200437183
30
0
0
SPLINE
5
291
100
AcDbEntity
8
0
100
AcDbSpline
70
4
71
3
72
8
73
4
74
0
42
0.000000001
43
0.0000000001
44
0.0000000001
40
0
40
0
40
0
40
0
40
1
40
1
40
1
40
1
41
1
41
1
41
1
41
1
10
-59.927895577748615
20
-95.729991200437183
30
0
10
-59.35085957845051
20
-95.165458475420905
30
0
10
-58.339168262481678
20
-94.238787002235682
30
0
10
-57.679692204793291
20
-93.670725745826999
30
0
0
SPLINE
5
292
100
AcDbEntity
8
0
100
AcDbSpline
70
4
71
3
72
8
73
4
74
0
42
0.000000001
43
0.0000000001
44
0.0000000001
40
0
40
0
40
0
40
0
40
1
40
1
40
1
40
1
41
1
41
1
41
1
41
1
10
-57.679692204793291
20
-93.670725745826999
30
0
10
-57.020220184326163
20
-93.102664489418302
30
0
10
-56.089463043212874
20
-92.283407325416832
30
0
10
-55.611351076761871
20
-91.850140812863955
30
0
0
SPLINE
5
293
100
AcDbEntity
8
0
100
AcDbSpline
70
4
71
3
72
8
73
4
74
0
42
0.000000001
43
0.0000000001
44
0.0000000001
40
0
40
0
40
0
40
0
40
1
40
1
40
1
40
1
41
1
41
1
41
1
41
1
10
-55.611351076761871
20
-91.850140812863955
30
0
10
-55.133235073089594
20
-91.416874300311051
30
0
10
-54.244287395477286
20
-90.652046953509284
30
0
10
-53.635918521881088
20
-90.150519103676118
30
0
0
SPLINE
5
294
100
AcDbEntity
8
0
100
AcDbSpline
70
4
71
3
72
8
73
4
74
0
42
0.000000001
43
0.0000000001
44
0.0000000001
40
0
40
0
40
0
40
0
40
1
40
1
40
1
40
1
41
1
41
1
41
1
41
1
10
-53.635918521881088
20
-90.150519103676118
30
0
10
-51.938246790568023
20
-88.750984051694516
30
0
10
-49.270055325825993
20
-86.082154705991371
30
0
10
-48.169008191426585
20
-84.682296676307956
30
0
0
SPLINE
5
295
100
AcDbEntity
8
0
100
AcDbSpline
70
4
71
3
72
8
73
4
74
0
42
0.000000001
43
0.0000000001
44
0.0000000001
40
0
40
0
40
0
40
0
40
1
40
1
40
1
40
1
41
1
41
1
41
1
41
1
10
-48.169008191426585
20
-84.682296676307956
30
0
10
-47.614552370707187
20
-83.977373618751798
30
0
10
-46.883686129252105
20
-82.906904398272474
30
0
10
-46.651788139343253
20
-82.460097045570649
30
0
0
SPLINE
5
296
100
AcDbEntity
8
0
100
AcDbSpline
70
4
71
3
72
8
73
4
74
0
42
0.000000001
43
0.0000000001
44
0.0000000001
40
0
40
0
40
0
40
0
40
1
40
1
40
1
40
1
41
1
41
1
41
1
41
1
10
-46.651788139343253
20
-82.460097045570649
30
0
10
-46.406074778238924
20
-81.986668255796076
30
0
10
-46.282156308492013
20
-81.340236460040046
30
0
10
-46.345266151428213
20
-80.861058667173026
30
0
0
SPLINE
5
297
100
AcDbEntity
8
0
100
AcDbSpline
70
4
71
3
72
8
73
4
74
0
42
0.000000001
43
0.0000000001
44
0.0000000001
40
0
40
0
40
0
40
0
40
1
40
1
40
1
40
1
41
1
41
1
41
1
41
1
10
-46.345266151428213
20
-80.861058667173026
30
0
10
-46.420423062642406
20
-80.290405514707203
30
0
10
-47.109374872843411
20
-78.88236000028256
30
0
10
-47.602263069152819
20
-78.2920698035459
30
0
0
SPLINE
5
298
100
AcDbEntity
8
0
100
AcDbSpline
70
4
71
3
72
8
73
4
74
0
42
0.000000001
43
0.0000000001
44
0.0000000001
40
0
40
0
40
0
40
0
40
1
40
1
40
1
40
1
41
1
41
1
41
1
41
1
10
-47.602263069152819
20
-78.2920698035459
30
0
10
-47.938878504435209
20
-77.888937110573096
30
0
10
-48.151082928975413
20
-77.739285392433445
30
0
10
-50.095755894978836
20
-76.533674227068857
30
0
0
SPLINE
5
299
100
AcDbEntity
8
0
100
AcDbSpline
70
4
71
3
72
8
73
4
74
0
42
0.000000001
43
0.0000000001
44
0.0000000001
40
0
40
0
40
0
40
0
40
1
40
1
40
1
40
1
41
1
41
1
41
1
41
1
10
-50.095755894978836
20
-76.533674227068857
30
0
10
-51.77511075337727
20
-75.492547530800138
30
0
10
-52.880340449015293
20
-74.669382336606617
30
0
10
-53.724551677703843
20
-73.830972594887058
30
0
0
SPLINE
5
300
100
AcDbEntity
8
0
100
AcDbSpline
70
4
71
3
72
8
73
4
74
0
42
0.000000001
43
0.0000000001
44
0.0000000001
40
0
40
0
40
0
40
0
40
1
40
1
40
1
40
1
41
1
41
1
41
1
41
1
10
-53.724551677703843
20
-73.830972594887058
30
0
10
-54.300420920054108
20
-73.259059829384114
30
0
10
-54.56229931513468
20
-72.899440307289396
30
0
10
-54.981887722015372
20
-72.104349949826826
30
0
0
SPLINE
5
301
100
AcDbEntity
8
0
100
AcDbSpline
70
4
71
3
72
8
73
4
74
0
42
0.000000001
43
0.0000000001
44
0.0000000001
40
0
40
0
40
0
40
0
40
1
40
1
40
1
40
1
41
1
41
1
41
1
41
1
10
-54.981887722015372
20
-72.104349949826826
30
0
10
-55.513012440999333
20
-71.097911058733899
30
0
10
-55.783635457356759
20
-70.117439574867518
30
0
10
-55.999497604370106
20
-68.417486813535334
30
0
0
SPLINE
5
302
100
AcDbEntity
8
0
100
AcDbSpline
70
4
71
3
72
8
73
4
74
0
42
0.000000001
43
0.0000000001
44
0.0000000001
40
0
40
0
40
0
40
0
40
1
40
1
40
1
40
1
41
1
41
1
41
1
41
1
10
-55.999497604370106
20
-68.417486813535334
30
0
10
-56.112971782684312
20
-67.523880182574231
30
0
10
-56.17671950658162
20
-67.206659558286304
30
0
10
-56.279600016276035
20
-67.02359983411435
30
0
0
SPLINE
5
303
100
AcDbEntity
8
0
100
AcDbSpline
70
4
71
3
72
8
73
4
74
0
42
0.000000001
43
0.0000000001
44
0.0000000001
40
0
40
0
40
0
40
0
40
1
40
1
40
1
40
1
41
1
41
1
41
1
41
1
10
-56.279600016276035
20
-67.02359983411435
30
0
10
-56.42449992497761
20
-66.765786920855476
30
0
10
-56.511166954040519
20
-66.732540403674079
30
0
10
-56.638177935282378
20
-66.886055742571784
30
0
0
SPLINE
5
304
100
AcDbEntity
8
0
100
AcDbSpline
70
4
71
3
72
8
73
4
74
0
42
0.000000001
43
0.0000000001
44
0.0000000001
40
0
40
0
40
0
40
0
40
1
40
1
40
1
40
1
41
1
41
1
41
1
41
1
10
-56.638177935282378
20
-66.886055742571784
30
0
10
-56.709947617848698
20
-66.972803516060139
30
0
10
-57.066317176818835
20
-67.246926803261076
30
0
10
-57.979451847076405
20
-67.917767638832359
30
0
0
SPLINE
5
305
100
AcDbEntity
8
0
100
AcDbSpline
70
4
71
3
72
8
73
4
74
0
42
0.000000001
43
0.0000000001
44
0.0000000001
40
0
40
0
40
0
40
0
40
1
40
1
40
1
40
1
41
1
41
1
41
1
41
1
10
-57.979451847076405
20
-67.917767638832359
30
0
10
-58.883506806691479
20
-68.581947059303559
30
0
10
-60.62720689773559
20
-69.305699716875992
30
0
10
-62.690727583567288
20
-69.873284581174488
30
0
0
SPLINE
5
306
100
AcDbEntity
8
0
100
AcDbSpline
70
4
71
3
72
8
73
4
74
0
42
0.000000001
43
0.0000000001
44
0.0000000001
40
0
40
0
40
0
40
0
40
1
40
1
40
1
40
1
41
1
41
1
41
1
41
1
10
-62.690727583567288
20
-69.873284581174488
30
0
10
-63.138645172119126
20
-69.996484425534845
30
0
10
-63.651235008239738
20
-70.168486200640643
30
0
10
-63.829813416798899
20
-70.25549639351172
30
0
0
SPLINE
5
307
100
AcDbEntity
8
0
100
AcDbSpline
70
4
71
3
72
8
73
4
74
0
42
0.000000001
43
0.0000000001
44
0.0000000001
40
0
40
0
40
0
40
0
40
1
40
1
40
1
40
1
41
1
41
1
41
1
41
1
10
-63.829813416798899
20
-70.25549639351172
30
0
10
-64.153303845723457
20
-70.41311758644386
30
0
10
-64.154571533203125
20
-70.414821293820978
30
0
10
-64.170833460489902
20
-70.71346262581153
30
0
0
SPLINE
5
308
100
AcDbEntity
8
0
100
AcDbSpline
70
4
71
3
72
8
73
4
74
0
42
0.000000001
43
0.0000000001
44
0.0000000001
40
0
40
0
40
0
40
0
40
1
40
1
40
1
40
1
41
1
41
1
41
1
41
1
10
-64.170833460489902
20
-70.71346262581153
30
0
10
-64.179804166158036
20
-70.878326593707044
30
0
10
-64.239756902058915
20
-71.381162503232588
30
0
10
-64.30404561360676
20
-71.830868580808286
30
0
0
SPLINE
5
309
100
AcDbEntity
8
0
100
AcDbSpline
70
4
71
3
72
8
73
4
74
0
42
0.000000001
43
0.0000000001
44
0.0000000001
40
0
40
0
40
0
40
0
40
1
40
1
40
1
40
1
41
1
41
1
41
1
41
1
10
-64.30404561360676
20
-71.830868580808286
30
0
10
-64.488211536407462
20
-73.119153963396982
30
0
10
-64.506205431620273
20
-73.666601167986826
30
0
10
-64.400220298767081
20
-74.756473273903168
30
0
0
SPLINE
5
310
100
AcDbEntity
8
0
100
AcDbSpline
70
4
71
3
72
8
73
4
74
0
42
0.000000001
43
0.0000000001
44
0.0000000001
40
0
40
0
40
0
40
0
40
1
40
1
40
1
40
1
41
1
41
1
41
1
41
1
10
-64.400220298767081
20
-74.756473273903168
30
0
10
-64.273794714609778
20
-76.056539268165864
30
0
10
-64.27743225097656
20
-77.745349298785158
30
0
10
-64.409295972188303
20
-78.970977007220228
30
0
0
SPLINE
5
311
100
AcDbEntity
8
0
100
AcDbSpline
70
4
71
3
72
8
73
4
74
0
42
0.000000001
43
0.0000000001
44
0.0000000001
40
0
40
0
40
0
40
0
40
1
40
1
40
1
40
1
41
1
41
1
41
1
41
1
10
-64.409295972188303
20
-78.970977007220228
30
0
10
-64.499136257171614
20
-79.805987408628113
30
0
10
-64.513448206583647
20
-80.52319169329607
30
0
10
-64.508894220987955
20
-83.962863845497409
30
0
0
SPLINE
5
312
100
AcDbEntity
8
0
100
AcDbSpline
70
4
71
3
72
8
73
4
74
0
42
0.000000001
43
0.0000000001
44
0.0000000001
40
0
40
0
40
0
40
0
40
1
40
1
40
1
40
1
41
1
41
1
41
1
41
1
10
-64.508894220987955
20
-83.962863845497409
30
0
10
-64.50262441635131
20
-88.69571449247006
30
0
10
-64.466830412546784
20
-89.296372273435225
30
0
10
-64.15424048105875
20
-89.913824894895185
30
0
0
SPLINE
5
313
100
AcDbEntity
8
0
100
AcDbSpline
70
4
71
3
72
8
73
4
74
0
42
0.000000001
43
0.0000000001
44
0.0000000001
40
0
40
0
40
0
40
0
40
1
40
1
40
1
40
1
41
1
41
1
41
1
41
1
10
-64.15424048105875
20
-89.913824894895185
30
0
10
-63.85775502522786
20
-90.499472287168146
30
0
10
-63.764810117085766
20
-90.926715265582047
30
0
10
-63.764810117085766
20
-91.703993402789067
30
0
0
SPLINE
5
314
100
AcDbEntity
8
0
100
AcDbSpline
70
4
71
3
72
8
73
4
74
0
42
0.000000001
43
0.0000000001
44
0.0000000001
40
0
40
0
40
0
40
0
40
1
40
1
40
1
40
1
41
1
41
1
41
1
41
1
10
-63.764810117085766
20
-91.703993402789067
30
0
10
-63.764810117085766
20
-92.806655425697613
30
0
10
-63.907671229044581
20
-93.359504432350434
30
0
10
-64.591754150390614
20
-94.904104919105805
30
0
0
SPLINE
5
315
100
AcDbEntity
8
0
100
AcDbSpline
70
4
71
3
72
8
73
4
74
0
42
0.000000001
43
0.0000000001
44
0.0000000001
40
0
40
0
40
0
40
0
40
1
40
1
40
1
40
1
41
1
41
1
41
1
41
1
10
-64.591754150390614
20
-94.904104919105805
30
0
10
-65.020668538411456
20
-95.872561632464368
30
0
10
-65.647426954905185
20
-96.96624487526222
30
0
10
-66.3015456199646
20
-97.887659886350278
30
0
0
LINE
5
316
100
AcDbEntity
8
0
100
AcDbLine
10
-72.875675996144608
20
-98.400233573585766
30
0
11
-72.873560492197655
21
-98.051571070025403
31
0
0
LINE
5
317
100
AcDbEntity
8
0
100
AcDbLine
10
-72.873560492197655
20
-98.051571070025403
30
0
11
-72.243406772613525
21
-97.302173982928224
31
0
0
SPLINE
5
318
100
AcDbEntity
8
0
100
AcDbSpline
70
4
71
3
72
8
73
4
74
0
42
0.000000001
43
0.0000000001
44
0.0000000001
40
0
40
0
40
0
40
0
40
1
40
1
40
1
40
1
41
1
41
1
41
1
41
1
10
-72.243406772613511
20
-97.302173982928238
30
0
10
-70.514781665801991
20
-95.246428985267912
30
0
10
-69.271725273132319
20
-93.118886044492371
30
0
10
-68.972397613525388
20
-91.703718871742538
30
0
0
SPLINE
5
319
100
AcDbEntity
8
0
100
AcDbSpline
70
4
71
3
72
8
73
4
74
0
42
0.000000001
43
0.0000000001
44
0.0000000001
40
0
40
0
40
0
40
0
40
1
40
1
40
1
40
1
41
1
41
1
41
1
41
1
10
-68.972397613525388
20
-91.703718871742538
30
0
10
-68.774044895172111
20
-90.765928891172052
30
0
10
-68.669319375356025
20
-87.637881774574552
30
0
10
-68.805947017669666
20
-86.732123107582368
30
0
0
SPLINE
5
320
100
AcDbEntity
8
0
100
AcDbSpline
70
4
71
3
72
8
73
4
74
0
42
0.000000001
43
0.0000000001
44
0.0000000001
40
0
40
0
40
0
40
0
40
1
40
1
40
1
40
1
41
1
41
1
41
1
41
1
10
-68.805947017669666
20
-86.732123107582368
30
0
10
-68.84171679814655
20
-86.494992878903986
30
0
10
-68.987169806162512
20
-85.950258687009452
30
0
10
-69.129170989990229
20
-85.521602681150085
30
0
0
SPLINE
5
321
100
AcDbEntity
8
0
100
AcDbSpline
70
4
71
3
72
8
73
4
74
0
42
0.000000001
43
0.0000000001
44
0.0000000001
40
0
40
0
40
0
40
0
40
1
40
1
40
1
40
1
41
1
41
1
41
1
41
1
10
-69.129170989990229
20
-85.521602681150085
30
0
10
-69.387759049733475
20
-84.741014022499357
30
0
10
-70.174706331888828
20
-81.514402185748054
30
0
10
-70.298919518788651
20
-80.725440330177577
30
0
0
SPLINE
5
322
100
AcDbEntity
8
0
100
AcDbSpline
70
4
71
3
72
8
73
4
74
0
42
0.000000001
43
0.0000000001
44
0.0000000001
40
0
40
0
40
0
40
0
40
1
40
1
40
1
40
1
41
1
41
1
41
1
41
1
10
-70.298919518788651
20
-80.725440330177577
30
0
10
-70.335258547465003
20
-80.494624315569837
30
0
10
-70.429991944630942
20
-79.968550160398124
30
0
10
-70.509432347615558
20
-79.556374091774259
30
0
0
SPLINE
5
323
100
AcDbEntity
8
0
100
AcDbSpline
70
4
71
3
72
8
73
4
74
0
42
0.000000001
43
0.0000000001
44
0.0000000001
40
0
40
0
40
0
40
0
40
1
40
1
40
1
40
1
41
1
41
1
41
1
41
1
10
-70.509432347615558
20
-79.556374091774259
30
0
10
-70.7031301498413
20
-78.551396674782069
30
0
10
-70.826293659210194
20
-77.518554356565119
30
0
10
-70.899064572652179
20
-76.288986320167822
30
0
0
SPLINE
5
324
100
AcDbEntity
8
0
100
AcDbSpline
70
4
71
3
72
8
73
4
74
0
42
0.000000001
43
0.0000000001
44
0.0000000001
40
0
40
0
40
0
40
0
40
1
40
1
40
1
40
1
41
1
41
1
41
1
41
1
10
-70.899064572652179
20
-76.288986320167822
30
0
10
-70.967067527770979
20
-75.139904327064798
30
0
10
-71.050851980845124
20
-74.528119964271824
30
0
10
-71.182332166035962
20
-74.220637117693855
30
0
0
SPLINE
5
325
100
AcDbEntity
8
0
100
AcDbSpline
70
4
71
3
72
8
73
4
74
0
42
0.000000001
43
0.0000000001
44
0.0000000001
40
0
40
0
40
0
40
0
40
1
40
1
40
1
40
1
41
1
41
1
41
1
41
1
10
-71.182332166035962
20
-74.220637117693855
30
0
10
-71.29975878397623
20
-73.946017252276377
30
0
10
-71.934074878692627
20
-72.352138442665378
30
0
10
-72.184418932596827
20
-71.702646433184583
30
0
0
SPLINE
5
326
100
AcDbEntity
8
0
100
AcDbSpline
70
4
71
3
72
8
73
4
74
0
42
0.000000001
43
0.0000000001
44
0.0000000001
40
0
40
0
40
0
40
0
40
1
40
1
40
1
40
1
41
1
41
1
41
1
41
1
10
-72.184418932596827
20
-71.702646433184583
30
0
10
-72.29244689941406
20
-71.4223744579852
30
0
10
-72.461917336781809
20
-71.032742232948578
30
0
10
-72.561010932922358
20
-70.836807810137699
30
0
0
LINE
5
327
100
AcDbEntity
8
0
100
AcDbLine
10
-72.561010932922343
20
-70.836807810137699
30
0
11
-72.74118404388426
21
-70.480563405027027
31
0
0
LINE
5
328
100
AcDbEntity
8
0
100
AcDbLine
10
-72.74118404388426
20
-70.480563405027027
30
0
11
-72.771834627787257
21
-71.586212971677412
31
0
0
SPLINE
5
329
100
AcDbEntity
8
0
100
AcDbSpline
70
4
71
3
72
8
73
4
74
0
42
0.000000001
43
0.0000000001
44
0.0000000001
40
0
40
0
40
0
40
0
40
1
40
1
40
1
40
1
41
1
41
1
41
1
41
1
10
-72.771834627787257
20
-71.586212971677426
30
0
10
-72.789085674285886
20
-72.208284174273444
30
0
10
-72.832901636759431
20
-72.767988382647474
30
0
10
-72.872034422556553
20
-72.86592329628273
30
0
0
SPLINE
5
330
100
AcDbEntity
8
0
100
AcDbSpline
70
4
71
3
72
8
73
4
74
0
42
0.000000001
43
0.0000000001
44
0.0000000001
40
0
40
0
40
0
40
0
40
1
40
1
40
1
40
1
41
1
41
1
41
1
41
1
10
-72.872034422556553
20
-72.86592329628273
30
0
10
-72.982993412017819
20
-73.143635673195163
30
0
10
-73.052833302815742
20
-75.204443346331558
30
0
10
-72.964672501881907
20
-75.599533894528989
30
0
0
SPLINE
5
331
100
AcDbEntity
8
0
100
AcDbSpline
70
4
71
3
72
8
73
4
74
0
42
0.000000001
43
0.0000000001
44
0.0000000001
40
0
40
0
40
0
40
0
40
1
40
1
40
1
40
1
41
1
41
1
41
1
41
1
10
-72.964672501881907
20
-75.599533894528989
30
0
10
-72.924203395843506
20
-75.780885874102552
30
0
10
-72.872999318440748
20
-76.320460497210462
30
0
10
-72.850879383087147
20
-76.798572463661472
30
0
0
SPLINE
5
332
100
AcDbEntity
8
0
100
AcDbSpline
70
4
71
3
72
8
73
4
74
0
42
0.000000001
43
0.0000000001
44
0.0000000001
40
0
40
0
40
0
40
0
40
1
40
1
40
1
40
1
41
1
41
1
41
1
41
1
10
-72.850879383087147
20
-76.798572463661472
30
0
10
-72.828759447733546
20
-77.276692504555029
30
0
10
-72.786481666564939
20
-77.91068158434831
30
0
10
-72.756921132405594
20
-78.207449645668305
30
0
0
SPLINE
5
333
100
AcDbEntity
8
0
100
AcDbSpline
70
4
71
3
72
8
73
4
74
0
42
0.000000001
43
0.0000000001
44
0.0000000001
40
0
40
0
40
0
40
0
40
1
40
1
40
1
40
1
41
1
41
1
41
1
41
1
10
-72.756921132405594
20
-78.207449645668305
30
0
10
-72.681513913472486
20
-78.964541676511402
30
0
10
-72.779594167073554
20
-81.152723680804201
30
0
10
-72.930267302195219
20
-82.074356701840983
30
0
0
SPLINE
5
334
100
AcDbEntity
8
0
100
AcDbSpline
70
4
71
3
72
8
73
4
74
0
42
0.000000001
43
0.0000000001
44
0.0000000001
40
0
40
0
40
0
40
0
40
1
40
1
40
1
40
1
41
1
41
1
41
1
41
1
10
-72.930267302195219
20
-82.074356701840983
30
0
10
-72.997648525238034
20
-82.486524696022315
30
0
10
-73.148632526397691
20
-83.579150186846675
30
0
10
-73.265784613291416
20
-84.502414245277677
30
0
0
SPLINE
5
335
100
AcDbEntity
8
0
100
AcDbSpline
70
4
71
3
72
8
73
4
74
0
42
0.000000001
43
0.0000000001
44
0.0000000001
40
0
40
0
40
0
40
0
40
1
40
1
40
1
40
1
41
1
41
1
41
1
41
1
10
-73.265784613291416
20
-84.502414245277677
30
0
10
-73.457835229237872
20
-86.015920053790055
30
0
10
-73.681448841094962
20
-87.480486666033698
30
0
10
-73.749209562937409
20
-87.668621177345557
30
0
0
SPLINE
5
336
100
AcDbEntity
8
0
100
AcDbSpline
70
4
71
3
72
8
73
4
74
0
42
0.000000001
43
0.0000000001
44
0.0000000001
40
0
40
0
40
0
40
0
40
1
40
1
40
1
40
1
41
1
41
1
41
1
41
1
10
-73.749209562937409
20
-87.668621177345557
30
0
10
-73.76331157684325
20
-87.707782223691581
30
0
10
-73.8011201540629
20
-88.023097279538746
30
0
10
-73.8332241376241
20
-88.369313227007837
30
0
0
SPLINE
5
337
100
AcDbEntity
8
0
100
AcDbSpline
70
4
71
3
72
8
73
4
74
0
42
0.000000001
43
0.0000000001
44
0.0000000001
40
0
40
0
40
0
40
0
40
1
40
1
40
1
40
1
41
1
41
1
41
1
41
1
10
-73.8332241376241
20
-88.369313227007837
30
0
10
-73.888727855682362
20
-88.967855504026048
30
0
10
-73.884428215026844
20
-89.016818923622409
30
0
10
-73.745749664306629
20
-89.365158449480973
30
0
0
SPLINE
5
338
100
AcDbEntity
8
0
100
AcDbSpline
70
4
71
3
72
8
73
4
74
0
42
0.000000001
43
0.0000000001
44
0.0000000001
40
0
40
0
40
0
40
0
40
1
40
1
40
1
40
1
41
1
41
1
41
1
41
1
10
-73.745749664306629
20
-89.365158449480973
30
0
10
-73.3718303044637
20
-90.304369531939471
30
0
10
-73.317210737864173
20
-91.986889571815766
30
0
10
-73.618488375345862
20
-93.285381049782075
30
0
0
SPLINE
5
339
100
AcDbEntity
8
0
100
AcDbSpline
70
4
71
3
72
8
73
4
74
0
42
0.000000001
43
0.0000000001
44
0.0000000001
40
0
40
0
40
0
40
0
40
1
40
1
40
1
40
1
41
1
41
1
41
1
41
1
10
-73.618488375345862
20
-93.285381049782075
30
0
10
-73.897076829274496
20
-94.486091028521486
30
0
10
-74.618927955627441
20
-96.252448005348469
30
0
10
-75.194861793518058
20
-97.142752189308439
30
0
0
SPLINE
5
340
100
AcDbEntity
8
0
100
AcDbSpline
70
4
71
3
72
8
73
4
74
0
42
0.000000001
43
0.0000000001
44
0.0000000001
40
0
40
0
40
0
40
0
40
1
40
1
40
1
40
1
41
1
41
1
41
1
41
1
10
-75.194861793518058
20
-97.142752189308439
30
0
10
-75.817397276560456
20
-98.105088475217457
30
0
10
-76.833557796478274
20
-98.781629867225931
30
0
10
-77.733712800343824
20
-98.833055991798688
30
0
0
SPLINE
5
341
100
AcDbEntity
8
0
100
AcDbSpline
70
4
71
3
72
8
73
4
74
0
42
0.000000001
43
0.0000000001
44
0.0000000001
40
0
40
0
40
0
40
0
40
1
40
1
40
1
40
1
41
1
41
1
41
1
41
1
10
-82.529875151316332
20
-98.852902971575688
30
0
10
-82.979028129577614
20
-98.786006215085621
30
0
10
-83.472465387980151
20
-98.578404222796394
30
0
10
-83.659501775105781
20
-98.37764128334328
30
0
0
SPLINE
5
342
100
AcDbEntity
8
0
100
AcDbSpline
70
4
71
3
72
8
73
4
74
0
42
0.000000001
43
0.0000000001
44
0.0000000001
40
0
40
0
40
0
40
0
40
1
40
1
40
1
40
1
41
1
41
1
41
1
41
1
10
-83.659501775105781
20
-98.37764128334328
30
0
10
-83.916273085276288
20
-98.102028261492677
30
0
10
-83.767045275370279
20
-97.523857803016938
30
0
10
-83.374946308135975
20
-97.275164972613283
30
0
0
SPLINE
5
343
100
AcDbEntity
8
0
100
AcDbSpline
70
4
71
3
72
8
73
4
74
0
42
0.000000001
43
0.0000000001
44
0.0000000001
40
0
40
0
40
0
40
0
40
1
40
1
40
1
40
1
41
1
41
1
41
1
41
1
10
-83.374946308135975
20
-97.275164972613283
30
0
10
-83.041621208190918
20
-97.06375184344256
30
0
10
-82.070007387797034
20
-96.172858225176782
30
0
10
-81.565382989247638
20
-95.615947773923509
30
0
0
SPLINE
5
344
100
AcDbEntity
8
0
100
AcDbSpline
70
4
71
3
72
8
73
4
74
0
42
0.000000001
43
0.0000000001
44
0.0000000001
40
0
40
0
40
0
40
0
40
1
40
1
40
1
40
1
41
1
41
1
41
1
41
1
10
-81.565382989247638
20
-95.615947773923509
30
0
10
-80.475426101684562
20
-94.41304962125426
30
0
10
-79.526763884226469
20
-93.055404777199072
30
0
10
-78.922286891937247
20
-91.83337827013932
30
0
0
SPLINE
5
345
100
AcDbEntity
8
0
100
AcDbSpline
70
4
71
3
72
8
73
4
74
0
42
0.000000001
43
0.0000000001
44
0.0000000001
40
0
40
0
40
0
40
0
40
1
40
1
40
1
40
1
41
1
41
1
41
1
41
1
10
-78.922286891937247
20
-91.83337827013932
30
0
10
-77.936684099833158
20
-89.840840008725763
30
0
10
-77.485141086578366
20
-88.449258282651542
30
0
10
-77.4780598004659
20
-87.382479082415543
30
0
0
SPLINE
5
346
100
AcDbEntity
8
0
100
AcDbSpline
70
4
71
3
72
8
73
4
74
0
42
0.000000001
43
0.0000000001
44
0.0000000001
40
0
40
0
40
0
40
0
40
1
40
1
40
1
40
1
41
1
41
1
41
1
41
1
10
-77.4780598004659
20
-87.382479082415543
30
0
10
-77.476473172505692
20
-87.150355008115397
30
0
10
-77.496235370635972
20
-85.921772053708665
30
0
10
-77.521867688496897
20
-84.652292047808601
30
0
0
SPLINE
5
347
100
AcDbEntity
8
0
100
AcDbSpline
70
4
71
3
72
8
73
4
74
0
42
0.000000001
43
0.0000000001
44
0.0000000001
40
0
40
0
40
0
40
0
40
1
40
1
40
1
40
1
41
1
41
1
41
1
41
1
10
-77.521867688496897
20
-84.652292047808601
30
0
10
-77.566386127471915
20
-82.447589734067549
30
0
10
-77.574876403808588
20
-82.32482590960467
30
0
10
-77.711273924509669
20
-81.913215051959
30
0
0
SPLINE
5
348
100
AcDbEntity
8
0
100
AcDbSpline
70
4
71
3
72
8
73
4
74
0
42
0.000000001
43
0.0000000001
44
0.0000000001
40
0
40
0
40
0
40
0
40
1
40
1
40
1
40
1
41
1
41
1
41
1
41
1
10
-77.711273924509669
20
-81.913215051959
30
0
10
-77.958198451995841
20
-81.168081270525903
30
0
10
-78.147689469655347
20
-80.146413980792005
30
0
10
-78.210658009846995
20
-79.220719515154798
30
0
0
SPLINE
5
349
100
AcDbEntity
8
0
100
AcDbSpline
70
4
71
3
72
8
73
4
74
0
42
0.000000001
43
0.0000000001
44
0.0000000001
40
0
40
0
40
0
40
0
40
1
40
1
40
1
40
1
41
1
41
1
41
1
41
1
10
-78.210658009846995
20
-79.220719515154798
30
0
10
-78.303348573048908
20
-77.85802007006609
30
0
10
-78.289060846964517
20
-76.1627262620827
30
0
10
-78.179046567281077
20
-75.470762684812186
30
0
0
SPLINE
5
350
100
AcDbEntity
8
0
100
AcDbSpline
70
4
71
3
72
8
73
4
74
0
42
0.000000001
43
0.0000000001
44
0.0000000001
40
0
40
0
40
0
40
0
40
1
40
1
40
1
40
1
41
1
41
1
41
1
41
1
10
-78.179046567281077
20
-75.470762684812186
30
0
10
-78.101544030507398
20
-74.983268216123221
30
0
10
-78.096691290537507
20
-74.779792263974784
30
0
10
-78.151726690928143
20
-74.324522895485202
30
0
0
SPLINE
5
351
100
AcDbEntity
8
0
100
AcDbSpline
70
4
71
3
72
8
73
4
74
0
42
0.000000001
43
0.0000000001
44
0.0000000001
40
0
40
0
40
0
40
0
40
1
40
1
40
1
40
1
41
1
41
1
41
1
41
1
10
-78.151726690928143
20
-74.324522895485202
30
0
10
-78.237630685170487
20
-73.613858909279145
30
0
10
-78.364900048573801
20
-73.124878743161787
30
0
10
-78.535424200693754
20
-72.850291175514485
30
0
0
SPLINE
5
352
100
AcDbEntity
8
0
100
AcDbSpline
70
4
71
3
72
8
73
4
74
0
42
0.000000001
43
0.0000000001
44
0.0000000001
40
0
40
0
40
0
40
0
40
1
40
1
40
1
40
1
41
1
41
1
41
1
41
1
10
-78.535424200693754
20
-72.850291175514485
30
0
10
-78.610019938151041
20
-72.73017576820655
30
0
10
-78.802361234029121
20
-72.389095166196455
30
0
10
-78.962856928507478
20
-72.092335179319022
30
0
0
SPLINE
5
353
100
AcDbEntity
8
0
100
AcDbSpline
70
4
71
3
72
8
73
4
74
0
42
0.000000001
43
0.0000000001
44
0.0000000001
40
0
40
0
40
0
40
0
40
1
40
1
40
1
40
1
41
1
41
1
41
1
41
1
10
-78.962856928507478
20
-72.092335179319022
30
0
10
-79.12334858576456
20
-71.795575192441575
30
0
10
-79.331475416819245
20
-71.431474354734064
30
0
10
-79.425352923075351
20
-71.283219515154798
30
0
0
SPLINE
5
354
100
AcDbEntity
8
0
100
AcDbSpline
70
4
71
3
72
8
73
4
74
0
42
0.000000001
43
0.0000000001
44
0.0000000001
40
0
40
0
40
0
40
0
40
1
40
1
40
1
40
1
41
1
41
1
41
1
41
1
10
-79.425352923075351
20
-71.283219515154798
30
0
10
-79.858619435628256
20
-70.599023551613129
30
0
10
-80.35543584823607
20
-68.390074081093104
30
0
10
-80.55130163828531
20
-66.276984392474134
30
0
0
SPLINE
5
355
100
AcDbEntity
8
0
100
AcDbSpline
70
4
71
3
72
8
73
4
74
0
42
0.000000001
43
0.0000000001
44
0.0000000001
40
0
40
0
40
0
40
0
40
1
40
1
40
1
40
1
41
1
41
1
41
1
41
1
10
-80.55130163828531
20
-66.276984392474134
30
0
10
-80.58797979354857
20
-65.88130440997088
30
0
10
-80.656011009216286
20
-65.260028539965589
30
0
10
-80.702483463287365
20
-64.896371796598075
30
0
0
SPLINE
5
356
100
AcDbEntity
8
0
100
AcDbSpline
70
4
71
3
72
8
73
4
74
0
42
0.000000001
43
0.0000000001
44
0.0000000001
40
0
40
0
40
0
40
0
40
1
40
1
40
1
40
1
41
1
41
1
41
1
41
1
10
-80.702483463287365
20
-64.896371796598075
30
0
10
-80.748955917358387
20
-64.532719090451835
30
0
10
-80.772957197825107
20
-64.181557546923585
30
0
10
-80.755815156300855
20
-64.116013259559907
30
0
0
SPLINE
5
357
100
AcDbEntity
8
0
100
AcDbSpline
70
4
71
3
72
8
73
4
74
0
42
0.000000001
43
0.0000000001
44
0.0000000001
40
0
40
0
40
0
40
0
40
1
40
1
40
1
40
1
41
1
41
1
41
1
41
1
10
-80.755815156300855
20
-64.116013259559907
30
0
10
-80.732584985097233
20
-64.027178242673514
30
0
10
-80.787164179484051
20
-63.95130674329404
30
0
10
-80.970215829213458
20
-63.817969436317711
30
0
0
SPLINE
5
358
100
AcDbEntity
8
0
100
AcDbSpline
70
4
71
3
72
8
73
4
74
0
42
0.000000001
43
0.0000000001
44
0.0000000001
40
0
40
0
40
0
40
0
40
1
40
1
40
1
40
1
41
1
41
1
41
1
41
1
10
-80.970215829213458
20
-63.817969436317711
30
0
10
-81.813026142120364
20
-63.20404938347145
30
0
10
-83.094238313039142
20
-60.82507233904802
30
0
10
-83.84328012466429
20
-58.483221581449143
30
0
0
SPLINE
5
359
100
AcDbEntity
8
0
100
AcDbSpline
70
4
71
3
72
8
73
4
74
0
42
0.000000001
43
0.0000000001
44
0.0000000001
40
0
40
0
40
0
40
0
40
1
40
1
40
1
40
1
41
1
41
1
41
1
41
1
10
-83.84328012466429
20
-58.483221581449143
30
0
10
-84.238790543874103
20
-57.246665115028648
30
0
10
-84.398830032348627
20
-56.286517003049489
30
0
10
-84.432956663767484
20
-54.945465138425462
30
0
0
SPLINE
5
360
100
AcDbEntity
8
0
100
AcDbSpline
70
4
71
3
72
8
73
4
74
0
42
0.000000001
43
0.0000000001
44
0.0000000001
40
0
40
0
40
0
40
0
40
1
40
1
40
1
40
1
41
1
41
1
41
1
41
1
10
-84.432956663767484
20
-54.945465138425462
30
0
10
-84.48305454254151
20
-52.976920083036056
30
0
10
-84.303652540842677
20
-51.399646364520031
30
0
10
-83.79203971227011
20
-49.310557956367767
30
0
0
SPLINE
5
361
100
AcDbEntity
8
0
100
AcDbSpline
70
4
71
3
72
8
73
4
74
0
42
0.000000001
43
0.0000000001
44
0.0000000001
40
0
40
0
40
0
40
0
40
1
40
1
40
1
40
1
41
1
41
1
41
1
41
1
10
-83.79203971227011
20
-49.310557956367767
30
0
10
-83.530492369333899
20
-48.242579701413746
30
0
10
-82.440357844034821
20
-44.916862156858073
30
0
10
-82.032877063751215
20
-43.943815122912362
30
0
0
SPLINE
5
362
100
AcDbEntity
8
0
100
AcDbSpline
70
4
71
3
72
8
73
4
74
0
42
0.000000001
43
0.0000000001
44
0.0000000001
40
0
40
0
40
0
40
0
40
1
40
1
40
1
40
1
41
1
41
1
41
1
41
1
10
-82.032877063751215
20
-43.943815122912362
30
0
10
-81.323347536722821
20
-42.2494942852557
30
0
10
-80.908361562093091
20
-41.321829655637373
30
0
10
-80.504651546478257
20
-40.527583077420822
30
0
0
SPLINE
5
363
100
AcDbEntity
8
0
100
AcDbSpline
70
4
71
3
72
8
73
4
74
0
42
0.000000001
43
0.0000000001
44
0.0000000001
40
0
40
0
40
0
40
0
40
1
40
1
40
1
40
1
41
1
41
1
41
1
41
1
10
-80.504651546478257
20
-40.527583077420822
30
0
10
-80.261626974741617
20
-40.049467073748545
30
0
10
-79.95609814325968
20
-39.392659619321456
30
0
10
-79.825699933369947
20
-39.068010507891607
30
0
0
SPLINE
5
364
100
AcDbEntity
8
0
100
AcDbSpline
70
4
71
3
72
8
73
4
74
0
42
0.000000001
43
0.0000000001
44
0.0000000001
40
0
40
0
40
0
40
0
40
1
40
1
40
1
40
1
41
1
41
1
41
1
41
1
10
-79.825699933369947
20
-39.068010507891607
30
0
10
-79.545868015289301
20
-38.371319344510667
30
0
10
-78.98543710708617
20
-36.550617332130699
30
0
10
-78.854021517435712
20
-35.91127489692969
30
0
0
SPLINE
5
365
100
AcDbEntity
8
0
100
AcDbSpline
70
4
71
3
72
8
73
4
74
0
42
0.000000001
43
0.0000000001
44
0.0000000001
40
0
40
0
40
0
40
0
40
1
40
1
40
1
40
1
41
1
41
1
41
1
41
1
10
-78.854021517435712
20
-35.91127489692969
30
0
10
-78.464021905263252
20
-34.013869717588058
30
0
10
-78.393386681874588
20
-32.035128659874232
30
0
10
-78.664078330993647
20
-30.590524088213872
30
0
0
SPLINE
5
366
100
AcDbEntity
8
0
100
AcDbSpline
70
4
71
3
72
8
73
4
74
0
42
0.000000001
43
0.0000000001
44
0.0000000001
40
0
40
0
40
0
40
0
40
1
40
1
40
1
40
1
41
1
41
1
41
1
41
1
10
-78.664078330993647
20
-30.590524088213872
30
0
10
-78.843843682607002
20
-29.631173327436077
30
0
10
-79.135020192464196
20
-29.118890320132206
30
0
10
-79.855199909210199
20
-28.494901437431604
30
0
0
SPLINE
5
367
100
AcDbEntity
8
0
100
AcDbSpline
70
4
71
3
72
8
73
4
74
0
42
0.000000001
43
0.0000000001
44
0.0000000001
40
0
40
0
40
0
40
0
40
1
40
1
40
1
40
1
41
1
41
1
41
1
41
1
10
-79.855199909210199
20
-28.494901437431604
30
0
10
-80.202360566457116
20
-28.194110285113286
30
0
10
-80.24360481897989
20
-28.176158780723842
30
0
10
-80.997915204366038
20
-27.997497609128583
30
0
0
SPLINE
5
368
100
AcDbEntity
8
0
100
AcDbSpline
70
4
71
3
72
8
73
4
74
0
42
0.000000001
43
0.0000000001
44
0.0000000001
40
0
40
0
40
0
40
0
40
1
40
1
40
1
40
1
41
1
41
1
41
1
41
1
10
-80.997915204366038
20
-27.997497609128583
30
0
10
-82.17351770401001
20
-27.719052476555138
30
0
10
-83.055828189849848
20
-27.592879218727383
30
0
10
-84.110649140675861
20
-27.55235964742306
30
0
0
SPLINE
5
369
100
AcDbEntity
8
0
100
AcDbSpline
70
4
71
3
72
8
73
4
74
0
42
0.000000001
43
0.0000000001
44
0.0000000001
40
0
40
0
40
0
40
0
40
1
40
1
40
1
40
1
41
1
41
1
41
1
41
1
10
-84.110649140675861
20
-27.55235964742306
30
0
10
-85.01366249720256
20
-27.517669823636641
30
0
10
-86.140335893630976
20
-27.394605226188929
30
0
10
-86.398013559977201
20
-27.302510153124757
30
0
0
SPLINE
5
370
100
AcDbEntity
8
0
100
AcDbSpline
70
4
71
3
72
8
73
4
74
0
42
0.000000001
43
0.0000000001
44
0.0000000001
40
0
40
0
40
0
40
0
40
1
40
1
40
1
40
1
41
1
41
1
41
1
41
1
10
-86.398013559977201
20
-27.302510153124757
30
0
10
-86.632850646972642
20
-27.218578341474164
30
0
10
-87.357925494511917
20
-26.861108639707197
30
0
10
-87.446306324005121
20
-26.785689309110271
30
0
0
SPLINE
5
371
100
AcDbEntity
8
0
100
AcDbSpline
70
4
71
3
72
8
73
4
74
0
42
0.000000001
43
0.0000000001
44
0.0000000001
40
0
40
0
40
0
40
0
40
1
40
1
40
1
40
1
41
1
41
1
41
1
41
1
10
-87.446306324005121
20
-26.785689309110271
30
0
10
-87.674316469828284
20
-26.591117448478965
30
0
10
-87.864509963989263
20
-26.293445049593874
30
0
10
-87.951076062520343
20
-25.995667682955691
30
0
0
SPLINE
5
372
100
AcDbEntity
8
0
100
AcDbSpline
70
4
71
3
72
8
73
4
74
0
42
0.000000001
43
0.0000000001
44
0.0000000001
40
0
40
0
40
0
40
0
40
1
40
1
40
1
40
1
41
1
41
1
41
1
41
1
10
-87.951076062520343
20
-25.995667682955691
30
0
10
-88.140187581380204
20
-25.345146182050335
30
0
10
-88.043187284469596
20
-24.718553291628787
30
0
10
-87.666284418106073
20
-24.155988711982992
30
0
0
SPLINE
5
373
100
AcDbEntity
8
0
100
AcDbSpline
70
4
71
3
72
8
73
4
74
0
42
0.000000001
43
0.0000000001
44
0.0000000001
40
0
40
0
40
0
40
0
40
1
40
1
40
1
40
1
41
1
41
1
41
1
41
1
10
-87.666284418106073
20
-24.155988711982992
30
0
10
-87.393568102518714
20
-23.748931839933025
30
0
10
-87.307506656646723
20
-23.68694030728939
30
0
10
-85.839920202891022
20
-22.840409694979616
30
0
0
LINE
5
374
100
AcDbEntity
8
0
100
AcDbLine
10
-85.839920202891022
20
-22.840409694979616
30
0
11
-85.043255329132066
21
-22.380879039436607
31
0
0
LINE
5
375
100
AcDbEntity
8
0
100
AcDbLine
10
-85.043255329132066
20
-22.380879039436607
30
0
11
-85.026985327402755
21
-21.816939785947426
31
0
0
SPLINE
5
376
100
AcDbEntity
8
0
100
AcDbSpline
70
4
71
3
72
8
73
4
74
0
42
0.000000001
43
0.0000000001
44
0.0000000001
40
0
40
0
40
0
40
0
40
1
40
1
40
1
40
1
41
1
41
1
41
1
41
1
10
-85.026985327402755
20
-21.816939785947433
30
0
10
-85.015580177307129
20
-21.421530297269452
30
0
10
-84.97081546783447
20
-21.139651508003503
30
0
10
-84.877224604288728
20
-20.873711668322514
30
0
0
LINE
5
377
100
AcDbEntity
8
0
100
AcDbLine
10
-84.877224604288728
20
-20.873711668322514
30
0
11
-84.7437419573466
21
-20.494422804186772
31
0
0
LINE
5
378
100
AcDbEntity
8
0
100
AcDbLine
10
-84.7437419573466
20
-20.494422804186772
30
0
11
-84.936184183756495
21
-20.275242061287194
31
0
0
SPLINE
5
379
100
AcDbEntity
8
0
100
AcDbSpline
70
4
71
3
72
8
73
4
74
0
42
0.000000001
43
0.0000000001
44
0.0000000001
40
0
40
0
40
0
40
0
40
1
40
1
40
1
40
1
41
1
41
1
41
1
41
1
10
-84.936184183756495
20
-20.275242061287194
30
0
10
-85.042023976643875
20
-20.154692652692425
30
0
10
-85.245471668243411
20
-19.809397191673547
30
0
10
-85.388284333546949
20
-19.507917693128217
30
0
0
SPLINE
5
380
100
AcDbEntity
8
0
100
AcDbSpline
70
4
71
3
72
8
73
4
74
0
42
0.000000001
43
0.0000000001
44
0.0000000001
40
0
40
0
40
0
40
0
40
1
40
1
40
1
40
1
41
1
41
1
41
1
41
1
10
-85.388284333546949
20
-19.507917693128217
30
0
10
-85.704560248057049
20
-18.840244057645428
30
0
10
-85.796964168548584
20
-18.269221499433147
30
0
10
-85.75077028274535
20
-17.267792799939741
30
0
0
SPLINE
5
381
100
AcDbEntity
8
0
100
AcDbSpline
70
4
71
3
72
8
73
4
74
0
42
0.000000001
43
0.0000000001
44
0.0000000001
40
0
40
0
40
0
40
0
40
1
40
1
40
1
40
1
41
1
41
1
41
1
41
1
10
-85.75077028274535
20
-17.267792799939741
30
0
10
-85.699376455942783
20
-16.153598454465495
30
0
10
-85.398151302337638
20
-15.258429418871827
30
0
10
-84.559959570566804
20
-13.729017967849996
30
0
0
SPLINE
5
382
100
AcDbEntity
8
0
100
AcDbSpline
70
4
71
3
72
8
73
4
74
0
42
0.000000001
43
0.0000000001
44
0.0000000001
40
0
40
0
40
0
40
0
40
1
40
1
40
1
40
1
41
1
41
1
41
1
41
1
10
-84.559959570566804
20
-13.729017967849996
30
0
10
-83.518663311004644
20
-11.828999697039553
30
0
10
-82.879680188496891
20
-11.119554951657879
30
0
10
-80.786142762502038
20
-9.5390454002917089
30
0
0
SPLINE
5
383
100
AcDbEntity
8
0
100
AcDbSpline
70
4
71
3
72
8
73
4
74
0
42
0.000000001
43
0.0000000001
44
0.0000000001
40
0
40
0
40
0
40
0
40
1
40
1
40
1
40
1
41
1
41
1
41
1
41
1
10
-80.786142762502038
20
-9.5390454002917089
30
0
10
-78.284099102020249
20
-7.650132515897381
30
0
10
-77.914992109934488
20
-7.3096040038963439
30
0
10
-77.313668187459299
20
-6.3353972781400163
30
0
0
SPLINE
5
384
100
AcDbEntity
8
0
100
AcDbSpline
70
4
71
3
72
8
73
4
74
0
42
0.000000001
43
0.0000000001
44
0.0000000001
40
0
40
0
40
0
40
0
40
1
40
1
40
1
40
1
41
1
41
1
41
1
41
1
10
-77.313668187459299
20
-6.3353972781400163
30
0
10
-76.93086694081623
20
-5.7152255881528333
30
0
10
-76.857454109191892
20
-5.4034945754905817
30
0
10
-76.953398672739667
20
-4.8055548537473154
30
0
0
SPLINE
5
385
100
AcDbEntity
8
0
100
AcDbSpline
70
4
71
3
72
8
73
4
74
0
42
0.000000001
43
0.0000000001
44
0.0000000001
40
0
40
0
40
0
40
0
40
1
40
1
40
1
40
1
41
1
41
1
41
1
41
1
10
-76.953398672739667
20
-4.8055548537473154
30
0
10
-76.993908150990805
20
-4.5530877261062734
30
0
10
-77.073796685536692
20
-4.2251205234428513
30
0
10
-77.130919329325351
20
-4.076739520698812
30
0
0
SPLINE
5
386
100
AcDbEntity
8
0
100
AcDbSpline
70
4
71
3
72
8
73
4
74
0
42
0.000000001
43
0.0000000001
44
0.0000000001
40
0
40
0
40
0
40
0
40
1
40
1
40
1
40
1
41
1
41
1
41
1
41
1
10
-77.130919329325351
20
-4.076739520698812
30
0
10
-77.239944489796954
20
-3.7935556996564337
30
0
10
-77.585506407419842
20
-3.3920424370666606
30
0
10
-77.874248472849516
20
-3.2130486993690592
30
0
0
SPLINE
5
387
100
AcDbEntity
8
0
100
AcDbSpline
70
4
71
3
72
8
73
4
74
0
42
0.000000001
43
0.0000000001
44
0.0000000001
40
0
40
0
40
0
40
0
40
1
40
1
40
1
40
1
41
1
41
1
41
1
41
1
10
-77.874248472849516
20
-3.2130486993690592
30
0
10
-77.971234639485672
20
-3.1529269048273827
30
0
10
-78.106852976481122
20
-2.9717230408092603
30
0
10
-78.188756084442133
20
-2.7928181219796606
30
0
0
SPLINE
5
388
100
AcDbEntity
8
0
100
AcDbSpline
70
4
71
3
72
8
73
4
74
0
42
0.000000001
43
0.0000000001
44
0.0000000001
40
0
40
0
40
0
40
0
40
1
40
1
40
1
40
1
41
1
41
1
41
1
41
1
10
-78.188756084442133
20
-2.7928181219796606
30
0
10
-78.633932399749753
20
-1.8204251178801323
30
0
10
-78.296416664123527
20
-1.318945714702235
30
0
10
-77.196778519948325
20
-1.318945714702235
30
0
0
SPLINE
5
389
100
AcDbEntity
8
0
100
AcDbSpline
70
4
71
3
72
8
73
4
74
0
42
0.000000001
43
0.0000000001
44
0.0000000001
40
0
40
0
40
0
40
0
40
1
40
1
40
1
40
1
41
1
41
1
41
1
41
1
10
-77.196778519948325
20
-1.318945714702235
30
0
10
-76.735764185587556
20
-1.318945714702235
30
0
10
-76.711435890197748
20
-1.3263265121678771
30
0
10
-76.344416141509996
20
-1.5774889865219854
30
0
0
SPLINE
5
390
100
AcDbEntity
8
0
100
AcDbSpline
70
4
71
3
72
8
73
4
74
0
42
0.000000001
43
0.0000000001
44
0.0000000001
40
0
40
0
40
0
40
0
40
1
40
1
40
1
40
1
41
1
41
1
41
1
41
1
10
-76.344416141509996
20
-1.5774889865219854
30
0
10
-75.892828718821207
20
-1.886524270842499
30
0
10
-75.379265912373853
20
-2.5636762925684713
30
0
10
-75.249578253428126
20
-3.0210669685105747
30
0
0
SPLINE
5
391
100
AcDbEntity
8
0
100
AcDbSpline
70
4
71
3
72
8
73
4
74
0
42
0.000000001
43
0.0000000001
44
0.0000000001
40
0
40
0
40
0
40
0
40
1
40
1
40
1
40
1
41
1
41
1
41
1
41
1
10
-75.249578253428126
20
-3.0210669685105747
30
0
10
-75.010098361968986
20
-3.8656889844636391
30
0
10
-74.960484949747709
20
-4.1568950165013732
30
0
10
-74.994732697804764
20
-4.5169177560707201
30
0
0
SPLINE
5
392
100
AcDbEntity
8
0
100
AcDbSpline
70
4
71
3
72
8
73
4
74
0
42
0.000000001
43
0.0000000001
44
0.0000000001
40
0
40
0
40
0
40
0
40
1
40
1
40
1
40
1
41
1
41
1
41
1
41
1
10
-74.994732697804764
20
-4.5169177560707201
30
0
10
-75.073010381062815
20
-5.3398043819964203
30
0
10
-75.669295851389563
20
-6.6981436281105156
30
0
10
-76.367416191101071
20
-7.6438859252830627
30
0
0
SPLINE
5
393
100
AcDbEntity
8
0
100
AcDbSpline
70
4
71
3
72
8
73
4
74
0
42
0.000000001
43
0.0000000001
44
0.0000000001
40
0
40
0
40
0
40
0
40
1
40
1
40
1
40
1
41
1
41
1
41
1
41
1
10
-76.367416191101071
20
-7.6438859252830627
30
0
10
-76.764250818888343
20
-8.1814747401774195
30
0
10
-78.046423848470042
20
-9.4393028208315641
30
0
10
-78.932759443918854
20
-10.160523131360637
30
0
0
SPLINE
5
394
100
AcDbEntity
8
0
100
AcDbSpline
70
4
71
3
72
8
73
4
74
0
42
0.000000001
43
0.0000000001
44
0.0000000001
40
0
40
0
40
0
40
0
40
1
40
1
40
1
40
1
41
1
41
1
41
1
41
1
10
-78.932759443918854
20
-10.160523131360637
30
0
10
-79.869964027404777
20
-10.923137071599589
30
0
10
-81.661900838216155
20
-12.775757355362206
30
0
10
-82.239393043518049
20
-13.579137137403119
30
0
0
SPLINE
5
395
100
AcDbEntity
8
0
100
AcDbSpline
70
4
71
3
72
8
73
4
74
0
42
0.000000001
43
0.0000000001
44
0.0000000001
40
0
40
0
40
0
40
0
40
1
40
1
40
1
40
1
41
1
41
1
41
1
41
1
10
-82.239393043518049
20
-13.579137137403119
30
0
10
-82.565390586853027
20
-14.032646277417767
30
0
10
-82.701994005839026
20
-14.339612359672813
30
0
10
-82.861448097229001
20
-14.976966463396975
30
0
0
SPLINE
5
396
100
AcDbEntity
8
0
100
AcDbSpline
70
4
71
3
72
8
73
4
74
0
42
0.000000001
43
0.0000000001
44
0.0000000001
40
0
40
0
40
0
40
0
40
1
40
1
40
1
40
1
41
1
41
1
41
1
41
1
10
-82.861448097229001
20
-14.976966463396975
30
0
10
-83.060741488138831
20
-15.773542518287924
30
0
10
-83.126984214782709
20
-16.538610079755415
30
0
10
-83.037878704071048
20
-17.014586356153117
30
0
0
SPLINE
5
397
100
AcDbEntity
8
0
100
AcDbSpline
70
4
71
3
72
8
73
4
74
0
42
0.000000001
43
0.0000000001
44
0.0000000001
40
0
40
0
40
0
40
0
40
1
40
1
40
1
40
1
41
1
41
1
41
1
41
1
10
-83.037878704071048
20
-17.014586356153117
30
0
10
-82.946839364369708
20
-17.500885807345337
30
0
10
-82.898925622304276
20
-17.546449886630008
30
0
10
-82.642796230316151
20
-17.390302279462443
30
0
0
SPLINE
5
398
100
AcDbEntity
8
0
100
AcDbSpline
70
4
71
3
72
8
73
4
74
0
42
0.000000001
43
0.0000000001
44
0.0000000001
40
0
40
0
40
0
40
0
40
1
40
1
40
1
40
1
41
1
41
1
41
1
41
1
10
-82.642796230316151
20
-17.390302279462443
30
0
10
-82.531231657663966
20
-17.322285194069174
30
0
10
-82.356315008799214
20
-17.266535205513268
30
0
10
-82.254100640614809
20
-17.266412070264447
30
0
0
SPLINE
5
399
100
AcDbEntity
8
0
100
AcDbSpline
70
4
71
3
72
8
73
4
74
0
42
0.000000001
43
0.0000000001
44
0.0000000001
40
0
40
0
40
0
40
0
40
1
40
1
40
1
40
1
41
1
41
1
41
1
41
1
10
-82.254100640614809
20
-17.266412070264447
30
0
10
-82.077770964304605
20
-17.266200116147626
30
0
10
-81.687141545613599
20
-17.035890772809612
30
0
10
-81.533464717864987
20
-16.841530866295127
30
0
0
SPLINE
5
400
100
AcDbEntity
8
0
100
AcDbSpline
70
4
71
3
72
8
73
4
74
0
42
0.000000001
43
0.0000000001
44
0.0000000001
40
0
40
0
40
0
40
0
40
1
40
1
40
1
40
1
41
1
41
1
41
1
41
1
10
-81.533464717864987
20
-16.841530866295127
30
0
10
-81.496528180440251
20
-16.794816178947716
30
0
10
-81.452490170796708
20
-16.473322155942547
30
0
10
-81.435606511433917
20
-16.127099143336245
30
0
0
SPLINE
5
401
100
AcDbEntity
8
0
100
AcDbSpline
70
4
71
3
72
8
73
4
74
0
42
0.000000001
43
0.0000000001
44
0.0000000001
40
0
40
0
40
0
40
0
40
1
40
1
40
1
40
1
41
1
41
1
41
1
41
1
10
-81.435606511433917
20
-16.127099143336245
30
0
10
-81.399941698710109
20
-15.395862486829389
30
0
10
-81.272204017639154
20
-14.973670072227744
30
0
10
-80.719120852152486
20
-13.758993326495119
30
0
0
SPLINE
5
402
100
AcDbEntity
8
0
100
AcDbSpline
70
4
71
3
72
8
73
4
74
0
42
0.000000001
43
0.0000000001
44
0.0000000001
40
0
40
0
40
0
40
0
40
1
40
1
40
1
40
1
41
1
41
1
41
1
41
1
10
-80.719120852152486
20
-13.758993326495119
30
0
10
-79.945193608601883
20
-12.059301975240338
30
0
10
-79.669544251759845
20
-11.667245398829408
30
0
10
-78.205728562672931
20
-10.184177210797893
30
0
0
SPLINE
5
403
100
AcDbEntity
8
0
100
AcDbSpline
70
4
71
3
72
8
73
4
74
0
42
0.000000001
43
0.0000000001
44
0.0000000001
40
0
40
0
40
0
40
0
40
1
40
1
40
1
40
1
41
1
41
1
41
1
41
1
10
-78.205728562672931
20
-10.184177210797893
30
0
10
-77.451773452758786
20
-9.4203056761324682
30
0
10
-76.949615796407059
20
-8.959953446060446
30
0
10
-76.774485174814856
20
-8.8720883715848391
30
0
0
SPLINE
5
404
100
AcDbEntity
8
0
100
AcDbSpline
70
4
71
3
72
8
73
4
74
0
42
0.000000001
43
0.0000000001
44
0.0000000001
40
0
40
0
40
0
40
0
40
1
40
1
40
1
40
1
41
1
41
1
41
1
41
1
10
-76.774485174814856
20
-8.8720883715848391
30
0
10
-76.626105181376133
20
-8.7976440299252943
30
0
10
-76.170585505167637
20
-8.5345383195778002
30
0
10
-75.762220573425282
20
-8.2874099124173597
30
0
0
SPLINE
5
405
100
AcDbEntity
8
0
100
AcDbSpline
70
4
71
3
72
8
73
4
74
0
42
0.000000001
43
0.0000000001
44
0.0000000001
40
0
40
0
40
0
40
0
40
1
40
1
40
1
40
1
41
1
41
1
41
1
41
1
10
-75.762220573425282
20
-8.2874099124173597
30
0
10
-74.718275896708164
20
-7.6556513973772802
30
0
10
-74.327852376302076
20
-7.438370167086549
30
0
10
-74.009949461619044
20
-7.3122231511970632
30
0
0
SPLINE
5
406
100
AcDbEntity
8
0
100
AcDbSpline
70
4
71
3
72
8
73
4
74
0
42
0.000000001
43
0.0000000001
44
0.0000000001
40
0
40
0
40
0
40
0
40
1
40
1
40
1
40
1
41
1
41
1
41
1
41
1
10
-74.009949461619044
20
-7.3122231511970632
30
0
10
-73.659631697336835
20
-7.1732135483324804
30
0
10
-72.977599684397376
20
-6.7335793285270809
30
0
10
-72.39798793792724
20
-6.2731554377774668
30
0
0
SPLINE
5
407
100
AcDbEntity
8
0
100
AcDbSpline
70
4
71
3
72
8
73
4
74
0
42
0.000000001
43
0.0000000001
44
0.0000000001
40
0
40
0
40
0
40
0
40
1
40
1
40
1
40
1
41
1
41
1
41
1
41
1
10
-72.39798793792724
20
-6.2731554377774668
30
0
10
-71.896076552073154
20
-5.8744551091095083
30
0
10
-71.079043896992985
20
-5.0967439799209702
30
0
10
-71.079043896992985
20
-5.0176881222625846
30
0
0
SPLINE
5
408
100
AcDbEntity
8
0
100
AcDbSpline
70
4
71
3
72
8
73
4
74
0
42
0.000000001
43
0.0000000001
44
0.0000000001
40
0
40
0
40
0
40
0
40
1
40
1
40
1
40
1
41
1
41
1
41
1
41
1
10
-71.079043896992985
20
-5.0176881222625846
30
0
10
-71.079043896992985
20
-4.9894941875040804
30
0
10
-70.869960244496653
20
-4.7203669616282253
30
0
10
-70.614416249593091
20
-4.4196272838811348
30
0
0
SPLINE
5
409
100
AcDbEntity
8
0
100
AcDbSpline
70
4
71
3
72
8
73
4
74
0
42
0.000000001
43
0.0000000001
44
0.0000000001
40
0
40
0
40
0
40
0
40
1
40
1
40
1
40
1
41
1
41
1
41
1
41
1
10
-70.614416249593091
20
-4.4196272838811348
30
0
10
-69.947854868570957
20
-3.6351808079779415
30
0
10
-69.402672545115138
20
-2.9373216260175172
30
0
10
-68.808583323160804
20
-2.1080698161026103
30
0
0
SPLINE
5
410
100
AcDbEntity
8
0
100
AcDbSpline
70
4
71
3
72
8
73
4
74
0
42
0.000000001
43
0.0000000001
44
0.0000000001
40
0
40
0
40
0
40
0
40
1
40
1
40
1
40
1
41
1
41
1
41
1
41
1
10
-68.808583323160804
20
-2.1080698161026103
30
0
10
-68.410654608408606
20
-1.55262310988707
30
0
10
-67.963035774230946
20
-1.3945906250377758
30
0
10
-67.422209612528476
20
-1.6186069497168325
30
0
0
SPLINE
5
411
100
AcDbEntity
8
0
100
AcDbSpline
70
4
71
3
72
8
73
4
74
0
42
0.000000001
43
0.0000000001
44
0.0000000001
40
0
40
0
40
0
40
0
40
1
40
1
40
1
40
1
41
1
41
1
41
1
41
1
10
-67.422209612528476
20
-1.6186069497168325
30
0
10
-67.219795449574789
20
-1.7024498163362605
30
0
10
-67.189883677164715
20
-1.7670240351259969
30
0
10
-67.142216205596924
20
-2.2231230525871384
30
0
0
SPLINE
5
412
100
AcDbEntity
8
0
100
AcDbSpline
70
4
71
3
72
8
73
4
74
0
42
0.000000001
43
0.0000000001
44
0.0000000001
40
0
40
0
40
0
40
0
40
1
40
1
40
1
40
1
41
1
41
1
41
1
41
1
10
-67.142216205596924
20
-2.2231230525871384
30
0
10
-67.096252441406236
20
-2.6628819215993351
30
0
10
-67.251334222157794
20
-3.5492379554808409
30
0
10
-67.51373341878255
20
-4.3465238043368135
30
0
0
SPLINE
5
413
100
AcDbEntity
8
0
100
AcDbSpline
70
4
71
3
72
8
73
4
74
0
42
0.000000001
43
0.0000000001
44
0.0000000001
40
0
40
0
40
0
40
0
40
1
40
1
40
1
40
1
41
1
41
1
41
1
41
1
10
-67.51373341878255
20
-4.3465238043368135
30
0
10
-67.70838804244994
20
-4.9379661230941885
30
0
10
-68.297563966115305
20
-6.0813394853174962
30
0
10
-68.674345715840644
20
-6.598841610421764
30
0
0
SPLINE
5
414
100
AcDbEntity
8
0
100
AcDbSpline
70
4
71
3
72
8
73
4
74
0
42
0.000000001
43
0.0000000001
44
0.0000000001
40
0
40
0
40
0
40
0
40
1
40
1
40
1
40
1
41
1
41
1
41
1
41
1
10
-68.674345715840644
20
-6.598841610421764
30
0
10
-69.355667177836096
20
-7.5346286245882785
30
0
10
-69.560580380757642
20
-7.7790591586331805
30
0
10
-70.180927689870188
20
-8.3959606993894056
30
0
0
SPLINE
5
415
100
AcDbEntity
8
0
100
AcDbSpline
70
4
71
3
72
8
73
4
74
0
42
0.000000001
43
0.0000000001
44
0.0000000001
40
0
40
0
40
0
40
0
40
1
40
1
40
1
40
1
41
1
41
1
41
1
41
1
10
-70.180927689870188
20
-8.3959606993894056
30
0
10
-70.829624366760243
20
-9.0410541562934981
30
0
10
-71.320510101318348
20
-9.5901253331403211
30
0
10
-72.134898376464832
20
-10.58153566804531
30
0
0
LINE
5
416
100
AcDbEntity
8
0
100
AcDbLine
10
-72.134898376464832
20
-10.58153566804531
30
0
11
-72.47962862650553
21
-11.001199772824872
31
0
0
LINE
5
417
100
AcDbEntity
8
0
100
AcDbLine
10
-72.47962862650553
20
-11.001199772824872
30
0
11
-72.154038842519114
21
-10.699040002495078
31
0
0
SPLINE
5
418
100
AcDbEntity
8
0
100
AcDbSpline
70
4
71
3
72
8
73
4
74
0
42
0.000000001
43
0.0000000001
44
0.0000000001
40
0
40
0
40
0
40
0
40
1
40
1
40
1
40
1
41
1
41
1
41
1
41
1
10
-72.154038842519114
20
-10.699040002495078
30
0
10
-71.794580809275303
20
-10.365452483167278
30
0
10
-70.46390056610106
20
-9.4641387967964281
30
0
10
-69.797282663981107
20
-9.1027328042884932
30
0
0
SPLINE
5
419
100
AcDbEntity
8
0
100
AcDbSpline
70
4
71
3
72
8
73
4
74
0
42
0.000000001
43
0.0000000001
44
0.0000000001
40
0
40
0
40
0
40
0
40
1
40
1
40
1
40
1
41
1
41
1
41
1
41
1
10
-69.797282663981107
20
-9.1027328042884932
30
0
10
-69.127838706970209
20
-8.7397956956128535
30
0
10
-68.249630037943518
20
-8.3168119856417455
30
0
10
-67.272093613942459
20
-7.8864896167020282
30
0
0
SPLINE
5
420
100
AcDbEntity
8
0
100
AcDbSpline
70
4
71
3
72
8
73
4
74
0
42
0.000000001
43
0.0000000001
44
0.0000000001
40
0
40
0
40
0
40
0
40
1
40
1
40
1
40
1
41
1
41
1
41
1
41
1
10
-67.272093613942459
20
-7.8864896167020282
30
0
10
-66.777489598592126
20
-7.6687602548500173
30
0
10
-66.251411406199139
20
-7.4237952936391318
30
0
10
-66.103027375539142
20
-7.3421238212486379
30
0
0
SPLINE
5
421
100
AcDbEntity
8
0
100
AcDbSpline
70
4
71
3
72
8
73
4
74
0
42
0.000000001
43
0.0000000001
44
0.0000000001
40
0
40
0
40
0
40
0
40
1
40
1
40
1
40
1
41
1
41
1
41
1
41
1
10
-66.103027375539142
20
-7.3421238212486379
30
0
10
-65.954647382100418
20
-7.2604523488581449
30
0
10
-65.509503364562974
20
-7.0344350763857646
30
0
10
-65.113819344838447
20
-6.8398627111017971
30
0
0
SPLINE
5
422
100
AcDbEntity
8
0
100
AcDbSpline
70
4
71
3
72
8
73
4
74
0
42
0.000000001
43
0.0000000001
44
0.0000000001
40
0
40
0
40
0
40
0
40
1
40
1
40
1
40
1
41
1
41
1
41
1
41
1
10
-65.113819344838447
20
-6.8398627111017971
30
0
10
-63.790660444895416
20
-6.1892185796002819
30
0
10
-63.032078679402659
20
-5.5482279488146578
30
0
10
-61.276888656616208
20
-3.5977136282821758
30
0
0
SPLINE
5
423
100
AcDbEntity
8
0
100
AcDbSpline
70
4
71
3
72
8
73
4
74
0
42
0.000000001
43
0.0000000001
44
0.0000000001
40
0
40
0
40
0
40
0
40
1
40
1
40
1
40
1
41
1
41
1
41
1
41
1
10
-61.276888656616208
20
-3.5977136282821758
30
0
10
-59.996306292215976
20
-2.1746239134371543
30
0
10
-60.021244208017976
20
-2.1971294034223026
30
0
10
-59.770108858744294
20
-2.2378826289077862
30
0
0
SPLINE
5
424
100
AcDbEntity
8
0
100
AcDbSpline
70
4
71
3
72
8
73
4
74
0
42
0.000000001
43
0.0000000001
44
0.0000000001
40
0
40
0
40
0
40
0
40
1
40
1
40
1
40
1
41
1
41
1
41
1
41
1
10
-59.770108858744294
20
-2.2378826289077862
30
0
10
-59.493991184234609
20
-2.2826902338564659
30
0
10
-59.298969173431388
20
-2.4641502090990803
30
0
10
-59.173314698537183
20
-2.7931776869992682
30
0
0
SPLINE
5
425
100
AcDbEntity
8
0
100
AcDbSpline
70
4
71
3
72
8
73
4
74
0
42
0.000000001
43
0.0000000001
44
0.0000000001
40
0
40
0
40
0
40
0
40
1
40
1
40
1
40
1
41
1
41
1
41
1
41
1
10
-59.173314698537183
20
-2.7931776869992682
30
0
10
-59.09112091064452
20
-3.008399177461889
30
0
10
-59.079820728301996
20
-3.2243211258153388
30
0
10
-59.103995609283437
20
-4.1180776386161906
30
0
0
SPLINE
5
426
100
AcDbEntity
8
0
100
AcDbSpline
70
4
71
3
72
8
73
4
74
0
42
0.000000001
43
0.0000000001
44
0.0000000001
40
0
40
0
40
0
40
0
40
1
40
1
40
1
40
1
41
1
41
1
41
1
41
1
10
-59.103995609283437
20
-4.1180776386161906
30
0
10
-59.137661997477203
20
-5.3627585081955065
30
0
10
-59.251063505808503
20
-5.8809091119667167
30
0
10
-59.762421989440909
20
-7.1265412518084323
30
0
0
SPLINE
5
427
100
AcDbEntity
8
0
100
AcDbSpline
70
4
71
3
72
8
73
4
74
0
42
0.000000001
43
0.0000000001
44
0.0000000001
40
0
40
0
40
0
40
0
40
1
40
1
40
1
40
1
41
1
41
1
41
1
41
1
10
-59.762421989440909
20
-7.1265412518084323
30
0
10
-60.094071642557772
20
-7.9344129471679805
30
0
10
-60.665564537048333
20
-8.803479833275107
30
0
10
-61.499420293172193
20
-9.7679972279767462
30
0
0
SPLINE
5
428
100
AcDbEntity
8
0
100
AcDbSpline
70
4
71
3
72
8
73
4
74
0
42
0.000000001
43
0.0000000001
44
0.0000000001
40
0
40
0
40
0
40
0
40
1
40
1
40
1
40
1
41
1
41
1
41
1
41
1
10
-61.499420293172193
20
-9.7679972279767462
30
0
10
-61.916533883412669
20
-10.250469393402366
30
0
10
-62.85936231613158
20
-11.140736233065553
30
0
10
-63.154814243316643
20
-11.331101309130617
30
0
0
SPLINE
5
429
100
AcDbEntity
8
0
100
AcDbSpline
70
4
71
3
72
8
73
4
74
0
42
0.000000001
43
0.0000000001
44
0.0000000001
40
0
40
0
40
0
40
0
40
1
40
1
40
1
40
1
41
1
41
1
41
1
41
1
10
-63.154814243316643
20
-11.331101309130617
30
0
10
-63.283755016326893
20
-11.41418227639797
30
0
10
-63.257670529683423
20
-11.419395338366456
30
0
10
-62.804367287953689
20
-11.401131958633687
30
0
0
SPLINE
5
430
100
AcDbEntity
8
0
100
AcDbSpline
70
4
71
3
72
8
73
4
74
0
42
0.000000001
43
0.0000000001
44
0.0000000001
40
0
40
0
40
0
40
0
40
1
40
1
40
1
40
1
41
1
41
1
41
1
41
1
10
-62.804367287953689
20
-11.401131958633687
30
0
10
-62.325940418243405
20
-11.381854227056134
30
0
10
-61.478491338094074
20
-11.517774346341715
30
0
10
-61.330317242940254
20
-11.637547599146792
30
0
0
SPLINE
5
431
100
AcDbEntity
8
0
100
AcDbSpline
70
4
71
3
72
8
73
4
74
0
42
0.000000001
43
0.0000000001
44
0.0000000001
40
0
40
0
40
0
40
0
40
1
40
1
40
1
40
1
41
1
41
1
41
1
41
1
10
-61.330317242940254
20
-11.637547599146792
30
0
10
-61.20100908279418
20
-11.742075295120504
30
0
10
-60.56559486389159
20
-11.930457086235311
30
0
10
-60.34233249028523
20
-11.930457086235311
30
0
0
SPLINE
5
432
100
AcDbEntity
8
0
100
AcDbSpline
70
4
71
3
72
8
73
4
74
0
42
0.000000001
43
0.0000000001
44
0.0000000001
40
0
40
0
40
0
40
0
40
1
40
1
40
1
40
1
41
1
41
1
41
1
41
1
10
-60.34233249028523
20
-11.930457086235311
30
0
10
-60.075601355234774
20
-11.930457086235311
30
0
10
-59.951594066619862
20
-11.788354971875775
30
0
10
-59.701120821634923
20
-11.195660609871176
30
0
0
SPLINE
5
433
100
AcDbEntity
8
0
100
AcDbSpline
70
4
71
3
72
8
73
4
74
0
42
0.000000001
43
0.0000000001
44
0.0000000001
40
0
40
0
40
0
40
0
40
1
40
1
40
1
40
1
41
1
41
1
41
1
41
1
10
-59.701120821634923
20
-11.195660609871176
30
0
10
-59.551993942260737
20
-10.842787284523276
30
0
10
-59.540822950998937
20
-10.747505834569562
30
0
10
-59.50615533192952
20
-9.5323759107490638
30
0
0
SPLINE
5
434
100
AcDbEntity
8
0
100
AcDbSpline
70
4
71
3
72
8
73
4
74
0
42
0.000000001
43
0.0000000001
44
0.0000000001
40
0
40
0
40
0
40
0
40
1
40
1
40
1
40
1
41
1
41
1
41
1
41
1
10
-59.50615533192952
20
-9.5323759107490638
30
0
10
-59.470054499308262
20
-8.2669815727770608
30
0
10
-59.46590827306111
20
-8.2345884232421991
30
0
10
-59.27944113413492
20
-7.7612191824813959
30
0
0
SPLINE
5
435
100
AcDbEntity
8
0
100
AcDbSpline
70
4
71
3
72
8
73
4
74
0
42
0.000000001
43
0.0000000001
44
0.0000000001
40
0
40
0
40
0
40
0
40
1
40
1
40
1
40
1
41
1
41
1
41
1
41
1
10
-59.27944113413492
20
-7.7612191824813959
30
0
10
-58.962204360961906
20
-6.9558677225013845
30
0
10
-58.554957739512119
20
-6.3956951964597177
30
0
10
-58.125813229878737
20
-6.1744014728764967
30
0
0
SPLINE
5
436
100
AcDbEntity
8
0
100
AcDbSpline
70
4
71
3
72
8
73
4
74
0
42
0.000000001
43
0.0000000001
44
0.0000000001
40
0
40
0
40
0
40
0
40
1
40
1
40
1
40
1
41
1
41
1
41
1
41
1
10
-58.125813229878737
20
-6.1744014728764967
30
0
10
-57.846304289499912
20
-6.030268131564088
30
0
10
-57.300270112355548
20
-5.8942581841051851
30
0
10
-56.793191083272283
20
-5.8424611398279938
30
0
0
SPLINE
5
437
100
AcDbEntity
8
0
100
AcDbSpline
70
4
71
3
72
8
73
4
74
0
42
0.000000001
43
0.0000000001
44
0.0000000001
40
0
40
0
40
0
40
0
40
1
40
1
40
1
40
1
41
1
41
1
41
1
41
1
10
-56.793191083272283
20
-5.8424611398279938
30
0
10
-56.171527640024806
20
-5.7789601910809951
30
0
10
-56.121340942382801
20
-5.7159169622957986
30
0
10
-56.119544378916409
20
-4.9962989239593618
30
0
0
SPLINE
5
438
100
AcDbEntity
8
0
100
AcDbSpline
70
4
71
3
72
8
73
4
74
0
42
0.000000001
43
0.0000000001
44
0.0000000001
40
0
40
0
40
0
40
0
40
1
40
1
40
1
40
1
41
1
41
1
41
1
41
1
10
-56.119544378916409
20
-4.9962989239593618
30
0
10
-56.117691294352205
20
-4.2643194187383129
30
0
10
-55.977894433339429
20
-3.9019725013474886
30
0
10
-55.548148377736403
20
-3.5155970522463589
30
0
0
SPLINE
5
439
100
AcDbEntity
8
0
100
AcDbSpline
70
4
71
3
72
8
73
4
74
0
42
0.000000001
43
0.0000000001
44
0.0000000001
40
0
40
0
40
0
40
0
40
1
40
1
40
1
40
1
41
1
41
1
41
1
41
1
10
-55.548148377736403
20
-3.5155970522463589
30
0
10
-55.146024990081777
20
-3.154052784909831
30
0
10
-54.68986743291218
20
-2.9869877744416664
30
0
10
-54.009151554107653
20
-2.9519474693835046
30
0
0
SPLINE
5
440
100
AcDbEntity
8
0
100
AcDbSpline
70
4
71
3
72
8
73
4
74
0
42
0.000000001
43
0.0000000001
44
0.0000000001
40
0
40
0
40
0
40
0
40
1
40
1
40
1
40
1
41
1
41
1
41
1
41
1
10
-54.009151554107653
20
-2.9519474693835046
30
0
10
-53.512258434295646
20
-2.9263701586624253
30
0
10
-53.406200631459548
20
-2.9409513402680822
30
0
10
-52.965606562296543
20
-3.0954318273763128
30
0
0
SPLINE
5
441
100
AcDbEntity
8
0
100
AcDbSpline
70
4
71
3
72
8
73
4
74
0
42
0.000000001
43
0.0000000001
44
0.0000000001
40
0
40
0
40
0
40
0
40
1
40
1
40
1
40
1
41
1
41
1
41
1
41
1
10
-52.965606562296543
20
-3.0954318273763128
30
0
10
-52.555247243245432
20
-3.2393108237485357
30
0
10
-52.447073936462388
20
-3.3059181619386142
30
0
10
-52.303114700317373
20
-3.5033705799480543
30
0
0
SPLINE
5
442
100
AcDbEntity
8
0
100
AcDbSpline
70
4
71
3
72
8
73
4
74
0
42
0.000000001
43
0.0000000001
44
0.0000000001
40
0
40
0
40
0
40
0
40
1
40
1
40
1
40
1
41
1
41
1
41
1
41
1
10
-52.303114700317373
20
-3.5033705799480543
30
0
10
-52.04720331827798
20
-3.8543754288256431
30
0
10
-51.942017555236802
20
-4.2949896840950128
30
0
10
-51.939102681477856
20
-5.0282131581207388
30
0
0
SPLINE
5
443
100
AcDbEntity
8
0
100
AcDbSpline
70
4
71
3
72
8
73
4
74
0
42
0.000000001
43
0.0000000001
44
0.0000000001
40
0
40
0
40
0
40
0
40
1
40
1
40
1
40
1
41
1
41
1
41
1
41
1
10
-51.939102681477856
20
-5.0282131581207388
30
0
10
-51.935606447855626
20
-5.9049522786041377
30
0
10
-52.023424084981272
20
-6.2700306285123304
30
0
10
-52.348145866394027
20
-6.7288678913017383
30
0
0
SPLINE
5
444
100
AcDbEntity
8
0
100
AcDbSpline
70
4
71
3
72
8
73
4
74
0
42
0.000000001
43
0.0000000001
44
0.0000000001
40
0
40
0
40
0
40
0
40
1
40
1
40
1
40
1
41
1
41
1
41
1
41
1
10
-52.348145866394027
20
-6.7288678913017383
30
0
10
-52.69521366755167
20
-7.2192782430549745
30
0
10
-52.97226394017536
20
-7.6848167885045484
30
0
10
-52.972966416676826
20
-7.7787780671020625
30
0
0
SPLINE
5
445
100
AcDbEntity
8
0
100
AcDbSpline
70
4
71
3
72
8
73
4
74
0
42
0.000000001
43
0.0000000001
44
0.0000000001
40
0
40
0
40
0
40
0
40
1
40
1
40
1
40
1
41
1
41
1
41
1
41
1
10
-52.972966416676826
20
-7.7787780671020625
30
0
10
-52.973232873280836
20
-7.8291126279731866
30
0
10
-52.872043959299717
20
-7.8537179776728427
30
0
10
-52.66444196701049
20
-7.8537179776728427
30
0
0
SPLINE
5
446
100
AcDbEntity
8
0
100
AcDbSpline
70
4
71
3
72
8
73
4
74
0
42
0.000000001
43
0.0000000001
44
0.0000000001
40
0
40
0
40
0
40
0
40
1
40
1
40
1
40
1
41
1
41
1
41
1
41
1
10
-52.66444196701049
20
-7.8537179776728427
30
0
10
-52.228191947937006
20
-7.8537179776728427
30
0
10
-52.025232760111486
20
-8.0260200211107993
30
0
10
-51.711104647318507
20
-8.6630481192171835
30
0
0
SPLINE
5
447
100
AcDbEntity
8
0
100
AcDbSpline
70
4
71
3
72
8
73
4
74
0
42
0.000000001
43
0.0000000001
44
0.0000000001
40
0
40
0
40
0
40
0
40
1
40
1
40
1
40
1
41
1
41
1
41
1
41
1
10
-51.711104647318507
20
-8.6630481192171835
30
0
10
-51.57248261769611
20
-8.9441648829678968
30
0
10
-51.421756998697902
20
-9.1726625232597456
30
0
10
-51.374949455261216
20
-9.1726625232597456
30
0
0
SPLINE
5
448
100
AcDbEntity
8
0
100
AcDbSpline
70
4
71
3
72
8
73
4
74
0
42
0.000000001
43
0.0000000001
44
0.0000000001
40
0
40
0
40
0
40
0
40
1
40
1
40
1
40
1
41
1
41
1
41
1
41
1
10
-51.374949455261216
20
-9.1726625232597456
30
0
10
-51.250667635599768
20
-9.1726625232597456
30
0
10
-50.850869687398266
20
-8.9581033894121926
30
0
10
-50.751295661926257
20
-8.8379637587766133
30
0
0
SPLINE
5
449
100
AcDbEntity
8
0
100
AcDbSpline
70
4
71
3
72
8
73
4
74
0
42
0.000000001
43
0.0000000001
44
0.0000000001
40
0
40
0
40
0
40
0
40
1
40
1
40
1
40
1
41
1
41
1
41
1
41
1
10
-50.751295661926257
20
-8.8379637587766133
30
0
10
-50.684810702006011
20
-8.757755274444845
30
0
10
-50.665375518798818
20
-8.5228485453824465
30
0
10
-50.665375518798818
20
-7.7994092771113195
30
0
0
LINE
5
450
100
AcDbEntity
8
0
100
AcDbLine
10
-50.665375518798818
20
-7.7994092771113213
30
0
11
-50.665375518798818
21
-6.8645084330141826
31
0
0
LINE
5
451
100
AcDbEntity
8
0
100
AcDbLine
10
-50.665375518798818
20
-6.8645084330141826
30
0
11
-50.455762990315741
21
-6.477763830492921
31
0
0
SPLINE
5
452
100
AcDbEntity
8
0
100
AcDbSpline
70
4
71
3
72
8
73
4
74
0
42
0.000000001
43
0.0000000001
44
0.0000000001
40
0
40
0
40
0
40
0
40
1
40
1
40
1
40
1
41
1
41
1
41
1
41
1
10
-50.455762990315741
20
-6.477763830492921
30
0
10
-50.215362612406402
20
-6.0342296549380103
30
0
10
-49.562527783711737
20
-5.342435640960959
30
0
10
-49.219783846537261
20
-5.1680347471138113
30
0
0
SPLINE
5
453
100
AcDbEntity
8
0
100
AcDbSpline
70
4
71
3
72
8
73
4
74
0
42
0.000000001
43
0.0000000001
44
0.0000000001
40
0
40
0
40
0
40
0
40
1
40
1
40
1
40
1
41
1
41
1
41
1
41
1
10
-49.219783846537261
20
-5.1680347471138113
30
0
10
-48.535079193115223
20
-4.8196311303675445
30
0
10
-47.685857772827134
20
-4.712519108126588
30
0
10
-47.005908966064439
20
-4.8888023563921728
30
0
0
SPLINE
5
454
100
AcDbEntity
8
0
100
AcDbSpline
70
4
71
3
72
8
73
4
74
0
42
0.000000001
43
0.0000000001
44
0.0000000001
40
0
40
0
40
0
40
0
40
1
40
1
40
1
40
1
41
1
41
1
41
1
41
1
10
-47.005908966064439
20
-4.8888023563921728
30
0
10
-45.708014996846501
20
-5.2252966750363781
30
0
10
-44.925771077473946
20
-6.0402390588025519
30
0
10
-44.823484039306635
20
-7.1624553629458223
30
0
0
SPLINE
5
455
100
AcDbEntity
8
0
100
AcDbSpline
70
4
71
3
72
8
73
4
74
0
42
0.000000001
43
0.0000000001
44
0.0000000001
40
0
40
0
40
0
40
0
40
1
40
1
40
1
40
1
41
1
41
1
41
1
41
1
10
-44.823484039306635
20
-7.1624553629458223
30
0
10
-44.773834292093902
20
-7.7072127688626724
30
0
10
-44.627250862121571
20
-8.0349518685241819
30
0
10
-44.289795684814443
20
-8.3557378638486348
30
0
0
SPLINE
5
456
100
AcDbEntity
8
0
100
AcDbSpline
70
4
71
3
72
8
73
4
74
0
42
0.000000001
43
0.0000000001
44
0.0000000001
40
0
40
0
40
0
40
0
40
1
40
1
40
1
40
1
41
1
41
1
41
1
41
1
10
-44.289795684814443
20
-8.3557378638486348
30
0
10
-44.137923494974764
20
-8.5001048593422048
30
0
10
-44.07633972167968
20
-8.521642425527201
30
0
10
-43.909747823079421
20
-8.4886532812019446
30
0
0
SPLINE
5
457
100
AcDbEntity
8
0
100
AcDbSpline
70
4
71
3
72
8
73
4
74
0
42
0.000000001
43
0.0000000001
44
0.0000000001
40
0
40
0
40
0
40
0
40
1
40
1
40
1
40
1
41
1
41
1
41
1
41
1
10
-43.909747823079421
20
-8.4886532812019446
30
0
10
-43.800403722127264
20
-8.4669996449053553
30
0
10
-43.604283587137843
20
-8.3755363969703787
30
0
10
-43.473929786682113
20
-8.2853993762235127
30
0
0
SPLINE
5
458
100
AcDbEntity
8
0
100
AcDbSpline
70
4
71
3
72
8
73
4
74
0
42
0.000000001
43
0.0000000001
44
0.0000000001
40
0
40
0
40
0
40
0
40
1
40
1
40
1
40
1
41
1
41
1
41
1
41
1
10
-43.473929786682113
20
-8.2853993762235127
30
0
10
-42.978288205464672
20
-7.9426746158500787
30
0
10
-42.645613098144523
20
-7.3917538870076616
30
0
10
-42.178296661376947
20
-6.1397782632410802
30
0
0
SPLINE
5
459
100
AcDbEntity
8
0
100
AcDbSpline
70
4
71
3
72
8
73
4
74
0
42
0.000000001
43
0.0000000001
44
0.0000000001
40
0
40
0
40
0
40
0
40
1
40
1
40
1
40
1
41
1
41
1
41
1
41
1
10
-42.178296661376947
20
-6.1397782632410802
30
0
10
-41.847010358174629
20
-5.2522320060630907
30
0
10
-41.055949147542307
20
-4.4255332339505626
30
0
10
-40.055008951822906
20
-3.9208104281326399
30
0
0
SPLINE
5
460
100
AcDbEntity
8
0
100
AcDbSpline
70
4
71
3
72
8
73
4
74
0
42
0.000000001
43
0.0000000001
44
0.0000000001
40
0
40
0
40
0
40
0
40
1
40
1
40
1
40
1
41
1
41
1
41
1
41
1
10
-40.055008951822906
20
-3.9208104281326399
30
0
10
-39.758870697021464
20
-3.7714854725897577
30
0
10
-39.502515220642081
20
-3.6265504905283712
30
0
10
-39.485316658020011
20
-3.5987325220008954
30
0
0
SPLINE
5
461
100
AcDbEntity
8
0
100
AcDbSpline
70
4
71
3
72
8
73
4
74
0
42
0.000000001
43
0.0000000001
44
0.0000000001
40
0
40
0
40
0
40
0
40
1
40
1
40
1
40
1
41
1
41
1
41
1
41
1
10
-39.485316658020011
20
-3.5987325220008954
30
0
10
-39.430450820922843
20
-3.5099532692333328
30
0
10
-38.545613034566237
20
-3.3572733828127648
30
0
10
-38.092967859903965
20
-3.3584802596469987
30
0
0
SPLINE
5
462
100
AcDbEntity
8
0
100
AcDbSpline
70
4
71
3
72
8
73
4
74
0
42
0.000000001
43
0.0000000001
44
0.0000000001
40
0
40
0
40
0
40
0
40
1
40
1
40
1
40
1
41
1
41
1
41
1
41
1
10
-38.092967859903965
20
-3.3584802596469987
30
0
10
-37.507530403137196
20
-3.3600414026479193
30
0
10
-36.597774887084938
20
-3.4983096707562873
30
0
10
-36.163063049316392
20
-3.6517944781681164
30
0
0
SPLINE
5
463
100
AcDbEntity
8
0
100
AcDbSpline
70
4
71
3
72
8
73
4
74
0
42
0.000000001
43
0.0000000001
44
0.0000000001
40
0
40
0
40
0
40
0
40
1
40
1
40
1
40
1
41
1
41
1
41
1
41
1
10
-36.163063049316392
20
-3.6517944781681164
30
0
10
-35.685209465026837
20
-3.8205119737684989
30
0
10
-34.897071202596024
20
-4.245461558173127
30
0
10
-34.484992027282701
20
-4.5565844643811655
30
0
0
SPLINE
5
464
100
AcDbEntity
8
0
100
AcDbSpline
70
4
71
3
72
8
73
4
74
0
42
0.000000001
43
0.0000000001
44
0.0000000001
40
0
40
0
40
0
40
0
40
1
40
1
40
1
40
1
41
1
41
1
41
1
41
1
10
-34.484992027282701
20
-4.5565844643811655
30
0
10
-33.610812505086258
20
-5.2165984818041604
30
0
10
-33.013973935445136
20
-6.4808260628283296
30
0
10
-33.090931447346996
20
-7.5095014640391149
30
0
0
SPLINE
5
465
100
AcDbEntity
8
0
100
AcDbSpline
70
4
71
3
72
8
73
4
74
0
42
0.000000001
43
0.0000000001
44
0.0000000001
40
0
40
0
40
0
40
0
40
1
40
1
40
1
40
1
41
1
41
1
41
1
41
1
10
-33.090931447346996
20
-7.5095014640391149
30
0
10
-33.133806737263981
20
-8.0826309471031301
30
0
10
-33.191603597005198
20
-8.1971709518333551
30
0
10
-33.463671938578287
20
-8.2482105124692389
30
0
0
SPLINE
5
466
100
AcDbEntity
8
0
100
AcDbSpline
70
4
71
3
72
8
73
4
74
0
42
0.000000001
43
0.0000000001
44
0.0000000001
40
0
40
0
40
0
40
0
40
1
40
1
40
1
40
1
41
1
41
1
41
1
41
1
10
-33.463671938578287
20
-8.2482105124692389
30
0
10
-33.811825752258287
20
-8.3135246782203787
30
0
10
-34.106446011861152
20
-8.2422308831115849
30
0
10
-34.789971796671537
20
-7.927272616694399
30
0
0
SPLINE
5
467
100
AcDbEntity
8
0
100
AcDbSpline
70
4
71
3
72
8
73
4
74
0
42
0.000000001
43
0.0000000001
44
0.0000000001
40
0
40
0
40
0
40
0
40
1
40
1
40
1
40
1
41
1
41
1
41
1
41
1
10
-34.789971796671537
20
-7.927272616694399
30
0
10
-35.789894612630192
20
-7.4665227203270081
30
0
10
-36.000548744201652
20
-7.4114918618103145
30
0
10
-36.601860555013005
20
-7.4539351690511175
30
0
0
SPLINE
5
468
100
AcDbEntity
8
0
100
AcDbSpline
70
4
71
3
72
8
73
4
74
0
42
0.000000001
43
0.0000000001
44
0.0000000001
40
0
40
0
40
0
40
0
40
1
40
1
40
1
40
1
41
1
41
1
41
1
41
1
10
-36.601860555013005
20
-7.4539351690511175
30
0
10
-36.88475672403969
20
-7.4739032654663209
30
0
10
-37.24972960154215
20
-7.5318777629435338
30
0
10
-37.412897936503086
20
-7.5827674417396658
30
0
0
SPLINE
5
469
100
AcDbEntity
8
0
100
AcDbSpline
70
4
71
3
72
8
73
4
74
0
42
0.000000001
43
0.0000000001
44
0.0000000001
40
0
40
0
40
0
40
0
40
1
40
1
40
1
40
1
41
1
41
1
41
1
41
1
10
-37.412897936503086
20
-7.5827674417396658
30
0
10
-37.891332880655909
20
-7.7319785981079212
30
0
10
-38.444093068440743
20
-8.1290135730008561
30
0
10
-38.701320584615061
20
-8.5082216927111425
30
0
0
SPLINE
5
470
100
AcDbEntity
8
0
100
AcDbSpline
70
4
71
3
72
8
73
4
74
0
42
0.000000001
43
0.0000000001
44
0.0000000001
40
0
40
0
40
0
40
0
40
1
40
1
40
1
40
1
41
1
41
1
41
1
41
1
10
-38.701320584615061
20
-8.5082216927111425
30
0
10
-38.932814852396632
20
-8.849482960373189
30
0
10
-39.4843235015869
20
-9.8929078448514414
30
0
10
-39.4843235015869
20
-9.9896184711357225
30
0
0
SPLINE
5
471
100
AcDbEntity
8
0
100
AcDbSpline
70
4
71
3
72
8
73
4
74
0
42
0.000000001
43
0.0000000001
44
0.0000000001
40
0
40
0
40
0
40
0
40
1
40
1
40
1
40
1
41
1
41
1
41
1
41
1
10
-39.4843235015869
20
-9.9896184711357225
30
0
10
-39.4843235015869
20
-10.0189589767357
30
0
10
-39.259813626607247
20
-10.101002378135945
30
0
10
-38.985411771138502
20
-10.171937365204123
30
0
0
SPLINE
5
472
100
AcDbEntity
8
0
100
AcDbSpline
70
4
71
3
72
8
73
4
74
0
42
0.000000001
43
0.0000000001
44
0.0000000001
40
0
40
0
40
0
40
0
40
1
40
1
40
1
40
1
41
1
41
1
41
1
41
1
10
-38.985411771138502
20
-10.171937365204123
30
0
10
-38.141390291849753
20
-10.390125960975913
30
0
10
-37.547337404886875
20
-10.656532099713909
30
0
10
-37.121402486165351
20
-11.007860178619651
30
0
0
SPLINE
5
473
100
AcDbEntity
8
0
100
AcDbSpline
70
4
71
3
72
8
73
4
74
0
42
0.000000001
43
0.0000000001
44
0.0000000001
40
0
40
0
40
0
40
0
40
1
40
1
40
1
40
1
41
1
41
1
41
1
41
1
10
-37.121402486165351
20
-11.007860178619651
30
0
10
-36.643492380777985
20
-11.402064556747701
30
0
10
-36.583329709370922
20
-11.506190549204774
30
0
10
-36.634876950581855
20
-11.849914521843221
30
0
0
SPLINE
5
474
100
AcDbEntity
8
0
100
AcDbSpline
70
4
71
3
72
8
73
4
74
0
42
0.000000001
43
0.0000000001
44
0.0000000001
40
0
40
0
40
0
40
0
40
1
40
1
40
1
40
1
41
1
41
1
41
1
41
1
10
-36.634876950581855
20
-11.849914521843221
30
0
10
-36.684114901224767
20
-12.1782758582334
30
0
10
-36.956578890482575
20
-12.505879206329611
30
0
10
-37.310723940531396
20
-12.662535503377544
30
0
0
SPLINE
5
475
100
AcDbEntity
8
0
100
AcDbSpline
70
4
71
3
72
8
73
4
74
0
42
0.000000001
43
0.0000000001
44
0.0000000001
40
0
40
0
40
0
40
0
40
1
40
1
40
1
40
1
41
1
41
1
41
1
41
1
10
-37.310723940531396
20
-12.662535503377544
30
0
10
-37.536646842956536
20
-12.762471869458782
30
0
10
-37.657787704467758
20
-12.770510986318218
30
0
10
-38.390963236490876
20
-12.734221413602459
30
0
0
SPLINE
5
476
100
AcDbEntity
8
0
100
AcDbSpline
70
4
71
3
72
8
73
4
74
0
42
0.000000001
43
0.0000000001
44
0.0000000001
40
0
40
0
40
0
40
0
40
1
40
1
40
1
40
1
41
1
41
1
41
1
41
1
10
-38.390963236490876
20
-12.734221413602459
30
0
10
-39.0521389643351
20
-12.701494688659933
30
0
10
-39.318111101786286
20
-12.71359726873043
30
0
10
-39.725232569376615
20
-12.794932137797304
30
0
0
SPLINE
5
477
100
AcDbEntity
8
0
100
AcDbSpline
70
4
71
3
72
8
73
4
74
0
42
0.000000001
43
0.0000000001
44
0.0000000001
40
0
40
0
40
0
40
0
40
1
40
1
40
1
40
1
41
1
41
1
41
1
41
1
10
-39.725232569376615
20
-12.794932137797304
30
0
10
-40.432505289713532
20
-12.936229835818239
30
0
10
-41.70766162872313
20
-13.511735728253949
30
0
10
-42.354069201151525
20
-13.981380632390605
30
0
0
SPLINE
5
478
100
AcDbEntity
8
0
100
AcDbSpline
70
4
71
3
72
8
73
4
74
0
42
0.000000001
43
0.0000000001
44
0.0000000001
40
0
40
0
40
0
40
0
40
1
40
1
40
1
40
1
41
1
41
1
41
1
41
1
10
-42.354069201151525
20
-13.981380632390605
30
0
10
-43.081794484456367
20
-14.510111279159812
30
0
10
-43.683388900756825
20
-14.756699707975018
30
0
10
-44.33449579874673
20
-14.793143704404461
30
0
0
SPLINE
5
479
100
AcDbEntity
8
0
100
AcDbSpline
70
4
71
3
72
8
73
4
74
0
42
0.000000001
43
0.0000000001
44
0.0000000001
40
0
40
0
40
0
40
0
40
1
40
1
40
1
40
1
41
1
41
1
41
1
41
1
10
-44.33449579874673
20
-14.793143704404461
30
0
10
-44.621203104654938
20
-14.80919064965847
30
0
10
-44.956470108032214
20
-14.792886331548321
30
0
10
-45.089835675557445
20
-14.756409028043379
30
0
0
SPLINE
5
480
100
AcDbEntity
8
0
100
AcDbSpline
70
4
71
3
72
8
73
4
74
0
42
0.000000001
43
0.0000000001
44
0.0000000001
40
0
40
0
40
0
40
0
40
1
40
1
40
1
40
1
41
1
41
1
41
1
41
1
10
-45.089835675557445
20
-14.756409028043379
30
0
10
-45.486379623413072
20
-14.647951097160606
30
0
10
-46.196841748555492
20
-14.185597414642599
30
0
10
-46.75496336619058
20
-13.672785531351991
30
0
0
SPLINE
5
481
100
AcDbEntity
8
0
100
AcDbSpline
70
4
71
3
72
8
73
4
74
0
42
0.000000001
43
0.0000000001
44
0.0000000001
40
0
40
0
40
0
40
0
40
1
40
1
40
1
40
1
41
1
41
1
41
1
41
1
10
-46.75496336619058
20
-13.672785531351991
30
0
10
-47.157425880432122
20
-13.302996248871114
30
0
10
-47.321385510762525
20
-13.189449400573995
30
0
10
-47.452902030944813
20
-13.189449400573995
30
0
0
SPLINE
5
482
100
AcDbEntity
8
0
100
AcDbSpline
70
4
71
3
72
8
73
4
74
0
42
0.000000001
43
0.0000000001
44
0.0000000001
40
0
40
0
40
0
40
0
40
1
40
1
40
1
40
1
41
1
41
1
41
1
41
1
10
-47.452902030944813
20
-13.189449400573995
30
0
10
-47.677864074707017
20
-13.189449400573995
30
0
10
-47.714941914876292
20
-13.331765487660991
30
0
10
-47.702830251057932
20
-14.148682072629558
30
0
0
SPLINE
5
483
100
AcDbEntity
8
0
100
AcDbSpline
70
4
71
3
72
8
73
4
74
0
42
0.000000001
43
0.0000000001
44
0.0000000001
40
0
40
0
40
0
40
0
40
1
40
1
40
1
40
1
41
1
41
1
41
1
41
1
10
-47.702830251057932
20
-14.148682072629558
30
0
10
-47.685898145039864
20
-15.290362829834249
30
0
10
-47.881872940063474
20
-15.842694062858849
30
0
10
-48.532697232564281
20
-16.487613919248211
30
0
0
SPLINE
5
484
100
AcDbEntity
8
0
100
AcDbSpline
70
4
71
3
72
8
73
4
74
0
42
0.000000001
43
0.0000000001
44
0.0000000001
40
0
40
0
40
0
40
0
40
1
40
1
40
1
40
1
41
1
41
1
41
1
41
1
10
-48.532697232564281
20
-16.487613919248211
30
0
10
-49.158498827616356
20
-17.107735143969485
30
0
10
-49.794328880310054
20
-17.379321037600466
30
0
10
-50.631204477945957
20
-17.383957786232259
30
0
0
SPLINE
5
485
100
AcDbEntity
8
0
100
AcDbSpline
70
4
71
3
72
8
73
4
74
0
42
0.000000001
43
0.0000000001
44
0.0000000001
40
0
40
0
40
0
40
0
40
1
40
1
40
1
40
1
41
1
41
1
41
1
41
1
10
-50.631204477945957
20
-17.383957786232259
30
0
10
-51.011211967468249
20
-17.386075308789838
30
0
10
-51.0202391942342
20
-17.382290413846601
30
0
10
-51.264878654479972
20
-17.11959650006893
30
0
0
LINE
5
486
100
AcDbEntity
8
0
100
AcDbLine
10
-51.264878654479979
20
-17.11959650006893
30
0
11
-51.513054720560696
21
-16.853099523852293
31
0
0
LINE
5
487
100
AcDbEntity
8
0
100
AcDbLine
10
-51.513054720560696
20
-16.853099523852293
30
0
11
-51.77866350809731
21
-16.948943156868246
31
0
0
SPLINE
5
488
100
AcDbEntity
8
0
100
AcDbSpline
70
4
71
3
72
8
73
4
74
0
42
0.000000001
43
0.0000000001
44
0.0000000001
40
0
40
0
40
0
40
0
40
1
40
1
40
1
40
1
41
1
41
1
41
1
41
1
10
-51.778663508097324
20
-16.948943156868246
30
0
10
-52.111790784200025
20
-17.069151420265463
30
0
10
-53.002539062499991
20
-17.082201738029745
30
0
10
-53.453145440419505
20
-16.973477350542971
30
0
0
SPLINE
5
489
100
AcDbEntity
8
0
100
AcDbSpline
70
4
71
3
72
8
73
4
74
0
42
0.000000001
43
0.0000000001
44
0.0000000001
40
0
40
0
40
0
40
0
40
1
40
1
40
1
40
1
41
1
41
1
41
1
41
1
10
-53.453145440419505
20
-16.973477350542971
30
0
10
-53.634501457214341
20
-16.929719927777874
30
0
10
-53.990439033508295
20
-16.788828979800172
30
0
10
-54.244113794962558
20
-16.660388822227745
30
0
0
SPLINE
5
490
100
AcDbEntity
8
0
100
AcDbSpline
70
4
71
3
72
8
73
4
74
0
42
0.000000001
43
0.0000000001
44
0.0000000001
40
0
40
0
40
0
40
0
40
1
40
1
40
1
40
1
41
1
41
1
41
1
41
1
10
-54.244113794962558
20
-16.660388822227745
30
0
10
-54.981572818756092
20
-16.287001366287498
30
0
10
-55.49656883875528
20
-16.355907649666101
30
0
10
-55.98168538411457
20
-16.892872209221153
30
0
0
SPLINE
5
491
100
AcDbEntity
8
0
100
AcDbSpline
70
4
71
3
72
8
73
4
74
0
42
0.000000001
43
0.0000000001
44
0.0000000001
40
0
40
0
40
0
40
0
40
1
40
1
40
1
40
1
41
1
41
1
41
1
41
1
10
-55.98168538411457
20
-16.892872209221153
30
0
10
-56.208984978993726
20
-17.14446780171993
30
0
10
-56.569347349802648
20
-17.664304450025192
30
0
10
-56.825650342305494
20
-18.11033060041073
30
0
0
SPLINE
5
492
100
AcDbEntity
8
0
100
AcDbSpline
70
4
71
3
72
8
73
4
74
0
42
0.000000001
43
0.0000000001
44
0.0000000001
40
0
40
0
40
0
40
0
40
1
40
1
40
1
40
1
41
1
41
1
41
1
41
1
10
-56.825650342305494
20
-18.11033060041073
30
0
10
-57.030034669240308
20
-18.466003738711304
30
0
10
-57.338752905527741
20
-18.764410911868044
30
0
10
-57.85961904525756
20
-19.109760875374107
30
0
0
SPLINE
5
493
100
AcDbEntity
8
0
100
AcDbSpline
70
4
71
3
72
8
73
4
74
0
42
0.000000001
43
0.0000000001
44
0.0000000001
40
0
40
0
40
0
40
0
40
1
40
1
40
1
40
1
41
1
41
1
41
1
41
1
10
-57.85961904525756
20
-19.109760875374107
30
0
10
-58.704734611511221
20
-19.670094890266686
30
0
10
-59.522558561960849
20
-19.880210052798219
30
0
10
-61.109868812561025
20
-19.944813667605349
30
0
0
LINE
5
494
100
AcDbEntity
8
0
100
AcDbLine
10
-61.109868812561018
20
-19.944813667605349
30
0
11
-62.021994177500389
21
-19.981935917208624
31
0
0
LINE
5
495
100
AcDbEntity
8
0
100
AcDbLine
10
-62.021994177500389
20
-19.981935917208624
30
0
11
-62.31368341445922
21
-20.263088006645468
31
0
0
SPLINE
5
496
100
AcDbEntity
8
0
100
AcDbSpline
70
4
71
3
72
8
73
4
74
0
42
0.000000001
43
0.0000000001
44
0.0000000001
40
0
40
0
40
0
40
0
40
1
40
1
40
1
40
1
41
1
41
1
41
1
41
1
10
-62.31368341445922
20
-20.263088006645468
30
0
10
-62.703287378946932
20
-20.638616199165611
30
0
10
-63.114530849456784
20
-20.943323456118534
30
0
10
-63.960147031148267
20
-21.483023233085898
30
0
0
LINE
5
497
100
AcDbEntity
8
0
100
AcDbLine
10
-63.960147031148267
20
-21.483023233085902
30
0
11
-64.664993381500238
21
-21.932876669238041
31
0
0
LINE
5
498
100
AcDbEntity
8
0
100
AcDbLine
10
-64.664993381500238
20
-21.932876669238041
30
0
11
-64.459482669830308
21
-22.000701986620854
31
0
0
SPLINE
5
499
100
AcDbEntity
8
0
100
AcDbSpline
70
4
71
3
72
8
73
4
74
0
42
0.000000001
43
0.0000000001
44
0.0000000001
40
0
40
0
40
0
40
0
40
1
40
1
40
1
40
1
41
1
41
1
41
1
41
1
10
-64.459482669830322
20
-22.000701986620854
30
0
10
-64.171435006459546
20
-22.095766435931154
30
0
10
-63.782565816243483
20
-22.390192908912926
30
0
10
-63.643229198455806
20
-22.618721837669639
30
0
0
SPLINE
5
500
100
AcDbEntity
8
0
100
AcDbSpline
70
4
71
3
72
8
73
4
74
0
42
0.000000001
43
0.0000000001
44
0.0000000001
40
0
40
0
40
0
40
0
40
1
40
1
40
1
40
1
41
1
41
1
41
1
41
1
10
-63.643229198455806
20
-22.618721837669639
30
0
10
-63.393567434946689
20
-23.028186912208824
30
0
10
-63.547397677103667
20
-23.625461501747399
30
0
10
-63.957086817423495
20
-23.837314688036869
30
0
0
SPLINE
5
501
100
AcDbEntity
8
0
100
AcDbSpline
70
4
71
3
72
8
73
4
74
0
42
0.000000001
43
0.0000000001
44
0.0000000001
40
0
40
0
40
0
40
0
40
1
40
1
40
1
40
1
41
1
41
1
41
1
41
1
10
-63.957086817423495
20
-23.837314688036869
30
0
10
-64.065708255767817
20
-23.893484547605148
30
0
10
-64.222025426228825
20
-23.988787192970541
30
0
10
-64.30446144739787
20
-24.049097222954067
30
0
0
SPLINE
5
502
100
AcDbEntity
8
0
100
AcDbSpline
70
4
71
3
72
8
73
4
74
0
42
0.000000001
43
0.0000000001
44
0.0000000001
40
0
40
0
40
0
40
0
40
1
40
1
40
1
40
1
41
1
41
1
41
1
41
1
10
-64.30446144739787
20
-24.049097222954067
30
0
10
-64.386893431345612
20
-24.109407252937586
30
0
10
-64.831052366892493
20
-24.308476578066774
30
0
10
-65.291477266947425
20
-24.491473725309003
30
0
0
SPLINE
5
503
100
AcDbEntity
8
0
100
AcDbSpline
70
4
71
3
72
8
73
4
74
0
42
0.000000001
43
0.0000000001
44
0.0000000001
40
0
40
0
40
0
40
0
40
1
40
1
40
1
40
1
41
1
41
1
41
1
41
1
10
-65.291477266947425
20
-24.491473725309003
30
0
10
-65.751902167002356
20
-24.674470872551233
30
0
10
-66.251003646850577
20
-24.893029883374798
30
0
10
-66.400590769449863
20
-24.977159518867758
30
0
0
SPLINE
5
504
100
AcDbEntity
8
0
100
AcDbSpline
70
4
71
3
72
8
73
4
74
0
42
0.000000001
43
0.0000000001
44
0.0000000001
40
0
40
0
40
0
40
0
40
1
40
1
40
1
40
1
41
1
41
1
41
1
41
1
10
-66.400590769449863
20
-24.977159518867758
30
0
10
-66.803299554189039
20
-25.203647632271078
30
0
10
-67.227135117848718
20
-25.358993851015995
30
0
10
-67.631801954905185
20
-25.428428001076014
30
0
0
SPLINE
5
505
100
AcDbEntity
8
0
100
AcDbSpline
70
4
71
3
72
8
73
4
74
0
42
0.000000001
43
0.0000000001
44
0.0000000001
40
0
40
0
40
0
40
0
40
1
40
1
40
1
40
1
41
1
41
1
41
1
41
1
10
-67.631801954905185
20
-25.428428001076014
30
0
10
-67.829645983378086
20
-25.462374976148237
30
0
10
-68.099425220489493
20
-25.508302405347454
30
0
10
-68.231321239471427
20
-25.53049097346269
30
0
0
LINE
5
506
100
AcDbEntity
8
0
100
AcDbLine
10
-68.231321239471427
20
-25.53049097346269
30
0
11
-68.471128145853669
21
-25.570832907031008
31
0
0
LINE
5
507
100
AcDbEntity
8
0
100
AcDbLine
10
-68.471128145853669
20
-25.570832907031008
30
0
11
-68.185696601867662
21
-25.768370106687179
31
0
0
SPLINE
5
508
100
AcDbEntity
8
0
100
AcDbSpline
70
4
71
3
72
8
73
4
74
0
42
0.000000001
43
0.0000000001
44
0.0000000001
40
0
40
0
40
0
40
0
40
1
40
1
40
1
40
1
41
1
41
1
41
1
41
1
10
-68.185696601867662
20
-25.768370106687179
30
0
10
-67.729107062021882
20
-26.084355341265631
30
0
10
-67.502691618601474
20
-26.153230336179366
30
0
10
-66.762499396006262
20
-26.201299511263798
30
0
0
SPLINE
5
509
100
AcDbEntity
8
0
100
AcDbSpline
70
4
71
3
72
8
73
4
74
0
42
0.000000001
43
0.0000000001
44
0.0000000001
40
0
40
0
40
0
40
0
40
1
40
1
40
1
40
1
41
1
41
1
41
1
41
1
10
-66.762499396006262
20
-26.201299511263798
30
0
10
-66.244281673431388
20
-26.234953787793746
30
0
10
-65.931950124104816
20
-26.292054226865403
30
0
10
-65.504929192860914
20
-26.431209169695805
30
0
0
SPLINE
5
510
100
AcDbEntity
8
0
100
AcDbSpline
70
4
71
3
72
8
73
4
74
0
42
0.000000001
43
0.0000000001
44
0.0000000001
40
0
40
0
40
0
40
0
40
1
40
1
40
1
40
1
41
1
41
1
41
1
41
1
10
-65.504929192860914
20
-26.431209169695805
30
0
10
-64.694069449106848
20
-26.69544933922095
30
0
10
-64.04359235763549
20
-26.817908353477744
30
0
10
-63.711853885650626
20
-26.768775370587935
30
0
0
SPLINE
5
511
100
AcDbEntity
8
0
100
AcDbSpline
70
4
71
3
72
8
73
4
74
0
42
0.000000001
43
0.0000000001
44
0.0000000001
40
0
40
0
40
0
40
0
40
1
40
1
40
1
40
1
41
1
41
1
41
1
41
1
10
-63.711853885650626
20
-26.768775370587935
30
0
10
-62.616038990020748
20
-26.606485131253827
30
0
10
-61.726530138651519
20
-25.909513380994426
30
0
10
-61.726530138651519
20
-25.21319162335995
30
0
0
SPLINE
5
512
100
AcDbEntity
8
0
100
AcDbSpline
70
4
71
3
72
8
73
4
74
0
42
0.000000001
43
0.0000000001
44
0.0000000001
40
0
40
0
40
0
40
0
40
1
40
1
40
1
40
1
41
1
41
1
41
1
41
1
10
-61.726530138651519
20
-25.21319162335995
30
0
10
-61.726530138651519
20
-24.939114764203655
30
0
10
-61.434840901692702
20
-24.396326512962609
30
0
10
-61.198465633392331
20
-24.230550133059449
30
0
0
SPLINE
5
513
100
AcDbEntity
8
0
100
AcDbSpline
70
4
71
3
72
8
73
4
74
0
42
0.000000001
43
0.0000000001
44
0.0000000001
40
0
40
0
40
0
40
0
40
1
40
1
40
1
40
1
41
1
41
1
41
1
41
1
10
-61.198465633392331
20
-24.230550133059449
30
0
10
-60.924879296620674
20
-24.038675136238368
30
0
10
-60.597868410746251
20
-23.962648203839887
30
0
10
-60.217271486918122
20
-24.002426945040654
30
0
0
SPLINE
5
514
100
AcDbEntity
8
0
100
AcDbSpline
70
4
71
3
72
8
73
4
74
0
42
0.000000001
43
0.0000000001
44
0.0000000001
40
0
40
0
40
0
40
0
40
1
40
1
40
1
40
1
41
1
41
1
41
1
41
1
10
-60.217271486918122
20
-24.002426945040654
30
0
10
-59.486663627624509
20
-24.078790985415409
30
0
10
-59.315243212381993
20
-24.311593312889368
30
0
10
-59.30485140482584
20
-25.241540991137455
30
0
0
SPLINE
5
515
100
AcDbEntity
8
0
100
AcDbSpline
70
4
71
3
72
8
73
4
74
0
42
0.000000001
43
0.0000000001
44
0.0000000001
40
0
40
0
40
0
40
0
40
1
40
1
40
1
40
1
41
1
41
1
41
1
41
1
10
-59.30485140482584
20
-25.241540991137455
30
0
10
-59.2987148284912
20
-25.79010650601986
30
0
10
-59.309086449940985
20
-25.837773977587652
30
0
10
-59.565110874176021
20
-26.440583597491212
30
0
0
SPLINE
5
516
100
AcDbEntity
8
0
100
AcDbSpline
70
4
71
3
72
8
73
4
74
0
42
0.000000001
43
0.0000000001
44
0.0000000001
40
0
40
0
40
0
40
0
40
1
40
1
40
1
40
1
41
1
41
1
41
1
41
1
10
-59.565110874176021
20
-26.440583597491212
30
0
10
-59.815551821390784
20
-27.030205634107219
30
0
10
-59.86655000050861
20
-27.103133999178834
30
0
10
-60.404441102345778
20
-27.640873705218265
30
0
0
SPLINE
5
517
100
AcDbEntity
8
0
100
AcDbSpline
70
4
71
3
72
8
73
4
74
0
42
0.000000001
43
0.0000000001
44
0.0000000001
40
0
40
0
40
0
40
0
40
1
40
1
40
1
40
1
41
1
41
1
41
1
41
1
10
-60.404441102345778
20
-27.640873705218265
30
0
10
-60.915246486663804
20
-28.151537786791749
30
0
10
-61.028954823811844
20
-28.234167594581873
30
0
10
-61.456742827097564
20
-28.405585991213748
30
0
0
SPLINE
5
518
100
AcDbEntity
8
0
100
AcDbSpline
70
4
71
3
72
8
73
4
74
0
42
0.000000001
43
0.0000000001
44
0.0000000001
40
0
40
0
40
0
40
0
40
1
40
1
40
1
40
1
41
1
41
1
41
1
41
1
10
-61.456742827097564
20
-28.405585991213748
30
0
10
-61.720530827840165
20
-28.511286499967206
30
0
10
-61.976825745900463
20
-28.599546212822226
30
0
10
-62.026285743713373
20
-28.601718237866987
30
0
0
SPLINE
5
519
100
AcDbEntity
8
0
100
AcDbSpline
70
4
71
3
72
8
73
4
74
0
42
0.000000001
43
0.0000000001
44
0.0000000001
40
0
40
0
40
0
40
0
40
1
40
1
40
1
40
1
41
1
41
1
41
1
41
1
10
-62.026285743713373
20
-28.601718237866987
30
0
10
-62.075745741526276
20
-28.603835760424566
30
0
10
-61.954342460632319
20
-28.652599337567914
30
0
10
-61.756502469380692
20
-28.7099621960223
30
0
0
SPLINE
5
520
100
AcDbEntity
8
0
100
AcDbSpline
70
4
71
3
72
8
73
4
74
0
42
0.000000001
43
0.0000000001
44
0.0000000001
40
0
40
0
40
0
40
0
40
1
40
1
40
1
40
1
41
1
41
1
41
1
41
1
10
-61.756502469380692
20
-28.7099621960223
30
0
10
-61.148383903503415
20
-28.886283797889977
30
0
10
-60.943910757700593
20
-29.011312503486902
30
0
10
-60.820957183837876
20
-29.282026357322959
30
0
0
SPLINE
5
521
100
AcDbEntity
8
0
100
AcDbSpline
70
4
71
3
72
8
73
4
74
0
42
0.000000001
43
0.0000000001
44
0.0000000001
40
0
40
0
40
0
40
0
40
1
40
1
40
1
40
1
41
1
41
1
41
1
41
1
10
-60.820957183837876
20
-29.282026357322959
30
0
10
-60.687603727976473
20
-29.575637311607629
30
0
10
-60.673861026763909
20
-30.097090867032637
30
0
10
-60.793391036987295
20
-30.328227840731572
30
0
0
SPLINE
5
522
100
AcDbEntity
8
0
100
AcDbSpline
70
4
71
3
72
8
73
4
74
0
42
0.000000001
43
0.0000000001
44
0.0000000001
40
0
40
0
40
0
40
0
40
1
40
1
40
1
40
1
41
1
41
1
41
1
41
1
10
-60.793391036987295
20
-30.328227840731572
30
0
10
-60.864801406860344
20
-30.466325031588504
30
0
10
-61.322561740875237
20
-30.935254338254559
30
0
10
-61.385954189300527
20
-30.935254338254559
30
0
0
SPLINE
5
523
100
AcDbEntity
8
0
100
AcDbSpline
70
4
71
3
72
8
73
4
74
0
42
0.000000001
43
0.0000000001
44
0.0000000001
40
0
40
0
40
0
40
0
40
1
40
1
40
1
40
1
41
1
41
1
41
1
41
1
10
-61.385954189300527
20
-30.935254338254559
30
0
10
-61.39629755020141
20
-30.935254338254559
30
0
10
-61.557362492879221
20
-30.963466440508792
30
0
10
-61.743890190124503
20
-30.997950366010301
30
0
0
SPLINE
5
524
100
AcDbEntity
8
0
100
AcDbSpline
70
4
71
3
72
8
73
4
74
0
42
0.000000001
43
0.0000000001
44
0.0000000001
40
0
40
0
40
0
40
0
40
1
40
1
40
1
40
1
41
1
41
1
41
1
41
1
10
-61.743890190124503
20
-30.997950366010301
30
0
10
-62.130110963185615
20
-31.069344586998255
30
0
10
-62.439890988667798
20
-31.013984190295169
30
0
10
-62.854771995544425
20
-30.799395786593387
30
0
0
LINE
5
525
100
AcDbEntity
8
0
100
AcDbLine
10
-62.854771995544418
20
-30.79939578659339
30
0
11
-63.113711293538401
21
-30.665471063921878
31
0
0
LINE
5
526
100
AcDbEntity
8
0
100
AcDbLine
10
-63.113711293538401
20
-30.665471063921878
30
0
11
-63.334385808308909
21
-30.913970107704429
31
0
0
SPLINE
5
527
100
AcDbEntity
8
0
100
AcDbSpline
70
4
71
3
72
8
73
4
74
0
42
0.000000001
43
0.0000000001
44
0.0000000001
40
0
40
0
40
0
40
0
40
1
40
1
40
1
40
1
41
1
41
1
41
1
41
1
10
-63.334385808308909
20
-30.913970107704429
30
0
10
-63.586441644032789
20
-31.197806949287681
30
0
10
-64.21783075332641
20
-31.714631830523441
30
0
10
-64.312527815500886
20
-31.714631830523441
30
0
0
SPLINE
5
528
100
AcDbEntity
8
0
100
AcDbSpline
70
4
71
3
72
8
73
4
74
0
42
0.000000001
43
0.0000000001
44
0.0000000001
40
0
40
0
40
0
40
0
40
1
40
1
40
1
40
1
41
1
41
1
41
1
41
1
10
-64.312527815500886
20
-31.714631830523441
30
0
10
-64.347369035085038
20
-31.714631830523441
30
0
10
-64.45072593688964
20
-31.767927188545496
30
0
10
-64.542205333709703
20
-31.83306371656063
30
0
0
SPLINE
5
529
100
AcDbEntity
8
0
100
AcDbSpline
70
4
71
3
72
8
73
4
74
0
42
0.000000001
43
0.0000000001
44
0.0000000001
40
0
40
0
40
0
40
0
40
1
40
1
40
1
40
1
41
1
41
1
41
1
41
1
10
-64.542205333709703
20
-31.83306371656063
30
0
10
-64.87431119283039
20
-32.069547989835371
30
0
10
-65.792908223470036
20
-32.327512298891975
30
0
10
-66.466579151153553
20
-32.373478081693278
30
0
0
SPLINE
5
530
100
AcDbEntity
8
0
100
AcDbSpline
70
4
71
3
72
8
73
4
74
0
42
0.000000001
43
0.0000000001
44
0.0000000001
40
0
40
0
40
0
40
0
40
1
40
1
40
1
40
1
41
1
41
1
41
1
41
1
10
-66.466579151153553
20
-32.373478081693278
30
0
10
-66.875925127665198
20
-32.401407578458418
30
0
10
-67.151570447285962
20
-32.449997555087037
30
0
10
-67.245952606201172
20
-32.510864721606211
30
0
0
SPLINE
5
531
100
AcDbEntity
8
0
100
AcDbSpline
70
4
71
3
72
8
73
4
74
0
42
0.000000001
43
0.0000000001
44
0.0000000001
40
0
40
0
40
0
40
0
40
1
40
1
40
1
40
1
41
1
41
1
41
1
41
1
10
-67.245952606201172
20
-32.510864721606211
30
0
10
-67.326273123423249
20
-32.562662270536052
30
0
10
-67.499897861480704
20
-32.622080074618289
30
0
10
-67.631793880462638
20
-32.642904061943327
30
0
0
SPLINE
5
532
100
AcDbEntity
8
0
100
AcDbSpline
70
4
71
3
72
8
73
4
74
0
42
0.000000001
43
0.0000000001
44
0.0000000001
40
0
40
0
40
0
40
0
40
1
40
1
40
1
40
1
41
1
41
1
41
1
41
1
10
-67.631793880462638
20
-32.642904061943327
30
0
10
-68.193347136179597
20
-32.731573552757531
30
0
10
-68.183573023478189
20
-32.721660155922201
30
0
10
-67.893708610534659
20
-32.908442198107664
30
0
0
SPLINE
5
533
100
AcDbEntity
8
0
100
AcDbSpline
70
4
71
3
72
8
73
4
74
0
42
0.000000001
43
0.0000000001
44
0.0000000001
40
0
40
0
40
0
40
0
40
1
40
1
40
1
40
1
41
1
41
1
41
1
41
1
10
-67.893708610534659
20
-32.908442198107664
30
0
10
-67.541880925496415
20
-33.135152358680998
30
0
10
-67.193226496378571
20
-33.473945874840048
30
0
10
-66.901177946726477
20
-33.872902062406169
30
0
0
SPLINE
5
534
100
AcDbEntity
8
0
100
AcDbSpline
70
4
71
3
72
8
73
4
74
0
42
0.000000001
43
0.0000000001
44
0.0000000001
40
0
40
0
40
0
40
0
40
1
40
1
40
1
40
1
41
1
41
1
41
1
41
1
10
-66.901177946726477
20
-33.872902062406169
30
0
10
-65.953565406799314
20
-35.167404765754966
30
0
10
-65.059506607055653
20
-35.954251117378504
30
0
10
-63.847020053863517
20
-36.56081939028703
30
0
0
SPLINE
5
535
100
AcDbEntity
8
0
100
AcDbSpline
70
4
71
3
72
8
73
4
74
0
42
0.000000001
43
0.0000000001
44
0.0000000001
40
0
40
0
40
0
40
0
40
1
40
1
40
1
40
1
41
1
41
1
41
1
41
1
10
-63.847020053863517
20
-36.56081939028703
30
0
10
-63.328539911905921
20
-36.820198745399743
30
0
10
-62.961225446065257
20
-37.17113824175798
30
0
10
-62.895632712046293
20
-37.469795722633627
30
0
0
SPLINE
5
536
100
AcDbEntity
8
0
100
AcDbSpline
70
4
71
3
72
8
73
4
74
0
42
0.000000001
43
0.0000000001
44
0.0000000001
40
0
40
0
40
0
40
0
40
1
40
1
40
1
40
1
41
1
41
1
41
1
41
1
10
-62.895632712046293
20
-37.469795722633627
30
0
10
-62.874332332611075
20
-37.566729405393232
30
0
10
-62.905766137440992
20
-37.773140417406985
30
0
10
-62.971471913655591
20
-37.96772640831275
30
0
0
LINE
5
537
100
AcDbEntity
8
0
100
AcDbLine
10
-62.971471913655577
20
-37.96772640831275
30
0
11
-63.083678404490144
21
-38.300086612373619
31
0
0
LINE
5
538
100
AcDbEntity
8
0
100
AcDbLine
10
-63.083678404490144
20
-38.300086612373619
30
0
11
-62.899702231089272
21
-38.333494618405929
31
0
0
SPLINE
5
539
100
AcDbEntity
8
0
100
AcDbSpline
70
4
71
3
72
8
73
4
74
0
42
0.000000001
43
0.0000000001
44
0.0000000001
40
0
40
0
40
0
40
0
40
1
40
1
40
1
40
1
41
1
41
1
41
1
41
1
10
-62.899702231089265
20
-38.333494618405929
30
0
10
-62.548564910888665
20
-38.397258491188317
30
0
10
-61.989127159118638
20
-38.386123834917974
30
0
10
-61.760999933878573
20
-38.310845807065597
30
0
0
LINE
5
540
100
AcDbEntity
8
0
100
AcDbLine
10
-61.760999933878566
20
-38.310845807065604
30
0
11
-61.531649430592843
21
-38.235151945422125
31
0
0
LINE
5
541
100
AcDbEntity
8
0
100
AcDbLine
10
-61.531649430592843
20
-38.235151945422125
30
0
11
-61.567201201120994
21
-37.934968394905361
31
0
0
SPLINE
5
542
100
AcDbEntity
8
0
100
AcDbSpline
70
4
71
3
72
8
73
4
74
0
42
0.000000001
43
0.0000000001
44
0.0000000001
40
0
40
0
40
0
40
0
40
1
40
1
40
1
40
1
41
1
41
1
41
1
41
1
10
-61.567201201121009
20
-37.934968394905361
30
0
10
-61.587149111429838
20
-37.766527448962165
30
0
10
-61.575190862019852
20
-37.583298161496749
30
0
10
-61.539966106414788
20
-37.517463194201419
30
0
0
SPLINE
5
543
100
AcDbEntity
8
0
100
AcDbSpline
70
4
71
3
72
8
73
4
74
0
42
0.000000001
43
0.0000000001
44
0.0000000001
40
0
40
0
40
0
40
0
40
1
40
1
40
1
40
1
41
1
41
1
41
1
41
1
10
-61.539966106414788
20
-37.517463194201419
30
0
10
-61.460178502400709
20
-37.368380724261236
30
0
10
-60.913494332631416
20
-37.111355069150555
30
0
10
-60.677357260386138
20
-37.111904131243655
30
0
0
SPLINE
5
544
100
AcDbEntity
8
0
100
AcDbSpline
70
4
71
3
72
8
73
4
74
0
42
0.000000001
43
0.0000000001
44
0.0000000001
40
0
40
0
40
0
40
0
40
1
40
1
40
1
40
1
41
1
41
1
41
1
41
1
10
-60.677357260386138
20
-37.111904131243655
30
0
10
-60.405418109893787
20
-37.112433007230393
30
0
10
-59.861539808909086
20
-37.412495441108973
30
0
10
-59.699291960398348
20
-37.651325339943199
30
0
0
SPLINE
5
545
100
AcDbEntity
8
0
100
AcDbSpline
70
4
71
3
72
8
73
4
74
0
42
0.000000001
43
0.0000000001
44
0.0000000001
40
0
40
0
40
0
40
0
40
1
40
1
40
1
40
1
41
1
41
1
41
1
41
1
10
-59.699291960398348
20
-37.651325339943199
30
0
10
-59.576031557718906
20
-37.832762101163496
30
0
10
-59.562660280863433
20
-37.90421688047055
30
0
10
-59.595870463053373
20
-38.203835220009118
30
0
0
SPLINE
5
546
100
AcDbEntity
8
0
100
AcDbSpline
70
4
71
3
72
8
73
4
74
0
42
0.000000001
43
0.0000000001
44
0.0000000001
40
0
40
0
40
0
40
0
40
1
40
1
40
1
40
1
41
1
41
1
41
1
41
1
10
-59.595870463053373
20
-38.203835220009118
30
0
10
-59.649230416615794
20
-38.685261745125089
30
0
10
-59.72682177225748
20
-38.884038371712002
30
0
10
-60.028329531351716
20
-39.311781965563725
30
0
0
SPLINE
5
547
100
AcDbEntity
8
0
100
AcDbSpline
70
4
71
3
72
8
73
4
74
0
42
0.000000001
43
0.0000000001
44
0.0000000001
40
0
40
0
40
0
40
0
40
1
40
1
40
1
40
1
41
1
41
1
41
1
41
1
10
-60.028329531351716
20
-39.311781965563725
30
0
10
-60.449060471852611
20
-39.908664944638844
30
0
10
-61.309154129028308
20
-40.45449726071957
30
0
10
-62.042612266540516
20
-40.59008329994483
30
0
0
SPLINE
5
548
100
AcDbEntity
8
0
100
AcDbSpline
70
4
71
3
72
8
73
4
74
0
42
0.000000001
43
0.0000000001
44
0.0000000001
40
0
40
0
40
0
40
0
40
1
40
1
40
1
40
1
41
1
41
1
41
1
41
1
10
-62.042612266540516
20
-40.59008329994483
30
0
10
-62.391953023274731
20
-40.654662691424328
30
0
10
-62.637662347157786
20
-40.628719507525389
30
0
10
-63.5671396891276
20
-40.4291233250201
30
0
0
LINE
5
549
100
AcDbEntity
8
0
100
AcDbLine
10
-63.5671396891276
20
-40.4291233250201
30
0
11
-64.058836905161542
21
-40.323533839851642
31
0
0
LINE
5
550
100
AcDbEntity
8
0
100
AcDbLine
10
-64.058836905161542
20
-40.323533839851642
30
0
11
-64.521732584635402
21
-40.486714286476406
31
0
0
SPLINE
5
551
100
AcDbEntity
8
0
100
AcDbSpline
70
4
71
3
72
8
73
4
74
0
42
0.000000001
43
0.0000000001
44
0.0000000001
40
0
40
0
40
0
40
0
40
1
40
1
40
1
40
1
41
1
41
1
41
1
41
1
10
-64.521732584635402
20
-40.486714286476406
30
0
10
-64.776323795318589
20
-40.576461715370449
30
0
10
-65.10413001378376
20
-40.729048493375409
30
0
10
-65.250180530548093
20
-40.825792426735191
30
0
0
SPLINE
5
552
100
AcDbEntity
8
0
100
AcDbSpline
70
4
71
3
72
8
73
4
74
0
42
0.000000001
43
0.0000000001
44
0.0000000001
40
0
40
0
40
0
40
0
40
1
40
1
40
1
40
1
41
1
41
1
41
1
41
1
10
-65.250180530548093
20
-40.825792426735191
30
0
10
-65.396235084533686
20
-40.9225323228737
30
0
10
-65.635965283711741
20
-41.01971631335222
30
0
10
-65.78291206359863
20
-41.041751467059086
30
0
0
SPLINE
5
553
100
AcDbEntity
8
0
100
AcDbSpline
70
4
71
3
72
8
73
4
74
0
42
0.000000001
43
0.0000000001
44
0.0000000001
40
0
40
0
40
0
40
0
40
1
40
1
40
1
40
1
41
1
41
1
41
1
41
1
10
-65.78291206359863
20
-41.041751467059086
30
0
10
-66.257838662465403
20
-41.112972087532313
30
0
10
-67.000687376658107
20
-41.035958054532635
30
0
10
-67.477382278442377
20
-40.866063708931236
30
0
0
SPLINE
5
554
100
AcDbEntity
8
0
100
AcDbSpline
70
4
71
3
72
8
73
4
74
0
42
0.000000001
43
0.0000000001
44
0.0000000001
40
0
40
0
40
0
40
0
40
1
40
1
40
1
40
1
41
1
41
1
41
1
41
1
10
-67.477382278442377
20
-40.866063708931236
30
0
10
-67.722187264760322
20
-40.778819357226325
30
0
10
-67.943455251057941
20
-40.707437247902185
30
0
10
-67.969087568918852
20
-40.707437247902185
30
0
0
SPLINE
5
555
100
AcDbEntity
8
0
100
AcDbSpline
70
4
71
3
72
8
73
4
74
0
42
0.000000001
43
0.0000000001
44
0.0000000001
40
0
40
0
40
0
40
0
40
1
40
1
40
1
40
1
41
1
41
1
41
1
41
1
10
-67.969087568918852
20
-40.707437247902185
30
0
10
-68.044236405690498
20
-40.707437247902185
30
0
10
-67.174639129638663
20
-41.544381478299726
30
0
10
-66.912369124094639
20
-41.724473844836183
30
0
0
SPLINE
5
556
100
AcDbEntity
8
0
100
AcDbSpline
70
4
71
3
72
8
73
4
74
0
42
0.000000001
43
0.0000000001
44
0.0000000001
40
0
40
0
40
0
40
0
40
1
40
1
40
1
40
1
41
1
41
1
41
1
41
1
10
-66.912369124094639
20
-41.724473844836183
30
0
10
-66.316386445363349
20
-42.133722928037272
30
0
10
-65.684024365742999
20
-42.125834197670251
30
0
10
-64.358479468027738
20
-41.692616131772631
30
0
0
SPLINE
5
557
100
AcDbEntity
8
0
100
AcDbSpline
70
4
71
3
72
8
73
4
74
0
42
0.000000001
43
0.0000000001
44
0.0000000001
40
0
40
0
40
0
40
0
40
1
40
1
40
1
40
1
41
1
41
1
41
1
41
1
10
-64.358479468027738
20
-41.692616131772631
30
0
10
-63.323012955983472
20
-41.354200095802575
30
0
10
-62.786825561523429
20
-41.298599484433758
30
0
10
-62.018958187103266
20
-41.449999319384531
30
0
0
SPLINE
5
558
100
AcDbEntity
8
0
100
AcDbSpline
70
4
71
3
72
8
73
4
74
0
42
0.000000001
43
0.0000000001
44
0.0000000001
40
0
40
0
40
0
40
0
40
1
40
1
40
1
40
1
41
1
41
1
41
1
41
1
10
-62.018958187103266
20
-41.449999319384531
30
0
10
-61.742711321512843
20
-41.504465471575685
30
0
10
-61.327838389078764
20
-41.573877416918705
30
0
10
-61.097026411692291
20
-41.604241358111338
30
0
0
LINE
5
559
100
AcDbEntity
8
0
100
AcDbLine
10
-61.097026411692283
20
-41.604241358111345
30
0
11
-60.677361297607405
21
-41.659446321795421
31
0
0
LINE
5
560
100
AcDbEntity
8
0
100
AcDbLine
10
-60.677361297607405
20
-41.659446321795421
30
0
11
-60.12044277191162
21
-41.389493484169279
31
0
0
SPLINE
5
561
100
AcDbEntity
8
0
100
AcDbSpline
70
4
71
3
72
8
73
4
74
0
42
0.000000001
43
0.0000000001
44
0.0000000001
40
0
40
0
40
0
40
0
40
1
40
1
40
1
40
1
41
1
41
1
41
1
41
1
10
-60.120442771911613
20
-41.389493484169279
30
0
10
-59.509025796254463
20
-41.093121070534025
30
0
10
-59.20853945414224
20
-40.785121459633146
30
0
10
-59.20853945414224
20
-40.454796015093763
30
0
0
SPLINE
5
562
100
AcDbEntity
8
0
100
AcDbSpline
70
4
71
3
72
8
73
4
74
0
42
0.000000001
43
0.0000000001
44
0.0000000001
40
0
40
0
40
0
40
0
40
1
40
1
40
1
40
1
41
1
41
1
41
1
41
1
10
-59.20853945414224
20
-40.454796015093763
30
0
10
-59.20853945414224
20
-40.202905705442063
30
0
10
-58.949143950144446
20
-39.672923520078292
30
0
10
-58.739527384440095
20
-39.496545397112797
30
0
0
SPLINE
5
563
100
AcDbEntity
8
0
100
AcDbSpline
70
4
71
3
72
8
73
4
74
0
42
0.000000001
43
0.0000000001
44
0.0000000001
40
0
40
0
40
0
40
0
40
1
40
1
40
1
40
1
41
1
41
1
41
1
41
1
10
-58.739527384440095
20
-39.496545397112797
30
0
10
-58.524012438456204
20
-39.315201491981774
30
0
10
-57.957497437794991
20
-39.229543768237065
30
0
10
-57.603711700439447
20
-39.324806041389735
30
0
0
SPLINE
5
564
100
AcDbEntity
8
0
100
AcDbSpline
70
4
71
3
72
8
73
4
74
0
42
0.000000001
43
0.0000000001
44
0.0000000001
40
0
40
0
40
0
40
0
40
1
40
1
40
1
40
1
41
1
41
1
41
1
41
1
10
-57.603711700439447
20
-39.324806041389735
30
0
10
-57.162980365753164
20
-39.443484197924562
30
0
10
-56.870411014556872
20
-39.934967441231045
30
0
10
-56.870411014556872
20
-40.556659145027432
30
0
0
SPLINE
5
565
100
AcDbEntity
8
0
100
AcDbSpline
70
4
71
3
72
8
73
4
74
0
42
0.000000001
43
0.0000000001
44
0.0000000001
40
0
40
0
40
0
40
0
40
1
40
1
40
1
40
1
41
1
41
1
41
1
41
1
10
-56.870411014556872
20
-40.556659145027432
30
0
10
-56.870411014556872
20
-40.90695268598202
30
0
10
-57.0809359550476
20
-41.366994050016039
30
0
10
-57.460681025187164
20
-41.846531155576336
30
0
0
LINE
5
566
100
AcDbEntity
8
0
100
AcDbLine
10
-57.460681025187164
20
-41.846531155576336
30
0
11
-57.674322700500475
21
-42.116314429909025
31
0
0
LINE
5
567
100
AcDbEntity
8
0
100
AcDbLine
10
-57.674322700500475
20
-42.116314429909025
30
0
11
-57.46721324920653
21
-41.929697913795742
31
0
0
SPLINE
5
568
100
AcDbEntity
8
0
100
AcDbSpline
70
4
71
3
72
8
73
4
74
0
42
0.000000001
43
0.0000000001
44
0.0000000001
40
0
40
0
40
0
40
0
40
1
40
1
40
1
40
1
41
1
41
1
41
1
41
1
10
-57.46721324920653
20
-41.929697913795742
30
0
10
-57.181373945871982
20
-41.672151457140878
30
0
10
-56.801467386881505
20
-41.426866041491465
30
0
10
-56.68840096791584
20
-41.426866041491465
30
0
0
SPLINE
5
569
100
AcDbEntity
8
0
100
AcDbSpline
70
4
71
3
72
8
73
4
74
0
42
0.000000001
43
0.0000000001
44
0.0000000001
40
0
40
0
40
0
40
0
40
1
40
1
40
1
40
1
41
1
41
1
41
1
41
1
10
-56.68840096791584
20
-41.426866041491465
30
0
10
-56.63657515843709
20
-41.426866041491465
30
0
10
-56.501804637908926
20
-41.331567433347338
30
0
10
-56.388911819458002
20
-41.215089562406177
30
0
0
SPLINE
5
570
100
AcDbEntity
8
0
100
AcDbSpline
70
4
71
3
72
8
73
4
74
0
42
0.000000001
43
0.0000000001
44
0.0000000001
40
0
40
0
40
0
40
0
40
1
40
1
40
1
40
1
41
1
41
1
41
1
41
1
10
-56.388911819458002
20
-41.215089562406177
30
0
10
-56.118123277028396
20
-40.935701738665529
30
0
10
-55.411863899230944
20
-40.455659980446129
30
0
10
-55.064792060852035
20
-40.315083935727706
30
0
0
LINE
5
571
100
AcDbEntity
8
0
100
AcDbLine
10
-55.064792060852042
20
-40.315083935727706
30
0
11
-54.787947686513256
21
-40.20295011487606
31
0
0
LINE
5
572
100
AcDbEntity
8
0
100
AcDbLine
10
-54.787947686513256
20
-40.20295011487606
30
0
11
-54.752953052520745
21
-39.749154332151051
31
0
0
SPLINE
5
573
100
AcDbEntity
8
0
100
AcDbSpline
70
4
71
3
72
8
73
4
74
0
42
0.000000001
43
0.0000000001
44
0.0000000001
40
0
40
0
40
0
40
0
40
1
40
1
40
1
40
1
41
1
41
1
41
1
41
1
10
-53.585784308115628
20
-37.038668937355311
30
0
10
-53.226285902659086
20
-36.713305237760181
30
0
10
-52.46696128845214
20
-35.788595854113531
30
0
10
-52.264526939392084
20
-35.429634399086268
30
0
0
SPLINE
5
574
100
AcDbEntity
8
0
100
AcDbSpline
70
4
71
3
72
8
73
4
74
0
42
0.000000001
43
0.0000000001
44
0.0000000001
40
0
40
0
40
0
40
0
40
1
40
1
40
1
40
1
41
1
41
1
41
1
41
1
10
-54.752953052520745
20
-39.749154332151051
30
0
10
-54.677840550740548
20
-38.7751020301084
30
0
10
-54.149994055430085
20
-37.54930475837989
30
0
10
-53.585784308115628
20
-37.038668937355311
30
0
0
SPLINE
5
575
100
AcDbEntity
8
0
100
AcDbSpline
70
4
71
3
72
8
73
4
74
0
42
0.000000001
43
0.0000000001
44
0.0000000001
40
0
40
0
40
0
40
0
40
1
40
1
40
1
40
1
41
1
41
1
41
1
41
1
10
-49.832682482401516
20
-26.631925681104292
30
0
10
-49.730153210957837
20
-26.721634756396245
30
0
10
-49.641051737467443
20
-26.79582677172624
30
0
10
-49.634681002298976
20
-26.796793686221072
30
0
0
SPLINE
5
576
100
AcDbEntity
8
0
100
AcDbSpline
70
4
71
3
72
8
73
4
74
0
42
0.000000001
43
0.0000000001
44
0.0000000001
40
0
40
0
40
0
40
0
40
1
40
1
40
1
40
1
41
1
41
1
41
1
41
1
10
-49.634681002298976
20
-26.796793686221072
30
0
10
-49.628302192687983
20
-26.797851438194545
30
0
10
-49.703192647298167
20
-26.604311087598433
30
0
10
-49.801095263163234
20
-26.366906327873497
30
0
0
SPLINE
5
577
100
AcDbEntity
8
0
100
AcDbSpline
70
4
71
3
72
8
73
4
74
0
42
0.000000001
43
0.0000000001
44
0.0000000001
40
0
40
0
40
0
40
0
40
1
40
1
40
1
40
1
41
1
41
1
41
1
41
1
10
-49.801095263163234
20
-26.366906327873497
30
0
10
-50.117879867553697
20
-25.598699826866419
30
0
10
-50.605059432983388
20
-24.820133816073366
30
0
10
-50.768970616658521
20
-24.820133816073366
30
0
0
SPLINE
5
578
100
AcDbEntity
8
0
100
AcDbSpline
70
4
71
3
72
8
73
4
74
0
42
0.000000001
43
0.0000000001
44
0.0000000001
40
0
40
0
40
0
40
0
40
1
40
1
40
1
40
1
41
1
41
1
41
1
41
1
10
-50.768970616658521
20
-24.820133816073366
30
0
10
-50.876942062377921
20
-24.820133816073366
30
0
10
-50.764521598815904
20
-25.485029843320479
30
0
10
-50.598930931091303
20
-25.82590858426693
30
0
0
SPLINE
5
579
100
AcDbEntity
8
0
100
AcDbSpline
70
4
71
3
72
8
73
4
74
0
42
0.000000001
43
0.0000000001
44
0.0000000001
40
0
40
0
40
0
40
0
40
1
40
1
40
1
40
1
41
1
41
1
41
1
41
1
10
-50.232173601786286
20
-26.305524415642054
30
0
10
-50.11497306823729
20
-26.395334421465822
30
0
10
-49.935203679402662
20
-26.542212568591065
30
0
10
-49.832682482401516
20
-26.631925681104292
30
0
0
SPLINE
5
580
100
AcDbEntity
8
0
100
AcDbSpline
70
4
71
3
72
8
73
4
74
0
42
0.000000001
43
0.0000000001
44
0.0000000001
40
0
40
0
40
0
40
0
40
1
40
1
40
1
40
1
41
1
41
1
41
1
41
1
10
-50.598930931091303
20
-25.82590858426693
30
0
10
-50.514415740966783
20
-25.999888597796389
30
0
10
-50.349374135335275
20
-26.215716428428916
30
0
10
-50.232173601786286
20
-26.305524415642054
30
0
0
LINE
5
581
100
AcDbEntity
8
0
100
AcDbLine
10
-23.000000342726707
20
-98.852902971575688
30
0
11
-23.000000342726707
21
-102.8529029715757
31
0
0
LINE
5
582
100
AcDbEntity
8
0
100
AcDbLine
10
-23.000000342726707
20
-102.8529029715757
30
0
11
-82.529875151316332
21
-102.8529029715757
31
0
0
LINE
5
583
100
AcDbEntity
8
0
100
AcDbLine
10
-82.529875151316332
20
-102.8529029715757
30
0
11
-82.529875151316332
21
-98.852902971575688
31
0
0
LINE
5
584
100
AcDbEntity
8
0
100
AcDbLine
10
-78.087167101288458
20
-98.852901797605867
30
0
11
-72.815370603017925
21
-98.852899412902886
31
0
0
SPLINE
5
585
100
AcDbEntity
8
0
100
AcDbSpline
70
4
71
3
72
8
73
4
74
0
42
0.000000001
43
0.0000000001
44
0.0000000001
40
0
40
0
40
0
40
0
40
0.044107941348360019
40
0.044107941348360019
40
0.044107941348360019
40
0.044107941348360019
41
1
41
1
41
1
41
1
10
-77.733712800343824
20
-98.833055991798688
30
0
10
-77.854675292699227
20
-98.839967025075339
30
0
10
-77.972450972921791
20
-98.846582118146173
30
0
10
-78.087167101288458
20
-98.852901797605867
30
0
0
SPLINE
5
586
100
AcDbEntity
8
0
100
AcDbSpline
70
4
71
3
72
8
73
4
74
0
42
0.000000001
43
0.0000000001
44
0.0000000001
40
0.44432248097582033
40
0.44432248097582033
40
0.44432248097582033
40
0.44432248097582033
40
1
40
1
40
1
40
1
41
1
41
1
41
1
41
1
10
-72.815370603017925
20
-98.852899412902886
30
0
10
-72.859441446612024
20
-98.754560764899566
30
0
10
-72.876896401991345
20
-98.611009328960819
30
0
10
-72.875675996144608
20
-98.40023357358578
30
0
0
SPLINE
5
587
100
AcDbEntity
8
0
100
AcDbSpline
70
4
71
3
72
8
73
4
74
0
42
0.000000001
43
0.0000000001
44
0.0000000001
40
0
40
0
40
0
40
0
40
0.59993903579170449
40
0.59993903579170449
40
0.59993903579170449
40
0.59993903579170449
41
1
41
1
41
1
41
1
10
-66.3015456199646
20
-97.887659886350278
30
0
10
-66.629648742163724
20
-98.349837614377819
30
0
10
-66.883361641701896
20
-98.657297512823703
30
0
10
-67.105512831938569
20
-98.852902966007605
30
0
0
SPLINE
5
588
100
AcDbEntity
8
0
100
AcDbSpline
70
4
71
3
72
8
73
4
74
0
42
0.000000001
43
0.0000000001
44
0.0000000001
40
0
40
0
40
0
40
0
40
0.0054351679656727148
40
0.0054351679656727148
40
0.0054351679656727148
40
0.0054351679656727148
41
1
41
1
41
1
41
1
10
-56.750436909993482
20
-98.851691805193852
30
0
10
-56.764962282209162
20
-98.852099110709389
30
0
10
-56.77944798038137
20
-98.852502832110446
30
0
10
-56.79389404462448
20
-98.852902968000777
30
0
0
SPLINE
5
589
100
AcDbEntity
8
0
100
AcDbSpline
70
4
71
3
72
8
73
4
74
0
42
0.000000001
43
0.0000000001
44
0.0000000001
40
0.60344971129473268
40
0.60344971129473268
40
0.60344971129473268
40
0.60344971129473268
40
1
40
1
40
1
40
1
41
1
41
1
41
1
41
1
10
-60.17627658244129
20
-98.852902639529248
30
0
10
-60.629365280032879
20
-98.82329746553421
30
0
10
-60.894970369251169
20
-98.773788216572683
30
0
10
-60.988671429951971
20
-98.703832613299326
30
0
0
LINE
5
590
100
AcDbEntity
8
0
100
AcDbLine
10
-67.105512831938569
20
-98.852902966007605
30
0
11
-60.17627658244129
21
-98.852902639529248
31
0
0
LINE
5
591
100
AcDbEntity
8
0
100
AcDbLine
10
-54.190600426997825
20
-98.852902968276169
30
0
11
-29.865280304182885
21
-98.85290294947076
31
0
0
LINE
5
592
100
AcDbEntity
8
0
100
AcDbLine
10
-54.190600426991779
20
-98.795719769467979
30
0
11
-54.190600426997825
21
-98.852902968276169
31
0
0
SPLINE
5
593
100
AcDbEntity
8
0
100
AcDbSpline
70
4
71
3
72
8
73
4
74
0
42
0.000000001
43
0.0000000001
44
0.0000000001
40
0
40
0
40
0
40
0
40
0.37160298425576033
40
0.37160298425576033
40
0.37160298425576033
40
0.37160298425576033
41
1
41
1
41
1
41
1
10
-22.667803128560369
20
-98.599664230018902
30
0
10
-22.820689940413811
20
-98.75652368658902
30
0
10
-22.918876462596117
20
-98.856352524589894
30
0
10
-23.000000342773973
20
-98.921562875788567
30
0
0
SPLINE
5
594
100
AcDbEntity
8
0
100
AcDbSpline
70
4
71
3
72
8
73
4
74
0
42
0.000000001
43
0.0000000001
44
0.0000000001
40
0.64267273447415452
40
0.64267273447415452
40
0.64267273447415452
40
0.64267273447415452
40
1
40
1
40
1
40
1
41
1
41
1
41
1
41
1
10
-29.865280304182885
20
-98.85290294947076
30
0
10
-29.970689511447492
20
-98.816785219830834
30
0
10
-29.977861291052736
20
-98.768727236970278
30
0
10
-30.048223114013659
20
-98.685390586525244
30
0
0
ENDSEC
0
SECTION
2
OBJECTS
0
DICTIONARY
5
C
100
AcDbDictionary
3
ACAD_GROUP
350
D
3
ACAD_MLINESTYLE
350
17
0
DICTIONARY
5
D
100
AcDbDictionary
0
DICTIONARY
5
1A
330
C
100
AcDbDictionary
0
DICTIONARY
5
17
100
AcDbDictionary
0
ENDSEC
0
EOF
