<?xml version="1.0" encoding="UTF-8" standalone="no"?>
<!-- Created with Inkscape (http://www.inkscape.org/) -->

<svg
   width="56.765705mm"
   height="39.963078mm"
   viewBox="0 0 56.765705 39.963078"
   version="1.1"
   id="svg1"
   xml:space="preserve"
   inkscape:export-filename="tree1-1.pdf"
   inkscape:export-xdpi="96"
   inkscape:export-ydpi="96"
   xmlns:inkscape="http://www.inkscape.org/namespaces/inkscape"
   xmlns:sodipodi="http://sodipodi.sourceforge.net/DTD/sodipodi-0.dtd"
   xmlns="http://www.w3.org/2000/svg"
   xmlns:svg="http://www.w3.org/2000/svg"><sodipodi:namedview
     id="namedview1"
     pagecolor="#ffffff"
     bordercolor="#000000"
     borderopacity="0.25"
     inkscape:showpageshadow="2"
     inkscape:pageopacity="0.0"
     inkscape:pagecheckerboard="0"
     inkscape:deskcolor="#d1d1d1"
     inkscape:document-units="mm" /><defs
     id="defs1" /><g
     inkscape:label="图层 1"
     inkscape:groupmode="layer"
     id="layer1"
     transform="translate(-52.704553,-43.621672)"><path
       style="fill:#000000"
       d="m 75.516271,83.406202 c -0.04748,-0.09182 -0.106203,-0.273921 -0.130494,-0.404677 -0.0619,-0.333181 -0.220748,-0.6845 -0.412581,-0.912481 -0.194502,-0.231152 -0.533213,-0.341482 -1.345095,-0.438142 -0.604462,-0.07197 -1.460903,-0.0089 -2.10532,0.155108 -0.547267,0.139256 -1.915354,0.278476 -2.308153,0.234883 -0.511558,-0.05677 -1.196072,-0.285952 -1.6414,-0.549551 -0.253493,-0.150047 -0.576861,-0.436526 -0.959232,-0.849804 -1.099606,-1.188484 -1.247344,-1.321926 -1.702557,-1.537805 -0.238162,-0.112945 -0.567914,-0.235106 -0.732783,-0.271467 -0.164868,-0.03636 -1.095623,-0.08818 -2.068345,-0.115142 -1.487847,-0.04125 -1.849475,-0.06916 -2.278177,-0.175862 -2.4952,-0.621028 -3.432852,-1.586063 -3.343523,-3.441164 l 0.02838,-0.589432 -0.218325,-0.137823 c -0.328233,-0.207204 -0.813579,-0.768515 -1.000033,-1.156556 -0.136673,-0.284437 -0.166199,-0.428292 -0.169156,-0.824144 -0.0034,-0.460555 -0.01104,-0.486111 -0.191768,-0.64485 -0.224682,-0.197343 -0.381359,-0.505527 -0.381359,-0.750132 0,-0.140979 -0.05893,-0.22365 -0.284772,-0.399509 -1.194916,-0.930451 -1.800488,-2.919627 -1.483618,-4.873376 0.176803,-1.090131 0.654553,-2.05259 1.302396,-2.623767 l 0.330305,-0.291216 -0.118439,-0.267751 c -0.620199,-1.402063 0.641559,-3.340692 2.449169,-3.763029 0.227926,-0.05325 0.553865,-0.08508 0.727621,-0.07105 0.292072,0.02359 0.314748,0.01591 0.314748,-0.106552 0,-0.658295 0.471315,-2.233252 0.995064,-3.325136 1.381749,-2.88059 3.821078,-5.155875 5.527606,-5.155875 0.3092,0 0.323907,-0.0069 0.287872,-0.134892 -0.02089,-0.07419 -0.06865,-0.343568 -0.106132,-0.598616 -0.271194,-1.845139 0.979056,-3.825082 3.102868,-4.913819 1.164594,-0.597009 2.234465,-0.844215 3.681931,-0.850751 0.584073,-0.0026 1.173361,0.02844 1.438849,0.07589 1.056485,0.188799 2.177318,0.654779 2.91377,1.211384 0.315714,0.238613 0.415443,0.280976 0.728244,0.30934 0.463566,0.04203 1.146399,0.389162 1.940843,0.986654 0.614802,0.462386 1.37292,1.227169 1.499141,1.512322 0.05829,0.131691 0.128744,0.181167 0.296081,0.207925 0.353652,0.05655 1.164388,0.496373 1.786669,0.969263 1.079826,0.820591 1.836339,1.649157 2.755488,3.01793 0.31887,0.474853 0.764523,1.061622 0.990339,1.303932 1.095399,1.175405 2.623127,1.939413 3.878092,1.939413 0.71698,0 0.826085,-0.03572 0.895398,-0.293126 0.265027,-0.984237 1.673437,-1.807992 3.083918,-1.803729 0.541951,0.0016 0.896832,0.0684 1.23687,0.232689 0.192988,0.09324 0.279362,0.101386 0.547975,0.05167 1.324644,-0.245159 2.876617,0.534804 3.19776,1.607072 0.08814,0.294283 0.101753,0.30753 0.418819,0.407477 1.125715,0.354848 2.866875,2.140477 3.566635,3.657727 0.28279,0.613145 0.36855,0.968015 0.35508,1.469158 -0.01,0.362476 0.008,0.423959 0.20167,0.716898 0.11678,0.176231 0.28887,0.553929 0.38243,0.839329 0.1532,0.46735 0.16999,0.599326 0.16891,1.328262 -9.7e-4,0.65942 -0.0264,0.897035 -0.13709,1.282675 -0.31122,1.083932 -0.93934,2.160512 -1.7476,2.995316 -1.16303,1.201226 -2.377769,2.011512 -3.779586,2.521154 l -0.509593,0.185267 -0.0055,0.44964 c -0.0043,0.345884 -0.04428,0.544259 -0.17339,0.859679 -0.347879,0.849847 -1.142631,1.8487 -1.695272,2.130636 -0.291967,0.14895 -0.38041,0.287164 -0.384745,0.601257 -0.0046,0.333185 0.158204,0.62211 0.560318,0.994397 0.695676,0.644073 1.9713,1.096445 2.906306,1.030658 0.568751,-0.04002 1.862052,-0.33739 2.410172,-0.55418 0.86206,-0.340954 1.98902,-1.2835 2.97865,-2.491223 0.87176,-1.063872 1.23281,-1.411226 2.21762,-2.133521 0.65255,-0.478603 0.95199,-0.579213 1.73744,-0.583763 0.74581,-0.0043 1.08018,0.07353 1.31214,0.30548 0.35566,0.355663 0.26545,0.771622 -0.24496,1.129549 -0.84639,0.593525 -1.38619,1.223207 -2.23565,2.607914 -0.11126,0.181355 -0.28587,0.43765 -0.38802,0.569544 -0.10216,0.131895 -0.3357,0.482614 -0.51898,0.779377 -0.59591,0.964863 -0.67784,1.091631 -1.01431,1.569467 -0.753,1.069353 -2.13148,2.566391 -3.02271,3.282672 -0.96205,0.773199 -1.43633,1.033711 -3.415064,1.875831 -0.613283,0.261004 -0.919118,0.353233 -1.468825,0.442949 -3.516627,0.573933 -7.811831,-0.05004 -11.403024,-1.656544 -0.27625,-0.123579 -0.530938,-0.247158 -0.565974,-0.27462 -0.03782,-0.02965 -0.189897,0.03505 -0.374337,0.159262 -0.700005,0.471411 -1.9138,0.912062 -3.062524,1.111805 -1.594155,0.277196 -3.64107,0.09827 -4.637926,-0.405418 -0.162852,-0.08228 -0.164955,-0.0809 -0.171968,0.11308 -0.0039,0.108011 -0.0022,0.221742 0.0038,0.252736 0.0298,0.15413 -0.212383,0.5909 -0.448149,0.808222 -0.337535,0.311128 -0.634656,0.341037 -0.770885,0.0776 z m 0.699625,-0.44509 c 0.188697,-0.233142 0.352714,-0.822496 0.300941,-1.081362 -0.01816,-0.09082 -0.0089,-0.165122 0.02057,-0.165122 0.02948,0 0.245807,0.08076 0.480736,0.179467 1.545049,0.649161 3.835074,0.668186 5.775622,0.04798 0.615861,-0.19683 1.385052,-0.559634 1.769156,-0.834455 l 0.240379,-0.171989 0.718854,0.304825 c 1.438417,0.609952 3.089423,1.114691 4.675688,1.429435 1.353347,0.268529 2.213932,0.366988 3.53717,0.404684 1.919486,0.05468 3.316474,-0.116202 4.376499,-0.535345 0.738434,-0.291983 2.229629,-1.016423 2.601979,-1.264068 0.94283,-0.627069 2.01311,-1.644486 3.06947,-2.91785 0.61877,-0.745891 0.88246,-1.11409 1.39542,-1.948441 0.18245,-0.296763 0.43412,-0.69094 0.55928,-0.875949 0.12516,-0.18501 0.38607,-0.576197 0.5798,-0.869305 0.19373,-0.293108 0.52451,-0.79253 0.73507,-1.109826 0.43619,-0.65729 1.18315,-1.409764 1.74164,-1.754486 0.42216,-0.260573 0.47505,-0.344773 0.34308,-0.546188 -0.19359,-0.295454 -1.25244,-0.385243 -1.89096,-0.16035 -0.69352,0.244265 -1.87112,1.240659 -2.78528,2.356692 -1.05752,1.291049 -2.27996,2.331662 -3.18783,2.713676 -0.93866,0.394969 -2.966557,0.703709 -3.76217,0.572776 -0.706129,-0.116206 -1.544168,-0.516191 -2.049874,-0.978378 -0.428854,-0.391949 -0.620517,-0.730762 -0.660058,-1.166817 -0.04646,-0.512404 0.110838,-0.834291 0.542709,-1.110556 0.571754,-0.365746 1.382365,-1.484833 1.628883,-2.248749 0.0992,-0.307411 0.09869,-0.392732 -0.0056,-0.941498 l -0.03493,-0.183706 0.67963,-0.259214 c 1.890897,-0.721197 3.20288,-1.682918 4.3213,-3.167632 1.43305,-1.902395 1.68494,-3.907957 0.675,-5.374351 -0.2129,-0.309126 -0.21945,-0.3332 -0.14884,-0.547144 0.44433,-1.346333 -2.07933,-4.651127 -3.980404,-5.212449 -0.215893,-0.06375 -0.248304,-0.100271 -0.340831,-0.384099 -0.242916,-0.745149 -0.999647,-1.274131 -2.066506,-1.444563 -0.392642,-0.06273 -0.987523,-0.02566 -0.987523,0.06153 0,0.133958 -0.238354,0.106842 -0.578517,-0.06582 -0.694272,-0.352394 -1.659752,-0.307507 -2.576362,0.119779 -0.65921,0.307297 -1.22162,0.921492 -1.22162,1.334103 0,0.318389 -0.144944,0.368367 -1.079136,0.372095 -0.821828,0.0033 -1.151159,-0.06566 -1.993301,-0.41725 -1.006206,-0.420087 -2.205271,-1.416211 -2.795831,-2.322637 -0.143508,-0.220264 -0.283901,-0.40048 -0.311986,-0.40048 -0.02808,0 -0.123094,-0.147109 -0.211133,-0.326908 C 83.910945,51.24385 82.726942,49.930635 81.659643,49.124876 81.05013,48.664723 80.208389,48.225651 79.825738,48.168269 79.589476,48.132839 79.540755,48.100302 79.469846,47.930593 79.352457,47.649642 78.597503,46.87628 77.999278,46.424169 77.71808,46.211653 77.241861,45.914621 76.941014,45.764097 76.404021,45.495423 76.388365,45.491631 76.08482,45.556729 l -0.309199,0.06631 -0.381322,-0.314518 c -1.509297,-1.244884 -3.887624,-1.672331 -6.102683,-1.096811 -3.067594,0.797029 -4.956209,3.205759 -4.391581,5.601003 0.114678,0.486484 0.07193,0.546997 -0.386387,0.546997 -1.737753,0 -3.928381,1.975793 -5.359025,4.833464 -0.576763,1.152067 -0.987303,2.438788 -1.092755,3.42493 l -0.04007,0.3747 -0.54867,0.0013 c -0.419275,9.67e-4 -0.642166,0.03427 -0.945116,0.141213 -0.798335,0.281817 -1.497623,0.897675 -1.863756,1.641398 -0.177371,0.360291 -0.197832,0.455236 -0.197832,0.917999 0,0.478056 0.01438,0.539277 0.194844,0.829585 0.107165,0.172391 0.194845,0.346694 0.194845,0.387339 0,0.04065 -0.08985,0.106389 -0.199656,0.146097 -0.307783,0.111296 -0.849873,0.700039 -1.116569,1.212663 -0.806756,1.550687 -0.728392,3.802905 0.181663,5.221103 0.204249,0.318295 0.825002,0.92196 1.007679,0.979939 0.151633,0.04813 0.202422,0.190805 0.121647,0.341734 -0.09712,0.181465 0.03201,0.431511 0.380069,0.735986 l 0.298109,0.260778 -0.07337,0.222301 c -0.09294,0.281615 -0.04106,0.612692 0.157389,1.004307 0.179626,0.354475 0.680121,0.873819 0.980235,1.017152 l 0.208424,0.09954 0.0032,0.858049 c 0.0029,0.795559 0.01508,0.88643 0.166823,1.247738 0.201463,0.479697 0.536011,0.930737 0.85269,1.149606 0.357126,0.246824 1.171748,0.574878 1.94777,0.784382 0.677585,0.182929 0.715237,0.186308 2.188249,0.1964 2.458537,0.01684 3.21009,0.244599 4.128949,1.251263 1.105896,1.211574 1.37321,1.447915 1.966604,1.738737 0.685499,0.335963 1.159869,0.422705 1.864966,0.341025 0.270995,-0.03139 0.708546,-0.07443 0.972335,-0.09564 0.263789,-0.02121 0.7494,-0.09338 1.079136,-0.160376 0.484913,-0.09853 0.73705,-0.115551 1.318945,-0.08904 1.131501,0.05156 1.414835,0.122533 1.772367,0.443985 0.345903,0.310996 0.509104,0.595929 0.599911,1.047383 0.100266,0.498482 0.09714,0.493577 0.249866,0.392172 0.07296,-0.04845 0.209037,-0.182449 0.302386,-0.297785 z m 0.0431,0.222341 c 0.07744,-0.08243 0.127316,-0.14988 0.110829,-0.14988 -0.01649,0 -0.09334,0.06745 -0.170781,0.14988 -0.07744,0.08243 -0.127316,0.14988 -0.110829,0.14988 0.01649,0 0.09334,-0.06745 0.170781,-0.14988 z m 17.461031,0.04603 c -0.140138,-0.01262 -0.369454,-0.01262 -0.509592,0 -0.140138,0.01262 -0.02548,0.02295 0.254796,0.02295 0.280276,0 0.394934,-0.01033 0.254796,-0.02295 z m 1.558753,0 c -0.140138,-0.01262 -0.369454,-0.01262 -0.509592,0 -0.140138,0.01262 -0.02548,0.02295 0.254796,0.02295 0.280276,0 0.394934,-0.01033 0.254796,-0.02295 z m -2.667167,-0.05725 c -0.05732,-0.01501 -0.165233,-0.01555 -0.239808,-0.0012 -0.07458,0.01434 -0.02768,0.02662 0.104217,0.02728 0.131895,6.66e-4 0.192911,-0.01107 0.135591,-0.02607 z m 3.47652,-1.34e-4 c -0.0577,-0.01508 -0.152129,-0.01508 -0.209833,0 -0.0577,0.01508 -0.01049,0.02742 0.104917,0.02742 0.115407,0 0.162619,-0.01234 0.104916,-0.02742 z m -4.105574,-0.05795 c -0.04059,-0.01642 -0.121525,-0.01742 -0.179856,-0.0022 -0.05833,0.0152 -0.02512,0.02864 0.0738,0.02986 0.09892,0.0012 0.146646,-0.01122 0.106057,-0.02764 z m 4.583941,0.0031 c -0.01992,-0.01992 -0.07163,-0.02205 -0.114908,-0.0047 -0.04783,0.01914 -0.03362,0.03334 0.03622,0.03622 0.0632,0.0026 0.09861,-0.01157 0.07869,-0.03149 z m -5.064698,-0.06344 c -0.04122,-0.01663 -0.108663,-0.01663 -0.14988,0 -0.04122,0.01663 -0.0075,0.03024 0.07494,0.03024 0.08243,0 0.116157,-0.01361 0.07494,-0.03024 z m 5.484362,0.0035 c -0.01992,-0.01992 -0.07163,-0.02205 -0.114908,-0.0047 -0.04783,0.01914 -0.03362,0.03334 0.03622,0.03622 0.0632,0.0026 0.09861,-0.01157 0.07869,-0.03149 z m -5.904027,-0.06344 c -0.04122,-0.01663 -0.108663,-0.01663 -0.14988,0 -0.04122,0.01663 -0.0075,0.03024 0.07494,0.03024 0.08243,0 0.116157,-0.01361 0.07494,-0.03024 z M 90.751148,82.9374 c -0.01992,-0.01992 -0.07163,-0.02205 -0.114908,-0.0047 -0.04783,0.01914 -0.03362,0.03334 0.03622,0.03622 0.0632,0.0026 0.09861,-0.01157 0.07869,-0.03149 z m -0.359712,-0.05995 c -0.01992,-0.01992 -0.07163,-0.02205 -0.114908,-0.0047 -0.04783,0.01914 -0.03362,0.03334 0.03622,0.03622 0.0632,0.0026 0.09861,-0.01157 0.07869,-0.03149 z m -0.29976,-0.05995 c -0.01992,-0.01992 -0.07163,-0.02205 -0.114908,-0.0047 -0.04783,0.01914 -0.03362,0.03334 0.03622,0.03622 0.0632,0.0026 0.09861,-0.01157 0.07869,-0.03149 z M 79.151678,82.514252 c -0.04122,-0.01663 -0.108663,-0.01663 -0.14988,0 -0.04122,0.01663 -0.0075,0.03024 0.07494,0.03024 0.08243,0 0.116157,-0.01361 0.07494,-0.03024 z m 1.558753,0 c -0.04122,-0.01663 -0.108663,-0.01663 -0.14988,0 -0.04122,0.01663 -0.0075,0.03024 0.07494,0.03024 0.08243,0 0.116157,-0.01361 0.07494,-0.03024 z M 76.659658,82.0631 c -0.01914,-0.04783 -0.03334,-0.03362 -0.03622,0.03622 -0.0026,0.0632 0.01157,0.09861 0.03149,0.07869 0.01992,-0.01992 0.02205,-0.07163 0.0047,-0.114908 z M 70.09892,81.854779 c -0.04122,-0.01663 -0.108663,-0.01663 -0.14988,0 -0.04122,0.01663 -0.0075,0.03024 0.07494,0.03024 0.08243,0 0.116157,-0.01361 0.07494,-0.03024 z m 0.568296,-0.05647 c -0.01992,-0.01992 -0.07163,-0.02205 -0.114908,-0.0047 -0.04783,0.01914 -0.03362,0.03334 0.03622,0.03622 0.0632,0.0026 0.09861,-0.01157 0.07869,-0.03149 z m 30.659374,-0.728167 c 0.0746,-0.09509 0.0725,-0.09721 -0.0226,-0.02263 -0.0999,0.07832 -0.13163,0.127551 -0.0823,0.127551 0.0124,0 0.0597,-0.04721 0.10491,-0.104916 z M 67.206234,81.03812 c 0,-0.0094 -0.155126,-0.164496 -0.344724,-0.344724 l -0.344724,-0.327689 0.327688,0.344725 c 0.304433,0.320259 0.36176,0.372188 0.36176,0.327688 z M 101.5664,80.890288 c 0.0746,-0.09509 0.0725,-0.09721 -0.0226,-0.02263 -0.0999,0.07832 -0.13162,0.127551 -0.0823,0.127551 0.0125,0 0.0597,-0.04721 0.10492,-0.104916 z m 0.26214,-0.194844 c 0.0597,-0.06595 0.095,-0.119904 0.0785,-0.119904 -0.0165,0 -0.0788,0.05396 -0.13849,0.119904 -0.0597,0.06595 -0.095,0.119904 -0.0785,0.119904 0.0165,0 0.0788,-0.05396 0.13849,-0.119904 z m 0.41966,-0.359713 c 0.0597,-0.06595 0.095,-0.119904 0.0785,-0.119904 -0.0165,0 -0.0788,0.05396 -0.13849,0.119904 -0.0597,0.06595 -0.095,0.119904 -0.0785,0.119904 0.0165,0 0.0788,-0.05396 0.13849,-0.119904 z m 0.41966,-0.419664 c 0.0597,-0.06595 0.095,-0.119904 0.0785,-0.119904 -0.0165,0 -0.0788,0.05396 -0.13849,0.119904 -0.0597,0.06595 -0.095,0.119904 -0.0785,0.119904 0.0165,0 0.0788,-0.05396 0.13848,-0.119904 z m -36.48081,-0.02068 c 0,-0.01138 -0.0607,-0.07208 -0.134892,-0.134892 l -0.134892,-0.114208 0.114207,0.134892 c 0.107328,0.126765 0.155577,0.162185 0.155577,0.114208 z m 36.8705,-0.369004 c 0.11186,-0.115408 0.18989,-0.209832 0.1734,-0.209832 -0.0165,0 -0.12149,0.09442 -0.23335,0.209832 -0.11186,0.115408 -0.18989,0.209832 -0.1734,0.209832 0.0165,0 0.1215,-0.09442 0.23335,-0.209832 z m 0.47962,-0.539568 c 0.11186,-0.115408 0.18989,-0.209833 0.1734,-0.209833 -0.0165,0 -0.1215,0.09443 -0.23335,0.209833 -0.11186,0.115407 -0.18989,0.209832 -0.1734,0.209832 0.0165,0 0.12149,-0.09443 0.23335,-0.209832 z m 0.38969,-0.449641 c 0.0597,-0.06595 0.095,-0.119904 0.0785,-0.119904 -0.0165,0 -0.0788,0.05396 -0.13848,0.119904 -0.0597,0.06595 -0.095,0.119904 -0.0785,0.119904 0.0165,0 0.0788,-0.05396 0.13849,-0.119904 z m -42.732066,0.02373 c -0.01992,-0.01992 -0.07163,-0.02205 -0.114908,-0.0047 -0.04783,0.01914 -0.03362,0.03334 0.03622,0.03622 0.0632,0.0026 0.09861,-0.01157 0.07869,-0.03149 z m 1.110361,-0.0035 c -0.04122,-0.01663 -0.108663,-0.01663 -0.14988,0 -0.04122,0.01663 -0.0075,0.03024 0.07494,0.03024 0.08243,0 0.116157,-0.01361 0.07494,-0.03024 z m 0.92792,-0.004 c -0.124387,-0.01298 -0.313236,-0.01276 -0.419665,4.84e-4 -0.106428,0.01324 -0.0047,0.02386 0.226158,0.0236 0.230815,-2.66e-4 0.317893,-0.0111 0.193507,-0.02408 z m -2.637802,-0.05242 c -0.01992,-0.01992 -0.07163,-0.02205 -0.114908,-0.0047 -0.04783,0.01914 -0.03362,0.03334 0.03622,0.03622 0.0632,0.0026 0.09861,-0.01157 0.07869,-0.03149 z m -0.359712,-0.05995 c -0.01992,-0.01992 -0.07163,-0.02205 -0.114908,-0.0047 -0.04783,0.01914 -0.03362,0.03334 0.03622,0.03622 0.0632,0.0026 0.09861,-0.01157 0.07869,-0.03149 z m 43.961079,-0.233563 c 0.0774,-0.08243 0.12732,-0.14988 0.11083,-0.14988 -0.0165,0 -0.0933,0.06745 -0.17078,0.14988 -0.0774,0.08243 -0.12732,0.14988 -0.11083,0.14988 0.0165,0 0.0933,-0.06745 0.17078,-0.14988 z m 0.44317,-0.58051 c 0.13387,-0.23469 0.0675,-0.17286 -0.17278,0.160846 -0.10041,0.139482 -0.12411,0.197598 -0.0566,0.138914 0.0638,-0.05549 0.16703,-0.190384 0.22942,-0.29976 z m 0.55039,-0.798387 c 0.14245,-0.249662 0.03,-0.123321 -0.24006,0.269784 -0.18266,0.265865 -0.1913,0.289091 -0.0446,0.119904 0.1001,-0.115407 0.22817,-0.290767 0.28462,-0.389688 z m -7.018738,-0.26965 c -1.107828,-0.07579 -2.144438,-0.5198 -2.781312,-1.191311 -0.144829,-0.152707 -0.233258,-0.22012 -0.196509,-0.149809 0.102118,0.195382 0.631495,0.648524 1.001723,0.857469 0.18228,0.102872 0.566579,0.266681 0.853998,0.36402 0.452482,0.153241 0.602997,0.175885 1.1221,0.168814 l 0.59952,-0.0082 z m 1.092876,-0.03636 c -0.01992,-0.01992 -0.07163,-0.02205 -0.114908,-0.0047 -0.04783,0.01914 -0.03362,0.03334 0.03622,0.03622 0.0632,0.0026 0.09861,-0.01157 0.07869,-0.03149 z m 6.191292,-0.143635 c 0.0353,-0.06595 0.0507,-0.119904 0.0342,-0.119904 -0.0165,0 -0.0588,0.05396 -0.0941,0.119904 -0.0353,0.06595 -0.0507,0.119904 -0.0342,0.119904 0.0165,0 0.0588,-0.05396 0.0941,-0.119904 z m -5.651724,0.02373 c -0.01992,-0.01992 -0.07163,-0.02205 -0.114908,-0.0047 -0.04783,0.01914 -0.03362,0.03334 0.03622,0.03622 0.0632,0.0026 0.09861,-0.01157 0.07869,-0.03149 z m 0.299764,-0.05995 c -0.0199,-0.01992 -0.0716,-0.02205 -0.114912,-0.0047 -0.04783,0.01914 -0.03362,0.03334 0.03622,0.03622 0.0632,0.0026 0.0986,-0.01157 0.0787,-0.03149 z m 0.47961,-0.119904 c -0.0199,-0.01992 -0.0716,-0.02205 -0.11491,-0.0047 -0.0478,0.01914 -0.0336,0.03334 0.0362,0.03622 0.0632,0.0026 0.0986,-0.01157 0.0787,-0.03149 z m 5.29202,-0.503348 c 0.0353,-0.06595 0.0507,-0.119904 0.0342,-0.119904 -0.0165,0 -0.0589,0.05396 -0.0941,0.119904 -0.0353,0.06595 -0.0507,0.119905 -0.0342,0.119905 0.0165,0 0.0589,-0.05396 0.0941,-0.119905 z M 56.63627,75.375841 c -0.0152,-0.05833 -0.02864,-0.02512 -0.02986,0.0738 -0.0012,0.09892 0.01121,0.146647 0.02764,0.106057 0.01642,-0.04059 0.01742,-0.121524 0.0022,-0.179856 z m 45.70951,-0.06109 c 0.0746,-0.09509 0.0724,-0.09721 -0.0226,-0.02263 -0.0999,0.07832 -0.13162,0.127551 -0.0823,0.127551 0.0125,0 0.0597,-0.04721 0.10492,-0.104916 z m 3.85925,-0.07494 c 0.0597,-0.06595 0.095,-0.119904 0.0785,-0.119904 -0.0165,0 -0.0788,0.05396 -0.13849,0.119904 -0.0597,0.06595 -0.095,0.119904 -0.0785,0.119904 0.0165,0 0.0788,-0.05396 0.13848,-0.119904 z M 56.63627,74.956177 c -0.0152,-0.05833 -0.02864,-0.02512 -0.02986,0.0738 -0.0012,0.09892 0.01121,0.146647 0.02764,0.106057 0.01642,-0.04059 0.01742,-0.121525 0.0022,-0.179856 z m 46.09532,0.02884 0.17608,-0.194844 -0.19484,0.176084 c -0.10717,0.09685 -0.19485,0.184527 -0.19485,0.194845 0,0.04632 0.0495,0.0055 0.21361,-0.176085 z m 3.93079,-0.434652 0.0589,-0.119904 -0.0976,0.119904 c -0.0537,0.06595 -0.12411,0.173861 -0.15649,0.239808 l -0.0589,0.119904 0.0976,-0.119904 c 0.0537,-0.06595 0.12412,-0.173861 0.1565,-0.239808 z m -2.51546,-1.019185 c 0.3273,-0.395683 0.85683,-0.971755 1.17672,-1.280158 l 0.58163,-0.560734 -0.47961,0.409023 c -0.26379,0.224964 -0.74611,0.733589 -1.07182,1.130279 -0.32571,0.39669 -0.78435,0.923438 -1.01919,1.170552 -0.31142,0.327701 -0.33981,0.368264 -0.1049,0.14988 0.17714,-0.16468 0.58986,-0.623158 0.91717,-1.018842 z m -47.492244,0.810892 c 0,-0.03213 -0.08518,-0.102459 -0.189281,-0.156293 -0.104105,-0.05383 -0.326677,-0.222352 -0.494604,-0.374483 -0.266581,-0.241504 -0.278698,-0.247367 -0.09549,-0.04621 0.169415,0.186018 0.70204,0.627725 0.764389,0.633907 0.0082,8.18e-4 0.01499,-0.0248 0.01499,-0.05693 z m 50.269104,-0.218753 c 0.0567,-0.08649 0.0734,-0.138948 0.0372,-0.116565 -0.0692,0.04277 -0.2088,0.273827 -0.16543,0.273827 0.0139,0 0.0716,-0.07077 0.12823,-0.157262 z m 0.21816,-0.307367 c 0.0746,-0.09509 0.0724,-0.09721 -0.0226,-0.02263 -0.0999,0.07832 -0.13162,0.127551 -0.0823,0.127551 0.0125,0 0.0597,-0.04721 0.10492,-0.104916 z M 95.983213,73.231415 c 0.07744,-0.08243 0.127315,-0.14988 0.110829,-0.14988 -0.01649,0 -0.09334,0.06745 -0.170781,0.14988 -0.07744,0.08243 -0.127316,0.14988 -0.11083,0.14988 0.01649,0 0.09334,-0.06745 0.170782,-0.14988 z m 11.991907,-0.494604 0.44814,-0.464629 -0.46463,0.44814 c -0.25554,0.246477 -0.46463,0.45556 -0.46463,0.464628 0,0.04384 0.0649,-0.0166 0.48112,-0.448139 z m -11.624548,0.05995 c 0.07457,-0.09509 0.07245,-0.09721 -0.02263,-0.02264 -0.0577,0.04526 -0.104916,0.09247 -0.104916,0.104916 0,0.04934 0.04923,0.01759 0.127551,-0.08228 z m 0.233948,-0.318088 c 0.0911,-0.170226 0.02896,-0.142448 -0.09104,0.0407 -0.05667,0.08649 -0.07341,0.138948 -0.03719,0.116565 0.03622,-0.02238 0.09392,-0.09315 0.128232,-0.157262 z M 55.255532,72.28717 c -0.01663,-0.04122 -0.03024,-0.0075 -0.03024,0.07494 0,0.08243 0.01361,0.116157 0.03024,0.07494 0.01663,-0.04122 0.01663,-0.108663 0,-0.14988 z m 53.347588,-0.104916 c 0.0597,-0.06595 0.095,-0.119904 0.0785,-0.119904 -0.0165,0 -0.0788,0.05396 -0.13849,0.119904 -0.0597,0.06595 -0.095,0.119904 -0.0785,0.119904 0.0165,0 0.0788,-0.05396 0.13849,-0.119904 z m 0.63714,-0.464628 c 0.0746,-0.09509 0.0724,-0.09721 -0.0226,-0.02263 -0.0999,0.07832 -0.13162,0.127551 -0.0823,0.127551 0.0125,0 0.0597,-0.04721 0.10492,-0.104916 z m -3.17746,-0.119904 c 0.0746,-0.09509 0.0725,-0.09721 -0.0226,-0.02264 -0.0999,0.07832 -0.13163,0.127551 -0.0823,0.127551 0.0124,0 0.0597,-0.04721 0.10491,-0.104916 z m 0.41967,-0.29976 c 0.0746,-0.09509 0.0724,-0.09721 -0.0226,-0.02264 -0.0999,0.07832 -0.13162,0.127552 -0.0823,0.127552 0.0125,0 0.0597,-0.04721 0.10492,-0.104916 z m -9.259263,-0.266038 c -0.01914,-0.04783 -0.03334,-0.03362 -0.03622,0.03622 -0.0026,0.0632 0.01157,0.09861 0.03149,0.07869 0.01992,-0.01992 0.02205,-0.07163 0.0047,-0.114909 z m 0.06055,-0.392294 c -0.0152,-0.05833 -0.02864,-0.02512 -0.02986,0.0738 -0.0012,0.09892 0.01121,0.146647 0.02764,0.106057 0.01642,-0.04059 0.01742,-0.121524 0.0022,-0.179856 z m 10.313923,0.187458 c -0.0199,-0.01992 -0.0716,-0.02205 -0.11491,-0.0047 -0.0478,0.01914 -0.0336,0.03334 0.0362,0.03622 0.0632,0.0026 0.0986,-0.01157 0.0787,-0.03149 z m 0.60077,-0.06667 c -0.0907,-0.01374 -0.23906,-0.01374 -0.32974,0 -0.0907,0.01374 -0.0165,0.02498 0.16487,0.02498 0.18135,0 0.25555,-0.01124 0.16487,-0.02498 z M 97.187341,70.317457 c -0.03159,-0.07898 -0.05915,-0.11208 -0.06124,-0.07356 -0.0051,0.09356 0.06476,0.271073 0.09482,0.241013 0.01312,-0.01312 -0.002,-0.08848 -0.03358,-0.167454 z m -42.930747,0.04748 c 0,-0.01032 -0.08768,-0.098 -0.194844,-0.194845 l -0.194844,-0.176084 0.176085,0.194844 c 0.164135,0.181622 0.213603,0.222401 0.213603,0.176085 z m 43.440322,-0.302506 c 0.228667,-0.07778 0.617835,-0.235018 0.864817,-0.349428 0.461229,-0.213657 1.527477,-0.849848 1.587727,-0.947341 0.0186,-0.03004 -0.203061,0.09421 -0.492505,0.276107 -0.615592,0.386857 -1.306377,0.724186 -1.953283,0.953843 -0.253807,0.0901 -0.461467,0.173815 -0.461467,0.186026 0,0.03445 0.01282,0.03109 0.454711,-0.119207 z m 2.670444,-1.462308 c 0.0746,-0.09509 0.0724,-0.09721 -0.0226,-0.02264 -0.0999,0.07832 -0.13162,0.127551 -0.0823,0.127551 0.0125,0 0.0597,-0.04721 0.10492,-0.104916 z m 0.32209,-0.254796 c 0.0597,-0.06595 0.095,-0.119904 0.0785,-0.119904 -0.0165,0 -0.0788,0.05396 -0.13848,0.119904 -0.0597,0.06595 -0.095,0.119904 -0.0785,0.119904 0.0165,0 0.0788,-0.05396 0.13849,-0.119904 z m 1.73838,-1.918465 c 0.71354,-1.151327 1.00338,-2.044915 1.00145,-3.08753 -6.7e-4,-0.36271 -0.0239,-0.73315 -0.0516,-0.823201 -0.0321,-0.104486 -0.0511,0.177514 -0.0524,0.779377 -0.002,0.871231 -0.0149,0.98194 -0.17108,1.452696 -0.34366,1.035644 -0.94393,1.987977 -1.93972,3.077419 -0.21606,0.236377 -0.11088,0.146502 0.23373,-0.199721 0.43027,-0.432277 0.73715,-0.807932 0.97955,-1.19904 z m -49.57038,0.644484 c -0.01663,-0.04122 -0.03024,-0.0075 -0.03024,0.07494 0,0.08243 0.01361,0.116157 0.03024,0.07494 0.01663,-0.04122 0.01663,-0.108663 0,-0.14988 z m 0.0012,-0.77563 c -0.01914,-0.04783 -0.03334,-0.03362 -0.03622,0.03622 -0.0026,0.0632 0.01157,0.09861 0.03149,0.07869 0.01992,-0.01992 0.02205,-0.07163 0.0047,-0.114909 z m 50.37843,-4.228107 c -0.0653,-0.101875 -0.067,-0.101745 -0.0342,0.0026 0.019,0.0604 0.0366,0.141336 0.0392,0.179856 0.003,0.05055 0.0129,0.04981 0.0342,-0.0026 0.0162,-0.03998 -0.001,-0.12091 -0.0392,-0.179856 z M 54.296299,61.795564 c -0.01663,-0.04122 -0.03024,-0.0075 -0.03024,0.07494 0,0.08243 0.01361,0.116157 0.03024,0.07494 0.01663,-0.04122 0.01663,-0.108663 0,-0.14988 z m 48.828521,-0.02548 c -0.0707,-0.121536 -0.0877,-0.08263 -0.0299,0.06813 0.0206,0.05358 0.05,0.08479 0.0654,0.06935 0.0154,-0.01544 -5.6e-4,-0.0773 -0.0356,-0.137478 z m -0.1625,-0.334233 c -0.0233,-0.04122 -0.10583,-0.16082 -0.1834,-0.265784 -0.0776,-0.104964 -0.14416,-0.239856 -0.14799,-0.29976 -0.006,-0.09181 -0.0111,-0.09343 -0.0332,-0.01028 -0.0144,0.05425 0.0614,0.222868 0.16838,0.3747 0.18165,0.257711 0.29225,0.371102 0.19617,0.201119 z m -47.772698,-1.618705 0.176085,-0.194844 -0.194844,0.176085 c -0.181622,0.164135 -0.222401,0.213603 -0.176085,0.213603 0.01032,0 0.098,-0.08768 0.194844,-0.194844 z m 2.108289,-0.980465 c -0.01992,-0.01992 -0.07163,-0.02205 -0.114908,-0.0047 -0.04783,0.01914 -0.03362,0.03334 0.03622,0.03622 0.0632,0.0026 0.09861,-0.01157 0.07869,-0.03149 z m 0.29976,0 c -0.01992,-0.01992 -0.07163,-0.02205 -0.114908,-0.0047 -0.04782,0.01914 -0.03362,0.03334 0.03622,0.03622 0.0632,0.0026 0.09861,-0.01157 0.07869,-0.03149 z m 43.661319,-1.425263 c 0,-0.01245 -0.0472,-0.05966 -0.10491,-0.104917 -0.0951,-0.07457 -0.0972,-0.07245 -0.0226,0.02264 0.0783,0.09986 0.12755,0.131623 0.12755,0.08228 z m -0.95923,-0.959233 c 0,-0.01245 -0.0472,-0.05966 -0.10492,-0.104916 -0.0951,-0.07457 -0.0972,-0.07245 -0.0226,0.02264 0.0783,0.09987 0.12755,0.131624 0.12755,0.08228 z M 90.343276,55.34309 c 0.07999,-0.02235 0.157302,-0.07624 0.171805,-0.11975 0.02177,-0.06529 0.0016,-0.06521 -0.115459,4.66e-4 -0.09586,0.05378 -0.365273,0.07875 -0.831278,0.07704 -0.625038,-0.0023 -0.932212,-0.05022 -1.541837,-0.240571 -0.09676,-0.03021 -0.09742,-0.02726 -0.007,0.03127 0.05493,0.03555 0.311222,0.116567 0.569545,0.180042 0.472181,0.116025 1.451958,0.155959 1.7542,0.0715 z m 8.04976,-0.112275 c -0.01737,-0.09068 -0.04315,-0.130255 -0.05729,-0.08795 -0.0255,0.07629 0.02012,0.252818 0.06533,0.252818 0.01295,0 0.0093,-0.07419 -0.008,-0.164868 z M 87.769783,54.946043 c -0.08243,-0.04712 -0.176858,-0.08568 -0.209832,-0.08568 -0.03297,0 0.0075,0.03856 0.08993,0.08568 0.08243,0.04712 0.176859,0.08568 0.209832,0.08568 0.03297,0 -0.0075,-0.03856 -0.08993,-0.08568 z m -0.539568,-0.237699 c 0,-0.01533 -0.0607,-0.05728 -0.134892,-0.09323 -0.129534,-0.06277 -0.13027,-0.06166 -0.01852,0.02787 0.122317,0.098 0.153409,0.111245 0.153409,0.06537 z m 10.915553,-0.08404 c -0.105667,-0.197441 -0.704992,-0.705425 -0.990734,-0.83974 -0.44438,-0.208883 -0.922308,-0.307994 -1.439213,-0.298461 l -0.482009,0.0089 0.59952,0.04568 c 0.942059,0.07178 1.614228,0.361777 2.083687,0.898976 0.280406,0.320866 0.317805,0.351056 0.228749,0.184654 z m -11.215313,-0.09103 c 0,-0.0127 -0.07419,-0.06825 -0.164868,-0.123462 l -0.164868,-0.100382 0.141533,0.123463 c 0.138114,0.120478 0.188203,0.147194 0.188203,0.100381 z m 3.926858,-0.09682 c 0.05968,-0.06595 0.09502,-0.119904 0.07854,-0.119904 -0.01649,0 -0.07881,0.05396 -0.138488,0.119904 -0.05968,0.06595 -0.09502,0.119904 -0.07853,0.119904 0.01649,0 0.07881,-0.05396 0.138487,-0.119904 z m -4.466427,-0.260493 c 0,-0.01138 -0.0607,-0.07208 -0.134892,-0.134892 l -0.134892,-0.114207 0.114208,0.134892 c 0.107327,0.126765 0.155576,0.162184 0.155576,0.114207 z m 4.886092,-0.159171 c 0.05968,-0.06595 0.09502,-0.119905 0.07854,-0.119905 -0.01649,0 -0.07881,0.05396 -0.138487,0.119905 -0.05968,0.06595 -0.09502,0.119904 -0.07854,0.119904 0.01649,0 0.07881,-0.05396 0.138487,-0.119904 z m -5.245804,-0.137146 c 0,-0.0095 -0.141636,-0.15112 -0.314748,-0.314748 l -0.314748,-0.297507 0.297506,0.314748 c 0.276449,0.29247 0.33199,0.342242 0.33199,0.297507 z m 6.403425,-0.423915 c 0.753507,-0.222658 1.58179,-0.181232 2.169717,0.108518 0.236353,0.116482 0.288356,0.123114 0.419664,0.05351 l 0.14988,-0.07944 -0.14988,0.0073 c -0.08243,0.004 -0.271728,-0.04865 -0.420654,-0.117089 -0.797196,-0.366346 -2.035125,-0.255455 -2.916882,0.261289 -0.367525,0.215384 -0.321837,0.231709 0.08514,0.03042 0.189598,-0.09378 0.487956,-0.212823 0.663017,-0.264553 z M 60.799014,52.473022 c 0.07457,-0.09509 0.07245,-0.09721 -0.02264,-0.02264 -0.0577,0.04525 -0.104916,0.09247 -0.104916,0.104916 0,0.04934 0.04923,0.01759 0.127552,-0.08228 z m 22.894031,-1.656329 c 0,-0.01245 -0.04721,-0.05966 -0.104916,-0.104916 -0.09509,-0.07457 -0.09721,-0.07245 -0.02263,0.02264 0.07832,0.09987 0.127551,0.131624 0.127551,0.08228 z m -0.419664,-0.473701 c 0,-0.0092 -0.182105,-0.1913 -0.404677,-0.404676 l -0.404676,-0.387956 0.387956,0.404676 c 0.360351,0.375881 0.421397,0.432082 0.421397,0.387956 z m -18.60413,-0.953753 c -0.01914,-0.04783 -0.03334,-0.03362 -0.03622,0.03622 -0.0026,0.0632 0.01157,0.09861 0.03149,0.07869 0.01992,-0.01992 0.02205,-0.07163 0.0047,-0.114908 z m 17.584945,-0.0114 c 0,-0.01245 -0.04721,-0.05966 -0.104916,-0.104916 -0.09509,-0.07457 -0.09721,-0.07245 -0.02264,0.02264 0.07832,0.09987 0.127551,0.131623 0.127551,0.08228 z M 64.668002,48.366307 c -0.01663,-0.04122 -0.03024,-0.0075 -0.03024,0.07494 0,0.08243 0.01361,0.116157 0.03024,0.07494 0.01663,-0.04122 0.01663,-0.108663 0,-0.14988 z m 14.708496,-0.960965 c 0,-0.0092 -0.182104,-0.1913 -0.404676,-0.404676 l -0.404676,-0.387956 0.387956,0.404676 c 0.36035,0.375881 0.421396,0.432082 0.421396,0.387956 z m -0.89928,-0.845243 c 0,-0.01245 -0.04721,-0.05966 -0.104917,-0.104916 -0.09509,-0.07457 -0.09721,-0.07245 -0.02263,0.02264 0.07832,0.09987 0.127552,0.131623 0.127552,0.08228 z M 65.715081,46.178058 c 0.07457,-0.09509 0.07245,-0.09721 -0.02264,-0.02264 -0.09987,0.07832 -0.131623,0.127552 -0.08228,0.127552 0.01245,0 0.05966,-0.04721 0.104916,-0.104916 z M 75.89928,45.385635 c 0,-0.07207 -0.523728,-0.468001 -0.945203,-0.714558 -0.486849,-0.284799 -1.083162,-0.521123 -1.762625,-0.698541 -0.543234,-0.141847 -0.752377,-0.163795 -1.698647,-0.178261 l -1.079137,-0.0165 1.049161,0.04393 c 1.167583,0.04889 1.748703,0.161314 2.592455,0.501542 0.537903,0.2169 1.36685,0.71788 1.601987,0.968171 0.148327,0.157887 0.242009,0.194357 0.242009,0.09421 z m -6.071393,-1.477012 c -0.01992,-0.01992 -0.07163,-0.02205 -0.114908,-0.0047 -0.04783,0.01914 -0.03362,0.03334 0.03622,0.03622 0.0632,0.0026 0.09861,-0.01157 0.07869,-0.03149 z m 0.390937,-0.06344 c -0.04122,-0.01663 -0.108663,-0.01663 -0.14988,0 -0.04122,0.01663 -0.0075,0.03024 0.07494,0.03024 0.08243,0 0.116157,-0.01361 0.07494,-0.03024 z"
       id="path2" /></g></svg>
