0
SECTION
2
HEADER
9
$INSUNITS
70
4
9
$ACADVER
1
AC1014
9
$HANDSEED
5
FFFF
0
ENDSEC
0
SECTION
2
TABLES
0
TABLE
2
VPORT
5
8
100
AcDbSymbolTable
0
ENDTAB
0
TABLE
2
LTYPE
5
5
100
AcDbSymbolTable
0
LTYPE
5
14
100
AcDbSymbolTableRecord
100
AcDbLinetypeTableRecord
2
BYBLOCK
70
0
0
LTYPE
5
15
100
AcDbSymbolTableRecord
100
AcDbLinetypeTableRecord
2
BYLAYER
70
0
0
ENDTAB
0
TABLE
2
LAYER
5
2
100
AcDbSymbolTable
70
2
0
LAYER
5
50
100
AcDbSymbolTableRecord
100
AcDbLayerTableRecord
2
0
70
0
6
CONTINUOUS
0
ENDTAB
0
TABLE
2
STYLE
5
3
100
AcDbSymbolTable
70
1
0
STYLE
5
11
100
AcDbSymbolTableRecord
100
AcDbTextStyleTableRecord
2
STANDARD
70
0
0
ENDTAB
0
TABLE
2
VIEW
5
6
100
AcDbSymbolTable
70
0
0
ENDTAB
0
TABLE
2
UCS
5
7
100
AcDbSymbolTable
70
0
0
ENDTAB
0
TABLE
2
APPID
5
9
100
AcDbSymbolTable
70
2
0
APPID
5
12
100
AcDbSymbolTableRecord
100
AcDbRegAppTableRecord
2
ACAD
70
0
0
ENDTAB
0
TABLE
2
DIMSTYLE
5
A
100
AcDbSymbolTable
70
1
0
ENDTAB
0
TABLE
2
BLOCK_RECORD
5
1
100
AcDbSymbolTable
70
1
0
BLOCK_RECORD
5
1F
100
AcDbSymbolTableRecord
100
AcDbBlockTableRecord
2
*MODEL_SPACE
0
BLOCK_RECORD
5
1B
100
AcDbSymbolTableRecord
100
AcDbBlockTableRecord
2
*PAPER_SPACE
0
ENDTAB
0
ENDSEC
0
SECTION
2
BLOCKS
0
BLOCK
5
20
100
AcDbEntity
100
AcDbBlockBegin
2
*MODEL_SPACE
0
ENDBLK
5
21
100
AcDbEntity
100
AcDbBlockEnd
0
BLOCK
5
1C
100
AcDbEntity
100
AcDbBlockBegin
2
*PAPER_SPACE
0
ENDBLK
5
1D
100
AcDbEntity
100
AcDbBlockEnd
0
ENDSEC
0
SECTION
2
ENTITIES
0
SPLINE
5
100
100
AcDbEntity
8
0
100
AcDbSpline
70
4
71
3
72
8
73
4
74
0
42
0.000000001
43
0.0000000001
44
0.0000000001
40
0
40
0
40
0
40
0
40
1
40
1
40
1
40
1
41
1
41
1
41
1
41
1
10
41.643323891243497
20
-16.306114939877322
30
0
10
41.714750410001635
20
-16.263615111538698
30
0
10
41.99803818949178
20
-16.112530179847212
30
0
10
42.272734762113444
20
-15.970375581611126
30
0
0
LINE
5
101
100
AcDbEntity
8
0
100
AcDbLine
10
42.272734762113444
20
-15.970375581611126
30
0
11
42.772397415718601
21
-15.711906619895428
31
0
0
LINE
5
102
100
AcDbEntity
8
0
100
AcDbLine
10
42.772397415718601
20
-15.711906619895428
30
0
11
42.790496278684493
21
-15.570060869086715
31
0
0
SPLINE
5
103
100
AcDbEntity
8
0
100
AcDbSpline
70
4
71
3
72
8
73
4
74
0
42
0.000000001
43
0.0000000001
44
0.0000000001
40
0
40
0
40
0
40
0
40
1
40
1
40
1
40
1
41
1
41
1
41
1
41
1
10
42.790496278684493
20
-15.570060869086713
30
0
10
42.813992906492111
20
-15.385743550488284
30
0
10
42.894559694211836
20
-15.080723408886723
30
0
10
42.946022153776049
20
-14.981201867291263
30
0
0
SPLINE
5
104
100
AcDbEntity
8
0
100
AcDbSpline
70
4
71
3
72
8
73
4
74
0
42
0.000000001
43
0.0000000001
44
0.0000000001
40
0
40
0
40
0
40
0
40
1
40
1
40
1
40
1
41
1
41
1
41
1
41
1
10
42.946022153776049
20
-14.981201867291263
30
0
10
42.968299540759283
20
-14.938100492982995
30
0
10
42.986547780912275
20
-14.897609182227583
30
0
10
42.986547780912275
20
-14.891220279563397
30
0
0
SPLINE
5
105
100
AcDbEntity
8
0
100
AcDbSpline
70
4
71
3
72
8
73
4
74
0
42
0.000000001
43
0.0000000001
44
0.0000000001
40
0
40
0
40
0
40
0
40
1
40
1
40
1
40
1
41
1
41
1
41
1
41
1
10
42.986547780912275
20
-14.891220279563397
30
0
10
42.986547780912275
20
-14.884833395509851
30
0
10
42.88592004068807
20
-14.872709620027674
30
0
10
42.762930131833912
20
-14.864279902010093
30
0
0
SPLINE
5
106
100
AcDbEntity
8
0
100
AcDbSpline
70
4
71
3
72
8
73
4
74
0
42
0.000000001
43
0.0000000001
44
0.0000000001
40
0
40
0
40
0
40
0
40
1
40
1
40
1
40
1
41
1
41
1
41
1
41
1
10
42.762930131833912
20
-14.864279902010093
30
0
10
42.514083887021897
20
-14.847224660743208
30
0
10
42.385756771645106
20
-14.794203833767703
30
0
10
42.194876949867762
20
-14.629580080537927
30
0
0
SPLINE
5
107
100
AcDbEntity
8
0
100
AcDbSpline
70
4
71
3
72
8
73
4
74
0
42
0.000000001
43
0.0000000001
44
0.0000000001
40
0
40
0
40
0
40
0
40
1
40
1
40
1
40
1
41
1
41
1
41
1
41
1
10
42.194876949867762
20
-14.629580080537927
30
0
10
42.07713139144694
20
-14.528029835252891
30
0
10
41.989616545916761
20
-14.337277185945641
30
0
10
42.03045707631226
20
-14.271193929542036
30
0
0
SPLINE
5
108
100
AcDbEntity
8
0
100
AcDbSpline
70
4
71
3
72
8
73
4
74
0
42
0.000000001
43
0.0000000001
44
0.0000000001
40
0
40
0
40
0
40
0
40
1
40
1
40
1
40
1
41
1
41
1
41
1
41
1
10
42.03045707631226
20
-14.271193929542036
30
0
10
42.039928397418223
20
-14.255852488705447
30
0
10
42.024449691058351
20
-14.24301816227926
30
0
10
41.996043802183031
20
-14.242672979860435
30
0
0
SPLINE
5
109
100
AcDbEntity
8
0
100
AcDbSpline
70
4
71
3
72
8
73
4
74
0
42
0.000000001
43
0.0000000001
44
0.0000000001
40
0
40
0
40
0
40
0
40
1
40
1
40
1
40
1
41
1
41
1
41
1
41
1
10
41.996043802183031
20
-14.242672979860435
30
0
10
41.904007268827314
20
-14.241560725399783
30
0
10
41.695484790087896
20
-14.130490712353518
30
0
10
41.604663460335296
20
-14.034211059440107
30
0
0
LINE
5
110
100
AcDbEntity
8
0
100
AcDbLine
10
41.604663460335296
20
-14.034211059440107
30
0
11
41.516111048937994
21
-13.940337590405276
31
0
0
LINE
5
111
100
AcDbEntity
8
0
100
AcDbLine
10
41.516111048937994
20
-13.940337590405276
30
0
11
41.514786840360514
21
-15.161863482027185
31
0
0
LINE
5
112
100
AcDbEntity
8
0
100
AcDbLine
10
41.514786840360514
20
-15.161863482027185
30
0
11
41.513462631783042
21
-16.383389373649095
31
0
0
LINE
5
113
100
AcDbEntity
8
0
100
AcDbLine
10
41.513462631783042
20
-16.383389373649095
30
0
11
41.643323891243497
21
-16.306114939877322
31
0
0
SPLINE
5
114
100
AcDbEntity
8
0
100
AcDbSpline
70
4
71
3
72
8
73
4
74
0
42
0.000000001
43
0.0000000001
44
0.0000000001
40
0
40
0
40
0
40
0
40
1
40
1
40
1
40
1
41
1
41
1
41
1
41
1
10
40.38218882171428
20
-19.896637864936324
30
0
10
40.252069180092377
20
-20.12115177713725
30
0
10
39.961227759600831
20
-20.422891676454675
30
0
10
39.407292740425618
20
-20.908066761522424
30
0
0
SPLINE
5
115
100
AcDbEntity
8
0
100
AcDbSpline
70
4
71
3
72
8
73
4
74
0
42
0.000000001
43
0.0000000001
44
0.0000000001
40
0
40
0
40
0
40
0
40
1
40
1
40
1
40
1
41
1
41
1
41
1
41
1
10
39.407292740425618
20
-20.908066761522424
30
0
10
39.111154485624191
20
-21.1674440980245
30
0
10
38.803958281756593
20
-21.46034248275452
30
0
10
38.724630920967613
20
-21.558955649563604
30
0
0
SPLINE
5
116
100
AcDbEntity
8
0
100
AcDbSpline
70
4
71
3
72
8
73
4
74
0
42
0.000000001
43
0.0000000001
44
0.0000000001
40
0
40
0
40
0
40
0
40
1
40
1
40
1
40
1
41
1
41
1
41
1
41
1
10
38.724630920967613
20
-21.558955649563604
30
0
10
38.377298681816612
20
-21.990732427466845
30
0
10
38.281295578560389
20
-22.412169881690474
30
0
10
38.429140640180464
20
-22.856104751456709
30
0
0
SPLINE
5
117
100
AcDbEntity
8
0
100
AcDbSpline
70
4
71
3
72
8
73
4
74
0
42
0.000000001
43
0.0000000001
44
0.0000000001
40
0
40
0
40
0
40
0
40
1
40
1
40
1
40
1
41
1
41
1
41
1
41
1
10
38.429140640180464
20
-22.856104751456709
30
0
10
38.527010958275355
20
-23.149986199566655
30
0
10
38.668234977008062
20
-23.361197467673751
30
0
10
38.993986249845385
20
-23.700865042238366
30
0
0
LINE
5
118
100
AcDbEntity
8
0
100
AcDbLine
10
38.993986249845385
20
-23.700865042238366
30
0
11
39.2604711143982
21
-23.978734870780439
31
0
0
LINE
5
119
100
AcDbEntity
8
0
100
AcDbLine
10
39.2604711143982
20
-23.978734870780439
30
0
11
39.860063068947355
21
-24.261094089377853
31
0
0
SPLINE
5
120
100
AcDbEntity
8
0
100
AcDbSpline
70
4
71
3
72
8
73
4
74
0
42
0.000000001
43
0.0000000001
44
0.0000000001
40
0
40
0
40
0
40
0
40
1
40
1
40
1
40
1
41
1
41
1
41
1
41
1
10
39.860063068947355
20
-24.261094089377853
30
0
10
40.189843488614912
20
-24.416393880078129
30
0
10
40.552176023404947
20
-24.576687713492845
30
0
10
40.665254554034433
20
-24.617306196718349
30
0
0
SPLINE
5
121
100
AcDbEntity
8
0
100
AcDbSpline
70
4
71
3
72
8
73
4
74
0
42
0.000000001
43
0.0000000001
44
0.0000000001
40
0
40
0
40
0
40
0
40
1
40
1
40
1
40
1
41
1
41
1
41
1
41
1
10
40.665254554034433
20
-24.617306196718349
30
0
10
41.081915975492358
20
-24.766974063743085
30
0
10
41.641369876147465
20
-25.108898444999191
30
0
10
41.83049754389242
20
-25.329467992016607
30
0
0
SPLINE
5
122
100
AcDbEntity
8
0
100
AcDbSpline
70
4
71
3
72
8
73
4
74
0
42
0.000000001
43
0.0000000001
44
0.0000000001
40
0
40
0
40
0
40
0
40
1
40
1
40
1
40
1
41
1
41
1
41
1
41
1
10
41.83049754389242
20
-25.329467992016607
30
0
10
42.185312772672532
20
-25.743275098034673
30
0
10
42.362401446582041
20
-26.281299428173831
30
0
10
42.301613005877684
20
-26.760771938193773
30
0
0
SPLINE
5
123
100
AcDbEntity
8
0
100
AcDbSpline
70
4
71
3
72
8
73
4
74
0
42
0.000000001
43
0.0000000001
44
0.0000000001
40
0
40
0
40
0
40
0
40
1
40
1
40
1
40
1
41
1
41
1
41
1
41
1
10
33.870336620888267
20
-26.853595729697677
30
0
10
33.922380440315756
20
-26.420397849906418
30
0
10
33.805868252993776
20
-26.151627918113203
30
0
10
33.208535123746749
20
-25.326940691499843
30
0
0
SPLINE
5
124
100
AcDbEntity
8
0
100
AcDbSpline
70
4
71
3
72
8
73
4
74
0
42
0.000000001
43
0.0000000001
44
0.0000000001
40
0
40
0
40
0
40
0
40
1
40
1
40
1
40
1
41
1
41
1
41
1
41
1
10
33.208535123746749
20
-25.326940691499843
30
0
10
32.915903195620729
20
-24.922931921510827
30
0
10
32.837665884575401
20
-24.686459759899904
30
0
10
32.776933964968876
20
-24.022413567730716
30
0
0
SPLINE
5
125
100
AcDbEntity
8
0
100
AcDbSpline
70
4
71
3
72
8
73
4
74
0
42
0.000000001
43
0.0000000001
44
0.0000000001
40
0
40
0
40
0
40
0
40
1
40
1
40
1
40
1
41
1
41
1
41
1
41
1
10
32.776933964968876
20
-24.022413567730716
30
0
10
32.714421630781054
20
-23.338936229575609
30
0
10
32.77772727894898
20
-22.70730084978435
30
0
10
32.964549693347173
20
-22.152245501705934
30
0
0
SPLINE
5
126
100
AcDbEntity
8
0
100
AcDbSpline
70
4
71
3
72
8
73
4
74
0
42
0.000000001
43
0.0000000001
44
0.0000000001
40
0
40
0
40
0
40
0
40
1
40
1
40
1
40
1
41
1
41
1
41
1
41
1
10
32.964549693347173
20
-22.152245501705934
30
0
10
33.07790679224447
20
-21.81534342371318
30
0
10
33.283835356316125
20
-21.314225351839195
30
0
10
33.423525230965168
20
-21.035342180757652
30
0
0
SPLINE
5
127
100
AcDbEntity
8
0
100
AcDbSpline
70
4
71
3
72
8
73
4
74
0
42
0.000000001
43
0.0000000001
44
0.0000000001
40
0
40
0
40
0
40
0
40
1
40
1
40
1
40
1
41
1
41
1
41
1
41
1
10
33.423525230965168
20
-21.035342180757652
30
0
10
33.640332087756349
20
-20.602499576438401
30
0
10
33.790750877937825
20
-20.220243354667158
30
0
10
33.865992570798753
20
-19.910903386303715
30
0
0
SPLINE
5
128
100
AcDbEntity
8
0
100
AcDbSpline
70
4
71
3
72
8
73
4
74
0
42
0.000000001
43
0.0000000001
44
0.0000000001
40
0
40
0
40
0
40
0
40
1
40
1
40
1
40
1
41
1
41
1
41
1
41
1
10
33.865992570798753
20
-19.910903386303715
30
0
10
33.956533313672892
20
-19.538677640784712
30
0
10
33.956077107669074
20
-19.531049311189783
30
0
10
33.842709915718594
20
-19.520118534593713
30
0
0
SPLINE
5
129
100
AcDbEntity
8
0
100
AcDbSpline
70
4
71
3
72
8
73
4
74
0
42
0.000000001
43
0.0000000001
44
0.0000000001
40
0
40
0
40
0
40
0
40
1
40
1
40
1
40
1
41
1
41
1
41
1
41
1
10
33.842709915718594
20
-19.520118534593713
30
0
10
33.763402741035975
20
-19.512472037503056
30
0
10
33.733842206876631
20
-19.529644358186854
30
0
10
33.639340949933882
20
-19.638302131522629
30
0
0
SPLINE
5
130
100
AcDbEntity
8
0
100
AcDbSpline
70
4
71
3
72
8
73
4
74
0
42
0.000000001
43
0.0000000001
44
0.0000000001
40
0
40
0
40
0
40
0
40
1
40
1
40
1
40
1
41
1
41
1
41
1
41
1
10
33.639340949933882
20
-19.638302131522629
30
0
10
33.512883068006396
20
-19.783696599830122
30
0
10
33.465255968651334
20
-19.822346937685143
30
0
10
33.258051642657477
20
-19.947734955975346
30
0
0
SPLINE
5
131
100
AcDbEntity
8
0
100
AcDbSpline
70
4
71
3
72
8
73
4
74
0
42
0.000000001
43
0.0000000001
44
0.0000000001
40
0
40
0
40
0
40
0
40
1
40
1
40
1
40
1
41
1
41
1
41
1
41
1
10
33.258051642657477
20
-19.947734955975346
30
0
10
32.802013183515427
20
-20.223703253297938
30
0
10
32.137819632769776
20
-20.361215047070317
30
0
10
31.568547209979251
20
-20.297527881492108
30
0
0
SPLINE
5
132
100
AcDbEntity
8
0
100
AcDbSpline
70
4
71
3
72
8
73
4
74
0
42
0.000000001
43
0.0000000001
44
0.0000000001
40
0
40
0
40
0
40
0
40
1
40
1
40
1
40
1
41
1
41
1
41
1
41
1
10
31.568547209979251
20
-20.297527881492108
30
0
10
31.089347212395225
20
-20.243915601600143
30
0
10
30.432747674863691
20
-19.962539446382653
30
0
10
30.252691643318688
20
-19.733633037436935
30
0
0
SPLINE
5
133
100
AcDbEntity
8
0
100
AcDbSpline
70
4
71
3
72
8
73
4
74
0
42
0.000000001
43
0.0000000001
44
0.0000000001
40
0
40
0
40
0
40
0
40
1
40
1
40
1
40
1
41
1
41
1
41
1
41
1
10
30.252691643318688
20
-19.733633037436935
30
0
10
30.208005659660849
20
-19.676821259686285
30
0
10
30.188207126539108
20
-19.669925685752364
30
0
10
30.141520699740603
20
-19.694914066820274
30
0
0
SPLINE
5
134
100
AcDbEntity
8
0
100
AcDbSpline
70
4
71
3
72
8
73
4
74
0
42
0.000000001
43
0.0000000001
44
0.0000000001
40
0
40
0
40
0
40
0
40
1
40
1
40
1
40
1
41
1
41
1
41
1
41
1
10
30.141520699740603
20
-19.694914066820274
30
0
10
30.055681301038618
20
-19.740853607683313
30
0
10
29.668156505506392
20
-19.731349988807175
30
0
10
29.485762922844444
20
-19.678827758658858
30
0
0
SPLINE
5
135
100
AcDbEntity
8
0
100
AcDbSpline
70
4
71
3
72
8
73
4
74
0
42
0.000000001
43
0.0000000001
44
0.0000000001
40
0
40
0
40
0
40
0
40
1
40
1
40
1
40
1
41
1
41
1
41
1
41
1
10
29.485762922844444
20
-19.678827758658858
30
0
10
29.301613148928833
20
-19.62580289446208
30
0
10
29.078562729439295
20
-19.520166981248988
30
0
10
28.953154525042727
20
-19.42658822936707
30
0
0
SPLINE
5
136
100
AcDbEntity
8
0
100
AcDbSpline
70
4
71
3
72
8
73
4
74
0
42
0.000000001
43
0.0000000001
44
0.0000000001
40
0
40
0
40
0
40
0
40
1
40
1
40
1
40
1
41
1
41
1
41
1
41
1
10
28.953154525042727
20
-19.42658822936707
30
0
10
28.906044190010579
20
-19.391432106523645
30
0
10
28.764711166303513
20
-19.340117005535895
30
0
10
28.639080914736944
20
-19.312550858685306
30
0
0
SPLINE
5
137
100
AcDbEntity
8
0
100
AcDbSpline
70
4
71
3
72
8
73
4
74
0
42
0.000000001
43
0.0000000001
44
0.0000000001
40
0
40
0
40
0
40
0
40
1
40
1
40
1
40
1
41
1
41
1
41
1
41
1
10
28.639080914736944
20
-19.312550858685306
30
0
10
27.907280056557212
20
-19.151970382560222
30
0
10
27.213822707415773
20
-18.543300735979212
30
0
10
27.039814433337405
20
-17.908827189633183
30
0
0
SPLINE
5
138
100
AcDbEntity
8
0
100
AcDbSpline
70
4
71
3
72
8
73
4
74
0
42
0.000000001
43
0.0000000001
44
0.0000000001
40
0
40
0
40
0
40
0
40
1
40
1
40
1
40
1
41
1
41
1
41
1
41
1
10
27.039814433337405
20
-17.908827189633183
30
0
10
26.999240359545901
20
-17.760879178870649
30
0
10
26.993921320519007
20
-17.63175067507121
30
0
10
27.00512460955099
20
-17.066539696881108
30
0
0
SPLINE
5
139
100
AcDbEntity
8
0
100
AcDbSpline
70
4
71
3
72
8
73
4
74
0
42
0.000000001
43
0.0000000001
44
0.0000000001
40
0
40
0
40
0
40
0
40
1
40
1
40
1
40
1
41
1
41
1
41
1
41
1
10
27.00512460955099
20
-17.066539696881108
30
0
10
27.019850374143477
20
-16.323594089377849
30
0
10
27.046494015933227
20
-16.15488264960938
30
0
10
27.208128206810507
20
-15.781023848085534
30
0
0
SPLINE
5
140
100
AcDbEntity
8
0
100
AcDbSpline
70
4
71
3
72
8
73
4
74
0
42
0.000000001
43
0.0000000001
44
0.0000000001
40
0
40
0
40
0
40
0
40
1
40
1
40
1
40
1
41
1
41
1
41
1
41
1
10
27.208128206810507
20
-15.781023848085534
30
0
10
27.400192953031418
20
-15.336778112281293
30
0
10
27.559640988589479
20
-15.148736457058718
30
0
10
28.057488911232507
20
-14.779340803651939
30
0
0
SPLINE
5
141
100
AcDbEntity
8
0
100
AcDbSpline
70
4
71
3
72
8
73
4
74
0
42
0.000000001
43
0.0000000001
44
0.0000000001
40
0
40
0
40
0
40
0
40
1
40
1
40
1
40
1
41
1
41
1
41
1
41
1
10
28.057488911232507
20
-14.779340803651939
30
0
10
28.216190060855105
20
-14.661587170788577
30
0
10
28.627653559924319
20
-14.494763131965131
30
0
10
28.916232117892456
20
-14.431170841086836
30
0
0
SPLINE
5
142
100
AcDbEntity
8
0
100
AcDbSpline
70
4
71
3
72
8
73
4
74
0
42
0.000000001
43
0.0000000001
44
0.0000000001
40
0
40
0
40
0
40
0
40
1
40
1
40
1
40
1
41
1
41
1
41
1
41
1
10
28.916232117892456
20
-14.431170841086836
30
0
10
28.974140001218672
20
-14.418409184643558
30
0
10
29.008504828692629
20
-14.380257443615726
30
0
10
29.053291742882287
20
-14.279012008536787
30
0
0
SPLINE
5
143
100
AcDbEntity
8
0
100
AcDbSpline
70
4
71
3
72
8
73
4
74
0
42
0.000000001
43
0.0000000001
44
0.0000000001
40
0
40
0
40
0
40
0
40
1
40
1
40
1
40
1
41
1
41
1
41
1
41
1
10
29.053291742882287
20
-14.279012008536787
30
0
10
29.151828202487184
20
-14.056254287589521
30
0
10
29.273837066572064
20
-13.887304651765952
30
0
10
29.40332084584351
20
-13.794317352800501
30
0
0
SPLINE
5
144
100
AcDbEntity
8
0
100
AcDbSpline
70
4
71
3
72
8
73
4
74
0
42
0.000000001
43
0.0000000001
44
0.0000000001
40
0
40
0
40
0
40
0
40
1
40
1
40
1
40
1
41
1
41
1
41
1
41
1
10
29.40332084584351
20
-13.794317352800501
30
0
10
29.553452993314618
20
-13.686501340100101
30
0
10
29.853626450778201
20
-13.561399964520266
30
0
10
30.016798822960411
20
-13.538644166816205
30
0
0
SPLINE
5
145
100
AcDbEntity
8
0
100
AcDbSpline
70
4
71
3
72
8
73
4
74
0
42
0.000000001
43
0.0000000001
44
0.0000000001
40
0
40
0
40
0
40
0
40
1
40
1
40
1
40
1
41
1
41
1
41
1
41
1
10
30.016798822960411
20
-13.538644166816205
30
0
10
30.11327428110555
20
-13.525190126924645
30
0
10
30.149760668358358
20
-13.503041931022137
30
0
10
30.194380037865194
20
-13.430846321611533
30
0
0
SPLINE
5
146
100
AcDbEntity
8
0
100
AcDbSpline
70
4
71
3
72
8
73
4
74
0
42
0.000000001
43
0.0000000001
44
0.0000000001
40
0
40
0
40
0
40
0
40
1
40
1
40
1
40
1
41
1
41
1
41
1
41
1
10
30.194380037865194
20
-13.430846321611533
30
0
10
30.39315262723084
20
-13.10922714474691
30
0
10
31.090624992928063
20
-12.641202175645958
30
0
10
31.625029954196169
20
-12.470841530987551
30
0
0
SPLINE
5
147
100
AcDbEntity
8
0
100
AcDbSpline
70
4
71
3
72
8
73
4
74
0
42
0.000000001
43
0.0000000001
44
0.0000000001
40
0
40
0
40
0
40
0
40
1
40
1
40
1
40
1
41
1
41
1
41
1
41
1
10
31.625029954196169
20
-12.470841530987551
30
0
10
31.925161020836388
20
-12.375163424043784
30
0
10
32.41057430195923
20
-12.316466263958743
30
0
10
32.700624427081301
20
-12.340776391852826
30
0
0
LINE
5
148
100
AcDbEntity
8
0
100
AcDbLine
10
32.700624427081301
20
-12.340776391852826
30
0
11
32.907628910622158
21
-12.358128368883261
31
0
0
LINE
5
149
100
AcDbEntity
8
0
100
AcDbLine
10
32.907628910622158
20
-12.358128368883261
30
0
11
32.907628910622158
21
-12.236571673580936
31
0
0
SPLINE
5
150
100
AcDbEntity
8
0
100
AcDbSpline
70
4
71
3
72
8
73
4
74
0
42
0.000000001
43
0.0000000001
44
0.0000000001
40
0
40
0
40
0
40
0
40
1
40
1
40
1
40
1
41
1
41
1
41
1
41
1
10
32.907628910622158
20
-12.236571673580936
30
0
10
32.907628910622158
20
-12.087785939404299
30
0
10
33.000462795179246
20
-11.743798538077801
30
0
10
33.093950709582522
20
-11.54618463121745
30
0
0
LINE
5
151
100
AcDbEntity
8
0
100
AcDbLine
10
33.093950709582522
20
-11.54618463121745
30
0
11
33.16321529634908
21
-11.399770764538577
31
0
0
LINE
5
152
100
AcDbEntity
8
0
100
AcDbLine
10
33.16321529634908
20
-11.399770764538577
30
0
11
33.09966337768352
21
-11.272580126950075
31
0
0
SPLINE
5
153
100
AcDbEntity
8
0
100
AcDbSpline
70
4
71
3
72
8
73
4
74
0
42
0.000000001
43
0.0000000001
44
0.0000000001
40
0
40
0
40
0
40
0
40
1
40
1
40
1
40
1
41
1
41
1
41
1
41
1
10
33.09966337768352
20
-11.272580126950075
30
0
10
33.052401646853639
20
-11.17798803252869
30
0
10
33.033578102669274
20
-11.081995022325646
30
0
10
33.026226322731532
20
-10.898043072252403
30
0
0
SPLINE
5
154
100
AcDbEntity
8
0
100
AcDbSpline
70
4
71
3
72
8
73
4
74
0
42
0.000000001
43
0.0000000001
44
0.0000000001
40
0
40
0
40
0
40
0
40
1
40
1
40
1
40
1
41
1
41
1
41
1
41
1
10
33.026226322731532
20
-10.898043072252403
30
0
10
33.014346799136355
20
-10.600762283830772
30
0
10
33.060833383481857
20
-10.417353340018721
30
0
10
33.23184402076518
20
-10.086854294964603
30
0
0
LINE
5
155
100
AcDbEntity
8
0
100
AcDbLine
10
33.23184402076518
20
-10.086854294964603
30
0
11
33.351121704659022
21
-9.8563309788991322
31
0
0
LINE
5
156
100
AcDbEntity
8
0
100
AcDbLine
10
33.351121704659022
20
-9.8563309788991322
30
0
11
33.281554326296998
21
-9.6585717320729589
31
0
0
SPLINE
5
157
100
AcDbEntity
8
0
100
AcDbSpline
70
4
71
3
72
8
73
4
74
0
42
0.000000001
43
0.0000000001
44
0.0000000001
40
0
40
0
40
0
40
0
40
1
40
1
40
1
40
1
41
1
41
1
41
1
41
1
10
33.281554326296998
20
-9.6585717320729589
30
0
10
33.221395692111209
20
-9.4875510017364526
30
0
10
33.211821421862794
20
-9.4086959958363874
30
0
10
33.21075155822551
20
-9.0753587842275003
30
0
0
SPLINE
5
158
100
AcDbEntity
8
0
100
AcDbSpline
70
4
71
3
72
8
73
4
74
0
42
0.000000001
43
0.0000000001
44
0.0000000001
40
0
40
0
40
0
40
0
40
1
40
1
40
1
40
1
41
1
41
1
41
1
41
1
10
33.21075155822551
20
-9.0753587842275003
30
0
10
33.209164930265302
20
-8.5688106497416197
30
0
10
33.273346655449423
20
-8.3046270013142927
30
0
10
33.508908423663335
20
-7.8488893151570664
30
0
0
SPLINE
5
159
100
AcDbEntity
8
0
100
AcDbSpline
70
4
71
3
72
8
73
4
74
0
42
0.000000001
43
0.0000000001
44
0.0000000001
40
0
40
0
40
0
40
0
40
1
40
1
40
1
40
1
41
1
41
1
41
1
41
1
10
33.508908423663335
20
-7.8488893151570664
30
0
10
33.797656544924934
20
-7.290246895977786
30
0
10
34.232776142042034
20
-6.7790983478515638
30
0
10
34.658634353559364
20
-6.4982773105590841
30
0
0
SPLINE
5
160
100
AcDbEntity
8
0
100
AcDbSpline
70
4
71
3
72
8
73
4
74
0
42
0.000000001
43
0.0000000001
44
0.0000000001
40
0
40
0
40
0
40
0
40
1
40
1
40
1
40
1
41
1
41
1
41
1
41
1
10
34.658634353559364
20
-6.4982773105590841
30
0
10
34.747727752607219
20
-6.4395256479868586
30
0
10
34.889228320997113
20
-6.3463405251790386
30
0
10
34.97308140683289
20
-6.2912001570353207
30
0
0
SPLINE
5
161
100
AcDbEntity
8
0
100
AcDbSpline
70
4
71
3
72
8
73
4
74
0
42
0.000000001
43
0.0000000001
44
0.0000000001
40
0
40
0
40
0
40
0
40
1
40
1
40
1
40
1
41
1
41
1
41
1
41
1
10
34.97308140683289
20
-6.2912001570353207
30
0
10
35.25902769653117
20
-6.1031625390340185
30
0
10
35.844578195493575
20
-5.9346206625590021
30
0
10
36.211916884661868
20
-5.9346206625590021
30
0
0
SPLINE
5
162
100
AcDbEntity
8
0
100
AcDbSpline
70
4
71
3
72
8
73
4
74
0
42
0.000000001
43
0.0000000001
44
0.0000000001
40
0
40
0
40
0
40
0
40
1
40
1
40
1
40
1
41
1
41
1
41
1
41
1
10
36.211916884661868
20
-5.9346206625590021
30
0
10
36.357422376554368
20
-5.9346206625590021
30
0
10
36.377725562335208
20
-5.9260536790181497
30
0
10
36.483918612083947
20
-5.8198606292694111
30
0
0
SPLINE
5
163
100
AcDbEntity
8
0
100
AcDbSpline
70
4
71
3
72
8
73
4
74
0
42
0.000000001
43
0.0000000001
44
0.0000000001
40
0
40
0
40
0
40
0
40
1
40
1
40
1
40
1
41
1
41
1
41
1
41
1
10
36.483918612083947
20
-5.8198606292694111
30
0
10
36.54703451085205
20
-5.7567427118906682
30
0
10
36.660700457176716
20
-5.6702371716786715
30
0
10
36.736503323794558
20
-5.6276263197550467
30
0
0
LINE
5
164
100
AcDbEntity
8
0
100
AcDbLine
10
36.736503323794558
20
-5.6276263197550485
30
0
11
36.874330020826214
21
-5.5501510342249558
31
0
0
LINE
5
165
100
AcDbEntity
8
0
100
AcDbLine
10
36.874330020826214
20
-5.5501510342249558
30
0
11
36.78803643473104
21
-5.3972463250447609
31
0
0
SPLINE
5
166
100
AcDbEntity
8
0
100
AcDbSpline
70
4
71
3
72
8
73
4
74
0
42
0.000000001
43
0.0000000001
44
0.0000000001
40
0
40
0
40
0
40
0
40
1
40
1
40
1
40
1
41
1
41
1
41
1
41
1
10
36.78803643473104
20
-5.3972463250447609
30
0
10
36.683694450935874
20
-5.2123658140787779
30
0
10
36.558033920209766
20
-4.8363602201431286
30
0
10
36.490515431643679
20
-4.5070138017623922
30
0
0
SPLINE
5
167
100
AcDbEntity
8
0
100
AcDbSpline
70
4
71
3
72
8
73
4
74
0
42
0.000000001
43
0.0000000001
44
0.0000000001
40
0
40
0
40
0
40
0
40
1
40
1
40
1
40
1
41
1
41
1
41
1
41
1
10
36.490515431643679
20
-4.5070138017623922
30
0
10
36.432900246859745
20
-4.2259616335520436
30
0
10
36.445544823886109
20
-3.7519302885025043
30
0
10
36.518315737328088
20
-3.4648596326797501
30
0
0
SPLINE
5
168
100
AcDbEntity
8
0
100
AcDbSpline
70
4
71
3
72
8
73
4
74
0
42
0.000000001
43
0.0000000001
44
0.0000000001
40
0
40
0
40
0
40
0
40
1
40
1
40
1
40
1
41
1
41
1
41
1
41
1
10
36.518315737328088
20
-3.4648596326797501
30
0
10
36.593046721698002
20
-3.1700425585398366
30
0
10
36.838858994723516
20
-2.7236167232482922
30
0
10
37.052304864805102
20
-2.4950595339426687
30
0
0
SPLINE
5
169
100
AcDbEntity
8
0
100
AcDbSpline
70
4
71
3
72
8
73
4
74
0
42
0.000000001
43
0.0000000001
44
0.0000000001
40
0
40
0
40
0
40
0
40
1
40
1
40
1
40
1
41
1
41
1
41
1
41
1
10
37.052304864805102
20
-2.4950595339426687
30
0
10
37.267345437289435
20
-2.2647956093439752
30
0
10
37.66315662948405
20
-1.9694859942087819
30
0
10
37.918533079704801
20
-1.8487750967631034
30
0
0
SPLINE
5
170
100
AcDbEntity
8
0
100
AcDbSpline
70
4
71
3
72
8
73
4
74
0
42
0.000000001
43
0.0000000001
44
0.0000000001
40
0
40
0
40
0
40
0
40
1
40
1
40
1
40
1
41
1
41
1
41
1
41
1
10
37.918533079704801
20
-1.8487750967631034
30
0
10
38.125485079369106
20
-1.7509552439341238
30
0
10
38.444449783246874
20
-1.6805521607686371
30
0
10
38.684169889371745
20
-1.6797830701161716
30
0
0
LINE
5
171
100
AcDbEntity
8
0
100
AcDbLine
10
38.684169889371745
20
-1.6797830701161716
30
0
11
38.860753910622151
21
-1.6792269428858451
31
0
0
LINE
5
172
100
AcDbEntity
8
0
100
AcDbLine
10
38.860753910622151
20
-1.6792269428858451
30
0
11
38.946411634366868
21
-1.5336356600413015
31
0
0
SPLINE
5
173
100
AcDbEntity
8
0
100
AcDbSpline
70
4
71
3
72
8
73
4
74
0
42
0.000000001
43
0.0000000001
44
0.0000000001
40
0
40
0
40
0
40
0
40
1
40
1
40
1
40
1
41
1
41
1
41
1
41
1
10
38.946411634366868
20
-1.5336356600413015
30
0
10
39.058149807533773
20
-1.3437156876215628
30
0
10
39.263083196561688
20
-1.1661122679997773
30
0
10
39.522341435036225
20
-1.0345200499186209
30
0
0
SPLINE
5
174
100
AcDbEntity
8
0
100
AcDbSpline
70
4
71
3
72
8
73
4
74
0
42
0.000000001
43
0.0000000001
44
0.0000000001
40
0
40
0
40
0
40
0
40
1
40
1
40
1
40
1
41
1
41
1
41
1
41
1
10
39.522341435036225
20
-1.0345200499186209
30
0
10
39.701622320096845
20
-0.94352209173533219
30
0
10
39.766948597511806
20
-0.9262538870463064
30
0
10
39.986262568713386
20
-0.91189248167368675
30
0
0
LINE
5
175
100
AcDbEntity
8
0
100
AcDbLine
10
39.986262568713386
20
-0.91189248167368675
30
0
11
40.241519920906583
21
-0.8951763669937145
31
0
0
LINE
5
176
100
AcDbEntity
8
0
100
AcDbLine
10
40.241519920906583
20
-0.8951763669937145
30
0
11
40.47588869023437
21
-0.68103508554789316
31
0
0
SPLINE
5
177
100
AcDbEntity
8
0
100
AcDbSpline
70
4
71
3
72
8
73
4
74
0
42
0.000000001
43
0.0000000001
44
0.0000000001
40
0
40
0
40
0
40
0
40
1
40
1
40
1
40
1
41
1
41
1
41
1
41
1
10
40.47588869023437
20
-0.68103508554789316
30
0
10
40.738542231799322
20
-0.44105256004028415
30
0
10
40.933644987028003
20
-0.32573236229909347
30
0
10
41.330515949806724
20
-0.17588483892771489
30
0
0
SPLINE
5
178
100
AcDbEntity
8
0
100
AcDbSpline
70
4
71
3
72
8
73
4
74
0
42
0.000000001
43
0.0000000001
44
0.0000000001
40
0
40
0
40
0
40
0
40
1
40
1
40
1
40
1
41
1
41
1
41
1
41
1
10
41.330515949806724
20
-0.17588483892771489
30
0
10
41.620037198942057
20
-0.066566979913839558
30
0
10
41.81577783513184
20
-0.032767363418071321
30
0
10
42.315565642596439
20
-0.0057856043467212183
30
0
0
SPLINE
5
179
100
AcDbEntity
8
0
100
AcDbSpline
70
4
71
3
72
8
73
4
74
0
42
0.000000001
43
0.0000000001
44
0.0000000001
40
0
40
0
40
0
40
0
40
1
40
1
40
1
40
1
41
1
41
1
41
1
41
1
10
42.315565642596439
20
-0.0057856043467212183
30
0
10
42.579167931160491
20
0.0084466099451692457
30
0
10
42.699061291298428
20
-0.00094093881937746832
30
0
10
43.06163605936483
20
-0.064198140332032111
30
0
0
SPLINE
5
180
100
AcDbEntity
8
0
100
AcDbSpline
70
4
71
3
72
8
73
4
74
0
42
0.000000001
43
0.0000000001
44
0.0000000001
40
0
40
0
40
0
40
0
40
1
40
1
40
1
40
1
41
1
41
1
41
1
41
1
10
43.06163605936483
20
-0.064198140332032111
30
0
10
44.023701851448571
20
-0.23204561474812913
30
0
10
44.486234181007902
20
-0.406257768500774
30
0
10
45.116827957710782
20
-0.83828182620697123
30
0
0
SPLINE
5
181
100
AcDbEntity
8
0
100
AcDbSpline
70
4
71
3
72
8
73
4
74
0
42
0.000000001
43
0.0000000001
44
0.0000000001
40
0
40
0
40
0
40
0
40
1
40
1
40
1
40
1
41
1
41
1
41
1
41
1
10
45.116827957710782
20
-0.83828182620697123
30
0
10
45.467008456469735
20
-1.0781916817316701
30
0
10
45.723658650002044
20
-1.3191552520085663
30
0
10
45.962456251066087
20
-1.6322296500493376
30
0
0
SPLINE
5
182
100
AcDbEntity
8
0
100
AcDbSpline
70
4
71
3
72
8
73
4
74
0
42
0.000000001
43
0.0000000001
44
0.0000000001
40
0
40
0
40
0
40
0
40
1
40
1
40
1
40
1
41
1
41
1
41
1
41
1
10
45.962456251066087
20
-1.6322296500493376
30
0
10
46.137788733721933
20
-1.8621019641845715
30
0
10
46.384244943540452
20
-2.3389533082931528
30
0
10
46.384244943540452
20
-2.4483307163208021
30
0
0
SPLINE
5
183
100
AcDbEntity
8
0
100
AcDbSpline
70
4
71
3
72
8
73
4
74
0
42
0.000000001
43
0.0000000001
44
0.0000000001
40
0
40
0
40
0
40
0
40
1
40
1
40
1
40
1
41
1
41
1
41
1
41
1
10
46.384244943540452
20
-2.4483307163208021
30
0
10
46.384244943540452
20
-2.4823392590174369
30
0
10
46.406736303251144
20
-2.5177345872212742
30
0
10
46.434209594012458
20
-2.5269858797678642
30
0
0
SPLINE
5
184
100
AcDbEntity
8
0
100
AcDbSpline
70
4
71
3
72
8
73
4
74
0
42
0.000000001
43
0.0000000001
44
0.0000000001
40
0
40
0
40
0
40
0
40
1
40
1
40
1
40
1
41
1
41
1
41
1
41
1
10
46.434209594012458
20
-2.5269858797678642
30
0
10
46.686713561297609
20
-2.6119875550557463
30
0
10
47.008306496223966
20
-2.8700538039494843
30
0
10
47.138434212288416
20
-3.0921019832580581
30
0
0
SPLINE
5
185
100
AcDbEntity
8
0
100
AcDbSpline
70
4
71
3
72
8
73
4
74
0
42
0.000000001
43
0.0000000001
44
0.0000000001
40
0
40
0
40
0
40
0
40
1
40
1
40
1
40
1
41
1
41
1
41
1
41
1
10
47.138434212288416
20
-3.0921019832580581
30
0
10
47.179416045428475
20
-3.1620327115346285
30
0
10
47.220926754555265
20
-3.277464942166139
30
0
10
47.230676643929037
20
-3.3486179391830455
30
0
0
SPLINE
5
186
100
AcDbEntity
8
0
100
AcDbSpline
70
4
71
3
72
8
73
4
74
0
42
0.000000001
43
0.0000000001
44
0.0000000001
40
0
40
0
40
0
40
0
40
1
40
1
40
1
40
1
41
1
41
1
41
1
41
1
10
47.230676643929037
20
-3.3486179391830455
30
0
10
47.247132357836925
20
-3.4687394023228979
30
0
10
47.259203649442547
20
-3.4840788245488499
30
0
10
47.399420381467706
20
-3.5632123987167375
30
0
0
SPLINE
5
187
100
AcDbEntity
8
0
100
AcDbSpline
70
4
71
3
72
8
73
4
74
0
42
0.000000001
43
0.0000000001
44
0.0000000001
40
0
40
0
40
0
40
0
40
1
40
1
40
1
40
1
41
1
41
1
41
1
41
1
10
47.399420381467706
20
-3.5632123987167375
30
0
10
47.662239449104824
20
-3.7115378896682754
30
0
10
47.800728250425223
20
-3.9674543182342541
30
0
10
47.830862070005296
20
-4.3604616602549253
30
0
0
SPLINE
5
188
100
AcDbEntity
8
0
100
AcDbSpline
70
4
71
3
72
8
73
4
74
0
42
0.000000001
43
0.0000000001
44
0.0000000001
40
0
40
0
40
0
40
0
40
1
40
1
40
1
40
1
41
1
41
1
41
1
41
1
10
47.830862070005296
20
-4.3604616602549253
30
0
10
47.848484540861008
20
-4.5904540817230242
30
0
10
47.794232361397306
20
-4.8850713134099335
30
0
10
47.710778960467536
20
-5.0124325235972105
30
0
0
SPLINE
5
189
100
AcDbEntity
8
0
100
AcDbSpline
70
4
71
3
72
8
73
4
74
0
42
0.000000001
43
0.0000000001
44
0.0000000001
40
0
40
0
40
0
40
0
40
1
40
1
40
1
40
1
41
1
41
1
41
1
41
1
10
47.710778960467536
20
-5.0124325235972105
30
0
10
47.654665621997069
20
-5.0980700612355569
30
0
10
47.65432649541016
20
-5.0974957665095024
30
0
10
47.774954629819746
20
-5.1201274196594246
30
0
0
SPLINE
5
190
100
AcDbEntity
8
0
100
AcDbSpline
70
4
71
3
72
8
73
4
74
0
42
0.000000001
43
0.0000000001
44
0.0000000001
40
0
40
0
40
0
40
0
40
1
40
1
40
1
40
1
41
1
41
1
41
1
41
1
10
47.774954629819746
20
-5.1201274196594246
30
0
10
48.067249449969495
20
-5.1749619682917292
30
0
10
48.483099389951583
20
-5.4481203596084615
30
0
10
48.597397161405439
20
-5.6603641470560726
30
0
0
SPLINE
5
191
100
AcDbEntity
8
0
100
AcDbSpline
70
4
71
3
72
8
73
4
74
0
42
0.000000001
43
0.0000000001
44
0.0000000001
40
0
40
0
40
0
40
0
40
1
40
1
40
1
40
1
41
1
41
1
41
1
41
1
10
48.597397161405439
20
-5.6603641470560726
30
0
10
48.648169256132007
20
-5.7546413382181818
30
0
10
48.663450138649502
20
-5.763321363954673
30
0
10
48.778660322111008
20
-5.763321363954673
30
0
0
SPLINE
5
192
100
AcDbEntity
8
0
100
AcDbSpline
70
4
71
3
72
8
73
4
74
0
42
0.000000001
43
0.0000000001
44
0.0000000001
40
0
40
0
40
0
40
0
40
1
40
1
40
1
40
1
41
1
41
1
41
1
41
1
10
48.778660322111008
20
-5.763321363954673
30
0
10
49.152446453651933
20
-5.763321363954673
30
0
10
49.447183792671723
20
-6.0321377237925233
30
0
10
49.537815373024507
20
-6.4557108680694597
30
0
0
SPLINE
5
193
100
AcDbEntity
8
0
100
AcDbSpline
70
4
71
3
72
8
73
4
74
0
42
0.000000001
43
0.0000000001
44
0.0000000001
40
0
40
0
40
0
40
0
40
1
40
1
40
1
40
1
41
1
41
1
41
1
41
1
10
49.537815373024507
20
-6.4557108680694597
30
0
10
49.547048498075355
20
-6.4988950054138206
30
0
10
49.570791396380621
20
-6.5342287659932472
30
0
10
49.590565706174729
20
-6.5342287659932472
30
0
0
SPLINE
5
194
100
AcDbEntity
8
0
100
AcDbSpline
70
4
71
3
72
8
73
4
74
0
42
0.000000001
43
0.0000000001
44
0.0000000001
40
0
40
0
40
0
40
0
40
1
40
1
40
1
40
1
41
1
41
1
41
1
41
1
10
49.590565706174729
20
-6.5342287659932472
30
0
10
49.651317811887623
20
-6.5342287659932472
30
0
10
50.029007936399339
20
-6.7252397974619571
30
0
10
50.206254061938481
20
-6.8456034938781753
30
0
0
SPLINE
5
195
100
AcDbEntity
8
0
100
AcDbSpline
70
4
71
3
72
8
73
4
74
0
42
0.000000001
43
0.0000000001
44
0.0000000001
40
0
40
0
40
0
40
0
40
1
40
1
40
1
40
1
41
1
41
1
41
1
41
1
10
50.206254061938481
20
-6.8456034938781753
30
0
10
50.38798957753297
20
-6.9690193295766214
30
0
10
50.652544650317388
20
-7.2452399532287615
30
0
10
50.775647601367197
20
-7.4401125868448919
30
0
0
SPLINE
5
196
100
AcDbEntity
8
0
100
AcDbSpline
70
4
71
3
72
8
73
4
74
0
42
0.000000001
43
0.0000000001
44
0.0000000001
40
0
40
0
40
0
40
0
40
1
40
1
40
1
40
1
41
1
41
1
41
1
41
1
10
50.775647601367197
20
-7.4401125868448919
30
0
10
50.829395128171804
20
-7.5251909693369567
30
0
10
50.872246194761161
20
-7.5620205203979509
30
0
10
50.917523631335456
20
-7.5620548367787697
30
0
0
SPLINE
5
197
100
AcDbEntity
8
0
100
AcDbSpline
70
4
71
3
72
8
73
4
74
0
42
0.000000001
43
0.0000000001
44
0.0000000001
40
0
40
0
40
0
40
0
40
1
40
1
40
1
40
1
41
1
41
1
41
1
41
1
10
50.917523631335456
20
-7.5620548367787697
30
0
10
51.042863202970388
20
-7.5621537486999539
30
0
10
51.444138774157722
20
-7.7917000572174091
30
0
10
51.628579228004973
20
-7.9688109358439156
30
0
0
SPLINE
5
198
100
AcDbEntity
8
0
100
AcDbSpline
70
4
71
3
72
8
73
4
74
0
42
0.000000001
43
0.0000000001
44
0.0000000001
40
0
40
0
40
0
40
0
40
1
40
1
40
1
40
1
41
1
41
1
41
1
41
1
10
51.628579228004973
20
-7.9688109358439156
30
0
10
51.873703154803472
20
-8.2041890104899107
30
0
10
52.056657911222345
20
-8.5674581806152368
30
0
10
52.093332029264332
20
-8.891590527722169
30
0
0
SPLINE
5
199
100
AcDbEntity
8
0
100
AcDbSpline
70
4
71
3
72
8
73
4
74
0
42
0.000000001
43
0.0000000001
44
0.0000000001
40
0
40
0
40
0
40
0
40
1
40
1
40
1
40
1
41
1
41
1
41
1
41
1
10
52.093332029264332
20
-8.891590527722169
30
0
10
52.18129904357707
20
-9.6691331029225687
30
0
10
51.578493460894776
20
-10.572978127031456
30
0
10
50.818292769671636
20
-10.803388400901287
30
0
0
SPLINE
5
200
100
AcDbEntity
8
0
100
AcDbSpline
70
4
71
3
72
8
73
4
74
0
42
0.000000001
43
0.0000000001
44
0.0000000001
40
0
40
0
40
0
40
0
40
1
40
1
40
1
40
1
41
1
41
1
41
1
41
1
10
50.818292769671636
20
-10.803388400901287
30
0
10
50.576697374265549
20
-10.876613501736452
30
0
10
50.102885048470057
20
-10.915033717978925
30
0
10
49.909764568886317
20
-10.877061633297732
30
0
0
SPLINE
5
201
100
AcDbEntity
8
0
100
AcDbSpline
70
4
71
3
72
8
73
4
74
0
42
0.000000001
43
0.0000000001
44
0.0000000001
40
0
40
0
40
0
40
0
40
1
40
1
40
1
40
1
41
1
41
1
41
1
41
1
10
49.909764568886317
20
-10.877061633297732
30
0
10
49.815907248736579
20
-10.858607494859825
30
0
10
49.617057952166746
20
-10.831975964733889
30
0
10
49.467870514473482
20
-10.817884043881227
30
0
0
SPLINE
5
202
100
AcDbEntity
8
0
100
AcDbSpline
70
4
71
3
72
8
73
4
74
0
42
0.000000001
43
0.0000000001
44
0.0000000001
40
0
40
0
40
0
40
0
40
1
40
1
40
1
40
1
41
1
41
1
41
1
41
1
10
49.467870514473482
20
-10.817884043881227
30
0
10
49.104464078824876
20
-10.783553532788089
30
0
10
48.854245178780111
20
-10.701379931001792
30
0
10
48.645742886147062
20
-10.547888815431726
30
0
0
SPLINE
5
203
100
AcDbEntity
8
0
100
AcDbSpline
70
4
71
3
72
8
73
4
74
0
42
0.000000001
43
0.0000000001
44
0.0000000001
40
0
40
0
40
0
40
0
40
1
40
1
40
1
40
1
41
1
41
1
41
1
41
1
10
48.645742886147062
20
-10.547888815431726
30
0
10
48.551756374916586
20
-10.478700935869348
30
0
10
48.466401442767335
20
-10.408408876288862
30
0
10
48.456066156309006
20
-10.391680649945069
30
0
0
SPLINE
5
204
100
AcDbEntity
8
0
100
AcDbSpline
70
4
71
3
72
8
73
4
74
0
42
0.000000001
43
0.0000000001
44
0.0000000001
40
0
40
0
40
0
40
0
40
1
40
1
40
1
40
1
41
1
41
1
41
1
41
1
10
48.456066156309006
20
-10.391680649945069
30
0
10
48.443974678597009
20
-10.372104163993329
30
0
10
48.384348957619224
20
-10.391125532020062
30
0
10
48.288731408994551
20
-10.44506280822449
30
0
0
SPLINE
5
205
100
AcDbEntity
8
0
100
AcDbSpline
70
4
71
3
72
8
73
4
74
0
42
0.000000001
43
0.0000000001
44
0.0000000001
40
0
40
0
40
0
40
0
40
1
40
1
40
1
40
1
41
1
41
1
41
1
41
1
10
48.288731408994551
20
-10.44506280822449
30
0
10
48.109091211240639
20
-10.546401099392702
30
0
10
47.797902195534263
20
-10.600750172166952
30
0
10
47.504949308317066
20
-10.581948832699588
30
0
0
SPLINE
5
206
100
AcDbEntity
8
0
100
AcDbSpline
70
4
71
3
72
8
73
4
74
0
42
0.000000001
43
0.0000000001
44
0.0000000001
40
0
40
0
40
0
40
0
40
1
40
1
40
1
40
1
41
1
41
1
41
1
41
1
10
47.504949308317066
20
-10.581948832699588
30
0
10
47.391075445096845
20
-10.574641462195844
30
0
10
47.297900415342212
20
-10.570438714850873
30
0
10
47.297900415342212
20
-10.572610739895632
30
0
0
SPLINE
5
207
100
AcDbEntity
8
0
100
AcDbSpline
70
4
71
3
72
8
73
4
74
0
42
0.000000001
43
0.0000000001
44
0.0000000001
40
0
40
0
40
0
40
0
40
1
40
1
40
1
40
1
41
1
41
1
41
1
41
1
10
47.297900415342212
20
-10.572610739895632
30
0
10
47.297900415342212
20
-10.574780746329754
30
0
10
47.323593291522229
20
-10.626963849891155
30
0
10
47.35500691024577
20
-10.688567809292604
30
0
0
SPLINE
5
208
100
AcDbEntity
8
0
100
AcDbSpline
70
4
71
3
72
8
73
4
74
0
42
0.000000001
43
0.0000000001
44
0.0000000001
40
0
40
0
40
0
40
0
40
1
40
1
40
1
40
1
41
1
41
1
41
1
41
1
10
47.35500691024577
20
-10.688567809292604
30
0
10
47.386412454526777
20
-10.750171768694054
30
0
10
47.412113405149334
20
-10.81557273470256
30
0
10
47.412113405149334
20
-10.833901719281007
30
0
0
SPLINE
5
209
100
AcDbEntity
8
0
100
AcDbSpline
70
4
71
3
72
8
73
4
74
0
42
0.000000001
43
0.0000000001
44
0.0000000001
40
0
40
0
40
0
40
0
40
1
40
1
40
1
40
1
41
1
41
1
41
1
41
1
10
47.412113405149334
20
-10.833901719281007
30
0
10
47.412113405149334
20
-10.852232722470095
30
0
10
47.450919176023362
20
-10.883303177385459
30
0
10
47.498344414314779
20
-10.902948296098838
30
0
0
SPLINE
5
210
100
AcDbEntity
8
0
100
AcDbSpline
70
4
71
3
72
8
73
4
74
0
42
0.000000001
43
0.0000000001
44
0.0000000001
40
0
40
0
40
0
40
0
40
1
40
1
40
1
40
1
41
1
41
1
41
1
41
1
10
47.498344414314779
20
-10.902948296098838
30
0
10
47.545773689827477
20
-10.922593414812219
30
0
10
47.614144032082123
20
-10.973803548046877
30
0
10
47.650277162473557
20
-11.016747470725507
30
0
0
SPLINE
5
211
100
AcDbEntity
8
0
100
AcDbSpline
70
4
71
3
72
8
73
4
74
0
42
0.000000001
43
0.0000000001
44
0.0000000001
40
0
40
0
40
0
40
0
40
1
40
1
40
1
40
1
41
1
41
1
41
1
41
1
10
47.650277162473557
20
-11.016747470725507
30
0
10
47.705611317238372
20
-11.082507749427288
30
0
10
47.747194696348068
20
-11.098160056301882
30
0
10
47.913806781054689
20
-11.115952090451051
30
0
0
SPLINE
5
212
100
AcDbEntity
8
0
100
AcDbSpline
70
4
71
3
72
8
73
4
74
0
42
0.000000001
43
0.0000000001
44
0.0000000001
40
0
40
0
40
0
40
0
40
1
40
1
40
1
40
1
41
1
41
1
41
1
41
1
10
47.913806781054689
20
-11.115952090451051
30
0
10
48.198313801369224
20
-11.146330161918135
30
0
10
48.506587943316653
20
-11.269130321372479
30
0
10
48.81421209263916
20
-11.474620846936038
30
0
0
SPLINE
5
213
100
AcDbEntity
8
0
100
AcDbSpline
70
4
71
3
72
8
73
4
74
0
42
0.000000001
43
0.0000000001
44
0.0000000001
40
0
40
0
40
0
40
0
40
1
40
1
40
1
40
1
41
1
41
1
41
1
41
1
10
48.81421209263916
20
-11.474620846936038
30
0
10
49.123249269407154
20
-11.681058100888064
30
0
10
49.50220304417725
20
-12.04912348988546
30
0
10
49.664931322019456
20
-12.300896720120242
30
0
0
SPLINE
5
214
100
AcDbEntity
8
0
100
AcDbSpline
70
4
71
3
72
8
73
4
74
0
42
0.000000001
43
0.0000000001
44
0.0000000001
40
0
40
0
40
0
40
0
40
1
40
1
40
1
40
1
41
1
41
1
41
1
41
1
10
49.664931322019456
20
-12.300896720120242
30
0
10
49.804812964678966
20
-12.517318022279868
30
0
10
49.948384627581802
20
-12.85787782274577
30
0
10
49.97181665984904
20
-13.028840013373824
30
0
0
SPLINE
5
215
100
AcDbEntity
8
0
100
AcDbSpline
70
4
71
3
72
8
73
4
74
0
42
0.000000001
43
0.0000000001
44
0.0000000001
40
0
40
0
40
0
40
0
40
1
40
1
40
1
40
1
41
1
41
1
41
1
41
1
10
49.97181665984904
20
-13.028840013373824
30
0
10
49.984860921781419
20
-13.123906481294762
30
0
10
50.002289606016035
20
-13.158327829866538
30
0
10
50.037433617195646
20
-13.158327829866538
30
0
0
SPLINE
5
216
100
AcDbEntity
8
0
100
AcDbSpline
70
4
71
3
72
8
73
4
74
0
42
0.000000001
43
0.0000000001
44
0.0000000001
40
0
40
0
40
0
40
0
40
1
40
1
40
1
40
1
41
1
41
1
41
1
41
1
10
50.037433617195646
20
-13.158327829866538
30
0
10
50.112643012286384
20
-13.158327829866538
30
0
10
50.550903567553718
20
-13.313086632916262
30
0
10
50.723317139229337
20
-13.400526789852909
30
0
0
SPLINE
5
217
100
AcDbEntity
8
0
100
AcDbSpline
70
4
71
3
72
8
73
4
74
0
42
0.000000001
43
0.0000000001
44
0.0000000001
40
0
40
0
40
0
40
0
40
1
40
1
40
1
40
1
41
1
41
1
41
1
41
1
10
50.723317139229337
20
-13.400526789852909
30
0
10
50.897628204903157
20
-13.48893184267375
30
0
10
51.199240931750495
20
-13.763781829703778
30
0
10
51.330555590869139
20
-13.953884486386112
30
0
0
SPLINE
5
218
100
AcDbEntity
8
0
100
AcDbSpline
70
4
71
3
72
8
73
4
74
0
42
0.000000001
43
0.0000000001
44
0.0000000001
40
0
40
0
40
0
40
0
40
1
40
1
40
1
40
1
41
1
41
1
41
1
41
1
10
51.330555590869139
20
-13.953884486386112
30
0
10
51.4627745875529
20
-14.145299239982098
30
0
10
51.525739090523281
20
-14.383981780239871
30
0
10
51.5424854843628
20
-14.757249128847253
30
0
0
SPLINE
5
219
100
AcDbEntity
8
0
100
AcDbSpline
70
4
71
3
72
8
73
4
74
0
42
0.000000001
43
0.0000000001
44
0.0000000001
40
0
40
0
40
0
40
0
40
1
40
1
40
1
40
1
41
1
41
1
41
1
41
1
10
51.5424854843628
20
-14.757249128847253
30
0
10
51.556030361733001
20
-15.059225205609135
30
0
10
51.550079497576903
20
-15.112879876324465
30
0
10
51.468467069547529
20
-15.425243723421227
30
0
0
SPLINE
5
220
100
AcDbEntity
8
0
100
AcDbSpline
70
4
71
3
72
8
73
4
74
0
42
0.000000001
43
0.0000000001
44
0.0000000001
40
0
40
0
40
0
40
0
40
1
40
1
40
1
40
1
41
1
41
1
41
1
41
1
10
51.468467069547529
20
-15.425243723421227
30
0
10
51.34206167149658
20
-15.908987613547774
30
0
10
51.1981266586792
20
-16.200198439785769
30
0
10
50.967213750760919
20
-16.439383614092005
30
0
0
SPLINE
5
221
100
AcDbEntity
8
0
100
AcDbSpline
70
4
71
3
72
8
73
4
74
0
42
0.000000001
43
0.0000000001
44
0.0000000001
40
0
40
0
40
0
40
0
40
1
40
1
40
1
40
1
41
1
41
1
41
1
41
1
10
50.967213750760919
20
-16.439383614092005
30
0
10
50.864155603330488
20
-16.546131781765748
30
0
10
50.736696490527351
20
-16.656705216595462
30
0
10
50.683966343483476
20
-16.685103031028241
30
0
0
SPLINE
5
222
100
AcDbEntity
8
0
100
AcDbSpline
70
4
71
3
72
8
73
4
74
0
42
0.000000001
43
0.0000000001
44
0.0000000001
40
0
40
0
40
0
40
0
40
1
40
1
40
1
40
1
41
1
41
1
41
1
41
1
10
50.683966343483476
20
-16.685103031028241
30
0
10
50.599152398984785
20
-16.730778133897914
30
0
10
50.581259434303796
20
-16.762260385383101
30
0
10
50.52885630218303
20
-16.958059561281335
30
0
0
SPLINE
5
223
100
AcDbEntity
8
0
100
AcDbSpline
70
4
71
3
72
8
73
4
74
0
42
0.000000001
43
0.0000000001
44
0.0000000001
40
0
40
0
40
0
40
0
40
1
40
1
40
1
40
1
41
1
41
1
41
1
41
1
10
50.52885630218303
20
-16.958059561281335
30
0
10
50.400177948555509
20
-17.438842149604291
30
0
10
50.140770332893887
20
-17.670166854092411
30
0
10
49.675686479490153
20
-17.718879965969851
30
0
0
LINE
5
224
100
AcDbEntity
8
0
100
AcDbLine
10
49.675686479490153
20
-17.718879965969855
30
0
11
49.526599972328697
21
-17.73448988202108
31
0
0
LINE
5
225
100
AcDbEntity
8
0
100
AcDbLine
10
49.526599972328697
20
-17.73448988202108
30
0
11
49.360016148170985
21
-17.994686774441529
31
0
0
SPLINE
5
226
100
AcDbEntity
8
0
100
AcDbSpline
70
4
71
3
72
8
73
4
74
0
42
0.000000001
43
0.0000000001
44
0.0000000001
40
0
40
0
40
0
40
0
40
1
40
1
40
1
40
1
41
1
41
1
41
1
41
1
10
49.360016148170985
20
-17.994686774441533
30
0
10
49.1813973673991
20
-18.273676931886804
30
0
10
48.959584356229655
20
-18.490029601284796
30
0
10
48.644018992663582
20
-18.693051366040045
30
0
0
SPLINE
5
227
100
AcDbEntity
8
0
100
AcDbSpline
70
4
71
3
72
8
73
4
74
0
42
0.000000001
43
0.0000000001
44
0.0000000001
40
0
40
0
40
0
40
0
40
1
40
1
40
1
40
1
41
1
41
1
41
1
41
1
10
48.644018992663582
20
-18.693051366040045
30
0
10
48.432408039650468
20
-18.829192523190311
30
0
10
48.244075704496261
20
-18.904422104387415
30
0
10
47.868945178271488
20
-19.00265375378622
30
0
0
SPLINE
5
228
100
AcDbEntity
8
0
100
AcDbSpline
70
4
71
3
72
8
73
4
74
0
42
0.000000001
43
0.0000000001
44
0.0000000001
40
0
40
0
40
0
40
0
40
1
40
1
40
1
40
1
41
1
41
1
41
1
41
1
10
47.868945178271488
20
-19.00265375378622
30
0
10
47.624277457476808
20
-19.066722436774704
30
0
10
47.559867629290778
20
-19.072215076316329
30
0
10
47.211532140653489
20
-19.058716626990766
30
0
0
SPLINE
5
229
100
AcDbEntity
8
0
100
AcDbSpline
70
4
71
3
72
8
73
4
74
0
42
0.000000001
43
0.0000000001
44
0.0000000001
40
0
40
0
40
0
40
0
40
1
40
1
40
1
40
1
41
1
41
1
41
1
41
1
10
47.211532140653489
20
-19.058716626990766
30
0
10
46.960731880745442
20
-19.049007109829716
30
0
10
46.77573429036255
20
-19.026903323361211
30
0
10
46.683782538653567
20
-18.995685509869389
30
0
0
SPLINE
5
230
100
AcDbEntity
8
0
100
AcDbSpline
70
4
71
3
72
8
73
4
74
0
42
0.000000001
43
0.0000000001
44
0.0000000001
40
0
40
0
40
0
40
0
40
1
40
1
40
1
40
1
41
1
41
1
41
1
41
1
10
46.683782538653567
20
-18.995685509869389
30
0
10
46.546779434761561
20
-18.949172683585616
30
0
10
46.535010934751391
20
-18.949695503740443
30
0
10
46.319730147601319
20
-19.01190504633281
30
0
0
SPLINE
5
231
100
AcDbEntity
8
0
100
AcDbSpline
70
4
71
3
72
8
73
4
74
0
42
0.000000001
43
0.0000000001
44
0.0000000001
40
0
40
0
40
0
40
0
40
1
40
1
40
1
40
1
41
1
41
1
41
1
41
1
10
46.319730147601319
20
-19.01190504633281
30
0
10
46.134591254473882
20
-19.065400246807865
30
0
10
46.050665498655192
20
-19.073878411480717
30
0
10
45.819603213549804
20
-19.062408665844728
30
0
0
SPLINE
5
232
100
AcDbEntity
8
0
100
AcDbSpline
70
4
71
3
72
8
73
4
74
0
42
0.000000001
43
0.0000000001
44
0.0000000001
40
0
40
0
40
0
40
0
40
1
40
1
40
1
40
1
41
1
41
1
41
1
41
1
10
45.819603213549804
20
-19.062408665844728
30
0
10
45.425130360207113
20
-19.042830161282353
30
0
10
45.160429947456876
20
-18.930920406211349
30
0
10
44.944680842639158
20
-18.692508359778852
30
0
0
SPLINE
5
233
100
AcDbEntity
8
0
100
AcDbSpline
70
4
71
3
72
8
73
4
74
0
42
0.000000001
43
0.0000000001
44
0.0000000001
40
0
40
0
40
0
40
0
40
1
40
1
40
1
40
1
41
1
41
1
41
1
41
1
10
44.944680842639158
20
-18.692508359778852
30
0
10
44.816200312854008
20
-18.550535436500045
30
0
10
44.781165306648766
20
-18.526326239137781
30
0
10
44.737700582425944
20
-18.549493833411667
30
0
0
SPLINE
5
234
100
AcDbEntity
8
0
100
AcDbSpline
70
4
71
3
72
8
73
4
74
0
42
0.000000001
43
0.0000000001
44
0.0000000001
40
0
40
0
40
0
40
0
40
1
40
1
40
1
40
1
41
1
41
1
41
1
41
1
10
44.737700582425944
20
-18.549493833411667
30
0
10
44.447824057818607
20
-18.704002328742476
30
0
10
43.917688458046477
20
-18.765571971763105
30
0
10
43.580087940773524
20
-18.683933301795456
30
0
0
SPLINE
5
235
100
AcDbEntity
8
0
100
AcDbSpline
70
4
71
3
72
8
73
4
74
0
42
0.000000001
43
0.0000000001
44
0.0000000001
40
0
40
0
40
0
40
0
40
1
40
1
40
1
40
1
41
1
41
1
41
1
41
1
10
43.580087940773524
20
-18.683933301795456
30
0
10
43.301685199023439
20
-18.616610618461106
30
0
10
43.196450989326991
20
-18.559058010606897
30
0
10
43.033791344246424
20
-18.385162778724165
30
0
0
SPLINE
5
236
100
AcDbEntity
8
0
100
AcDbSpline
70
4
71
3
72
8
73
4
74
0
42
0.000000001
43
0.0000000001
44
0.0000000001
40
0
40
0
40
0
40
0
40
1
40
1
40
1
40
1
41
1
41
1
41
1
41
1
10
43.033791344246424
20
-18.385162778724165
30
0
10
42.862035839638267
20
-18.201543899405927
30
0
10
42.761751263222259
20
-17.984906605908208
30
0
10
42.718242129565439
20
-17.703512283194989
30
0
0
SPLINE
5
237
100
AcDbEntity
8
0
100
AcDbSpline
70
4
71
3
72
8
73
4
74
0
42
0.000000001
43
0.0000000001
44
0.0000000001
40
0
40
0
40
0
40
0
40
1
40
1
40
1
40
1
41
1
41
1
41
1
41
1
10
42.718242129565439
20
-17.703512283194989
30
0
10
42.698475894213871
20
-17.575697894919845
30
0
10
42.67513268081462
20
-17.499372208147179
30
0
10
42.662197423856611
20
-17.520301163225305
30
0
0
SPLINE
5
238
100
AcDbEntity
8
0
100
AcDbSpline
70
4
71
3
72
8
73
4
74
0
42
0.000000001
43
0.0000000001
44
0.0000000001
40
0
40
0
40
0
40
0
40
1
40
1
40
1
40
1
41
1
41
1
41
1
41
1
10
42.662197423856611
20
-17.520301163225305
30
0
10
42.650000978391525
20
-17.540039138027957
30
0
10
42.586289589485688
20
-17.58315464261068
30
0
10
42.520616111041264
20
-17.6161306659668
30
0
0
SPLINE
5
239
100
AcDbEntity
8
0
100
AcDbSpline
70
4
71
3
72
8
73
4
74
0
42
0.000000001
43
0.0000000001
44
0.0000000001
40
0
40
0
40
0
40
0
40
1
40
1
40
1
40
1
41
1
41
1
41
1
41
1
10
42.520616111041264
20
-17.6161306659668
30
0
10
42.389224744718426
20
-17.682098861564132
30
0
10
42.231748891752119
20
-17.796479396054082
30
0
10
41.801611225685633
20
-18.138375516761272
30
0
0
SPLINE
5
240
100
AcDbEntity
8
0
100
AcDbSpline
70
4
71
3
72
8
73
4
74
0
42
0.000000001
43
0.0000000001
44
0.0000000001
40
0
40
0
40
0
40
0
40
1
40
1
40
1
40
1
41
1
41
1
41
1
41
1
10
41.147367406766769
20
-18.768827990719608
30
0
10
40.969071603696705
20
-18.995780384569297
30
0
10
40.524670434873457
20
-19.65079329414063
30
0
10
40.38218882171428
20
-19.896637864936324
30
0
0
SPLINE
5
241
100
AcDbEntity
8
0
100
AcDbSpline
70
4
71
3
72
8
73
4
74
0
42
0.000000001
43
0.0000000001
44
0.0000000001
40
0
40
0
40
0
40
0
40
1
40
1
40
1
40
1
41
1
41
1
41
1
41
1
10
41.801611225685633
20
-18.138375516761272
30
0
10
41.418414331357837
20
-18.442963675686649
30
0
10
41.356491431475831
20
-18.502635824709067
30
0
10
41.147367406766769
20
-18.768827990719608
30
0
0
SPLINE
5
242
100
AcDbEntity
8
0
100
AcDbSpline
70
4
71
3
72
8
73
4
74
0
42
0.000000001
43
0.0000000001
44
0.0000000001
40
0
40
0
40
0
40
0
40
1
40
1
40
1
40
1
41
1
41
1
41
1
41
1
10
40.045969034116624
20
-10.872009050874841
30
0
10
40.061762643735761
20
-10.760670562613935
30
0
10
40.067479349058033
20
-10.657909150947065
30
0
10
40.058670132240806
20
-10.643649685411582
30
0
0
SPLINE
5
243
100
AcDbEntity
8
0
100
AcDbSpline
70
4
71
3
72
8
73
4
74
0
42
0.000000001
43
0.0000000001
44
0.0000000001
40
0
40
0
40
0
40
0
40
1
40
1
40
1
40
1
41
1
41
1
41
1
41
1
10
40.058670132240806
20
-10.643649685411582
30
0
10
40.049860915423579
20
-10.629392238486737
30
0
10
39.947864557187913
20
-10.700388793179323
30
0
10
39.832020529986572
20
-10.801422274141441
30
0
0
SPLINE
5
244
100
AcDbEntity
8
0
100
AcDbSpline
70
4
71
3
72
8
73
4
74
0
42
0.000000001
43
0.0000000001
44
0.0000000001
40
0
40
0
40
0
40
0
40
1
40
1
40
1
40
1
41
1
41
1
41
1
41
1
10
39.832020529986572
20
-10.801422274141441
30
0
10
39.553137358905033
20
-11.04464466972046
30
0
10
39.355107618253584
20
-11.173377525835166
30
0
10
39.100395290932212
20
-11.277035200624596
30
0
0
SPLINE
5
245
100
AcDbEntity
8
0
100
AcDbSpline
70
4
71
3
72
8
73
4
74
0
42
0.000000001
43
0.0000000001
44
0.0000000001
40
0
40
0
40
0
40
0
40
1
40
1
40
1
40
1
41
1
41
1
41
1
41
1
10
39.100395290932212
20
-11.277035200624596
30
0
10
38.887843665362553
20
-11.363532666394045
30
0
10
38.501814660311894
20
-11.433818670142621
30
0
10
38.373751982928468
20
-11.409338978955081
30
0
0
SPLINE
5
246
100
AcDbEntity
8
0
100
AcDbSpline
70
4
71
3
72
8
73
4
74
0
42
0.000000001
43
0.0000000001
44
0.0000000001
40
0
40
0
40
0
40
0
40
1
40
1
40
1
40
1
41
1
41
1
41
1
41
1
10
38.373751982928468
20
-11.409338978955081
30
0
10
38.328135419767257
20
-11.400618581005862
30
0
10
38.303996873777265
20
-11.409110875953168
30
0
10
38.303996873777265
20
-11.433879228461715
30
0
0
SPLINE
5
247
100
AcDbEntity
8
0
100
AcDbSpline
70
4
71
3
72
8
73
4
74
0
42
0.000000001
43
0.0000000001
44
0.0000000001
40
0
40
0
40
0
40
0
40
1
40
1
40
1
40
1
41
1
41
1
41
1
41
1
10
38.303996873777265
20
-11.433879228461715
30
0
10
38.303996873777265
20
-11.534466596473187
30
0
10
37.989878854037478
20
-11.787814343004356
30
0
10
37.86516707031047
20
-11.787814343004356
30
0
0
SPLINE
5
248
100
AcDbEntity
8
0
100
AcDbSpline
70
4
71
3
72
8
73
4
74
0
42
0.000000001
43
0.0000000001
44
0.0000000001
40
0
40
0
40
0
40
0
40
1
40
1
40
1
40
1
41
1
41
1
41
1
41
1
10
37.86516707031047
20
-11.787814343004356
30
0
10
37.831940739235435
20
-11.787814343004356
30
0
10
37.835588368655394
20
-11.811714692939253
30
0
10
37.883687822899375
20
-11.909161102800498
30
0
0
SPLINE
5
249
100
AcDbEntity
8
0
100
AcDbSpline
70
4
71
3
72
8
73
4
74
0
42
0.000000001
43
0.0000000001
44
0.0000000001
40
0
40
0
40
0
40
0
40
1
40
1
40
1
40
1
41
1
41
1
41
1
41
1
10
37.883687822899375
20
-11.909161102800498
30
0
10
37.927846949181117
20
-11.998621888984173
30
0
10
37.946666456144207
20
-12.101782985557051
30
0
10
37.955316202721157
20
-12.301752611030071
30
0
0
SPLINE
5
250
100
AcDbEntity
8
0
100
AcDbSpline
70
4
71
3
72
8
73
4
74
0
42
0.000000001
43
0.0000000001
44
0.0000000001
40
0
40
0
40
0
40
0
40
1
40
1
40
1
40
1
41
1
41
1
41
1
41
1
10
37.955316202721157
20
-12.301752611030071
30
0
10
37.975397341331991
20
-12.766133987932335
30
0
10
37.857914202293905
20
-13.072104895143639
30
0
10
37.554926801603195
20
-13.344518419135543
30
0
0
LINE
5
251
100
AcDbEntity
8
0
100
AcDbLine
10
37.554926801603195
20
-13.344518419135543
30
0
11
37.41149644144491
21
-13.473473322420251
31
0
0
LINE
5
252
100
AcDbEntity
8
0
100
AcDbLine
10
37.41149644144491
20
-13.473473322420251
30
0
11
37.505587920428468
21
-13.650006878404747
31
0
0
SPLINE
5
253
100
AcDbEntity
8
0
100
AcDbSpline
70
4
71
3
72
8
73
4
74
0
42
0.000000001
43
0.0000000001
44
0.0000000001
40
0
40
0
40
0
40
0
40
1
40
1
40
1
40
1
41
1
41
1
41
1
41
1
10
37.505587920428468
20
-13.650006878404747
30
0
10
37.557341059924319
20
-13.747100031404624
30
0
10
37.667496642352297
20
-13.934552252321373
30
0
10
37.750382813693243
20
-14.066567369330853
30
0
0
SPLINE
5
254
100
AcDbEntity
8
0
100
AcDbSpline
70
4
71
3
72
8
73
4
74
0
42
0.000000001
43
0.0000000001
44
0.0000000001
40
0
40
0
40
0
40
0
40
1
40
1
40
1
40
1
41
1
41
1
41
1
41
1
10
37.750382813693243
20
-14.066567369330853
30
0
10
37.833268985034181
20
-14.198582486340335
30
0
10
37.908924493075567
20
-14.342281321713259
30
0
10
37.918504819155885
20
-14.385897441733809
30
0
0
SPLINE
5
255
100
AcDbEntity
8
0
100
AcDbSpline
70
4
71
3
72
8
73
4
74
0
42
0.000000001
43
0.0000000001
44
0.0000000001
40
0
40
0
40
0
40
0
40
1
40
1
40
1
40
1
41
1
41
1
41
1
41
1
10
37.918504819155885
20
-14.385897441733809
30
0
10
37.931549081088257
20
-14.445315245816044
30
0
10
37.957451892774458
20
-14.46950627568258
30
0
10
38.021776939313767
20
-14.48237289987895
30
0
0
SPLINE
5
256
100
AcDbEntity
8
0
100
AcDbSpline
70
4
71
3
72
8
73
4
74
0
42
0.000000001
43
0.0000000001
44
0.0000000001
40
0
40
0
40
0
40
0
40
1
40
1
40
1
40
1
41
1
41
1
41
1
41
1
10
38.021776939313767
20
-14.48237289987895
30
0
10
38.135725491127523
20
-14.505160995353192
30
0
10
38.390908154727171
20
-14.676755011110437
30
0
10
38.508988802513635
20
-14.809991387554934
30
0
0
SPLINE
5
257
100
AcDbEntity
8
0
100
AcDbSpline
70
4
71
3
72
8
73
4
74
0
42
0.000000001
43
0.0000000001
44
0.0000000001
40
0
40
0
40
0
40
0
40
1
40
1
40
1
40
1
41
1
41
1
41
1
41
1
10
38.508988802513635
20
-14.809991387554934
30
0
10
38.568600393216961
20
-14.877249475348922
30
0
10
38.611164817095947
20
-14.905187046556602
30
0
10
38.623647905271412
20
-14.885245192079674
30
0
0
SPLINE
5
258
100
AcDbEntity
8
0
100
AcDbSpline
70
4
71
3
72
8
73
4
74
0
42
0.000000001
43
0.0000000001
44
0.0000000001
40
0
40
0
40
0
40
0
40
1
40
1
40
1
40
1
41
1
41
1
41
1
41
1
10
38.623647905271412
20
-14.885245192079674
30
0
10
38.634576663256837
20
-14.867800358959965
30
0
10
38.656563370308433
20
-14.749414900967411
30
0
10
38.672506357114671
20
-14.622163705059815
30
0
0
SPLINE
5
259
100
AcDbEntity
8
0
100
AcDbSpline
70
4
71
3
72
8
73
4
74
0
42
0.000000001
43
0.0000000001
44
0.0000000001
40
0
40
0
40
0
40
0
40
1
40
1
40
1
40
1
41
1
41
1
41
1
41
1
10
39.314795963844816
20
-12.70148394508057
30
0
10
39.924755502622482
20
-11.510441092678835
30
0
10
39.972289745888276
20
-11.391504553982546
30
0
10
40.045969034116624
20
-10.872009050874841
30
0
0
SPLINE
5
260
100
AcDbEntity
8
0
100
AcDbSpline
70
4
71
3
72
8
73
4
74
0
42
0.000000001
43
0.0000000001
44
0.0000000001
40
0
40
0
40
0
40
0
40
1
40
1
40
1
40
1
41
1
41
1
41
1
41
1
10
38.672506357114671
20
-14.622163705059815
30
0
10
38.745632546028652
20
-14.038985073595176
30
0
10
38.963529452563478
20
-13.387387653220625
30
0
10
39.314795963844816
20
-12.70148394508057
30
0
0
SPLINE
5
261
100
AcDbEntity
8
0
100
AcDbSpline
70
4
71
3
72
8
73
4
74
0
42
0.000000001
43
0.0000000001
44
0.0000000001
40
0
40
0
40
0
40
0
40
1
40
1
40
1
40
1
41
1
41
1
41
1
41
1
10
42.935791835070809
20
-10.071609747438561
30
0
10
42.931427598874919
20
-10.083864732612104
30
0
10
43.034199103594979
20
-10.088101796337893
30
0
10
43.164209740242526
20
-10.081026566057334
30
0
0
SPLINE
5
262
100
AcDbEntity
8
0
100
AcDbSpline
70
4
71
3
72
8
73
4
74
0
42
0.000000001
43
0.0000000001
44
0.0000000001
40
0
40
0
40
0
40
0
40
1
40
1
40
1
40
1
41
1
41
1
41
1
41
1
10
43.164209740242526
20
-10.081026566057334
30
0
10
43.342893116554777
20
-10.071300900011193
30
0
10
43.414917144061285
20
-10.055073289105227
30
0
10
43.459298317513024
20
-10.01453555030518
30
0
0
SPLINE
5
263
100
AcDbEntity
8
0
100
AcDbSpline
70
4
71
3
72
8
73
4
74
0
42
0.000000001
43
0.0000000001
44
0.0000000001
40
0
40
0
40
0
40
0
40
1
40
1
40
1
40
1
41
1
41
1
41
1
41
1
10
43.459298317513024
20
-10.01453555030518
30
0
10
43.555497226000981
20
-9.9266795595774369
30
0
10
43.957047328234864
20
-9.7667228341389993
30
0
10
44.274425404152424
20
-9.6898299177775087
30
0
0
SPLINE
5
264
100
AcDbEntity
8
0
100
AcDbSpline
70
4
71
3
72
8
73
4
74
0
42
0.000000001
43
0.0000000001
44
0.0000000001
40
0
40
0
40
0
40
0
40
1
40
1
40
1
40
1
41
1
41
1
41
1
41
1
10
44.274425404152424
20
-9.6898299177775087
30
0
10
44.504296708982345
20
-9.6341384689300558
30
0
10
44.646132366737881
20
-9.6179169138559999
30
0
10
44.903412366788743
20
-9.6178886533070909
30
0
0
LINE
5
265
100
AcDbEntity
8
0
100
AcDbLine
10
44.903412366788743
20
-9.6178886533070909
30
0
11
45.235598970334877
21
-9.6178523183156344
31
0
0
LINE
5
266
100
AcDbEntity
8
0
100
AcDbLine
10
45.235598970334877
20
-9.6178523183156344
30
0
11
45.124143402657069
21
-9.4965055585194929
31
0
0
SPLINE
5
267
100
AcDbEntity
8
0
100
AcDbSpline
70
4
71
3
72
8
73
4
74
0
42
0.000000001
43
0.0000000001
44
0.0000000001
40
0
40
0
40
0
40
0
40
1
40
1
40
1
40
1
41
1
41
1
41
1
41
1
10
45.124143402657069
20
-9.4965055585194929
30
0
10
45.062838197629809
20
-9.4297642350484239
30
0
10
44.986926326037597
20
-9.3222812931030301
30
0
10
44.955440037331144
20
-9.2576534549682634
30
0
0
SPLINE
5
268
100
AcDbEntity
8
0
100
AcDbSpline
70
4
71
3
72
8
73
4
74
0
42
0.000000001
43
0.0000000001
44
0.0000000001
40
0
40
0
40
0
40
0
40
1
40
1
40
1
40
1
41
1
41
1
41
1
41
1
10
44.955440037331144
20
-9.2576534549682634
30
0
10
44.883157627663181
20
-9.1092774987508172
30
0
10
44.815057779233811
20
-8.7915502031931574
30
0
10
44.814411823830163
20
-8.5996752063720727
30
0
0
SPLINE
5
269
100
AcDbEntity
8
0
100
AcDbSpline
70
4
71
3
72
8
73
4
74
0
42
0.000000001
43
0.0000000001
44
0.0000000001
40
0
40
0
40
0
40
0
40
1
40
1
40
1
40
1
41
1
41
1
41
1
41
1
10
44.814411823830163
20
-8.5996752063720727
30
0
10
44.81414536722616
20
-8.4889443199127221
30
0
10
44.795097757261154
20
-8.423609968055219
30
0
10
44.738205235085047
20
-8.3367047429372185
30
0
0
LINE
5
270
100
AcDbEntity
8
0
100
AcDbLine
10
44.738205235085047
20
-8.3367047429372185
30
0
11
44.662499261777754
21
-8.2210706512420693
31
0
0
LINE
5
271
100
AcDbEntity
8
0
100
AcDbLine
10
44.662499261777754
20
-8.2210706512420693
30
0
11
44.574031632027186
21
-8.2839988192209901
31
0
0
SPLINE
5
272
100
AcDbEntity
8
0
100
AcDbSpline
70
4
71
3
72
8
73
4
74
0
42
0.000000001
43
0.0000000001
44
0.0000000001
40
0
40
0
40
0
40
0
40
1
40
1
40
1
40
1
41
1
41
1
41
1
41
1
10
43.228345037381999
20
-9.683691322832237
30
0
10
43.071817931414799
20
-9.8847913702616399
30
0
10
42.940168182930506
20
-10.059354762265016
30
0
10
42.935791835070809
20
-10.071609747438561
30
0
0
SPLINE
5
273
100
AcDbEntity
8
0
100
AcDbSpline
70
4
71
3
72
8
73
4
74
0
42
0.000000001
43
0.0000000001
44
0.0000000001
40
0
40
0
40
0
40
0
40
1
40
1
40
1
40
1
41
1
41
1
41
1
41
1
10
44.574031632027186
20
-8.2839988192209901
30
0
10
44.375868663073739
20
-8.4249523441284211
30
0
10
43.494724934181725
20
-9.3414601127594015
30
0
10
43.228345037381999
20
-9.683691322832237
30
0
0
LINE
5
274
100
AcDbEntity
8
0
100
AcDbLine
10
42.475710068713745
20
-27.03928318026556
30
0
11
42.475710068713745
21
-30.539283180265564
31
0
0
LINE
5
275
100
AcDbEntity
8
0
100
AcDbLine
10
42.475710068713745
20
-30.539283180265564
30
0
11
33.509185368608271
21
-30.539283180265564
31
0
0
LINE
5
276
100
AcDbEntity
8
0
100
AcDbLine
10
33.509185368608271
20
-30.539283180265564
30
0
11
33.509185368608271
21
-27.03928318026556
31
0
0
LINE
5
277
100
AcDbEntity
8
0
100
AcDbLine
10
33.509185368608271
20
-27.03928318026556
30
0
11
33.855884378037018
21
-27.039283180265222
31
0
0
LINE
5
278
100
AcDbEntity
8
0
100
AcDbLine
10
42.237256725978625
20
-27.039281518464836
30
0
11
42.475710068713745
21
-27.03928318026556
31
0
0
SPLINE
5
279
100
AcDbEntity
8
0
100
AcDbSpline
70
4
71
3
72
8
73
4
74
0
42
0.000000001
43
0.0000000001
44
0.0000000001
40
0.5000000000010093
40
0.5000000000010093
40
0.5000000000010093
40
0.5000000000010093
40
1
40
1
40
1
40
1
41
1
41
1
41
1
41
1
10
33.855884378037018
20
-27.039283180265222
30
0
10
33.857676904282144
20
-26.983994948892452
30
0
10
33.862637639921083
20
-26.917650282411575
30
0
10
33.870336620888267
20
-26.853595729697677
30
0
0
SPLINE
5
280
100
AcDbEntity
8
0
100
AcDbSpline
70
4
71
3
72
8
73
4
74
0
42
0.000000001
43
0.0000000001
44
0.0000000001
40
0
40
0
40
0
40
0
40
0.55907518225581487
40
0.55907518225581487
40
0.55907518225581487
40
0.55907518225581487
41
1
41
1
41
1
41
1
10
42.301613005877684
20
-26.760771938193773
30
0
10
42.283560638346998
20
-26.903154965021802
30
0
10
42.268670577949649
20
-26.98137319012762
30
0
10
42.237256725978625
20
-27.039281518464833
30
0
0
ENDSEC
0
SECTION
2
OBJECTS
0
DICTIONARY
5
C
100
AcDbDictionary
3
ACAD_GROUP
350
D
3
ACAD_MLINESTYLE
350
17
0
DICTIONARY
5
D
100
AcDbDictionary
0
DICTIONARY
5
1A
330
C
100
AcDbDictionary
0
DICTIONARY
5
17
100
AcDbDictionary
0
ENDSEC
0
EOF
