0
SECTION
2
HEADER
9
$INSUNITS
70
4
9
$ACADVER
1
AC1014
9
$HANDSEED
5
FFFF
0
ENDSEC
0
SECTION
2
TABLES
0
TABLE
2
VPORT
5
8
100
AcDbSymbolTable
0
ENDTAB
0
TABLE
2
LTYPE
5
5
100
AcDbSymbolTable
0
LTYPE
5
14
100
AcDbSymbolTableRecord
100
AcDbLinetypeTableRecord
2
BYBLOCK
70
0
0
LTYPE
5
15
100
AcDbSymbolTableRecord
100
AcDbLinetypeTableRecord
2
BYLAYER
70
0
0
ENDTAB
0
TABLE
2
LAYER
5
2
100
AcDbSymbolTable
70
2
0
LAYER
5
50
100
AcDbSymbolTableRecord
100
AcDbLayerTableRecord
2
0
70
0
6
CONTINUOUS
0
ENDTAB
0
TABLE
2
STYLE
5
3
100
AcDbSymbolTable
70
1
0
STYLE
5
11
100
AcDbSymbolTableRecord
100
AcDbTextStyleTableRecord
2
STANDARD
70
0
0
ENDTAB
0
TABLE
2
VIEW
5
6
100
AcDbSymbolTable
70
0
0
ENDTAB
0
TABLE
2
UCS
5
7
100
AcDbSymbolTable
70
0
0
ENDTAB
0
TABLE
2
APPID
5
9
100
AcDbSymbolTable
70
2
0
APPID
5
12
100
AcDbSymbolTableRecord
100
AcDbRegAppTableRecord
2
ACAD
70
0
0
ENDTAB
0
TABLE
2
DIMSTYLE
5
A
100
AcDbSymbolTable
70
1
0
ENDTAB
0
TABLE
2
BLOCK_RECORD
5
1
100
AcDbSymbolTable
70
1
0
BLOCK_RECORD
5
1F
100
AcDbSymbolTableRecord
100
AcDbBlockTableRecord
2
*MODEL_SPACE
0
BLOCK_RECORD
5
1B
100
AcDbSymbolTableRecord
100
AcDbBlockTableRecord
2
*PAPER_SPACE
0
ENDTAB
0
ENDSEC
0
SECTION
2
BLOCKS
0
BLOCK
5
20
100
AcDbEntity
100
AcDbBlockBegin
2
*MODEL_SPACE
0
ENDBLK
5
21
100
AcDbEntity
100
AcDbBlockEnd
0
BLOCK
5
1C
100
AcDbEntity
100
AcDbBlockBegin
2
*PAPER_SPACE
0
ENDBLK
5
1D
100
AcDbEntity
100
AcDbBlockEnd
0
ENDSEC
0
SECTION
2
ENTITIES
0
SPLINE
5
100
100
AcDbEntity
8
0
100
AcDbSpline
70
4
71
3
72
8
73
4
74
0
42
0.000000001
43
0.0000000001
44
0.0000000001
40
0
40
0
40
0
40
0
40
1
40
1
40
1
40
1
41
1
41
1
41
1
41
1
10
148.33240267435713
20
-184.48546187082928
30
0
10
147.66744003295901
20
-184.62756398518883
30
0
10
145.76619949340821
20
-184.89148521423346
30
0
10
144.76135126749676
20
-184.98119227091476
30
0
0
SPLINE
5
101
100
AcDbEntity
8
0
100
AcDbSpline
70
4
71
3
72
8
73
4
74
0
42
0.000000001
43
0.0000000001
44
0.0000000001
40
0
40
0
40
0
40
0
40
1
40
1
40
1
40
1
41
1
41
1
41
1
41
1
10
144.76135126749676
20
-184.98119227091476
30
0
10
144.51260999043785
20
-185.00338891347255
30
0
10
116.56286252339683
20
-185.05750382741297
30
0
10
82.650801340738951
20
-185.1014207204183
30
0
0
SPLINE
5
102
100
AcDbEntity
8
0
100
AcDbSpline
70
4
71
3
72
8
73
4
74
0
42
0.000000001
43
0.0000000001
44
0.0000000001
40
0
40
0
40
0
40
0
40
1
40
1
40
1
40
1
41
1
41
1
41
1
41
1
10
82.650801340738951
20
-185.1014207204183
30
0
10
48.738744195302331
20
-185.14534568786621
30
0
10
19.432211812337243
20
-185.18855202992762
30
0
10
17.525173823038742
20
-185.19744199117028
30
0
0
LINE
5
103
100
AcDbEntity
8
0
100
AcDbLine
10
17.525173823038738
20
-185.19744199117028
30
0
11
14.057837621370954
21
-185.21360702514653
31
0
0
LINE
5
104
100
AcDbEntity
8
0
100
AcDbLine
10
14.057837621370954
20
-185.21360702514653
30
0
11
13.49047783215841
21
-184.98573010762533
31
0
0
SPLINE
5
105
100
AcDbEntity
8
0
100
AcDbSpline
70
4
71
3
72
8
73
4
74
0
42
0.000000001
43
0.0000000001
44
0.0000000001
40
0
40
0
40
0
40
0
40
1
40
1
40
1
40
1
41
1
41
1
41
1
41
1
10
13.49047783215841
20
-184.98573010762533
30
0
10
12.716668677330018
20
-184.6749690373739
30
0
10
12.481084704399111
20
-184.48917611440024
30
0
10
12.242510159810386
20
-184.00155245463057
30
0
0
SPLINE
5
106
100
AcDbEntity
8
0
100
AcDbSpline
70
4
71
3
72
8
73
4
74
0
42
0.000000001
43
0.0000000001
44
0.0000000001
40
0
40
0
40
0
40
0
40
1
40
1
40
1
40
1
41
1
41
1
41
1
41
1
10
12.242510159810386
20
-184.00155245463057
30
0
10
12.053605548540753
20
-183.61544876098634
30
0
10
12.041782546043398
20
-183.53618195851647
30
0
10
12.082567564646405
20
-182.92925033569338
30
0
0
SPLINE
5
107
100
AcDbEntity
8
0
100
AcDbSpline
70
4
71
3
72
8
73
4
74
0
42
0.000000001
43
0.0000000001
44
0.0000000001
40
0
40
0
40
0
40
0
40
1
40
1
40
1
40
1
41
1
41
1
41
1
41
1
10
12.082567564646405
20
-182.92925033569338
30
0
10
12.140495634078981
20
-182.06719862620042
30
0
10
12.546332255999248
20
-180.73746713002527
30
0
10
13.115777269999187
20
-179.54391110738123
30
0
0
SPLINE
5
108
100
AcDbEntity
8
0
100
AcDbSpline
70
4
71
3
72
8
73
4
74
0
42
0.000000001
43
0.0000000001
44
0.0000000001
40
0
40
0
40
0
40
0
40
1
40
1
40
1
40
1
41
1
41
1
41
1
41
1
10
13.115777269999187
20
-179.54391110738123
30
0
10
13.826628986994427
20
-178.0539745966594
30
0
10
14.644444863001507
20
-176.89370142618822
30
0
10
15.933364089330039
20
-175.54648876190188
30
0
0
SPLINE
5
109
100
AcDbEntity
8
0
100
AcDbSpline
70
4
71
3
72
8
73
4
74
0
42
0.000000001
43
0.0000000001
44
0.0000000001
40
0
40
0
40
0
40
0
40
1
40
1
40
1
40
1
41
1
41
1
41
1
41
1
10
15.933364089330039
20
-175.54648876190188
30
0
10
16.260586929321292
20
-175.20446345011396
30
0
10
16.493432656923932
20
-174.92462749481206
30
0
10
16.450798590977989
20
-174.92462749481206
30
0
0
SPLINE
5
110
100
AcDbEntity
8
0
100
AcDbSpline
70
4
71
3
72
8
73
4
74
0
42
0.000000001
43
0.0000000001
44
0.0000000001
40
0
40
0
40
0
40
0
40
1
40
1
40
1
40
1
41
1
41
1
41
1
41
1
10
16.450798590977989
20
-174.92462749481206
30
0
10
16.408164525032046
20
-174.92462749481206
30
0
10
16.066829578081769
20
-174.72339623769128
30
0
10
15.692276374499006
20
-174.47744871775313
30
0
0
SPLINE
5
111
100
AcDbEntity
8
0
100
AcDbSpline
70
4
71
3
72
8
73
4
74
0
42
0.000000001
43
0.0000000001
44
0.0000000001
40
0
40
0
40
0
40
0
40
1
40
1
40
1
40
1
41
1
41
1
41
1
41
1
10
15.692276374499006
20
-174.47744871775313
30
0
10
14.41456952095032
20
-173.6384656906128
30
0
10
12.309536107381188
20
-171.51185131072998
30
0
10
11.843459097544354
20
-170.58917668660484
30
0
0
SPLINE
5
112
100
AcDbEntity
8
0
100
AcDbSpline
70
4
71
3
72
8
73
4
74
0
42
0.000000001
43
0.0000000001
44
0.0000000001
40
0
40
0
40
0
40
0
40
1
40
1
40
1
40
1
41
1
41
1
41
1
41
1
10
11.843459097544354
20
-170.58917668660484
30
0
10
11.601454933484396
20
-170.11009578704835
30
0
10
11.593790268898012
20
-170.07056331634521
30
0
10
11.687717231114707
20
-169.78596343994141
30
0
0
SPLINE
5
113
100
AcDbEntity
8
0
100
AcDbSpline
70
4
71
3
72
8
73
4
74
0
42
0.000000001
43
0.0000000001
44
0.0000000001
40
0
40
0
40
0
40
0
40
1
40
1
40
1
40
1
41
1
41
1
41
1
41
1
10
11.687717231114707
20
-169.78596343994141
30
0
10
11.742051164309187
20
-169.6213255564372
30
0
10
11.87354951699575
20
-169.41730054219568
30
0
10
11.979936353365581
20
-169.33255926767987
30
0
0
SPLINE
5
114
100
AcDbEntity
8
0
100
AcDbSpline
70
4
71
3
72
8
73
4
74
0
42
0.000000001
43
0.0000000001
44
0.0000000001
40
0
40
0
40
0
40
0
40
1
40
1
40
1
40
1
41
1
41
1
41
1
41
1
10
11.979936353365581
20
-169.33255926767987
30
0
10
12.152300469080608
20
-169.19526952107753
30
0
10
12.243141984939577
20
-169.18330319722497
30
0
10
12.814069668451946
20
-169.22269840240483
30
0
0
SPLINE
5
115
100
AcDbEntity
8
0
100
AcDbSpline
70
4
71
3
72
8
73
4
74
0
42
0.000000001
43
0.0000000001
44
0.0000000001
40
0
40
0
40
0
40
0
40
1
40
1
40
1
40
1
41
1
41
1
41
1
41
1
10
12.814069668451946
20
-169.22269840240483
30
0
10
13.166456508636477
20
-169.24701054890954
30
0
10
13.744886358579002
20
-169.34860318501794
30
0
10
14.099470456441246
20
-169.44845174153647
30
0
0
SPLINE
5
116
100
AcDbEntity
8
0
100
AcDbSpline
70
4
71
3
72
8
73
4
74
0
42
0.000000001
43
0.0000000001
44
0.0000000001
40
0
40
0
40
0
40
0
40
1
40
1
40
1
40
1
41
1
41
1
41
1
41
1
10
14.099470456441246
20
-169.44845174153647
30
0
10
14.454053544998171
20
-169.54830029805507
30
0
10
14.94588802655538
20
-169.6526140213013
30
0
10
15.192435073852542
20
-169.6802689870199
30
0
0
SPLINE
5
117
100
AcDbEntity
8
0
100
AcDbSpline
70
4
71
3
72
8
73
4
74
0
42
0.000000001
43
0.0000000001
44
0.0000000001
40
0
40
0
40
0
40
0
40
1
40
1
40
1
40
1
41
1
41
1
41
1
41
1
10
15.192435073852542
20
-169.6802689870199
30
0
10
15.735326274236046
20
-169.74115835825609
30
0
10
17.228371445337935
20
-169.61866099039719
30
0
10
17.369347174962364
20
-169.50166231791178
30
0
0
SPLINE
5
118
100
AcDbEntity
8
0
100
AcDbSpline
70
4
71
3
72
8
73
4
74
0
42
0.000000001
43
0.0000000001
44
0.0000000001
40
0
40
0
40
0
40
0
40
1
40
1
40
1
40
1
41
1
41
1
41
1
41
1
10
17.369347174962364
20
-169.50166231791178
30
0
10
17.425085051854452
20
-169.45540383656822
30
0
10
17.507139555613204
20
-169.27279224395755
30
0
10
17.551690292358401
20
-169.09586505889899
30
0
0
SPLINE
5
119
100
AcDbEntity
8
0
100
AcDbSpline
70
4
71
3
72
8
73
4
74
0
42
0.000000001
43
0.0000000001
44
0.0000000001
40
0
40
0
40
0
40
0
40
1
40
1
40
1
40
1
41
1
41
1
41
1
41
1
10
17.551690292358401
20
-169.09586505889899
30
0
10
17.668026860555017
20
-168.63384545644126
30
0
10
17.928748591740927
20
-168.28927669525149
30
0
10
18.304944944381717
20
-168.10035896301272
30
0
0
SPLINE
5
120
100
AcDbEntity
8
0
100
AcDbSpline
70
4
71
3
72
8
73
4
74
0
42
0.000000001
43
0.0000000001
44
0.0000000001
40
0
40
0
40
0
40
0
40
1
40
1
40
1
40
1
41
1
41
1
41
1
41
1
10
18.304944944381717
20
-168.10035896301272
30
0
10
18.580937465031944
20
-167.96176115671798
30
0
10
18.660127560297649
20
-167.8678957621257
30
0
10
18.807988770802819
20
-167.50409367879234
30
0
0
SPLINE
5
121
100
AcDbEntity
8
0
100
AcDbSpline
70
4
71
3
72
8
73
4
74
0
42
0.000000001
43
0.0000000001
44
0.0000000001
40
0
40
0
40
0
40
0
40
1
40
1
40
1
40
1
41
1
41
1
41
1
41
1
10
18.807988770802819
20
-167.50409367879234
30
0
10
19.002199300130211
20
-167.02624816894536
30
0
10
19.164108022054037
20
-166.81587664286297
30
0
10
19.447058693567914
20
-166.67373415629072
30
0
0
SPLINE
5
122
100
AcDbEntity
8
0
100
AcDbSpline
70
4
71
3
72
8
73
4
74
0
42
0.000000001
43
0.0000000001
44
0.0000000001
40
0
40
0
40
0
40
0
40
1
40
1
40
1
40
1
41
1
41
1
41
1
41
1
10
19.447058693567914
20
-166.67373415629072
30
0
10
19.737365182240808
20
-166.52789357503258
30
0
10
20.271299807230637
20
-166.48249905904137
30
0
10
20.806498082478843
20
-166.55814851125086
30
0
0
LINE
5
123
100
AcDbEntity
8
0
100
AcDbLine
10
20.806498082478843
20
-166.55814851125086
30
0
11
21.292004219690959
21
-166.62677319844568
31
0
0
LINE
5
124
100
AcDbEntity
8
0
100
AcDbLine
10
21.292004219690959
20
-166.62677319844568
30
0
11
22.046756680806482
21
-165.86807435353597
31
0
0
SPLINE
5
125
100
AcDbEntity
8
0
100
AcDbSpline
70
4
71
3
72
8
73
4
74
0
42
0.000000001
43
0.0000000001
44
0.0000000001
40
0
40
0
40
0
40
0
40
1
40
1
40
1
40
1
41
1
41
1
41
1
41
1
10
22.046756680806482
20
-165.86807435353597
30
0
10
22.859517955780035
20
-165.05106995900476
30
0
10
23.212962547938034
20
-164.82896626790367
30
0
10
23.957050689061489
20
-164.66765505472821
30
0
0
SPLINE
5
126
100
AcDbEntity
8
0
100
AcDbSpline
70
4
71
3
72
8
73
4
74
0
42
0.000000001
43
0.0000000001
44
0.0000000001
40
0
40
0
40
0
40
0
40
1
40
1
40
1
40
1
41
1
41
1
41
1
41
1
10
23.957050689061489
20
-164.66765505472821
30
0
10
24.37953983942668
20
-164.5760666529338
30
0
10
24.445544370015465
20
-164.53706709543866
30
0
10
24.533222723007206
20
-164.32722040812178
30
0
0
SPLINE
5
127
100
AcDbEntity
8
0
100
AcDbSpline
70
4
71
3
72
8
73
4
74
0
42
0.000000001
43
0.0000000001
44
0.0000000001
40
0
40
0
40
0
40
0
40
1
40
1
40
1
40
1
41
1
41
1
41
1
41
1
10
24.533222723007206
20
-164.32722040812178
30
0
10
24.646359793345137
20
-164.056443977356
30
0
10
25.040382496515914
20
-163.72961476643883
30
0
10
25.345477326711023
20
-163.6534808476766
30
0
0
SPLINE
5
128
100
AcDbEntity
8
0
100
AcDbSpline
70
4
71
3
72
8
73
4
74
0
42
0.000000001
43
0.0000000001
44
0.0000000001
40
0
40
0
40
0
40
0
40
1
40
1
40
1
40
1
41
1
41
1
41
1
41
1
10
25.345477326711023
20
-163.6534808476766
30
0
10
25.524449364344282
20
-163.60882110595708
30
0
10
25.55276441574097
20
-163.56405639648443
30
0
10
25.55276441574097
20
-163.32574729919435
30
0
0
SPLINE
5
129
100
AcDbEntity
8
0
100
AcDbSpline
70
4
71
3
72
8
73
4
74
0
42
0.000000001
43
0.0000000001
44
0.0000000001
40
0
40
0
40
0
40
0
40
1
40
1
40
1
40
1
41
1
41
1
41
1
41
1
10
25.55276441574097
20
-163.32574729919435
30
0
10
25.55276441574097
20
-162.89745464324952
30
0
10
25.834966182708744
20
-161.98113460540776
30
0
10
26.128540802001957
20
-161.45617472330736
30
0
0
SPLINE
5
130
100
AcDbEntity
8
0
100
AcDbSpline
70
4
71
3
72
8
73
4
74
0
42
0.000000001
43
0.0000000001
44
0.0000000001
40
0
40
0
40
0
40
0
40
1
40
1
40
1
40
1
41
1
41
1
41
1
41
1
10
26.128540802001957
20
-161.45617472330736
30
0
10
26.995394786198936
20
-159.9060916900635
30
0
10
29.119322395324708
20
-159.27441190083823
30
0
10
30.961928351720182
20
-160.01867364247644
30
0
0
SPLINE
5
131
100
AcDbEntity
8
0
100
AcDbSpline
70
4
71
3
72
8
73
4
74
0
42
0.000000001
43
0.0000000001
44
0.0000000001
40
0
40
0
40
0
40
0
40
1
40
1
40
1
40
1
41
1
41
1
41
1
41
1
10
30.961928351720182
20
-160.01867364247644
30
0
10
31.670398108164473
20
-160.30483996073406
30
0
10
32.543049542109173
20
-160.82565765380863
30
0
10
32.979775953292851
20
-161.22296867370608
30
0
0
LINE
5
132
100
AcDbEntity
8
0
100
AcDbLine
10
32.979775953292851
20
-161.22296867370608
30
0
11
33.37123502095541
21
-161.5791000366211
31
0
0
LINE
5
133
100
AcDbEntity
8
0
100
AcDbLine
10
33.37123502095541
20
-161.5791000366211
30
0
11
33.760172843933105
21
-160.81735712687177
31
0
0
SPLINE
5
134
100
AcDbEntity
8
0
100
AcDbSpline
70
4
71
3
72
8
73
4
74
0
42
0.000000001
43
0.0000000001
44
0.0000000001
40
0
40
0
40
0
40
0
40
1
40
1
40
1
40
1
41
1
41
1
41
1
41
1
10
33.760172843933113
20
-160.81735712687177
30
0
10
35.544277445475267
20
-157.32316633860273
30
0
10
38.743476549784347
20
-154.4779023488363
30
0
10
42.286432933807383
20
-153.23436552683515
30
0
0
SPLINE
5
135
100
AcDbEntity
8
0
100
AcDbSpline
70
4
71
3
72
8
73
4
74
0
42
0.000000001
43
0.0000000001
44
0.0000000001
40
0
40
0
40
0
40
0
40
1
40
1
40
1
40
1
41
1
41
1
41
1
41
1
10
42.286432933807383
20
-153.23436552683515
30
0
10
45.306512641906743
20
-152.17435270945234
30
0
10
48.623566309611014
20
-152.34150174458824
30
0
10
51.105528831481941
20
-153.6787666956584
30
0
0
SPLINE
5
136
100
AcDbEntity
8
0
100
AcDbSpline
70
4
71
3
72
8
73
4
74
0
42
0.000000001
43
0.0000000001
44
0.0000000001
40
0
40
0
40
0
40
0
40
1
40
1
40
1
40
1
41
1
41
1
41
1
41
1
10
51.105528831481941
20
-153.6787666956584
30
0
10
51.915197594960539
20
-154.11501267751061
30
0
10
53.086161327362063
20
-154.97651532491051
30
0
10
53.484098116556815
20
-155.42874870300295
30
0
0
SPLINE
5
137
100
AcDbEntity
8
0
100
AcDbSpline
70
4
71
3
72
8
73
4
74
0
42
0.000000001
43
0.0000000001
44
0.0000000001
40
0
40
0
40
0
40
0
40
1
40
1
40
1
40
1
41
1
41
1
41
1
41
1
10
53.484098116556815
20
-155.42874870300295
30
0
10
54.148608589172369
20
-156.18391094207766
30
0
10
54.536197980244964
20
-157.28680712382001
30
0
10
54.352524598439544
20
-157.89985917409265
30
0
0
SPLINE
5
138
100
AcDbEntity
8
0
100
AcDbSpline
70
4
71
3
72
8
73
4
74
0
42
0.000000001
43
0.0000000001
44
0.0000000001
40
0
40
0
40
0
40
0
40
1
40
1
40
1
40
1
41
1
41
1
41
1
41
1
10
54.352524598439544
20
-157.89985917409265
30
0
10
54.229336865743008
20
-158.31101786295577
30
0
10
53.747769037882492
20
-158.81662330627444
30
0
10
53.293012396494561
20
-159.01225090026858
30
0
0
SPLINE
5
139
100
AcDbEntity
8
0
100
AcDbSpline
70
4
71
3
72
8
73
4
74
0
42
0.000000001
43
0.0000000001
44
0.0000000001
40
0
40
0
40
0
40
0
40
1
40
1
40
1
40
1
41
1
41
1
41
1
41
1
10
53.293012396494561
20
-159.01225090026858
30
0
10
52.771060244242356
20
-159.23678499857587
30
0
10
51.938407580057785
20
-159.29383093516034
30
0
10
51.370051606496183
20
-159.14399350484214
30
0
0
LINE
5
140
100
AcDbEntity
8
0
100
AcDbLine
10
51.370051606496183
20
-159.14399350484214
30
0
11
50.918492444356289
21
-159.02494392395022
31
0
0
LINE
5
141
100
AcDbEntity
8
0
100
AcDbLine
10
50.918492444356289
20
-159.02494392395022
30
0
11
50.653969669342047
21
-159.27803732554122
31
0
0
SPLINE
5
142
100
AcDbEntity
8
0
100
AcDbSpline
70
4
71
3
72
8
73
4
74
0
42
0.000000001
43
0.0000000001
44
0.0000000001
40
0
40
0
40
0
40
0
40
1
40
1
40
1
40
1
41
1
41
1
41
1
41
1
10
50.653969669342047
20
-159.27803732554122
30
0
10
50.508484363555922
20
-159.41724071502688
30
0
10
50.287692769368498
20
-159.58265374501548
30
0
10
50.163318093617768
20
-159.64561824798585
30
0
0
SPLINE
5
143
100
AcDbEntity
8
0
100
AcDbSpline
70
4
71
3
72
8
73
4
74
0
42
0.000000001
43
0.0000000001
44
0.0000000001
40
0
40
0
40
0
40
0
40
1
40
1
40
1
40
1
41
1
41
1
41
1
41
1
10
50.163318093617768
20
-159.64561824798585
30
0
10
49.891140747070324
20
-159.78341668446862
30
0
10
49.347153441111253
20
-160.40291213989263
30
0
10
48.925590833028167
20
-161.0551494598389
30
0
0
SPLINE
5
144
100
AcDbEntity
8
0
100
AcDbSpline
70
4
71
3
72
8
73
4
74
0
42
0.000000001
43
0.0000000001
44
0.0000000001
40
0
40
0
40
0
40
0
40
1
40
1
40
1
40
1
41
1
41
1
41
1
41
1
10
48.925590833028167
20
-161.0551494598389
30
0
10
48.55662918090821
20
-161.62600447336837
30
0
10
48.228322347005211
20
-162.61278209686282
30
0
10
48.047810109456385
20
-163.69346548716231
30
0
0
SPLINE
5
145
100
AcDbEntity
8
0
100
AcDbSpline
70
4
71
3
72
8
73
4
74
0
42
0.000000001
43
0.0000000001
44
0.0000000001
40
0
40
0
40
0
40
0
40
1
40
1
40
1
40
1
41
1
41
1
41
1
41
1
10
48.047810109456385
20
-163.69346548716231
30
0
10
47.931400871276864
20
-164.39037869771326
30
0
10
47.926770178476978
20
-164.58729820251472
30
0
10
48.009048748016369
20
-165.34192752838138
30
0
0
SPLINE
5
146
100
AcDbEntity
8
0
100
AcDbSpline
70
4
71
3
72
8
73
4
74
0
42
0.000000001
43
0.0000000001
44
0.0000000001
40
0
40
0
40
0
40
0
40
1
40
1
40
1
40
1
41
1
41
1
41
1
41
1
10
48.009048748016369
20
-165.34192752838138
30
0
10
48.130326875050869
20
-166.45425465901695
30
0
10
48.312361145019544
20
-166.92135308583579
30
0
10
48.84571441014608
20
-167.48878453572593
30
0
0
LINE
5
147
100
AcDbEntity
8
0
100
AcDbLine
10
48.84571441014608
20
-167.48878453572593
30
0
11
49.266768328348796
21
-167.93674653371176
31
0
0
LINE
5
148
100
AcDbEntity
8
0
100
AcDbLine
10
49.266768328348796
20
-167.93674653371176
30
0
11
49.790420150756844
21
-167.76986395517986
31
0
0
SPLINE
5
149
100
AcDbEntity
8
0
100
AcDbSpline
70
4
71
3
72
8
73
4
74
0
42
0.000000001
43
0.0000000001
44
0.0000000001
40
0
40
0
40
0
40
0
40
1
40
1
40
1
40
1
41
1
41
1
41
1
41
1
10
49.790420150756844
20
-167.76986395517986
30
0
10
50.756947072347018
20
-167.46184012095136
30
0
10
50.871773719787605
20
-167.3936676025391
30
0
10
50.956959088643401
20
-167.07731094360355
30
0
0
SPLINE
5
150
100
AcDbEntity
8
0
100
AcDbSpline
70
4
71
3
72
8
73
4
74
0
42
0.000000001
43
0.0000000001
44
0.0000000001
40
0
40
0
40
0
40
0
40
1
40
1
40
1
40
1
41
1
41
1
41
1
41
1
10
50.956959088643401
20
-167.07731094360355
30
0
10
51.062245782216394
20
-166.68629798889162
30
0
10
51.372231705983481
20
-166.33923422495528
30
0
10
51.781428305308033
20
-166.15421644846603
30
0
0
SPLINE
5
151
100
AcDbEntity
8
0
100
AcDbSpline
70
4
71
3
72
8
73
4
74
0
42
0.000000001
43
0.0000000001
44
0.0000000001
40
0
40
0
40
0
40
0
40
1
40
1
40
1
40
1
41
1
41
1
41
1
41
1
10
51.781428305308033
20
-166.15421644846603
30
0
10
52.05501867930095
20
-166.03051598866784
30
0
10
52.283485031127938
20
-165.9990014394125
30
0
10
52.927817471822109
20
-165.99609464009606
30
0
0
SPLINE
5
152
100
AcDbEntity
8
0
100
AcDbSpline
70
4
71
3
72
8
73
4
74
0
42
0.000000001
43
0.0000000001
44
0.0000000001
40
0
40
0
40
0
40
0
40
1
40
1
40
1
40
1
41
1
41
1
41
1
41
1
10
52.927817471822109
20
-165.99609464009606
30
0
10
53.645167096455907
20
-165.99286486307784
30
0
10
53.755625470479337
20
-165.97408370971687
30
0
10
53.945403130849208
20
-165.82326927185062
30
0
0
SPLINE
5
153
100
AcDbEntity
8
0
100
AcDbSpline
70
4
71
3
72
8
73
4
74
0
42
0.000000001
43
0.0000000001
44
0.0000000001
40
0
40
0
40
0
40
0
40
1
40
1
40
1
40
1
41
1
41
1
41
1
41
1
10
53.945403130849208
20
-165.82326927185062
30
0
10
54.66257108052573
20
-165.25329437255863
30
0
10
54.830826314290377
20
-165.16843198140464
30
0
10
55.303411324818939
20
-165.1383385340373
30
0
0
SPLINE
5
154
100
AcDbEntity
8
0
100
AcDbSpline
70
4
71
3
72
8
73
4
74
0
42
0.000000001
43
0.0000000001
44
0.0000000001
40
0
40
0
40
0
40
0
40
1
40
1
40
1
40
1
41
1
41
1
41
1
41
1
10
55.303411324818939
20
-165.1383385340373
30
0
10
55.607305081685396
20
-165.11900024414069
30
0
10
55.89517914454143
20
-165.1510638554891
30
0
10
56.12732340494793
20
-165.23017724355066
30
0
0
SPLINE
5
155
100
AcDbEntity
8
0
100
AcDbSpline
70
4
71
3
72
8
73
4
74
0
42
0.000000001
43
0.0000000001
44
0.0000000001
40
0
40
0
40
0
40
0
40
1
40
1
40
1
40
1
41
1
41
1
41
1
41
1
10
56.12732340494793
20
-165.23017724355066
30
0
10
56.631729793548587
20
-165.40204175313318
30
0
10
56.788333606719981
20
-165.38527921040856
30
0
10
57.402750237782804
20
-165.09363842010501
30
0
0
SPLINE
5
156
100
AcDbEntity
8
0
100
AcDbSpline
70
4
71
3
72
8
73
4
74
0
42
0.000000001
43
0.0000000001
44
0.0000000001
40
0
40
0
40
0
40
0
40
1
40
1
40
1
40
1
41
1
41
1
41
1
41
1
10
57.402750237782804
20
-165.09363842010501
30
0
10
58.233327770233167
20
-164.69939568837489
30
0
10
59.711467520395928
20
-164.25480880737308
30
0
10
60.834977753957126
20
-164.06130479176846
30
0
0
SPLINE
5
157
100
AcDbEntity
8
0
100
AcDbSpline
70
4
71
3
72
8
73
4
74
0
42
0.000000001
43
0.0000000001
44
0.0000000001
40
0
40
0
40
0
40
0
40
1
40
1
40
1
40
1
41
1
41
1
41
1
41
1
10
60.834977753957126
20
-164.06130479176846
30
0
10
61.714094797770187
20
-163.90989284515385
30
0
10
62.103650315602636
20
-163.8869210561117
30
0
10
63.806530062357595
20
-163.88604094187423
30
0
0
SPLINE
5
158
100
AcDbEntity
8
0
100
AcDbSpline
70
4
71
3
72
8
73
4
74
0
42
0.000000001
43
0.0000000001
44
0.0000000001
40
0
40
0
40
0
40
0
40
1
40
1
40
1
40
1
41
1
41
1
41
1
41
1
10
63.806530062357595
20
-163.88604094187423
30
0
10
65.993896547953298
20
-163.88498318990074
30
0
10
66.802992026011168
20
-163.98531621297201
30
0
10
68.618074226379406
20
-164.48308137257897
30
0
0
SPLINE
5
159
100
AcDbEntity
8
0
100
AcDbSpline
70
4
71
3
72
8
73
4
74
0
42
0.000000001
43
0.0000000001
44
0.0000000001
40
0
40
0
40
0
40
0
40
1
40
1
40
1
40
1
41
1
41
1
41
1
41
1
10
68.618074226379406
20
-164.48308137257897
30
0
10
70.640754381815597
20
-165.03777942657473
30
0
10
72.72485682169598
20
-166.06225662231449
30
0
10
73.900414911905926
20
-167.07968482971197
30
0
0
SPLINE
5
160
100
AcDbEntity
8
0
100
AcDbSpline
70
4
71
3
72
8
73
4
74
0
42
0.000000001
43
0.0000000001
44
0.0000000001
40
0
40
0
40
0
40
0
40
1
40
1
40
1
40
1
41
1
41
1
41
1
41
1
10
73.900414911905926
20
-167.07968482971197
30
0
10
74.336991945902511
20
-167.45754451751711
30
0
10
75.217945925394702
20
-167.89225635528567
30
0
10
75.745215098063156
20
-167.99002978007002
30
0
0
SPLINE
5
161
100
AcDbEntity
8
0
100
AcDbSpline
70
4
71
3
72
8
73
4
74
0
42
0.000000001
43
0.0000000001
44
0.0000000001
40
0
40
0
40
0
40
0
40
1
40
1
40
1
40
1
41
1
41
1
41
1
41
1
10
75.745215098063156
20
-167.99002978007002
30
0
10
78.354673067728683
20
-168.47389074961347
30
0
10
81.829678980509456
20
-166.81682135264083
30
0
10
83.6989689509074
20
-164.19724610646568
30
0
0
SPLINE
5
162
100
AcDbEntity
8
0
100
AcDbSpline
70
4
71
3
72
8
73
4
74
0
42
0.000000001
43
0.0000000001
44
0.0000000001
40
0
40
0
40
0
40
0
40
1
40
1
40
1
40
1
41
1
41
1
41
1
41
1
10
83.6989689509074
20
-164.19724610646568
30
0
10
84.357932281494158
20
-163.27378826141364
30
0
10
84.884531275431328
20
-161.98229732513431
30
0
10
84.99544181823731
20
-161.01757907867437
30
0
0
LINE
5
163
100
AcDbEntity
8
0
100
AcDbLine
10
84.99544181823731
20
-161.01757907867437
30
0
11
85.038777351379409
21
-160.64069639841719
31
0
0
LINE
5
164
100
AcDbEntity
8
0
100
AcDbLine
10
85.038777351379409
20
-160.64069639841719
30
0
11
84.697147687276214
21
-160.50314019521082
31
0
0
SPLINE
5
165
100
AcDbEntity
8
0
100
AcDbSpline
70
4
71
3
72
8
73
4
74
0
42
0.000000001
43
0.0000000001
44
0.0000000001
40
0
40
0
40
0
40
0
40
1
40
1
40
1
40
1
41
1
41
1
41
1
41
1
10
84.697147687276214
20
-160.50314019521082
30
0
10
84.265940157572444
20
-160.32950738271083
30
0
10
83.807949701945006
20
-159.8371520996094
30
0
10
83.629020055135101
20
-159.35486564636233
30
0
0
SPLINE
5
166
100
AcDbEntity
8
0
100
AcDbSpline
70
4
71
3
72
8
73
4
74
0
42
0.000000001
43
0.0000000001
44
0.0000000001
40
0
40
0
40
0
40
0
40
1
40
1
40
1
40
1
41
1
41
1
41
1
41
1
10
83.629020055135101
20
-159.35486564636233
30
0
10
83.553023401896169
20
-159.15000896453859
30
0
10
83.486183166503906
20
-158.9745513280233
30
0
10
83.480482610066744
20
-158.96495081583663
30
0
0
SPLINE
5
167
100
AcDbEntity
8
0
100
AcDbSpline
70
4
71
3
72
8
73
4
74
0
42
0.000000001
43
0.0000000001
44
0.0000000001
40
0
40
0
40
0
40
0
40
1
40
1
40
1
40
1
41
1
41
1
41
1
41
1
10
83.480482610066744
20
-158.96495081583663
30
0
10
83.474790128072115
20
-158.95535030364994
30
0
10
83.29200089772543
20
-159.01261425018313
30
0
10
83.074289703369146
20
-159.09218788146975
30
0
0
SPLINE
5
168
100
AcDbEntity
8
0
100
AcDbSpline
70
4
71
3
72
8
73
4
74
0
42
0.000000001
43
0.0000000001
44
0.0000000001
40
0
40
0
40
0
40
0
40
1
40
1
40
1
40
1
41
1
41
1
41
1
41
1
10
83.074289703369146
20
-159.09218788146975
30
0
10
82.047285207112637
20
-159.46756871541345
30
0
10
80.536209805806479
20
-159.49399636586509
30
0
10
79.854395802815773
20
-159.14849904378258
30
0
0
SPLINE
5
169
100
AcDbEntity
8
0
100
AcDbSpline
70
4
71
3
72
8
73
4
74
0
42
0.000000001
43
0.0000000001
44
0.0000000001
40
0
40
0
40
0
40
0
40
1
40
1
40
1
40
1
41
1
41
1
41
1
41
1
10
79.854395802815773
20
-159.14849904378258
30
0
10
79.229950714111339
20
-158.83206971486413
30
0
10
78.723255221049001
20
-158.11210397084557
30
0
10
78.577245076497405
20
-157.3337923049927
30
0
0
SPLINE
5
170
100
AcDbEntity
8
0
100
AcDbSpline
70
4
71
3
72
8
73
4
74
0
42
0.000000001
43
0.0000000001
44
0.0000000001
40
0
40
0
40
0
40
0
40
1
40
1
40
1
40
1
41
1
41
1
41
1
41
1
10
78.577245076497405
20
-157.3337923049927
30
0
10
78.549024899800628
20
-157.18336544036868
30
0
10
78.515879313151061
20
-157.06029478708905
30
0
10
78.503590011596685
20
-157.06029478708905
30
0
0
SPLINE
5
171
100
AcDbEntity
8
0
100
AcDbSpline
70
4
71
3
72
8
73
4
74
0
42
0.000000001
43
0.0000000001
44
0.0000000001
40
0
40
0
40
0
40
0
40
1
40
1
40
1
40
1
41
1
41
1
41
1
41
1
10
78.503590011596685
20
-157.06029478708905
30
0
10
78.491316858927419
20
-157.06029478708905
30
0
10
78.301349449157726
20
-157.15357074737551
30
0
10
78.081466229756685
20
-157.26758187611901
30
0
0
SPLINE
5
172
100
AcDbEntity
8
0
100
AcDbSpline
70
4
71
3
72
8
73
4
74
0
42
0.000000001
43
0.0000000001
44
0.0000000001
40
0
40
0
40
0
40
0
40
1
40
1
40
1
40
1
41
1
41
1
41
1
41
1
10
78.081466229756685
20
-157.26758187611901
30
0
10
77.714943059285503
20
-157.45762195587162
30
0
10
77.612462234497087
20
-157.47468325297041
30
0
10
76.849637349446624
20
-157.47266464233402
30
0
0
SPLINE
5
173
100
AcDbEntity
8
0
100
AcDbSpline
70
4
71
3
72
8
73
4
74
0
42
0.000000001
43
0.0000000001
44
0.0000000001
40
0
40
0
40
0
40
0
40
1
40
1
40
1
40
1
41
1
41
1
41
1
41
1
10
76.849637349446624
20
-157.47266464233402
30
0
10
75.796076011657732
20
-157.46988703409835
30
0
10
75.398393567403176
20
-157.31541487375898
30
0
10
74.844381841023775
20
-156.69382813771568
30
0
0
SPLINE
5
174
100
AcDbEntity
8
0
100
AcDbSpline
70
4
71
3
72
8
73
4
74
0
42
0.000000001
43
0.0000000001
44
0.0000000001
40
0
40
0
40
0
40
0
40
1
40
1
40
1
40
1
41
1
41
1
41
1
41
1
10
74.844381841023775
20
-156.69382813771568
30
0
10
74.154792149861663
20
-155.92012697855634
30
0
10
73.985608355204278
20
-155.28155161539718
30
0
10
74.164586448669439
20
-154.12802060445154
30
0
0
SPLINE
5
175
100
AcDbEntity
8
0
100
AcDbSpline
70
4
71
3
72
8
73
4
74
0
42
0.000000001
43
0.0000000001
44
0.0000000001
40
0
40
0
40
0
40
0
40
1
40
1
40
1
40
1
41
1
41
1
41
1
41
1
10
74.164586448669439
20
-154.12802060445154
30
0
10
74.385696983337411
20
-152.70290571848554
30
0
10
75.489691289265963
20
-151.12394847869876
30
0
10
76.965965843200692
20
-150.12143376668297
30
0
0
SPLINE
5
176
100
AcDbEntity
8
0
100
AcDbSpline
70
4
71
3
72
8
73
4
74
0
42
0.000000001
43
0.0000000001
44
0.0000000001
40
0
40
0
40
0
40
0
40
1
40
1
40
1
40
1
41
1
41
1
41
1
41
1
10
76.965965843200692
20
-150.12143376668297
30
0
10
77.60337041219077
20
-149.6885790506999
30
0
10
78.841230901082369
20
-149.11423587799075
30
0
10
79.628343709309902
20
-148.88614095052088
30
0
0
SPLINE
5
177
100
AcDbEntity
8
0
100
AcDbSpline
70
4
71
3
72
8
73
4
74
0
42
0.000000001
43
0.0000000001
44
0.0000000001
40
0
40
0
40
0
40
0
40
1
40
1
40
1
40
1
41
1
41
1
41
1
41
1
10
79.628343709309902
20
-148.88614095052088
30
0
10
81.02283223470053
20
-148.48203125000003
30
0
10
81.465868822733569
20
-148.429402033488
30
0
10
83.442217826843276
20
-148.43304360707603
30
0
0
SPLINE
5
178
100
AcDbEntity
8
0
100
AcDbSpline
70
4
71
3
72
8
73
4
74
0
42
0.000000001
43
0.0000000001
44
0.0000000001
40
0
40
0
40
0
40
0
40
1
40
1
40
1
40
1
41
1
41
1
41
1
41
1
10
83.442217826843276
20
-148.43304360707603
30
0
10
85.156938743591311
20
-148.43621686299645
30
0
10
85.357742055257177
20
-148.45106576283774
30
0
10
86.251259867350271
20
-148.64101702372236
30
0
0
SPLINE
5
179
100
AcDbEntity
8
0
100
AcDbSpline
70
4
71
3
72
8
73
4
74
0
42
0.000000001
43
0.0000000001
44
0.0000000001
40
0
40
0
40
0
40
0
40
1
40
1
40
1
40
1
41
1
41
1
41
1
41
1
10
86.251259867350271
20
-148.64101702372236
30
0
10
89.259700266520184
20
-149.28056131998702
30
0
10
91.494326464335131
20
-150.45880012512211
30
0
10
93.429657300313323
20
-152.42591196695966
30
0
0
LINE
5
180
100
AcDbEntity
8
0
100
AcDbLine
10
93.429657300313323
20
-152.42591196695966
30
0
11
94.258805656433111
21
-153.2686738332113
31
0
0
LINE
5
181
100
AcDbEntity
8
0
100
AcDbLine
10
94.258805656433111
20
-153.2686738332113
30
0
11
94.744846725463873
21
-153.31815401713055
31
0
0
SPLINE
5
182
100
AcDbEntity
8
0
100
AcDbSpline
70
4
71
3
72
8
73
4
74
0
42
0.000000001
43
0.0000000001
44
0.0000000001
40
0
40
0
40
0
40
0
40
1
40
1
40
1
40
1
41
1
41
1
41
1
41
1
10
94.744846725463887
20
-153.31815401713055
30
0
10
95.320223426818856
20
-153.37672602335616
30
0
10
96.488716379801446
20
-153.88719228108727
30
0
10
97.211960347493516
20
-154.39593060811364
30
0
0
SPLINE
5
183
100
AcDbEntity
8
0
100
AcDbSpline
70
4
71
3
72
8
73
4
74
0
42
0.000000001
43
0.0000000001
44
0.0000000001
40
0
40
0
40
0
40
0
40
1
40
1
40
1
40
1
41
1
41
1
41
1
41
1
10
97.211960347493516
20
-154.39593060811364
30
0
10
97.468105888366722
20
-154.57610371907555
30
0
10
98.027777798970561
20
-155.10328407287599
30
0
10
98.455682881673198
20
-155.56743532816571
30
0
0
SPLINE
5
184
100
AcDbEntity
8
0
100
AcDbSpline
70
4
71
3
72
8
73
4
74
0
42
0.000000001
43
0.0000000001
44
0.0000000001
40
0
40
0
40
0
40
0
40
1
40
1
40
1
40
1
41
1
41
1
41
1
41
1
10
98.455682881673198
20
-155.56743532816571
30
0
10
99.21826553344728
20
-156.39462159474692
30
0
10
99.395055452982604
20
-156.57406800587975
30
0
10
100.71298211415611
20
-157.85869566599533
30
0
0
SPLINE
5
185
100
AcDbEntity
8
0
100
AcDbSpline
70
4
71
3
72
8
73
4
74
0
42
0.000000001
43
0.0000000001
44
0.0000000001
40
0
40
0
40
0
40
0
40
1
40
1
40
1
40
1
41
1
41
1
41
1
41
1
10
100.71298211415611
20
-157.85869566599533
30
0
10
101.13754437764487
20
-158.27253506978354
30
0
10
101.66062291463219
20
-158.91479237874353
30
0
10
102.22052090962728
20
-159.70972932179771
30
0
0
SPLINE
5
186
100
AcDbEntity
8
0
100
AcDbSpline
70
4
71
3
72
8
73
4
74
0
42
0.000000001
43
0.0000000001
44
0.0000000001
40
0
40
0
40
0
40
0
40
1
40
1
40
1
40
1
41
1
41
1
41
1
41
1
10
102.22052090962728
20
-159.70972932179771
30
0
10
103.91081663767497
20
-162.10958283742272
30
0
10
104.1733409881592
20
-162.42413889567061
30
0
10
105.35644868214928
20
-163.46721153259281
30
0
0
SPLINE
5
187
100
AcDbEntity
8
0
100
AcDbSpline
70
4
71
3
72
8
73
4
74
0
42
0.000000001
43
0.0000000001
44
0.0000000001
40
0
40
0
40
0
40
0
40
1
40
1
40
1
40
1
41
1
41
1
41
1
41
1
10
105.35644868214928
20
-163.46721153259281
30
0
10
106.32729543050132
20
-164.32313474019372
30
0
10
107.13020992279054
20
-164.85204302469893
30
0
10
108.71190439860028
20
-165.67755788167321
30
0
0
LINE
5
188
100
AcDbEntity
8
0
100
AcDbLine
10
108.71190439860028
20
-165.67755788167321
30
0
11
109.67252890268963
21
-166.17892424265548
31
0
0
LINE
5
189
100
AcDbEntity
8
0
100
AcDbLine
10
109.67252890268963
20
-166.17892424265548
30
0
11
110.14406019846601
21
-166.07576516469322
31
0
0
SPLINE
5
190
100
AcDbEntity
8
0
100
AcDbSpline
70
4
71
3
72
8
73
4
74
0
42
0.000000001
43
0.0000000001
44
0.0000000001
40
0
40
0
40
0
40
0
40
1
40
1
40
1
40
1
41
1
41
1
41
1
41
1
10
110.14406019846601
20
-166.07576516469322
30
0
10
110.40340321858724
20
-166.01903413136802
30
0
10
110.91239185333254
20
-165.93115997314456
30
0
10
111.27514425913495
20
-165.88050092061366
30
0
0
SPLINE
5
191
100
AcDbEntity
8
0
100
AcDbSpline
70
4
71
3
72
8
73
4
74
0
42
0.000000001
43
0.0000000001
44
0.0000000001
40
0
40
0
40
0
40
0
40
1
40
1
40
1
40
1
41
1
41
1
41
1
41
1
10
111.27514425913495
20
-165.88050092061366
30
0
10
111.93128153483075
20
-165.78886407216396
30
0
10
111.93468894958498
20
-165.7872653325399
30
0
10
111.93468894958498
20
-165.57007090250653
30
0
0
SPLINE
5
192
100
AcDbEntity
8
0
100
AcDbSpline
70
4
71
3
72
8
73
4
74
0
42
0.000000001
43
0.0000000001
44
0.0000000001
40
0
40
0
40
0
40
0
40
1
40
1
40
1
40
1
41
1
41
1
41
1
41
1
10
111.93468894958498
20
-165.57007090250653
30
0
10
111.93468894958498
20
-165.36873467763269
30
0
10
111.91309789021813
20
-165.35174605051679
30
0
10
111.65697657267253
20
-165.35174605051679
30
0
0
SPLINE
5
193
100
AcDbEntity
8
0
100
AcDbSpline
70
4
71
3
72
8
73
4
74
0
42
0.000000001
43
0.0000000001
44
0.0000000001
40
0
40
0
40
0
40
0
40
1
40
1
40
1
40
1
41
1
41
1
41
1
41
1
10
111.65697657267253
20
-165.35174605051679
30
0
10
111.0417928695679
20
-165.35174605051679
30
0
10
110.24248765309653
20
-164.76473407745368
30
0
10
110.02172431945802
20
-164.15080191294356
30
0
0
SPLINE
5
194
100
AcDbEntity
8
0
100
AcDbSpline
70
4
71
3
72
8
73
4
74
0
42
0.000000001
43
0.0000000001
44
0.0000000001
40
0
40
0
40
0
40
0
40
1
40
1
40
1
40
1
41
1
41
1
41
1
41
1
10
110.02172431945802
20
-164.15080191294356
30
0
10
109.90748710632326
20
-163.833112970988
30
0
10
109.89057114919028
20
-163.64811941782636
30
0
10
109.93217067718507
20
-163.17125091552739
30
0
0
LINE
5
195
100
AcDbEntity
8
0
100
AcDbLine
10
109.93217067718507
20
-163.17125091552739
30
0
11
109.98345146179201
21
-162.5833507537842
31
0
0
LINE
5
196
100
AcDbEntity
8
0
100
AcDbLine
10
109.98345146179201
20
-162.5833507537842
30
0
11
109.76356016794841
21
-162.53937733968101
31
0
0
SPLINE
5
197
100
AcDbEntity
8
0
100
AcDbSpline
70
4
71
3
72
8
73
4
74
0
42
0.000000001
43
0.0000000001
44
0.0000000001
40
0
40
0
40
0
40
0
40
1
40
1
40
1
40
1
41
1
41
1
41
1
41
1
10
109.76356016794841
20
-162.53937733968101
30
0
10
109.64262116750083
20
-162.51519438425703
30
0
10
109.43550364176433
20
-162.40438880920414
30
0
10
109.30330886840822
20
-162.29314721425374
30
0
0
SPLINE
5
198
100
AcDbEntity
8
0
100
AcDbSpline
70
4
71
3
72
8
73
4
74
0
42
0.000000001
43
0.0000000001
44
0.0000000001
40
0
40
0
40
0
40
0
40
1
40
1
40
1
40
1
41
1
41
1
41
1
41
1
10
109.30330886840822
20
-162.29314721425374
30
0
10
108.50057201385499
20
-161.61768779754641
30
0
10
108.38929812113446
20
-159.98783734639488
30
0
10
109.07034505208335
20
-158.88099276224776
30
0
0
SPLINE
5
199
100
AcDbEntity
8
0
100
AcDbSpline
70
4
71
3
72
8
73
4
74
0
42
0.000000001
43
0.0000000001
44
0.0000000001
40
0
40
0
40
0
40
0
40
1
40
1
40
1
40
1
41
1
41
1
41
1
41
1
10
109.07034505208335
20
-158.88099276224776
30
0
10
109.28099110921225
20
-158.53865254720057
30
0
10
109.28548857371014
20
-158.51255594889327
30
0
10
109.18335494995119
20
-158.22578404744468
30
0
0
SPLINE
5
200
100
AcDbEntity
8
0
100
AcDbSpline
70
4
71
3
72
8
73
4
74
0
42
0.000000001
43
0.0000000001
44
0.0000000001
40
0
40
0
40
0
40
0
40
1
40
1
40
1
40
1
41
1
41
1
41
1
41
1
10
109.18335494995119
20
-158.22578404744468
30
0
10
109.12484753926597
20
-158.06151758829756
30
0
10
109.07548847198487
20
-157.66725870768232
30
0
10
109.07367172241212
20
-157.3496505101522
30
0
0
SPLINE
5
201
100
AcDbEntity
8
0
100
AcDbSpline
70
4
71
3
72
8
73
4
74
0
42
0.000000001
43
0.0000000001
44
0.0000000001
40
0
40
0
40
0
40
0
40
1
40
1
40
1
40
1
41
1
41
1
41
1
41
1
10
109.07367172241212
20
-157.3496505101522
30
0
10
109.06919848124188
20
-156.57123387654624
30
0
10
109.2750644683838
20
-156.04278583526616
30
0
10
109.80622552235923
20
-155.46907246907554
30
0
0
SPLINE
5
202
100
AcDbEntity
8
0
100
AcDbSpline
70
4
71
3
72
8
73
4
74
0
42
0.000000001
43
0.0000000001
44
0.0000000001
40
0
40
0
40
0
40
0
40
1
40
1
40
1
40
1
41
1
41
1
41
1
41
1
10
109.80622552235923
20
-155.46907246907554
30
0
10
110.58024158477785
20
-154.63304468790693
30
0
10
111.22782802581789
20
-154.55761324564619
30
0
10
113.57447903951011
20
-155.03015384674075
30
0
0
LINE
5
203
100
AcDbEntity
8
0
100
AcDbLine
10
113.57447903951011
20
-155.03015384674075
30
0
11
114.79970302581789
21
-155.27687651316327
31
0
0
LINE
5
204
100
AcDbEntity
8
0
100
AcDbLine
10
114.79970302581789
20
-155.27687651316327
30
0
11
114.96895141601564
21
-155.12182299296063
31
0
0
SPLINE
5
205
100
AcDbEntity
8
0
100
AcDbSpline
70
4
71
3
72
8
73
4
74
0
42
0.000000001
43
0.0000000001
44
0.0000000001
40
0
40
0
40
0
40
0
40
1
40
1
40
1
40
1
41
1
41
1
41
1
41
1
10
114.96895141601564
20
-155.12182299296063
30
0
10
115.44182306925457
20
-154.68861300150559
30
0
10
116.61092967987062
20
-154.24181372324628
30
0
10
118.19096889495852
20
-153.89045435587568
30
0
0
SPLINE
5
206
100
AcDbEntity
8
0
100
AcDbSpline
70
4
71
3
72
8
73
4
74
0
42
0.000000001
43
0.0000000001
44
0.0000000001
40
0
40
0
40
0
40
0
40
1
40
1
40
1
40
1
41
1
41
1
41
1
41
1
10
118.19096889495852
20
-153.89045435587568
30
0
10
118.79344342549643
20
-153.75647513071701
30
0
10
119.0684831619263
20
-153.73728218078617
30
0
10
119.92464052836101
20
-153.76947498321536
30
0
0
SPLINE
5
207
100
AcDbEntity
8
0
100
AcDbSpline
70
4
71
3
72
8
73
4
74
0
42
0.000000001
43
0.0000000001
44
0.0000000001
40
0
40
0
40
0
40
0
40
1
40
1
40
1
40
1
41
1
41
1
41
1
41
1
10
119.92464052836101
20
-153.76947498321536
30
0
10
120.48431243896486
20
-153.79050890604657
30
0
10
121.03296273549401
20
-153.83071155548097
30
0
10
121.14386520385744
20
-153.85880254109705
30
0
0
LINE
5
208
100
AcDbEntity
8
0
100
AcDbLine
10
121.14386520385747
20
-153.85880254109705
30
0
11
121.3455001831055
21
-153.90988146464034
31
0
0
LINE
5
209
100
AcDbEntity
8
0
100
AcDbLine
10
121.3455001831055
20
-153.90988146464034
30
0
11
121.14852415720623
21
-153.43106702168785
31
0
0
SPLINE
5
210
100
AcDbEntity
8
0
100
AcDbSpline
70
4
71
3
72
8
73
4
74
0
42
0.000000001
43
0.0000000001
44
0.0000000001
40
0
40
0
40
0
40
0
40
1
40
1
40
1
40
1
41
1
41
1
41
1
41
1
10
121.14852415720623
20
-153.43106702168785
30
0
10
120.89300034840903
20
-152.80994052886965
30
0
10
120.87889429728192
20
-151.83075288136803
30
0
10
121.11586303710939
20
-151.16302070617678
30
0
0
SPLINE
5
211
100
AcDbEntity
8
0
100
AcDbSpline
70
4
71
3
72
8
73
4
74
0
42
0.000000001
43
0.0000000001
44
0.0000000001
40
0
40
0
40
0
40
0
40
1
40
1
40
1
40
1
41
1
41
1
41
1
41
1
10
121.11586303710939
20
-151.16302070617678
30
0
10
121.30449816385907
20
-150.63148015340172
30
0
10
121.70271352132163
20
-149.96615416208905
30
0
10
122.10737228393556
20
-149.50643577575687
30
0
0
SPLINE
5
212
100
AcDbEntity
8
0
100
AcDbSpline
70
4
71
3
72
8
73
4
74
0
42
0.000000001
43
0.0000000001
44
0.0000000001
40
0
40
0
40
0
40
0
40
1
40
1
40
1
40
1
41
1
41
1
41
1
41
1
10
122.10737228393556
20
-149.50643577575687
30
0
10
122.39864972432457
20
-149.1755289713542
30
0
10
122.41206944783529
20
-149.13802318573002
30
0
10
122.41206944783529
20
-148.65509077707929
30
0
0
SPLINE
5
213
100
AcDbEntity
8
0
100
AcDbSpline
70
4
71
3
72
8
73
4
74
0
42
0.000000001
43
0.0000000001
44
0.0000000001
40
0
40
0
40
0
40
0
40
1
40
1
40
1
40
1
41
1
41
1
41
1
41
1
10
122.41206944783529
20
-148.65509077707929
30
0
10
122.41206944783529
20
-147.62878068288171
30
0
10
122.86432704925539
20
-146.52392241160078
30
0
10
123.57557239532471
20
-145.81268513997398
30
0
0
SPLINE
5
214
100
AcDbEntity
8
0
100
AcDbSpline
70
4
71
3
72
8
73
4
74
0
42
0.000000001
43
0.0000000001
44
0.0000000001
40
0
40
0
40
0
40
0
40
1
40
1
40
1
40
1
41
1
41
1
41
1
41
1
10
123.57557239532471
20
-145.81268513997398
30
0
10
124.04071680704754
20
-145.34754072825115
30
0
10
125.09956690470381
20
-144.65580323537193
30
0
10
125.79350064595543
20
-144.36372642517091
30
0
0
SPLINE
5
215
100
AcDbEntity
8
0
100
AcDbSpline
70
4
71
3
72
8
73
4
74
0
42
0.000000001
43
0.0000000001
44
0.0000000001
40
0
40
0
40
0
40
0
40
1
40
1
40
1
40
1
41
1
41
1
41
1
41
1
10
125.79350064595543
20
-144.36372642517091
30
0
10
126.49120515187583
20
-144.07006702423098
30
0
10
127.2745310465495
20
-143.87237237294516
30
0
10
128.21322536468506
20
-143.75304826100671
30
0
0
SPLINE
5
216
100
AcDbEntity
8
0
100
AcDbSpline
70
4
71
3
72
8
73
4
74
0
42
0.000000001
43
0.0000000001
44
0.0000000001
40
0
40
0
40
0
40
0
40
1
40
1
40
1
40
1
41
1
41
1
41
1
41
1
10
128.21322536468506
20
-143.75304826100671
30
0
10
129.33843123118083
20
-143.61000951131189
30
0
10
129.8473471959432
20
-143.61805165608726
30
0
10
130.62814579010012
20
-143.79123229980473
30
0
0
SPLINE
5
217
100
AcDbEntity
8
0
100
AcDbSpline
70
4
71
3
72
8
73
4
74
0
42
0.000000001
43
0.0000000001
44
0.0000000001
40
0
40
0
40
0
40
0
40
1
40
1
40
1
40
1
41
1
41
1
41
1
41
1
10
130.62814579010012
20
-143.79123229980473
30
0
10
131.36623865763346
20
-143.95494162241621
30
0
10
132.85673230489098
20
-144.45757567087813
30
0
10
133.11749642690023
20
-144.63072401682538
30
0
0
SPLINE
5
218
100
AcDbEntity
8
0
100
AcDbSpline
70
4
71
3
72
8
73
4
74
0
42
0.000000001
43
0.0000000001
44
0.0000000001
40
0
40
0
40
0
40
0
40
1
40
1
40
1
40
1
41
1
41
1
41
1
41
1
10
133.11749642690023
20
-144.63072401682538
30
0
10
133.28964354197186
20
-144.74501775105796
30
0
10
133.30136763254802
20
-144.73858242034913
30
0
10
133.52551415761315
20
-144.40671475728354
30
0
0
SPLINE
5
219
100
AcDbEntity
8
0
100
AcDbSpline
70
4
71
3
72
8
73
4
74
0
42
0.000000001
43
0.0000000001
44
0.0000000001
40
0
40
0
40
0
40
0
40
1
40
1
40
1
40
1
41
1
41
1
41
1
41
1
10
133.52551415761315
20
-144.40671475728354
30
0
10
133.65244439442955
20
-144.21879018147789
30
0
10
133.97046438852948
20
-143.91924451192222
30
0
10
134.23222974141441
20
-143.74105771382654
30
0
0
SPLINE
5
220
100
AcDbEntity
8
0
100
AcDbSpline
70
4
71
3
72
8
73
4
74
0
42
0.000000001
43
0.0000000001
44
0.0000000001
40
0
40
0
40
0
40
0
40
1
40
1
40
1
40
1
41
1
41
1
41
1
41
1
10
134.23222974141441
20
-143.74105771382654
30
0
10
134.64235490163168
20
-143.4618919372559
30
0
10
134.76222000122073
20
-143.41715145111087
30
0
10
135.0990615208944
20
-143.41751480102542
30
0
0
SPLINE
5
221
100
AcDbEntity
8
0
100
AcDbSpline
70
4
71
3
72
8
73
4
74
0
42
0.000000001
43
0.0000000001
44
0.0000000001
40
0
40
0
40
0
40
0
40
1
40
1
40
1
40
1
41
1
41
1
41
1
41
1
10
135.0990615208944
20
-143.41751480102542
30
0
10
135.61623764038089
20
-143.41804771423344
30
0
10
135.9605641682943
20
-143.51565157572429
30
0
10
136.74896888732911
20
-143.88509769439702
30
0
0
LINE
5
222
100
AcDbEntity
8
0
100
AcDbLine
10
136.74896888732911
20
-143.88509769439702
30
0
11
137.40496889750165
21
-144.19249172210695
31
0
0
LINE
5
223
100
AcDbEntity
8
0
100
AcDbLine
10
137.40496889750165
20
-144.19249172210695
30
0
11
137.80142402648929
21
-144.02194334665938
31
0
0
SPLINE
5
224
100
AcDbEntity
8
0
100
AcDbSpline
70
4
71
3
72
8
73
4
74
0
42
0.000000001
43
0.0000000001
44
0.0000000001
40
0
40
0
40
0
40
0
40
1
40
1
40
1
40
1
41
1
41
1
41
1
41
1
10
137.80142402648926
20
-144.02194334665938
30
0
10
138.42716102600099
20
-143.75275758107506
30
0
10
139.03589324951173
20
-143.82708282470705
30
0
10
139.96296844482424
20
-144.28585650126141
30
0
0
SPLINE
5
225
100
AcDbEntity
8
0
100
AcDbSpline
70
4
71
3
72
8
73
4
74
0
42
0.000000001
43
0.0000000001
44
0.0000000001
40
0
40
0
40
0
40
0
40
1
40
1
40
1
40
1
41
1
41
1
41
1
41
1
10
139.96296844482424
20
-144.28585650126141
30
0
10
140.63619931538904
20
-144.61900800069176
30
0
10
140.77081642150881
20
-144.72653535207115
30
0
10
141.75234565734866
20
-145.71512165069583
30
0
0
SPLINE
5
226
100
AcDbEntity
8
0
100
AcDbSpline
70
4
71
3
72
8
73
4
74
0
42
0.000000001
43
0.0000000001
44
0.0000000001
40
0
40
0
40
0
40
0
40
1
40
1
40
1
40
1
41
1
41
1
41
1
41
1
10
141.75234565734866
20
-145.71512165069583
30
0
10
142.72263526916507
20
-146.69237950642906
30
0
10
142.82937939961752
20
-146.77814623514814
30
0
10
142.99606819152834
20
-146.71443080902102
30
0
0
SPLINE
5
227
100
AcDbEntity
8
0
100
AcDbSpline
70
4
71
3
72
8
73
4
74
0
42
0.000000001
43
0.0000000001
44
0.0000000001
40
0
40
0
40
0
40
0
40
1
40
1
40
1
40
1
41
1
41
1
41
1
41
1
10
142.99606819152834
20
-146.71443080902102
30
0
10
143.48725268046064
20
-146.52666772206626
30
0
10
144.64354515075686
20
-146.80183664957684
30
0
10
145.37227973937991
20
-147.27990824381516
30
0
0
SPLINE
5
228
100
AcDbEntity
8
0
100
AcDbSpline
70
4
71
3
72
8
73
4
74
0
42
0.000000001
43
0.0000000001
44
0.0000000001
40
0
40
0
40
0
40
0
40
1
40
1
40
1
40
1
41
1
41
1
41
1
41
1
10
145.37227973937991
20
-147.27990824381516
30
0
10
146.36435419718427
20
-147.93074061075851
30
0
10
147.65899416605632
20
-149.50808296203616
30
0
10
148.22522252400719
20
-150.75581041971847
30
0
0
SPLINE
5
229
100
AcDbEntity
8
0
100
AcDbSpline
70
4
71
3
72
8
73
4
74
0
42
0.000000001
43
0.0000000001
44
0.0000000001
40
0
40
0
40
0
40
0
40
1
40
1
40
1
40
1
41
1
41
1
41
1
41
1
10
148.22522252400719
20
-150.75581041971847
30
0
10
148.66731440226238
20
-151.72999998728437
30
0
10
149.24625193277996
20
-153.6724605560303
30
0
10
149.24625193277996
20
-154.18156223297123
30
0
0
LINE
5
230
100
AcDbEntity
8
0
100
AcDbLine
10
149.24625193277996
20
-154.18156223297123
30
0
11
149.24625193277996
21
-154.55963185628258
31
0
0
LINE
5
231
100
AcDbEntity
8
0
100
AcDbLine
10
149.24625193277996
20
-154.55963185628258
30
0
11
149.53337910970055
21
-154.6081431070964
31
0
0
SPLINE
5
232
100
AcDbEntity
8
0
100
AcDbSpline
70
4
71
3
72
8
73
4
74
0
42
0.000000001
43
0.0000000001
44
0.0000000001
40
0
40
0
40
0
40
0
40
1
40
1
40
1
40
1
41
1
41
1
41
1
41
1
10
149.53337910970055
20
-154.6081431070964
30
0
10
150.24636853535972
20
-154.72860571543379
30
0
10
151.3538752237956
20
-155.64964930216473
30
0
10
151.86824951171877
20
-156.54990119934087
30
0
0
SPLINE
5
233
100
AcDbEntity
8
0
100
AcDbSpline
70
4
71
3
72
8
73
4
74
0
42
0.000000001
43
0.0000000001
44
0.0000000001
40
0
40
0
40
0
40
0
40
1
40
1
40
1
40
1
41
1
41
1
41
1
41
1
10
151.86824951171877
20
-156.54990119934087
30
0
10
152.22438087463382
20
-157.17320779164635
30
0
10
152.93972803751632
20
-159.08578484853112
30
0
10
152.93972803751632
20
-159.41464074452722
30
0
0
SPLINE
5
234
100
AcDbEntity
8
0
100
AcDbSpline
70
4
71
3
72
8
73
4
74
0
42
0.000000001
43
0.0000000001
44
0.0000000001
40
0
40
0
40
0
40
0
40
1
40
1
40
1
40
1
41
1
41
1
41
1
41
1
10
152.93972803751632
20
-159.41464074452722
30
0
10
152.93972803751632
20
-159.6203371683757
30
0
10
152.94610684712728
20
-159.62313899993899
30
0
10
153.41492513020836
20
-159.62313899993899
30
0
0
SPLINE
5
235
100
AcDbEntity
8
0
100
AcDbSpline
70
4
71
3
72
8
73
4
74
0
42
0.000000001
43
0.0000000001
44
0.0000000001
40
0
40
0
40
0
40
0
40
1
40
1
40
1
40
1
41
1
41
1
41
1
41
1
10
153.41492513020836
20
-159.62313899993899
30
0
10
154.0110935211182
20
-159.62313899993899
30
0
10
154.42907511393233
20
-159.86520271301271
30
0
10
154.9361501057943
20
-160.50412527720135
30
0
0
SPLINE
5
236
100
AcDbEntity
8
0
100
AcDbSpline
70
4
71
3
72
8
73
4
74
0
42
0.000000001
43
0.0000000001
44
0.0000000001
40
0
40
0
40
0
40
0
40
1
40
1
40
1
40
1
41
1
41
1
41
1
41
1
10
154.9361501057943
20
-160.50412527720135
30
0
10
155.70813140869143
20
-161.47682914733892
30
0
10
156.13693275451664
20
-162.53009173075361
30
0
10
156.37267417907717
20
-164.03268896738692
30
0
0
SPLINE
5
237
100
AcDbEntity
8
0
100
AcDbSpline
70
4
71
3
72
8
73
4
74
0
42
0.000000001
43
0.0000000001
44
0.0000000001
40
0
40
0
40
0
40
0
40
1
40
1
40
1
40
1
41
1
41
1
41
1
41
1
10
156.37267417907717
20
-164.03268896738692
30
0
10
156.52529729207359
20
-165.00549780527757
30
0
10
156.49001197814943
20
-166.68784828186037
30
0
10
156.29365768432618
20
-167.79986858367923
30
0
0
SPLINE
5
238
100
AcDbEntity
8
0
100
AcDbSpline
70
4
71
3
72
8
73
4
74
0
42
0.000000001
43
0.0000000001
44
0.0000000001
40
0
40
0
40
0
40
0
40
1
40
1
40
1
40
1
41
1
41
1
41
1
41
1
10
156.29365768432618
20
-167.79986858367923
30
0
10
156.1236583709717
20
-168.76263281504316
30
0
10
155.6374315897624
20
-170.41377557118736
30
0
10
155.31613337198894
20
-171.11933650970462
30
0
0
SPLINE
5
239
100
AcDbEntity
8
0
100
AcDbSpline
70
4
71
3
72
8
73
4
74
0
42
0.000000001
43
0.0000000001
44
0.0000000001
40
0
40
0
40
0
40
0
40
1
40
1
40
1
40
1
41
1
41
1
41
1
41
1
10
155.31613337198894
20
-171.11933650970462
30
0
10
155.1653996785482
20
-171.45032405853274
30
0
10
155.07423922220869
20
-171.68721205393473
30
0
10
155.11356175740562
20
-171.64575786590578
30
0
0
SPLINE
5
240
100
AcDbEntity
8
0
100
AcDbSpline
70
4
71
3
72
8
73
4
74
0
42
0.000000001
43
0.0000000001
44
0.0000000001
40
0
40
0
40
0
40
0
40
1
40
1
40
1
40
1
41
1
41
1
41
1
41
1
10
155.11356175740562
20
-171.64575786590578
30
0
10
155.33016675313317
20
-171.41731573740643
30
0
10
156.29230117797852
20
-169.67427775065107
30
0
10
156.48657226562503
20
-169.15832087198896
30
0
0
SPLINE
5
241
100
AcDbEntity
8
0
100
AcDbSpline
70
4
71
3
72
8
73
4
74
0
42
0.000000001
43
0.0000000001
44
0.0000000001
40
0
40
0
40
0
40
0
40
1
40
1
40
1
40
1
41
1
41
1
41
1
41
1
10
156.48657226562503
20
-169.15832087198896
30
0
10
157.06123034159344
20
-167.63219470977788
30
0
10
157.35764312744143
20
-167.07724634806317
30
0
10
157.69928894042971
20
-166.88778762817384
30
0
0
SPLINE
5
242
100
AcDbEntity
8
0
100
AcDbSpline
70
4
71
3
72
8
73
4
74
0
42
0.000000001
43
0.0000000001
44
0.0000000001
40
0
40
0
40
0
40
0
40
1
40
1
40
1
40
1
41
1
41
1
41
1
41
1
10
157.69928894042971
20
-166.88778762817384
30
0
10
157.95618540445966
20
-166.74533023834229
30
0
10
158.44176623026533
20
-166.76221389770512
30
0
10
158.74362119038904
20
-166.92410647074382
30
0
0
SPLINE
5
243
100
AcDbEntity
8
0
100
AcDbSpline
70
4
71
3
72
8
73
4
74
0
42
0.000000001
43
0.0000000001
44
0.0000000001
40
0
40
0
40
0
40
0
40
1
40
1
40
1
40
1
41
1
41
1
41
1
41
1
10
158.74362119038904
20
-166.92410647074382
30
0
10
159.0654200236003
20
-167.09668960571292
30
0
10
159.27593688964845
20
-167.49940242767337
30
0
10
159.54237734476726
20
-168.45208168029788
30
0
0
SPLINE
5
244
100
AcDbEntity
8
0
100
AcDbSpline
70
4
71
3
72
8
73
4
74
0
42
0.000000001
43
0.0000000001
44
0.0000000001
40
0
40
0
40
0
40
0
40
1
40
1
40
1
40
1
41
1
41
1
41
1
41
1
10
159.54237734476726
20
-168.45208168029788
30
0
10
160.02209612528486
20
-170.16739203135174
30
0
10
159.87922693888348
20
-172.7421621958415
30
0
10
159.18387209574382
20
-174.91293570200605
30
0
0
SPLINE
5
245
100
AcDbEntity
8
0
100
AcDbSpline
70
4
71
3
72
8
73
4
74
0
42
0.000000001
43
0.0000000001
44
0.0000000001
40
0
40
0
40
0
40
0
40
1
40
1
40
1
40
1
41
1
41
1
41
1
41
1
10
159.18387209574382
20
-174.91293570200605
30
0
10
158.53933779398602
20
-176.9250464121501
30
0
10
157.53287467956545
20
-178.58888219197596
30
0
10
155.99249712626141
20
-180.18880068461101
30
0
0
SPLINE
5
246
100
AcDbEntity
8
0
100
AcDbSpline
70
4
71
3
72
8
73
4
74
0
42
0.000000001
43
0.0000000001
44
0.0000000001
40
0
40
0
40
0
40
0
40
1
40
1
40
1
40
1
41
1
41
1
41
1
41
1
10
155.99249712626141
20
-180.18880068461101
30
0
10
154.68485730489098
20
-181.54698651631676
30
0
10
153.38926455179853
20
-182.48690007527671
30
0
10
151.71764500935876
20
-183.29009717305502
30
0
0
SPLINE
5
247
100
AcDbEntity
8
0
100
AcDbSpline
70
4
71
3
72
8
73
4
74
0
42
0.000000001
43
0.0000000001
44
0.0000000001
40
0
40
0
40
0
40
0
40
1
40
1
40
1
40
1
41
1
41
1
41
1
41
1
10
151.71764500935876
20
-183.29009717305502
30
0
10
150.63177782694501
20
-183.81184342702232
30
0
10
149.32449328104656
20
-184.27345930735274
30
0
10
148.33240267435713
20
-184.48546187082928
30
0
0
ENDSEC
0
SECTION
2
OBJECTS
0
DICTIONARY
5
C
100
AcDbDictionary
3
ACAD_GROUP
350
D
3
ACAD_MLINESTYLE
350
17
0
DICTIONARY
5
D
100
AcDbDictionary
0
DICTIONARY
5
1A
330
C
100
AcDbDictionary
0
DICTIONARY
5
17
100
AcDbDictionary
0
ENDSEC
0
EOF
