0
SECTION
2
HEADER
9
$INSUNITS
70
4
9
$ACADVER
1
AC1014
9
$HANDSEED
5
FFFF
0
ENDSEC
0
SECTION
2
TABLES
0
TABLE
2
VPORT
5
8
100
AcDbSymbolTable
0
ENDTAB
0
TABLE
2
LTYPE
5
5
100
AcDbSymbolTable
0
LTYPE
5
14
100
AcDbSymbolTableRecord
100
AcDbLinetypeTableRecord
2
BYBLOCK
70
0
0
LTYPE
5
15
100
AcDbSymbolTableRecord
100
AcDbLinetypeTableRecord
2
BYLAYER
70
0
0
ENDTAB
0
TABLE
2
LAYER
5
2
100
AcDbSymbolTable
70
2
0
LAYER
5
50
100
AcDbSymbolTableRecord
100
AcDbLayerTableRecord
2
0
70
0
6
CONTINUOUS
0
ENDTAB
0
TABLE
2
STYLE
5
3
100
AcDbSymbolTable
70
1
0
STYLE
5
11
100
AcDbSymbolTableRecord
100
AcDbTextStyleTableRecord
2
STANDARD
70
0
0
ENDTAB
0
TABLE
2
VIEW
5
6
100
AcDbSymbolTable
70
0
0
ENDTAB
0
TABLE
2
UCS
5
7
100
AcDbSymbolTable
70
0
0
ENDTAB
0
TABLE
2
APPID
5
9
100
AcDbSymbolTable
70
2
0
APPID
5
12
100
AcDbSymbolTableRecord
100
AcDbRegAppTableRecord
2
ACAD
70
0
0
ENDTAB
0
TABLE
2
DIMSTYLE
5
A
100
AcDbSymbolTable
70
1
0
ENDTAB
0
TABLE
2
BLOCK_RECORD
5
1
100
AcDbSymbolTable
70
1
0
BLOCK_RECORD
5
1F
100
AcDbSymbolTableRecord
100
AcDbBlockTableRecord
2
*MODEL_SPACE
0
BLOCK_RECORD
5
1B
100
AcDbSymbolTableRecord
100
AcDbBlockTableRecord
2
*PAPER_SPACE
0
ENDTAB
0
ENDSEC
0
SECTION
2
BLOCKS
0
BLOCK
5
20
100
AcDbEntity
100
AcDbBlockBegin
2
*MODEL_SPACE
0
ENDBLK
5
21
100
AcDbEntity
100
AcDbBlockEnd
0
BLOCK
5
1C
100
AcDbEntity
100
AcDbBlockBegin
2
*PAPER_SPACE
0
ENDBLK
5
1D
100
AcDbEntity
100
AcDbBlockEnd
0
ENDSEC
0
SECTION
2
ENTITIES
0
LINE
5
100
100
AcDbEntity
8
0
100
AcDbLine
10
80.345282974824187
20
-87.506347019912326
30
0
11
80.318513279300348
21
-87.876050793718022
31
0
0
SPLINE
5
101
100
AcDbEntity
8
0
100
AcDbSpline
70
4
71
3
72
8
73
4
74
0
42
0.000000001
43
0.0000000001
44
0.0000000001
40
0.22577076500093007
40
0.22577076500093007
40
0.22577076500093007
40
0.22577076500093007
40
1
40
1
40
1
40
1
41
1
41
1
41
1
41
1
10
80.318513279300348
20
-87.876050793718022
30
0
10
80.288938412583349
20
-88.001638415782963
30
0
10
80.176841902381
20
-88.28514330076996
30
0
10
80.029732322692894
20
-88.598438819249466
30
0
0
SPLINE
5
102
100
AcDbEntity
8
0
100
AcDbSpline
70
4
71
3
72
8
73
4
74
0
42
0.000000001
43
0.0000000001
44
0.0000000001
40
0
40
0
40
0
40
0
40
1
40
1
40
1
40
1
41
1
41
1
41
1
41
1
10
80.029732322692894
20
-88.598438819249466
30
0
10
79.545830980936699
20
-89.628939549128219
30
0
10
79.362621879577645
20
-90.35785984992981
30
0
10
79.315830485026055
20
-91.43885612487793
30
0
0
SPLINE
5
103
100
AcDbEntity
8
0
100
AcDbSpline
70
4
71
3
72
8
73
4
74
0
42
0.000000001
43
0.0000000001
44
0.0000000001
40
0
40
0
40
0
40
0
40
1
40
1
40
1
40
1
41
1
41
1
41
1
41
1
10
79.315830485026055
20
-91.43885612487793
30
0
10
79.270960807800307
20
-92.475410668055218
30
0
10
79.363292058308929
20
-93.123578468958527
30
0
10
79.680318895975759
20
-93.997638893127444
30
0
0
SPLINE
5
104
100
AcDbEntity
8
0
100
AcDbSpline
70
4
71
3
72
8
73
4
74
0
42
0.000000001
43
0.0000000001
44
0.0000000001
40
0
40
0
40
0
40
0
40
1
40
1
40
1
40
1
41
1
41
1
41
1
41
1
10
79.680318895975759
20
-93.997638893127444
30
0
10
81.063511276245137
20
-97.811137549082446
30
0
10
85.62991536458334
20
-100.78226796785991
30
0
10
92.545247459411627
20
-102.36819547017416
30
0
0
SPLINE
5
105
100
AcDbEntity
8
0
100
AcDbSpline
70
4
71
3
72
8
73
4
74
0
42
0.000000001
43
0.0000000001
44
0.0000000001
40
0
40
0
40
0
40
0
40
1
40
1
40
1
40
1
41
1
41
1
41
1
41
1
10
92.545247459411627
20
-102.36819547017416
30
0
10
93.645721308390307
20
-102.62057428359986
30
0
10
93.729808553059911
20
-102.62913117408755
30
0
10
94.467352358500165
20
-102.56377865473431
30
0
0
SPLINE
5
106
100
AcDbEntity
8
0
100
AcDbSpline
70
4
71
3
72
8
73
4
74
0
42
0.000000001
43
0.0000000001
44
0.0000000001
40
0
40
0
40
0
40
0
40
1
40
1
40
1
40
1
41
1
41
1
41
1
41
1
10
94.467352358500165
20
-102.56377865473431
30
0
10
95.812764422098809
20
-102.44456354777017
30
0
10
96.814076042175316
20
-102.05053680737814
30
0
10
98.668291028340676
20
-100.91067582766215
30
0
0
SPLINE
5
107
100
AcDbEntity
8
0
100
AcDbSpline
70
4
71
3
72
8
73
4
74
0
42
0.000000001
43
0.0000000001
44
0.0000000001
40
0
40
0
40
0
40
0
40
1
40
1
40
1
40
1
41
1
41
1
41
1
41
1
10
98.668291028340676
20
-100.91067582766215
30
0
10
101.34582462310792
20
-99.264684565862041
30
0
10
103.73121681213379
20
-98.282868687311819
30
0
10
106.46980126698814
20
-97.699617385864258
30
0
0
SPLINE
5
108
100
AcDbEntity
8
0
100
AcDbSpline
70
4
71
3
72
8
73
4
74
0
42
0.000000001
43
0.0000000001
44
0.0000000001
40
0
40
0
40
0
40
0
40
1
40
1
40
1
40
1
41
1
41
1
41
1
41
1
10
106.46980126698814
20
-97.699617385864258
30
0
10
107.72798512776694
20
-97.431654898325604
30
0
10
109.99083150227867
20
-97.358875910441071
30
0
10
111.25623391469321
20
-97.545672082901007
30
0
0
SPLINE
5
109
100
AcDbEntity
8
0
100
AcDbSpline
70
4
71
3
72
8
73
4
74
0
42
0.000000001
43
0.0000000001
44
0.0000000001
40
0
40
0
40
0
40
0
40
1
40
1
40
1
40
1
41
1
41
1
41
1
41
1
10
111.25623391469321
20
-97.545672082901007
30
0
10
112.77238814036053
20
-97.769485537211111
30
0
10
115.71592617034915
20
-98.446085468928018
30
0
10
115.95416259765626
20
-98.625539954503381
30
0
0
SPLINE
5
110
100
AcDbEntity
8
0
100
AcDbSpline
70
4
71
3
72
8
73
4
74
0
42
0.000000001
43
0.0000000001
44
0.0000000001
40
0
40
0
40
0
40
0
40
1
40
1
40
1
40
1
41
1
41
1
41
1
41
1
10
115.95416259765626
20
-98.625539954503381
30
0
10
116.00283533732097
20
-98.66220397949219
30
0
10
116.19529774983725
20
-98.735838858286542
30
0
10
116.38185774485272
20
-98.78917458852132
30
0
0
SPLINE
5
111
100
AcDbEntity
8
0
100
AcDbSpline
70
4
71
3
72
8
73
4
74
0
42
0.000000001
43
0.0000000001
44
0.0000000001
40
0
40
0
40
0
40
0
40
1
40
1
40
1
40
1
41
1
41
1
41
1
41
1
10
116.38185774485272
20
-98.78917458852132
30
0
10
116.56841773986818
20
-98.842508300145482
30
0
10
116.85133813222251
20
-98.952470095952364
30
0
10
117.01057421366374
20
-99.033531443278008
30
0
0
SPLINE
5
112
100
AcDbEntity
8
0
100
AcDbSpline
70
4
71
3
72
8
73
4
74
0
42
0.000000001
43
0.0000000001
44
0.0000000001
40
0
40
0
40
0
40
0
40
1
40
1
40
1
40
1
41
1
41
1
41
1
41
1
10
117.01057421366374
20
-99.033531443278008
30
0
10
117.28969154357912
20
-99.175621445973718
30
0
10
117.30382181803387
20
-99.17599690755209
30
0
10
117.40390453338625
20
-99.043981790542617
30
0
0
SPLINE
5
113
100
AcDbEntity
8
0
100
AcDbSpline
70
4
71
3
72
8
73
4
74
0
42
0.000000001
43
0.0000000001
44
0.0000000001
40
0
40
0
40
0
40
0
40
1
40
1
40
1
40
1
41
1
41
1
41
1
41
1
10
117.40390453338625
20
-99.043981790542617
30
0
10
117.46099891662598
20
-98.968663390477502
30
0
10
117.50879154205323
20
-98.882289059956875
30
0
10
117.51010767618817
20
-98.852040179570523
30
0
0
SPLINE
5
114
100
AcDbEntity
8
0
100
AcDbSpline
70
4
71
3
72
8
73
4
74
0
42
0.000000001
43
0.0000000001
44
0.0000000001
40
0
40
0
40
0
40
0
40
1
40
1
40
1
40
1
41
1
41
1
41
1
41
1
10
117.51010767618817
20
-98.852040179570523
30
0
10
117.51143188476564
20
-98.821791299184156
30
0
10
117.65479361216229
20
-98.72444783846538
30
0
10
117.82870903015139
20
-98.635723845163994
30
0
0
SPLINE
5
115
100
AcDbEntity
8
0
100
AcDbSpline
70
4
71
3
72
8
73
4
74
0
42
0.000000001
43
0.0000000001
44
0.0000000001
40
0
40
0
40
0
40
0
40
1
40
1
40
1
40
1
41
1
41
1
41
1
41
1
10
117.82870903015139
20
-98.635723845163994
30
0
10
118.48860092163088
20
-98.299074093500778
30
0
10
119.36668039957684
20
-98.603474521636969
30
0
10
119.70818894704183
20
-99.2872808933258
30
0
0
SPLINE
5
116
100
AcDbEntity
8
0
100
AcDbSpline
70
4
71
3
72
8
73
4
74
0
42
0.000000001
43
0.0000000001
44
0.0000000001
40
0
40
0
40
0
40
0
40
1
40
1
40
1
40
1
41
1
41
1
41
1
41
1
10
119.70818894704183
20
-99.2872808933258
30
0
10
119.91548411051434
20
-99.702345593770346
30
0
10
120.31568578084311
20
-100.07631541887919
30
0
10
120.54905331929527
20
-100.07302912076314
30
0
0
SPLINE
5
117
100
AcDbEntity
8
0
100
AcDbSpline
70
4
71
3
72
8
73
4
74
0
42
0.000000001
43
0.0000000001
44
0.0000000001
40
0
40
0
40
0
40
0
40
1
40
1
40
1
40
1
41
1
41
1
41
1
41
1
10
120.54905331929527
20
-100.07302912076314
30
0
10
120.64089202880862
20
-100.07170693079631
30
0
10
120.85170764923097
20
-99.987108977635714
30
0
10
121.01754055023194
20
-99.884971316655481
30
0
0
SPLINE
5
118
100
AcDbEntity
8
0
100
AcDbSpline
70
4
71
3
72
8
73
4
74
0
42
0.000000001
43
0.0000000001
44
0.0000000001
40
0
40
0
40
0
40
0
40
1
40
1
40
1
40
1
41
1
41
1
41
1
41
1
10
121.01754055023194
20
-99.884971316655481
30
0
10
121.64135583241782
20
-99.500750986735028
30
0
10
122.53067493438722
20
-99.737883234024054
30
0
10
122.80678049723309
20
-100.36206590334575
30
0
0
SPLINE
5
119
100
AcDbEntity
8
0
100
AcDbSpline
70
4
71
3
72
8
73
4
74
0
42
0.000000001
43
0.0000000001
44
0.0000000001
40
0
40
0
40
0
40
0
40
1
40
1
40
1
40
1
41
1
41
1
41
1
41
1
10
122.80678049723309
20
-100.36206590334575
30
0
10
122.88943049112957
20
-100.54891657829286
30
0
10
122.96162408192954
20
-100.77719519933066
30
0
10
122.96720352172854
20
-100.86934881210327
30
0
0
SPLINE
5
120
100
AcDbEntity
8
0
100
AcDbSpline
70
4
71
3
72
8
73
4
74
0
42
0.000000001
43
0.0000000001
44
0.0000000001
40
0
40
0
40
0
40
0
40
1
40
1
40
1
40
1
41
1
41
1
41
1
41
1
10
122.96720352172854
20
-100.86934881210327
30
0
10
122.97675558725996
20
-101.0273474852244
30
0
10
123.01818555196128
20
-101.03892825444539
30
0
10
123.69342695871991
20
-101.07240085601808
30
0
0
SPLINE
5
121
100
AcDbEntity
8
0
100
AcDbSpline
70
4
71
3
72
8
73
4
74
0
42
0.000000001
43
0.0000000001
44
0.0000000001
40
0
40
0
40
0
40
0
40
1
40
1
40
1
40
1
41
1
41
1
41
1
41
1
10
123.69342695871991
20
-101.07240085601808
30
0
10
124.21582724253339
20
-101.09830366770427
30
0
10
124.51838467915854
20
-101.15505690574648
30
0
10
124.81207637786866
20
-101.28225763638815
30
0
0
SPLINE
5
122
100
AcDbEntity
8
0
100
AcDbSpline
70
4
71
3
72
8
73
4
74
0
42
0.000000001
43
0.0000000001
44
0.0000000001
40
0
40
0
40
0
40
0
40
1
40
1
40
1
40
1
41
1
41
1
41
1
41
1
10
124.81207637786866
20
-101.28225763638815
30
0
10
125.28627223968508
20
-101.48763713836671
30
0
10
125.24796708424887
20
-101.52135197321573
30
0
10
125.58090057373049
20
-100.60560925801596
30
0
0
SPLINE
5
123
100
AcDbEntity
8
0
100
AcDbSpline
70
4
71
3
72
8
73
4
74
0
42
0.000000001
43
0.0000000001
44
0.0000000001
40
0
40
0
40
0
40
0
40
1
40
1
40
1
40
1
41
1
41
1
41
1
41
1
10
125.58090057373049
20
-100.60560925801596
30
0
10
126.20737234751385
20
-98.882456604639685
30
0
10
126.24656569163007
20
-97.292717965443941
30
0
10
125.70193646748862
20
-95.696132198969522
30
0
0
SPLINE
5
124
100
AcDbEntity
8
0
100
AcDbSpline
70
4
71
3
72
8
73
4
74
0
42
0.000000001
43
0.0000000001
44
0.0000000001
40
0
40
0
40
0
40
0
40
1
40
1
40
1
40
1
41
1
41
1
41
1
41
1
10
125.70193646748862
20
-95.696132198969522
30
0
10
125.51469821929933
20
-95.147255818049118
30
0
10
125.33068167368572
20
-94.797089449564623
30
0
10
124.93941841125491
20
-94.245126612981167
30
0
0
SPLINE
5
125
100
AcDbEntity
8
0
100
AcDbSpline
70
4
71
3
72
8
73
4
74
0
42
0.000000001
43
0.0000000001
44
0.0000000001
40
0
40
0
40
0
40
0
40
1
40
1
40
1
40
1
41
1
41
1
41
1
41
1
10
124.93941841125491
20
-94.245126612981167
30
0
10
124.65576324462893
20
-93.844981463750216
30
0
10
124.37675088246665
20
-93.517591079076126
30
0
10
124.31938196818037
20
-93.517591079076126
30
0
0
SPLINE
5
126
100
AcDbEntity
8
0
100
AcDbSpline
70
4
71
3
72
8
73
4
74
0
42
0.000000001
43
0.0000000001
44
0.0000000001
40
0
40
0
40
0
40
0
40
1
40
1
40
1
40
1
41
1
41
1
41
1
41
1
10
124.31938196818037
20
-93.517591079076126
30
0
10
124.13974984486899
20
-93.517591079076126
30
0
10
123.63873875935874
20
-93.228465477625534
30
0
10
123.48941809336345
20
-93.038631296157845
30
0
0
SPLINE
5
127
100
AcDbEntity
8
0
100
AcDbSpline
70
4
71
3
72
8
73
4
74
0
42
0.000000001
43
0.0000000001
44
0.0000000001
40
0
40
0
40
0
40
0
40
1
40
1
40
1
40
1
41
1
41
1
41
1
41
1
10
123.48941809336345
20
-93.038631296157845
30
0
10
123.36092141469322
20
-92.87527119318645
30
0
10
123.32773545583092
20
-92.86681725184124
30
0
10
123.15998083750408
20
-92.95471361478171
30
0
0
SPLINE
5
128
100
AcDbEntity
8
0
100
AcDbSpline
70
4
71
3
72
8
73
4
74
0
42
0.000000001
43
0.0000000001
44
0.0000000001
40
0
40
0
40
0
40
0
40
1
40
1
40
1
40
1
41
1
41
1
41
1
41
1
10
123.15998083750408
20
-92.95471361478171
30
0
10
122.85185203552247
20
-93.116156037648523
30
0
10
122.07616456349692
20
-93.291462278366097
30
0
10
121.6699312845866
20
-93.291462278366097
30
0
0
SPLINE
5
129
100
AcDbEntity
8
0
100
AcDbSpline
70
4
71
3
72
8
73
4
74
0
42
0.000000001
43
0.0000000001
44
0.0000000001
40
0
40
0
40
0
40
0
40
1
40
1
40
1
40
1
41
1
41
1
41
1
41
1
10
121.6699312845866
20
-93.291462278366097
30
0
10
120.69136536916099
20
-93.291462278366097
30
0
10
120.0889715830485
20
-92.952034918467206
30
0
10
119.77587699890138
20
-92.224222834904992
30
0
0
SPLINE
5
130
100
AcDbEntity
8
0
100
AcDbSpline
70
4
71
3
72
8
73
4
74
0
42
0.000000001
43
0.0000000001
44
0.0000000001
40
0
40
0
40
0
40
0
40
1
40
1
40
1
40
1
41
1
41
1
41
1
41
1
10
119.77587699890138
20
-92.224222834904992
30
0
10
119.53539587656658
20
-91.665213028589889
30
0
10
119.58015251159671
20
-90.783550516764322
30
0
10
119.88012612660727
20
-90.170419740676877
30
0
0
SPLINE
5
131
100
AcDbEntity
8
0
100
AcDbSpline
70
4
71
3
72
8
73
4
74
0
42
0.000000001
43
0.0000000001
44
0.0000000001
40
0
40
0
40
0
40
0
40
1
40
1
40
1
40
1
41
1
41
1
41
1
41
1
10
119.88012612660727
20
-90.170419740676877
30
0
10
120.17686189015707
20
-89.563912026087436
30
0
10
120.80950253804528
20
-88.915576680501289
30
0
10
121.65072218577069
20
-88.355886602401739
30
0
0
SPLINE
5
132
100
AcDbEntity
8
0
100
AcDbSpline
70
4
71
3
72
8
73
4
74
0
42
0.000000001
43
0.0000000001
44
0.0000000001
40
0
40
0
40
0
40
0
40
1
40
1
40
1
40
1
41
1
41
1
41
1
41
1
10
121.65072218577069
20
-88.355886602401739
30
0
10
122.82819391886395
20
-87.572481981913256
30
0
10
124.08112131754558
20
-87.09197796185812
30
0
10
125.72026545206708
20
-86.795191733042401
30
0
0
SPLINE
5
133
100
AcDbEntity
8
0
100
AcDbSpline
70
4
71
3
72
8
73
4
74
0
42
0.000000001
43
0.0000000001
44
0.0000000001
40
0
40
0
40
0
40
0
40
1
40
1
40
1
40
1
41
1
41
1
41
1
41
1
10
125.72026545206708
20
-86.795191733042401
30
0
10
126.78738377888999
20
-86.601977388064057
30
0
10
129.20672092437746
20
-86.563273557027173
30
0
10
130.28890616099039
20
-86.722103897730506
30
0
0
SPLINE
5
134
100
AcDbEntity
8
0
100
AcDbSpline
70
4
71
3
72
8
73
4
74
0
42
0.000000001
43
0.0000000001
44
0.0000000001
40
0
40
0
40
0
40
0
40
1
40
1
40
1
40
1
41
1
41
1
41
1
41
1
10
130.28890616099039
20
-86.722103897730506
30
0
10
132.25613911946618
20
-87.010831832885742
30
0
10
133.87584807078045
20
-87.512684679031381
30
0
10
135.56528790791833
20
-88.356944354375202
30
0
0
SPLINE
5
135
100
AcDbEntity
8
0
100
AcDbSpline
70
4
71
3
72
8
73
4
74
0
42
0.000000001
43
0.0000000001
44
0.0000000001
40
0
40
0
40
0
40
0
40
1
40
1
40
1
40
1
41
1
41
1
41
1
41
1
10
135.56528790791833
20
-88.356944354375202
30
0
10
136.99275245666507
20
-89.070293092727667
30
0
10
137.90432472229006
20
-89.715719620386778
30
0
10
138.96785799662274
20
-90.766107702255255
30
0
0
SPLINE
5
136
100
AcDbEntity
8
0
100
AcDbSpline
70
4
71
3
72
8
73
4
74
0
42
0.000000001
43
0.0000000001
44
0.0000000001
40
0
40
0
40
0
40
0
40
1
40
1
40
1
40
1
41
1
41
1
41
1
41
1
10
138.96785799662274
20
-90.766107702255255
30
0
10
139.84383811950687
20
-91.631259997685746
30
0
10
140.47275644938154
20
-92.495707798004148
30
0
10
140.88056424458824
20
-93.395079580942792
30
0
0
SPLINE
5
137
100
AcDbEntity
8
0
100
AcDbSpline
70
4
71
3
72
8
73
4
74
0
42
0.000000001
43
0.0000000001
44
0.0000000001
40
0
40
0
40
0
40
0
40
1
40
1
40
1
40
1
41
1
41
1
41
1
41
1
10
140.88056424458824
20
-93.395079580942792
30
0
10
141.09167861938479
20
-93.860678180058812
30
0
10
141.40700174967449
20
-94.927124309539792
30
0
10
141.40700174967449
20
-95.175504255294797
30
0
0
SPLINE
5
138
100
AcDbEntity
8
0
100
AcDbSpline
70
4
71
3
72
8
73
4
74
0
42
0.000000001
43
0.0000000001
44
0.0000000001
40
0
40
0
40
0
40
0
40
1
40
1
40
1
40
1
41
1
41
1
41
1
41
1
10
141.40700174967449
20
-95.175504255294797
30
0
10
141.40700174967449
20
-95.254476340611788
30
0
10
141.54865976969401
20
-95.160279893875128
30
0
10
141.80876986185712
20
-94.908337100346898
30
0
0
SPLINE
5
139
100
AcDbEntity
8
0
100
AcDbSpline
70
4
71
3
72
8
73
4
74
0
42
0.000000001
43
0.0000000001
44
0.0000000001
40
0
40
0
40
0
40
0
40
1
40
1
40
1
40
1
41
1
41
1
41
1
41
1
10
141.80876986185712
20
-94.908337100346898
30
0
10
142.28128623962405
20
-94.450669622421259
30
0
10
142.99051297505699
20
-94.037550862630212
30
0
10
143.93212216695153
20
-93.671514177322393
30
0
0
SPLINE
5
140
100
AcDbEntity
8
0
100
AcDbSpline
70
4
71
3
72
8
73
4
74
0
42
0.000000001
43
0.0000000001
44
0.0000000001
40
0
40
0
40
0
40
0
40
1
40
1
40
1
40
1
41
1
41
1
41
1
41
1
10
143.93212216695153
20
-93.671514177322393
30
0
10
144.59078674316407
20
-93.415463511149085
30
0
10
144.64118741353354
20
-93.407750399907442
30
0
10
145.66578572591146
20
-93.40616377194722
30
0
0
SPLINE
5
141
100
AcDbEntity
8
0
100
AcDbSpline
70
4
71
3
72
8
73
4
74
0
42
0.000000001
43
0.0000000001
44
0.0000000001
40
0
40
0
40
0
40
0
40
1
40
1
40
1
40
1
41
1
41
1
41
1
41
1
10
145.66578572591146
20
-93.40616377194722
30
0
10
146.69434051513673
20
-93.404577143987026
30
0
10
146.73346926371261
20
-93.410491673151654
30
0
10
147.21100794474285
20
-93.639979441960648
30
0
0
SPLINE
5
142
100
AcDbEntity
8
0
100
AcDbSpline
70
4
71
3
72
8
73
4
74
0
42
0.000000001
43
0.0000000001
44
0.0000000001
40
0
40
0
40
0
40
0
40
1
40
1
40
1
40
1
41
1
41
1
41
1
41
1
10
147.21100794474285
20
-93.639979441960648
30
0
10
148.5755564371745
20
-94.29571905136109
30
0
10
149.19607734680176
20
-95.242996501922619
30
0
10
149.20466855367027
20
-96.683424568176264
30
0
0
LINE
5
143
100
AcDbEntity
8
0
100
AcDbLine
10
149.20466855367025
20
-96.683424568176264
30
0
11
149.20847969055177
21
-97.324129565556845
31
0
0
LINE
5
144
100
AcDbEntity
8
0
100
AcDbLine
10
149.20847969055177
20
-97.324129565556845
30
0
11
149.56557998657229
21
-97.335480213165297
31
0
0
SPLINE
5
145
100
AcDbEntity
8
0
100
AcDbSpline
70
4
71
3
72
8
73
4
74
0
42
0.000000001
43
0.0000000001
44
0.0000000001
40
0
40
0
40
0
40
0
40
1
40
1
40
1
40
1
41
1
41
1
41
1
41
1
10
149.56557998657229
20
-97.335480213165297
30
0
10
149.76198272705079
20
-97.341723775863642
30
0
10
150.03321940104169
20
-97.411394103368124
30
0
10
150.16833712259933
20
-97.490309667587269
30
0
0
SPLINE
5
146
100
AcDbEntity
8
0
100
AcDbSpline
70
4
71
3
72
8
73
4
74
0
42
0.000000001
43
0.0000000001
44
0.0000000001
40
0
40
0
40
0
40
0
40
1
40
1
40
1
40
1
41
1
41
1
41
1
41
1
10
150.16833712259933
20
-97.490309667587269
30
0
10
150.47594108581546
20
-97.669959958394372
30
0
10
150.75371805826825
20
-98.074067640304577
30
0
10
150.75371805826825
20
-98.341929197311401
30
0
0
SPLINE
5
147
100
AcDbEntity
8
0
100
AcDbSpline
70
4
71
3
72
8
73
4
74
0
42
0.000000001
43
0.0000000001
44
0.0000000001
40
0
40
0
40
0
40
0
40
1
40
1
40
1
40
1
41
1
41
1
41
1
41
1
10
150.75371805826825
20
-98.341929197311401
30
0
10
150.75371805826825
20
-98.540213282903039
30
0
10
150.76872037251792
20
-98.547238047917688
30
0
10
151.28440272013347
20
-98.590470631917313
30
0
0
SPLINE
5
148
100
AcDbEntity
8
0
100
AcDbSpline
70
4
71
3
72
8
73
4
74
0
42
0.000000001
43
0.0000000001
44
0.0000000001
40
0
40
0
40
0
40
0
40
1
40
1
40
1
40
1
41
1
41
1
41
1
41
1
10
151.28440272013347
20
-98.590470631917313
30
0
10
152.16692314147951
20
-98.664458767573038
30
0
10
152.94397519429526
20
-99.118609825770079
30
0
10
153.53588027954103
20
-99.906350421905529
30
0
0
SPLINE
5
149
100
AcDbEntity
8
0
100
AcDbSpline
70
4
71
3
72
8
73
4
74
0
42
0.000000001
43
0.0000000001
44
0.0000000001
40
0
40
0
40
0
40
0
40
1
40
1
40
1
40
1
41
1
41
1
41
1
41
1
10
153.53588027954103
20
-99.906350421905529
30
0
10
153.69801508585613
20
-100.1221257686615
30
0
10
153.8436134338379
20
-100.33751757939656
30
0
10
153.85943934122724
20
-100.38499530156454
30
0
0
SPLINE
5
150
100
AcDbEntity
8
0
100
AcDbSpline
70
4
71
3
72
8
73
4
74
0
42
0.000000001
43
0.0000000001
44
0.0000000001
40
0
40
0
40
0
40
0
40
1
40
1
40
1
40
1
41
1
41
1
41
1
41
1
10
153.85943934122724
20
-100.38499530156454
30
0
10
153.87867266337079
20
-100.44272554715475
30
0
10
153.9975607554118
20
-100.41553688049318
30
0
10
154.21831601460778
20
-100.30291657447816
30
0
0
SPLINE
5
151
100
AcDbEntity
8
0
100
AcDbSpline
70
4
71
3
72
8
73
4
74
0
42
0.000000001
43
0.0000000001
44
0.0000000001
40
0
40
0
40
0
40
0
40
1
40
1
40
1
40
1
41
1
41
1
41
1
41
1
10
154.21831601460778
20
-100.30291657447816
30
0
10
154.90049336751304
20
-99.954895989100137
30
0
10
155.76190719604494
20
-100.21741832097374
30
0
10
156.18428128560387
20
-100.90206039746603
30
0
0
SPLINE
5
152
100
AcDbEntity
8
0
100
AcDbSpline
70
4
71
3
72
8
73
4
74
0
42
0.000000001
43
0.0000000001
44
0.0000000001
40
0
40
0
40
0
40
0
40
1
40
1
40
1
40
1
41
1
41
1
41
1
41
1
10
156.18428128560387
20
-100.90206039746603
30
0
10
156.30363769531252
20
-101.09553615252179
30
0
10
156.4255133310954
20
-101.20270419120789
30
0
10
156.52765502929691
20
-101.20401023228965
30
0
0
SPLINE
5
153
100
AcDbEntity
8
0
100
AcDbSpline
70
4
71
3
72
8
73
4
74
0
42
0.000000001
43
0.0000000001
44
0.0000000001
40
0
40
0
40
0
40
0
40
1
40
1
40
1
40
1
41
1
41
1
41
1
41
1
10
156.52765502929691
20
-101.20401023228965
30
0
10
157.00646947224936
20
-101.21014882723492
30
0
10
157.5975348154704
20
-101.58947200775147
30
0
10
157.88043098449708
20
-102.07219044367474
30
0
0
SPLINE
5
154
100
AcDbEntity
8
0
100
AcDbSpline
70
4
71
3
72
8
73
4
74
0
42
0.000000001
43
0.0000000001
44
0.0000000001
40
0
40
0
40
0
40
0
40
1
40
1
40
1
40
1
41
1
41
1
41
1
41
1
10
157.88043098449708
20
-102.07219044367474
30
0
10
158.31817881266278
20
-102.81915914217632
30
0
10
158.294294611613
20
-102.28805057207744
30
0
10
158.36702919006348
20
-112.88945652643839
30
0
0
SPLINE
5
155
100
AcDbEntity
8
0
100
AcDbSpline
70
4
71
3
72
8
73
4
74
0
42
0.000000001
43
0.0000000001
44
0.0000000001
40
0
40
0
40
0
40
0
40
1
40
1
40
1
40
1
41
1
41
1
41
1
41
1
10
158.36702919006348
20
-112.88945652643839
30
0
10
158.40386479695641
20
-118.25817356109621
30
0
10
158.43583958943688
20
-126.52488473256429
30
0
10
158.43808428446454
20
-131.25992355346679
30
0
0
SPLINE
5
156
100
AcDbEntity
8
0
100
AcDbSpline
70
4
71
3
72
8
73
4
74
0
42
0.000000001
43
0.0000000001
44
0.0000000001
40
0
40
0
40
0
40
0
40
1
40
1
40
1
40
1
41
1
41
1
41
1
41
1
10
158.43808428446454
20
-131.25992355346679
30
0
10
158.44207305908208
20
-139.69657751719157
30
0
10
158.43915011088055
20
-139.87063827514649
30
0
10
158.29637781778973
20
-139.94711132049562
30
0
0
SPLINE
5
157
100
AcDbEntity
8
0
100
AcDbSpline
70
4
71
3
72
8
73
4
74
0
42
0.000000001
43
0.0000000001
44
0.0000000001
40
0
40
0
40
0
40
0
40
1
40
1
40
1
40
1
41
1
41
1
41
1
41
1
10
158.29637781778973
20
-139.94711132049562
30
0
10
158.13763427734378
20
-140.03206253051758
30
0
10
158.02073249816897
20
-140.03175570170086
30
0
10
155.95477333068851
20
-139.94094244639081
30
0
0
SPLINE
5
158
100
AcDbEntity
8
0
100
AcDbSpline
70
4
71
3
72
8
73
4
74
0
42
0.000000001
43
0.0000000001
44
0.0000000001
40
0
40
0
40
0
40
0
40
1
40
1
40
1
40
1
41
1
41
1
41
1
41
1
10
155.95477333068851
20
-139.94094244639081
30
0
10
155.18781433105471
20
-139.90723164876303
30
0
10
150.48994216918948
20
-139.8099749883016
30
0
10
145.51506818135582
20
-139.72479769388838
30
0
0
SPLINE
5
159
100
AcDbEntity
8
0
100
AcDbSpline
70
4
71
3
72
8
73
4
74
0
42
0.000000001
43
0.0000000001
44
0.0000000001
40
0
40
0
40
0
40
0
40
1
40
1
40
1
40
1
41
1
41
1
41
1
41
1
10
145.51506818135582
20
-139.72479769388838
30
0
10
129.1748026529948
20
-139.44505055745444
30
0
10
115.35565261840823
20
-139.19976514180502
30
0
10
100.89195213317872
20
-138.93272717793783
30
0
0
SPLINE
5
160
100
AcDbEntity
8
0
100
AcDbSpline
70
4
71
3
72
8
73
4
74
0
42
0.000000001
43
0.0000000001
44
0.0000000001
40
0
40
0
40
0
40
0
40
1
40
1
40
1
40
1
41
1
41
1
41
1
41
1
10
100.89195213317872
20
-138.93272717793783
30
0
10
93.056529235839861
20
-138.78806546529134
30
0
10
83.779519589742051
20
-138.61841335296631
30
0
10
80.276374244689947
20
-138.55571530659995
30
0
0
SPLINE
5
161
100
AcDbEntity
8
0
100
AcDbSpline
70
4
71
3
72
8
73
4
74
0
42
0.000000001
43
0.0000000001
44
0.0000000001
40
0
40
0
40
0
40
0
40
1
40
1
40
1
40
1
41
1
41
1
41
1
41
1
10
80.276374244689947
20
-138.55571530659995
30
0
10
76.773228899637871
20
-138.49301726023359
30
0
10
71.295220247904467
20
-138.391392326355
30
0
10
68.103005536397319
20
-138.32988122304283
30
0
0
SPLINE
5
162
100
AcDbEntity
8
0
100
AcDbSpline
70
4
71
3
72
8
73
4
74
0
42
0.000000001
43
0.0000000001
44
0.0000000001
40
0
40
0
40
0
40
0
40
1
40
1
40
1
40
1
41
1
41
1
41
1
41
1
10
68.103005536397319
20
-138.32988122304283
30
0
10
64.910794862111416
20
-138.26837011973066
30
0
10
59.381901073455822
20
-138.16644643147788
30
0
10
55.816574446360278
20
-138.10339310963951
30
0
0
SPLINE
5
163
100
AcDbEntity
8
0
100
AcDbSpline
70
4
71
3
72
8
73
4
74
0
42
0.000000001
43
0.0000000001
44
0.0000000001
40
0
40
0
40
0
40
0
40
1
40
1
40
1
40
1
41
1
41
1
41
1
41
1
10
55.816574446360278
20
-138.10339310963951
30
0
10
52.251247819264741
20
-138.04033171335857
30
0
10
47.807781155904145
20
-137.95569540659588
30
0
10
45.942201391855882
20
-137.91530704498291
30
0
0
SPLINE
5
164
100
AcDbEntity
8
0
100
AcDbSpline
70
4
71
3
72
8
73
4
74
0
42
0.000000001
43
0.0000000001
44
0.0000000001
40
0
40
0
40
0
40
0
40
1
40
1
40
1
40
1
41
1
41
1
41
1
41
1
10
45.942201391855882
20
-137.91530704498291
30
0
10
44.076625665028892
20
-137.87491868336997
30
0
10
40.769463189442959
20
-137.80451761881511
30
0
10
38.592952791849775
20
-137.75886472066244
30
0
0
SPLINE
5
165
100
AcDbEntity
8
0
100
AcDbSpline
70
4
71
3
72
8
73
4
74
0
42
0.000000001
43
0.0000000001
44
0.0000000001
40
0
40
0
40
0
40
0
40
1
40
1
40
1
40
1
41
1
41
1
41
1
41
1
10
38.592952791849775
20
-137.75886472066244
30
0
10
36.416446431477866
20
-137.71321182250978
30
0
10
34.211671447753915
20
-137.65324697494509
30
0
10
33.69345372517904
20
-137.62561623255411
30
0
0
LINE
5
166
100
AcDbEntity
8
0
100
AcDbLine
10
33.69345372517904
20
-137.62561623255414
30
0
11
32.751242987314868
21
-137.57537705103556
31
0
0
LINE
5
167
100
AcDbEntity
8
0
100
AcDbLine
10
32.751242987314868
20
-137.57537705103556
30
0
11
32.728198528289802
21
-137.25765984853109
31
0
0
SPLINE
5
168
100
AcDbEntity
8
0
100
AcDbSpline
70
4
71
3
72
8
73
4
74
0
42
0.000000001
43
0.0000000001
44
0.0000000001
40
0
40
0
40
0
40
0
40
1
40
1
40
1
40
1
41
1
41
1
41
1
41
1
10
32.728198528289802
20
-137.25765984853109
30
0
10
32.711557102203372
20
-137.02842642466229
30
0
10
32.74843913714092
20
-136.88137871424357
30
0
10
32.860617367426556
20
-136.72965993881229
30
0
0
SPLINE
5
169
100
AcDbEntity
8
0
100
AcDbSpline
70
4
71
3
72
8
73
4
74
0
42
0.000000001
43
0.0000000001
44
0.0000000001
40
0
40
0
40
0
40
0
40
1
40
1
40
1
40
1
41
1
41
1
41
1
41
1
10
32.860617367426556
20
-136.72965993881229
30
0
10
33.239244127273565
20
-136.21753842035932
30
0
10
33.227925777435303
20
-135.0131787935893
30
0
10
32.829877964655566
20
-133.45836817423503
30
0
0
SPLINE
5
170
100
AcDbEntity
8
0
100
AcDbSpline
70
4
71
3
72
8
73
4
74
0
42
0.000000001
43
0.0000000001
44
0.0000000001
40
0
40
0
40
0
40
0
40
1
40
1
40
1
40
1
41
1
41
1
41
1
41
1
10
32.829877964655566
20
-133.45836817423503
30
0
10
31.995230913162235
20
-130.19817876815796
30
0
10
29.277910502751674
20
-125.61191558837891
30
0
10
26.399615987141928
20
-122.60545746485393
30
0
0
SPLINE
5
171
100
AcDbEntity
8
0
100
AcDbSpline
70
4
71
3
72
8
73
4
74
0
42
0.000000001
43
0.0000000001
44
0.0000000001
40
0
40
0
40
0
40
0
40
1
40
1
40
1
40
1
41
1
41
1
41
1
41
1
10
26.399615987141928
20
-122.60545746485393
30
0
10
24.65642660458883
20
-120.7846464474996
30
0
10
23.017260265350345
20
-119.62803099950156
30
0
10
21.765336116154991
20
-119.33544549942016
30
0
0
SPLINE
5
172
100
AcDbEntity
8
0
100
AcDbSpline
70
4
71
3
72
8
73
4
74
0
42
0.000000001
43
0.0000000001
44
0.0000000001
40
0
40
0
40
0
40
0
40
1
40
1
40
1
40
1
41
1
41
1
41
1
41
1
10
21.765336116154991
20
-119.33544549942016
30
0
10
21.299448855717984
20
-119.2265656789144
30
0
10
21.291846768061326
20
-119.2273933092753
30
0
10
21.112232812245686
20
-119.40663785934449
30
0
0
SPLINE
5
173
100
AcDbEntity
8
0
100
AcDbSpline
70
4
71
3
72
8
73
4
74
0
42
0.000000001
43
0.0000000001
44
0.0000000001
40
0
40
0
40
0
40
0
40
1
40
1
40
1
40
1
41
1
41
1
41
1
41
1
10
21.112232812245686
20
-119.40663785934449
30
0
10
20.961468839645391
20
-119.55708894729614
30
0
10
20.932879257202153
20
-119.65513286590577
30
0
10
20.94444993336996
20
-119.98203070958456
30
0
0
SPLINE
5
174
100
AcDbEntity
8
0
100
AcDbSpline
70
4
71
3
72
8
73
4
74
0
42
0.000000001
43
0.0000000001
44
0.0000000001
40
0
40
0
40
0
40
0
40
1
40
1
40
1
40
1
41
1
41
1
41
1
41
1
10
20.94444993336996
20
-119.98203070958456
30
0
10
20.976016966501874
20
-120.87394170761108
30
0
10
20.545324182510377
20
-121.60555483500164
30
0
10
19.765585358937585
20
-121.98455705642701
30
0
0
SPLINE
5
175
100
AcDbEntity
8
0
100
AcDbSpline
70
4
71
3
72
8
73
4
74
0
42
0.000000001
43
0.0000000001
44
0.0000000001
40
0
40
0
40
0
40
0
40
1
40
1
40
1
40
1
41
1
41
1
41
1
41
1
10
19.765585358937585
20
-121.98455705642701
30
0
10
19.386304569244388
20
-122.16891272862753
30
0
10
19.247621981302899
20
-122.19425436655681
30
0
10
18.618083937962851
20
-122.19425436655681
30
0
0
SPLINE
5
176
100
AcDbEntity
8
0
100
AcDbSpline
70
4
71
3
72
8
73
4
74
0
42
0.000000001
43
0.0000000001
44
0.0000000001
40
0
40
0
40
0
40
0
40
1
40
1
40
1
40
1
41
1
41
1
41
1
41
1
10
18.618083937962851
20
-122.19425436655681
30
0
10
17.983959611256918
20
-122.19425436655681
30
0
10
17.851209719975792
20
-122.16956675847372
30
0
10
17.458198340733848
20
-121.97869904836018
30
0
0
SPLINE
5
177
100
AcDbEntity
8
0
100
AcDbSpline
70
4
71
3
72
8
73
4
74
0
42
0.000000001
43
0.0000000001
44
0.0000000001
40
0
40
0
40
0
40
0
40
1
40
1
40
1
40
1
41
1
41
1
41
1
41
1
10
17.458198340733848
20
-121.97869904836018
30
0
10
16.951529089609785
20
-121.7326102256775
30
0
10
16.503602417310081
20
-121.31755965550741
30
0
10
16.295531098047896
20
-120.90136655171712
30
0
0
SPLINE
5
178
100
AcDbEntity
8
0
100
AcDbSpline
70
4
71
3
72
8
73
4
74
0
42
0.000000001
43
0.0000000001
44
0.0000000001
40
0
40
0
40
0
40
0
40
1
40
1
40
1
40
1
41
1
41
1
41
1
41
1
10
16.295531098047896
20
-120.90136655171712
30
0
10
16.216947595278423
20
-120.74418137868247
30
0
10
16.110423493385319
20
-120.34716103871665
30
0
10
16.05880963802338
20
-120.01910047531129
30
0
0
SPLINE
5
179
100
AcDbEntity
8
0
100
AcDbSpline
70
4
71
3
72
8
73
4
74
0
42
0.000000001
43
0.0000000001
44
0.0000000001
40
0
40
0
40
0
40
0
40
1
40
1
40
1
40
1
41
1
41
1
41
1
41
1
10
16.05880963802338
20
-120.01910047531129
30
0
10
15.788858819007876
20
-118.30326932271322
30
0
10
16.517687273025516
20
-116.61216615041099
30
0
10
17.856714471181235
20
-115.84741954803468
30
0
0
LINE
5
180
100
AcDbEntity
8
0
100
AcDbLine
10
17.856714471181235
20
-115.84741954803469
30
0
11
18.262245273590089
21
-115.61581223805746
31
0
0
LINE
5
181
100
AcDbEntity
8
0
100
AcDbLine
10
18.262245273590089
20
-115.61581223805746
30
0
11
17.780616887410481
21
-115.37296530405681
31
0
0
SPLINE
5
182
100
AcDbEntity
8
0
100
AcDbSpline
70
4
71
3
72
8
73
4
74
0
42
0.000000001
43
0.0000000001
44
0.0000000001
40
0
40
0
40
0
40
0
40
1
40
1
40
1
40
1
41
1
41
1
41
1
41
1
10
17.780616887410485
20
-115.37296530405681
30
0
10
15.665822482109073
20
-114.30665845870973
30
0
10
13.748462327321374
20
-111.8398557027181
30
0
10
12.561390082041424
20
-108.65810950597128
30
0
0
SPLINE
5
183
100
AcDbEntity
8
0
100
AcDbSpline
70
4
71
3
72
8
73
4
74
0
42
0.000000001
43
0.0000000001
44
0.0000000001
40
0
40
0
40
0
40
0
40
1
40
1
40
1
40
1
41
1
41
1
41
1
41
1
10
12.561390082041424
20
-108.65810950597128
30
0
10
11.902878920237224
20
-106.89308077494303
30
0
10
11.653633999824526
20
-105.49571774800619
30
0
10
11.655688945452374
20
-103.58040143648785
30
0
0
SPLINE
5
184
100
AcDbEntity
8
0
100
AcDbSpline
70
4
71
3
72
8
73
4
74
0
42
0.000000001
43
0.0000000001
44
0.0000000001
40
0
40
0
40
0
40
0
40
1
40
1
40
1
40
1
41
1
41
1
41
1
41
1
10
11.655688945452374
20
-103.58040143648785
30
0
10
11.657408801714581
20
-101.98885412216187
30
0
10
11.753991246223451
20
-101.35852074623109
30
0
10
12.101866491635642
20
-100.66888664563496
30
0
0
SPLINE
5
185
100
AcDbEntity
8
0
100
AcDbSpline
70
4
71
3
72
8
73
4
74
0
42
0.000000001
43
0.0000000001
44
0.0000000001
40
0
40
0
40
0
40
0
40
1
40
1
40
1
40
1
41
1
41
1
41
1
41
1
10
12.101866491635642
20
-100.66888664563496
30
0
10
12.338880650202436
20
-100.19902272224427
30
0
10
12.392569637298585
20
-100.15346268018087
30
0
10
12.711072079340619
20
-100.1519063313802
30
0
0
SPLINE
5
186
100
AcDbEntity
8
0
100
AcDbSpline
70
4
71
3
72
8
73
4
74
0
42
0.000000001
43
0.0000000001
44
0.0000000001
40
0
40
0
40
0
40
0
40
1
40
1
40
1
40
1
41
1
41
1
41
1
41
1
10
12.711072079340619
20
-100.1519063313802
30
0
10
13.016023588180543
20
-100.15031970342001
30
0
10
13.448275748888655
20
-100.61127146085104
30
0
10
13.571643137931826
20
-101.06942340532939
30
0
0
SPLINE
5
187
100
AcDbEntity
8
0
100
AcDbSpline
70
4
71
3
72
8
73
4
74
0
42
0.000000001
43
0.0000000001
44
0.0000000001
40
0
40
0
40
0
40
0
40
1
40
1
40
1
40
1
41
1
41
1
41
1
41
1
10
13.571643137931826
20
-101.06942340532939
30
0
10
13.745074089368185
20
-101.71349544525145
30
0
10
14.490086754163107
20
-102.96556695302328
30
0
10
15.110260462760927
20
-103.65522729555767
30
0
0
LINE
5
188
100
AcDbEntity
8
0
100
AcDbLine
10
15.110260462760925
20
-103.65522729555767
30
0
11
15.516459425290428
21
-104.1069378534953
31
0
0
LINE
5
189
100
AcDbEntity
8
0
100
AcDbLine
10
15.516459425290428
20
-104.1069378534953
30
0
11
15.257275875409446
21
-103.25204010009767
31
0
0
SPLINE
5
190
100
AcDbEntity
8
0
100
AcDbSpline
70
4
71
3
72
8
73
4
74
0
42
0.000000001
43
0.0000000001
44
0.0000000001
40
0
40
0
40
0
40
0
40
1
40
1
40
1
40
1
41
1
41
1
41
1
41
1
10
15.257275875409446
20
-103.25204010009767
30
0
10
14.709789307912192
20
-101.44619708061219
30
0
10
14.412226923306786
20
-99.080026102066057
30
0
10
14.544423715273542
20
-97.583555348714199
30
0
0
SPLINE
5
191
100
AcDbEntity
8
0
100
AcDbSpline
70
4
71
3
72
8
73
4
74
0
42
0.000000001
43
0.0000000001
44
0.0000000001
40
0
40
0
40
0
40
0
40
1
40
1
40
1
40
1
41
1
41
1
41
1
41
1
10
14.544423715273542
20
-97.583555348714199
30
0
10
14.640466181437176
20
-96.496363957722977
30
0
10
14.813017018636071
20
-95.776666688919079
30
0
10
15.148785646756494
20
-95.062811279296881
30
0
0
SPLINE
5
192
100
AcDbEntity
8
0
100
AcDbSpline
70
4
71
3
72
8
73
4
74
0
42
0.000000001
43
0.0000000001
44
0.0000000001
40
0
40
0
40
0
40
0
40
1
40
1
40
1
40
1
41
1
41
1
41
1
41
1
10
15.148785646756494
20
-95.062811279296881
30
0
10
15.514333828290304
20
-94.285642147064209
30
0
10
15.868587883313499
20
-93.88658704757691
30
0
10
16.452463944753013
20
-93.594263966878259
30
0
0
SPLINE
5
193
100
AcDbEntity
8
0
100
AcDbSpline
70
4
71
3
72
8
73
4
74
0
42
0.000000001
43
0.0000000001
44
0.0000000001
40
0
40
0
40
0
40
0
40
1
40
1
40
1
40
1
41
1
41
1
41
1
41
1
10
16.452463944753013
20
-93.594263966878259
30
0
10
16.877855857213341
20
-93.381286414464313
30
0
10
16.981507476170862
20
-93.360527022679648
30
0
10
17.552562332153322
20
-93.373936653137207
30
0
0
LINE
5
194
100
AcDbEntity
8
0
100
AcDbLine
10
17.552562332153322
20
-93.373936653137207
30
0
11
18.183020861943568
21
-93.388739124933892
31
0
0
LINE
5
195
100
AcDbEntity
8
0
100
AcDbLine
10
18.183020861943568
20
-93.388739124933892
30
0
11
18.38812785148621
21
-92.755924876530969
31
0
0
SPLINE
5
196
100
AcDbEntity
8
0
100
AcDbSpline
70
4
71
3
72
8
73
4
74
0
42
0.000000001
43
0.0000000001
44
0.0000000001
40
0
40
0
40
0
40
0
40
1
40
1
40
1
40
1
41
1
41
1
41
1
41
1
10
18.38812785148621
20
-92.755924876530969
30
0
10
19.042571512858075
20
-90.736809587478646
30
0
10
20.719217395782472
20
-88.742916838328057
30
0
10
21.927840328216558
20
-88.54646161397298
30
0
0
LINE
5
197
100
AcDbEntity
8
0
100
AcDbLine
10
21.927840328216558
20
-88.54646161397298
30
0
11
22.184995174407966
21
-88.504662243525189
31
0
0
LINE
5
198
100
AcDbEntity
8
0
100
AcDbLine
10
22.184995174407966
20
-88.504662243525189
30
0
11
22.207323026657111
21
-87.872968324025464
31
0
0
SPLINE
5
199
100
AcDbEntity
8
0
100
AcDbSpline
70
4
71
3
72
8
73
4
74
0
42
0.000000001
43
0.0000000001
44
0.0000000001
40
0
40
0
40
0
40
0
40
1
40
1
40
1
40
1
41
1
41
1
41
1
41
1
10
22.207323026657107
20
-87.872968324025479
30
0
10
22.219602235158288
20
-87.525537172953292
30
0
10
22.267215204238894
20
-87.050743802388524
30
0
10
22.313126484553024
20
-86.817873851458231
30
0
0
SPLINE
5
200
100
AcDbEntity
8
0
100
AcDbSpline
70
4
71
3
72
8
73
4
74
0
42
0.000000001
43
0.0000000001
44
0.0000000001
40
0
40
0
40
0
40
0
40
1
40
1
40
1
40
1
41
1
41
1
41
1
41
1
10
22.313126484553024
20
-86.817873851458231
30
0
10
22.809357500076295
20
-84.300920732816067
30
0
10
24.763836876551313
20
-81.654519160588578
30
0
10
26.665660794576013
20
-80.924459354082757
30
0
0
SPLINE
5
201
100
AcDbEntity
8
0
100
AcDbSpline
70
4
71
3
72
8
73
4
74
0
42
0.000000001
43
0.0000000001
44
0.0000000001
40
0
40
0
40
0
40
0
40
1
40
1
40
1
40
1
41
1
41
1
41
1
41
1
10
26.665660794576013
20
-80.924459354082757
30
0
10
27.293042961756392
20
-80.68362497488657
30
0
10
28.120705620447801
20
-80.687402804692582
30
0
10
28.557859977086387
20
-80.933097998301179
30
0
0
SPLINE
5
202
100
AcDbEntity
8
0
100
AcDbSpline
70
4
71
3
72
8
73
4
74
0
42
0.000000001
43
0.0000000001
44
0.0000000001
40
0
40
0
40
0
40
0
40
1
40
1
40
1
40
1
41
1
41
1
41
1
41
1
10
28.557859977086387
20
-80.933097998301179
30
0
10
28.849785391489672
20
-81.097168652216595
30
0
10
28.888435729344689
20
-81.102926739056898
30
0
10
28.950723997751876
20
-80.991624585787463
30
0
0
SPLINE
5
203
100
AcDbEntity
8
0
100
AcDbSpline
70
4
71
3
72
8
73
4
74
0
42
0.000000001
43
0.0000000001
44
0.0000000001
40
0
40
0
40
0
40
0
40
1
40
1
40
1
40
1
41
1
41
1
41
1
41
1
10
28.950723997751876
20
-80.991624585787463
30
0
10
29.719096024831142
20
-79.618623161315924
30
0
10
32.214809322357183
20
-78.139951507250473
30
0
10
33.762056207656869
20
-78.140986045201629
30
0
0
SPLINE
5
204
100
AcDbEntity
8
0
100
AcDbSpline
70
4
71
3
72
8
73
4
74
0
42
0.000000001
43
0.0000000001
44
0.0000000001
40
0
40
0
40
0
40
0
40
1
40
1
40
1
40
1
41
1
41
1
41
1
41
1
10
33.762056207656869
20
-78.140986045201629
30
0
10
34.195199584960946
20
-78.141277229785914
30
0
10
34.6733640352885
20
-78.345194248358411
30
0
10
34.6733640352885
20
-78.529620067278543
30
0
0
SPLINE
5
205
100
AcDbEntity
8
0
100
AcDbSpline
70
4
71
3
72
8
73
4
74
0
42
0.000000001
43
0.0000000001
44
0.0000000001
40
0
40
0
40
0
40
0
40
1
40
1
40
1
40
1
41
1
41
1
41
1
41
1
10
34.6733640352885
20
-78.529620067278543
30
0
10
34.6733640352885
20
-78.578913529713944
30
0
10
34.750147946675625
20
-78.547111328442895
30
0
10
34.843993155161542
20
-78.458949013551077
30
0
0
SPLINE
5
206
100
AcDbEntity
8
0
100
AcDbSpline
70
4
71
3
72
8
73
4
74
0
42
0.000000001
43
0.0000000001
44
0.0000000001
40
0
40
0
40
0
40
0
40
1
40
1
40
1
40
1
41
1
41
1
41
1
41
1
10
34.843993155161542
20
-78.458949013551077
30
0
10
35.340466403961187
20
-77.992535400390622
30
0
10
36.43054440816244
20
-77.888853502273562
30
0
10
37.160805066426605
20
-78.238586878776545
30
0
0
SPLINE
5
207
100
AcDbEntity
8
0
100
AcDbSpline
70
4
71
3
72
8
73
4
74
0
42
0.000000001
43
0.0000000001
44
0.0000000001
40
0
40
0
40
0
40
0
40
1
40
1
40
1
40
1
41
1
41
1
41
1
41
1
10
37.160805066426605
20
-78.238586878776545
30
0
10
37.388819249471034
20
-78.347787153720859
30
0
10
37.694097773234056
20
-78.519508846600857
30
0
10
37.839195505778001
20
-78.620190080006921
30
0
0
LINE
5
208
100
AcDbEntity
8
0
100
AcDbLine
10
37.839195505778001
20
-78.620190080006921
30
0
11
38.103015804290777
21
-78.803247785568246
31
0
0
LINE
5
209
100
AcDbEntity
8
0
100
AcDbLine
10
38.103015804290777
20
-78.803247785568246
30
0
11
38.565083853403735
21
-78.545919338862106
31
0
0
SPLINE
5
210
100
AcDbEntity
8
0
100
AcDbSpline
70
4
71
3
72
8
73
4
74
0
42
0.000000001
43
0.0000000001
44
0.0000000001
40
0
40
0
40
0
40
0
40
1
40
1
40
1
40
1
41
1
41
1
41
1
41
1
10
38.565083853403735
20
-78.545919338862106
30
0
10
39.645545196533206
20
-77.944205824534095
30
0
10
40.799084281921395
20
-77.669158518314362
30
0
10
42.248745473225917
20
-77.667596618334457
30
0
0
SPLINE
5
211
100
AcDbEntity
8
0
100
AcDbSpline
70
4
71
3
72
8
73
4
74
0
42
0.000000001
43
0.0000000001
44
0.0000000001
40
0
40
0
40
0
40
0
40
1
40
1
40
1
40
1
41
1
41
1
41
1
41
1
10
42.248745473225917
20
-77.667596618334457
30
0
10
44.62470671335857
20
-77.665029954910281
30
0
10
46.595133113861095
20
-78.441404259204873
30
0
10
48.128142738342291
20
-79.984140054384881
30
0
0
SPLINE
5
212
100
AcDbEntity
8
0
100
AcDbSpline
70
4
71
3
72
8
73
4
74
0
42
0.000000001
43
0.0000000001
44
0.0000000001
40
0
40
0
40
0
40
0
40
1
40
1
40
1
40
1
41
1
41
1
41
1
41
1
10
48.128142738342291
20
-79.984140054384881
30
0
10
48.825605010986337
20
-80.686028130849209
30
0
10
49.181025822957366
20
-81.203436390558878
30
0
10
49.488335069020593
20
-81.964248720804846
30
0
0
SPLINE
5
213
100
AcDbEntity
8
0
100
AcDbSpline
70
4
71
3
72
8
73
4
74
0
42
0.000000001
43
0.0000000001
44
0.0000000001
40
0
40
0
40
0
40
0
40
1
40
1
40
1
40
1
41
1
41
1
41
1
41
1
10
49.488335069020593
20
-81.964248720804846
30
0
10
49.691992696126306
20
-82.468459304173791
30
0
10
49.920366191864019
20
-83.501140133539849
30
0
10
49.861899153391526
20
-83.653495780626926
30
0
0
SPLINE
5
214
100
AcDbEntity
8
0
100
AcDbSpline
70
4
71
3
72
8
73
4
74
0
42
0.000000001
43
0.0000000001
44
0.0000000001
40
0
40
0
40
0
40
0
40
1
40
1
40
1
40
1
41
1
41
1
41
1
41
1
10
49.861899153391526
20
-83.653495780626926
30
0
10
49.839940706888839
20
-83.710698159535738
30
0
10
49.955833180745451
20
-83.935626896222431
30
0
10
50.119417349497482
20
-84.153338090578714
30
0
0
SPLINE
5
215
100
AcDbEntity
8
0
100
AcDbSpline
70
4
71
3
72
8
73
4
74
0
42
0.000000001
43
0.0000000001
44
0.0000000001
40
0
40
0
40
0
40
0
40
1
40
1
40
1
40
1
41
1
41
1
41
1
41
1
10
50.119417349497482
20
-84.153338090578714
30
0
10
50.618494606018068
20
-84.817548799514782
30
0
10
50.761702919006353
20
-85.28183126449585
30
0
10
50.764189847310391
20
-86.243719418843597
30
0
0
SPLINE
5
216
100
AcDbEntity
8
0
100
AcDbSpline
70
4
71
3
72
8
73
4
74
0
42
0.000000001
43
0.0000000001
44
0.0000000001
40
0
40
0
40
0
40
0
40
1
40
1
40
1
40
1
41
1
41
1
41
1
41
1
10
50.764189847310391
20
-86.243719418843597
30
0
10
50.766042931874594
20
-86.996810563405361
30
0
10
50.746938800811776
20
-87.114350223541251
30
0
10
50.55496892929078
20
-87.525125376383457
30
0
0
SPLINE
5
217
100
AcDbEntity
8
0
100
AcDbSpline
70
4
71
3
72
8
73
4
74
0
42
0.000000001
43
0.0000000001
44
0.0000000001
40
0
40
0
40
0
40
0
40
1
40
1
40
1
40
1
41
1
41
1
41
1
41
1
10
50.55496892929078
20
-87.525125376383457
30
0
10
50.438717142740892
20
-87.773868672053013
30
0
10
50.235200818379724
20
-88.091527334849047
30
0
10
50.10270729064942
20
-88.231031497319549
30
0
0
SPLINE
5
218
100
AcDbEntity
8
0
100
AcDbSpline
70
4
71
3
72
8
73
4
74
0
42
0.000000001
43
0.0000000001
44
0.0000000001
40
0
40
0
40
0
40
0
40
1
40
1
40
1
40
1
41
1
41
1
41
1
41
1
10
50.10270729064942
20
-88.231031497319549
30
0
10
49.903716691335049
20
-88.440555206934604
30
0
10
49.889319960276296
20
-88.476363341013595
30
0
10
50.019928105672207
20
-88.436883354187017
30
0
0
SPLINE
5
219
100
AcDbEntity
8
0
100
AcDbSpline
70
4
71
3
72
8
73
4
74
0
42
0.000000001
43
0.0000000001
44
0.0000000001
40
0
40
0
40
0
40
0
40
1
40
1
40
1
40
1
41
1
41
1
41
1
41
1
10
50.019928105672207
20
-88.436883354187017
30
0
10
51.862624899546319
20
-87.879892158508298
30
0
10
55.201196956634533
20
-88.040747165679932
30
0
10
57.200921471913666
20
-88.782869180043548
30
0
0
SPLINE
5
220
100
AcDbEntity
8
0
100
AcDbSpline
70
4
71
3
72
8
73
4
74
0
42
0.000000001
43
0.0000000001
44
0.0000000001
40
0
40
0
40
0
40
0
40
1
40
1
40
1
40
1
41
1
41
1
41
1
41
1
10
57.200921471913666
20
-88.782869180043548
30
0
10
57.980763244628911
20
-89.072277386983245
30
0
10
58.445027542114268
20
-89.087223180135098
30
0
10
59.208546829223643
20
-88.847497018178316
30
0
0
SPLINE
5
221
100
AcDbEntity
8
0
100
AcDbSpline
70
4
71
3
72
8
73
4
74
0
42
0.000000001
43
0.0000000001
44
0.0000000001
40
0
40
0
40
0
40
0
40
1
40
1
40
1
40
1
41
1
41
1
41
1
41
1
10
59.208546829223643
20
-88.847497018178316
30
0
10
59.601812553405765
20
-88.724022642771402
30
0
10
59.93836743036907
20
-88.679996744791666
30
0
10
60.530094877878831
20
-88.674619166056317
30
0
0
SPLINE
5
222
100
AcDbEntity
8
0
100
AcDbSpline
70
4
71
3
72
8
73
4
74
0
42
0.000000001
43
0.0000000001
44
0.0000000001
40
0
40
0
40
0
40
0
40
1
40
1
40
1
40
1
41
1
41
1
41
1
41
1
10
60.530094877878831
20
-88.674619166056317
30
0
10
61.234456761678061
20
-88.668218151728325
30
0
10
61.372408612569188
20
-88.689564959208184
30
0
10
61.753183174133312
20
-88.863890155156454
30
0
0
SPLINE
5
223
100
AcDbEntity
8
0
100
AcDbSpline
70
4
71
3
72
8
73
4
74
0
42
0.000000001
43
0.0000000001
44
0.0000000001
40
0
40
0
40
0
40
0
40
1
40
1
40
1
40
1
41
1
41
1
41
1
41
1
10
61.753183174133312
20
-88.863890155156454
30
0
10
62.426886399587005
20
-89.172321748733509
30
0
10
62.748027165730804
20
-89.476235691706336
30
0
10
63.085341040293386
20
-90.124597279230755
30
0
0
SPLINE
5
224
100
AcDbEntity
8
0
100
AcDbSpline
70
4
71
3
72
8
73
4
74
0
42
0.000000001
43
0.0000000001
44
0.0000000001
40
0
40
0
40
0
40
0
40
1
40
1
40
1
40
1
41
1
41
1
41
1
41
1
10
63.085341040293386
20
-90.124597279230755
30
0
10
63.474880409240733
20
-90.873342355092376
30
0
10
63.536488405863452
20
-91.346890242894503
30
0
10
63.325733343760184
20
-91.972360785802209
30
0
0
LINE
5
225
100
AcDbEntity
8
0
100
AcDbLine
10
63.325733343760184
20
-91.972360785802209
30
0
11
63.173340352376314
21
-92.424622424443555
31
0
0
LINE
5
226
100
AcDbEntity
8
0
100
AcDbLine
10
63.173340352376314
20
-92.424622424443555
30
0
11
63.387280782063812
21
-92.650753243764257
31
0
0
SPLINE
5
227
100
AcDbEntity
8
0
100
AcDbSpline
70
4
71
3
72
8
73
4
74
0
42
0.000000001
43
0.0000000001
44
0.0000000001
40
0
40
0
40
0
40
0
40
1
40
1
40
1
40
1
41
1
41
1
41
1
41
1
10
63.387280782063812
20
-92.650753243764242
30
0
10
63.830713017781584
20
-93.119450410207122
30
0
10
64.032004833221436
20
-93.860397593180352
30
0
10
63.922184340159106
20
-94.619691928227752
30
0
0
SPLINE
5
228
100
AcDbEntity
8
0
100
AcDbSpline
70
4
71
3
72
8
73
4
74
0
42
0.000000001
43
0.0000000001
44
0.0000000001
40
0
40
0
40
0
40
0
40
1
40
1
40
1
40
1
41
1
41
1
41
1
41
1
10
63.922184340159106
20
-94.619691928227752
30
0
10
63.843676535288495
20
-95.162494309743252
30
0
10
63.739863427480074
20
-95.44002299308778
30
0
10
63.495494461059579
20
-95.760412836074835
30
0
0
SPLINE
5
229
100
AcDbEntity
8
0
100
AcDbSpline
70
4
71
3
72
8
73
4
74
0
42
0.000000001
43
0.0000000001
44
0.0000000001
40
0
40
0
40
0
40
0
40
1
40
1
40
1
40
1
41
1
41
1
41
1
41
1
10
63.495494461059579
20
-95.760412836074835
30
0
10
63.297549502054864
20
-96.01993551254273
30
0
10
62.816207758585627
20
-96.306533813476562
30
0
10
62.578294308980311
20
-96.306533813476562
30
0
0
SPLINE
5
230
100
AcDbEntity
8
0
100
AcDbSpline
70
4
71
3
72
8
73
4
74
0
42
0.000000001
43
0.0000000001
44
0.0000000001
40
0
40
0
40
0
40
0
40
1
40
1
40
1
40
1
41
1
41
1
41
1
41
1
10
62.578294308980311
20
-96.306533813476562
30
0
10
62.448998260498058
20
-96.306533813476562
30
0
10
62.439971033732107
20
-96.357832765579232
30
0
10
62.471982161204025
20
-96.910812981923428
30
0
0
SPLINE
5
231
100
AcDbEntity
8
0
100
AcDbSpline
70
4
71
3
72
8
73
4
74
0
42
0.000000001
43
0.0000000001
44
0.0000000001
40
0
40
0
40
0
40
0
40
1
40
1
40
1
40
1
41
1
41
1
41
1
41
1
10
62.471982161204025
20
-96.910812981923428
30
0
10
62.513125483194997
20
-97.621531470616659
30
0
10
62.389465395609548
20
-98.031265020370483
30
0
10
62.019659964243573
20
-98.409508244196573
30
0
0
SPLINE
5
232
100
AcDbEntity
8
0
100
AcDbSpline
70
4
71
3
72
8
73
4
74
0
42
0.000000001
43
0.0000000001
44
0.0000000001
40
0
40
0
40
0
40
0
40
1
40
1
40
1
40
1
41
1
41
1
41
1
41
1
10
62.019659964243573
20
-98.409508244196573
30
0
10
61.698591868082687
20
-98.73790389696758
30
0
10
61.406317234039314
20
-98.878942203521731
30
0
10
61.015506140391047
20
-98.894069671630859
30
0
0
LINE
5
233
100
AcDbEntity
8
0
100
AcDbLine
10
61.015506140391047
20
-98.894069671630859
30
0
11
60.690190887451188
21
-98.906663783391323
31
0
0
LINE
5
234
100
AcDbEntity
8
0
100
AcDbLine
10
60.690190887451188
20
-98.906663783391323
30
0
11
60.665450795491545
21
-99.297052987416592
31
0
0
SPLINE
5
235
100
AcDbEntity
8
0
100
AcDbSpline
70
4
71
3
72
8
73
4
74
0
42
0.000000001
43
0.0000000001
44
0.0000000001
40
0
40
0
40
0
40
0
40
1
40
1
40
1
40
1
41
1
41
1
41
1
41
1
10
60.665450795491545
20
-99.297052987416592
30
0
10
60.641534296671566
20
-99.674325259526583
30
0
10
60.647989813486738
20
-99.688897609710693
30
0
10
60.857420667012541
20
-99.730660645167035
30
0
0
SPLINE
5
236
100
AcDbEntity
8
0
100
AcDbSpline
70
4
71
3
72
8
73
4
74
0
42
0.000000001
43
0.0000000001
44
0.0000000001
40
0
40
0
40
0
40
0
40
1
40
1
40
1
40
1
41
1
41
1
41
1
41
1
10
60.857420667012541
20
-99.730660645167035
30
0
10
60.976611550649018
20
-99.754419692357388
30
0
10
61.247965304056812
20
-99.775899728139237
30
0
10
61.460436185201019
20
-99.778370507558208
30
0
0
SPLINE
5
237
100
AcDbEntity
8
0
100
AcDbSpline
70
4
71
3
72
8
73
4
74
0
42
0.000000001
43
0.0000000001
44
0.0000000001
40
0
40
0
40
0
40
0
40
1
40
1
40
1
40
1
41
1
41
1
41
1
41
1
10
61.460436185201019
20
-99.778370507558208
30
0
10
61.672903029123951
20
-99.780752468109142
30
0
10
62.016341368357352
20
-99.811903667449954
30
0
10
62.223628457387299
20
-99.847400935490924
30
0
0
SPLINE
5
238
100
AcDbEntity
8
0
100
AcDbSpline
70
4
71
3
72
8
73
4
74
0
42
0.000000001
43
0.0000000001
44
0.0000000001
40
0
40
0
40
0
40
0
40
1
40
1
40
1
40
1
41
1
41
1
41
1
41
1
10
62.223628457387299
20
-99.847400935490924
30
0
10
62.547772916158053
20
-99.90290869077046
30
0
10
62.658530044555675
20
-99.88587161699931
30
0
10
63.015085315704354
20
-99.725656509399414
30
0
0
SPLINE
5
239
100
AcDbEntity
8
0
100
AcDbSpline
70
4
71
3
72
8
73
4
74
0
42
0.000000001
43
0.0000000001
44
0.0000000001
40
0
40
0
40
0
40
0
40
1
40
1
40
1
40
1
41
1
41
1
41
1
41
1
10
63.015085315704354
20
-99.725656509399414
30
0
10
63.458360099792486
20
-99.526478179295864
30
0
10
64.22382936477662
20
-99.095193942387908
30
0
10
65.305974229176854
20
-98.434910440444952
30
0
0
SPLINE
5
240
100
AcDbEntity
8
0
100
AcDbSpline
70
4
71
3
72
8
73
4
74
0
42
0.000000001
43
0.0000000001
44
0.0000000001
40
0
40
0
40
0
40
0
40
1
40
1
40
1
40
1
41
1
41
1
41
1
41
1
10
65.305974229176854
20
-98.434910440444952
30
0
10
67.055839157104501
20
-97.367210753758755
30
0
10
68.894793446858728
20
-95.527842648824063
30
0
10
71.955475489298507
20
-91.78392752011618
30
0
0
SPLINE
5
241
100
AcDbEntity
8
0
100
AcDbSpline
70
4
71
3
72
8
73
4
74
0
42
0.000000001
43
0.0000000001
44
0.0000000001
40
0
40
0
40
0
40
0
40
1
40
1
40
1
40
1
41
1
41
1
41
1
41
1
10
71.955475489298507
20
-91.78392752011618
30
0
10
73.430773035685235
20
-89.979297685623166
30
0
10
73.971332740783694
20
-89.459616470336911
30
0
10
75.420008850097673
20
-88.453187672297162
30
0
0
SPLINE
5
242
100
AcDbEntity
8
0
100
AcDbSpline
70
4
71
3
72
8
73
4
74
0
42
0.000000001
43
0.0000000001
44
0.0000000001
40
0
40
0
40
0
40
0
40
1
40
1
40
1
40
1
41
1
41
1
41
1
41
1
10
75.420008850097673
20
-88.453187672297162
30
0
10
77.069891993204763
20
-87.306976143519094
30
0
10
78.776724179585784
20
-86.802256870269773
30
0
10
79.830212847391778
20
-87.149068307876576
30
0
0
SPLINE
5
243
100
AcDbEntity
8
0
100
AcDbSpline
70
4
71
3
72
8
73
4
74
0
42
0.000000001
43
0.0000000001
44
0.0000000001
40
0
40
0
40
0
40
0
40
0.87477195932867391
40
0.87477195932867391
40
0.87477195932867391
40
0.87477195932867391
41
1
41
1
41
1
41
1
10
79.830212847391778
20
-87.149068307876576
30
0
10
80.205316240842052
20
-87.272554144728218
30
0
10
80.320929695515915
20
-87.34507746008957
30
0
10
80.345273572712529
20
-87.506476868089464
30
0
0
ENDSEC
0
SECTION
2
OBJECTS
0
DICTIONARY
5
C
100
AcDbDictionary
3
ACAD_GROUP
350
D
3
ACAD_MLINESTYLE
350
17
0
DICTIONARY
5
D
100
AcDbDictionary
0
DICTIONARY
5
1A
330
C
100
AcDbDictionary
0
DICTIONARY
5
17
100
AcDbDictionary
0
ENDSEC
0
EOF
