<?xml version="1.0" encoding="UTF-8" standalone="no"?>
<!-- Created with Inkscape (http://www.inkscape.org/) -->

<svg
   version="1.1"
   id="svg1"
   width="680.31494"
   height="475.19485"
   viewBox="0 0 680.31494 475.19484"
   sodipodi:docname="Kunpeng2-2.PNG"
   xml:space="preserve"
   xmlns:inkscape="http://www.inkscape.org/namespaces/inkscape"
   xmlns:sodipodi="http://sodipodi.sourceforge.net/DTD/sodipodi-0.dtd"
   xmlns="http://www.w3.org/2000/svg"
   xmlns:svg="http://www.w3.org/2000/svg"><defs
     id="defs1" /><sodipodi:namedview
     id="namedview1"
     pagecolor="#ffffff"
     bordercolor="#000000"
     borderopacity="0.25"
     inkscape:showpageshadow="2"
     inkscape:pageopacity="0.0"
     inkscape:pagecheckerboard="0"
     inkscape:deskcolor="#d1d1d1"
     showguides="true" /><g
     inkscape:groupmode="layer"
     inkscape:label="Image"
     id="g1"><path
       style="fill:#000000"
       d="m 322.77924,345.11715 c -4.70139,-0.37955 -12.71663,-0.73705 -16.09309,-0.7178 -4.46675,0.0255 -13.68615,-0.81724 -18.66337,-1.70596 -11.78628,-2.10452 -14.99562,-2.82359 -23.25341,-5.21002 -17.35045,-5.01413 -35.09339,-13.03562 -46.5204,-21.03163 -0.84859,-0.5938 -1.77804,-1.07964 -2.06545,-1.07964 -0.2874,0 -0.52254,-0.16487 -0.52254,-0.36639 0,-0.20152 -1.3758,-1.38737 -3.05732,-2.63523 -11.59141,-8.60195 -24.11162,-21.5443 -35.0481,-36.22982 -13.12902,-17.62966 -24.41935,-38.48464 -30.26928,-55.91204 -0.92219,-2.74725 -2.05965,-6.5491 -2.52771,-8.44856 -0.46806,-1.89946 -1.23972,-4.31085 -1.71481,-5.35863 -1.14881,-2.53365 -4.38412,-7.43992 -5.19071,-7.87159 -0.35371,-0.1893 -0.90512,-0.58829 -1.22537,-0.88664 -1.59367,-1.48474 -5.83629,-2.78457 -9.12011,-2.79419 -0.92928,-0.003 -3.81379,0.34211 -6.41001,0.76628 -4.29567,0.70183 -5.42533,0.77233 -12.55485,0.78345 -8.20636,0.0128 -12.184855,-0.35186 -17.09334,-1.56671 -2.445482,-0.60526 -10.288474,-1.87343 -13.247338,-2.14203 -1.096823,-0.0996 -2.442924,-0.29293 -2.991335,-0.42971 -1.756328,-0.43802 -11.027267,-1.40467 -13.471978,-1.40467 -5.806028,0 -12.865654,1.54172 -18.862924,4.1194 -5.429105,2.33348 -8.792932,3.927 -9.971115,4.72356 -1.926458,1.30246 -10.373112,5.41794 -13.532228,6.59335 -5.266833,1.95961 -8.879386,2.8118 -12.6957644,2.9949 l -3.436872,0.16489 -0.9076853,-1.10118 C 1.658958,207.55386 1.424445,206.9854 1.424445,206.1703 c 0,-1.35482 0.7871477,-2.16237 4.3293883,-4.44159 1.3626853,-0.87681 3.9527128,-2.97778 5.7556167,-4.66882 3.559186,-3.33835 5.247364,-5.65199 8.773843,-12.0245 1.689773,-3.05349 2.001414,-3.87513 2.91754,-7.692 1.377733,-5.74008 2.429278,-9.51869 2.916197,-10.47905 0.221087,-0.43605 0.659291,-1.58985 0.973785,-2.564 0.314495,-0.97414 1.390671,-3.05318 2.391504,-4.62006 1.000832,-1.56689 2.370786,-3.74629 3.044342,-4.84312 1.329759,-2.16539 4.24765,-5.17842 7.686437,-7.93706 2.00091,-1.60516 7.898793,-5.29652 10.639589,-6.65909 3.521844,-1.75086 11.055881,-3.48111 18.943829,-4.35058 1.644524,-0.18127 3.122136,-0.43921 3.28358,-0.5732 0.439914,-0.36509 12.229445,-0.3998 14.523273,-0.0428 1.096822,0.17073 4.109524,0.5099 6.694891,0.75371 9.10031,0.85819 15.88572,2.42163 21.93645,5.05443 9.29492,4.0444 17.738,10.25211 27.56301,20.26549 l 5.48412,5.58926 v -2.63154 c 0,-1.44734 0.17926,-3.46479 0.39835,-4.48321 1.24854,-5.80354 1.67597,-7.31915 3.01288,-10.68323 1.69198,-4.25756 3.80239,-8.36307 5.56492,-10.82578 2.71922,-3.79944 9.14488,-10.18436 14.42399,-14.33252 5.28584,-4.15345 6.02438,-4.62941 10.92898,-7.04338 8.2315,-4.0514 13.14368,-5.63605 22.36379,-7.21447 17.06042,-2.92062 32.38717,-1.69592 45.72468,3.65369 1.88027,0.75417 4.31607,1.64705 5.4129,1.98418 3.70207,1.13791 10.04365,4.34386 13.24733,6.69713 6.0345,4.43264 10.14588,8.17479 15.34461,13.96655 6.95619,7.74969 7.91904,8.63479 12.57452,11.559 5.25727,3.30221 9.98406,4.51148 17.80556,4.55525 4.79646,0.0268 7.72735,0.39155 8.68911,1.08121 1.00129,0.71801 1.99423,2.80221 1.99423,4.18594 0,1.23206 -0.73997,2.51606 -2.02127,3.50736 -0.77658,0.60081 -4.88886,1.63661 -11.36852,2.86352 -9.80374,1.85631 -14.48955,2.27135 -19.52399,1.72931 -3.31456,-0.35687 -4.25564,-0.60641 -11.21823,-2.97477 -7.42784,-2.52661 -11.16689,-2.69742 -18.67536,-0.85315 -1.81339,0.44542 -4.34598,1.34939 -6.11181,2.18153 -1.65841,0.78152 -3.7845,1.76214 -4.72463,2.17916 -2.7746,1.23073 -8.7625,4.35569 -9.68623,5.05503 -1.7853,1.35163 -13.52489,8.2195 -16.52356,9.66656 -7.69641,3.71406 -13.67772,6.00462 -18.70841,7.16446 -2.9915,0.6897 -3.96912,0.76302 -13.3416,1.00061 -14.55448,0.36896 -15.40792,0.44914 -17.63582,1.65681 -2.86692,1.55407 -4.18576,3.67376 -4.48036,7.201 -0.15937,1.90814 -0.0912,2.2837 0.8924,4.9149 1.39113,3.72143 2.63465,6.48176 3.0802,6.83734 0.19634,0.15669 1.09395,1.59334 1.99468,3.19256 5.17348,9.18533 12.50461,15.85137 23.12868,21.0304 2.35033,1.14574 5.68353,2.59176 7.40711,3.21339 6.16917,2.22496 14.83392,4.09518 22.93357,4.95003 5.22598,0.55156 20.29672,0.46133 25.9249,-0.15522 14.20031,-1.55561 26.10794,-4.12045 40.11047,-8.63958 l 4.07202,-1.31418 -1.80385,-0.6308 c -2.1748,-0.76051 -13.78619,-6.52659 -16.0186,-7.95465 -2.40787,-1.54029 -4.08942,-3.21288 -4.41748,-4.39395 -0.47868,-1.72335 -0.35212,-3.2816 0.35263,-4.34154 0.75413,-1.13423 3.31755,-2.46397 5.26432,-2.73081 0.71495,-0.098 4.4536,-0.0131 8.3081,0.18875 6.28037,0.32882 7.4076,0.31724 10.85418,-0.11146 6.32489,-0.78672 13.87671,-2.42567 19.16965,-4.16032 4.22346,-1.38415 8.60174,-2.20493 20.57237,-3.8566 3.04116,-0.41961 9.1383,-0.50553 11.25312,-0.15858 1.45577,0.23883 2.43476,-0.13927 5.18359,-2.00199 0.89236,-0.6047 1.7438,-1.09946 1.89208,-1.09946 0.29425,0 2.73835,-1.95223 5.01554,-4.00618 2.00731,-1.81053 6.92337,-5.51247 15.02044,-11.31085 2.24603,-1.6084 4.78879,-3.47182 5.65058,-4.14094 10.4109,-8.08325 20.42009,-14.59827 28.91624,-18.82167 10.42999,-5.18471 12.11194,-5.88095 22.36378,-9.25745 6.98695,-2.30118 12.62375,-4.33826 18.2329,-6.58917 1.64523,-0.66023 4.01693,-1.48779 5.27044,-1.83903 5.2796,-1.47939 13.74291,-4.17537 15.58142,-4.96345 1.49832,-0.64225 8.74671,-2.44761 10.91326,-2.71817 1.53609,-0.19182 2.86429,-0.49081 12.67756,-2.8538 8.11077,-1.95304 12.71229,-2.63909 20.98759,-3.1291 3.63038,-0.21497 6.72768,-0.46933 6.88288,-0.56525 0.1552,-0.0959 2.18469,-0.28839 4.50998,-0.42772 3.40617,-0.20408 4.64302,-0.40018 6.36446,-1.00908 1.17516,-0.41567 4.05967,-1.21857 6.41,-1.78421 3.89503,-0.9374 4.65164,-1.03002 8.54667,-1.04624 4.71726,-0.0196 6.12213,0.20412 10.82578,1.72439 3.66874,1.18577 5.46749,2.05358 9.14439,4.41171 2.46277,1.57947 2.90558,2.01022 5.14027,5.00033 5.07724,6.79359 6.27142,11.53884 6.00815,23.87431 -0.15389,7.21054 -0.58216,9.95999 -2.59508,16.66046 -0.54133,1.80192 -1.51758,5.26332 -2.16944,7.692 -0.65186,2.42868 -1.73538,5.82598 -2.40781,7.54956 -0.67244,1.72357 -1.76029,4.92858 -2.41744,7.12222 -0.65716,2.19365 -2.06813,6.23195 -3.1355,8.974 -1.06737,2.74206 -2.22377,5.87851 -2.56979,6.96989 -0.77369,2.44032 -5.43223,11.72376 -8.5826,17.10323 -20.67025,35.29591 -56.76267,65.66921 -101.96652,85.80918 -31.74871,14.14521 -67.21509,22.88005 -103.98449,25.60984 -5.65454,0.4198 -31.24391,0.80007 -34.75646,0.5165 z m 7.91522,-0.61049 c -0.73902,-0.0585 -2.02102,-0.0591 -2.84889,-0.001 -0.82787,0.0577 -0.22322,0.10557 1.34367,0.10631 1.56689,7.4e-4 2.24424,-0.0465 1.50522,-0.10496 z m 11.53886,-6.6e-4 c -0.8169,-0.0573 -2.2271,-0.0579 -3.13378,-10e-4 -0.90668,0.0567 -0.23831,0.10363 1.48526,0.10427 1.72358,6.5e-4 2.46541,-0.0457 1.64852,-0.1031 z m -21.51952,-0.2716 c -0.27421,-0.0717 -0.72291,-0.0717 -0.99712,0 -0.2742,0.0717 -0.0498,0.13029 0.49856,0.13029 0.54841,0 0.77276,-0.0586 0.49856,-0.13029 z m 29.77481,-0.004 c -0.35039,-0.0676 -0.99139,-0.0694 -1.42444,-0.004 -0.43305,0.0655 -0.14636,0.12081 0.63708,0.12295 0.78345,0.002 1.13776,-0.0514 0.78736,-0.11906 z m -35.04526,-0.27302 c -0.19586,-0.079 -0.51636,-0.079 -0.71222,0 -0.19586,0.079 -0.0356,0.14369 0.35611,0.14369 0.39172,0 0.55197,-0.0647 0.35611,-0.14369 z m 40.0269,-0.008 c -0.2742,-0.0717 -0.7229,-0.0717 -0.99711,0 -0.2742,0.0717 -0.0498,0.13029 0.49856,0.13029 0.54841,0 0.77276,-0.0586 0.49855,-0.13029 z m -48.92968,-0.32739 c 0,-0.13139 -2.66015,-0.45751 -5.91145,-0.72471 -3.25129,-0.26721 -7.23959,-0.61569 -8.86287,-0.7744 -1.62328,-0.15872 -3.00842,-0.23157 -3.07809,-0.16191 -0.38698,0.38699 9.24386,1.4568 10.687,1.18714 0.6114,-0.11424 0.89004,-0.0749 0.776,0.10967 -0.10864,0.17578 0.40746,0.32876 1.32518,0.3928 3.07421,0.21453 5.06423,0.20329 5.06423,-0.0286 z m 3.92054,0.0431 c -0.27238,-0.0713 -0.78518,-0.0739 -1.13955,-0.006 -0.35438,0.0682 -0.13152,0.12649 0.49523,0.12965 0.62676,0.003 0.9167,-0.0526 0.64432,-0.1239 z m 38.96838,-0.0994 c 15.51378,-0.76688 32.77101,-2.91542 48.03844,-5.9808 64.64512,-12.97942 121.53048,-46.13277 154.14643,-89.83808 8.82384,-11.82392 16.87061,-26.02959 19.96247,-35.24149 0.5562,-1.65714 1.59599,-4.33177 2.31065,-5.94363 0.71466,-1.61186 1.94053,-4.99942 2.72416,-7.52792 0.78363,-2.52849 2.13613,-6.84076 3.00556,-9.58282 2.1376,-6.74169 4.31004,-14.32911 5.12623,-17.90379 1.90448,-8.34106 1.5315,-22.27951 -0.71368,-26.67035 -0.31739,-0.62071 -0.57707,-1.28153 -0.57707,-1.46848 0,-0.48808 -3.75481,-6.1167 -4.99937,-7.49428 -2.18321,-2.41655 -8.24115,-5.65583 -13.73358,-7.34357 -2.2531,-0.69234 -3.01311,-0.77594 -7.94937,-0.87444 -5.32118,-0.10618 -5.55343,-0.0863 -9.25889,0.79095 -2.09045,0.49492 -4.44181,1.13461 -5.22525,1.42153 -3.51378,1.28686 -8.58581,1.93665 -22.0789,2.82857 -5.99785,0.39648 -11.29041,1.34603 -20.51201,3.68014 -5.00643,1.26719 -8.45148,2.03884 -9.11645,2.04199 -1.03461,0.005 -8.86418,1.87606 -10.15498,2.42691 -2.90876,1.24134 -7.72413,2.77738 -15.62747,4.98497 -1.56689,0.43767 -4.19499,1.33467 -5.84022,1.99335 -5.67408,2.27161 -12.12771,4.60212 -18.66023,6.7385 -9.32863,3.05081 -11.52739,3.9461 -20.40104,8.30691 -2.60268,1.27904 -4.82253,2.32553 -4.933,2.32553 -0.43358,0 -6.71371,3.87744 -12.12887,7.48852 -2.16672,1.44487 -7.94429,5.61783 -13.38978,9.67101 -1.64524,1.22458 -3.63234,2.67639 -4.41578,3.22625 -3.78448,2.65611 -7.31681,5.20872 -9.2062,6.65278 -1.14618,0.87603 -2.65772,1.99289 -3.35897,2.48191 -0.70125,0.48903 -2.13517,1.60539 -3.18648,2.48081 -4.42243,3.68254 -7.17094,5.68323 -9.84599,7.16707 l -1.38207,0.76663 -4.20393,-0.30677 c -4.13209,-0.30152 -8.29817,-0.11808 -11.8346,0.52111 -0.78345,0.1416 -2.45005,0.40396 -3.70356,0.58302 -5.66893,0.80977 -9.97697,1.71741 -13.38978,2.82102 -6.0071,1.94253 -12.82853,3.4159 -19.23001,4.15351 -4.83602,0.55723 -7.40625,0.60561 -12.25023,0.23058 -4.79189,-0.371 -7.39739,-0.21354 -9.24631,0.55879 -2.53679,1.05967 -3.45782,2.29018 -2.98795,3.99193 0.30344,1.09895 2.2381,3.07137 4.2793,4.36281 1.95435,1.23649 11.5223,5.91736 14.22252,6.958 3.6847,1.42005 5.98267,2.5082 5.98267,2.83295 0,0.41442 -1.86546,1.20325 -5.98267,2.52982 -13.63335,4.3927 -27.03929,7.24964 -41.3089,8.80335 -6.64091,0.72307 -23.13176,0.72041 -29.05868,-0.005 -16.31797,-1.99636 -29.17101,-6.78058 -39.17224,-14.58087 -3.49497,-2.72585 -8.02307,-7.58979 -10.27666,-11.03886 -4.7286,-7.23704 -5.81868,-9.32375 -7.54613,-14.44542 -1.10858,-3.28678 -1.18498,-3.70751 -1.04475,-5.75345 0.31543,-4.6019 2.87951,-7.85741 7.18447,-9.12182 1.60477,-0.47134 7.96143,-0.83232 16.57931,-0.94151 9.71763,-0.12312 12.11457,-0.44758 17.89488,-2.42235 2.79485,-0.95482 4.90994,-1.83346 11.96534,-4.97059 3.08248,-1.3706 14.05713,-7.72291 17.23578,-9.97635 2.55296,-1.80987 15.18722,-7.92314 18.66023,-9.02903 5.17751,-1.64863 11.6716,-2.45443 15.72323,-1.95096 1.35444,0.16831 3.61897,0.73916 5.16689,1.30247 1.51562,0.55156 3.78127,1.37941 5.03478,1.83966 4.12342,1.51401 5.41404,1.74039 10.83309,1.9002 5.43687,0.16034 6.97567,0.002 14.52203,-1.49132 1.88027,-0.37216 4.70067,-0.89046 6.26756,-1.15177 3.77445,-0.62947 5.58155,-1.32138 6.20423,-2.3755 0.96022,-1.62552 0.38062,-3.94326 -1.13401,-4.53477 -1.21186,-0.47326 -4.62153,-0.8627 -9.20111,-1.05092 -7.16322,-0.29439 -11.74619,-1.53036 -16.66601,-4.49461 -3.78121,-2.27822 -6.16585,-4.21996 -8.87254,-7.22465 -8.95815,-9.94439 -10.19394,-11.13937 -16.90991,-16.35138 -3.73022,-2.89488 -5.09908,-3.76051 -8.817,-5.57556 -2.42067,-1.18174 -5.24107,-2.40965 -6.26756,-2.72868 -1.02648,-0.31903 -3.59704,-1.26241 -5.71234,-2.0964 -8.15162,-3.21391 -14.40585,-4.51666 -23.96644,-4.99221 -5.49942,-0.27355 -7.15158,-0.25308 -11.25312,0.13938 -2.64404,0.253 -5.51244,0.58182 -6.37423,0.73071 -0.86179,0.14889 -2.78479,0.47786 -4.27334,0.73104 -8.1308,1.38294 -15.17693,3.88551 -23.48216,8.34015 -4.15513,2.22868 -6.37943,3.90027 -11.70163,8.79397 -9.08533,8.35385 -11.84092,12.11978 -15.60894,21.33193 -2.4705,6.03996 -3.3942,10.47321 -3.69912,17.75373 -0.0479,1.14309 -0.19887,1.61816 -0.58858,1.85178 -0.45429,0.27233 -0.83336,-0.0276 -2.84291,-2.24977 -4.31738,-4.77406 -10.86786,-11.30643 -12.72913,-12.69392 -1.01848,-0.75923 -2.42868,-1.83331 -3.13378,-2.38686 -5.06487,-3.97624 -8.51585,-6.19781 -13.82392,-8.89916 -4.98323,-2.53604 -6.09842,-2.98922 -8.9672,-3.64399 -5.90311,-1.34733 -10.068604,-2.08851 -12.820005,-2.28109 -1.488545,-0.10419 -4.757646,-0.36373 -7.264669,-0.57675 -7.603208,-0.64604 -18.662651,0.10641 -24.904256,1.6944 -0.874732,0.22255 -2.872422,0.61883 -4.439312,0.88062 -5.059628,0.84536 -10.772553,3.41647 -15.760057,7.09285 -3.436982,2.53347 -8.128094,7.01031 -9.536111,9.10056 -5.052477,7.50055 -6.742258,11.46979 -9.59533,22.53912 -1.295413,5.02594 -2.65614,7.9671 -6.194771,13.38978 -2.786709,4.27042 -6.372578,7.84059 -10.9770873,10.92904 -3.4591032,2.32016 -4.2756158,3.12581 -4.056819,4.00281 0.4022561,1.61237 0.8804682,1.81802 3.742213,1.60929 5.6464543,-0.41185 14.2180363,-3.76305 28.0199523,-10.95487 5.226619,-2.72345 10.265448,-4.82429 13.733811,-5.72602 4.219903,-1.09712 10.228717,-1.99692 13.335359,-1.99692 2.711182,0 9.231534,0.59982 13.954847,1.28373 1.645234,0.23822 5.363036,0.75895 8.261781,1.15716 2.898746,0.39822 6.424247,0.96594 7.834448,1.2616 5.596133,1.17328 9.748106,1.56829 16.381116,1.55848 5.59415,-0.008 7.08082,-0.11284 11.68045,-0.82149 4.40356,-0.67845 5.80932,-0.78552 8.54667,-0.65096 3.85076,0.18928 5.30747,0.58854 8.01399,2.19645 1.63625,0.97207 2.33299,1.63696 3.83061,3.6555 2.6332,3.54911 4.52062,7.4788 5.55043,11.55621 2.89629,11.46751 9.98231,27.88455 18.02635,41.76379 14.34422,24.7496 33.9089,47.50625 51.37749,59.75969 1.2811,0.89864 3.19997,2.27489 4.26415,3.05833 4.88061,3.59308 16.03581,9.55739 24.74436,13.22998 17.51331,7.38576 37.19242,12.5265 50.71024,13.24694 1.4102,0.0752 5.12801,0.38975 8.26178,0.69909 4.89259,0.48296 11.8924,0.96949 18.2329,1.26731 4.71238,0.22134 22.68205,0.15246 27.93225,-0.10707 z m 10.02921,0.0987 c -0.2742,-0.0717 -0.72291,-0.0717 -0.99711,0 -0.27421,0.0717 -0.0499,0.13029 0.49855,0.13029 0.54842,0 0.77277,-0.0586 0.49856,-0.13029 z m 3.56654,-0.27538 c -0.19288,-0.078 -0.57748,-0.0828 -0.85467,-0.0105 -0.27719,0.0722 -0.11938,0.13608 0.35069,0.14189 0.47006,0.006 0.69685,-0.0533 0.50398,-0.13134 z m 3.13377,-0.28488 c -0.19287,-0.078 -0.57747,-0.0828 -0.85466,-0.0106 -0.27719,0.0722 -0.11938,0.13608 0.35069,0.14189 0.47006,0.006 0.69685,-0.0533 0.50397,-0.13133 z m 2.84889,-0.28489 c -0.19287,-0.078 -0.57747,-0.0828 -0.85466,-0.0106 -0.27719,0.0722 -0.11938,0.13608 0.35069,0.14189 0.47006,0.006 0.69685,-0.0533 0.50397,-0.13133 z m 2.27369,-0.2867 c -0.19586,-0.079 -0.51636,-0.079 -0.71222,0 -0.19586,0.079 -0.0356,0.14369 0.35611,0.14369 0.39173,0 0.55198,-0.0647 0.35611,-0.14369 z m 2.56401,-0.28489 c -0.19587,-0.079 -0.51637,-0.079 -0.71223,0 -0.19586,0.079 -0.0356,0.1437 0.35611,0.1437 0.39173,0 0.55198,-0.0647 0.35612,-0.1437 z m 2.27911,-0.28489 c -0.19586,-0.079 -0.51636,-0.079 -0.71223,0 -0.19586,0.079 -0.0356,0.1437 0.35612,0.1437 0.39172,0 0.55197,-0.0647 0.35611,-0.1437 z m -88.46397,-0.26833 c -0.0947,-0.0947 -0.34039,-0.10479 -0.54604,-0.0225 -0.22727,0.0909 -0.15976,0.15845 0.17212,0.17212 0.30032,0.0124 0.46858,-0.055 0.37392,-0.14963 z m 90.45819,-0.0166 c -0.19586,-0.079 -0.51636,-0.079 -0.71222,0 -0.19586,0.079 -0.0356,0.1437 0.35611,0.1437 0.39172,0 0.55197,-0.0647 0.35611,-0.1437 z m 2.13073,-0.26833 c -0.0947,-0.0947 -0.34038,-0.10479 -0.54603,-0.0225 -0.22727,0.0909 -0.15976,0.15845 0.17212,0.17212 0.30032,0.0124 0.46858,-0.055 0.37391,-0.14963 z m 1.99423,-0.28489 c -0.0947,-0.0947 -0.34039,-0.10479 -0.54604,-0.0225 -0.22727,0.0909 -0.15976,0.15845 0.17212,0.17212 0.30032,0.0124 0.46858,-0.055 0.37392,-0.14963 z m 1.70933,-0.28489 c -0.0947,-0.0947 -0.34038,-0.10478 -0.54604,-0.0225 -0.22726,0.091 -0.15976,0.15845 0.17212,0.17212 0.30032,0.0124 0.46859,-0.055 0.37392,-0.14963 z m 8.54667,-1.42444 c -0.0947,-0.0947 -0.34038,-0.10479 -0.54604,-0.0225 -0.22726,0.0909 -0.15976,0.15845 0.17212,0.17212 0.30032,0.0124 0.46859,-0.055 0.37392,-0.14963 z M 217.52095,314.81559 c -0.0923,-0.14939 -0.58064,-0.54636 -1.08514,-0.88216 l -0.91728,-0.61053 0.93039,0.88216 c 0.91465,0.86724 1.40235,1.14499 1.07203,0.61053 z m 261.94724,-5.58865 c 0,-0.0783 -0.2564,-0.005 -0.56977,0.1625 -0.31338,0.16771 -0.56978,0.36903 -0.56978,0.44738 0,0.0783 0.2564,0.005 0.56978,-0.1625 0.31337,-0.16771 0.56977,-0.36903 0.56977,-0.44738 z m -269.50499,0.0549 c 0,-0.0592 -0.22435,-0.2835 -0.49856,-0.49855 -0.45185,-0.35437 -0.46193,-0.34429 -0.10756,0.10756 0.37217,0.47455 0.60612,0.62547 0.60612,0.39099 z m 272.63877,-1.76426 c 0,-0.0783 -0.2564,-0.005 -0.56978,0.16249 -0.31337,0.16772 -0.56977,0.36904 -0.56977,0.44738 0,0.0784 0.2564,0.005 0.56977,-0.16249 0.31338,-0.16771 0.56978,-0.36903 0.56978,-0.44738 z m -274.34811,0.33982 c 0,-0.0592 -0.22435,-0.28351 -0.49855,-0.49856 -0.45185,-0.35436 -0.46193,-0.34428 -0.10757,0.10757 0.37218,0.47455 0.60612,0.62546 0.60612,0.39099 z m 276.91211,-1.76426 c 0,-0.0784 -0.2564,-0.005 -0.56977,0.16249 -0.31338,0.16771 -0.56978,0.36903 -0.56978,0.44738 0,0.0783 0.2564,0.005 0.56978,-0.16249 0.31337,-0.16772 0.56977,-0.36904 0.56977,-0.44738 z m -278.62144,0.33981 c 0,-0.0591 -0.22435,-0.2835 -0.49856,-0.49855 -0.45185,-0.35437 -0.46192,-0.34429 -0.10756,0.10756 0.37217,0.47455 0.60612,0.62547 0.60612,0.39099 z m -1.99423,-1.69455 c 0,-0.051 -0.35255,-0.40358 -0.78344,-0.78345 l -0.78344,-0.69066 0.69066,0.78345 c 0.64552,0.73224 0.87622,0.91409 0.87622,0.69066 z m -3.13377,-2.83115 c 0,-0.0413 -1.82685,-1.86812 -4.05967,-4.05966 l -4.05967,-3.98463 3.98463,4.05966 c 3.70154,3.77125 4.13471,4.1887 4.13471,3.98463 z m 296.427,-3.48091 0.56978,-0.46393 -0.56978,0.27973 c -0.31337,0.15386 -0.82617,0.4885 -1.13955,0.74366 l -0.56978,0.46392 0.56978,-0.27973 c 0.31338,-0.15385 0.82618,-0.48849 1.13955,-0.74365 z m 5.84023,-4.0324 c 0,-0.0784 -0.3846,0.13141 -0.85467,0.46613 -0.47006,0.33471 -0.85467,0.67267 -0.85467,0.75102 0,0.0783 0.38461,-0.13142 0.85467,-0.46613 0.47007,-0.33472 0.85467,-0.67268 0.85467,-0.75102 z m 2.60034,-1.74176 c 0.35436,-0.45185 0.34429,-0.46193 -0.10756,-0.10756 -0.47456,0.37217 -0.62547,0.60611 -0.391,0.60611 0.0592,0 0.28351,-0.22435 0.49856,-0.49855 z m -314.26891,-0.44526 c 0,-0.049 -0.41665,-0.46568 -0.92589,-0.92589 l -0.92589,-0.83674 0.83675,0.92589 c 0.77996,0.86306 1.01503,1.05684 1.01503,0.83674 z m 316.26313,-0.97919 c 0.35437,-0.45185 0.34429,-0.46192 -0.10756,-0.10756 -0.47455,0.37217 -0.62547,0.60612 -0.39099,0.60612 0.0592,0 0.28351,-0.22435 0.49855,-0.49856 z m 1.13956,-0.85466 c 0.35436,-0.45185 0.34429,-0.46193 -0.10756,-0.10757 -0.27421,0.21505 -0.49856,0.4394 -0.49856,0.49856 0,0.23447 0.23395,0.0836 0.60612,-0.39099 z m 1.13955,-0.85467 c 0.35437,-0.45185 0.34429,-0.46193 -0.10756,-0.10756 -0.47455,0.37217 -0.62546,0.60612 -0.39099,0.60612 0.0592,0 0.28351,-0.22436 0.49855,-0.49856 z m -321.10624,-0.16951 c 0,-0.0541 -0.28845,-0.34251 -0.641,-0.641 l -0.641,-0.54271 0.54271,0.641 c 0.51001,0.60238 0.73929,0.77069 0.73929,0.54271 z m 322.2458,-0.68516 c 0.35437,-0.45185 0.34429,-0.46192 -0.10756,-0.10756 -0.47455,0.37217 -0.62547,0.60612 -0.391,0.60612 0.0592,0 0.28351,-0.22435 0.49856,-0.49856 z m 1.13956,-0.85466 c 0.35436,-0.45185 0.34428,-0.46193 -0.10757,-0.10757 -0.2742,0.21505 -0.49855,0.4394 -0.49855,0.49856 0,0.23447 0.23395,0.0836 0.60612,-0.39099 z m -325.0947,-0.45441 c 0,-0.0541 -0.28845,-0.34251 -0.641,-0.641 l -0.641,-0.54271 0.54271,0.641 c 0.51002,0.60239 0.73929,0.7707 0.73929,0.54271 z M 513.9761,286.9544 c 0.35437,-0.45185 0.34429,-0.46193 -0.10756,-0.10756 -0.2742,0.21504 -0.49855,0.43939 -0.49855,0.49855 0,0.23448 0.23394,0.0836 0.60611,-0.39099 z m 1.24566,-0.92589 c 0.28361,-0.31338 0.45155,-0.56978 0.3732,-0.56978 -0.0783,0 -0.37448,0.2564 -0.65809,0.56978 -0.2836,0.31338 -0.45154,0.56978 -0.37319,0.56978 0.0783,0 0.37448,-0.2564 0.65808,-0.56978 z M 186.03252,285.3512 c 0,-0.0592 -0.22435,-0.28351 -0.49856,-0.49856 -0.45185,-0.35436 -0.46192,-0.34428 -0.10756,0.10757 0.37217,0.47455 0.60612,0.62546 0.60612,0.39099 z m 330.61369,-0.46222 c 0.2836,-0.31337 0.45154,-0.56977 0.3732,-0.56977 -0.0784,0 -0.37449,0.2564 -0.65809,0.56977 -0.2836,0.31338 -0.45154,0.56978 -0.3732,0.56978 0.0784,0 0.37449,-0.2564 0.65809,-0.56978 z m 1.42444,-1.13955 c 0.28361,-0.31338 0.45155,-0.56978 0.3732,-0.56978 -0.0783,0 -0.37448,0.2564 -0.65809,0.56978 -0.2836,0.31338 -0.45154,0.56978 -0.37319,0.56978 0.0783,0 0.37448,-0.2564 0.65808,-0.56978 z m 1.70934,-1.42445 c 0.2836,-0.31338 0.45154,-0.56978 0.3732,-0.56978 -0.0784,0 -0.37449,0.2564 -0.65809,0.56978 -0.2836,0.31338 -0.45154,0.56978 -0.3732,0.56978 0.0784,0 0.37448,-0.2564 0.65809,-0.56978 z m -336.31147,-0.10756 c 0,-0.0592 -0.22435,-0.28351 -0.49856,-0.49855 -0.45185,-0.35437 -0.46192,-0.34429 -0.10756,0.10756 0.37217,0.47455 0.60612,0.62546 0.60612,0.39099 z m 338.0208,-1.31688 c 0.2836,-0.31338 0.45154,-0.56978 0.3732,-0.56978 -0.0784,0 -0.37448,0.2564 -0.65809,0.56978 -0.2836,0.31338 -0.45154,0.56978 -0.37319,0.56978 0.0783,0 0.37448,-0.2564 0.65808,-0.56978 z m 1.85178,-1.56689 c 0.368,-0.39172 0.605,-0.71222 0.52665,-0.71222 -0.0783,0 -0.44353,0.3205 -0.81154,0.71222 -0.368,0.39172 -0.605,0.71222 -0.52665,0.71222 0.0783,0 0.44354,-0.3205 0.81154,-0.71222 z m 2.43948,-2.20789 0.83674,-0.92589 -0.92589,0.83674 c -0.86305,0.77997 -1.05683,1.01504 -0.83674,1.01504 0.049,0 0.46568,-0.41665 0.92589,-0.92589 z m 3.11586,-2.77767 c 0.77166,-0.78344 1.33892,-1.42444 1.26058,-1.42444 -0.0784,0 -0.77381,0.641 -1.54547,1.42444 -0.77167,0.78345 -1.33893,1.42445 -1.26058,1.42445 0.0783,0 0.7738,-0.641 1.54547,-1.42445 z m 5.84022,-5.55533 c 1.48236,-1.48855 2.63109,-2.70645 2.55275,-2.70645 -0.0784,0 -1.35528,1.2179 -2.83764,2.70645 -1.48235,1.48854 -2.63109,2.70644 -2.55275,2.70644 0.0784,0 1.35528,-1.2179 2.83764,-2.70644 z m 6.55245,-6.89666 c 0,-0.21392 -0.25578,0.0123 -1.43635,1.2701 l -1.2701,1.35322 1.35322,-1.27009 c 0.74428,-0.69856 1.35323,-1.30751 1.35323,-1.35323 z m 1.58481,-1.86368 0.83674,-0.92589 -0.92589,0.83675 c -0.86305,0.77996 -1.05683,1.01503 -0.83674,1.01503 0.049,0 0.46568,-0.41665 0.92589,-0.92589 z m 1.99422,-2.27911 0.83675,-0.92589 -0.92589,0.83674 c -0.86306,0.77997 -1.05684,1.01504 -0.83675,1.01504 0.049,0 0.46568,-0.41665 0.92589,-0.92589 z m 1.54897,-1.78056 c 0.368,-0.39172 0.605,-0.71222 0.52665,-0.71222 -0.0783,0 -0.44354,0.3205 -0.81154,0.71222 -0.368,0.39172 -0.605,0.71222 -0.52665,0.71222 0.0783,0 0.44354,-0.3205 0.81154,-0.71222 z m 1.282,-1.56689 c 0.2836,-0.31338 0.45154,-0.56978 0.3732,-0.56978 -0.0784,0 -0.37449,0.2564 -0.65809,0.56978 -0.2836,0.31338 -0.45154,0.56978 -0.3732,0.56978 0.0784,0 0.37449,-0.2564 0.65809,-0.56978 z m 1.31834,-1.63811 c 0.35436,-0.45185 0.34429,-0.46193 -0.10756,-0.10756 -0.47455,0.37217 -0.62547,0.60612 -0.391,0.60612 0.0592,0 0.28351,-0.22435 0.49856,-0.49856 z m 1.13956,-1.42444 c 0.35436,-0.45185 0.34428,-0.46193 -0.10757,-0.10757 -0.2742,0.21505 -0.49855,0.4394 -0.49855,0.49856 0,0.23447 0.23395,0.0836 0.60612,-0.39099 z m 0.85466,-1.13956 c 0.35437,-0.45185 0.34429,-0.46193 -0.10756,-0.10756 -0.47455,0.37217 -0.62547,0.60612 -0.39099,0.60612 0.0592,0 0.28351,-0.22435 0.49855,-0.49856 z m 2.564,-3.41867 c 0.35437,-0.45185 0.34429,-0.46192 -0.10756,-0.10756 -0.2742,0.21505 -0.49855,0.4394 -0.49855,0.49856 0,0.23447 0.23394,0.0836 0.60611,-0.391 z m 0.85467,-1.13955 c 0.35437,-0.45185 0.34429,-0.46193 -0.10756,-0.10757 -0.27421,0.21505 -0.49856,0.4394 -0.49856,0.49856 0,0.23447 0.23395,0.0836 0.60612,-0.39099 z m -307.77253,-2.56254 c -1.51938,-0.0511 -4.08338,-0.0513 -5.69778,-4.6e-4 -1.6144,0.0509 -0.37127,0.0927 2.76251,0.093 3.13378,2.5e-4 4.45465,-0.0414 2.93527,-0.0925 z m -11.40739,-0.26843 c -0.27238,-0.0713 -0.78518,-0.0739 -1.13956,-0.006 -0.35438,0.0682 -0.13152,0.12649 0.49523,0.12965 0.62676,0.003 0.91671,-0.0526 0.64433,-0.1239 z m 18.51446,-6.4e-4 c -0.27421,-0.0717 -0.72291,-0.0717 -0.99711,0 -0.27421,0.0717 -0.0499,0.13029 0.49855,0.13029 0.54842,0 0.77277,-0.0586 0.49856,-0.13029 z m -22.07348,-0.27538 c -0.19287,-0.078 -0.57747,-0.0828 -0.85466,-0.0106 -0.27719,0.0722 -0.11938,0.13608 0.35069,0.14189 0.47006,0.006 0.69685,-0.0533 0.50397,-0.13134 z m 25.63459,-0.002 c -0.19586,-0.079 -0.51636,-0.079 -0.71222,0 -0.19586,0.079 -0.0356,0.14369 0.35611,0.14369 0.39172,0 0.55197,-0.0647 0.35611,-0.14369 z m -28.20401,-0.28489 c -0.19586,-0.079 -0.51636,-0.079 -0.71222,0 -0.19586,0.079 -0.0356,0.14369 0.35611,0.14369 0.39172,0 0.55197,-0.0647 0.35611,-0.14369 z m 31.18941,0.0166 c -0.0947,-0.0947 -0.34038,-0.10478 -0.54604,-0.0225 -0.22726,0.0909 -0.15975,0.15845 0.17213,0.17212 0.30032,0.0124 0.46858,-0.055 0.37391,-0.14963 z m -33.46852,-0.30144 c -0.19586,-0.079 -0.51636,-0.079 -0.71222,0 -0.19586,0.079 -0.0356,0.14369 0.35611,0.14369 0.39172,0 0.55197,-0.0647 0.35611,-0.14369 z m -1.85771,-0.26833 c -0.0947,-0.0947 -0.34039,-0.10479 -0.54604,-0.0225 -0.22727,0.0909 -0.15976,0.15845 0.17212,0.17212 0.30032,0.0124 0.46858,-0.055 0.37392,-0.14963 z m -1.70934,-0.28489 c -0.0947,-0.0947 -0.34038,-0.10479 -0.54604,-0.0225 -0.22726,0.0909 -0.15975,0.15845 0.17212,0.17212 0.30033,0.0124 0.46859,-0.055 0.37392,-0.14963 z m -1.42444,-0.28489 c -0.0947,-0.0947 -0.34039,-0.10479 -0.54604,-0.0225 -0.22727,0.0909 -0.15976,0.15845 0.17212,0.17212 0.30032,0.0124 0.46858,-0.055 0.37392,-0.14963 z m -1.42445,-0.28489 c -0.0947,-0.0947 -0.34038,-0.10479 -0.54604,-0.0225 -0.22726,0.0909 -0.15975,0.15845 0.17212,0.17212 0.30033,0.0124 0.46859,-0.055 0.37392,-0.14963 z m -2.564,-0.56978 c -0.0947,-0.0947 -0.34038,-0.10479 -0.54604,-0.0225 -0.22726,0.0909 -0.15976,0.15845 0.17212,0.17212 0.30032,0.0124 0.46859,-0.055 0.37392,-0.14963 z m -18.15574,-6.51275 c 0,-0.0728 -0.28845,-0.2722 -0.641,-0.44305 -0.61554,-0.29829 -0.61903,-0.29303 -0.088,0.13243 0.58125,0.46567 0.72899,0.52863 0.72899,0.31062 z m 104.39337,-1.83195 c 0.0867,-0.14027 -0.0274,-0.32604 -0.25356,-0.41282 -0.27429,-0.10525 -0.35845,-0.0203 -0.25278,0.25504 0.18364,0.47856 0.288,0.51108 0.50634,0.15778 z m -3.54266,-1.73918 c -0.23503,-0.15189 -0.55553,-0.27617 -0.71222,-0.27617 -0.15669,0 -0.0926,0.12428 0.14244,0.27617 0.23503,0.15189 0.55553,0.27616 0.71222,0.27616 0.15669,0 0.0926,-0.12427 -0.14244,-0.27616 z m -109.68227,-2.10179 c 0,-0.0592 -0.22435,-0.2835 -0.49855,-0.49855 -0.45185,-0.35437 -0.46193,-0.34429 -0.10756,0.10756 0.37217,0.47455 0.60611,0.62547 0.60611,0.39099 z m 375.19882,-1.03199 c 0.16772,-0.31338 0.24084,-0.56978 0.16249,-0.56978 -0.0783,0 -0.27966,0.2564 -0.44738,0.56978 -0.16771,0.31338 -0.24083,0.56978 -0.16249,0.56978 0.0783,0 0.27967,-0.2564 0.44738,-0.56978 z m -376.62326,-0.0983 c 0,-0.0541 -0.28845,-0.34251 -0.641,-0.641 l -0.641,-0.54271 0.54271,0.641 c 0.51001,0.60238 0.73929,0.77069 0.73929,0.54271 z m -5.41289,-5.42216 c 0,-0.0592 -0.22435,-0.28351 -0.49856,-0.49856 -0.45185,-0.35436 -0.46193,-0.34429 -0.10756,0.10756 0.37217,0.47456 0.60612,0.62547 0.60612,0.391 z m 98.2867,-0.8454 c 0,-0.0541 -0.28845,-0.34251 -0.641,-0.641 l -0.641,-0.54271 0.54271,0.641 c 0.51002,0.60238 0.73929,0.7707 0.73929,0.54271 z m 16.60021,-7.78058 c -0.19288,-0.078 -0.57748,-0.0828 -0.85467,-0.0106 -0.27719,0.0722 -0.11938,0.13608 0.35069,0.14189 0.47007,0.006 0.69686,-0.0533 0.50398,-0.13133 z m -2.7178,-0.27014 c -0.0947,-0.0947 -0.34039,-0.10479 -0.54604,-0.0225 -0.22727,0.0909 -0.15976,0.15845 0.17212,0.17212 0.30032,0.0124 0.46858,-0.055 0.37392,-0.14963 z m -9.24754,-0.29964 c -0.19288,-0.078 -0.57748,-0.0828 -0.85467,-0.0105 -0.27718,0.0722 -0.11937,0.13608 0.35069,0.14188 0.47007,0.006 0.69686,-0.0533 0.50398,-0.13133 z M 2.1828995,205.90351 c -0.079032,-0.19586 -0.143694,-0.0356 -0.143694,0.35611 0,0.39173 0.064662,0.55198 0.143694,0.35612 0.079032,-0.19587 0.079032,-0.51637 0,-0.71223 z M 347.9207,204.07672 c -0.19587,-0.079 -0.51637,-0.079 -0.71223,0 -0.19586,0.079 -0.0356,0.1437 0.35611,0.1437 0.39173,0 0.55198,-0.0647 0.35612,-0.1437 z m 5.84354,-0.007 c -0.27238,-0.0713 -0.78518,-0.0739 -1.13955,-0.006 -0.35438,0.0681 -0.13153,0.12648 0.49523,0.12965 0.62676,0.003 0.9167,-0.0526 0.64432,-0.1239 z M 9.7225652,199.7784 c 0.3543648,-0.45185 0.3442888,-0.46193 -0.1075613,-0.10756 -0.2742057,0.21505 -0.4985558,0.4394 -0.4985558,0.49855 0,0.23448 0.2339468,0.0836 0.6061171,-0.39099 z M 171.98956,197.92994 c -0.0681,-0.35437 -0.12648,-0.13152 -0.12965,0.49524 -0.003,0.62675 0.0526,0.9167 0.1239,0.64432 0.0713,-0.27238 0.0739,-0.78518 0.006,-1.13956 z m -32.39395,1.12283 c 0,-0.0465 -0.54485,-0.59139 -1.21078,-1.21078 l -1.21077,-1.12615 1.12615,1.21078 c 1.04731,1.12601 1.2954,1.34169 1.2954,1.12615 z M 12.001677,197.78418 c 0.354365,-0.45185 0.344289,-0.46193 -0.107561,-0.10756 -0.474553,0.37217 -0.625468,0.60611 -0.390994,0.60611 0.05916,0 0.283508,-0.22435 0.498555,-0.49855 z m 125.029933,-1.05831 c 0,-0.0728 -0.28845,-0.27221 -0.641,-0.44305 -0.61554,-0.29829 -0.61903,-0.29303 -0.088,0.13242 0.58125,0.46567 0.72899,0.52863 0.72899,0.31063 z m -23.3609,-1.01578 c 1.80193,-0.16037 4.94283,-0.559 6.97978,-0.88583 2.03696,-0.32683 5.17786,-0.61091 6.97978,-0.63127 l 3.27623,-0.037 -2.01104,-0.24886 c -1.63158,-0.2019 -2.99796,-0.10653 -7.2415,0.50544 -6.93988,1.00081 -14.22227,1.39085 -18.56662,0.99441 -1.84076,-0.16798 -3.577795,-0.25382 -3.860071,-0.19075 -0.776758,0.17355 5.082391,0.69795 8.318331,0.7445 1.56689,0.0225 4.32319,-0.0902 6.12511,-0.2506 z m -98.429148,-1.13091 c 0.283603,-0.31338 0.451542,-0.56978 0.373197,-0.56978 -0.07834,0 -0.374483,0.2564 -0.658086,0.56978 -0.283603,0.31337 -0.451542,0.56977 -0.373198,0.56977 0.07835,0 0.374484,-0.2564 0.658087,-0.56977 z m 82.332922,0.28968 c -1.486076,-0.28386 -4.93869,-0.59503 -4.515929,-0.407 0.427788,0.19026 3.70606,0.61346 4.800818,0.61975 0.691868,0.004 0.637601,-0.0366 -0.284889,-0.21275 z m 36.038456,-0.005 c -0.23503,-0.15189 -0.61963,-0.26911 -0.85466,-0.2605 -0.28178,0.0103 -0.23325,0.0991 0.14244,0.2605 0.78318,0.33655 1.23299,0.33655 0.71222,0 z m -1.63811,-0.47356 c -0.19586,-0.079 -0.51636,-0.079 -0.71222,0 -0.19586,0.079 -0.0356,0.14369 0.35611,0.14369 0.39172,0 0.55197,-0.0647 0.35611,-0.14369 z m -39.463061,-0.26833 c -0.09467,-0.0947 -0.340383,-0.10479 -0.546037,-0.0225 -0.227266,0.0909 -0.159759,0.15846 0.17212,0.17213 0.300321,0.0124 0.468583,-0.055 0.373917,-0.14963 z m -1.139556,-0.28489 c -0.09467,-0.0947 -0.340383,-0.10479 -0.546037,-0.0225 -0.227266,0.0909 -0.159759,0.15845 0.17212,0.17212 0.30032,0.0124 0.468583,-0.055 0.373917,-0.14963 z m -1.276066,-0.30145 c -0.195861,-0.079 -0.516361,-0.079 -0.712222,0 -0.195861,0.079 -0.03561,0.1437 0.356111,0.1437 0.391723,0 0.551973,-0.0647 0.356111,-0.1437 z m -1.572824,-0.26833 c -0.09467,-0.0947 -0.340383,-0.10479 -0.546037,-0.0225 -0.227266,0.0909 -0.159759,0.15845 0.17212,0.17212 0.30032,0.0124 0.468583,-0.055 0.373917,-0.14963 z m -1.845844,-0.30145 c -0.195861,-0.079 -0.516361,-0.079 -0.712222,0 -0.195861,0.079 -0.03561,0.1437 0.356111,0.1437 0.391723,0 0.551973,-0.0647 0.356111,-0.1437 z m -1.857713,-0.26833 c -0.09467,-0.0947 -0.340383,-0.10479 -0.546038,-0.0225 -0.227265,0.0909 -0.159759,0.15845 0.172121,0.17212 0.30032,0.0124 0.468583,-0.055 0.373917,-0.14963 z m -1.845844,-0.30144 c -0.195861,-0.079 -0.516361,-0.079 -0.712222,0 -0.195861,0.079 -0.03561,0.14369 0.356111,0.14369 0.391723,0 0.551973,-0.0647 0.356111,-0.14369 z m -1.994223,-0.28489 c -0.195861,-0.079 -0.516361,-0.079 -0.712222,0 -0.195861,0.079 -0.03561,0.14369 0.356111,0.14369 0.391722,0 0.551973,-0.0647 0.356111,-0.14369 z m -2.421556,-0.2926 c -0.274206,-0.0717 -0.722906,-0.0717 -0.997112,0 -0.274205,0.0717 -0.04985,0.13029 0.498556,0.13029 0.548411,0 0.772762,-0.0586 0.498556,-0.13029 z m -3.709492,-0.54551 c -0.09467,-0.0947 -0.340383,-0.10479 -0.546038,-0.0225 -0.227265,0.0909 -0.159759,0.15845 0.172121,0.17212 0.30032,0.0124 0.468583,-0.055 0.373917,-0.14963 z m -2.125311,-0.29964 c -0.192879,-0.078 -0.577479,-0.0828 -0.854667,-0.0106 -0.277188,0.0722 -0.119377,0.13608 0.350689,0.14189 0.470067,0.006 0.696857,-0.0533 0.503978,-0.13133 z m -2.432913,-0.27014 c -0.09467,-0.0947 -0.340383,-0.10479 -0.546038,-0.0225 -0.227265,0.0909 -0.159759,0.15845 0.172121,0.17212 0.30032,0.0124 0.468583,-0.055 0.373917,-0.14963 z m -5.828868,-0.58453 c -0.192879,-0.078 -0.577479,-0.0828 -0.854667,-0.0105 -0.277188,0.0722 -0.119377,0.13608 0.350689,0.14188 0.470067,0.006 0.696857,-0.0533 0.503978,-0.13133 z m 516.418391,-1.09513 c 0,-0.15669 -0.12427,-0.0926 -0.27616,0.14244 -0.15189,0.23504 -0.27616,0.55554 -0.27616,0.71223 0,0.15669 0.12427,0.0926 0.27616,-0.14245 0.15189,-0.23503 0.27616,-0.55553 0.27616,-0.71222 z M 180.8333,188.68501 c -0.27421,-0.0717 -0.72291,-0.0717 -0.99712,0 -0.2742,0.0717 -0.0499,0.13029 0.49856,0.13029 0.54841,0 0.77276,-0.0586 0.49856,-0.13029 z m 4.13089,-0.27718 c -0.19587,-0.079 -0.51637,-0.079 -0.71223,0 -0.19586,0.079 -0.0356,0.14369 0.35611,0.14369 0.39173,0 0.55198,-0.0647 0.35612,-0.14369 z m 8.27577,-0.30794 c -1.285,-0.0527 -3.4644,-0.0529 -4.84312,-6e-4 -1.37872,0.0523 -0.32736,0.0954 2.33635,0.0958 2.66371,3.2e-4 3.79176,-0.0425 2.50677,-0.0952 z m 7.39312,0.0231 c -0.19586,-0.079 -0.51636,-0.079 -0.71222,0 -0.19586,0.079 -0.0356,0.1437 0.35611,0.1437 0.39172,0 0.55197,-0.0647 0.35611,-0.1437 z m 3.84007,-0.26833 c -0.0947,-0.0947 -0.34039,-0.10479 -0.54604,-0.0225 -0.22727,0.0909 -0.15976,0.15845 0.17212,0.17212 0.30032,0.0124 0.46858,-0.055 0.37392,-0.14963 z m 381.73814,-19.82353 c -0.0909,-0.22726 -0.15845,-0.15976 -0.17212,0.17212 -0.0124,0.30032 0.055,0.46859 0.14963,0.37392 0.0947,-0.0947 0.10479,-0.34038 0.0225,-0.54604 z m -437.49923,-0.32976 c 0,-0.0541 -0.28845,-0.34251 -0.641,-0.641 l -0.641,-0.54271 0.54271,0.641 c 0.51001,0.60238 0.73929,0.77069 0.73929,0.54271 z m 438.10128,-8.30593 c -0.0107,-6.80304 -0.16926,-5.79514 -0.29126,1.85177 -0.0537,3.36882 -0.008,5.48412 0.10081,4.70067 0.1092,-0.78344 0.1949,-3.73204 0.19045,-6.55244 z m -436.75419,4.20211 c -0.0615,-0.58758 -0.11175,-0.10683 -0.11175,1.06833 0,1.17517 0.0503,1.65592 0.11175,1.06834 0.0615,-0.58759 0.0615,-1.54909 0,-2.13667 z m -3.05642,2.11874 c 0,-0.049 -0.41665,-0.46568 -0.92589,-0.92589 l -0.92589,-0.83674 0.83674,0.92589 c 0.77997,0.86306 1.01504,1.05684 1.01504,0.83674 z m 148.50381,-0.95239 c -0.19288,-0.078 -0.57748,-0.0828 -0.85467,-0.0105 -0.27718,0.0722 -0.11937,0.13608 0.35069,0.14188 0.47007,0.006 0.69686,-0.0533 0.50398,-0.13133 z m 7.1168,-0.0192 c -0.50923,-0.0632 -1.34253,-0.0632 -1.85177,0 -0.50924,0.0632 -0.0926,0.11491 0.92589,0.11491 1.01847,0 1.43512,-0.0517 0.92588,-0.11491 z m -9.97111,-0.26747 c -0.19586,-0.079 -0.51636,-0.079 -0.71222,0 -0.19586,0.079 -0.0356,0.14369 0.35611,0.14369 0.39172,0 0.55197,-0.0647 0.35611,-0.14369 z M 150.33289,161.0335 c -0.0717,-0.27421 -0.13029,-0.0499 -0.13029,0.49855 0,0.54841 0.0586,0.77276 0.13029,0.49856 0.0717,-0.27421 0.0717,-0.72291 0,-0.99711 z m 130.85256,-0.0712 c -0.23504,-0.15189 -0.55554,-0.27617 -0.71223,-0.27617 -0.15668,0 -0.0926,0.12428 0.14245,0.27617 0.23503,0.15189 0.55553,0.27616 0.71222,0.27616 0.15669,0 0.0926,-0.12427 -0.14244,-0.27616 z m -2.564,-0.89653 c -0.39173,-0.15985 -2.50703,-0.33495 -4.70067,-0.38912 l -3.98845,-0.0985 4.08695,0.24453 c 2.24782,0.13449 4.16014,0.31772 4.24959,0.40718 0.0895,0.0895 0.36563,0.15452 0.61372,0.14459 0.26232,-0.0105 0.15304,-0.13968 -0.26114,-0.30869 z m 47.48618,-2.86045 c -0.0909,-0.22726 -0.15845,-0.15976 -0.17212,0.17212 -0.0124,0.30032 0.055,0.46859 0.14963,0.37392 0.0947,-0.0947 0.10479,-0.34038 0.0225,-0.54604 z m -174.63696,-1.70933 c -0.0909,-0.22727 -0.15845,-0.15976 -0.17212,0.17212 -0.0124,0.30032 0.055,0.46858 0.14963,0.37392 0.0947,-0.0947 0.10479,-0.34039 0.0225,-0.54604 z m -15.00884,-0.33904 c 0,-0.0591 -0.22435,-0.2835 -0.49855,-0.49855 -0.45185,-0.35437 -0.46193,-0.34429 -0.10756,0.10756 0.37217,0.47455 0.60611,0.62547 0.60611,0.39099 z M 35.75357,152.13072 c 0.612011,-0.62676 1.048647,-1.13956 0.970302,-1.13956 -0.07834,0 -0.64318,0.5128 -1.255191,1.13956 -0.612011,0.62675 -1.048647,1.13955 -0.970302,1.13955 0.07834,0 0.64318,-0.5128 1.255191,-1.13955 z m 285.96276,0.95268 c -0.19288,-0.078 -0.57748,-0.0828 -0.85467,-0.0106 -0.27719,0.0722 -0.11937,0.13608 0.35069,0.14188 0.47007,0.006 0.69686,-0.0533 0.50398,-0.13133 z m -6.13647,-0.27014 c -0.0947,-0.0947 -0.34038,-0.10478 -0.54604,-0.0225 -0.22726,0.0909 -0.15976,0.15845 0.17212,0.17212 0.30032,0.0124 0.46859,-0.055 0.37392,-0.14963 z m 2.99727,-0.0166 c -0.19586,-0.079 -0.51636,-0.079 -0.71222,0 -0.19587,0.079 -0.0356,0.14369 0.35611,0.14369 0.39172,0 0.55197,-0.0647 0.35611,-0.14369 z m -7.84038,-0.26834 c -0.0947,-0.0947 -0.34039,-0.10478 -0.54604,-0.0225 -0.22727,0.091 -0.15976,0.15845 0.17212,0.17212 0.30032,0.0124 0.46858,-0.055 0.37392,-0.14963 z m -177.97847,-0.22033 c 0,-0.0592 -0.22435,-0.2835 -0.49856,-0.49855 -0.45185,-0.35437 -0.46193,-0.34429 -0.10756,0.10756 0.37217,0.47455 0.60612,0.62547 0.60612,0.39099 z m 20.21839,-1.17443 c 0,-0.15669 -0.12427,-0.0926 -0.27616,0.14244 -0.15189,0.23503 -0.27617,0.55553 -0.27617,0.71222 0,0.15669 0.12428,0.0926 0.27617,-0.14244 0.15189,-0.23504 0.27616,-0.55554 0.27616,-0.71222 z m 0.8432,-1.99423 c 0,-0.15669 -0.18321,0.0356 -0.40714,0.42734 -0.22393,0.39172 -0.40714,0.84042 -0.40714,0.99711 0,0.15669 0.18321,-0.0356 0.40714,-0.42734 0.22393,-0.39172 0.40714,-0.84042 0.40714,-0.99711 z m -114.914599,0.0712 0.836745,-0.92589 -0.925889,0.83674 c -0.863059,0.77996 -1.056839,1.01503 -0.836745,1.01503 0.04903,0 0.465679,-0.41665 0.925889,-0.92588 z m 90.149449,0.24854 c 0,-0.0591 -0.22435,-0.2835 -0.49856,-0.49855 -0.45185,-0.35437 -0.46192,-0.34429 -0.10756,0.10756 0.37217,0.47455 0.60612,0.62547 0.60612,0.39099 z m 25.62991,-2.70281 c -0.0207,-0.37066 -0.82434,1.26026 -0.82332,1.67082 5.8e-4,0.23503 0.18834,-0.004 0.41724,-0.53126 0.2289,-0.52723 0.41164,-1.04003 0.40608,-1.13956 z M 41.166461,147.2876 c 0.283603,-0.31337 0.451542,-0.56977 0.373198,-0.56977 -0.07834,0 -0.374484,0.2564 -0.658087,0.56977 -0.283603,0.31338 -0.451542,0.56978 -0.373197,0.56978 0.07834,0 0.374483,-0.2564 0.658086,-0.56978 z m 114.353709,-2.20789 c 0.33582,-0.66592 0.54648,-1.21077 0.46814,-1.21077 -0.16194,0 -1.29358,2.15001 -1.29358,2.45769 0,0.31196 0.16502,0.0627 0.82544,-1.24692 z m 137.9155,0.10611 c 0,-0.0592 -0.22435,-0.28351 -0.49855,-0.49856 -0.45185,-0.35436 -0.46193,-0.34428 -0.10756,0.10757 0.37217,0.47455 0.60611,0.62546 0.60611,0.39099 z m -136.46183,-2.74133 c 0.31975,-0.62675 0.51726,-1.13955 0.43891,-1.13955 -0.0783,0 -0.40405,0.5128 -0.7238,1.13955 -0.31974,0.62676 -0.51726,1.13956 -0.43891,1.13956 0.0783,0 0.40405,-0.5128 0.7238,-1.13956 z m 427.33351,0.56978 c -0.16772,-0.31338 -0.36904,-0.56978 -0.44738,-0.56978 -0.0784,0 -0.005,0.2564 0.16249,0.56978 0.16771,0.31338 0.36903,0.56978 0.44738,0.56978 0.0783,0 0.005,-0.2564 -0.16249,-0.56978 z m -295.14501,-2.09251 c 0,-0.0541 -0.28845,-0.34251 -0.641,-0.641 l -0.641,-0.54271 0.54271,0.641 c 0.51001,0.60238 0.73929,0.77069 0.73929,0.54271 z M 52.704466,140.45027 c 0.235033,-0.15189 0.299133,-0.27617 0.142444,-0.27617 -0.156689,0 -0.477189,0.12428 -0.712222,0.27617 -0.235034,0.15189 -0.299134,0.27616 -0.142445,0.27616 0.156689,0 0.477189,-0.12427 0.712223,-0.27616 z m 7.122225,-1.85999 c 2.615818,-0.47506 7.243092,-1.62736 5.840224,-1.45436 -2.188272,0.26987 -7.653378,1.39086 -8.614764,1.76705 -0.589304,0.23059 -0.750962,0.35352 -0.359239,0.27318 0.391722,-0.0804 1.801923,-0.34399 3.133779,-0.58587 z m 99.747489,-0.3479 c 0.35437,-0.45185 0.34429,-0.46193 -0.10756,-0.10756 -0.27421,0.21504 -0.49856,0.43939 -0.49856,0.49855 0,0.23448 0.23395,0.0836 0.60612,-0.39099 z m 330.50613,-0.54479 c -0.19586,-0.079 -0.51636,-0.079 -0.71222,0 -0.19586,0.079 -0.0356,0.1437 0.35611,0.1437 0.39172,0 0.55197,-0.0647 0.35611,-0.1437 z M 160.6774,136.88916 c 0.368,-0.39173 0.605,-0.71223 0.52665,-0.71223 -0.0783,0 -0.44354,0.3205 -0.81154,0.71223 -0.368,0.39172 -0.605,0.71222 -0.52665,0.71222 0.0783,0 0.44353,-0.3205 0.81154,-0.71222 z m -91.802162,-0.0533 c -0.272379,-0.0713 -0.785179,-0.0739 -1.139556,-0.006 -0.354377,0.0681 -0.131521,0.12648 0.495234,0.12965 0.626756,0.003 0.916701,-0.0526 0.644322,-0.1239 z m 28.194755,0.0236 c -0.09467,-0.0947 -0.340383,-0.10479 -0.546037,-0.0225 -0.227266,0.0909 -0.159759,0.15845 0.17212,0.17212 0.300321,0.0124 0.468583,-0.055 0.373917,-0.14963 z m -25.924899,-0.28489 c -0.09467,-0.0947 -0.340383,-0.10479 -0.546038,-0.0225 -0.227265,0.0909 -0.159759,0.15845 0.172121,0.17212 0.30032,0.0124 0.468583,-0.055 0.373917,-0.14963 z m 22.369722,-0.0165 c -0.195862,-0.079 -0.516362,-0.079 -0.712223,0 -0.195861,0.079 -0.03561,0.14369 0.356111,0.14369 0.391723,0 0.551973,-0.0647 0.356112,-0.14369 z m -3.418669,-0.28489 c -0.195861,-0.079 -0.516361,-0.079 -0.712222,0 -0.195861,0.079 -0.03561,0.14369 0.356111,0.14369 0.391723,0 0.551973,-0.0647 0.356111,-0.14369 z m -2.564001,-0.28489 c -0.195861,-0.079 -0.516361,-0.079 -0.712222,0 -0.195861,0.079 -0.03561,0.14369 0.356111,0.14369 0.391723,0 0.551973,-0.0647 0.356111,-0.14369 z m -4.543426,-0.30828 c -1.441234,-0.0516 -3.877035,-0.0518 -5.412891,-5e-4 -1.535856,0.0513 -0.356664,0.0935 2.620426,0.0938 2.97709,2.8e-4 4.233699,-0.0417 2.792465,-0.0933 z m 81.10735,-2.5537 c 0,-0.21392 -0.25578,0.0123 -1.43635,1.2701 l -1.2701,1.35322 1.35322,-1.27009 c 0.74428,-0.69856 1.35323,-1.30751 1.35323,-1.35323 z m 120.22316,2.38259 c 0,-0.0541 -0.28845,-0.34251 -0.641,-0.641 l -0.641,-0.54271 0.54271,0.641 c 0.51001,0.60238 0.73929,0.77069 0.73929,0.54271 z m 225.83982,-2.35295 c -0.0947,-0.0947 -0.34038,-0.10478 -0.54604,-0.0225 -0.22726,0.0909 -0.15976,0.15845 0.17212,0.17212 0.30032,0.0124 0.46858,-0.055 0.37392,-0.14963 z m 1.99422,-0.28489 c -0.0947,-0.0947 -0.34038,-0.10478 -0.54604,-0.0225 -0.22726,0.0909 -0.15975,0.15845 0.17212,0.17212 0.30033,0.0124 0.46859,-0.055 0.37392,-0.14963 z m -230.39805,-0.19739 c 0,-0.0465 -0.54485,-0.5914 -1.21077,-1.21078 l -1.21078,-1.12615 1.12615,1.21078 c 1.04731,1.12601 1.2954,1.34169 1.2954,1.12615 z m 232.39227,-0.0875 c -0.0947,-0.0947 -0.34038,-0.10479 -0.54603,-0.0225 -0.22727,0.0909 -0.15976,0.15845 0.17212,0.17213 0.30032,0.0124 0.46858,-0.055 0.37391,-0.14963 z m 1.70934,-0.28489 c -0.0947,-0.0947 -0.34038,-0.10479 -0.54604,-0.0225 -0.22726,0.0909 -0.15976,0.15845 0.17212,0.17212 0.30032,0.0124 0.46858,-0.055 0.37392,-0.14963 z m 2.85815,-0.30851 c -0.27238,-0.0713 -0.78518,-0.0739 -1.13956,-0.006 -0.35438,0.0681 -0.13152,0.12648 0.49523,0.12964 0.62676,0.003 0.9167,-0.0526 0.64433,-0.12389 z m 5.26712,-0.27783 c -0.19586,-0.079 -0.51636,-0.079 -0.71222,0 -0.19586,0.079 -0.0356,0.1437 0.35611,0.1437 0.39172,0 0.55197,-0.0647 0.35611,-0.1437 z m 4.12454,-0.30412 c -0.59108,-0.0617 -1.48848,-0.0606 -1.99423,0.002 -0.50574,0.0629 -0.0221,0.11339 1.07469,0.11213 1.09682,-10e-4 1.51062,-0.0528 0.91954,-0.11443 z m 2.56442,-0.2491 c -0.0947,-0.0947 -0.34039,-0.10479 -0.54604,-0.0225 -0.22727,0.0909 -0.15976,0.15845 0.17212,0.17212 0.30032,0.0124 0.46858,-0.055 0.37392,-0.14963 z m -362.87144,-1.67966 c 0.85109,-0.86179 1.48333,-1.56689 1.40498,-1.56689 -0.0783,0 -0.83878,0.7051 -1.68987,1.56689 -0.85108,0.86179 -1.48332,1.56689 -1.40498,1.56689 0.0784,0 0.83879,-0.7051 1.68987,-1.56689 z m 364.58077,1.39477 c -0.0947,-0.0947 -0.34038,-0.10479 -0.54604,-0.0225 -0.22726,0.0909 -0.15976,0.15845 0.17212,0.17212 0.30032,0.0124 0.46859,-0.055 0.37392,-0.14963 z m 3.4246,-0.30915 c -0.2742,-0.0717 -0.7229,-0.0717 -0.99711,0 -0.2742,0.0717 -0.0498,0.13029 0.49856,0.13029 0.54841,0 0.77276,-0.0586 0.49855,-0.13029 z m -257.75332,-1.32635 c 0,-0.0541 -0.28845,-0.34251 -0.641,-0.641 l -0.641,-0.54271 0.54271,0.641 c 0.51001,0.60238 0.73929,0.77069 0.73929,0.54271 z m -107.40316,-2.32327 c 0.36801,-0.39172 0.605,-0.71222 0.52666,-0.71222 -0.0784,0 -0.44354,0.3205 -0.81155,0.71222 -0.368,0.39172 -0.60499,0.71222 -0.52665,0.71222 0.0784,0 0.44354,-0.3205 0.81154,-0.71222 z m 382.68258,-0.0444 c -0.19288,-0.078 -0.57748,-0.0828 -0.85467,-0.0106 -0.27718,0.0722 -0.11937,0.13608 0.35069,0.14189 0.47007,0.006 0.69686,-0.0533 0.50398,-0.13133 z m -278.4132,-0.20558 c 0,-0.0592 -0.22435,-0.28351 -0.49856,-0.49856 -0.45185,-0.35436 -0.46192,-0.34429 -0.10756,0.10756 0.37217,0.47456 0.60612,0.62547 0.60612,0.391 z m 283.11355,-0.096 c -0.42809,-0.065 -1.19729,-0.0663 -1.70934,-0.003 -0.51204,0.0634 -0.16179,0.11659 0.77835,0.11819 0.94013,0.002 1.35908,-0.0503 0.93099,-0.11528 z m -385.35236,-1.43455 c 0.35436,-0.45185 0.34428,-0.46193 -0.10757,-0.10757 -0.2742,0.21505 -0.49855,0.4394 -0.49855,0.49856 0,0.23447 0.23395,0.0836 0.60612,-0.39099 z m 100.81436,0.39099 c 0,-0.0592 -0.22435,-0.28351 -0.49855,-0.49856 -0.45185,-0.35436 -0.46193,-0.34428 -0.10756,0.10757 0.37217,0.47455 0.60611,0.62546 0.60611,0.39099 z m -1.13955,-0.8454 c 0,-0.0541 -0.28845,-0.34251 -0.641,-0.641 l -0.641,-0.54271 0.54271,0.641 c 0.51001,0.60239 0.73929,0.7707 0.73929,0.54271 z m -92.87382,-4.64516 c 0,-0.20608 -1.09795,0.45722 -1.30121,0.78609 -0.10636,0.1721 0.1429,0.0926 0.55391,-0.17674 0.41102,-0.26931 0.7473,-0.54352 0.7473,-0.60935 z m 3.293,-1.68226 c 0.52143,-0.41776 0.51234,-0.42369 -0.15922,-0.10386 -0.87205,0.41532 -1.03367,0.54691 -0.67171,0.54691 0.15286,0 0.52677,-0.19938 0.83093,-0.44305 z m 1.40565,-0.69325 c 0.0998,-0.16149 -0.0145,-0.20925 -0.26807,-0.11196 -0.49355,0.18939 -0.58385,0.39359 -0.17406,0.39359 0.14745,0 0.3464,-0.12673 0.44213,-0.28163 z m 18.3002,-6.44294 c -0.0947,-0.0947 -0.34038,-0.10479 -0.54603,-0.0225 -0.22727,0.0909 -0.15976,0.15845 0.17212,0.17212 0.30032,0.0124 0.46858,-0.055 0.37391,-0.14963 z m 1.57283,-0.30144 c -0.19586,-0.079 -0.51636,-0.079 -0.71222,0 -0.19586,0.079 -0.0356,0.14369 0.35611,0.14369 0.39172,0 0.55197,-0.0647 0.35611,-0.14369 z m 1.56095,-0.26834 c -0.0947,-0.0947 -0.34038,-0.10478 -0.54603,-0.0225 -0.22727,0.0909 -0.15976,0.15845 0.17212,0.17212 0.30032,0.0124 0.46858,-0.055 0.37391,-0.14963 z m 35.18973,-0.0166 c -0.19586,-0.079 -0.51636,-0.079 -0.71222,0 -0.19586,0.079 -0.0356,0.14369 0.35611,0.14369 0.39172,0 0.55197,-0.0647 0.35611,-0.14369 z m -33.47446,-0.2926 c -0.2742,-0.0717 -0.7229,-0.0717 -0.99711,0 -0.2742,0.0717 -0.0498,0.13029 0.49856,0.13029 0.54841,0 0.77276,-0.0586 0.49855,-0.13029 z m 31.61675,0.0243 c -0.0947,-0.0947 -0.34039,-0.10479 -0.54604,-0.0225 -0.22727,0.091 -0.15976,0.15845 0.17212,0.17212 0.30032,0.0124 0.46858,-0.055 0.37392,-0.14962 z m -29.91335,-0.28489 c -0.0947,-0.0947 -0.34038,-0.10479 -0.54604,-0.0225 -0.22726,0.091 -0.15975,0.15846 0.17212,0.17213 0.30033,0.0124 0.46859,-0.055 0.37392,-0.14963 z m 1.28794,-0.30145 c -0.19586,-0.079 -0.51636,-0.079 -0.71223,0 -0.19586,0.079 -0.0356,0.1437 0.35612,0.1437 0.39172,0 0.55197,-0.0647 0.35611,-0.1437 z m 3.56621,-0.29977 c -0.42809,-0.065 -1.19729,-0.0663 -1.70933,-0.003 -0.51205,0.0634 -0.16179,0.11659 0.77834,0.11819 0.94013,0.002 1.35908,-0.0503 0.93099,-0.11528 z m 20.08349,0.003 c -0.35039,-0.0676 -0.99139,-0.0694 -1.42444,-0.004 -0.43305,0.0655 -0.14637,0.12081 0.63708,0.12295 0.78344,0.002 1.13776,-0.0514 0.78736,-0.11906 z m -17.23638,-0.28009 c -0.27238,-0.0713 -0.78518,-0.0739 -1.13955,-0.006 -0.35438,0.0681 -0.13153,0.12648 0.49523,0.12965 0.62676,0.003 0.9167,-0.0526 0.64432,-0.1239 z m 13.67135,-6.4e-4 c -0.2742,-0.0717 -0.7229,-0.0717 -0.99711,0 -0.27421,0.0717 -0.0499,0.13028 0.49856,0.13028 0.54841,0 0.77276,-0.0586 0.49855,-0.13028 z m -4.71508,-0.30096 c -1.4573,-0.0518 -3.7649,-0.0516 -5.128,5.4e-4 -1.3631,0.0521 -0.17077,0.0945 2.64963,0.0942 2.82041,-3e-4 3.93567,-0.0429 2.47837,-0.0947 z"
       id="path1" /></g></svg>
