<?xml version="1.0" encoding="UTF-8" standalone="no"?>
<!-- Created with Inkscape (http://www.inkscape.org/) -->

<svg
   version="1.1"
   id="svg1"
   width="680.31494"
   height="475.19485"
   viewBox="0 0 680.31494 475.19484"
   sodipodi:docname="Kunpeng2-2.PNG"
   xml:space="preserve"
   inkscape:export-filename="../SVG/Kunpeng1.svg"
   inkscape:export-xdpi="96"
   inkscape:export-ydpi="96"
   xmlns:inkscape="http://www.inkscape.org/namespaces/inkscape"
   xmlns:sodipodi="http://sodipodi.sourceforge.net/DTD/sodipodi-0.dtd"
   xmlns="http://www.w3.org/2000/svg"
   xmlns:svg="http://www.w3.org/2000/svg"><defs
     id="defs1" /><sodipodi:namedview
     id="namedview1"
     pagecolor="#ffffff"
     bordercolor="#000000"
     borderopacity="0.25"
     inkscape:showpageshadow="2"
     inkscape:pageopacity="0.0"
     inkscape:pagecheckerboard="0"
     inkscape:deskcolor="#d1d1d1"
     showguides="true" /><g
     inkscape:groupmode="layer"
     inkscape:label="Image"
     id="g1"><path
       style="fill:#000000"
       d="m 225.48965,355.79486 c -25.61035,-1.49791 -51.19295,-6.10943 -74.35603,-13.4034 -6.49146,-2.04414 -14.45463,-5.05312 -14.95668,-5.65156 -0.23503,-0.28016 -0.82731,-0.7102 -1.31617,-0.95563 -1.33959,-0.67255 -3.29045,-3.00671 -4.4928,-5.37554 -0.88903,-1.75151 -1.04016,-2.29137 -0.88018,-3.1441 0.25821,-1.37639 1.02261,-2.0479 2.04972,-1.80066 0.43639,0.10505 1.30072,0.17819 1.92074,0.16255 0.62003,-0.0157 3.05583,0.16499 5.4129,0.40143 2.35706,0.23643 4.99067,0.48728 5.85246,0.55744 0.86179,0.0702 5.02829,-0.0492 9.2589,-0.26516 4.2306,-0.21599 10.256,-0.51899 13.38978,-0.67333 3.13378,-0.15434 6.72338,-0.47307 7.97689,-0.70829 1.25351,-0.23522 3.81751,-0.63615 5.69778,-0.89096 6.03825,-0.8183 15.83206,-3.00293 21.45331,-4.78543 1.77123,-0.56165 3.66218,-1.10406 4.20211,-1.20536 0.53994,-0.10129 0.9817,-0.28607 0.9817,-0.41062 0,-0.12454 0.67305,-0.31243 1.49567,-0.41751 1.65449,-0.21136 7.94069,-2.16588 11.818,-3.67448 1.37372,-0.5345 3.69248,-1.37029 5.1528,-1.85733 6.99041,-2.33138 28.06755,-12.4917 32.81355,-15.81789 3.38999,-2.37584 11.03752,-6.50192 17.21846,-9.28989 18.80832,-8.48367 41.54704,-14.90375 61.12602,-17.2584 5.2713,-0.63395 15.98987,-0.71516 19.08476,-0.14459 2.88638,0.53212 6.80281,1.81761 8.17315,2.68267 1.69226,1.06827 3.685,3.44788 4.41382,5.27072 0.90487,2.26312 0.91226,6.72472 0.0159,9.60122 -4.82543,15.48548 -30.01768,36.88625 -60.88876,51.72488 -5.32442,2.55926 -13.02298,5.96514 -13.48342,5.96514 -0.17582,0 -1.51875,0.64069 -2.9843,1.42375 -1.46554,0.78306 -3.93655,1.94545 -5.49112,2.5831 -12.14751,4.98259 -18.76555,6.47437 -32.73499,7.3788 -5.21401,0.33757 -22.0054,0.32461 -27.92398,-0.0216 z m 7.90958,-0.45395 c -0.35039,-0.0676 -0.99139,-0.0694 -1.42444,-0.004 -0.43305,0.0655 -0.14636,0.12081 0.63708,0.12295 0.78345,0.002 1.13776,-0.0514 0.78736,-0.11906 z m 14.81423,0 c -0.35039,-0.0676 -0.99139,-0.0694 -1.42444,-0.004 -0.43305,0.0655 -0.14636,0.12081 0.63708,0.12295 0.78344,0.002 1.13776,-0.0514 0.78736,-0.11906 z m -21.93495,-0.27122 c -0.19288,-0.078 -0.57748,-0.0828 -0.85466,-0.0105 -0.27719,0.0722 -0.11938,0.13608 0.35069,0.14188 0.47006,0.006 0.69685,-0.0533 0.50397,-0.13133 z m 27.77126,-0.01 c -0.27421,-0.0717 -0.72291,-0.0717 -0.99711,0 -0.27421,0.0717 -0.0499,0.13029 0.49855,0.13029 0.54841,0 0.77276,-0.0586 0.49856,-0.13029 z m -32.3349,-0.27718 c -0.19586,-0.079 -0.51636,-0.079 -0.71223,0 -0.19586,0.079 -0.0356,0.14369 0.35612,0.14369 0.39172,0 0.55197,-0.0647 0.35611,-0.14369 z m 25.10749,-0.0982 c 11.37557,-0.40416 15.96614,-0.91602 24.47029,-2.7285 3.36662,-0.71752 9.52682,-2.68085 10.61962,-3.3846 0.32141,-0.20698 1.98801,-0.91864 3.70356,-1.58146 1.71555,-0.66283 4.62788,-2.03869 6.47185,-3.05748 1.8447,-1.0192 3.70269,-1.85115 4.13089,-1.84968 1.04816,0.004 8.05737,-3.08983 15.02267,-6.63004 14.92531,-7.586 27.61828,-15.98007 38.12638,-25.2136 14.47289,-12.71742 21.62299,-25.39674 18.35143,-32.54275 -1.57426,-3.43865 -3.58171,-5.09829 -7.61935,-6.29921 -3.37702,-1.00443 -5.29405,-1.31265 -9.40134,-1.51154 -21.69089,-1.05035 -65.98474,11.52804 -86.57981,24.58658 -2.66738,1.69129 -8.48997,5.02185 -12.13423,6.94085 -3.22675,1.69916 -5.88279,3.13207 -7.42108,4.00361 -1.27268,0.72105 -4.86752,2.34526 -10.66937,4.82059 -1.01848,0.43453 -2.87604,1.26146 -4.12791,1.83762 -3.3523,1.54285 -16.61775,5.96895 -22.33893,7.45353 -2.73438,0.70954 -5.20819,1.41668 -5.49734,1.57143 -0.51816,0.27732 -6.21214,1.64357 -12.33606,2.95999 -1.72358,0.37051 -4.99268,0.94142 -7.26467,1.26868 -2.27199,0.32727 -5.28469,0.7847 -6.69489,1.01652 -1.4102,0.23182 -8.0125,0.69251 -14.67178,1.02374 -12.76535,0.63495 -17.00118,0.59793 -23.28091,-0.20345 -4.19761,-0.53568 -6.29409,-0.32678 -6.65978,0.6636 -0.26196,0.70944 0.87425,3.15255 2.20415,4.73945 1.87299,2.23494 5.97044,4.38855 12.79197,6.72343 26.08032,8.92678 60.69581,14.9586 88.87326,15.48634 2.03696,0.0381 3.83176,0.0939 3.98845,0.12389 0.15669,0.03 3.73101,-0.0679 7.94293,-0.21754 z m 10.92503,0.11472 c -0.0947,-0.0947 -0.34038,-0.10478 -0.54604,-0.0225 -0.22726,0.091 -0.15976,0.15845 0.17212,0.17212 0.30032,0.0124 0.46859,-0.055 0.37392,-0.14963 z m -39.73608,-0.30144 c -0.19586,-0.079 -0.51636,-0.079 -0.71222,0 -0.19586,0.079 -0.0356,0.14369 0.35611,0.14369 0.39172,0 0.55197,-0.0647 0.35611,-0.14369 z m -3.28216,-0.26834 c -0.0947,-0.0947 -0.34038,-0.10478 -0.54604,-0.0225 -0.22726,0.0909 -0.15975,0.15845 0.17212,0.17212 0.30033,0.0124 0.46859,-0.055 0.37392,-0.14963 z m -2.84889,-0.28488 c -0.0947,-0.0947 -0.34038,-0.10479 -0.54604,-0.0225 -0.22726,0.091 -0.15975,0.15845 0.17212,0.17213 0.30033,0.0124 0.46859,-0.055 0.37392,-0.14963 z m 55.41685,-0.30145 c -0.19586,-0.079 -0.51636,-0.079 -0.71222,0 -0.19587,0.079 -0.0356,0.14369 0.35611,0.14369 0.39172,0 0.55197,-0.0647 0.35611,-0.14369 z m -60.54485,-0.26833 c -0.0947,-0.0947 -0.34038,-0.10479 -0.54604,-0.0225 -0.22726,0.0909 -0.15976,0.15845 0.17212,0.17212 0.30032,0.0124 0.46859,-0.055 0.37392,-0.14963 z m -2.27911,-0.28489 c -0.0947,-0.0947 -0.34039,-0.10479 -0.54604,-0.0225 -0.22727,0.0909 -0.15976,0.15845 0.17212,0.17212 0.30032,0.0124 0.46858,-0.055 0.37392,-0.14963 z m -53.12044,-25.93965 c -0.19288,-0.078 -0.57748,-0.0828 -0.85467,-0.0106 -0.27719,0.0722 -0.11938,0.13608 0.35069,0.14188 0.47006,0.006 0.69685,-0.0533 0.50398,-0.13133 z m 4.55822,-0.28489 c -0.19288,-0.078 -0.57748,-0.0828 -0.85467,-0.0106 -0.27719,0.0722 -0.11938,0.13608 0.35069,0.14188 0.47007,0.006 0.69686,-0.0533 0.50398,-0.13133 z m 6.55094,-0.29856 c -0.35039,-0.0676 -0.99139,-0.0694 -1.42444,-0.004 -0.43305,0.0655 -0.14637,0.12081 0.63708,0.12295 0.78344,0.002 1.13776,-0.0514 0.78736,-0.11906 z m -29.06259,-0.2854 c -0.35255,-0.0679 -0.92945,-0.0679 -1.282,0 -0.35255,0.0679 -0.0641,0.12346 0.641,0.12346 0.7051,0 0.99355,-0.0556 0.641,-0.12346 z m 33.62232,0.0142 c -0.19288,-0.078 -0.57748,-0.0828 -0.85467,-0.0106 -0.27718,0.0722 -0.11937,0.13608 0.35069,0.14189 0.47007,0.006 0.69686,-0.0533 0.50398,-0.13133 z m 6.11376,-0.27014 c -0.0947,-0.0947 -0.34039,-0.10479 -0.54604,-0.0225 -0.22727,0.091 -0.15976,0.15845 0.17212,0.17212 0.30032,0.0124 0.46858,-0.055 0.37392,-0.14962 z m 5.41289,-0.85467 c -0.0947,-0.0947 -0.34038,-0.10479 -0.54604,-0.0225 -0.22726,0.0909 -0.15976,0.15845 0.17212,0.17212 0.30032,0.0124 0.46858,-0.055 0.37392,-0.14963 z m 5.98267,-0.85467 c -0.0947,-0.0947 -0.34039,-0.10479 -0.54604,-0.0225 -0.22727,0.0909 -0.15976,0.15845 0.17212,0.17212 0.30032,0.0124 0.46858,-0.055 0.37392,-0.14963 z m 26.00205,-6.38032 c 0.57255,-0.18337 0.60049,-0.22974 0.14245,-0.23647 -0.31338,-0.005 -0.82618,0.1018 -1.13956,0.23647 -0.72596,0.31195 0.023,0.31195 0.99711,0 z m 12.82001,-4.27334 c 0.23503,-0.15189 0.29913,-0.27616 0.14244,-0.27616 -0.15669,0 -0.47719,0.12427 -0.71222,0.27616 -0.23503,0.15189 -0.29913,0.27616 -0.14244,0.27616 0.15669,0 0.47719,-0.12427 0.71222,-0.27616 z m 4.40321,-1.41967 c 0.39864,-0.15156 0.72479,-0.3367 0.72479,-0.41143 0,-0.18349 -2.57149,0.59979 -2.8057,0.85462 -0.20944,0.22787 0.98499,-0.0265 2.08091,-0.44319 z m 122.97851,-2.21266 c 0.35437,-0.45185 0.34429,-0.46193 -0.10756,-0.10757 -0.47455,0.37218 -0.62547,0.60612 -0.39099,0.60612 0.0592,0 0.28351,-0.22435 0.49855,-0.49855 z m 4.55823,-4.27334 c 0.35436,-0.45185 0.34429,-0.46193 -0.10756,-0.10756 -0.47456,0.37217 -0.62547,0.60612 -0.391,0.60612 0.0592,0 0.28351,-0.22435 0.49856,-0.49856 z m 3.70355,-3.98844 c 0.35437,-0.45185 0.34429,-0.46193 -0.10756,-0.10757 -0.2742,0.21505 -0.49855,0.4394 -0.49855,0.49856 0,0.23447 0.23394,0.0836 0.60611,-0.39099 z"
       id="path2" /></g></svg>
